ISO-10303-21;
HEADER;
FILE_DESCRIPTION(('FreeCAD Model'),'2;1');
FILE_NAME('Open CASCADE Shape Model','2026-09-28T13:06:05',('Author'),(
    ''),'Open CASCADE STEP processor 7.8','FreeCAD','Unknown');
FILE_SCHEMA(('AUTOMOTIVE_DESIGN { 1 0 10303 214 1 1 1 1 }'));
ENDSEC;
DATA;
#1 = APPLICATION_PROTOCOL_DEFINITION('international standard',
  'automotive_design',2000,#2);
#2 = APPLICATION_CONTEXT(
  'core data for automotive mechanical design processes');
#3 = SHAPE_DEFINITION_REPRESENTATION(#4,#10);
#4 = PRODUCT_DEFINITION_SHAPE('','',#5);
#5 = PRODUCT_DEFINITION('design','',#6,#9);
#6 = PRODUCT_DEFINITION_FORMATION('','',#7);
#7 = PRODUCT('AGIT_PADDLE','AGIT_PADDLE','',(#8));
#8 = PRODUCT_CONTEXT('',#2,'mechanical');
#9 = PRODUCT_DEFINITION_CONTEXT('part definition',#2,'design');
#10 = ADVANCED_BREP_SHAPE_REPRESENTATION('',(#11,#15),#503);
#11 = AXIS2_PLACEMENT_3D('',#12,#13,#14);
#12 = CARTESIAN_POINT('',(0.,0.,0.));
#13 = DIRECTION('',(0.,0.,1.));
#14 = DIRECTION('',(1.,0.,-0.));
#15 = MANIFOLD_SOLID_BREP('',#16);
#16 = CLOSED_SHELL('',(#17,#152,#161,#192,#216,#240,#271,#303,#327,#358,
    #382,#406,#423,#447,#464,#481));
#17 = ADVANCED_FACE('',(#18),#147,.T.);
#18 = FACE_BOUND('',#19,.F.);
#19 = EDGE_LOOP('',(#20,#29,#37,#46,#54,#63,#71,#80,#88,#97,#105,#114,
    #122,#131,#139,#146));
#20 = ORIENTED_EDGE('',*,*,#21,.F.);
#21 = EDGE_CURVE('',#22,#22,#24,.T.);
#22 = VERTEX_POINT('',#23);
#23 = CARTESIAN_POINT('',(73.5,-50.,115.6));
#24 = CIRCLE('',#25,7.5);
#25 = AXIS2_PLACEMENT_3D('',#26,#27,#28);
#26 = CARTESIAN_POINT('',(66.,-50.,115.6));
#27 = DIRECTION('',(-0.,1.,0.));
#28 = DIRECTION('',(1.,0.,0.));
#29 = ORIENTED_EDGE('',*,*,#30,.T.);
#30 = EDGE_CURVE('',#22,#31,#33,.T.);
#31 = VERTEX_POINT('',#32);
#32 = CARTESIAN_POINT('',(73.5,-36.,115.6));
#33 = LINE('',#34,#35);
#34 = CARTESIAN_POINT('',(73.5,-50.,115.6));
#35 = VECTOR('',#36,1.);
#36 = DIRECTION('',(0.,1.,0.));
#37 = ORIENTED_EDGE('',*,*,#38,.T.);
#38 = EDGE_CURVE('',#31,#39,#41,.T.);
#39 = VERTEX_POINT('',#40);
#40 = CARTESIAN_POINT('',(73.493674284368,-36.,115.29202967707));
#41 = CIRCLE('',#42,7.5);
#42 = AXIS2_PLACEMENT_3D('',#43,#44,#45);
#43 = CARTESIAN_POINT('',(66.,-36.,115.6));
#44 = DIRECTION('',(-0.,1.,0.));
#45 = DIRECTION('',(1.,0.,0.));
#46 = ORIENTED_EDGE('',*,*,#47,.T.);
#47 = EDGE_CURVE('',#39,#48,#50,.T.);
#48 = VERTEX_POINT('',#49);
#49 = CARTESIAN_POINT('',(73.493674284368,-49.,115.29202967707));
#50 = LINE('',#51,#52);
#51 = CARTESIAN_POINT('',(73.493674284368,-50.,115.29202967707));
#52 = VECTOR('',#53,1.);
#53 = DIRECTION('',(0.,-1.,2.2E-16));
#54 = ORIENTED_EDGE('',*,*,#55,.F.);
#55 = EDGE_CURVE('',#56,#48,#58,.T.);
#56 = VERTEX_POINT('',#57);
#57 = CARTESIAN_POINT('',(72.534883348812,-49.,111.91960605132));
#58 = CIRCLE('',#59,7.5);
#59 = AXIS2_PLACEMENT_3D('',#60,#61,#62);
#60 = CARTESIAN_POINT('',(66.,-49.,115.6));
#61 = DIRECTION('',(0.,-1.,2.2E-16));
#62 = DIRECTION('',(1.,0.,0.));
#63 = ORIENTED_EDGE('',*,*,#64,.F.);
#64 = EDGE_CURVE('',#65,#56,#67,.T.);
#65 = VERTEX_POINT('',#66);
#66 = CARTESIAN_POINT('',(72.534883348812,-36.,111.91960605132));
#67 = LINE('',#68,#69);
#68 = CARTESIAN_POINT('',(72.534883348812,-50.,111.91960605132));
#69 = VECTOR('',#70,1.);
#70 = DIRECTION('',(0.,-1.,2.2E-16));
#71 = ORIENTED_EDGE('',*,*,#72,.T.);
#72 = EDGE_CURVE('',#65,#73,#75,.T.);
#73 = VERTEX_POINT('',#74);
#74 = CARTESIAN_POINT('',(58.712893479146,-36.,117.37428254619));
#75 = CIRCLE('',#76,7.5);
#76 = AXIS2_PLACEMENT_3D('',#77,#78,#79);
#77 = CARTESIAN_POINT('',(66.,-36.,115.6));
#78 = DIRECTION('',(-0.,1.,0.));
#79 = DIRECTION('',(1.,0.,0.));
#80 = ORIENTED_EDGE('',*,*,#81,.T.);
#81 = EDGE_CURVE('',#73,#82,#84,.T.);
#82 = VERTEX_POINT('',#83);
#83 = CARTESIAN_POINT('',(58.712893479146,-49.,117.37428254619));
#84 = LINE('',#85,#86);
#85 = CARTESIAN_POINT('',(58.712893479146,-50.,117.37428254619));
#86 = VECTOR('',#87,1.);
#87 = DIRECTION('',(0.,-1.,2.2E-16));
#88 = ORIENTED_EDGE('',*,*,#89,.F.);
#89 = EDGE_CURVE('',#90,#82,#92,.T.);
#90 = VERTEX_POINT('',#91);
#91 = CARTESIAN_POINT('',(63.175439843053,-49.,122.547795328));
#92 = CIRCLE('',#93,7.5);
#93 = AXIS2_PLACEMENT_3D('',#94,#95,#96);
#94 = CARTESIAN_POINT('',(66.,-49.,115.6));
#95 = DIRECTION('',(0.,-1.,2.2E-16));
#96 = DIRECTION('',(1.,0.,0.));
#97 = ORIENTED_EDGE('',*,*,#98,.F.);
#98 = EDGE_CURVE('',#99,#90,#101,.T.);
#99 = VERTEX_POINT('',#100);
#100 = CARTESIAN_POINT('',(63.175439843053,-36.,122.547795328));
#101 = LINE('',#102,#103);
#102 = CARTESIAN_POINT('',(63.175439843053,-50.,122.547795328));
#103 = VECTOR('',#104,1.);
#104 = DIRECTION('',(0.,-1.,2.2E-16));
#105 = ORIENTED_EDGE('',*,*,#106,.T.);
#106 = EDGE_CURVE('',#99,#107,#109,.T.);
#107 = VERTEX_POINT('',#108);
#108 = CARTESIAN_POINT('',(64.3,-36.,122.9047929471));
#109 = CIRCLE('',#110,7.5);
#110 = AXIS2_PLACEMENT_3D('',#111,#112,#113);
#111 = CARTESIAN_POINT('',(66.,-36.,115.6));
#112 = DIRECTION('',(-0.,1.,0.));
#113 = DIRECTION('',(1.,0.,0.));
#114 = ORIENTED_EDGE('',*,*,#115,.T.);
#115 = EDGE_CURVE('',#107,#116,#118,.T.);
#116 = VERTEX_POINT('',#117);
#117 = CARTESIAN_POINT('',(64.3,-49.,122.9047929471));
#118 = LINE('',#119,#120);
#119 = CARTESIAN_POINT('',(64.3,-50.,122.9047929471));
#120 = VECTOR('',#121,1.);
#121 = DIRECTION('',(0.,-1.,2.2E-16));
#122 = ORIENTED_EDGE('',*,*,#123,.F.);
#123 = EDGE_CURVE('',#124,#116,#126,.T.);
#124 = VERTEX_POINT('',#125);
#125 = CARTESIAN_POINT('',(67.7,-49.,122.9047929471));
#126 = CIRCLE('',#127,7.5);
#127 = AXIS2_PLACEMENT_3D('',#128,#129,#130);
#128 = CARTESIAN_POINT('',(66.,-49.,115.6));
#129 = DIRECTION('',(0.,-1.,2.2E-16));
#130 = DIRECTION('',(1.,0.,0.));
#131 = ORIENTED_EDGE('',*,*,#132,.F.);
#132 = EDGE_CURVE('',#133,#124,#135,.T.);
#133 = VERTEX_POINT('',#134);
#134 = CARTESIAN_POINT('',(67.7,-36.,122.9047929471));
#135 = LINE('',#136,#137);
#136 = CARTESIAN_POINT('',(67.7,-50.,122.9047929471));
#137 = VECTOR('',#138,1.);
#138 = DIRECTION('',(0.,-1.,2.2E-16));
#139 = ORIENTED_EDGE('',*,*,#140,.T.);
#140 = EDGE_CURVE('',#133,#31,#141,.T.);
#141 = CIRCLE('',#142,7.5);
#142 = AXIS2_PLACEMENT_3D('',#143,#144,#145);
#143 = CARTESIAN_POINT('',(66.,-36.,115.6));
#144 = DIRECTION('',(-0.,1.,0.));
#145 = DIRECTION('',(1.,0.,0.));
#146 = ORIENTED_EDGE('',*,*,#30,.F.);
#147 = CYLINDRICAL_SURFACE('',#148,7.5);
#148 = AXIS2_PLACEMENT_3D('',#149,#150,#151);
#149 = CARTESIAN_POINT('',(66.,-50.,115.6));
#150 = DIRECTION('',(-0.,-1.,0.));
#151 = DIRECTION('',(1.,0.,0.));
#152 = ADVANCED_FACE('',(#153),#156,.F.);
#153 = FACE_BOUND('',#154,.T.);
#154 = EDGE_LOOP('',(#155));
#155 = ORIENTED_EDGE('',*,*,#21,.F.);
#156 = PLANE('',#157);
#157 = AXIS2_PLACEMENT_3D('',#158,#159,#160);
#158 = CARTESIAN_POINT('',(66.,-50.,115.6));
#159 = DIRECTION('',(0.,1.,0.));
#160 = DIRECTION('',(1.,0.,0.));
#161 = ADVANCED_FACE('',(#162),#187,.T.);
#162 = FACE_BOUND('',#163,.T.);
#163 = EDGE_LOOP('',(#164,#172,#173,#181));
#164 = ORIENTED_EDGE('',*,*,#165,.F.);
#165 = EDGE_CURVE('',#124,#166,#168,.T.);
#166 = VERTEX_POINT('',#167);
#167 = CARTESIAN_POINT('',(67.7,-49.,144.6));
#168 = LINE('',#169,#170);
#169 = CARTESIAN_POINT('',(67.7,-49.,120.6));
#170 = VECTOR('',#171,1.);
#171 = DIRECTION('',(0.,0.,1.));
#172 = ORIENTED_EDGE('',*,*,#132,.F.);
#173 = ORIENTED_EDGE('',*,*,#174,.T.);
#174 = EDGE_CURVE('',#133,#175,#177,.T.);
#175 = VERTEX_POINT('',#176);
#176 = CARTESIAN_POINT('',(67.7,-36.,144.6));
#177 = LINE('',#178,#179);
#178 = CARTESIAN_POINT('',(67.7,-36.,120.6));
#179 = VECTOR('',#180,1.);
#180 = DIRECTION('',(0.,0.,1.));
#181 = ORIENTED_EDGE('',*,*,#182,.F.);
#182 = EDGE_CURVE('',#166,#175,#183,.T.);
#183 = LINE('',#184,#185);
#184 = CARTESIAN_POINT('',(67.7,-49.,144.6));
#185 = VECTOR('',#186,1.);
#186 = DIRECTION('',(0.,1.,0.));
#187 = PLANE('',#188);
#188 = AXIS2_PLACEMENT_3D('',#189,#190,#191);
#189 = CARTESIAN_POINT('',(67.7,-49.,120.6));
#190 = DIRECTION('',(1.,0.,0.));
#191 = DIRECTION('',(0.,0.,1.));
#192 = ADVANCED_FACE('',(#193),#211,.F.);
#193 = FACE_BOUND('',#194,.F.);
#194 = EDGE_LOOP('',(#195,#196,#197,#205));
#195 = ORIENTED_EDGE('',*,*,#165,.F.);
#196 = ORIENTED_EDGE('',*,*,#123,.T.);
#197 = ORIENTED_EDGE('',*,*,#198,.T.);
#198 = EDGE_CURVE('',#116,#199,#201,.T.);
#199 = VERTEX_POINT('',#200);
#200 = CARTESIAN_POINT('',(64.3,-49.,144.6));
#201 = LINE('',#202,#203);
#202 = CARTESIAN_POINT('',(64.3,-49.,120.6));
#203 = VECTOR('',#204,1.);
#204 = DIRECTION('',(0.,0.,1.));
#205 = ORIENTED_EDGE('',*,*,#206,.T.);
#206 = EDGE_CURVE('',#199,#166,#207,.T.);
#207 = LINE('',#208,#209);
#208 = CARTESIAN_POINT('',(64.3,-49.,144.6));
#209 = VECTOR('',#210,1.);
#210 = DIRECTION('',(1.,0.,0.));
#211 = PLANE('',#212);
#212 = AXIS2_PLACEMENT_3D('',#213,#214,#215);
#213 = CARTESIAN_POINT('',(64.3,-49.,120.6));
#214 = DIRECTION('',(0.,1.,0.));
#215 = DIRECTION('',(0.,0.,1.));
#216 = ADVANCED_FACE('',(#217),#235,.F.);
#217 = FACE_BOUND('',#218,.F.);
#218 = EDGE_LOOP('',(#219,#220,#221,#229));
#219 = ORIENTED_EDGE('',*,*,#198,.F.);
#220 = ORIENTED_EDGE('',*,*,#115,.F.);
#221 = ORIENTED_EDGE('',*,*,#222,.T.);
#222 = EDGE_CURVE('',#107,#223,#225,.T.);
#223 = VERTEX_POINT('',#224);
#224 = CARTESIAN_POINT('',(64.3,-36.,144.6));
#225 = LINE('',#226,#227);
#226 = CARTESIAN_POINT('',(64.3,-36.,120.6));
#227 = VECTOR('',#228,1.);
#228 = DIRECTION('',(0.,0.,1.));
#229 = ORIENTED_EDGE('',*,*,#230,.F.);
#230 = EDGE_CURVE('',#199,#223,#231,.T.);
#231 = LINE('',#232,#233);
#232 = CARTESIAN_POINT('',(64.3,-49.,144.6));
#233 = VECTOR('',#234,1.);
#234 = DIRECTION('',(0.,1.,0.));
#235 = PLANE('',#236);
#236 = AXIS2_PLACEMENT_3D('',#237,#238,#239);
#237 = CARTESIAN_POINT('',(64.3,-49.,120.6));
#238 = DIRECTION('',(1.,0.,0.));
#239 = DIRECTION('',(0.,0.,1.));
#240 = ADVANCED_FACE('',(#241),#266,.F.);
#241 = FACE_BOUND('',#242,.F.);
#242 = EDGE_LOOP('',(#243,#244,#252,#260));
#243 = ORIENTED_EDGE('',*,*,#98,.T.);
#244 = ORIENTED_EDGE('',*,*,#245,.T.);
#245 = EDGE_CURVE('',#90,#246,#248,.T.);
#246 = VERTEX_POINT('',#247);
#247 = CARTESIAN_POINT('',(62.6,-49.,123.54448637286));
#248 = LINE('',#249,#250);
#249 = CARTESIAN_POINT('',(64.3,-49.,120.6));
#250 = VECTOR('',#251,1.);
#251 = DIRECTION('',(-0.5,0.,0.866025403784));
#252 = ORIENTED_EDGE('',*,*,#253,.T.);
#253 = EDGE_CURVE('',#246,#254,#256,.T.);
#254 = VERTEX_POINT('',#255);
#255 = CARTESIAN_POINT('',(62.6,-36.,123.54448637286));
#256 = LINE('',#257,#258);
#257 = CARTESIAN_POINT('',(62.6,-49.,123.54448637286));
#258 = VECTOR('',#259,1.);
#259 = DIRECTION('',(0.,1.,0.));
#260 = ORIENTED_EDGE('',*,*,#261,.F.);
#261 = EDGE_CURVE('',#99,#254,#262,.T.);
#262 = LINE('',#263,#264);
#263 = CARTESIAN_POINT('',(64.3,-36.,120.6));
#264 = VECTOR('',#265,1.);
#265 = DIRECTION('',(-0.5,0.,0.866025403784));
#266 = PLANE('',#267);
#267 = AXIS2_PLACEMENT_3D('',#268,#269,#270);
#268 = CARTESIAN_POINT('',(64.3,-49.,120.6));
#269 = DIRECTION('',(-0.866025403784,0.,-0.5));
#270 = DIRECTION('',(-0.5,0.,0.866025403784));
#271 = ADVANCED_FACE('',(#272),#298,.F.);
#272 = FACE_BOUND('',#273,.F.);
#273 = EDGE_LOOP('',(#274,#275,#276,#284,#292));
#274 = ORIENTED_EDGE('',*,*,#245,.F.);
#275 = ORIENTED_EDGE('',*,*,#89,.T.);
#276 = ORIENTED_EDGE('',*,*,#277,.T.);
#277 = EDGE_CURVE('',#82,#278,#280,.T.);
#278 = VERTEX_POINT('',#279);
#279 = CARTESIAN_POINT('',(43.515390309173,-49.,108.6));
#280 = LINE('',#281,#282);
#281 = CARTESIAN_POINT('',(64.3,-49.,120.6));
#282 = VECTOR('',#283,1.);
#283 = DIRECTION('',(-0.866025403784,0.,-0.5));
#284 = ORIENTED_EDGE('',*,*,#285,.T.);
#285 = EDGE_CURVE('',#278,#286,#288,.T.);
#286 = VERTEX_POINT('',#287);
#287 = CARTESIAN_POINT('',(41.815390309173,-49.,111.54448637286));
#288 = LINE('',#289,#290);
#289 = CARTESIAN_POINT('',(43.515390309173,-49.,108.6));
#290 = VECTOR('',#291,1.);
#291 = DIRECTION('',(-0.5,0.,0.866025403784));
#292 = ORIENTED_EDGE('',*,*,#293,.F.);
#293 = EDGE_CURVE('',#246,#286,#294,.T.);
#294 = LINE('',#295,#296);
#295 = CARTESIAN_POINT('',(62.6,-49.,123.54448637286));
#296 = VECTOR('',#297,1.);
#297 = DIRECTION('',(-0.866025403784,0.,-0.5));
#298 = PLANE('',#299);
#299 = AXIS2_PLACEMENT_3D('',#300,#301,#302);
#300 = CARTESIAN_POINT('',(64.3,-49.,120.6));
#301 = DIRECTION('',(0.,1.,0.));
#302 = DIRECTION('',(-0.866025403784,0.,-0.5));
#303 = ADVANCED_FACE('',(#304),#322,.F.);
#304 = FACE_BOUND('',#305,.F.);
#305 = EDGE_LOOP('',(#306,#307,#308,#316));
#306 = ORIENTED_EDGE('',*,*,#277,.F.);
#307 = ORIENTED_EDGE('',*,*,#81,.F.);
#308 = ORIENTED_EDGE('',*,*,#309,.T.);
#309 = EDGE_CURVE('',#73,#310,#312,.T.);
#310 = VERTEX_POINT('',#311);
#311 = CARTESIAN_POINT('',(43.515390309173,-36.,108.6));
#312 = LINE('',#313,#314);
#313 = CARTESIAN_POINT('',(64.3,-36.,120.6));
#314 = VECTOR('',#315,1.);
#315 = DIRECTION('',(-0.866025403784,0.,-0.5));
#316 = ORIENTED_EDGE('',*,*,#317,.F.);
#317 = EDGE_CURVE('',#278,#310,#318,.T.);
#318 = LINE('',#319,#320);
#319 = CARTESIAN_POINT('',(43.515390309173,-49.,108.6));
#320 = VECTOR('',#321,1.);
#321 = DIRECTION('',(0.,1.,0.));
#322 = PLANE('',#323);
#323 = AXIS2_PLACEMENT_3D('',#324,#325,#326);
#324 = CARTESIAN_POINT('',(64.3,-49.,120.6));
#325 = DIRECTION('',(-0.5,0.,0.866025403784));
#326 = DIRECTION('',(-0.866025403784,0.,-0.5));
#327 = ADVANCED_FACE('',(#328),#353,.T.);
#328 = FACE_BOUND('',#329,.T.);
#329 = EDGE_LOOP('',(#330,#338,#339,#347));
#330 = ORIENTED_EDGE('',*,*,#331,.F.);
#331 = EDGE_CURVE('',#56,#332,#334,.T.);
#332 = VERTEX_POINT('',#333);
#333 = CARTESIAN_POINT('',(83.384609690827,-49.,105.65551362713));
#334 = LINE('',#335,#336);
#335 = CARTESIAN_POINT('',(62.6,-49.,117.65551362713));
#336 = VECTOR('',#337,1.);
#337 = DIRECTION('',(0.866025403784,0.,-0.5));
#338 = ORIENTED_EDGE('',*,*,#64,.F.);
#339 = ORIENTED_EDGE('',*,*,#340,.T.);
#340 = EDGE_CURVE('',#65,#341,#343,.T.);
#341 = VERTEX_POINT('',#342);
#342 = CARTESIAN_POINT('',(83.384609690827,-36.,105.65551362713));
#343 = LINE('',#344,#345);
#344 = CARTESIAN_POINT('',(62.6,-36.,117.65551362713));
#345 = VECTOR('',#346,1.);
#346 = DIRECTION('',(0.866025403784,0.,-0.5));
#347 = ORIENTED_EDGE('',*,*,#348,.F.);
#348 = EDGE_CURVE('',#332,#341,#349,.T.);
#349 = LINE('',#350,#351);
#350 = CARTESIAN_POINT('',(83.384609690827,-49.,105.65551362713));
#351 = VECTOR('',#352,1.);
#352 = DIRECTION('',(0.,1.,0.));
#353 = PLANE('',#354);
#354 = AXIS2_PLACEMENT_3D('',#355,#356,#357);
#355 = CARTESIAN_POINT('',(62.6,-49.,117.65551362713));
#356 = DIRECTION('',(-0.5,0.,-0.866025403784));
#357 = DIRECTION('',(0.866025403784,0.,-0.5));
#358 = ADVANCED_FACE('',(#359),#377,.F.);
#359 = FACE_BOUND('',#360,.F.);
#360 = EDGE_LOOP('',(#361,#362,#363,#371));
#361 = ORIENTED_EDGE('',*,*,#331,.F.);
#362 = ORIENTED_EDGE('',*,*,#55,.T.);
#363 = ORIENTED_EDGE('',*,*,#364,.T.);
#364 = EDGE_CURVE('',#48,#365,#367,.T.);
#365 = VERTEX_POINT('',#366);
#366 = CARTESIAN_POINT('',(85.084609690827,-49.,108.6));
#367 = LINE('',#368,#369);
#368 = CARTESIAN_POINT('',(64.3,-49.,120.6));
#369 = VECTOR('',#370,1.);
#370 = DIRECTION('',(0.866025403784,0.,-0.5));
#371 = ORIENTED_EDGE('',*,*,#372,.T.);
#372 = EDGE_CURVE('',#365,#332,#373,.T.);
#373 = LINE('',#374,#375);
#374 = CARTESIAN_POINT('',(85.084609690827,-49.,108.6));
#375 = VECTOR('',#376,1.);
#376 = DIRECTION('',(-0.5,0.,-0.866025403784));
#377 = PLANE('',#378);
#378 = AXIS2_PLACEMENT_3D('',#379,#380,#381);
#379 = CARTESIAN_POINT('',(64.3,-49.,120.6));
#380 = DIRECTION('',(0.,1.,0.));
#381 = DIRECTION('',(0.866025403784,0.,-0.5));
#382 = ADVANCED_FACE('',(#383),#401,.F.);
#383 = FACE_BOUND('',#384,.F.);
#384 = EDGE_LOOP('',(#385,#386,#387,#395));
#385 = ORIENTED_EDGE('',*,*,#364,.F.);
#386 = ORIENTED_EDGE('',*,*,#47,.F.);
#387 = ORIENTED_EDGE('',*,*,#388,.T.);
#388 = EDGE_CURVE('',#39,#389,#391,.T.);
#389 = VERTEX_POINT('',#390);
#390 = CARTESIAN_POINT('',(85.084609690827,-36.,108.6));
#391 = LINE('',#392,#393);
#392 = CARTESIAN_POINT('',(64.3,-36.,120.6));
#393 = VECTOR('',#394,1.);
#394 = DIRECTION('',(0.866025403784,0.,-0.5));
#395 = ORIENTED_EDGE('',*,*,#396,.F.);
#396 = EDGE_CURVE('',#365,#389,#397,.T.);
#397 = LINE('',#398,#399);
#398 = CARTESIAN_POINT('',(85.084609690827,-49.,108.6));
#399 = VECTOR('',#400,1.);
#400 = DIRECTION('',(0.,1.,0.));
#401 = PLANE('',#402);
#402 = AXIS2_PLACEMENT_3D('',#403,#404,#405);
#403 = CARTESIAN_POINT('',(64.3,-49.,120.6));
#404 = DIRECTION('',(-0.5,0.,-0.866025403784));
#405 = DIRECTION('',(0.866025403784,0.,-0.5));
#406 = ADVANCED_FACE('',(#407),#418,.T.);
#407 = FACE_BOUND('',#408,.T.);
#408 = EDGE_LOOP('',(#409,#410,#411,#412));
#409 = ORIENTED_EDGE('',*,*,#230,.F.);
#410 = ORIENTED_EDGE('',*,*,#206,.T.);
#411 = ORIENTED_EDGE('',*,*,#182,.T.);
#412 = ORIENTED_EDGE('',*,*,#413,.F.);
#413 = EDGE_CURVE('',#223,#175,#414,.T.);
#414 = LINE('',#415,#416);
#415 = CARTESIAN_POINT('',(64.3,-36.,144.6));
#416 = VECTOR('',#417,1.);
#417 = DIRECTION('',(1.,0.,0.));
#418 = PLANE('',#419);
#419 = AXIS2_PLACEMENT_3D('',#420,#421,#422);
#420 = CARTESIAN_POINT('',(64.3,-49.,144.6));
#421 = DIRECTION('',(0.,0.,1.));
#422 = DIRECTION('',(1.,0.,0.));
#423 = ADVANCED_FACE('',(#424),#442,.T.);
#424 = FACE_BOUND('',#425,.T.);
#425 = EDGE_LOOP('',(#426,#427,#428,#436));
#426 = ORIENTED_EDGE('',*,*,#293,.F.);
#427 = ORIENTED_EDGE('',*,*,#253,.T.);
#428 = ORIENTED_EDGE('',*,*,#429,.T.);
#429 = EDGE_CURVE('',#254,#430,#432,.T.);
#430 = VERTEX_POINT('',#431);
#431 = CARTESIAN_POINT('',(41.815390309173,-36.,111.54448637286));
#432 = LINE('',#433,#434);
#433 = CARTESIAN_POINT('',(62.6,-36.,123.54448637286));
#434 = VECTOR('',#435,1.);
#435 = DIRECTION('',(-0.866025403784,0.,-0.5));
#436 = ORIENTED_EDGE('',*,*,#437,.F.);
#437 = EDGE_CURVE('',#286,#430,#438,.T.);
#438 = LINE('',#439,#440);
#439 = CARTESIAN_POINT('',(41.815390309173,-49.,111.54448637286));
#440 = VECTOR('',#441,1.);
#441 = DIRECTION('',(0.,1.,0.));
#442 = PLANE('',#443);
#443 = AXIS2_PLACEMENT_3D('',#444,#445,#446);
#444 = CARTESIAN_POINT('',(62.6,-49.,123.54448637286));
#445 = DIRECTION('',(-0.5,0.,0.866025403784));
#446 = DIRECTION('',(-0.866025403784,0.,-0.5));
#447 = ADVANCED_FACE('',(#448),#459,.T.);
#448 = FACE_BOUND('',#449,.T.);
#449 = EDGE_LOOP('',(#450,#451,#452,#453));
#450 = ORIENTED_EDGE('',*,*,#317,.F.);
#451 = ORIENTED_EDGE('',*,*,#285,.T.);
#452 = ORIENTED_EDGE('',*,*,#437,.T.);
#453 = ORIENTED_EDGE('',*,*,#454,.F.);
#454 = EDGE_CURVE('',#310,#430,#455,.T.);
#455 = LINE('',#456,#457);
#456 = CARTESIAN_POINT('',(43.515390309173,-36.,108.6));
#457 = VECTOR('',#458,1.);
#458 = DIRECTION('',(-0.5,0.,0.866025403784));
#459 = PLANE('',#460);
#460 = AXIS2_PLACEMENT_3D('',#461,#462,#463);
#461 = CARTESIAN_POINT('',(43.515390309173,-49.,108.6));
#462 = DIRECTION('',(-0.866025403784,0.,-0.5));
#463 = DIRECTION('',(-0.5,0.,0.866025403784));
#464 = ADVANCED_FACE('',(#465),#476,.T.);
#465 = FACE_BOUND('',#466,.T.);
#466 = EDGE_LOOP('',(#467,#468,#469,#470));
#467 = ORIENTED_EDGE('',*,*,#396,.F.);
#468 = ORIENTED_EDGE('',*,*,#372,.T.);
#469 = ORIENTED_EDGE('',*,*,#348,.T.);
#470 = ORIENTED_EDGE('',*,*,#471,.F.);
#471 = EDGE_CURVE('',#389,#341,#472,.T.);
#472 = LINE('',#473,#474);
#473 = CARTESIAN_POINT('',(85.084609690827,-36.,108.6));
#474 = VECTOR('',#475,1.);
#475 = DIRECTION('',(-0.5,0.,-0.866025403784));
#476 = PLANE('',#477);
#477 = AXIS2_PLACEMENT_3D('',#478,#479,#480);
#478 = CARTESIAN_POINT('',(85.084609690827,-49.,108.6));
#479 = DIRECTION('',(0.866025403784,0.,-0.5));
#480 = DIRECTION('',(-0.5,0.,-0.866025403784));
#481 = ADVANCED_FACE('',(#482),#498,.T.);
#482 = FACE_BOUND('',#483,.T.);
#483 = EDGE_LOOP('',(#484,#485,#486,#487,#488,#489,#490,#491,#492,#493,
    #494,#495,#496,#497));
#484 = ORIENTED_EDGE('',*,*,#140,.T.);
#485 = ORIENTED_EDGE('',*,*,#38,.T.);
#486 = ORIENTED_EDGE('',*,*,#388,.T.);
#487 = ORIENTED_EDGE('',*,*,#471,.T.);
#488 = ORIENTED_EDGE('',*,*,#340,.F.);
#489 = ORIENTED_EDGE('',*,*,#72,.T.);
#490 = ORIENTED_EDGE('',*,*,#309,.T.);
#491 = ORIENTED_EDGE('',*,*,#454,.T.);
#492 = ORIENTED_EDGE('',*,*,#429,.F.);
#493 = ORIENTED_EDGE('',*,*,#261,.F.);
#494 = ORIENTED_EDGE('',*,*,#106,.T.);
#495 = ORIENTED_EDGE('',*,*,#222,.T.);
#496 = ORIENTED_EDGE('',*,*,#413,.T.);
#497 = ORIENTED_EDGE('',*,*,#174,.F.);
#498 = PLANE('',#499);
#499 = AXIS2_PLACEMENT_3D('',#500,#501,#502);
#500 = CARTESIAN_POINT('',(64.25913392863,-36.,119.95655501668));
#501 = DIRECTION('',(0.,1.,0.));
#502 = DIRECTION('',(0.,0.,1.));
#503 = ( GEOMETRIC_REPRESENTATION_CONTEXT(3) 
GLOBAL_UNCERTAINTY_ASSIGNED_CONTEXT((#507)) GLOBAL_UNIT_ASSIGNED_CONTEXT
((#504,#505,#506)) REPRESENTATION_CONTEXT('Context #1',
  '3D Context with UNIT and UNCERTAINTY') );
#504 = ( LENGTH_UNIT() NAMED_UNIT(*) SI_UNIT(.MILLI.,.METRE.) );
#505 = ( NAMED_UNIT(*) PLANE_ANGLE_UNIT() SI_UNIT($,.RADIAN.) );
#506 = ( NAMED_UNIT(*) SI_UNIT($,.STERADIAN.) SOLID_ANGLE_UNIT() );
#507 = UNCERTAINTY_MEASURE_WITH_UNIT(LENGTH_MEASURE(1.E-07),#504,
  'distance_accuracy_value','confusion accuracy');
#508 = PRODUCT_RELATED_PRODUCT_CATEGORY('part',$,(#7));
ENDSEC;
END-ISO-10303-21;
