ISO-10303-21;
HEADER;
FILE_DESCRIPTION(('FreeCAD Model'),'2;1');
FILE_NAME('Open CASCADE Shape Model','2026-09-29T03:47:05',('Author'),(
    ''),'Open CASCADE STEP processor 7.8','FreeCAD','Unknown');
FILE_SCHEMA(('AUTOMOTIVE_DESIGN { 1 0 10303 214 1 1 1 1 }'));
ENDSEC;
DATA;
#1 = APPLICATION_PROTOCOL_DEFINITION('international standard',
  'automotive_design',2000,#2);
#2 = APPLICATION_CONTEXT(
  'core data for automotive mechanical design processes');
#3 = SHAPE_DEFINITION_REPRESENTATION(#4,#10);
#4 = PRODUCT_DEFINITION_SHAPE('','',#5);
#5 = PRODUCT_DEFINITION('design','',#6,#9);
#6 = PRODUCT_DEFINITION_FORMATION('','',#7);
#7 = PRODUCT('master_robot','master_robot','',(#8));
#8 = PRODUCT_CONTEXT('',#2,'mechanical');
#9 = PRODUCT_DEFINITION_CONTEXT('part definition',#2,'design');
#10 = SHAPE_REPRESENTATION('',(#11,#15,#19),#23);
#11 = AXIS2_PLACEMENT_3D('',#12,#13,#14);
#12 = CARTESIAN_POINT('',(0.,0.,0.));
#13 = DIRECTION('',(0.,0.,1.));
#14 = DIRECTION('',(1.,0.,-0.));
#15 = AXIS2_PLACEMENT_3D('',#16,#17,#18);
#16 = CARTESIAN_POINT('',(0.,0.,0.));
#17 = DIRECTION('',(0.,0.,1.));
#18 = DIRECTION('',(1.,0.,0.));
#19 = AXIS2_PLACEMENT_3D('',#20,#21,#22);
#20 = CARTESIAN_POINT('',(0.,0.,0.));
#21 = DIRECTION('',(0.,0.,1.));
#22 = DIRECTION('',(1.,0.,0.));
#23 = ( GEOMETRIC_REPRESENTATION_CONTEXT(3) 
GLOBAL_UNCERTAINTY_ASSIGNED_CONTEXT((#27)) GLOBAL_UNIT_ASSIGNED_CONTEXT(
(#24,#25,#26)) REPRESENTATION_CONTEXT('Context #1',
  '3D Context with UNIT and UNCERTAINTY') );
#24 = ( LENGTH_UNIT() NAMED_UNIT(*) SI_UNIT(.MILLI.,.METRE.) );
#25 = ( NAMED_UNIT(*) PLANE_ANGLE_UNIT() SI_UNIT($,.RADIAN.) );
#26 = ( NAMED_UNIT(*) SI_UNIT($,.STERADIAN.) SOLID_ANGLE_UNIT() );
#27 = UNCERTAINTY_MEASURE_WITH_UNIT(LENGTH_MEASURE(2.E-06),#24,
  'distance_accuracy_value','confusion accuracy');
#28 = PRODUCT_RELATED_PRODUCT_CATEGORY('part',$,(#7));
#29 = SHAPE_DEFINITION_REPRESENTATION(#30,#36);
#30 = PRODUCT_DEFINITION_SHAPE('','',#31);
#31 = PRODUCT_DEFINITION('design','',#32,#35);
#32 = PRODUCT_DEFINITION_FORMATION('','',#33);
#33 = PRODUCT('CHUTE_LIP_L2_0','CHUTE_LIP_L2_0','',(#34));
#34 = PRODUCT_CONTEXT('',#2,'mechanical');
#35 = PRODUCT_DEFINITION_CONTEXT('part definition',#2,'design');
#36 = ADVANCED_BREP_SHAPE_REPRESENTATION('',(#11,#37),#175);
#37 = MANIFOLD_SOLID_BREP('',#38);
#38 = CLOSED_SHELL('',(#39,#75,#103,#125,#147,#163));
#39 = ADVANCED_FACE('',(#40),#70,.F.);
#40 = FACE_BOUND('',#41,.F.);
#41 = EDGE_LOOP('',(#42,#51,#58,#65));
#42 = ORIENTED_EDGE('',*,*,#43,.F.);
#43 = EDGE_CURVE('',#44,#46,#48,.T.);
#44 = VERTEX_POINT('',#45);
#45 = CARTESIAN_POINT('',(-140.3564979847,104.00944818517,
    170.63796461898));
#46 = VERTEX_POINT('',#47);
#47 = CARTESIAN_POINT('',(-142.0321404861,108.80787898456,183.6827829033
    ));
#48 = B_SPLINE_CURVE_WITH_KNOTS('',1,(#49,#50),.UNSPECIFIED.,.F.,.F.,(2,
    2),(0.,14.),.PIECEWISE_BEZIER_KNOTS.);
#49 = CARTESIAN_POINT('',(-140.3564979847,104.00944818517,
    170.63796461898));
#50 = CARTESIAN_POINT('',(-142.0321404861,108.80787898456,183.6827829033
    ));
#51 = ORIENTED_EDGE('',*,*,#52,.T.);
#52 = EDGE_CURVE('',#44,#53,#55,.T.);
#53 = VERTEX_POINT('',#54);
#54 = CARTESIAN_POINT('',(-143.1887732305,103.02039968666,
    170.63796461898));
#55 = B_SPLINE_CURVE_WITH_KNOTS('',1,(#56,#57),.UNSPECIFIED.,.F.,.F.,(2,
    2),(0.,3.),.PIECEWISE_BEZIER_KNOTS.);
#56 = CARTESIAN_POINT('',(-140.3564979847,104.00944818517,
    170.63796461898));
#57 = CARTESIAN_POINT('',(-143.1887732305,103.02039968666,
    170.63796461898));
#58 = ORIENTED_EDGE('',*,*,#59,.T.);
#59 = EDGE_CURVE('',#53,#60,#62,.T.);
#60 = VERTEX_POINT('',#61);
#61 = CARTESIAN_POINT('',(-144.8644157318,107.81883048605,183.6827829033
    ));
#62 = B_SPLINE_CURVE_WITH_KNOTS('',1,(#63,#64),.UNSPECIFIED.,.F.,.F.,(2,
    2),(0.,14.),.PIECEWISE_BEZIER_KNOTS.);
#63 = CARTESIAN_POINT('',(-143.1887732305,103.02039968666,
    170.63796461898));
#64 = CARTESIAN_POINT('',(-144.8644157318,107.81883048605,183.6827829033
    ));
#65 = ORIENTED_EDGE('',*,*,#66,.F.);
#66 = EDGE_CURVE('',#46,#60,#67,.T.);
#67 = B_SPLINE_CURVE_WITH_KNOTS('',1,(#68,#69),.UNSPECIFIED.,.F.,.F.,(2,
    2),(0.,3.),.PIECEWISE_BEZIER_KNOTS.);
#68 = CARTESIAN_POINT('',(-142.0321404861,108.80787898456,183.6827829033
    ));
#69 = CARTESIAN_POINT('',(-144.8644157318,107.81883048605,183.6827829033
    ));
#70 = B_SPLINE_SURFACE_WITH_KNOTS('',1,1,(
    (#71,#72)
    ,(#73,#74)),.UNSPECIFIED.,.F.,.F.,.F.,(2,2),(2,2),(0.,14.),(-3.,0.),
  .PIECEWISE_BEZIER_KNOTS.);
#71 = CARTESIAN_POINT('',(-143.1887732305,103.02039968666,
    170.63796461898));
#72 = CARTESIAN_POINT('',(-140.3564979847,104.00944818517,
    170.63796461898));
#73 = CARTESIAN_POINT('',(-144.8644157318,107.81883048605,183.6827829033
    ));
#74 = CARTESIAN_POINT('',(-142.0321404861,108.80787898456,183.6827829033
    ));
#75 = ADVANCED_FACE('',(#76),#98,.F.);
#76 = FACE_BOUND('',#77,.F.);
#77 = EDGE_LOOP('',(#78,#85,#86,#93));
#78 = ORIENTED_EDGE('',*,*,#79,.F.);
#79 = EDGE_CURVE('',#44,#80,#82,.T.);
#80 = VERTEX_POINT('',#81);
#81 = CARTESIAN_POINT('',(-152.0296980234,137.43724829582,
    156.84236457331));
#82 = B_SPLINE_CURVE_WITH_KNOTS('',1,(#83,#84),.UNSPECIFIED.,.F.,.F.,(2,
    2),(0.,68.617037079176),.PIECEWISE_BEZIER_KNOTS.);
#83 = CARTESIAN_POINT('',(-140.3564979847,104.00944818517,
    170.63796461898));
#84 = CARTESIAN_POINT('',(-161.4349295606,164.37041133432,
    145.72709093837));
#85 = ORIENTED_EDGE('',*,*,#43,.T.);
#86 = ORIENTED_EDGE('',*,*,#87,.T.);
#87 = EDGE_CURVE('',#46,#88,#90,.T.);
#88 = VERTEX_POINT('',#89);
#89 = CARTESIAN_POINT('',(-153.7053405248,142.23567909522,
    169.88718285763));
#90 = B_SPLINE_CURVE_WITH_KNOTS('',1,(#91,#92),.UNSPECIFIED.,.F.,.F.,(2,
    2),(0.,68.617037079176),.PIECEWISE_BEZIER_KNOTS.);
#91 = CARTESIAN_POINT('',(-142.0321404861,108.80787898456,183.6827829033
    ));
#92 = CARTESIAN_POINT('',(-163.110572062,169.16884213372,158.77190922269
    ));
#93 = ORIENTED_EDGE('',*,*,#94,.F.);
#94 = EDGE_CURVE('',#80,#88,#95,.T.);
#95 = B_SPLINE_CURVE_WITH_KNOTS('',1,(#96,#97),.UNSPECIFIED.,.F.,.F.,(2,
    2),(0.,1.),.PIECEWISE_BEZIER_KNOTS.);
#96 = CARTESIAN_POINT('',(-152.0296980234,137.43724829582,
    156.84236457331));
#97 = CARTESIAN_POINT('',(-153.7053405248,142.23567909522,
    169.88718285763));
#98 = B_SPLINE_SURFACE_WITH_KNOTS('',1,1,(
    (#99,#100)
    ,(#101,#102
    )),.UNSPECIFIED.,.F.,.F.,.F.,(2,2),(2,2),(0.,14.),(0.,
    68.617037079176),.PIECEWISE_BEZIER_KNOTS.);
#99 = CARTESIAN_POINT('',(-140.3564979847,104.00944818517,
    170.63796461898));
#100 = CARTESIAN_POINT('',(-161.4349295606,164.37041133432,
    145.72709093837));
#101 = CARTESIAN_POINT('',(-142.0321404861,108.80787898456,
    183.6827829033));
#102 = CARTESIAN_POINT('',(-163.110572062,169.16884213372,
    158.77190922269));
#103 = ADVANCED_FACE('',(#104),#120,.T.);
#104 = FACE_BOUND('',#105,.T.);
#105 = EDGE_LOOP('',(#106,#113,#114,#115));
#106 = ORIENTED_EDGE('',*,*,#107,.F.);
#107 = EDGE_CURVE('',#60,#108,#110,.T.);
#108 = VERTEX_POINT('',#109);
#109 = CARTESIAN_POINT('',(-156.5376157705,141.24663059671,
    169.88718285763));
#110 = B_SPLINE_CURVE_WITH_KNOTS('',1,(#111,#112),.UNSPECIFIED.,.F.,.F.,
  (2,2),(0.,68.617037079176),.PIECEWISE_BEZIER_KNOTS.);
#111 = CARTESIAN_POINT('',(-144.8644157318,107.81883048605,
    183.6827829033));
#112 = CARTESIAN_POINT('',(-165.9428473077,168.17979363521,
    158.77190922269));
#113 = ORIENTED_EDGE('',*,*,#66,.F.);
#114 = ORIENTED_EDGE('',*,*,#87,.T.);
#115 = ORIENTED_EDGE('',*,*,#116,.F.);
#116 = EDGE_CURVE('',#108,#88,#117,.T.);
#117 = B_SPLINE_CURVE_WITH_KNOTS('',1,(#118,#119),.UNSPECIFIED.,.F.,.F.,
  (2,2),(0.,1.),.PIECEWISE_BEZIER_KNOTS.);
#118 = CARTESIAN_POINT('',(-156.5376157705,141.24663059671,
    169.88718285763));
#119 = CARTESIAN_POINT('',(-153.7053405248,142.23567909522,
    169.88718285763));
#120 = B_SPLINE_SURFACE_WITH_KNOTS('',1,1,(
    (#121,#122)
    ,(#123,#124
    )),.UNSPECIFIED.,.F.,.F.,.F.,(2,2),(2,2),(0.,68.617037079176),(0.,3.
    ),.PIECEWISE_BEZIER_KNOTS.);
#121 = CARTESIAN_POINT('',(-142.0321404861,108.80787898456,
    183.6827829033));
#122 = CARTESIAN_POINT('',(-144.8644157318,107.81883048605,
    183.6827829033));
#123 = CARTESIAN_POINT('',(-163.110572062,169.16884213372,
    158.77190922269));
#124 = CARTESIAN_POINT('',(-165.9428473077,168.17979363521,
    158.77190922269));
#125 = ADVANCED_FACE('',(#126),#142,.T.);
#126 = FACE_BOUND('',#127,.T.);
#127 = EDGE_LOOP('',(#128,#135,#136,#137));
#128 = ORIENTED_EDGE('',*,*,#129,.F.);
#129 = EDGE_CURVE('',#53,#130,#132,.T.);
#130 = VERTEX_POINT('',#131);
#131 = CARTESIAN_POINT('',(-154.8619732691,136.44819979731,
    156.84236457331));
#132 = B_SPLINE_CURVE_WITH_KNOTS('',1,(#133,#134),.UNSPECIFIED.,.F.,.F.,
  (2,2),(0.,68.617037079176),.PIECEWISE_BEZIER_KNOTS.);
#133 = CARTESIAN_POINT('',(-143.1887732305,103.02039968666,
    170.63796461898));
#134 = CARTESIAN_POINT('',(-164.2672048064,163.38136283581,
    145.72709093837));
#135 = ORIENTED_EDGE('',*,*,#59,.T.);
#136 = ORIENTED_EDGE('',*,*,#107,.T.);
#137 = ORIENTED_EDGE('',*,*,#138,.F.);
#138 = EDGE_CURVE('',#130,#108,#139,.T.);
#139 = B_SPLINE_CURVE_WITH_KNOTS('',1,(#140,#141),.UNSPECIFIED.,.F.,.F.,
  (2,2),(0.,1.),.PIECEWISE_BEZIER_KNOTS.);
#140 = CARTESIAN_POINT('',(-154.8619732691,136.44819979731,
    156.84236457331));
#141 = CARTESIAN_POINT('',(-156.5376157705,141.24663059671,
    169.88718285763));
#142 = B_SPLINE_SURFACE_WITH_KNOTS('',1,1,(
    (#143,#144)
    ,(#145,#146
    )),.UNSPECIFIED.,.F.,.F.,.F.,(2,2),(2,2),(0.,14.),(0.,
    68.617037079176),.PIECEWISE_BEZIER_KNOTS.);
#143 = CARTESIAN_POINT('',(-143.1887732305,103.02039968666,
    170.63796461898));
#144 = CARTESIAN_POINT('',(-164.2672048064,163.38136283581,
    145.72709093837));
#145 = CARTESIAN_POINT('',(-144.8644157318,107.81883048605,
    183.6827829033));
#146 = CARTESIAN_POINT('',(-165.9428473077,168.17979363521,
    158.77190922269));
#147 = ADVANCED_FACE('',(#148),#158,.F.);
#148 = FACE_BOUND('',#149,.F.);
#149 = EDGE_LOOP('',(#150,#151,#152,#153));
#150 = ORIENTED_EDGE('',*,*,#129,.F.);
#151 = ORIENTED_EDGE('',*,*,#52,.F.);
#152 = ORIENTED_EDGE('',*,*,#79,.T.);
#153 = ORIENTED_EDGE('',*,*,#154,.F.);
#154 = EDGE_CURVE('',#130,#80,#155,.T.);
#155 = B_SPLINE_CURVE_WITH_KNOTS('',1,(#156,#157),.UNSPECIFIED.,.F.,.F.,
  (2,2),(0.,1.),.PIECEWISE_BEZIER_KNOTS.);
#156 = CARTESIAN_POINT('',(-154.8619732691,136.44819979731,
    156.84236457331));
#157 = CARTESIAN_POINT('',(-152.0296980234,137.43724829582,
    156.84236457331));
#158 = B_SPLINE_SURFACE_WITH_KNOTS('',1,1,(
    (#159,#160)
    ,(#161,#162
    )),.UNSPECIFIED.,.F.,.F.,.F.,(2,2),(2,2),(0.,68.617037079176),(0.,3.
    ),.PIECEWISE_BEZIER_KNOTS.);
#159 = CARTESIAN_POINT('',(-140.3564979847,104.00944818517,
    170.63796461898));
#160 = CARTESIAN_POINT('',(-143.1887732305,103.02039968666,
    170.63796461898));
#161 = CARTESIAN_POINT('',(-161.4349295606,164.37041133432,
    145.72709093837));
#162 = CARTESIAN_POINT('',(-164.2672048064,163.38136283581,
    145.72709093837));
#163 = ADVANCED_FACE('',(#164),#170,.T.);
#164 = FACE_BOUND('',#165,.T.);
#165 = EDGE_LOOP('',(#166,#167,#168,#169));
#166 = ORIENTED_EDGE('',*,*,#94,.F.);
#167 = ORIENTED_EDGE('',*,*,#154,.F.);
#168 = ORIENTED_EDGE('',*,*,#138,.T.);
#169 = ORIENTED_EDGE('',*,*,#116,.T.);
#170 = B_SPLINE_SURFACE_WITH_KNOTS('',1,1,(
    (#171,#172)
    ,(#173,#174
    )),.UNSPECIFIED.,.F.,.F.,.F.,(2,2),(2,2),(0.,18.),(-6.,0.),
  .PIECEWISE_BEZIER_KNOTS.);
#171 = CARTESIAN_POINT('',(-156.0387333918,135.26818543386,
    154.97881910412));
#172 = CARTESIAN_POINT('',(-150.3741829003,137.24628243088,
    154.97881910412));
#173 = CARTESIAN_POINT('',(-158.1931308936,141.43759646165,
    171.75072832682));
#174 = CARTESIAN_POINT('',(-152.5285804021,143.41569345867,
    171.75072832682));
#175 = ( GEOMETRIC_REPRESENTATION_CONTEXT(3) 
GLOBAL_UNCERTAINTY_ASSIGNED_CONTEXT((#179)) GLOBAL_UNIT_ASSIGNED_CONTEXT
((#176,#177,#178)) REPRESENTATION_CONTEXT('Context #1',
  '3D Context with UNIT and UNCERTAINTY') );
#176 = ( LENGTH_UNIT() NAMED_UNIT(*) SI_UNIT(.MILLI.,.METRE.) );
#177 = ( NAMED_UNIT(*) PLANE_ANGLE_UNIT() SI_UNIT($,.RADIAN.) );
#178 = ( NAMED_UNIT(*) SI_UNIT($,.STERADIAN.) SOLID_ANGLE_UNIT() );
#179 = UNCERTAINTY_MEASURE_WITH_UNIT(LENGTH_MEASURE(2.E-06),#176,
  'distance_accuracy_value','confusion accuracy');
#180 = CONTEXT_DEPENDENT_SHAPE_REPRESENTATION(#181,#183);
#181 = ( REPRESENTATION_RELATIONSHIP('','',#36,#10) 
REPRESENTATION_RELATIONSHIP_WITH_TRANSFORMATION(#182) 
SHAPE_REPRESENTATION_RELATIONSHIP() );
#182 = ITEM_DEFINED_TRANSFORMATION('','',#11,#15);
#183 = PRODUCT_DEFINITION_SHAPE('Placement','Placement of an item',#184
  );
#184 = NEXT_ASSEMBLY_USAGE_OCCURRENCE('129','CHUTE_LIP_L2_0','',#5,#31,$
  );
#185 = PRODUCT_RELATED_PRODUCT_CATEGORY('part',$,(#33));
#186 = SHAPE_DEFINITION_REPRESENTATION(#187,#193);
#187 = PRODUCT_DEFINITION_SHAPE('','',#188);
#188 = PRODUCT_DEFINITION('design','',#189,#192);
#189 = PRODUCT_DEFINITION_FORMATION('','',#190);
#190 = PRODUCT('CHUTE_LIP_L2_1','CHUTE_LIP_L2_1','',(#191));
#191 = PRODUCT_CONTEXT('',#2,'mechanical');
#192 = PRODUCT_DEFINITION_CONTEXT('part definition',#2,'design');
#193 = ADVANCED_BREP_SHAPE_REPRESENTATION('',(#11,#194),#332);
#194 = MANIFOLD_SOLID_BREP('',#195);
#195 = CLOSED_SHELL('',(#196,#232,#260,#282,#304,#320));
#196 = ADVANCED_FACE('',(#197),#227,.F.);
#197 = FACE_BOUND('',#198,.F.);
#198 = EDGE_LOOP('',(#199,#208,#215,#222));
#199 = ORIENTED_EDGE('',*,*,#200,.F.);
#200 = EDGE_CURVE('',#201,#203,#205,.T.);
#201 = VERTEX_POINT('',#202);
#202 = CARTESIAN_POINT('',(-155.1015927704,146.23403779862,
    153.21194350866));
#203 = VERTEX_POINT('',#204);
#204 = CARTESIAN_POINT('',(-161.4349295606,164.37041133432,
    145.72709093837));
#205 = B_SPLINE_CURVE_WITH_KNOTS('',1,(#206,#207),.UNSPECIFIED.,.F.,.F.,
  (2,2),(0.,68.617037079176),.PIECEWISE_BEZIER_KNOTS.);
#206 = CARTESIAN_POINT('',(-140.3564979847,104.00944818517,
    170.63796461898));
#207 = CARTESIAN_POINT('',(-161.4349295606,164.37041133432,
    145.72709093837));
#208 = ORIENTED_EDGE('',*,*,#209,.T.);
#209 = EDGE_CURVE('',#201,#210,#212,.T.);
#210 = VERTEX_POINT('',#211);
#211 = CARTESIAN_POINT('',(-156.7772352718,151.03246859802,
    166.25676179298));
#212 = B_SPLINE_CURVE_WITH_KNOTS('',1,(#213,#214),.UNSPECIFIED.,.F.,.F.,
  (2,2),(0.,1.),.PIECEWISE_BEZIER_KNOTS.);
#213 = CARTESIAN_POINT('',(-155.1015927704,146.23403779862,
    153.21194350866));
#214 = CARTESIAN_POINT('',(-156.7772352718,151.03246859802,
    166.25676179298));
#215 = ORIENTED_EDGE('',*,*,#216,.T.);
#216 = EDGE_CURVE('',#210,#217,#219,.T.);
#217 = VERTEX_POINT('',#218);
#218 = CARTESIAN_POINT('',(-163.110572062,169.16884213372,
    158.77190922269));
#219 = B_SPLINE_CURVE_WITH_KNOTS('',1,(#220,#221),.UNSPECIFIED.,.F.,.F.,
  (2,2),(0.,68.617037079176),.PIECEWISE_BEZIER_KNOTS.);
#220 = CARTESIAN_POINT('',(-142.0321404861,108.80787898456,
    183.6827829033));
#221 = CARTESIAN_POINT('',(-163.110572062,169.16884213372,
    158.77190922269));
#222 = ORIENTED_EDGE('',*,*,#223,.F.);
#223 = EDGE_CURVE('',#203,#217,#224,.T.);
#224 = B_SPLINE_CURVE_WITH_KNOTS('',1,(#225,#226),.UNSPECIFIED.,.F.,.F.,
  (2,2),(0.,14.),.PIECEWISE_BEZIER_KNOTS.);
#225 = CARTESIAN_POINT('',(-161.4349295606,164.37041133432,
    145.72709093837));
#226 = CARTESIAN_POINT('',(-163.110572062,169.16884213372,
    158.77190922269));
#227 = B_SPLINE_SURFACE_WITH_KNOTS('',1,1,(
    (#228,#229)
    ,(#230,#231
    )),.UNSPECIFIED.,.F.,.F.,.F.,(2,2),(2,2),(0.,14.),(0.,
    68.617037079176),.PIECEWISE_BEZIER_KNOTS.);
#228 = CARTESIAN_POINT('',(-140.3564979847,104.00944818517,
    170.63796461898));
#229 = CARTESIAN_POINT('',(-161.4349295606,164.37041133432,
    145.72709093837));
#230 = CARTESIAN_POINT('',(-142.0321404861,108.80787898456,
    183.6827829033));
#231 = CARTESIAN_POINT('',(-163.110572062,169.16884213372,
    158.77190922269));
#232 = ADVANCED_FACE('',(#233),#255,.F.);
#233 = FACE_BOUND('',#234,.F.);
#234 = EDGE_LOOP('',(#235,#244,#249,#250));
#235 = ORIENTED_EDGE('',*,*,#236,.F.);
#236 = EDGE_CURVE('',#237,#239,#241,.T.);
#237 = VERTEX_POINT('',#238);
#238 = CARTESIAN_POINT('',(-157.9338680161,145.24498930011,
    153.21194350866));
#239 = VERTEX_POINT('',#240);
#240 = CARTESIAN_POINT('',(-164.2672048064,163.38136283581,
    145.72709093837));
#241 = B_SPLINE_CURVE_WITH_KNOTS('',1,(#242,#243),.UNSPECIFIED.,.F.,.F.,
  (2,2),(0.,68.617037079176),.PIECEWISE_BEZIER_KNOTS.);
#242 = CARTESIAN_POINT('',(-143.1887732305,103.02039968666,
    170.63796461898));
#243 = CARTESIAN_POINT('',(-164.2672048064,163.38136283581,
    145.72709093837));
#244 = ORIENTED_EDGE('',*,*,#245,.T.);
#245 = EDGE_CURVE('',#237,#201,#246,.T.);
#246 = B_SPLINE_CURVE_WITH_KNOTS('',1,(#247,#248),.UNSPECIFIED.,.F.,.F.,
  (2,2),(0.,1.),.PIECEWISE_BEZIER_KNOTS.);
#247 = CARTESIAN_POINT('',(-157.9338680161,145.24498930011,
    153.21194350866));
#248 = CARTESIAN_POINT('',(-155.1015927704,146.23403779862,
    153.21194350866));
#249 = ORIENTED_EDGE('',*,*,#200,.T.);
#250 = ORIENTED_EDGE('',*,*,#251,.T.);
#251 = EDGE_CURVE('',#203,#239,#252,.T.);
#252 = B_SPLINE_CURVE_WITH_KNOTS('',1,(#253,#254),.UNSPECIFIED.,.F.,.F.,
  (2,2),(0.,3.),.PIECEWISE_BEZIER_KNOTS.);
#253 = CARTESIAN_POINT('',(-161.4349295606,164.37041133432,
    145.72709093837));
#254 = CARTESIAN_POINT('',(-164.2672048064,163.38136283581,
    145.72709093837));
#255 = B_SPLINE_SURFACE_WITH_KNOTS('',1,1,(
    (#256,#257)
    ,(#258,#259
    )),.UNSPECIFIED.,.F.,.F.,.F.,(2,2),(2,2),(0.,68.617037079176),(0.,3.
    ),.PIECEWISE_BEZIER_KNOTS.);
#256 = CARTESIAN_POINT('',(-140.3564979847,104.00944818517,
    170.63796461898));
#257 = CARTESIAN_POINT('',(-143.1887732305,103.02039968666,
    170.63796461898));
#258 = CARTESIAN_POINT('',(-161.4349295606,164.37041133432,
    145.72709093837));
#259 = CARTESIAN_POINT('',(-164.2672048064,163.38136283581,
    145.72709093837));
#260 = ADVANCED_FACE('',(#261),#277,.T.);
#261 = FACE_BOUND('',#262,.T.);
#262 = EDGE_LOOP('',(#263,#264,#265,#272));
#263 = ORIENTED_EDGE('',*,*,#223,.F.);
#264 = ORIENTED_EDGE('',*,*,#251,.T.);
#265 = ORIENTED_EDGE('',*,*,#266,.T.);
#266 = EDGE_CURVE('',#239,#267,#269,.T.);
#267 = VERTEX_POINT('',#268);
#268 = CARTESIAN_POINT('',(-165.9428473077,168.17979363521,
    158.77190922269));
#269 = B_SPLINE_CURVE_WITH_KNOTS('',1,(#270,#271),.UNSPECIFIED.,.F.,.F.,
  (2,2),(0.,14.),.PIECEWISE_BEZIER_KNOTS.);
#270 = CARTESIAN_POINT('',(-164.2672048064,163.38136283581,
    145.72709093837));
#271 = CARTESIAN_POINT('',(-165.9428473077,168.17979363521,
    158.77190922269));
#272 = ORIENTED_EDGE('',*,*,#273,.F.);
#273 = EDGE_CURVE('',#217,#267,#274,.T.);
#274 = B_SPLINE_CURVE_WITH_KNOTS('',1,(#275,#276),.UNSPECIFIED.,.F.,.F.,
  (2,2),(0.,3.),.PIECEWISE_BEZIER_KNOTS.);
#275 = CARTESIAN_POINT('',(-163.110572062,169.16884213372,
    158.77190922269));
#276 = CARTESIAN_POINT('',(-165.9428473077,168.17979363521,
    158.77190922269));
#277 = B_SPLINE_SURFACE_WITH_KNOTS('',1,1,(
    (#278,#279)
    ,(#280,#281
    )),.UNSPECIFIED.,.F.,.F.,.F.,(2,2),(2,2),(0.,14.),(-3.,0.),
  .PIECEWISE_BEZIER_KNOTS.);
#278 = CARTESIAN_POINT('',(-164.2672048064,163.38136283581,
    145.72709093837));
#279 = CARTESIAN_POINT('',(-161.4349295606,164.37041133432,
    145.72709093837));
#280 = CARTESIAN_POINT('',(-165.9428473077,168.17979363521,
    158.77190922269));
#281 = CARTESIAN_POINT('',(-163.110572062,169.16884213372,
    158.77190922269));
#282 = ADVANCED_FACE('',(#283),#299,.T.);
#283 = FACE_BOUND('',#284,.T.);
#284 = EDGE_LOOP('',(#285,#292,#297,#298));
#285 = ORIENTED_EDGE('',*,*,#286,.F.);
#286 = EDGE_CURVE('',#287,#267,#289,.T.);
#287 = VERTEX_POINT('',#288);
#288 = CARTESIAN_POINT('',(-159.6095105175,150.04342009951,
    166.25676179298));
#289 = B_SPLINE_CURVE_WITH_KNOTS('',1,(#290,#291),.UNSPECIFIED.,.F.,.F.,
  (2,2),(0.,68.617037079176),.PIECEWISE_BEZIER_KNOTS.);
#290 = CARTESIAN_POINT('',(-144.8644157318,107.81883048605,
    183.6827829033));
#291 = CARTESIAN_POINT('',(-165.9428473077,168.17979363521,
    158.77190922269));
#292 = ORIENTED_EDGE('',*,*,#293,.T.);
#293 = EDGE_CURVE('',#287,#210,#294,.T.);
#294 = B_SPLINE_CURVE_WITH_KNOTS('',1,(#295,#296),.UNSPECIFIED.,.F.,.F.,
  (2,2),(0.,1.),.PIECEWISE_BEZIER_KNOTS.);
#295 = CARTESIAN_POINT('',(-159.6095105175,150.04342009951,
    166.25676179298));
#296 = CARTESIAN_POINT('',(-156.7772352718,151.03246859802,
    166.25676179298));
#297 = ORIENTED_EDGE('',*,*,#216,.T.);
#298 = ORIENTED_EDGE('',*,*,#273,.T.);
#299 = B_SPLINE_SURFACE_WITH_KNOTS('',1,1,(
    (#300,#301)
    ,(#302,#303
    )),.UNSPECIFIED.,.F.,.F.,.F.,(2,2),(2,2),(0.,68.617037079176),(0.,3.
    ),.PIECEWISE_BEZIER_KNOTS.);
#300 = CARTESIAN_POINT('',(-142.0321404861,108.80787898456,
    183.6827829033));
#301 = CARTESIAN_POINT('',(-144.8644157318,107.81883048605,
    183.6827829033));
#302 = CARTESIAN_POINT('',(-163.110572062,169.16884213372,
    158.77190922269));
#303 = CARTESIAN_POINT('',(-165.9428473077,168.17979363521,
    158.77190922269));
#304 = ADVANCED_FACE('',(#305),#315,.F.);
#305 = FACE_BOUND('',#306,.F.);
#306 = EDGE_LOOP('',(#307,#308,#309,#314));
#307 = ORIENTED_EDGE('',*,*,#209,.F.);
#308 = ORIENTED_EDGE('',*,*,#245,.F.);
#309 = ORIENTED_EDGE('',*,*,#310,.T.);
#310 = EDGE_CURVE('',#237,#287,#311,.T.);
#311 = B_SPLINE_CURVE_WITH_KNOTS('',1,(#312,#313),.UNSPECIFIED.,.F.,.F.,
  (2,2),(0.,1.),.PIECEWISE_BEZIER_KNOTS.);
#312 = CARTESIAN_POINT('',(-157.9338680161,145.24498930011,
    153.21194350866));
#313 = CARTESIAN_POINT('',(-159.6095105175,150.04342009951,
    166.25676179298));
#314 = ORIENTED_EDGE('',*,*,#293,.T.);
#315 = B_SPLINE_SURFACE_WITH_KNOTS('',1,1,(
    (#316,#317)
    ,(#318,#319
    )),.UNSPECIFIED.,.F.,.F.,.F.,(2,2),(2,2),(0.,18.),(-6.,0.),
  .PIECEWISE_BEZIER_KNOTS.);
#316 = CARTESIAN_POINT('',(-159.1106281388,144.06497493666,
    151.34839803947));
#317 = CARTESIAN_POINT('',(-153.4460776473,146.04307193368,
    151.34839803947));
#318 = CARTESIAN_POINT('',(-161.2650256406,150.23438596446,
    168.12030726217));
#319 = CARTESIAN_POINT('',(-155.6004751491,152.21248296148,
    168.12030726217));
#320 = ADVANCED_FACE('',(#321),#327,.T.);
#321 = FACE_BOUND('',#322,.T.);
#322 = EDGE_LOOP('',(#323,#324,#325,#326));
#323 = ORIENTED_EDGE('',*,*,#236,.F.);
#324 = ORIENTED_EDGE('',*,*,#310,.T.);
#325 = ORIENTED_EDGE('',*,*,#286,.T.);
#326 = ORIENTED_EDGE('',*,*,#266,.F.);
#327 = B_SPLINE_SURFACE_WITH_KNOTS('',1,1,(
    (#328,#329)
    ,(#330,#331
    )),.UNSPECIFIED.,.F.,.F.,.F.,(2,2),(2,2),(0.,14.),(0.,
    68.617037079176),.PIECEWISE_BEZIER_KNOTS.);
#328 = CARTESIAN_POINT('',(-143.1887732305,103.02039968666,
    170.63796461898));
#329 = CARTESIAN_POINT('',(-164.2672048064,163.38136283581,
    145.72709093837));
#330 = CARTESIAN_POINT('',(-144.8644157318,107.81883048605,
    183.6827829033));
#331 = CARTESIAN_POINT('',(-165.9428473077,168.17979363521,
    158.77190922269));
#332 = ( GEOMETRIC_REPRESENTATION_CONTEXT(3) 
GLOBAL_UNCERTAINTY_ASSIGNED_CONTEXT((#336)) GLOBAL_UNIT_ASSIGNED_CONTEXT
((#333,#334,#335)) REPRESENTATION_CONTEXT('Context #1',
  '3D Context with UNIT and UNCERTAINTY') );
#333 = ( LENGTH_UNIT() NAMED_UNIT(*) SI_UNIT(.MILLI.,.METRE.) );
#334 = ( NAMED_UNIT(*) PLANE_ANGLE_UNIT() SI_UNIT($,.RADIAN.) );
#335 = ( NAMED_UNIT(*) SI_UNIT($,.STERADIAN.) SOLID_ANGLE_UNIT() );
#336 = UNCERTAINTY_MEASURE_WITH_UNIT(LENGTH_MEASURE(2.E-06),#333,
  'distance_accuracy_value','confusion accuracy');
#337 = CONTEXT_DEPENDENT_SHAPE_REPRESENTATION(#338,#340);
#338 = ( REPRESENTATION_RELATIONSHIP('','',#193,#10) 
REPRESENTATION_RELATIONSHIP_WITH_TRANSFORMATION(#339) 
SHAPE_REPRESENTATION_RELATIONSHIP() );
#339 = ITEM_DEFINED_TRANSFORMATION('','',#11,#19);
#340 = PRODUCT_DEFINITION_SHAPE('Placement','Placement of an item',#341
  );
#341 = NEXT_ASSEMBLY_USAGE_OCCURRENCE('130','CHUTE_LIP_L2_1','',#5,#188,
  $);
#342 = PRODUCT_RELATED_PRODUCT_CATEGORY('part',$,(#190));
ENDSEC;
END-ISO-10303-21;
