ISO-10303-21;
HEADER;
FILE_DESCRIPTION(('FreeCAD Model'),'2;1');
FILE_NAME('Open CASCADE Shape Model','2026-09-29T03:47:05',('Author'),(
    ''),'Open CASCADE STEP processor 7.8','FreeCAD','Unknown');
FILE_SCHEMA(('AUTOMOTIVE_DESIGN { 1 0 10303 214 1 1 1 1 }'));
ENDSEC;
DATA;
#1 = APPLICATION_PROTOCOL_DEFINITION('international standard',
  'automotive_design',2000,#2);
#2 = APPLICATION_CONTEXT(
  'core data for automotive mechanical design processes');
#3 = SHAPE_DEFINITION_REPRESENTATION(#4,#10);
#4 = PRODUCT_DEFINITION_SHAPE('','',#5);
#5 = PRODUCT_DEFINITION('design','',#6,#9);
#6 = PRODUCT_DEFINITION_FORMATION('','',#7);
#7 = PRODUCT('CHUTE_LIP_L1','CHUTE_LIP_L1','',(#8));
#8 = PRODUCT_CONTEXT('',#2,'mechanical');
#9 = PRODUCT_DEFINITION_CONTEXT('part definition',#2,'design');
#10 = ADVANCED_BREP_SHAPE_REPRESENTATION('',(#11,#15),#153);
#11 = AXIS2_PLACEMENT_3D('',#12,#13,#14);
#12 = CARTESIAN_POINT('',(0.,0.,0.));
#13 = DIRECTION('',(0.,0.,1.));
#14 = DIRECTION('',(1.,0.,-0.));
#15 = MANIFOLD_SOLID_BREP('',#16);
#16 = CLOSED_SHELL('',(#17,#53,#89,#109,#129,#141));
#17 = ADVANCED_FACE('',(#18),#48,.F.);
#18 = FACE_BOUND('',#19,.F.);
#19 = EDGE_LOOP('',(#20,#29,#36,#43));
#20 = ORIENTED_EDGE('',*,*,#21,.F.);
#21 = EDGE_CURVE('',#22,#24,#26,.T.);
#22 = VERTEX_POINT('',#23);
#23 = CARTESIAN_POINT('',(-108.6187538018,39.430045967133,
    206.08049218403));
#24 = VERTEX_POINT('',#25);
#25 = CARTESIAN_POINT('',(-111.6505898856,45.392656931903,
    218.37907911278));
#26 = B_SPLINE_CURVE_WITH_KNOTS('',1,(#27,#28),.UNSPECIFIED.,.F.,.F.,(2,
    2),(0.,14.),.PIECEWISE_BEZIER_KNOTS.);
#27 = CARTESIAN_POINT('',(-108.6187538018,39.430045967133,
    206.08049218403));
#28 = CARTESIAN_POINT('',(-111.6505898856,45.392656931903,
    218.37907911278));
#29 = ORIENTED_EDGE('',*,*,#30,.T.);
#30 = EDGE_CURVE('',#22,#31,#33,.T.);
#31 = VERTEX_POINT('',#32);
#32 = CARTESIAN_POINT('',(-111.2929091924,38.070305938004,
    206.08049218403));
#33 = B_SPLINE_CURVE_WITH_KNOTS('',1,(#34,#35),.UNSPECIFIED.,.F.,.F.,(2,
    2),(0.,3.),.PIECEWISE_BEZIER_KNOTS.);
#34 = CARTESIAN_POINT('',(-108.6187538018,39.430045967133,
    206.08049218403));
#35 = CARTESIAN_POINT('',(-111.2929091924,38.070305938004,
    206.08049218403));
#36 = ORIENTED_EDGE('',*,*,#37,.T.);
#37 = EDGE_CURVE('',#31,#38,#40,.T.);
#38 = VERTEX_POINT('',#39);
#39 = CARTESIAN_POINT('',(-114.3247452762,44.032916902774,
    218.37907911278));
#40 = B_SPLINE_CURVE_WITH_KNOTS('',1,(#41,#42),.UNSPECIFIED.,.F.,.F.,(2,
    2),(0.,14.),.PIECEWISE_BEZIER_KNOTS.);
#41 = CARTESIAN_POINT('',(-111.2929091924,38.070305938004,
    206.08049218403));
#42 = CARTESIAN_POINT('',(-114.3247452762,44.032916902774,
    218.37907911278));
#43 = ORIENTED_EDGE('',*,*,#44,.F.);
#44 = EDGE_CURVE('',#24,#38,#45,.T.);
#45 = B_SPLINE_CURVE_WITH_KNOTS('',1,(#46,#47),.UNSPECIFIED.,.F.,.F.,(2,
    2),(0.,3.),.PIECEWISE_BEZIER_KNOTS.);
#46 = CARTESIAN_POINT('',(-111.6505898856,45.392656931903,
    218.37907911278));
#47 = CARTESIAN_POINT('',(-114.3247452762,44.032916902774,
    218.37907911278));
#48 = B_SPLINE_SURFACE_WITH_KNOTS('',1,1,(
    (#49,#50)
    ,(#51,#52)),.UNSPECIFIED.,.F.,.F.,.F.,(2,2),(2,2),(0.,14.),(-3.,0.),
  .PIECEWISE_BEZIER_KNOTS.);
#49 = CARTESIAN_POINT('',(-111.2929091924,38.070305938004,
    206.08049218403));
#50 = CARTESIAN_POINT('',(-108.6187538018,39.430045967133,
    206.08049218403));
#51 = CARTESIAN_POINT('',(-114.3247452762,44.032916902774,
    218.37907911278));
#52 = CARTESIAN_POINT('',(-111.6505898856,45.392656931903,
    218.37907911278));
#53 = ADVANCED_FACE('',(#54),#84,.T.);
#54 = FACE_BOUND('',#55,.T.);
#55 = EDGE_LOOP('',(#56,#65,#72,#79));
#56 = ORIENTED_EDGE('',*,*,#57,.F.);
#57 = EDGE_CURVE('',#58,#60,#62,.T.);
#58 = VERTEX_POINT('',#59);
#59 = CARTESIAN_POINT('',(-137.4242623054,96.080879357668,
    171.51388197964));
#60 = VERTEX_POINT('',#61);
#61 = CARTESIAN_POINT('',(-140.4560983892,102.04349032243,
    183.81246890838));
#62 = B_SPLINE_CURVE_WITH_KNOTS('',1,(#63,#64),.UNSPECIFIED.,.F.,.F.,(2,
    2),(0.,14.),.PIECEWISE_BEZIER_KNOTS.);
#63 = CARTESIAN_POINT('',(-137.4242623054,96.080879357668,
    171.51388197964));
#64 = CARTESIAN_POINT('',(-140.4560983892,102.04349032243,
    183.81246890838));
#65 = ORIENTED_EDGE('',*,*,#66,.T.);
#66 = EDGE_CURVE('',#58,#67,#69,.T.);
#67 = VERTEX_POINT('',#68);
#68 = CARTESIAN_POINT('',(-140.0984176961,94.721139328539,
    171.51388197964));
#69 = B_SPLINE_CURVE_WITH_KNOTS('',1,(#70,#71),.UNSPECIFIED.,.F.,.F.,(2,
    2),(0.,3.),.PIECEWISE_BEZIER_KNOTS.);
#70 = CARTESIAN_POINT('',(-137.4242623054,96.080879357668,
    171.51388197964));
#71 = CARTESIAN_POINT('',(-140.0984176961,94.721139328539,
    171.51388197964));
#72 = ORIENTED_EDGE('',*,*,#73,.T.);
#73 = EDGE_CURVE('',#67,#74,#76,.T.);
#74 = VERTEX_POINT('',#75);
#75 = CARTESIAN_POINT('',(-143.1302537798,100.6837502933,183.81246890838
    ));
#76 = B_SPLINE_CURVE_WITH_KNOTS('',1,(#77,#78),.UNSPECIFIED.,.F.,.F.,(2,
    2),(0.,14.),.PIECEWISE_BEZIER_KNOTS.);
#77 = CARTESIAN_POINT('',(-140.0984176961,94.721139328539,
    171.51388197964));
#78 = CARTESIAN_POINT('',(-143.1302537798,100.6837502933,183.81246890838
    ));
#79 = ORIENTED_EDGE('',*,*,#80,.F.);
#80 = EDGE_CURVE('',#60,#74,#81,.T.);
#81 = B_SPLINE_CURVE_WITH_KNOTS('',1,(#82,#83),.UNSPECIFIED.,.F.,.F.,(2,
    2),(0.,3.),.PIECEWISE_BEZIER_KNOTS.);
#82 = CARTESIAN_POINT('',(-140.4560983892,102.04349032243,
    183.81246890838));
#83 = CARTESIAN_POINT('',(-143.1302537798,100.6837502933,183.81246890838
    ));
#84 = B_SPLINE_SURFACE_WITH_KNOTS('',1,1,(
    (#85,#86)
    ,(#87,#88)),.UNSPECIFIED.,.F.,.F.,.F.,(2,2),(2,2),(0.,14.),(-3.,0.),
  .PIECEWISE_BEZIER_KNOTS.);
#85 = CARTESIAN_POINT('',(-140.0984176961,94.721139328539,
    171.51388197964));
#86 = CARTESIAN_POINT('',(-137.4242623054,96.080879357668,
    171.51388197964));
#87 = CARTESIAN_POINT('',(-143.1302537798,100.6837502933,183.81246890838
    ));
#88 = CARTESIAN_POINT('',(-140.4560983892,102.04349032243,
    183.81246890838));
#89 = ADVANCED_FACE('',(#90),#104,.F.);
#90 = FACE_BOUND('',#91,.F.);
#91 = EDGE_LOOP('',(#92,#97,#98,#103));
#92 = ORIENTED_EDGE('',*,*,#93,.F.);
#93 = EDGE_CURVE('',#22,#58,#94,.T.);
#94 = B_SPLINE_CURVE_WITH_KNOTS('',1,(#95,#96),.UNSPECIFIED.,.F.,.F.,(2,
    2),(0.,72.345869163478),.PIECEWISE_BEZIER_KNOTS.);
#95 = CARTESIAN_POINT('',(-108.6187538018,39.430045967133,
    206.08049218403));
#96 = CARTESIAN_POINT('',(-137.4242623054,96.080879357668,
    171.51388197964));
#97 = ORIENTED_EDGE('',*,*,#21,.T.);
#98 = ORIENTED_EDGE('',*,*,#99,.T.);
#99 = EDGE_CURVE('',#24,#60,#100,.T.);
#100 = B_SPLINE_CURVE_WITH_KNOTS('',1,(#101,#102),.UNSPECIFIED.,.F.,.F.,
  (2,2),(0.,72.345869163478),.PIECEWISE_BEZIER_KNOTS.);
#101 = CARTESIAN_POINT('',(-111.6505898856,45.392656931903,
    218.37907911278));
#102 = CARTESIAN_POINT('',(-140.4560983892,102.04349032243,
    183.81246890838));
#103 = ORIENTED_EDGE('',*,*,#57,.F.);
#104 = B_SPLINE_SURFACE_WITH_KNOTS('',1,1,(
    (#105,#106)
    ,(#107,#108
    )),.UNSPECIFIED.,.F.,.F.,.F.,(2,2),(2,2),(0.,14.),(0.,
    72.345869163478),.PIECEWISE_BEZIER_KNOTS.);
#105 = CARTESIAN_POINT('',(-108.6187538018,39.430045967133,
    206.08049218403));
#106 = CARTESIAN_POINT('',(-137.4242623054,96.080879357668,
    171.51388197964));
#107 = CARTESIAN_POINT('',(-111.6505898856,45.392656931903,
    218.37907911278));
#108 = CARTESIAN_POINT('',(-140.4560983892,102.04349032243,
    183.81246890838));
#109 = ADVANCED_FACE('',(#110),#124,.T.);
#110 = FACE_BOUND('',#111,.T.);
#111 = EDGE_LOOP('',(#112,#117,#118,#123));
#112 = ORIENTED_EDGE('',*,*,#113,.F.);
#113 = EDGE_CURVE('',#31,#67,#114,.T.);
#114 = B_SPLINE_CURVE_WITH_KNOTS('',1,(#115,#116),.UNSPECIFIED.,.F.,.F.,
  (2,2),(0.,72.345869163478),.PIECEWISE_BEZIER_KNOTS.);
#115 = CARTESIAN_POINT('',(-111.2929091924,38.070305938004,
    206.08049218403));
#116 = CARTESIAN_POINT('',(-140.0984176961,94.721139328539,
    171.51388197964));
#117 = ORIENTED_EDGE('',*,*,#37,.T.);
#118 = ORIENTED_EDGE('',*,*,#119,.T.);
#119 = EDGE_CURVE('',#38,#74,#120,.T.);
#120 = B_SPLINE_CURVE_WITH_KNOTS('',1,(#121,#122),.UNSPECIFIED.,.F.,.F.,
  (2,2),(0.,72.345869163478),.PIECEWISE_BEZIER_KNOTS.);
#121 = CARTESIAN_POINT('',(-114.3247452762,44.032916902774,
    218.37907911278));
#122 = CARTESIAN_POINT('',(-143.1302537798,100.6837502933,
    183.81246890838));
#123 = ORIENTED_EDGE('',*,*,#73,.F.);
#124 = B_SPLINE_SURFACE_WITH_KNOTS('',1,1,(
    (#125,#126)
    ,(#127,#128
    )),.UNSPECIFIED.,.F.,.F.,.F.,(2,2),(2,2),(0.,14.),(0.,
    72.345869163478),.PIECEWISE_BEZIER_KNOTS.);
#125 = CARTESIAN_POINT('',(-111.2929091924,38.070305938004,
    206.08049218403));
#126 = CARTESIAN_POINT('',(-140.0984176961,94.721139328539,
    171.51388197964));
#127 = CARTESIAN_POINT('',(-114.3247452762,44.032916902774,
    218.37907911278));
#128 = CARTESIAN_POINT('',(-143.1302537798,100.6837502933,
    183.81246890838));
#129 = ADVANCED_FACE('',(#130),#136,.F.);
#130 = FACE_BOUND('',#131,.F.);
#131 = EDGE_LOOP('',(#132,#133,#134,#135));
#132 = ORIENTED_EDGE('',*,*,#30,.F.);
#133 = ORIENTED_EDGE('',*,*,#93,.T.);
#134 = ORIENTED_EDGE('',*,*,#66,.T.);
#135 = ORIENTED_EDGE('',*,*,#113,.F.);
#136 = B_SPLINE_SURFACE_WITH_KNOTS('',1,1,(
    (#137,#138)
    ,(#139,#140
    )),.UNSPECIFIED.,.F.,.F.,.F.,(2,2),(2,2),(0.,72.345869163478),(0.,3.
    ),.PIECEWISE_BEZIER_KNOTS.);
#137 = CARTESIAN_POINT('',(-108.6187538018,39.430045967133,
    206.08049218403));
#138 = CARTESIAN_POINT('',(-111.2929091924,38.070305938004,
    206.08049218403));
#139 = CARTESIAN_POINT('',(-137.4242623054,96.080879357668,
    171.51388197964));
#140 = CARTESIAN_POINT('',(-140.0984176961,94.721139328539,
    171.51388197964));
#141 = ADVANCED_FACE('',(#142),#148,.T.);
#142 = FACE_BOUND('',#143,.T.);
#143 = EDGE_LOOP('',(#144,#145,#146,#147));
#144 = ORIENTED_EDGE('',*,*,#44,.F.);
#145 = ORIENTED_EDGE('',*,*,#99,.T.);
#146 = ORIENTED_EDGE('',*,*,#80,.T.);
#147 = ORIENTED_EDGE('',*,*,#119,.F.);
#148 = B_SPLINE_SURFACE_WITH_KNOTS('',1,1,(
    (#149,#150)
    ,(#151,#152
    )),.UNSPECIFIED.,.F.,.F.,.F.,(2,2),(2,2),(0.,72.345869163478),(0.,3.
    ),.PIECEWISE_BEZIER_KNOTS.);
#149 = CARTESIAN_POINT('',(-111.6505898856,45.392656931903,
    218.37907911278));
#150 = CARTESIAN_POINT('',(-114.3247452762,44.032916902774,
    218.37907911278));
#151 = CARTESIAN_POINT('',(-140.4560983892,102.04349032243,
    183.81246890838));
#152 = CARTESIAN_POINT('',(-143.1302537798,100.6837502933,
    183.81246890838));
#153 = ( GEOMETRIC_REPRESENTATION_CONTEXT(3) 
GLOBAL_UNCERTAINTY_ASSIGNED_CONTEXT((#157)) GLOBAL_UNIT_ASSIGNED_CONTEXT
((#154,#155,#156)) REPRESENTATION_CONTEXT('Context #1',
  '3D Context with UNIT and UNCERTAINTY') );
#154 = ( LENGTH_UNIT() NAMED_UNIT(*) SI_UNIT(.MILLI.,.METRE.) );
#155 = ( NAMED_UNIT(*) PLANE_ANGLE_UNIT() SI_UNIT($,.RADIAN.) );
#156 = ( NAMED_UNIT(*) SI_UNIT($,.STERADIAN.) SOLID_ANGLE_UNIT() );
#157 = UNCERTAINTY_MEASURE_WITH_UNIT(LENGTH_MEASURE(1.E-07),#154,
  'distance_accuracy_value','confusion accuracy');
#158 = PRODUCT_RELATED_PRODUCT_CATEGORY('part',$,(#7));
ENDSEC;
END-ISO-10303-21;
