ISO-10303-21;
HEADER;
FILE_DESCRIPTION(('FreeCAD Model'),'2;1');
FILE_NAME('Open CASCADE Shape Model','2026-10-02T02:50:35',('Author'),(
    ''),'Open CASCADE STEP processor 7.8','FreeCAD','Unknown');
FILE_SCHEMA(('AUTOMOTIVE_DESIGN { 1 0 10303 214 1 1 1 1 }'));
ENDSEC;
DATA;
#1 = APPLICATION_PROTOCOL_DEFINITION('international standard',
  'automotive_design',2000,#2);
#2 = APPLICATION_CONTEXT(
  'core data for automotive mechanical design processes');
#3 = SHAPE_DEFINITION_REPRESENTATION(#4,#10);
#4 = PRODUCT_DEFINITION_SHAPE('','',#5);
#5 = PRODUCT_DEFINITION('design','',#6,#9);
#6 = PRODUCT_DEFINITION_FORMATION('','',#7);
#7 = PRODUCT('CRADLE_CUP','CRADLE_CUP','',(#8));
#8 = PRODUCT_CONTEXT('',#2,'mechanical');
#9 = PRODUCT_DEFINITION_CONTEXT('part definition',#2,'design');
#10 = ADVANCED_BREP_SHAPE_REPRESENTATION('',(#11,#15),#487);
#11 = AXIS2_PLACEMENT_3D('',#12,#13,#14);
#12 = CARTESIAN_POINT('',(0.,0.,0.));
#13 = DIRECTION('',(0.,0.,1.));
#14 = DIRECTION('',(1.,0.,-0.));
#15 = MANIFOLD_SOLID_BREP('',#16);
#16 = CLOSED_SHELL('',(#17,#68,#128,#159,#199,#223,#256,#286,#317,#358,
    #382,#399,#443,#469));
#17 = ADVANCED_FACE('',(#18,#29),#63,.T.);
#18 = FACE_BOUND('',#19,.T.);
#19 = EDGE_LOOP('',(#20));
#20 = ORIENTED_EDGE('',*,*,#21,.T.);
#21 = EDGE_CURVE('',#22,#22,#24,.T.);
#22 = VERTEX_POINT('',#23);
#23 = CARTESIAN_POINT('',(-67.,192.,143.));
#24 = CIRCLE('',#25,55.);
#25 = AXIS2_PLACEMENT_3D('',#26,#27,#28);
#26 = CARTESIAN_POINT('',(-122.,192.,143.));
#27 = DIRECTION('',(0.,1.,-2.2E-16));
#28 = DIRECTION('',(1.,0.,0.));
#29 = FACE_BOUND('',#30,.T.);
#30 = EDGE_LOOP('',(#31,#41,#49,#57));
#31 = ORIENTED_EDGE('',*,*,#32,.F.);
#32 = EDGE_CURVE('',#33,#35,#37,.T.);
#33 = VERTEX_POINT('',#34);
#34 = CARTESIAN_POINT('',(-132.,192.,197.));
#35 = VERTEX_POINT('',#36);
#36 = CARTESIAN_POINT('',(-112.,192.,197.));
#37 = LINE('',#38,#39);
#38 = CARTESIAN_POINT('',(-127.,192.,197.));
#39 = VECTOR('',#40,1.);
#40 = DIRECTION('',(1.,0.,0.));
#41 = ORIENTED_EDGE('',*,*,#42,.T.);
#42 = EDGE_CURVE('',#33,#43,#45,.T.);
#43 = VERTEX_POINT('',#44);
#44 = CARTESIAN_POINT('',(-132.,192.,167.));
#45 = LINE('',#46,#47);
#46 = CARTESIAN_POINT('',(-132.,192.,155.));
#47 = VECTOR('',#48,1.);
#48 = DIRECTION('',(0.,-2.2E-16,-1.));
#49 = ORIENTED_EDGE('',*,*,#50,.T.);
#50 = EDGE_CURVE('',#43,#51,#53,.T.);
#51 = VERTEX_POINT('',#52);
#52 = CARTESIAN_POINT('',(-112.,192.,167.));
#53 = LINE('',#54,#55);
#54 = CARTESIAN_POINT('',(-127.,192.,167.));
#55 = VECTOR('',#56,1.);
#56 = DIRECTION('',(1.,0.,0.));
#57 = ORIENTED_EDGE('',*,*,#58,.F.);
#58 = EDGE_CURVE('',#35,#51,#59,.T.);
#59 = LINE('',#60,#61);
#60 = CARTESIAN_POINT('',(-112.,192.,155.));
#61 = VECTOR('',#62,1.);
#62 = DIRECTION('',(0.,-2.2E-16,-1.));
#63 = PLANE('',#64);
#64 = AXIS2_PLACEMENT_3D('',#65,#66,#67);
#65 = CARTESIAN_POINT('',(-122.,192.,143.));
#66 = DIRECTION('',(0.,1.,0.));
#67 = DIRECTION('',(1.,0.,0.));
#68 = ADVANCED_FACE('',(#69,#87),#123,.T.);
#69 = FACE_BOUND('',#70,.F.);
#70 = EDGE_LOOP('',(#71,#78,#79,#80));
#71 = ORIENTED_EDGE('',*,*,#72,.F.);
#72 = EDGE_CURVE('',#22,#73,#75,.T.);
#73 = VERTEX_POINT('',#74);
#74 = CARTESIAN_POINT('',(-67.,174.,143.));
#75 = B_SPLINE_CURVE_WITH_KNOTS('',1,(#76,#77),.UNSPECIFIED.,.F.,.F.,(2,
    2),(-18.,0.),.PIECEWISE_BEZIER_KNOTS.);
#76 = CARTESIAN_POINT('',(-67.,192.,143.));
#77 = CARTESIAN_POINT('',(-67.,174.,143.));
#78 = ORIENTED_EDGE('',*,*,#21,.T.);
#79 = ORIENTED_EDGE('',*,*,#72,.T.);
#80 = ORIENTED_EDGE('',*,*,#81,.F.);
#81 = EDGE_CURVE('',#73,#73,#82,.T.);
#82 = CIRCLE('',#83,55.);
#83 = AXIS2_PLACEMENT_3D('',#84,#85,#86);
#84 = CARTESIAN_POINT('',(-122.,174.,143.));
#85 = DIRECTION('',(0.,1.,-2.2E-16));
#86 = DIRECTION('',(1.,0.,0.));
#87 = FACE_BOUND('',#88,.F.);
#88 = EDGE_LOOP('',(#89,#99,#108,#116));
#89 = ORIENTED_EDGE('',*,*,#90,.F.);
#90 = EDGE_CURVE('',#91,#93,#95,.T.);
#91 = VERTEX_POINT('',#92);
#92 = CARTESIAN_POINT('',(-145.,190.5,93.040016012813));
#93 = VERTEX_POINT('',#94);
#94 = CARTESIAN_POINT('',(-145.,182.5,93.040016012813));
#95 = LINE('',#96,#97);
#96 = CARTESIAN_POINT('',(-145.,174.,93.040016012813));
#97 = VECTOR('',#98,1.);
#98 = DIRECTION('',(0.,-1.,2.2E-16));
#99 = ORIENTED_EDGE('',*,*,#100,.T.);
#100 = EDGE_CURVE('',#91,#101,#103,.T.);
#101 = VERTEX_POINT('',#102);
#102 = CARTESIAN_POINT('',(-105.,190.5,90.693212677512));
#103 = CIRCLE('',#104,55.);
#104 = AXIS2_PLACEMENT_3D('',#105,#106,#107);
#105 = CARTESIAN_POINT('',(-122.,190.5,143.));
#106 = DIRECTION('',(0.,-1.,2.2E-16));
#107 = DIRECTION('',(1.,0.,0.));
#108 = ORIENTED_EDGE('',*,*,#109,.T.);
#109 = EDGE_CURVE('',#101,#110,#112,.T.);
#110 = VERTEX_POINT('',#111);
#111 = CARTESIAN_POINT('',(-105.,182.5,90.693212677512));
#112 = LINE('',#113,#114);
#113 = CARTESIAN_POINT('',(-105.,174.,90.693212677512));
#114 = VECTOR('',#115,1.);
#115 = DIRECTION('',(0.,-1.,2.2E-16));
#116 = ORIENTED_EDGE('',*,*,#117,.F.);
#117 = EDGE_CURVE('',#93,#110,#118,.T.);
#118 = CIRCLE('',#119,55.);
#119 = AXIS2_PLACEMENT_3D('',#120,#121,#122);
#120 = CARTESIAN_POINT('',(-122.,182.5,143.));
#121 = DIRECTION('',(0.,-1.,2.2E-16));
#122 = DIRECTION('',(1.,0.,0.));
#123 = CYLINDRICAL_SURFACE('',#124,55.);
#124 = AXIS2_PLACEMENT_3D('',#125,#126,#127);
#125 = CARTESIAN_POINT('',(-122.,174.,143.));
#126 = DIRECTION('',(0.,-1.,2.2E-16));
#127 = DIRECTION('',(1.,0.,0.));
#128 = ADVANCED_FACE('',(#129),#154,.F.);
#129 = FACE_BOUND('',#130,.F.);
#130 = EDGE_LOOP('',(#131,#139,#147,#153));
#131 = ORIENTED_EDGE('',*,*,#132,.F.);
#132 = EDGE_CURVE('',#133,#33,#135,.T.);
#133 = VERTEX_POINT('',#134);
#134 = CARTESIAN_POINT('',(-132.,174.,197.));
#135 = LINE('',#136,#137);
#136 = CARTESIAN_POINT('',(-132.,170.,197.));
#137 = VECTOR('',#138,1.);
#138 = DIRECTION('',(0.,1.,0.));
#139 = ORIENTED_EDGE('',*,*,#140,.T.);
#140 = EDGE_CURVE('',#133,#141,#143,.T.);
#141 = VERTEX_POINT('',#142);
#142 = CARTESIAN_POINT('',(-112.,174.,197.));
#143 = LINE('',#144,#145);
#144 = CARTESIAN_POINT('',(-127.,174.,197.));
#145 = VECTOR('',#146,1.);
#146 = DIRECTION('',(1.,0.,0.));
#147 = ORIENTED_EDGE('',*,*,#148,.T.);
#148 = EDGE_CURVE('',#141,#35,#149,.T.);
#149 = LINE('',#150,#151);
#150 = CARTESIAN_POINT('',(-112.,170.,197.));
#151 = VECTOR('',#152,1.);
#152 = DIRECTION('',(0.,1.,0.));
#153 = ORIENTED_EDGE('',*,*,#32,.F.);
#154 = PLANE('',#155);
#155 = AXIS2_PLACEMENT_3D('',#156,#157,#158);
#156 = CARTESIAN_POINT('',(-132.,170.,197.));
#157 = DIRECTION('',(0.,0.,1.));
#158 = DIRECTION('',(1.,0.,0.));
#159 = ADVANCED_FACE('',(#160),#194,.F.);
#160 = FACE_BOUND('',#161,.F.);
#161 = EDGE_LOOP('',(#162,#163,#171,#179,#187,#193));
#162 = ORIENTED_EDGE('',*,*,#148,.F.);
#163 = ORIENTED_EDGE('',*,*,#164,.T.);
#164 = EDGE_CURVE('',#141,#165,#167,.T.);
#165 = VERTEX_POINT('',#166);
#166 = CARTESIAN_POINT('',(-112.,174.,191.4793770587));
#167 = LINE('',#168,#169);
#168 = CARTESIAN_POINT('',(-112.,174.,155.));
#169 = VECTOR('',#170,1.);
#170 = DIRECTION('',(0.,-2.2E-16,-1.));
#171 = ORIENTED_EDGE('',*,*,#172,.F.);
#172 = EDGE_CURVE('',#173,#165,#175,.T.);
#173 = VERTEX_POINT('',#174);
#174 = CARTESIAN_POINT('',(-112.,189.,191.4793770587));
#175 = LINE('',#176,#177);
#176 = CARTESIAN_POINT('',(-112.,173.,191.4793770587));
#177 = VECTOR('',#178,1.);
#178 = DIRECTION('',(0.,-1.,2.2E-16));
#179 = ORIENTED_EDGE('',*,*,#180,.T.);
#180 = EDGE_CURVE('',#173,#181,#183,.T.);
#181 = VERTEX_POINT('',#182);
#182 = CARTESIAN_POINT('',(-112.,189.,167.));
#183 = LINE('',#184,#185);
#184 = CARTESIAN_POINT('',(-112.,189.,155.));
#185 = VECTOR('',#186,1.);
#186 = DIRECTION('',(0.,-2.2E-16,-1.));
#187 = ORIENTED_EDGE('',*,*,#188,.T.);
#188 = EDGE_CURVE('',#181,#51,#189,.T.);
#189 = LINE('',#190,#191);
#190 = CARTESIAN_POINT('',(-112.,170.,167.));
#191 = VECTOR('',#192,1.);
#192 = DIRECTION('',(0.,1.,0.));
#193 = ORIENTED_EDGE('',*,*,#58,.F.);
#194 = PLANE('',#195);
#195 = AXIS2_PLACEMENT_3D('',#196,#197,#198);
#196 = CARTESIAN_POINT('',(-112.,170.,167.));
#197 = DIRECTION('',(1.,0.,0.));
#198 = DIRECTION('',(0.,0.,1.));
#199 = ADVANCED_FACE('',(#200),#218,.T.);
#200 = FACE_BOUND('',#201,.T.);
#201 = EDGE_LOOP('',(#202,#210,#216,#217));
#202 = ORIENTED_EDGE('',*,*,#203,.F.);
#203 = EDGE_CURVE('',#204,#43,#206,.T.);
#204 = VERTEX_POINT('',#205);
#205 = CARTESIAN_POINT('',(-132.,189.,167.));
#206 = LINE('',#207,#208);
#207 = CARTESIAN_POINT('',(-132.,170.,167.));
#208 = VECTOR('',#209,1.);
#209 = DIRECTION('',(0.,1.,0.));
#210 = ORIENTED_EDGE('',*,*,#211,.T.);
#211 = EDGE_CURVE('',#204,#181,#212,.T.);
#212 = LINE('',#213,#214);
#213 = CARTESIAN_POINT('',(-127.,189.,167.));
#214 = VECTOR('',#215,1.);
#215 = DIRECTION('',(1.,0.,0.));
#216 = ORIENTED_EDGE('',*,*,#188,.T.);
#217 = ORIENTED_EDGE('',*,*,#50,.F.);
#218 = PLANE('',#219);
#219 = AXIS2_PLACEMENT_3D('',#220,#221,#222);
#220 = CARTESIAN_POINT('',(-132.,170.,167.));
#221 = DIRECTION('',(0.,0.,1.));
#222 = DIRECTION('',(1.,0.,0.));
#223 = ADVANCED_FACE('',(#224),#251,.T.);
#224 = FACE_BOUND('',#225,.T.);
#225 = EDGE_LOOP('',(#226,#227,#235,#243,#249,#250));
#226 = ORIENTED_EDGE('',*,*,#132,.F.);
#227 = ORIENTED_EDGE('',*,*,#228,.T.);
#228 = EDGE_CURVE('',#133,#229,#231,.T.);
#229 = VERTEX_POINT('',#230);
#230 = CARTESIAN_POINT('',(-132.,174.,191.4793770587));
#231 = LINE('',#232,#233);
#232 = CARTESIAN_POINT('',(-132.,174.,155.));
#233 = VECTOR('',#234,1.);
#234 = DIRECTION('',(0.,-2.2E-16,-1.));
#235 = ORIENTED_EDGE('',*,*,#236,.F.);
#236 = EDGE_CURVE('',#237,#229,#239,.T.);
#237 = VERTEX_POINT('',#238);
#238 = CARTESIAN_POINT('',(-132.,189.,191.4793770587));
#239 = LINE('',#240,#241);
#240 = CARTESIAN_POINT('',(-132.,173.,191.4793770587));
#241 = VECTOR('',#242,1.);
#242 = DIRECTION('',(0.,-1.,2.2E-16));
#243 = ORIENTED_EDGE('',*,*,#244,.T.);
#244 = EDGE_CURVE('',#237,#204,#245,.T.);
#245 = LINE('',#246,#247);
#246 = CARTESIAN_POINT('',(-132.,189.,155.));
#247 = VECTOR('',#248,1.);
#248 = DIRECTION('',(0.,-2.2E-16,-1.));
#249 = ORIENTED_EDGE('',*,*,#203,.T.);
#250 = ORIENTED_EDGE('',*,*,#42,.F.);
#251 = PLANE('',#252);
#252 = AXIS2_PLACEMENT_3D('',#253,#254,#255);
#253 = CARTESIAN_POINT('',(-132.,170.,167.));
#254 = DIRECTION('',(1.,0.,0.));
#255 = DIRECTION('',(0.,0.,1.));
#256 = ADVANCED_FACE('',(#257,#260),#281,.F.);
#257 = FACE_BOUND('',#258,.F.);
#258 = EDGE_LOOP('',(#259));
#259 = ORIENTED_EDGE('',*,*,#81,.T.);
#260 = FACE_BOUND('',#261,.F.);
#261 = EDGE_LOOP('',(#262,#271,#278,#279,#280));
#262 = ORIENTED_EDGE('',*,*,#263,.T.);
#263 = EDGE_CURVE('',#229,#264,#266,.T.);
#264 = VERTEX_POINT('',#265);
#265 = CARTESIAN_POINT('',(-72.5,174.,143.));
#266 = CIRCLE('',#267,49.5);
#267 = AXIS2_PLACEMENT_3D('',#268,#269,#270);
#268 = CARTESIAN_POINT('',(-122.,174.,143.));
#269 = DIRECTION('',(0.,-1.,2.2E-16));
#270 = DIRECTION('',(1.,0.,0.));
#271 = ORIENTED_EDGE('',*,*,#272,.T.);
#272 = EDGE_CURVE('',#264,#165,#273,.T.);
#273 = CIRCLE('',#274,49.5);
#274 = AXIS2_PLACEMENT_3D('',#275,#276,#277);
#275 = CARTESIAN_POINT('',(-122.,174.,143.));
#276 = DIRECTION('',(0.,-1.,2.2E-16));
#277 = DIRECTION('',(1.,0.,0.));
#278 = ORIENTED_EDGE('',*,*,#164,.F.);
#279 = ORIENTED_EDGE('',*,*,#140,.F.);
#280 = ORIENTED_EDGE('',*,*,#228,.T.);
#281 = PLANE('',#282);
#282 = AXIS2_PLACEMENT_3D('',#283,#284,#285);
#283 = CARTESIAN_POINT('',(-122.,174.,143.));
#284 = DIRECTION('',(0.,1.,0.));
#285 = DIRECTION('',(1.,0.,0.));
#286 = ADVANCED_FACE('',(#287),#312,.T.);
#287 = FACE_BOUND('',#288,.T.);
#288 = EDGE_LOOP('',(#289,#297,#298,#306));
#289 = ORIENTED_EDGE('',*,*,#290,.F.);
#290 = EDGE_CURVE('',#93,#291,#293,.T.);
#291 = VERTEX_POINT('',#292);
#292 = CARTESIAN_POINT('',(-145.,182.5,95.));
#293 = LINE('',#294,#295);
#294 = CARTESIAN_POINT('',(-145.,182.5,60.));
#295 = VECTOR('',#296,1.);
#296 = DIRECTION('',(0.,0.,1.));
#297 = ORIENTED_EDGE('',*,*,#90,.F.);
#298 = ORIENTED_EDGE('',*,*,#299,.T.);
#299 = EDGE_CURVE('',#91,#300,#302,.T.);
#300 = VERTEX_POINT('',#301);
#301 = CARTESIAN_POINT('',(-145.,190.5,95.));
#302 = LINE('',#303,#304);
#303 = CARTESIAN_POINT('',(-145.,190.5,60.));
#304 = VECTOR('',#305,1.);
#305 = DIRECTION('',(0.,0.,1.));
#306 = ORIENTED_EDGE('',*,*,#307,.F.);
#307 = EDGE_CURVE('',#291,#300,#308,.T.);
#308 = LINE('',#309,#310);
#309 = CARTESIAN_POINT('',(-145.,182.5,95.));
#310 = VECTOR('',#311,1.);
#311 = DIRECTION('',(0.,1.,0.));
#312 = PLANE('',#313);
#313 = AXIS2_PLACEMENT_3D('',#314,#315,#316);
#314 = CARTESIAN_POINT('',(-145.,182.5,60.));
#315 = DIRECTION('',(1.,0.,0.));
#316 = DIRECTION('',(0.,0.,1.));
#317 = ADVANCED_FACE('',(#318),#353,.T.);
#318 = FACE_BOUND('',#319,.T.);
#319 = EDGE_LOOP('',(#320,#328,#329,#330,#338,#347));
#320 = ORIENTED_EDGE('',*,*,#321,.F.);
#321 = EDGE_CURVE('',#110,#322,#324,.T.);
#322 = VERTEX_POINT('',#323);
#323 = CARTESIAN_POINT('',(-105.,182.5,95.));
#324 = LINE('',#325,#326);
#325 = CARTESIAN_POINT('',(-105.,182.5,60.));
#326 = VECTOR('',#327,1.);
#327 = DIRECTION('',(0.,0.,1.));
#328 = ORIENTED_EDGE('',*,*,#117,.F.);
#329 = ORIENTED_EDGE('',*,*,#290,.T.);
#330 = ORIENTED_EDGE('',*,*,#331,.T.);
#331 = EDGE_CURVE('',#291,#332,#334,.T.);
#332 = VERTEX_POINT('',#333);
#333 = CARTESIAN_POINT('',(-134.0933866224,182.5,95.));
#334 = LINE('',#335,#336);
#335 = CARTESIAN_POINT('',(-145.,182.5,95.));
#336 = VECTOR('',#337,1.);
#337 = DIRECTION('',(1.,0.,0.));
#338 = ORIENTED_EDGE('',*,*,#339,.T.);
#339 = EDGE_CURVE('',#332,#340,#342,.T.);
#340 = VERTEX_POINT('',#341);
#341 = CARTESIAN_POINT('',(-109.9066133775,182.5,95.));
#342 = CIRCLE('',#343,49.5);
#343 = AXIS2_PLACEMENT_3D('',#344,#345,#346);
#344 = CARTESIAN_POINT('',(-122.,182.5,143.));
#345 = DIRECTION('',(0.,-1.,2.2E-16));
#346 = DIRECTION('',(1.,0.,0.));
#347 = ORIENTED_EDGE('',*,*,#348,.T.);
#348 = EDGE_CURVE('',#340,#322,#349,.T.);
#349 = LINE('',#350,#351);
#350 = CARTESIAN_POINT('',(-145.,182.5,95.));
#351 = VECTOR('',#352,1.);
#352 = DIRECTION('',(1.,0.,0.));
#353 = PLANE('',#354);
#354 = AXIS2_PLACEMENT_3D('',#355,#356,#357);
#355 = CARTESIAN_POINT('',(-145.,182.5,60.));
#356 = DIRECTION('',(0.,1.,0.));
#357 = DIRECTION('',(0.,0.,1.));
#358 = ADVANCED_FACE('',(#359),#377,.F.);
#359 = FACE_BOUND('',#360,.F.);
#360 = EDGE_LOOP('',(#361,#362,#363,#371));
#361 = ORIENTED_EDGE('',*,*,#321,.F.);
#362 = ORIENTED_EDGE('',*,*,#109,.F.);
#363 = ORIENTED_EDGE('',*,*,#364,.T.);
#364 = EDGE_CURVE('',#101,#365,#367,.T.);
#365 = VERTEX_POINT('',#366);
#366 = CARTESIAN_POINT('',(-105.,190.5,95.));
#367 = LINE('',#368,#369);
#368 = CARTESIAN_POINT('',(-105.,190.5,60.));
#369 = VECTOR('',#370,1.);
#370 = DIRECTION('',(0.,0.,1.));
#371 = ORIENTED_EDGE('',*,*,#372,.F.);
#372 = EDGE_CURVE('',#322,#365,#373,.T.);
#373 = LINE('',#374,#375);
#374 = CARTESIAN_POINT('',(-105.,182.5,95.));
#375 = VECTOR('',#376,1.);
#376 = DIRECTION('',(0.,1.,0.));
#377 = PLANE('',#378);
#378 = AXIS2_PLACEMENT_3D('',#379,#380,#381);
#379 = CARTESIAN_POINT('',(-105.,182.5,60.));
#380 = DIRECTION('',(1.,0.,0.));
#381 = DIRECTION('',(0.,0.,1.));
#382 = ADVANCED_FACE('',(#383),#394,.F.);
#383 = FACE_BOUND('',#384,.F.);
#384 = EDGE_LOOP('',(#385,#386,#387,#388));
#385 = ORIENTED_EDGE('',*,*,#364,.F.);
#386 = ORIENTED_EDGE('',*,*,#100,.F.);
#387 = ORIENTED_EDGE('',*,*,#299,.T.);
#388 = ORIENTED_EDGE('',*,*,#389,.T.);
#389 = EDGE_CURVE('',#300,#365,#390,.T.);
#390 = LINE('',#391,#392);
#391 = CARTESIAN_POINT('',(-145.,190.5,95.));
#392 = VECTOR('',#393,1.);
#393 = DIRECTION('',(1.,0.,0.));
#394 = PLANE('',#395);
#395 = AXIS2_PLACEMENT_3D('',#396,#397,#398);
#396 = CARTESIAN_POINT('',(-145.,190.5,60.));
#397 = DIRECTION('',(0.,1.,0.));
#398 = DIRECTION('',(0.,0.,1.));
#399 = ADVANCED_FACE('',(#400),#438,.F.);
#400 = FACE_BOUND('',#401,.F.);
#401 = EDGE_LOOP('',(#402,#411,#420,#428,#435,#436,#437));
#402 = ORIENTED_EDGE('',*,*,#403,.F.);
#403 = EDGE_CURVE('',#404,#173,#406,.T.);
#404 = VERTEX_POINT('',#405);
#405 = CARTESIAN_POINT('',(-72.5,189.,143.));
#406 = CIRCLE('',#407,49.5);
#407 = AXIS2_PLACEMENT_3D('',#408,#409,#410);
#408 = CARTESIAN_POINT('',(-122.,189.,143.));
#409 = DIRECTION('',(0.,-1.,2.2E-16));
#410 = DIRECTION('',(1.,0.,0.));
#411 = ORIENTED_EDGE('',*,*,#412,.F.);
#412 = EDGE_CURVE('',#413,#404,#415,.T.);
#413 = VERTEX_POINT('',#414);
#414 = CARTESIAN_POINT('',(-109.9066133775,189.,95.));
#415 = CIRCLE('',#416,49.5);
#416 = AXIS2_PLACEMENT_3D('',#417,#418,#419);
#417 = CARTESIAN_POINT('',(-122.,189.,143.));
#418 = DIRECTION('',(0.,-1.,2.2E-16));
#419 = DIRECTION('',(1.,0.,0.));
#420 = ORIENTED_EDGE('',*,*,#421,.F.);
#421 = EDGE_CURVE('',#422,#413,#424,.T.);
#422 = VERTEX_POINT('',#423);
#423 = CARTESIAN_POINT('',(-134.0933866224,189.,95.));
#424 = LINE('',#425,#426);
#425 = CARTESIAN_POINT('',(-133.5,189.,95.));
#426 = VECTOR('',#427,1.);
#427 = DIRECTION('',(1.,0.,0.));
#428 = ORIENTED_EDGE('',*,*,#429,.F.);
#429 = EDGE_CURVE('',#237,#422,#430,.T.);
#430 = CIRCLE('',#431,49.5);
#431 = AXIS2_PLACEMENT_3D('',#432,#433,#434);
#432 = CARTESIAN_POINT('',(-122.,189.,143.));
#433 = DIRECTION('',(0.,-1.,2.2E-16));
#434 = DIRECTION('',(1.,0.,0.));
#435 = ORIENTED_EDGE('',*,*,#244,.T.);
#436 = ORIENTED_EDGE('',*,*,#211,.T.);
#437 = ORIENTED_EDGE('',*,*,#180,.F.);
#438 = PLANE('',#439);
#439 = AXIS2_PLACEMENT_3D('',#440,#441,#442);
#440 = CARTESIAN_POINT('',(-122.,189.,143.));
#441 = DIRECTION('',(0.,1.,0.));
#442 = DIRECTION('',(1.,0.,0.));
#443 = ADVANCED_FACE('',(#444),#464,.F.);
#444 = FACE_BOUND('',#445,.F.);
#445 = EDGE_LOOP('',(#446,#447,#448,#449,#455,#456,#462,#463));
#446 = ORIENTED_EDGE('',*,*,#389,.F.);
#447 = ORIENTED_EDGE('',*,*,#307,.F.);
#448 = ORIENTED_EDGE('',*,*,#331,.T.);
#449 = ORIENTED_EDGE('',*,*,#450,.F.);
#450 = EDGE_CURVE('',#422,#332,#451,.T.);
#451 = LINE('',#452,#453);
#452 = CARTESIAN_POINT('',(-134.0933866224,173.,95.));
#453 = VECTOR('',#454,1.);
#454 = DIRECTION('',(0.,-1.,2.2E-16));
#455 = ORIENTED_EDGE('',*,*,#421,.T.);
#456 = ORIENTED_EDGE('',*,*,#457,.T.);
#457 = EDGE_CURVE('',#413,#340,#458,.T.);
#458 = LINE('',#459,#460);
#459 = CARTESIAN_POINT('',(-109.9066133775,173.,95.));
#460 = VECTOR('',#461,1.);
#461 = DIRECTION('',(0.,-1.,2.2E-16));
#462 = ORIENTED_EDGE('',*,*,#348,.T.);
#463 = ORIENTED_EDGE('',*,*,#372,.T.);
#464 = PLANE('',#465);
#465 = AXIS2_PLACEMENT_3D('',#466,#467,#468);
#466 = CARTESIAN_POINT('',(-145.,182.5,95.));
#467 = DIRECTION('',(0.,0.,1.));
#468 = DIRECTION('',(1.,0.,0.));
#469 = ADVANCED_FACE('',(#470),#482,.F.);
#470 = FACE_BOUND('',#471,.T.);
#471 = EDGE_LOOP('',(#472,#473,#474,#475,#476,#477,#478,#479,#480,#481)
  );
#472 = ORIENTED_EDGE('',*,*,#412,.F.);
#473 = ORIENTED_EDGE('',*,*,#457,.T.);
#474 = ORIENTED_EDGE('',*,*,#339,.F.);
#475 = ORIENTED_EDGE('',*,*,#450,.F.);
#476 = ORIENTED_EDGE('',*,*,#429,.F.);
#477 = ORIENTED_EDGE('',*,*,#236,.T.);
#478 = ORIENTED_EDGE('',*,*,#263,.T.);
#479 = ORIENTED_EDGE('',*,*,#272,.T.);
#480 = ORIENTED_EDGE('',*,*,#172,.F.);
#481 = ORIENTED_EDGE('',*,*,#403,.F.);
#482 = CYLINDRICAL_SURFACE('',#483,49.5);
#483 = AXIS2_PLACEMENT_3D('',#484,#485,#486);
#484 = CARTESIAN_POINT('',(-122.,173.,143.));
#485 = DIRECTION('',(0.,-1.,2.2E-16));
#486 = DIRECTION('',(1.,0.,0.));
#487 = ( GEOMETRIC_REPRESENTATION_CONTEXT(3) 
GLOBAL_UNCERTAINTY_ASSIGNED_CONTEXT((#491)) GLOBAL_UNIT_ASSIGNED_CONTEXT
((#488,#489,#490)) REPRESENTATION_CONTEXT('Context #1',
  '3D Context with UNIT and UNCERTAINTY') );
#488 = ( LENGTH_UNIT() NAMED_UNIT(*) SI_UNIT(.MILLI.,.METRE.) );
#489 = ( NAMED_UNIT(*) PLANE_ANGLE_UNIT() SI_UNIT($,.RADIAN.) );
#490 = ( NAMED_UNIT(*) SI_UNIT($,.STERADIAN.) SOLID_ANGLE_UNIT() );
#491 = UNCERTAINTY_MEASURE_WITH_UNIT(LENGTH_MEASURE(5.E-05),#488,
  'distance_accuracy_value','confusion accuracy');
#492 = PRODUCT_RELATED_PRODUCT_CATEGORY('part',$,(#7));
ENDSEC;
END-ISO-10303-21;
