ISO-10303-21;
HEADER;
FILE_DESCRIPTION(('FreeCAD Model'),'2;1');
FILE_NAME('Open CASCADE Shape Model','2026-09-28T03:26:31',('Author'),(
    ''),'Open CASCADE STEP processor 7.8','FreeCAD','Unknown');
FILE_SCHEMA(('AUTOMOTIVE_DESIGN { 1 0 10303 214 1 1 1 1 }'));
ENDSEC;
DATA;
#1 = APPLICATION_PROTOCOL_DEFINITION('international standard',
  'automotive_design',2000,#2);
#2 = APPLICATION_CONTEXT(
  'core data for automotive mechanical design processes');
#3 = SHAPE_DEFINITION_REPRESENTATION(#4,#10);
#4 = PRODUCT_DEFINITION_SHAPE('','',#5);
#5 = PRODUCT_DEFINITION('design','',#6,#9);
#6 = PRODUCT_DEFINITION_FORMATION('','',#7);
#7 = PRODUCT('master_robot','master_robot','',(#8));
#8 = PRODUCT_CONTEXT('',#2,'mechanical');
#9 = PRODUCT_DEFINITION_CONTEXT('part definition',#2,'design');
#10 = SHAPE_REPRESENTATION('',(#11,#15,#19),#23);
#11 = AXIS2_PLACEMENT_3D('',#12,#13,#14);
#12 = CARTESIAN_POINT('',(0.,0.,0.));
#13 = DIRECTION('',(0.,0.,1.));
#14 = DIRECTION('',(1.,0.,-0.));
#15 = AXIS2_PLACEMENT_3D('',#16,#17,#18);
#16 = CARTESIAN_POINT('',(0.,0.,0.));
#17 = DIRECTION('',(0.,0.,1.));
#18 = DIRECTION('',(1.,0.,0.));
#19 = AXIS2_PLACEMENT_3D('',#20,#21,#22);
#20 = CARTESIAN_POINT('',(0.,0.,0.));
#21 = DIRECTION('',(0.,0.,1.));
#22 = DIRECTION('',(1.,0.,0.));
#23 = ( GEOMETRIC_REPRESENTATION_CONTEXT(3) 
GLOBAL_UNCERTAINTY_ASSIGNED_CONTEXT((#27)) GLOBAL_UNIT_ASSIGNED_CONTEXT(
(#24,#25,#26)) REPRESENTATION_CONTEXT('Context #1',
  '3D Context with UNIT and UNCERTAINTY') );
#24 = ( LENGTH_UNIT() NAMED_UNIT(*) SI_UNIT(.MILLI.,.METRE.) );
#25 = ( NAMED_UNIT(*) PLANE_ANGLE_UNIT() SI_UNIT($,.RADIAN.) );
#26 = ( NAMED_UNIT(*) SI_UNIT($,.STERADIAN.) SOLID_ANGLE_UNIT() );
#27 = UNCERTAINTY_MEASURE_WITH_UNIT(LENGTH_MEASURE(2.E-05),#24,
  'distance_accuracy_value','confusion accuracy');
#28 = PRODUCT_RELATED_PRODUCT_CATEGORY('part',$,(#7));
#29 = SHAPE_DEFINITION_REPRESENTATION(#30,#36);
#30 = PRODUCT_DEFINITION_SHAPE('','',#31);
#31 = PRODUCT_DEFINITION('design','',#32,#35);
#32 = PRODUCT_DEFINITION_FORMATION('','',#33);
#33 = PRODUCT('DIV_BAND_0','DIV_BAND_0','',(#34));
#34 = PRODUCT_CONTEXT('',#2,'mechanical');
#35 = PRODUCT_DEFINITION_CONTEXT('part definition',#2,'design');
#36 = ADVANCED_BREP_SHAPE_REPRESENTATION('',(#11,#37),#313);
#37 = MANIFOLD_SOLID_BREP('',#38);
#38 = CLOSED_SHELL('',(#39,#141,#173,#205,#222,#299));
#39 = ADVANCED_FACE('',(#40),#136,.T.);
#40 = FACE_BOUND('',#41,.F.);
#41 = EDGE_LOOP('',(#42,#53,#61,#70,#83));
#42 = ORIENTED_EDGE('',*,*,#43,.F.);
#43 = EDGE_CURVE('',#44,#46,#48,.T.);
#44 = VERTEX_POINT('',#45);
#45 = CARTESIAN_POINT('',(-11.25513722731,22.,140.));
#46 = VERTEX_POINT('',#47);
#47 = CARTESIAN_POINT('',(-66.,59.,140.));
#48 = CIRCLE('',#49,59.);
#49 = AXIS2_PLACEMENT_3D('',#50,#51,#52);
#50 = CARTESIAN_POINT('',(-66.,0.,140.));
#51 = DIRECTION('',(0.,0.,1.));
#52 = DIRECTION('',(1.,0.,0.));
#53 = ORIENTED_EDGE('',*,*,#54,.F.);
#54 = EDGE_CURVE('',#55,#44,#57,.T.);
#55 = VERTEX_POINT('',#56);
#56 = CARTESIAN_POINT('',(-11.25513722731,22.,150.));
#57 = LINE('',#58,#59);
#58 = CARTESIAN_POINT('',(-11.25513722731,22.,140.));
#59 = VECTOR('',#60,1.);
#60 = DIRECTION('',(-0.,-0.,-1.));
#61 = ORIENTED_EDGE('',*,*,#62,.T.);
#62 = EDGE_CURVE('',#55,#63,#65,.T.);
#63 = VERTEX_POINT('',#64);
#64 = CARTESIAN_POINT('',(-61.527864045,58.830264320331,150.));
#65 = CIRCLE('',#66,59.);
#66 = AXIS2_PLACEMENT_3D('',#67,#68,#69);
#67 = CARTESIAN_POINT('',(-66.,0.,150.));
#68 = DIRECTION('',(0.,0.,1.));
#69 = DIRECTION('',(1.,0.,0.));
#70 = ORIENTED_EDGE('',*,*,#71,.T.);
#71 = EDGE_CURVE('',#63,#72,#74,.T.);
#72 = VERTEX_POINT('',#73);
#73 = CARTESIAN_POINT('',(-60.,58.694122363317,146.));
#74 = B_SPLINE_CURVE_WITH_KNOTS('',7,(#75,#76,#77,#78,#79,#80,#81,#82),
  .UNSPECIFIED.,.F.,.F.,(8,8),(0.,1.),.PIECEWISE_BEZIER_KNOTS.);
#75 = CARTESIAN_POINT('',(-61.52818059502,58.83028838285,150.0003538855)
  );
#76 = CARTESIAN_POINT('',(-61.07606045959,58.795921738548,
    149.49494870064));
#77 = CARTESIAN_POINT('',(-60.70901232268,58.763944318679,
    148.95053192077));
#78 = CARTESIAN_POINT('',(-60.42200546632,58.736726656003,
    148.38115794075));
#79 = CARTESIAN_POINT('',(-60.2102403219,58.715614546232,147.79581957218
    ));
#80 = CARTESIAN_POINT('',(-60.07019747312,58.70129819181,147.20085675349
    ));
#81 = CARTESIAN_POINT('',(-60.,58.694122363317,146.60084483733));
#82 = CARTESIAN_POINT('',(-60.,58.694122363317,146.));
#83 = ORIENTED_EDGE('',*,*,#84,.T.);
#84 = EDGE_CURVE('',#72,#46,#85,.T.);
#85 = B_SPLINE_CURVE_WITH_KNOTS('',7,(#86,#87,#88,#89,#90,#91,#92,#93,
    #94,#95,#96,#97,#98,#99,#100,#101,#102,#103,#104,#105,#106,#107,#108
    ,#109,#110,#111,#112,#113,#114,#115,#116,#117,#118,#119,#120,#121,
    #122,#123,#124,#125,#126,#127,#128,#129,#130,#131,#132,#133,#134,
    #135),.UNSPECIFIED.,.F.,.F.,(8,6,6,6,6,6,6,6,8),(0.,0.206403770964,
    0.347505928309,0.474292486349,0.643393191849,0.795020194865,
    0.905313895324,0.946505423603,1.),.UNSPECIFIED.);
#86 = CARTESIAN_POINT('',(-60.,58.694122363317,146.));
#87 = CARTESIAN_POINT('',(-60.,58.694122363317,145.39669745006));
#88 = CARTESIAN_POINT('',(-60.07077292928,58.701357012349,
    144.79424664251));
#89 = CARTESIAN_POINT('',(-60.2119572415,58.715790079577,144.19690554564
    ));
#90 = CARTESIAN_POINT('',(-60.42546447686,58.737071412812,143.6092998406
    ));
#91 = CARTESIAN_POINT('',(-60.71487503175,58.764500211596,
    143.03786035224));
#92 = CARTESIAN_POINT('',(-61.08506689739,58.796705876069,
    142.49172691411));
#93 = CARTESIAN_POINT('',(-61.85290653028,58.854901053937,
    141.63895460844));
#94 = CARTESIAN_POINT('',(-62.20723770374,58.879817714131,
    141.30851736938));
#95 = CARTESIAN_POINT('',(-62.60476861773,58.905119042587,141.0013412572
    ));
#96 = CARTESIAN_POINT('',(-63.04502470302,58.929608251728,
    140.72518222868));
#97 = CARTESIAN_POINT('',(-63.52640933886,58.951833957447,
    140.48811273248));
#98 = CARTESIAN_POINT('',(-64.04602626202,58.970232337005,
    140.29861642829));
#99 = CARTESIAN_POINT('',(-65.09649384901,58.995177684993,
    140.04642147355));
#100 = CARTESIAN_POINT('',(-65.6164806959,59.002633731348,
    139.97385929956));
#101 = CARTESIAN_POINT('',(-66.14815821309,59.004673158989,
    139.95491685744));
#102 = CARTESIAN_POINT('',(-66.67921728081,59.000792454522,
    139.99199168437));
#103 = CARTESIAN_POINT('',(-67.19724415118,58.991376422736,
    140.08314793753));
#104 = CARTESIAN_POINT('',(-67.69078140444,58.977560236721,
    140.22216021044));
#105 = CARTESIAN_POINT('',(-68.76296437624,58.93845941284,140.6337326923
    ));
#106 = CARTESIAN_POINT('',(-69.31710159326,58.910811376088,
    140.93617007357));
#107 = CARTESIAN_POINT('',(-69.81026295779,58.88049882324,
    141.28986081724));
#108 = CARTESIAN_POINT('',(-70.24277936814,58.849864275188,
    141.68225161826));
#109 = CARTESIAN_POINT('',(-70.61633268359,58.820622248328,
    142.10323550169));
#110 = CARTESIAN_POINT('',(-70.93325184421,58.793985094079,
    142.5446428407));
#111 = CARTESIAN_POINT('',(-71.43188666574,58.749898827835,
    143.40830368602));
#112 = CARTESIAN_POINT('',(-71.62506334575,58.731707483743,
    143.82933831509));
#113 = CARTESIAN_POINT('',(-71.77741723974,58.716734891287,
    144.25934389185));
#114 = CARTESIAN_POINT('',(-71.89035226537,58.705334699401,
    144.69548766557));
#115 = CARTESIAN_POINT('',(-71.964854135,58.697715155112,145.13552573007
    ));
#116 = CARTESIAN_POINT('',(-72.00141468387,58.693977748209,
    145.57752347939));
#117 = CARTESIAN_POINT('',(-71.99891545966,58.694233229739,
    146.34122741723));
#118 = CARTESIAN_POINT('',(-71.97775317108,58.696396856496,
    146.66275010444));
#119 = CARTESIAN_POINT('',(-71.93648442829,58.700613304528,
    146.98345638928));
#120 = CARTESIAN_POINT('',(-71.87496777753,58.70685330803,
    147.30258542324));
#121 = CARTESIAN_POINT('',(-71.7929268374,58.715055795619,
    147.61930891699));
#122 = CARTESIAN_POINT('',(-71.68996024657,58.725122127268,
    147.93267795668));
#123 = CARTESIAN_POINT('',(-71.51908856072,58.741312886728,
    148.35693205662));
#124 = CARTESIAN_POINT('',(-71.46963314065,58.745955675812,
    148.47167363193));
#125 = CARTESIAN_POINT('',(-71.41715723556,58.750831440735,
    148.58573825495));
#126 = CARTESIAN_POINT('',(-71.36163044017,58.755931906713,
    148.69906514415));
#127 = CARTESIAN_POINT('',(-71.30302005961,58.761247781927,
    148.81158902779));
#128 = CARTESIAN_POINT('',(-71.24129110949,58.766768757524,
    148.9232401439));
#129 = CARTESIAN_POINT('',(-71.09214179122,58.779905134057,
    149.17771333522));
#130 = CARTESIAN_POINT('',(-71.00255625827,58.787653369951,
    149.31988254005));
#131 = CARTESIAN_POINT('',(-70.90756636791,58.795703332768,
    149.4602908779));
#132 = CARTESIAN_POINT('',(-70.80708653878,58.804026494627,
    149.59875621429));
#133 = CARTESIAN_POINT('',(-70.70102901842,58.812590356933,
    149.73507517999));
#134 = CARTESIAN_POINT('',(-70.58930394432,58.821358125031,
    149.86902309381));
#135 = CARTESIAN_POINT('',(-70.47181940497,58.83028838285,150.0003538855
    ));
#136 = CYLINDRICAL_SURFACE('',#137,59.);
#137 = AXIS2_PLACEMENT_3D('',#138,#139,#140);
#138 = CARTESIAN_POINT('',(-66.,0.,140.));
#139 = DIRECTION('',(-0.,-0.,-1.));
#140 = DIRECTION('',(1.,0.,0.));
#141 = ADVANCED_FACE('',(#142),#168,.F.);
#142 = FACE_BOUND('',#143,.F.);
#143 = EDGE_LOOP('',(#144,#152,#153,#161));
#144 = ORIENTED_EDGE('',*,*,#145,.F.);
#145 = EDGE_CURVE('',#44,#146,#148,.T.);
#146 = VERTEX_POINT('',#147);
#147 = CARTESIAN_POINT('',(-15.80996114765,22.,140.));
#148 = LINE('',#149,#150);
#149 = CARTESIAN_POINT('',(-75.5,22.,140.));
#150 = VECTOR('',#151,1.);
#151 = DIRECTION('',(-1.,0.,0.));
#152 = ORIENTED_EDGE('',*,*,#43,.T.);
#153 = ORIENTED_EDGE('',*,*,#154,.T.);
#154 = EDGE_CURVE('',#46,#155,#157,.T.);
#155 = VERTEX_POINT('',#156);
#156 = CARTESIAN_POINT('',(-66.,54.8,140.));
#157 = LINE('',#158,#159);
#158 = CARTESIAN_POINT('',(-66.,50.,140.));
#159 = VECTOR('',#160,1.);
#160 = DIRECTION('',(-0.,-1.,2.2E-16));
#161 = ORIENTED_EDGE('',*,*,#162,.T.);
#162 = EDGE_CURVE('',#155,#146,#163,.T.);
#163 = CIRCLE('',#164,54.8);
#164 = AXIS2_PLACEMENT_3D('',#165,#166,#167);
#165 = CARTESIAN_POINT('',(-66.,0.,140.));
#166 = DIRECTION('',(0.,0.,-1.));
#167 = DIRECTION('',(1.,0.,0.));
#168 = PLANE('',#169);
#169 = AXIS2_PLACEMENT_3D('',#170,#171,#172);
#170 = CARTESIAN_POINT('',(-66.,0.,140.));
#171 = DIRECTION('',(0.,0.,1.));
#172 = DIRECTION('',(1.,0.,0.));
#173 = ADVANCED_FACE('',(#174),#200,.T.);
#174 = FACE_BOUND('',#175,.T.);
#175 = EDGE_LOOP('',(#176,#184,#185,#193));
#176 = ORIENTED_EDGE('',*,*,#177,.F.);
#177 = EDGE_CURVE('',#55,#178,#180,.T.);
#178 = VERTEX_POINT('',#179);
#179 = CARTESIAN_POINT('',(-15.80996114765,22.,150.));
#180 = LINE('',#181,#182);
#181 = CARTESIAN_POINT('',(-75.5,22.,150.));
#182 = VECTOR('',#183,1.);
#183 = DIRECTION('',(-1.,0.,0.));
#184 = ORIENTED_EDGE('',*,*,#62,.T.);
#185 = ORIENTED_EDGE('',*,*,#186,.T.);
#186 = EDGE_CURVE('',#63,#187,#189,.T.);
#187 = VERTEX_POINT('',#188);
#188 = CARTESIAN_POINT('',(-61.527864045,54.617213403835,150.));
#189 = LINE('',#190,#191);
#190 = CARTESIAN_POINT('',(-61.527864045,50.,150.));
#191 = VECTOR('',#192,1.);
#192 = DIRECTION('',(-0.,-1.,2.2E-16));
#193 = ORIENTED_EDGE('',*,*,#194,.T.);
#194 = EDGE_CURVE('',#187,#178,#195,.T.);
#195 = CIRCLE('',#196,54.8);
#196 = AXIS2_PLACEMENT_3D('',#197,#198,#199);
#197 = CARTESIAN_POINT('',(-66.,0.,150.));
#198 = DIRECTION('',(0.,0.,-1.));
#199 = DIRECTION('',(1.,0.,0.));
#200 = PLANE('',#201);
#201 = AXIS2_PLACEMENT_3D('',#202,#203,#204);
#202 = CARTESIAN_POINT('',(-66.,0.,150.));
#203 = DIRECTION('',(0.,0.,1.));
#204 = DIRECTION('',(1.,0.,0.));
#205 = ADVANCED_FACE('',(#206),#217,.F.);
#206 = FACE_BOUND('',#207,.F.);
#207 = EDGE_LOOP('',(#208,#209,#210,#211));
#208 = ORIENTED_EDGE('',*,*,#177,.F.);
#209 = ORIENTED_EDGE('',*,*,#54,.T.);
#210 = ORIENTED_EDGE('',*,*,#145,.T.);
#211 = ORIENTED_EDGE('',*,*,#212,.F.);
#212 = EDGE_CURVE('',#178,#146,#213,.T.);
#213 = LINE('',#214,#215);
#214 = CARTESIAN_POINT('',(-15.80996114765,22.,139.));
#215 = VECTOR('',#216,1.);
#216 = DIRECTION('',(-0.,-0.,-1.));
#217 = PLANE('',#218);
#218 = AXIS2_PLACEMENT_3D('',#219,#220,#221);
#219 = CARTESIAN_POINT('',(-85.,22.,134.));
#220 = DIRECTION('',(0.,1.,0.));
#221 = DIRECTION('',(0.,0.,1.));
#222 = ADVANCED_FACE('',(#223),#294,.F.);
#223 = FACE_BOUND('',#224,.T.);
#224 = EDGE_LOOP('',(#225,#226,#227,#228,#241));
#225 = ORIENTED_EDGE('',*,*,#162,.T.);
#226 = ORIENTED_EDGE('',*,*,#212,.F.);
#227 = ORIENTED_EDGE('',*,*,#194,.F.);
#228 = ORIENTED_EDGE('',*,*,#229,.T.);
#229 = EDGE_CURVE('',#187,#230,#232,.T.);
#230 = VERTEX_POINT('',#231);
#231 = CARTESIAN_POINT('',(-60.,54.470542497757,146.));
#232 = B_SPLINE_CURVE_WITH_KNOTS('',7,(#233,#234,#235,#236,#237,#238,
    #239,#240),.UNSPECIFIED.,.F.,.F.,(8,8),(0.,1.),
  .PIECEWISE_BEZIER_KNOTS.);
#233 = CARTESIAN_POINT('',(-61.52818059502,54.617239322482,
    150.0003538855));
#234 = CARTESIAN_POINT('',(-61.07613502635,54.580227818953,
    149.49503205554));
#235 = CARTESIAN_POINT('',(-60.70910809632,54.545782880219,
    148.95068321078));
#236 = CARTESIAN_POINT('',(-60.42208473799,54.51645780752,
    148.38134252455));
#237 = CARTESIAN_POINT('',(-60.21028620864,54.493706205805,
    147.79599557625));
#238 = CARTESIAN_POINT('',(-60.07021302461,54.478276446084,
    147.20098813494));
#239 = CARTESIAN_POINT('',(-60.,54.470542497757,146.60091138246));
#240 = CARTESIAN_POINT('',(-60.,54.470542497757,146.));
#241 = ORIENTED_EDGE('',*,*,#242,.T.);
#242 = EDGE_CURVE('',#230,#155,#243,.T.);
#243 = B_SPLINE_CURVE_WITH_KNOTS('',7,(#244,#245,#246,#247,#248,#249,
    #250,#251,#252,#253,#254,#255,#256,#257,#258,#259,#260,#261,#262,
    #263,#264,#265,#266,#267,#268,#269,#270,#271,#272,#273,#274,#275,
    #276,#277,#278,#279,#280,#281,#282,#283,#284,#285,#286,#287,#288,
    #289,#290,#291,#292,#293),.UNSPECIFIED.,.F.,.F.,(8,6,6,6,6,6,6,6,8),
  (0.,0.206395923066,0.347512565847,0.474290857553,0.643413145109,
    0.795027826285,0.905309587855,0.946501071142,1.),.UNSPECIFIED.);
#244 = CARTESIAN_POINT('',(-60.,54.470542497757,146.));
#245 = CARTESIAN_POINT('',(-60.,54.470542497757,145.39663018834));
#246 = CARTESIAN_POINT('',(-60.07078871259,54.478339853099,
    144.79411390251));
#247 = CARTESIAN_POINT('',(-60.21200378743,54.493895422135,
    144.19672783259));
#248 = CARTESIAN_POINT('',(-60.42554483719,54.516829395094,
    143.60911364258));
#249 = CARTESIAN_POINT('',(-60.71497204196,54.546381906214,
    143.03770794591));
#250 = CARTESIAN_POINT('',(-61.08514236025,54.58107259666,
    142.49164310412));
#251 = CARTESIAN_POINT('',(-61.8528987976,54.643749857958,
    141.63896319646));
#252 = CARTESIAN_POINT('',(-62.20720705039,54.67058478531,
    141.30854828993));
#253 = CARTESIAN_POINT('',(-62.60470579886,54.69783149871,
    141.00139149588));
#254 = CARTESIAN_POINT('',(-63.04493194383,54.724202199957,
    140.72523802104));
#255 = CARTESIAN_POINT('',(-63.5263048644,54.748135337066,
    140.48815640812));
#256 = CARTESIAN_POINT('',(-64.04594676756,54.767947804728,
    140.29863551322));
#257 = CARTESIAN_POINT('',(-65.09648182159,54.794807952779,
    140.04642436108));
#258 = CARTESIAN_POINT('',(-65.61648541093,54.802836021496,
    139.97385563545));
#259 = CARTESIAN_POINT('',(-66.14819278719,54.805031715565,
    139.95491198812));
#260 = CARTESIAN_POINT('',(-66.67928093055,54.800852927671,
    139.99199442489));
#261 = CARTESIAN_POINT('',(-67.19732227007,54.79071395506,140.0831641436
    ));
#262 = CARTESIAN_POINT('',(-67.69084414774,54.775837613969,
    140.22218429534));
#263 = CARTESIAN_POINT('',(-68.76299884053,54.733736665906,
    140.6337459219));
#264 = CARTESIAN_POINT('',(-69.31713106377,54.703964066603,
    140.93619147776));
#265 = CARTESIAN_POINT('',(-69.81026734131,54.671321186128,
    141.2898729219));
#266 = CARTESIAN_POINT('',(-70.24275809198,54.638328767517,
    141.68223974542));
#267 = CARTESIAN_POINT('',(-70.61629950855,54.606832111644,
    142.10319815389));
#268 = CARTESIAN_POINT('',(-70.9332272546,54.578136883502,
    142.54460025026));
#269 = CARTESIAN_POINT('',(-71.43185947297,54.530642436389,
    143.40825658676));
#270 = CARTESIAN_POINT('',(-71.6250301628,54.511044026613,
    143.82926089742));
#271 = CARTESIAN_POINT('',(-71.77739097208,54.494910971423,144.259255942
    ));
#272 = CARTESIAN_POINT('',(-71.89033760178,54.482625849947,
    144.69540779418));
#273 = CARTESIAN_POINT('',(-71.96484938774,54.474414392071,
    145.1354679061));
#274 = CARTESIAN_POINT('',(-72.00141477783,54.470386659022,
    145.57749476889));
#275 = CARTESIAN_POINT('',(-71.99891541972,54.470661965026,
    146.34123962275));
#276 = CARTESIAN_POINT('',(-71.97775157326,54.472993524455,
    146.66277449462));
#277 = CARTESIAN_POINT('',(-71.93647973583,54.477537255798,
    146.98349016703));
#278 = CARTESIAN_POINT('',(-71.87495948775,54.484261402604,
    147.30262318331));
#279 = CARTESIAN_POINT('',(-71.79291634242,54.493099776649,
    147.61934311334));
#280 = CARTESIAN_POINT('',(-71.68995150172,54.50394562348,
    147.93269966912));
#281 = CARTESIAN_POINT('',(-71.51908684778,54.521389030747,
    148.35693630965));
#282 = CARTESIAN_POINT('',(-71.4696300413,54.526391301031,
    148.47168072871));
#283 = CARTESIAN_POINT('',(-71.41715322572,54.531644450898,
    148.58574675564));
#284 = CARTESIAN_POINT('',(-71.36162614242,54.537139538626,
    148.69907360386));
#285 = CARTESIAN_POINT('',(-71.3030162405,54.542866528671,
    148.81159602213));
#286 = CARTESIAN_POINT('',(-71.24128867679,54.548814291673,
    148.92324429448));
#287 = CARTESIAN_POINT('',(-71.09213800274,54.562966338363,
    149.17771979898));
#288 = CARTESIAN_POINT('',(-71.00254963584,54.571313637623,
    149.31989287929));
#289 = CARTESIAN_POINT('',(-70.90755807941,54.579985650624,
    149.46030275123));
#290 = CARTESIAN_POINT('',(-70.80707794009,54.588951606475,
    149.59876754002));
#291 = CARTESIAN_POINT('',(-70.70102162302,54.598176466883,
    149.73508414977));
#292 = CARTESIAN_POINT('',(-70.58929938789,54.607620578037,
    149.86902818724));
#293 = CARTESIAN_POINT('',(-70.47181940497,54.617239322482,
    150.0003538855));
#294 = CYLINDRICAL_SURFACE('',#295,54.8);
#295 = AXIS2_PLACEMENT_3D('',#296,#297,#298);
#296 = CARTESIAN_POINT('',(-66.,0.,139.));
#297 = DIRECTION('',(-0.,-0.,-1.));
#298 = DIRECTION('',(1.,0.,0.));
#299 = ADVANCED_FACE('',(#300),#308,.F.);
#300 = FACE_BOUND('',#301,.T.);
#301 = EDGE_LOOP('',(#302,#303,#304,#305,#306,#307));
#302 = ORIENTED_EDGE('',*,*,#229,.F.);
#303 = ORIENTED_EDGE('',*,*,#186,.F.);
#304 = ORIENTED_EDGE('',*,*,#71,.T.);
#305 = ORIENTED_EDGE('',*,*,#84,.T.);
#306 = ORIENTED_EDGE('',*,*,#154,.T.);
#307 = ORIENTED_EDGE('',*,*,#242,.F.);
#308 = CYLINDRICAL_SURFACE('',#309,6.);
#309 = AXIS2_PLACEMENT_3D('',#310,#311,#312);
#310 = CARTESIAN_POINT('',(-66.,50.,146.));
#311 = DIRECTION('',(-0.,-1.,2.2E-16));
#312 = DIRECTION('',(1.,0.,0.));
#313 = ( GEOMETRIC_REPRESENTATION_CONTEXT(3) 
GLOBAL_UNCERTAINTY_ASSIGNED_CONTEXT((#317)) GLOBAL_UNIT_ASSIGNED_CONTEXT
((#314,#315,#316)) REPRESENTATION_CONTEXT('Context #1',
  '3D Context with UNIT and UNCERTAINTY') );
#314 = ( LENGTH_UNIT() NAMED_UNIT(*) SI_UNIT(.MILLI.,.METRE.) );
#315 = ( NAMED_UNIT(*) PLANE_ANGLE_UNIT() SI_UNIT($,.RADIAN.) );
#316 = ( NAMED_UNIT(*) SI_UNIT($,.STERADIAN.) SOLID_ANGLE_UNIT() );
#317 = UNCERTAINTY_MEASURE_WITH_UNIT(LENGTH_MEASURE(2.E-05),#314,
  'distance_accuracy_value','confusion accuracy');
#318 = CONTEXT_DEPENDENT_SHAPE_REPRESENTATION(#319,#321);
#319 = ( REPRESENTATION_RELATIONSHIP('','',#36,#10) 
REPRESENTATION_RELATIONSHIP_WITH_TRANSFORMATION(#320) 
SHAPE_REPRESENTATION_RELATIONSHIP() );
#320 = ITEM_DEFINED_TRANSFORMATION('','',#11,#15);
#321 = PRODUCT_DEFINITION_SHAPE('Placement','Placement of an item',#322
  );
#322 = NEXT_ASSEMBLY_USAGE_OCCURRENCE('80','DIV_BAND_0','',#5,#31,$);
#323 = PRODUCT_RELATED_PRODUCT_CATEGORY('part',$,(#33));
#324 = SHAPE_DEFINITION_REPRESENTATION(#325,#331);
#325 = PRODUCT_DEFINITION_SHAPE('','',#326);
#326 = PRODUCT_DEFINITION('design','',#327,#330);
#327 = PRODUCT_DEFINITION_FORMATION('','',#328);
#328 = PRODUCT('DIV_BAND_1','DIV_BAND_1','',(#329));
#329 = PRODUCT_CONTEXT('',#2,'mechanical');
#330 = PRODUCT_DEFINITION_CONTEXT('part definition',#2,'design');
#331 = ADVANCED_BREP_SHAPE_REPRESENTATION('',(#11,#332),#580);
#332 = MANIFOLD_SOLID_BREP('',#333);
#333 = CLOSED_SHELL('',(#334,#376,#455,#526,#551,#568));
#334 = ADVANCED_FACE('',(#335),#371,.F.);
#335 = FACE_BOUND('',#336,.F.);
#336 = EDGE_LOOP('',(#337,#348,#356,#365));
#337 = ORIENTED_EDGE('',*,*,#338,.T.);
#338 = EDGE_CURVE('',#339,#341,#343,.T.);
#339 = VERTEX_POINT('',#340);
#340 = CARTESIAN_POINT('',(-66.,59.,140.));
#341 = VERTEX_POINT('',#342);
#342 = CARTESIAN_POINT('',(-85.,-55.85696017507,140.));
#343 = CIRCLE('',#344,59.);
#344 = AXIS2_PLACEMENT_3D('',#345,#346,#347);
#345 = CARTESIAN_POINT('',(-66.,0.,140.));
#346 = DIRECTION('',(0.,0.,1.));
#347 = DIRECTION('',(1.,0.,0.));
#348 = ORIENTED_EDGE('',*,*,#349,.T.);
#349 = EDGE_CURVE('',#341,#350,#352,.T.);
#350 = VERTEX_POINT('',#351);
#351 = CARTESIAN_POINT('',(-85.,-51.40077820422,140.));
#352 = LINE('',#353,#354);
#353 = CARTESIAN_POINT('',(-85.,-30.5,140.));
#354 = VECTOR('',#355,1.);
#355 = DIRECTION('',(0.,1.,0.));
#356 = ORIENTED_EDGE('',*,*,#357,.T.);
#357 = EDGE_CURVE('',#350,#358,#360,.T.);
#358 = VERTEX_POINT('',#359);
#359 = CARTESIAN_POINT('',(-66.,54.8,140.));
#360 = CIRCLE('',#361,54.8);
#361 = AXIS2_PLACEMENT_3D('',#362,#363,#364);
#362 = CARTESIAN_POINT('',(-66.,0.,140.));
#363 = DIRECTION('',(0.,0.,-1.));
#364 = DIRECTION('',(1.,0.,0.));
#365 = ORIENTED_EDGE('',*,*,#366,.F.);
#366 = EDGE_CURVE('',#339,#358,#367,.T.);
#367 = LINE('',#368,#369);
#368 = CARTESIAN_POINT('',(-66.,50.,140.));
#369 = VECTOR('',#370,1.);
#370 = DIRECTION('',(-0.,-1.,2.2E-16));
#371 = PLANE('',#372);
#372 = AXIS2_PLACEMENT_3D('',#373,#374,#375);
#373 = CARTESIAN_POINT('',(-66.,0.,140.));
#374 = DIRECTION('',(0.,0.,1.));
#375 = DIRECTION('',(1.,0.,0.));
#376 = ADVANCED_FACE('',(#377),#450,.T.);
#377 = FACE_BOUND('',#378,.F.);
#378 = EDGE_LOOP('',(#379,#387,#388,#443));
#379 = ORIENTED_EDGE('',*,*,#380,.T.);
#380 = EDGE_CURVE('',#381,#341,#383,.T.);
#381 = VERTEX_POINT('',#382);
#382 = CARTESIAN_POINT('',(-85.,-55.85696017507,150.));
#383 = LINE('',#384,#385);
#384 = CARTESIAN_POINT('',(-85.,-55.85696017507,140.));
#385 = VECTOR('',#386,1.);
#386 = DIRECTION('',(-0.,-0.,-1.));
#387 = ORIENTED_EDGE('',*,*,#338,.F.);
#388 = ORIENTED_EDGE('',*,*,#389,.T.);
#389 = EDGE_CURVE('',#339,#390,#392,.T.);
#390 = VERTEX_POINT('',#391);
#391 = CARTESIAN_POINT('',(-70.472135955,58.830264320331,150.));
#392 = B_SPLINE_CURVE_WITH_KNOTS('',7,(#393,#394,#395,#396,#397,#398,
    #399,#400,#401,#402,#403,#404,#405,#406,#407,#408,#409,#410,#411,
    #412,#413,#414,#415,#416,#417,#418,#419,#420,#421,#422,#423,#424,
    #425,#426,#427,#428,#429,#430,#431,#432,#433,#434,#435,#436,#437,
    #438,#439,#440,#441,#442),.UNSPECIFIED.,.F.,.F.,(8,6,6,6,6,6,6,6,8),
  (0.,0.206403770964,0.347505928309,0.474292486349,0.643393191849,
    0.795020194865,0.905313895324,0.946505423603,1.),.UNSPECIFIED.);
#393 = CARTESIAN_POINT('',(-60.,58.694122363317,146.));
#394 = CARTESIAN_POINT('',(-60.,58.694122363317,145.39669745006));
#395 = CARTESIAN_POINT('',(-60.07077292928,58.701357012349,
    144.79424664251));
#396 = CARTESIAN_POINT('',(-60.2119572415,58.715790079577,
    144.19690554564));
#397 = CARTESIAN_POINT('',(-60.42546447686,58.737071412812,
    143.6092998406));
#398 = CARTESIAN_POINT('',(-60.71487503175,58.764500211596,
    143.03786035224));
#399 = CARTESIAN_POINT('',(-61.08506689739,58.796705876069,
    142.49172691411));
#400 = CARTESIAN_POINT('',(-61.85290653028,58.854901053937,
    141.63895460844));
#401 = CARTESIAN_POINT('',(-62.20723770374,58.879817714131,
    141.30851736938));
#402 = CARTESIAN_POINT('',(-62.60476861773,58.905119042587,
    141.0013412572));
#403 = CARTESIAN_POINT('',(-63.04502470302,58.929608251728,
    140.72518222868));
#404 = CARTESIAN_POINT('',(-63.52640933886,58.951833957447,
    140.48811273248));
#405 = CARTESIAN_POINT('',(-64.04602626202,58.970232337005,
    140.29861642829));
#406 = CARTESIAN_POINT('',(-65.09649384901,58.995177684993,
    140.04642147355));
#407 = CARTESIAN_POINT('',(-65.6164806959,59.002633731348,
    139.97385929956));
#408 = CARTESIAN_POINT('',(-66.14815821309,59.004673158989,
    139.95491685744));
#409 = CARTESIAN_POINT('',(-66.67921728081,59.000792454522,
    139.99199168437));
#410 = CARTESIAN_POINT('',(-67.19724415118,58.991376422736,
    140.08314793753));
#411 = CARTESIAN_POINT('',(-67.69078140444,58.977560236721,
    140.22216021044));
#412 = CARTESIAN_POINT('',(-68.76296437624,58.93845941284,140.6337326923
    ));
#413 = CARTESIAN_POINT('',(-69.31710159326,58.910811376088,
    140.93617007357));
#414 = CARTESIAN_POINT('',(-69.81026295779,58.88049882324,
    141.28986081724));
#415 = CARTESIAN_POINT('',(-70.24277936814,58.849864275188,
    141.68225161826));
#416 = CARTESIAN_POINT('',(-70.61633268359,58.820622248328,
    142.10323550169));
#417 = CARTESIAN_POINT('',(-70.93325184421,58.793985094079,
    142.5446428407));
#418 = CARTESIAN_POINT('',(-71.43188666574,58.749898827835,
    143.40830368602));
#419 = CARTESIAN_POINT('',(-71.62506334575,58.731707483743,
    143.82933831509));
#420 = CARTESIAN_POINT('',(-71.77741723974,58.716734891287,
    144.25934389185));
#421 = CARTESIAN_POINT('',(-71.89035226537,58.705334699401,
    144.69548766557));
#422 = CARTESIAN_POINT('',(-71.964854135,58.697715155112,145.13552573007
    ));
#423 = CARTESIAN_POINT('',(-72.00141468387,58.693977748209,
    145.57752347939));
#424 = CARTESIAN_POINT('',(-71.99891545966,58.694233229739,
    146.34122741723));
#425 = CARTESIAN_POINT('',(-71.97775317108,58.696396856496,
    146.66275010444));
#426 = CARTESIAN_POINT('',(-71.93648442829,58.700613304528,
    146.98345638928));
#427 = CARTESIAN_POINT('',(-71.87496777753,58.70685330803,
    147.30258542324));
#428 = CARTESIAN_POINT('',(-71.7929268374,58.715055795619,
    147.61930891699));
#429 = CARTESIAN_POINT('',(-71.68996024657,58.725122127268,
    147.93267795668));
#430 = CARTESIAN_POINT('',(-71.51908856072,58.741312886728,
    148.35693205662));
#431 = CARTESIAN_POINT('',(-71.46963314065,58.745955675812,
    148.47167363193));
#432 = CARTESIAN_POINT('',(-71.41715723556,58.750831440735,
    148.58573825495));
#433 = CARTESIAN_POINT('',(-71.36163044017,58.755931906713,
    148.69906514415));
#434 = CARTESIAN_POINT('',(-71.30302005961,58.761247781927,
    148.81158902779));
#435 = CARTESIAN_POINT('',(-71.24129110949,58.766768757524,
    148.9232401439));
#436 = CARTESIAN_POINT('',(-71.09214179122,58.779905134057,
    149.17771333522));
#437 = CARTESIAN_POINT('',(-71.00255625827,58.787653369951,
    149.31988254005));
#438 = CARTESIAN_POINT('',(-70.90756636791,58.795703332768,
    149.4602908779));
#439 = CARTESIAN_POINT('',(-70.80708653878,58.804026494627,
    149.59875621429));
#440 = CARTESIAN_POINT('',(-70.70102901842,58.812590356933,
    149.73507517999));
#441 = CARTESIAN_POINT('',(-70.58930394432,58.821358125031,
    149.86902309381));
#442 = CARTESIAN_POINT('',(-70.47181940497,58.83028838285,150.0003538855
    ));
#443 = ORIENTED_EDGE('',*,*,#444,.T.);
#444 = EDGE_CURVE('',#390,#381,#445,.T.);
#445 = CIRCLE('',#446,59.);
#446 = AXIS2_PLACEMENT_3D('',#447,#448,#449);
#447 = CARTESIAN_POINT('',(-66.,0.,150.));
#448 = DIRECTION('',(0.,0.,1.));
#449 = DIRECTION('',(1.,0.,0.));
#450 = CYLINDRICAL_SURFACE('',#451,59.);
#451 = AXIS2_PLACEMENT_3D('',#452,#453,#454);
#452 = CARTESIAN_POINT('',(-66.,0.,140.));
#453 = DIRECTION('',(-0.,-0.,-1.));
#454 = DIRECTION('',(1.,0.,0.));
#455 = ADVANCED_FACE('',(#456),#521,.F.);
#456 = FACE_BOUND('',#457,.T.);
#457 = EDGE_LOOP('',(#458,#513,#514,#515));
#458 = ORIENTED_EDGE('',*,*,#459,.F.);
#459 = EDGE_CURVE('',#358,#460,#462,.T.);
#460 = VERTEX_POINT('',#461);
#461 = CARTESIAN_POINT('',(-70.472135955,54.617213403835,150.));
#462 = B_SPLINE_CURVE_WITH_KNOTS('',7,(#463,#464,#465,#466,#467,#468,
    #469,#470,#471,#472,#473,#474,#475,#476,#477,#478,#479,#480,#481,
    #482,#483,#484,#485,#486,#487,#488,#489,#490,#491,#492,#493,#494,
    #495,#496,#497,#498,#499,#500,#501,#502,#503,#504,#505,#506,#507,
    #508,#509,#510,#511,#512),.UNSPECIFIED.,.F.,.F.,(8,6,6,6,6,6,6,6,8),
  (0.,0.206395923066,0.347512565847,0.474290857553,0.643413145109,
    0.795027826285,0.905309587855,0.946501071142,1.),.UNSPECIFIED.);
#463 = CARTESIAN_POINT('',(-60.,54.470542497757,146.));
#464 = CARTESIAN_POINT('',(-60.,54.470542497757,145.39663018834));
#465 = CARTESIAN_POINT('',(-60.07078871259,54.478339853099,
    144.79411390251));
#466 = CARTESIAN_POINT('',(-60.21200378743,54.493895422135,
    144.19672783259));
#467 = CARTESIAN_POINT('',(-60.42554483719,54.516829395094,
    143.60911364258));
#468 = CARTESIAN_POINT('',(-60.71497204196,54.546381906214,
    143.03770794591));
#469 = CARTESIAN_POINT('',(-61.08514236025,54.58107259666,
    142.49164310412));
#470 = CARTESIAN_POINT('',(-61.8528987976,54.643749857958,
    141.63896319646));
#471 = CARTESIAN_POINT('',(-62.20720705039,54.67058478531,
    141.30854828993));
#472 = CARTESIAN_POINT('',(-62.60470579886,54.69783149871,
    141.00139149588));
#473 = CARTESIAN_POINT('',(-63.04493194383,54.724202199957,
    140.72523802104));
#474 = CARTESIAN_POINT('',(-63.5263048644,54.748135337066,
    140.48815640812));
#475 = CARTESIAN_POINT('',(-64.04594676756,54.767947804728,
    140.29863551322));
#476 = CARTESIAN_POINT('',(-65.09648182159,54.794807952779,
    140.04642436108));
#477 = CARTESIAN_POINT('',(-65.61648541093,54.802836021496,
    139.97385563545));
#478 = CARTESIAN_POINT('',(-66.14819278719,54.805031715565,
    139.95491198812));
#479 = CARTESIAN_POINT('',(-66.67928093055,54.800852927671,
    139.99199442489));
#480 = CARTESIAN_POINT('',(-67.19732227007,54.79071395506,140.0831641436
    ));
#481 = CARTESIAN_POINT('',(-67.69084414774,54.775837613969,
    140.22218429534));
#482 = CARTESIAN_POINT('',(-68.76299884053,54.733736665906,
    140.6337459219));
#483 = CARTESIAN_POINT('',(-69.31713106377,54.703964066603,
    140.93619147776));
#484 = CARTESIAN_POINT('',(-69.81026734131,54.671321186128,
    141.2898729219));
#485 = CARTESIAN_POINT('',(-70.24275809198,54.638328767517,
    141.68223974542));
#486 = CARTESIAN_POINT('',(-70.61629950855,54.606832111644,
    142.10319815389));
#487 = CARTESIAN_POINT('',(-70.9332272546,54.578136883502,
    142.54460025026));
#488 = CARTESIAN_POINT('',(-71.43185947297,54.530642436389,
    143.40825658676));
#489 = CARTESIAN_POINT('',(-71.6250301628,54.511044026613,
    143.82926089742));
#490 = CARTESIAN_POINT('',(-71.77739097208,54.494910971423,144.259255942
    ));
#491 = CARTESIAN_POINT('',(-71.89033760178,54.482625849947,
    144.69540779418));
#492 = CARTESIAN_POINT('',(-71.96484938774,54.474414392071,
    145.1354679061));
#493 = CARTESIAN_POINT('',(-72.00141477783,54.470386659022,
    145.57749476889));
#494 = CARTESIAN_POINT('',(-71.99891541972,54.470661965026,
    146.34123962275));
#495 = CARTESIAN_POINT('',(-71.97775157326,54.472993524455,
    146.66277449462));
#496 = CARTESIAN_POINT('',(-71.93647973583,54.477537255798,
    146.98349016703));
#497 = CARTESIAN_POINT('',(-71.87495948775,54.484261402604,
    147.30262318331));
#498 = CARTESIAN_POINT('',(-71.79291634242,54.493099776649,
    147.61934311334));
#499 = CARTESIAN_POINT('',(-71.68995150172,54.50394562348,
    147.93269966912));
#500 = CARTESIAN_POINT('',(-71.51908684778,54.521389030747,
    148.35693630965));
#501 = CARTESIAN_POINT('',(-71.4696300413,54.526391301031,
    148.47168072871));
#502 = CARTESIAN_POINT('',(-71.41715322572,54.531644450898,
    148.58574675564));
#503 = CARTESIAN_POINT('',(-71.36162614242,54.537139538626,
    148.69907360386));
#504 = CARTESIAN_POINT('',(-71.3030162405,54.542866528671,
    148.81159602213));
#505 = CARTESIAN_POINT('',(-71.24128867679,54.548814291673,
    148.92324429448));
#506 = CARTESIAN_POINT('',(-71.09213800274,54.562966338363,
    149.17771979898));
#507 = CARTESIAN_POINT('',(-71.00254963584,54.571313637623,
    149.31989287929));
#508 = CARTESIAN_POINT('',(-70.90755807941,54.579985650624,
    149.46030275123));
#509 = CARTESIAN_POINT('',(-70.80707794009,54.588951606475,
    149.59876754002));
#510 = CARTESIAN_POINT('',(-70.70102162302,54.598176466883,
    149.73508414977));
#511 = CARTESIAN_POINT('',(-70.58929938789,54.607620578037,
    149.86902818724));
#512 = CARTESIAN_POINT('',(-70.47181940497,54.617239322482,
    150.0003538855));
#513 = ORIENTED_EDGE('',*,*,#366,.F.);
#514 = ORIENTED_EDGE('',*,*,#389,.T.);
#515 = ORIENTED_EDGE('',*,*,#516,.T.);
#516 = EDGE_CURVE('',#390,#460,#517,.T.);
#517 = LINE('',#518,#519);
#518 = CARTESIAN_POINT('',(-70.472135955,50.,150.));
#519 = VECTOR('',#520,1.);
#520 = DIRECTION('',(-0.,-1.,2.2E-16));
#521 = CYLINDRICAL_SURFACE('',#522,6.);
#522 = AXIS2_PLACEMENT_3D('',#523,#524,#525);
#523 = CARTESIAN_POINT('',(-66.,50.,146.));
#524 = DIRECTION('',(-0.,-1.,0.));
#525 = DIRECTION('',(1.,0.,0.));
#526 = ADVANCED_FACE('',(#527),#546,.F.);
#527 = FACE_BOUND('',#528,.T.);
#528 = EDGE_LOOP('',(#529,#537,#538,#539));
#529 = ORIENTED_EDGE('',*,*,#530,.T.);
#530 = EDGE_CURVE('',#531,#350,#533,.T.);
#531 = VERTEX_POINT('',#532);
#532 = CARTESIAN_POINT('',(-85.,-51.40077820422,150.));
#533 = LINE('',#534,#535);
#534 = CARTESIAN_POINT('',(-85.,-51.40077820422,139.));
#535 = VECTOR('',#536,1.);
#536 = DIRECTION('',(-0.,-0.,-1.));
#537 = ORIENTED_EDGE('',*,*,#357,.T.);
#538 = ORIENTED_EDGE('',*,*,#459,.T.);
#539 = ORIENTED_EDGE('',*,*,#540,.F.);
#540 = EDGE_CURVE('',#531,#460,#541,.T.);
#541 = CIRCLE('',#542,54.8);
#542 = AXIS2_PLACEMENT_3D('',#543,#544,#545);
#543 = CARTESIAN_POINT('',(-66.,0.,150.));
#544 = DIRECTION('',(0.,0.,-1.));
#545 = DIRECTION('',(1.,0.,0.));
#546 = CYLINDRICAL_SURFACE('',#547,54.8);
#547 = AXIS2_PLACEMENT_3D('',#548,#549,#550);
#548 = CARTESIAN_POINT('',(-66.,0.,139.));
#549 = DIRECTION('',(-0.,-0.,-1.));
#550 = DIRECTION('',(1.,0.,0.));
#551 = ADVANCED_FACE('',(#552),#563,.T.);
#552 = FACE_BOUND('',#553,.T.);
#553 = EDGE_LOOP('',(#554,#560,#561,#562));
#554 = ORIENTED_EDGE('',*,*,#555,.F.);
#555 = EDGE_CURVE('',#381,#531,#556,.T.);
#556 = LINE('',#557,#558);
#557 = CARTESIAN_POINT('',(-85.,-30.5,150.));
#558 = VECTOR('',#559,1.);
#559 = DIRECTION('',(0.,1.,0.));
#560 = ORIENTED_EDGE('',*,*,#380,.T.);
#561 = ORIENTED_EDGE('',*,*,#349,.T.);
#562 = ORIENTED_EDGE('',*,*,#530,.F.);
#563 = PLANE('',#564);
#564 = AXIS2_PLACEMENT_3D('',#565,#566,#567);
#565 = CARTESIAN_POINT('',(-85.,-61.,134.));
#566 = DIRECTION('',(1.,0.,0.));
#567 = DIRECTION('',(0.,0.,1.));
#568 = ADVANCED_FACE('',(#569),#575,.T.);
#569 = FACE_BOUND('',#570,.T.);
#570 = EDGE_LOOP('',(#571,#572,#573,#574));
#571 = ORIENTED_EDGE('',*,*,#444,.T.);
#572 = ORIENTED_EDGE('',*,*,#555,.T.);
#573 = ORIENTED_EDGE('',*,*,#540,.T.);
#574 = ORIENTED_EDGE('',*,*,#516,.F.);
#575 = PLANE('',#576);
#576 = AXIS2_PLACEMENT_3D('',#577,#578,#579);
#577 = CARTESIAN_POINT('',(-66.,0.,150.));
#578 = DIRECTION('',(0.,0.,1.));
#579 = DIRECTION('',(1.,0.,0.));
#580 = ( GEOMETRIC_REPRESENTATION_CONTEXT(3) 
GLOBAL_UNCERTAINTY_ASSIGNED_CONTEXT((#584)) GLOBAL_UNIT_ASSIGNED_CONTEXT
((#581,#582,#583)) REPRESENTATION_CONTEXT('Context #1',
  '3D Context with UNIT and UNCERTAINTY') );
#581 = ( LENGTH_UNIT() NAMED_UNIT(*) SI_UNIT(.MILLI.,.METRE.) );
#582 = ( NAMED_UNIT(*) PLANE_ANGLE_UNIT() SI_UNIT($,.RADIAN.) );
#583 = ( NAMED_UNIT(*) SI_UNIT($,.STERADIAN.) SOLID_ANGLE_UNIT() );
#584 = UNCERTAINTY_MEASURE_WITH_UNIT(LENGTH_MEASURE(2.E-05),#581,
  'distance_accuracy_value','confusion accuracy');
#585 = CONTEXT_DEPENDENT_SHAPE_REPRESENTATION(#586,#588);
#586 = ( REPRESENTATION_RELATIONSHIP('','',#331,#10) 
REPRESENTATION_RELATIONSHIP_WITH_TRANSFORMATION(#587) 
SHAPE_REPRESENTATION_RELATIONSHIP() );
#587 = ITEM_DEFINED_TRANSFORMATION('','',#11,#19);
#588 = PRODUCT_DEFINITION_SHAPE('Placement','Placement of an item',#589
  );
#589 = NEXT_ASSEMBLY_USAGE_OCCURRENCE('81','DIV_BAND_1','',#5,#326,$);
#590 = PRODUCT_RELATED_PRODUCT_CATEGORY('part',$,(#328));
ENDSEC;
END-ISO-10303-21;
