ISO-10303-21;
HEADER;
FILE_DESCRIPTION(('FreeCAD Model'),'2;1');
FILE_NAME('Open CASCADE Shape Model','2026-09-28T03:26:31',('Author'),(
    ''),'Open CASCADE STEP processor 7.8','FreeCAD','Unknown');
FILE_SCHEMA(('AUTOMOTIVE_DESIGN { 1 0 10303 214 1 1 1 1 }'));
ENDSEC;
DATA;
#1 = APPLICATION_PROTOCOL_DEFINITION('international standard',
  'automotive_design',2000,#2);
#2 = APPLICATION_CONTEXT(
  'core data for automotive mechanical design processes');
#3 = SHAPE_DEFINITION_REPRESENTATION(#4,#10);
#4 = PRODUCT_DEFINITION_SHAPE('','',#5);
#5 = PRODUCT_DEFINITION('design','',#6,#9);
#6 = PRODUCT_DEFINITION_FORMATION('','',#7);
#7 = PRODUCT('FEED_COLUMN','FEED_COLUMN','',(#8));
#8 = PRODUCT_CONTEXT('',#2,'mechanical');
#9 = PRODUCT_DEFINITION_CONTEXT('part definition',#2,'design');
#10 = ADVANCED_BREP_SHAPE_REPRESENTATION('',(#11,#15),#1279);
#11 = AXIS2_PLACEMENT_3D('',#12,#13,#14);
#12 = CARTESIAN_POINT('',(0.,0.,0.));
#13 = DIRECTION('',(0.,0.,1.));
#14 = DIRECTION('',(1.,0.,-0.));
#15 = MANIFOLD_SOLID_BREP('',#16);
#16 = CLOSED_SHELL('',(#17,#461,#481,#523,#547,#582,#602,#619,#650,#675,
    #699,#717,#748,#773,#798,#870,#902,#926,#951,#968,#1238,#1263));
#17 = ADVANCED_FACE('',(#18,#104,#140,#362,#420),#456,.T.);
#18 = FACE_BOUND('',#19,.F.);
#19 = EDGE_LOOP('',(#20,#29,#37,#46,#54,#63,#71,#78,#79,#88,#96,#103));
#20 = ORIENTED_EDGE('',*,*,#21,.F.);
#21 = EDGE_CURVE('',#22,#22,#24,.T.);
#22 = VERTEX_POINT('',#23);
#23 = CARTESIAN_POINT('',(-11.,-1.3E-14,88.));
#24 = CIRCLE('',#25,55.);
#25 = AXIS2_PLACEMENT_3D('',#26,#27,#28);
#26 = CARTESIAN_POINT('',(-66.,0.,88.));
#27 = DIRECTION('',(0.,0.,1.));
#28 = DIRECTION('',(1.,0.,0.));
#29 = ORIENTED_EDGE('',*,*,#30,.T.);
#30 = EDGE_CURVE('',#22,#31,#33,.T.);
#31 = VERTEX_POINT('',#32);
#32 = CARTESIAN_POINT('',(-11.,-1.3E-14,98.));
#33 = LINE('',#34,#35);
#34 = CARTESIAN_POINT('',(-11.,-1.347E-14,88.));
#35 = VECTOR('',#36,1.);
#36 = DIRECTION('',(0.,0.,1.));
#37 = ORIENTED_EDGE('',*,*,#38,.F.);
#38 = EDGE_CURVE('',#39,#31,#41,.T.);
#39 = VERTEX_POINT('',#40);
#40 = CARTESIAN_POINT('',(-17.01020514433,25.,98.));
#41 = CIRCLE('',#42,55.);
#42 = AXIS2_PLACEMENT_3D('',#43,#44,#45);
#43 = CARTESIAN_POINT('',(-66.,0.,98.));
#44 = DIRECTION('',(0.,0.,-1.));
#45 = DIRECTION('',(1.,0.,0.));
#46 = ORIENTED_EDGE('',*,*,#47,.F.);
#47 = EDGE_CURVE('',#48,#39,#50,.T.);
#48 = VERTEX_POINT('',#49);
#49 = CARTESIAN_POINT('',(-17.01020514433,25.,178.));
#50 = LINE('',#51,#52);
#51 = CARTESIAN_POINT('',(-17.01020514433,25.,88.));
#52 = VECTOR('',#53,1.);
#53 = DIRECTION('',(-0.,-0.,-1.));
#54 = ORIENTED_EDGE('',*,*,#55,.T.);
#55 = EDGE_CURVE('',#48,#56,#58,.T.);
#56 = VERTEX_POINT('',#57);
#57 = CARTESIAN_POINT('',(-11.,-1.3E-14,178.));
#58 = CIRCLE('',#59,55.);
#59 = AXIS2_PLACEMENT_3D('',#60,#61,#62);
#60 = CARTESIAN_POINT('',(-66.,0.,178.));
#61 = DIRECTION('',(0.,0.,-1.));
#62 = DIRECTION('',(1.,0.,0.));
#63 = ORIENTED_EDGE('',*,*,#64,.T.);
#64 = EDGE_CURVE('',#56,#65,#67,.T.);
#65 = VERTEX_POINT('',#66);
#66 = CARTESIAN_POINT('',(-11.,-1.3E-14,254.));
#67 = LINE('',#68,#69);
#68 = CARTESIAN_POINT('',(-11.,-1.347E-14,88.));
#69 = VECTOR('',#70,1.);
#70 = DIRECTION('',(0.,0.,1.));
#71 = ORIENTED_EDGE('',*,*,#72,.T.);
#72 = EDGE_CURVE('',#65,#65,#73,.T.);
#73 = CIRCLE('',#74,55.);
#74 = AXIS2_PLACEMENT_3D('',#75,#76,#77);
#75 = CARTESIAN_POINT('',(-66.,0.,254.));
#76 = DIRECTION('',(0.,0.,1.));
#77 = DIRECTION('',(1.,0.,0.));
#78 = ORIENTED_EDGE('',*,*,#64,.F.);
#79 = ORIENTED_EDGE('',*,*,#80,.T.);
#80 = EDGE_CURVE('',#56,#81,#83,.T.);
#81 = VERTEX_POINT('',#82);
#82 = CARTESIAN_POINT('',(-17.01020514433,-25.,178.));
#83 = CIRCLE('',#84,55.);
#84 = AXIS2_PLACEMENT_3D('',#85,#86,#87);
#85 = CARTESIAN_POINT('',(-66.,0.,178.));
#86 = DIRECTION('',(0.,0.,-1.));
#87 = DIRECTION('',(1.,0.,0.));
#88 = ORIENTED_EDGE('',*,*,#89,.T.);
#89 = EDGE_CURVE('',#81,#90,#92,.T.);
#90 = VERTEX_POINT('',#91);
#91 = CARTESIAN_POINT('',(-17.01020514433,-25.,98.));
#92 = LINE('',#93,#94);
#93 = CARTESIAN_POINT('',(-17.01020514433,-25.,88.));
#94 = VECTOR('',#95,1.);
#95 = DIRECTION('',(-0.,-0.,-1.));
#96 = ORIENTED_EDGE('',*,*,#97,.F.);
#97 = EDGE_CURVE('',#31,#90,#98,.T.);
#98 = CIRCLE('',#99,55.);
#99 = AXIS2_PLACEMENT_3D('',#100,#101,#102);
#100 = CARTESIAN_POINT('',(-66.,0.,98.));
#101 = DIRECTION('',(0.,0.,-1.));
#102 = DIRECTION('',(1.,0.,0.));
#103 = ORIENTED_EDGE('',*,*,#30,.F.);
#104 = FACE_BOUND('',#105,.F.);
#105 = EDGE_LOOP('',(#106,#116,#125,#133));
#106 = ORIENTED_EDGE('',*,*,#107,.F.);
#107 = EDGE_CURVE('',#108,#110,#112,.T.);
#108 = VERTEX_POINT('',#109);
#109 = CARTESIAN_POINT('',(-101.,42.426406871193,243.));
#110 = VERTEX_POINT('',#111);
#111 = CARTESIAN_POINT('',(-101.,42.426406871193,190.));
#112 = LINE('',#113,#114);
#113 = CARTESIAN_POINT('',(-101.,42.426406871193,88.));
#114 = VECTOR('',#115,1.);
#115 = DIRECTION('',(-0.,-0.,-1.));
#116 = ORIENTED_EDGE('',*,*,#117,.T.);
#117 = EDGE_CURVE('',#108,#118,#120,.T.);
#118 = VERTEX_POINT('',#119);
#119 = CARTESIAN_POINT('',(-31.,42.426406871193,243.));
#120 = CIRCLE('',#121,55.);
#121 = AXIS2_PLACEMENT_3D('',#122,#123,#124);
#122 = CARTESIAN_POINT('',(-66.,0.,243.));
#123 = DIRECTION('',(0.,0.,-1.));
#124 = DIRECTION('',(1.,0.,0.));
#125 = ORIENTED_EDGE('',*,*,#126,.T.);
#126 = EDGE_CURVE('',#118,#127,#129,.T.);
#127 = VERTEX_POINT('',#128);
#128 = CARTESIAN_POINT('',(-31.,42.426406871193,190.));
#129 = LINE('',#130,#131);
#130 = CARTESIAN_POINT('',(-31.,42.426406871193,88.));
#131 = VECTOR('',#132,1.);
#132 = DIRECTION('',(-0.,-0.,-1.));
#133 = ORIENTED_EDGE('',*,*,#134,.F.);
#134 = EDGE_CURVE('',#110,#127,#135,.T.);
#135 = CIRCLE('',#136,55.);
#136 = AXIS2_PLACEMENT_3D('',#137,#138,#139);
#137 = CARTESIAN_POINT('',(-66.,0.,190.));
#138 = DIRECTION('',(0.,0.,-1.));
#139 = DIRECTION('',(1.,0.,0.));
#140 = FACE_BOUND('',#141,.F.);
#141 = EDGE_LOOP('',(#142,#152,#161,#258,#355));
#142 = ORIENTED_EDGE('',*,*,#143,.F.);
#143 = EDGE_CURVE('',#144,#146,#148,.T.);
#144 = VERTEX_POINT('',#145);
#145 = CARTESIAN_POINT('',(-50.,52.621288467691,177.));
#146 = VERTEX_POINT('',#147);
#147 = CARTESIAN_POINT('',(-50.,52.621288467691,171.));
#148 = LINE('',#149,#150);
#149 = CARTESIAN_POINT('',(-50.,52.621288467691,88.));
#150 = VECTOR('',#151,1.);
#151 = DIRECTION('',(-0.,-0.,-1.));
#152 = ORIENTED_EDGE('',*,*,#153,.T.);
#153 = EDGE_CURVE('',#144,#154,#156,.T.);
#154 = VERTEX_POINT('',#155);
#155 = CARTESIAN_POINT('',(-34.,44.73253849269,177.));
#156 = CIRCLE('',#157,55.);
#157 = AXIS2_PLACEMENT_3D('',#158,#159,#160);
#158 = CARTESIAN_POINT('',(-66.,0.,177.));
#159 = DIRECTION('',(0.,0.,-1.));
#160 = DIRECTION('',(1.,0.,0.));
#161 = ORIENTED_EDGE('',*,*,#162,.T.);
#162 = EDGE_CURVE('',#154,#163,#165,.T.);
#163 = VERTEX_POINT('',#164);
#164 = CARTESIAN_POINT('',(-25.,36.660605559647,174.));
#165 = B_SPLINE_CURVE_WITH_KNOTS('',6,(#166,#167,#168,#169,#170,#171,
    #172,#173,#174,#175,#176,#177,#178,#179,#180,#181,#182,#183,#184,
    #185,#186,#187,#188,#189,#190,#191,#192,#193,#194,#195,#196,#197,
    #198,#199,#200,#201,#202,#203,#204,#205,#206,#207,#208,#209,#210,
    #211,#212,#213,#214,#215,#216,#217,#218,#219,#220,#221,#222,#223,
    #224,#225,#226,#227,#228,#229,#230,#231,#232,#233,#234,#235,#236,
    #237,#238,#239,#240,#241,#242,#243,#244,#245,#246,#247,#248,#249,
    #250,#251,#252,#253,#254,#255,#256,#257),.UNSPECIFIED.,.T.,.F.,(7,5,
    5,5,5,5,5,5,5,5,5,5,5,5,5,5,5,5,7),(0.,7.301117411037E-02,
    0.126516425181,0.187449289167,0.256570154006,0.324776529103,
    0.356983899046,0.390745472729,0.442390745032,0.500151444945,
    0.539471064872,0.609693295121,0.655483628966,0.709333342193,
    0.764848553583,0.813535229053,0.873615643319,0.927504610518,1.),
  .UNSPECIFIED.);
#166 = CARTESIAN_POINT('',(-25.,36.660605559647,174.));
#167 = CARTESIAN_POINT('',(-25.,36.660605559647,173.5913461468));
#168 = CARTESIAN_POINT('',(-25.04008011557,36.705428975813,
    173.18496964893));
#169 = CARTESIAN_POINT('',(-25.11939848554,36.794140029688,
    172.78711098837));
#170 = CARTESIAN_POINT('',(-25.23547039023,36.923201222826,
    172.40384233434));
#171 = CARTESIAN_POINT('',(-25.38409458549,37.086584351456,
    172.04087499875));
#172 = CARTESIAN_POINT('',(-25.68697770032,37.415183455636,
    171.45528421181));
#173 = CARTESIAN_POINT('',(-25.82970353396,37.56887796984,
    171.21995069759));
#174 = CARTESIAN_POINT('',(-25.98565798709,37.735298721522,
    170.9973511886));
#175 = CARTESIAN_POINT('',(-26.15358104939,37.912623002226,
    170.78781766497));
#176 = CARTESIAN_POINT('',(-26.33232528254,38.099197896097,
    170.5916210521));
#177 = CARTESIAN_POINT('',(-26.73549003179,38.514845420222,
    170.2010116776));
#178 = CARTESIAN_POINT('',(-26.96297352346,38.746393383611,
    170.01046621292));
#179 = CARTESIAN_POINT('',(-27.20196712401,38.986239120921,
    169.83752695118));
#180 = CARTESIAN_POINT('',(-27.45139465846,39.232780332915,
    169.68241264959));
#181 = CARTESIAN_POINT('',(-27.71033338585,39.484662760936,
    169.54544725461));
#182 = CARTESIAN_POINT('',(-28.28149903736,40.031127736346,
    169.29288594169));
#183 = CARTESIAN_POINT('',(-28.59634628259,40.32702896547,
    169.18257510106));
#184 = CARTESIAN_POINT('',(-28.92094858295,40.626367849627,169.097071318
    ));
#185 = CARTESIAN_POINT('',(-29.25377200638,40.927287384181,
    169.03739321744));
#186 = CARTESIAN_POINT('',(-29.59315797379,41.228018241022,
    169.00471569665));
#187 = CARTESIAN_POINT('',(-30.27669635626,41.82161825413,
    168.99613019777));
#188 = CARTESIAN_POINT('',(-30.62099284997,42.114770712857,
    169.01947384466));
#189 = CARTESIAN_POINT('',(-30.96723147887,42.403644240024,
    169.07182141398));
#190 = CARTESIAN_POINT('',(-31.31233368464,42.68577223454,
    169.15419295446));
#191 = CARTESIAN_POINT('',(-31.65299877741,42.958850029701,
    169.26723712333));
#192 = CARTESIAN_POINT('',(-32.14286115952,43.344366725982,
    169.47921950545));
#193 = CARTESIAN_POINT('',(-32.29811958106,43.465443586077,
    169.55407072761));
#194 = CARTESIAN_POINT('',(-32.4510526895,43.583644087923,
    169.63575057798));
#195 = CARTESIAN_POINT('',(-32.6012041326,43.698691441178,169.7241846816
    ));
#196 = CARTESIAN_POINT('',(-32.74812605617,43.810330569465,
    169.81925412829));
#197 = CARTESIAN_POINT('',(-33.04155077307,44.031534054265,
    170.02723656516));
#198 = CARTESIAN_POINT('',(-33.1876794648,44.140729454196,
    170.14078094716));
#199 = CARTESIAN_POINT('',(-33.32923707547,44.245621214284,
    170.26121644194));
#200 = CARTESIAN_POINT('',(-33.46571898717,44.345952666993,
    170.38827328463));
#201 = CARTESIAN_POINT('',(-33.59665191987,44.441499155184,
    170.52162396242));
#202 = CARTESIAN_POINT('',(-33.91273116531,44.670604466391,
    170.87390878899));
#203 = CARTESIAN_POINT('',(-34.08978468762,44.797437246373,
    171.10067984236));
#204 = CARTESIAN_POINT('',(-34.2513288953,44.911963268214,
    171.33992291625));
#205 = CARTESIAN_POINT('',(-34.39611281253,45.013717603687,
    171.59012485107));
#206 = CARTESIAN_POINT('',(-34.52312151698,45.102367699916,
    171.84957237742));
#207 = CARTESIAN_POINT('',(-34.75299257808,45.261974723823,
    172.4148057714));
#208 = CARTESIAN_POINT('',(-34.85122800773,45.329602415721,
    172.72247232872));
#209 = CARTESIAN_POINT('',(-34.92548272063,45.380421047003,
    173.03718371847));
#210 = CARTESIAN_POINT('',(-34.97517048193,45.4143237611,173.35660933498
    ));
#211 = CARTESIAN_POINT('',(-35.,45.431266766402,173.67835128414));
#212 = CARTESIAN_POINT('',(-35.,45.431266766402,174.21895692531));
#213 = CARTESIAN_POINT('',(-34.98849375781,45.423415431195,
    174.43792974297));
#214 = CARTESIAN_POINT('',(-34.96547876703,45.407711325612,
    174.65616983694));
#215 = CARTESIAN_POINT('',(-34.93101433467,45.384162343325,
    174.87293708076));
#216 = CARTESIAN_POINT('',(-34.88522018383,45.35278662085,
    175.08750037228));
#217 = CARTESIAN_POINT('',(-34.72657483994,45.243652772392,
    175.67710921867));
#218 = CARTESIAN_POINT('',(-34.58920220978,45.148748952558,
    176.04614246811));
#219 = CARTESIAN_POINT('',(-34.41723360259,45.029110166086,
    176.40138115797));
#220 = CARTESIAN_POINT('',(-34.2127543987,44.88534133594,176.7383504488)
  );
#221 = CARTESIAN_POINT('',(-33.97866578561,44.718424344313,
    177.05315507302));
#222 = CARTESIAN_POINT('',(-33.54872190204,44.406739154013,
    177.53143133825));
#223 = CARTESIAN_POINT('',(-33.36802471646,44.274560008689,
    177.70930989676));
#224 = CARTESIAN_POINT('',(-33.17741507078,44.133708273426,
    177.87534097689));
#225 = CARTESIAN_POINT('',(-32.97810832899,43.984772421531,
    178.0287604159));
#226 = CARTESIAN_POINT('',(-32.77141351744,43.828447704587,
    178.16900096933));
#227 = CARTESIAN_POINT('',(-32.30854074569,43.473956056312,
    178.44470692601));
#228 = CARTESIAN_POINT('',(-32.05018711355,43.273367594954,
    178.57490955508));
#229 = CARTESIAN_POINT('',(-31.7855779227,43.064869193766,
    178.68594201875));
#230 = CARTESIAN_POINT('',(-31.51666846378,42.849674972507,
    178.77769746217));
#231 = CARTESIAN_POINT('',(-31.24539411285,42.629116918276,
    178.8503356713));
#232 = CARTESIAN_POINT('',(-30.69347500378,42.173230090459,
    178.95990693416));
#233 = CARTESIAN_POINT('',(-30.41274894474,41.937613030255,
    178.99567684786));
#234 = CARTESIAN_POINT('',(-30.13292119203,41.698880664682,
    179.01217255788));
#235 = CARTESIAN_POINT('',(-29.85533885759,41.458149011385,
    179.01001195335));
#236 = CARTESIAN_POINT('',(-29.58124165739,41.216560642435,
    178.98985560581));
#237 = CARTESIAN_POINT('',(-29.07544355153,40.76368182419,
    178.91956542859));
#238 = CARTESIAN_POINT('',(-28.84260360324,40.552255975361,
    178.87341431405));
#239 = CARTESIAN_POINT('',(-28.6137996872,40.341591390891,
    178.81437925504));
#240 = CARTESIAN_POINT('',(-28.38956192113,40.132304980587,
    178.74283640202));
#241 = CARTESIAN_POINT('',(-28.17040389388,39.925043749962,
    178.65911338368));
#242 = CARTESIAN_POINT('',(-27.69326596058,39.46805432423,
    178.44548830397));
#243 = CARTESIAN_POINT('',(-27.43819249535,39.219728355591,
    178.30935884069));
#244 = CARTESIAN_POINT('',(-27.19242058931,38.976658514234,
    178.15556270756));
#245 = CARTESIAN_POINT('',(-26.95684033686,38.740152184661,
    177.98440796377));
#246 = CARTESIAN_POINT('',(-26.73248934351,38.511754091326,
    177.79610379854));
#247 = CARTESIAN_POINT('',(-26.33059432482,38.097411309483,
    177.40668149971));
#248 = CARTESIAN_POINT('',(-26.1504751356,37.909379457444,
    177.20875392192));
#249 = CARTESIAN_POINT('',(-25.98136403281,37.730762989623,
    176.99727055006));
#250 = CARTESIAN_POINT('',(-25.82443963108,37.563259463138,
    176.77251160041));
#251 = CARTESIAN_POINT('',(-25.68099601089,37.408740815954,
    176.53482111108));
#252 = CARTESIAN_POINT('',(-25.37958126217,37.081621896267,
    175.94805215525));
#253 = CARTESIAN_POINT('',(-25.23265250052,36.920068120262,
    175.58682132674));
#254 = CARTESIAN_POINT('',(-25.11794898186,36.792518827823,
    175.20561212511));
#255 = CARTESIAN_POINT('',(-25.0395878251,36.704878448049,
    174.81005597433));
#256 = CARTESIAN_POINT('',(-25.,36.660605559647,174.40613649161));
#257 = CARTESIAN_POINT('',(-25.,36.660605559647,174.));
#258 = ORIENTED_EDGE('',*,*,#259,.T.);
#259 = EDGE_CURVE('',#163,#260,#262,.T.);
#260 = VERTEX_POINT('',#261);
#261 = CARTESIAN_POINT('',(-34.,44.73253849269,171.));
#262 = B_SPLINE_CURVE_WITH_KNOTS('',6,(#263,#264,#265,#266,#267,#268,
    #269,#270,#271,#272,#273,#274,#275,#276,#277,#278,#279,#280,#281,
    #282,#283,#284,#285,#286,#287,#288,#289,#290,#291,#292,#293,#294,
    #295,#296,#297,#298,#299,#300,#301,#302,#303,#304,#305,#306,#307,
    #308,#309,#310,#311,#312,#313,#314,#315,#316,#317,#318,#319,#320,
    #321,#322,#323,#324,#325,#326,#327,#328,#329,#330,#331,#332,#333,
    #334,#335,#336,#337,#338,#339,#340,#341,#342,#343,#344,#345,#346,
    #347,#348,#349,#350,#351,#352,#353,#354),.UNSPECIFIED.,.T.,.F.,(7,5,
    5,5,5,5,5,5,5,5,5,5,5,5,5,5,5,5,7),(0.,7.301117411037E-02,
    0.126516425181,0.187449289167,0.256570154006,0.324776529103,
    0.356983899046,0.390745472729,0.442390745032,0.500151444945,
    0.539471064872,0.609693295121,0.655483628966,0.709333342193,
    0.764848553583,0.813535229053,0.873615643319,0.927504610518,1.),
  .UNSPECIFIED.);
#263 = CARTESIAN_POINT('',(-25.,36.660605559647,174.));
#264 = CARTESIAN_POINT('',(-25.,36.660605559647,173.5913461468));
#265 = CARTESIAN_POINT('',(-25.04008011557,36.705428975813,
    173.18496964893));
#266 = CARTESIAN_POINT('',(-25.11939848554,36.794140029688,
    172.78711098837));
#267 = CARTESIAN_POINT('',(-25.23547039023,36.923201222826,
    172.40384233434));
#268 = CARTESIAN_POINT('',(-25.38409458549,37.086584351456,
    172.04087499875));
#269 = CARTESIAN_POINT('',(-25.68697770032,37.415183455636,
    171.45528421181));
#270 = CARTESIAN_POINT('',(-25.82970353396,37.56887796984,
    171.21995069759));
#271 = CARTESIAN_POINT('',(-25.98565798709,37.735298721522,
    170.9973511886));
#272 = CARTESIAN_POINT('',(-26.15358104939,37.912623002226,
    170.78781766497));
#273 = CARTESIAN_POINT('',(-26.33232528254,38.099197896097,
    170.5916210521));
#274 = CARTESIAN_POINT('',(-26.73549003179,38.514845420222,
    170.2010116776));
#275 = CARTESIAN_POINT('',(-26.96297352346,38.746393383611,
    170.01046621292));
#276 = CARTESIAN_POINT('',(-27.20196712401,38.986239120921,
    169.83752695118));
#277 = CARTESIAN_POINT('',(-27.45139465846,39.232780332915,
    169.68241264959));
#278 = CARTESIAN_POINT('',(-27.71033338585,39.484662760936,
    169.54544725461));
#279 = CARTESIAN_POINT('',(-28.28149903736,40.031127736346,
    169.29288594169));
#280 = CARTESIAN_POINT('',(-28.59634628259,40.32702896547,
    169.18257510106));
#281 = CARTESIAN_POINT('',(-28.92094858295,40.626367849627,169.097071318
    ));
#282 = CARTESIAN_POINT('',(-29.25377200638,40.927287384181,
    169.03739321744));
#283 = CARTESIAN_POINT('',(-29.59315797379,41.228018241022,
    169.00471569665));
#284 = CARTESIAN_POINT('',(-30.27669635626,41.82161825413,
    168.99613019777));
#285 = CARTESIAN_POINT('',(-30.62099284997,42.114770712857,
    169.01947384466));
#286 = CARTESIAN_POINT('',(-30.96723147887,42.403644240024,
    169.07182141398));
#287 = CARTESIAN_POINT('',(-31.31233368464,42.68577223454,
    169.15419295446));
#288 = CARTESIAN_POINT('',(-31.65299877741,42.958850029701,
    169.26723712333));
#289 = CARTESIAN_POINT('',(-32.14286115952,43.344366725982,
    169.47921950545));
#290 = CARTESIAN_POINT('',(-32.29811958106,43.465443586077,
    169.55407072761));
#291 = CARTESIAN_POINT('',(-32.4510526895,43.583644087923,
    169.63575057798));
#292 = CARTESIAN_POINT('',(-32.6012041326,43.698691441178,169.7241846816
    ));
#293 = CARTESIAN_POINT('',(-32.74812605617,43.810330569465,
    169.81925412829));
#294 = CARTESIAN_POINT('',(-33.04155077307,44.031534054265,
    170.02723656516));
#295 = CARTESIAN_POINT('',(-33.1876794648,44.140729454196,
    170.14078094716));
#296 = CARTESIAN_POINT('',(-33.32923707547,44.245621214284,
    170.26121644194));
#297 = CARTESIAN_POINT('',(-33.46571898717,44.345952666993,
    170.38827328463));
#298 = CARTESIAN_POINT('',(-33.59665191987,44.441499155184,
    170.52162396242));
#299 = CARTESIAN_POINT('',(-33.91273116531,44.670604466391,
    170.87390878899));
#300 = CARTESIAN_POINT('',(-34.08978468762,44.797437246373,
    171.10067984236));
#301 = CARTESIAN_POINT('',(-34.2513288953,44.911963268214,
    171.33992291625));
#302 = CARTESIAN_POINT('',(-34.39611281253,45.013717603687,
    171.59012485107));
#303 = CARTESIAN_POINT('',(-34.52312151698,45.102367699916,
    171.84957237742));
#304 = CARTESIAN_POINT('',(-34.75299257808,45.261974723823,
    172.4148057714));
#305 = CARTESIAN_POINT('',(-34.85122800773,45.329602415721,
    172.72247232872));
#306 = CARTESIAN_POINT('',(-34.92548272063,45.380421047003,
    173.03718371847));
#307 = CARTESIAN_POINT('',(-34.97517048193,45.4143237611,173.35660933498
    ));
#308 = CARTESIAN_POINT('',(-35.,45.431266766402,173.67835128414));
#309 = CARTESIAN_POINT('',(-35.,45.431266766402,174.21895692531));
#310 = CARTESIAN_POINT('',(-34.98849375781,45.423415431195,
    174.43792974297));
#311 = CARTESIAN_POINT('',(-34.96547876703,45.407711325612,
    174.65616983694));
#312 = CARTESIAN_POINT('',(-34.93101433467,45.384162343325,
    174.87293708076));
#313 = CARTESIAN_POINT('',(-34.88522018383,45.35278662085,
    175.08750037228));
#314 = CARTESIAN_POINT('',(-34.72657483994,45.243652772392,
    175.67710921867));
#315 = CARTESIAN_POINT('',(-34.58920220978,45.148748952558,
    176.04614246811));
#316 = CARTESIAN_POINT('',(-34.41723360259,45.029110166086,
    176.40138115797));
#317 = CARTESIAN_POINT('',(-34.2127543987,44.88534133594,176.7383504488)
  );
#318 = CARTESIAN_POINT('',(-33.97866578561,44.718424344313,
    177.05315507302));
#319 = CARTESIAN_POINT('',(-33.54872190204,44.406739154013,
    177.53143133825));
#320 = CARTESIAN_POINT('',(-33.36802471646,44.274560008689,
    177.70930989676));
#321 = CARTESIAN_POINT('',(-33.17741507078,44.133708273426,
    177.87534097689));
#322 = CARTESIAN_POINT('',(-32.97810832899,43.984772421531,
    178.0287604159));
#323 = CARTESIAN_POINT('',(-32.77141351744,43.828447704587,
    178.16900096933));
#324 = CARTESIAN_POINT('',(-32.30854074569,43.473956056312,
    178.44470692601));
#325 = CARTESIAN_POINT('',(-32.05018711355,43.273367594954,
    178.57490955508));
#326 = CARTESIAN_POINT('',(-31.7855779227,43.064869193766,
    178.68594201875));
#327 = CARTESIAN_POINT('',(-31.51666846378,42.849674972507,
    178.77769746217));
#328 = CARTESIAN_POINT('',(-31.24539411285,42.629116918276,
    178.8503356713));
#329 = CARTESIAN_POINT('',(-30.69347500378,42.173230090459,
    178.95990693416));
#330 = CARTESIAN_POINT('',(-30.41274894474,41.937613030255,
    178.99567684786));
#331 = CARTESIAN_POINT('',(-30.13292119203,41.698880664682,
    179.01217255788));
#332 = CARTESIAN_POINT('',(-29.85533885759,41.458149011385,
    179.01001195335));
#333 = CARTESIAN_POINT('',(-29.58124165739,41.216560642435,
    178.98985560581));
#334 = CARTESIAN_POINT('',(-29.07544355153,40.76368182419,
    178.91956542859));
#335 = CARTESIAN_POINT('',(-28.84260360324,40.552255975361,
    178.87341431405));
#336 = CARTESIAN_POINT('',(-28.6137996872,40.341591390891,
    178.81437925504));
#337 = CARTESIAN_POINT('',(-28.38956192113,40.132304980587,
    178.74283640202));
#338 = CARTESIAN_POINT('',(-28.17040389388,39.925043749962,
    178.65911338368));
#339 = CARTESIAN_POINT('',(-27.69326596058,39.46805432423,
    178.44548830397));
#340 = CARTESIAN_POINT('',(-27.43819249535,39.219728355591,
    178.30935884069));
#341 = CARTESIAN_POINT('',(-27.19242058931,38.976658514234,
    178.15556270756));
#342 = CARTESIAN_POINT('',(-26.95684033686,38.740152184661,
    177.98440796377));
#343 = CARTESIAN_POINT('',(-26.73248934351,38.511754091326,
    177.79610379854));
#344 = CARTESIAN_POINT('',(-26.33059432482,38.097411309483,
    177.40668149971));
#345 = CARTESIAN_POINT('',(-26.1504751356,37.909379457444,
    177.20875392192));
#346 = CARTESIAN_POINT('',(-25.98136403281,37.730762989623,
    176.99727055006));
#347 = CARTESIAN_POINT('',(-25.82443963108,37.563259463138,
    176.77251160041));
#348 = CARTESIAN_POINT('',(-25.68099601089,37.408740815954,
    176.53482111108));
#349 = CARTESIAN_POINT('',(-25.37958126217,37.081621896267,
    175.94805215525));
#350 = CARTESIAN_POINT('',(-25.23265250052,36.920068120262,
    175.58682132674));
#351 = CARTESIAN_POINT('',(-25.11794898186,36.792518827823,
    175.20561212511));
#352 = CARTESIAN_POINT('',(-25.0395878251,36.704878448049,
    174.81005597433));
#353 = CARTESIAN_POINT('',(-25.,36.660605559647,174.40613649161));
#354 = CARTESIAN_POINT('',(-25.,36.660605559647,174.));
#355 = ORIENTED_EDGE('',*,*,#356,.F.);
#356 = EDGE_CURVE('',#146,#260,#357,.T.);
#357 = CIRCLE('',#358,55.);
#358 = AXIS2_PLACEMENT_3D('',#359,#360,#361);
#359 = CARTESIAN_POINT('',(-66.,0.,171.));
#360 = DIRECTION('',(0.,0.,-1.));
#361 = DIRECTION('',(1.,0.,0.));
#362 = FACE_BOUND('',#363,.F.);
#363 = EDGE_LOOP('',(#364));
#364 = ORIENTED_EDGE('',*,*,#365,.T.);
#365 = EDGE_CURVE('',#366,#366,#368,.T.);
#366 = VERTEX_POINT('',#367);
#367 = CARTESIAN_POINT('',(-63.,54.918120870984,146.));
#368 = B_SPLINE_CURVE_WITH_KNOTS('',8,(#369,#370,#371,#372,#373,#374,
    #375,#376,#377,#378,#379,#380,#381,#382,#383,#384,#385,#386,#387,
    #388,#389,#390,#391,#392,#393,#394,#395,#396,#397,#398,#399,#400,
    #401,#402,#403,#404,#405,#406,#407,#408,#409,#410,#411,#412,#413,
    #414,#415,#416,#417,#418,#419),.UNSPECIFIED.,.T.,.F.,(9,7,7,7,7,7,7,
    9),(0.,0.116351962306,0.220419250619,0.395465371623,0.531226810403,
    0.666426083864,0.811941051621,1.),.UNSPECIFIED.);
#369 = CARTESIAN_POINT('',(-63.,54.918120870984,146.));
#370 = CARTESIAN_POINT('',(-63.,54.918120870984,145.75337591605));
#371 = CARTESIAN_POINT('',(-63.02317041796,54.919386589733,
    145.50693704146));
#372 = CARTESIAN_POINT('',(-63.06945285871,54.921914876239,
    145.26184887051));
#373 = CARTESIAN_POINT('',(-63.1391688652,54.925668289927,
    145.01936643313));
#374 = CARTESIAN_POINT('',(-63.2329607587,54.930572910513,144.7809706352
    ));
#375 = CARTESIAN_POINT('',(-63.35172710762,54.936504029464,
    144.54852438808));
#376 = CARTESIAN_POINT('',(-63.49654385269,54.943264836262,
    144.32446369062));
#377 = CARTESIAN_POINT('',(-63.82241834468,54.95709101186,
    143.92204220706));
#378 = CARTESIAN_POINT('',(-63.99984258525,54.964125546218,
    143.73912249117));
#379 = CARTESIAN_POINT('',(-64.20119452053,54.9714178683,143.56767182566
    ));
#380 = CARTESIAN_POINT('',(-64.42612921398,54.978626297902,
    143.4120984824));
#381 = CARTESIAN_POINT('',(-64.6736256421,54.985333072309,
    143.27681116164));
#382 = CARTESIAN_POINT('',(-64.9419847879,54.991079816216,
    143.16621877951));
#383 = CARTESIAN_POINT('',(-65.22877428534,54.995421396891,
    143.08475477581));
#384 = CARTESIAN_POINT('',(-66.03854428436,55.002331244985,
    142.95649980772));
#385 = CARTESIAN_POINT('',(-66.54429804542,55.001287089391,
    142.97836669217));
#386 = CARTESIAN_POINT('',(-67.02571744569,54.994754930403,
    143.09352298405));
#387 = CARTESIAN_POINT('',(-67.4646699527,54.983969149412,
    143.28920860804));
#388 = CARTESIAN_POINT('',(-67.8471306927,54.971105933272,
    143.54898038727));
#389 = CARTESIAN_POINT('',(-68.16385506883,54.958418193032,
    143.85295397284));
#390 = CARTESIAN_POINT('',(-68.41241664661,54.947382034857,
    144.17842820096));
#391 = CARTESIAN_POINT('',(-68.74206917439,54.931792588497,
    144.74940312791));
#392 = CARTESIAN_POINT('',(-68.85507570518,54.926016170797,
    145.00832389758));
#393 = CARTESIAN_POINT('',(-68.93846764331,54.921533311787,
    145.27357992062));
#394 = CARTESIAN_POINT('',(-68.99330603313,54.918498483035,
    145.54279158907));
#395 = CARTESIAN_POINT('',(-69.02028271024,54.9169922463,145.81407517283
    ));
#396 = CARTESIAN_POINT('',(-69.01967253082,54.917041585663,
    146.08578646389));
#397 = CARTESIAN_POINT('',(-68.99128984325,54.918625491585,
    146.35629077146));
#398 = CARTESIAN_POINT('',(-68.87783115519,54.924687544581,
    146.8900719315));
#399 = CARTESIAN_POINT('',(-68.79303848753,54.929150988975,
    147.15314342386));
#400 = CARTESIAN_POINT('',(-68.6794407529,54.934970654556,
    147.41123914196));
#401 = CARTESIAN_POINT('',(-68.53589678818,54.942003979709,
    147.66213479152));
#402 = CARTESIAN_POINT('',(-68.3609772681,54.950028405608,
    147.90280959048));
#403 = CARTESIAN_POINT('',(-68.15314266569,54.958695245894,
    148.12923519395));
#404 = CARTESIAN_POINT('',(-67.91101861903,54.967489126871,
    148.33605987656));
#405 = CARTESIAN_POINT('',(-67.33567276658,54.984588809202,
    148.70969384185));
#406 = CARTESIAN_POINT('',(-66.98606192978,54.993128835622,
    148.87929216509));
#407 = CARTESIAN_POINT('',(-66.59516401792,54.999929895609,
    149.00130278246));
#408 = CARTESIAN_POINT('',(-66.1786005643,55.003500548166,
    149.06079959286));
#409 = CARTESIAN_POINT('',(-65.7559351247,55.002857304027,
    149.05132100982));
#410 = CARTESIAN_POINT('',(-65.34724282934,54.998405609587,
    148.97492442923));
#411 = CARTESIAN_POINT('',(-64.97030263019,54.99136475091,
    148.84232169771));
#412 = CARTESIAN_POINT('',(-64.20860791048,54.972497028714,
    148.45421885327));
#413 = CARTESIAN_POINT('',(-63.84824417715,54.959735012269,
    148.17129511349));
#414 = CARTESIAN_POINT('',(-63.55680660767,54.94700288536,
    147.84755228439));
#415 = CARTESIAN_POINT('',(-63.33024099531,54.935856190409,
    147.49783485779));
#416 = CARTESIAN_POINT('',(-63.16421221142,54.927089933269,
    147.13249373857));
#417 = CARTESIAN_POINT('',(-63.05488255772,54.921119202882,
    146.75825214151));
#418 = CARTESIAN_POINT('',(-63.,54.918120870984,146.37956431552));
#419 = CARTESIAN_POINT('',(-63.,54.918120870984,146.));
#420 = FACE_BOUND('',#421,.F.);
#421 = EDGE_LOOP('',(#422,#433,#441,#450));
#422 = ORIENTED_EDGE('',*,*,#423,.T.);
#423 = EDGE_CURVE('',#424,#426,#428,.T.);
#424 = VERTEX_POINT('',#425);
#425 = CARTESIAN_POINT('',(-26.23820929585,-38.,143.8));
#426 = VERTEX_POINT('',#427);
#427 = CARTESIAN_POINT('',(-51.8,-53.13529900169,143.8));
#428 = CIRCLE('',#429,55.);
#429 = AXIS2_PLACEMENT_3D('',#430,#431,#432);
#430 = CARTESIAN_POINT('',(-66.,0.,143.8));
#431 = DIRECTION('',(0.,0.,-1.));
#432 = DIRECTION('',(1.,0.,0.));
#433 = ORIENTED_EDGE('',*,*,#434,.T.);
#434 = EDGE_CURVE('',#426,#435,#437,.T.);
#435 = VERTEX_POINT('',#436);
#436 = CARTESIAN_POINT('',(-51.8,-53.13529900169,117.8));
#437 = LINE('',#438,#439);
#438 = CARTESIAN_POINT('',(-51.8,-53.13529900169,88.));
#439 = VECTOR('',#440,1.);
#440 = DIRECTION('',(-0.,-0.,-1.));
#441 = ORIENTED_EDGE('',*,*,#442,.F.);
#442 = EDGE_CURVE('',#443,#435,#445,.T.);
#443 = VERTEX_POINT('',#444);
#444 = CARTESIAN_POINT('',(-26.23820929585,-38.,117.8));
#445 = CIRCLE('',#446,55.);
#446 = AXIS2_PLACEMENT_3D('',#447,#448,#449);
#447 = CARTESIAN_POINT('',(-66.,0.,117.8));
#448 = DIRECTION('',(0.,0.,-1.));
#449 = DIRECTION('',(1.,0.,0.));
#450 = ORIENTED_EDGE('',*,*,#451,.F.);
#451 = EDGE_CURVE('',#424,#443,#452,.T.);
#452 = LINE('',#453,#454);
#453 = CARTESIAN_POINT('',(-26.23820929585,-38.,88.));
#454 = VECTOR('',#455,1.);
#455 = DIRECTION('',(-0.,-0.,-1.));
#456 = CYLINDRICAL_SURFACE('',#457,55.);
#457 = AXIS2_PLACEMENT_3D('',#458,#459,#460);
#458 = CARTESIAN_POINT('',(-66.,0.,88.));
#459 = DIRECTION('',(-0.,-0.,-1.));
#460 = DIRECTION('',(1.,0.,0.));
#461 = ADVANCED_FACE('',(#462,#465),#476,.F.);
#462 = FACE_BOUND('',#463,.F.);
#463 = EDGE_LOOP('',(#464));
#464 = ORIENTED_EDGE('',*,*,#21,.T.);
#465 = FACE_BOUND('',#466,.F.);
#466 = EDGE_LOOP('',(#467));
#467 = ORIENTED_EDGE('',*,*,#468,.T.);
#468 = EDGE_CURVE('',#469,#469,#471,.T.);
#469 = VERTEX_POINT('',#470);
#470 = CARTESIAN_POINT('',(-14.,-1.3E-14,88.));
#471 = CIRCLE('',#472,52.);
#472 = AXIS2_PLACEMENT_3D('',#473,#474,#475);
#473 = CARTESIAN_POINT('',(-66.,0.,88.));
#474 = DIRECTION('',(0.,0.,-1.));
#475 = DIRECTION('',(1.,0.,0.));
#476 = PLANE('',#477);
#477 = AXIS2_PLACEMENT_3D('',#478,#479,#480);
#478 = CARTESIAN_POINT('',(-66.,0.,88.));
#479 = DIRECTION('',(0.,0.,1.));
#480 = DIRECTION('',(1.,0.,0.));
#481 = ADVANCED_FACE('',(#482),#518,.T.);
#482 = FACE_BOUND('',#483,.T.);
#483 = EDGE_LOOP('',(#484,#492,#501,#510,#516,#517));
#484 = ORIENTED_EDGE('',*,*,#485,.F.);
#485 = EDGE_CURVE('',#486,#39,#488,.T.);
#486 = VERTEX_POINT('',#487);
#487 = CARTESIAN_POINT('',(-20.40394753928,25.,98.));
#488 = LINE('',#489,#490);
#489 = CARTESIAN_POINT('',(-30.,25.,98.));
#490 = VECTOR('',#491,1.);
#491 = DIRECTION('',(1.,0.,0.));
#492 = ORIENTED_EDGE('',*,*,#493,.T.);
#493 = EDGE_CURVE('',#486,#494,#496,.T.);
#494 = VERTEX_POINT('',#495);
#495 = CARTESIAN_POINT('',(-14.,-1.3E-14,98.));
#496 = CIRCLE('',#497,52.);
#497 = AXIS2_PLACEMENT_3D('',#498,#499,#500);
#498 = CARTESIAN_POINT('',(-66.,0.,98.));
#499 = DIRECTION('',(0.,0.,-1.));
#500 = DIRECTION('',(1.,0.,0.));
#501 = ORIENTED_EDGE('',*,*,#502,.T.);
#502 = EDGE_CURVE('',#494,#503,#505,.T.);
#503 = VERTEX_POINT('',#504);
#504 = CARTESIAN_POINT('',(-20.40394753928,-25.,98.));
#505 = CIRCLE('',#506,52.);
#506 = AXIS2_PLACEMENT_3D('',#507,#508,#509);
#507 = CARTESIAN_POINT('',(-66.,0.,98.));
#508 = DIRECTION('',(0.,0.,-1.));
#509 = DIRECTION('',(1.,0.,0.));
#510 = ORIENTED_EDGE('',*,*,#511,.T.);
#511 = EDGE_CURVE('',#503,#90,#512,.T.);
#512 = LINE('',#513,#514);
#513 = CARTESIAN_POINT('',(-30.,-25.,98.));
#514 = VECTOR('',#515,1.);
#515 = DIRECTION('',(1.,0.,0.));
#516 = ORIENTED_EDGE('',*,*,#97,.F.);
#517 = ORIENTED_EDGE('',*,*,#38,.F.);
#518 = PLANE('',#519);
#519 = AXIS2_PLACEMENT_3D('',#520,#521,#522);
#520 = CARTESIAN_POINT('',(-30.,-25.,98.));
#521 = DIRECTION('',(0.,0.,1.));
#522 = DIRECTION('',(1.,0.,0.));
#523 = ADVANCED_FACE('',(#524),#542,.T.);
#524 = FACE_BOUND('',#525,.T.);
#525 = EDGE_LOOP('',(#526,#527,#535,#541));
#526 = ORIENTED_EDGE('',*,*,#511,.F.);
#527 = ORIENTED_EDGE('',*,*,#528,.F.);
#528 = EDGE_CURVE('',#529,#503,#531,.T.);
#529 = VERTEX_POINT('',#530);
#530 = CARTESIAN_POINT('',(-20.40394753928,-25.,178.));
#531 = LINE('',#532,#533);
#532 = CARTESIAN_POINT('',(-20.40394753928,-25.,87.));
#533 = VECTOR('',#534,1.);
#534 = DIRECTION('',(-0.,-0.,-1.));
#535 = ORIENTED_EDGE('',*,*,#536,.T.);
#536 = EDGE_CURVE('',#529,#81,#537,.T.);
#537 = LINE('',#538,#539);
#538 = CARTESIAN_POINT('',(-30.,-25.,178.));
#539 = VECTOR('',#540,1.);
#540 = DIRECTION('',(1.,0.,0.));
#541 = ORIENTED_EDGE('',*,*,#89,.T.);
#542 = PLANE('',#543);
#543 = AXIS2_PLACEMENT_3D('',#544,#545,#546);
#544 = CARTESIAN_POINT('',(-30.,-25.,98.));
#545 = DIRECTION('',(0.,1.,0.));
#546 = DIRECTION('',(0.,0.,1.));
#547 = ADVANCED_FACE('',(#548),#577,.F.);
#548 = FACE_BOUND('',#549,.F.);
#549 = EDGE_LOOP('',(#550,#558,#567,#574,#575,#576));
#550 = ORIENTED_EDGE('',*,*,#551,.F.);
#551 = EDGE_CURVE('',#552,#48,#554,.T.);
#552 = VERTEX_POINT('',#553);
#553 = CARTESIAN_POINT('',(-20.40394753928,25.,178.));
#554 = LINE('',#555,#556);
#555 = CARTESIAN_POINT('',(-30.,25.,178.));
#556 = VECTOR('',#557,1.);
#557 = DIRECTION('',(1.,0.,0.));
#558 = ORIENTED_EDGE('',*,*,#559,.T.);
#559 = EDGE_CURVE('',#552,#560,#562,.T.);
#560 = VERTEX_POINT('',#561);
#561 = CARTESIAN_POINT('',(-14.,-1.3E-14,178.));
#562 = CIRCLE('',#563,52.);
#563 = AXIS2_PLACEMENT_3D('',#564,#565,#566);
#564 = CARTESIAN_POINT('',(-66.,0.,178.));
#565 = DIRECTION('',(0.,0.,-1.));
#566 = DIRECTION('',(1.,0.,0.));
#567 = ORIENTED_EDGE('',*,*,#568,.T.);
#568 = EDGE_CURVE('',#560,#529,#569,.T.);
#569 = CIRCLE('',#570,52.);
#570 = AXIS2_PLACEMENT_3D('',#571,#572,#573);
#571 = CARTESIAN_POINT('',(-66.,0.,178.));
#572 = DIRECTION('',(0.,0.,-1.));
#573 = DIRECTION('',(1.,0.,0.));
#574 = ORIENTED_EDGE('',*,*,#536,.T.);
#575 = ORIENTED_EDGE('',*,*,#80,.F.);
#576 = ORIENTED_EDGE('',*,*,#55,.F.);
#577 = PLANE('',#578);
#578 = AXIS2_PLACEMENT_3D('',#579,#580,#581);
#579 = CARTESIAN_POINT('',(-30.,-25.,178.));
#580 = DIRECTION('',(0.,0.,1.));
#581 = DIRECTION('',(1.,0.,0.));
#582 = ADVANCED_FACE('',(#583,#586),#597,.T.);
#583 = FACE_BOUND('',#584,.T.);
#584 = EDGE_LOOP('',(#585));
#585 = ORIENTED_EDGE('',*,*,#72,.T.);
#586 = FACE_BOUND('',#587,.T.);
#587 = EDGE_LOOP('',(#588));
#588 = ORIENTED_EDGE('',*,*,#589,.T.);
#589 = EDGE_CURVE('',#590,#590,#592,.T.);
#590 = VERTEX_POINT('',#591);
#591 = CARTESIAN_POINT('',(-14.,-1.3E-14,254.));
#592 = CIRCLE('',#593,52.);
#593 = AXIS2_PLACEMENT_3D('',#594,#595,#596);
#594 = CARTESIAN_POINT('',(-66.,0.,254.));
#595 = DIRECTION('',(0.,0.,-1.));
#596 = DIRECTION('',(1.,0.,0.));
#597 = PLANE('',#598);
#598 = AXIS2_PLACEMENT_3D('',#599,#600,#601);
#599 = CARTESIAN_POINT('',(-66.,0.,254.));
#600 = DIRECTION('',(0.,0.,1.));
#601 = DIRECTION('',(1.,0.,0.));
#602 = ADVANCED_FACE('',(#603),#614,.F.);
#603 = FACE_BOUND('',#604,.F.);
#604 = EDGE_LOOP('',(#605,#606,#612,#613));
#605 = ORIENTED_EDGE('',*,*,#485,.F.);
#606 = ORIENTED_EDGE('',*,*,#607,.F.);
#607 = EDGE_CURVE('',#552,#486,#608,.T.);
#608 = LINE('',#609,#610);
#609 = CARTESIAN_POINT('',(-20.40394753928,25.,87.));
#610 = VECTOR('',#611,1.);
#611 = DIRECTION('',(-0.,-0.,-1.));
#612 = ORIENTED_EDGE('',*,*,#551,.T.);
#613 = ORIENTED_EDGE('',*,*,#47,.T.);
#614 = PLANE('',#615);
#615 = AXIS2_PLACEMENT_3D('',#616,#617,#618);
#616 = CARTESIAN_POINT('',(-30.,25.,98.));
#617 = DIRECTION('',(0.,1.,0.));
#618 = DIRECTION('',(0.,0.,1.));
#619 = ADVANCED_FACE('',(#620),#645,.T.);
#620 = FACE_BOUND('',#621,.T.);
#621 = EDGE_LOOP('',(#622,#630,#638,#644));
#622 = ORIENTED_EDGE('',*,*,#623,.F.);
#623 = EDGE_CURVE('',#624,#108,#626,.T.);
#624 = VERTEX_POINT('',#625);
#625 = CARTESIAN_POINT('',(-101.,38.457769046059,243.));
#626 = LINE('',#627,#628);
#627 = CARTESIAN_POINT('',(-101.,35.,243.));
#628 = VECTOR('',#629,1.);
#629 = DIRECTION('',(0.,1.,0.));
#630 = ORIENTED_EDGE('',*,*,#631,.T.);
#631 = EDGE_CURVE('',#624,#632,#634,.T.);
#632 = VERTEX_POINT('',#633);
#633 = CARTESIAN_POINT('',(-101.,38.457769046059,190.));
#634 = LINE('',#635,#636);
#635 = CARTESIAN_POINT('',(-101.,38.457769046059,87.));
#636 = VECTOR('',#637,1.);
#637 = DIRECTION('',(-0.,-0.,-1.));
#638 = ORIENTED_EDGE('',*,*,#639,.T.);
#639 = EDGE_CURVE('',#632,#110,#640,.T.);
#640 = LINE('',#641,#642);
#641 = CARTESIAN_POINT('',(-101.,35.,190.));
#642 = VECTOR('',#643,1.);
#643 = DIRECTION('',(0.,1.,0.));
#644 = ORIENTED_EDGE('',*,*,#107,.F.);
#645 = PLANE('',#646);
#646 = AXIS2_PLACEMENT_3D('',#647,#648,#649);
#647 = CARTESIAN_POINT('',(-101.,35.,190.));
#648 = DIRECTION('',(1.,0.,0.));
#649 = DIRECTION('',(0.,0.,1.));
#650 = ADVANCED_FACE('',(#651),#670,.T.);
#651 = FACE_BOUND('',#652,.T.);
#652 = EDGE_LOOP('',(#653,#654,#663,#669));
#653 = ORIENTED_EDGE('',*,*,#639,.F.);
#654 = ORIENTED_EDGE('',*,*,#655,.T.);
#655 = EDGE_CURVE('',#632,#656,#658,.T.);
#656 = VERTEX_POINT('',#657);
#657 = CARTESIAN_POINT('',(-31.,38.457769046059,190.));
#658 = CIRCLE('',#659,52.);
#659 = AXIS2_PLACEMENT_3D('',#660,#661,#662);
#660 = CARTESIAN_POINT('',(-66.,0.,190.));
#661 = DIRECTION('',(0.,0.,-1.));
#662 = DIRECTION('',(1.,0.,0.));
#663 = ORIENTED_EDGE('',*,*,#664,.T.);
#664 = EDGE_CURVE('',#656,#127,#665,.T.);
#665 = LINE('',#666,#667);
#666 = CARTESIAN_POINT('',(-31.,35.,190.));
#667 = VECTOR('',#668,1.);
#668 = DIRECTION('',(0.,1.,0.));
#669 = ORIENTED_EDGE('',*,*,#134,.F.);
#670 = PLANE('',#671);
#671 = AXIS2_PLACEMENT_3D('',#672,#673,#674);
#672 = CARTESIAN_POINT('',(-101.,35.,190.));
#673 = DIRECTION('',(0.,0.,1.));
#674 = DIRECTION('',(1.,0.,0.));
#675 = ADVANCED_FACE('',(#676),#694,.F.);
#676 = FACE_BOUND('',#677,.F.);
#677 = EDGE_LOOP('',(#678,#686,#692,#693));
#678 = ORIENTED_EDGE('',*,*,#679,.F.);
#679 = EDGE_CURVE('',#680,#118,#682,.T.);
#680 = VERTEX_POINT('',#681);
#681 = CARTESIAN_POINT('',(-31.,38.457769046059,243.));
#682 = LINE('',#683,#684);
#683 = CARTESIAN_POINT('',(-31.,35.,243.));
#684 = VECTOR('',#685,1.);
#685 = DIRECTION('',(0.,1.,0.));
#686 = ORIENTED_EDGE('',*,*,#687,.T.);
#687 = EDGE_CURVE('',#680,#656,#688,.T.);
#688 = LINE('',#689,#690);
#689 = CARTESIAN_POINT('',(-31.,38.457769046059,87.));
#690 = VECTOR('',#691,1.);
#691 = DIRECTION('',(-0.,-0.,-1.));
#692 = ORIENTED_EDGE('',*,*,#664,.T.);
#693 = ORIENTED_EDGE('',*,*,#126,.F.);
#694 = PLANE('',#695);
#695 = AXIS2_PLACEMENT_3D('',#696,#697,#698);
#696 = CARTESIAN_POINT('',(-31.,35.,190.));
#697 = DIRECTION('',(1.,0.,0.));
#698 = DIRECTION('',(0.,0.,1.));
#699 = ADVANCED_FACE('',(#700),#712,.F.);
#700 = FACE_BOUND('',#701,.F.);
#701 = EDGE_LOOP('',(#702,#703,#710,#711));
#702 = ORIENTED_EDGE('',*,*,#623,.F.);
#703 = ORIENTED_EDGE('',*,*,#704,.T.);
#704 = EDGE_CURVE('',#624,#680,#705,.T.);
#705 = CIRCLE('',#706,52.);
#706 = AXIS2_PLACEMENT_3D('',#707,#708,#709);
#707 = CARTESIAN_POINT('',(-66.,0.,243.));
#708 = DIRECTION('',(0.,0.,-1.));
#709 = DIRECTION('',(1.,0.,0.));
#710 = ORIENTED_EDGE('',*,*,#679,.T.);
#711 = ORIENTED_EDGE('',*,*,#117,.F.);
#712 = PLANE('',#713);
#713 = AXIS2_PLACEMENT_3D('',#714,#715,#716);
#714 = CARTESIAN_POINT('',(-101.,35.,243.));
#715 = DIRECTION('',(0.,0.,1.));
#716 = DIRECTION('',(1.,0.,0.));
#717 = ADVANCED_FACE('',(#718),#743,.T.);
#718 = FACE_BOUND('',#719,.T.);
#719 = EDGE_LOOP('',(#720,#728,#736,#742));
#720 = ORIENTED_EDGE('',*,*,#721,.F.);
#721 = EDGE_CURVE('',#722,#144,#724,.T.);
#722 = VERTEX_POINT('',#723);
#723 = CARTESIAN_POINT('',(-50.,49.477267507412,177.));
#724 = LINE('',#725,#726);
#725 = CARTESIAN_POINT('',(-50.,40.,177.));
#726 = VECTOR('',#727,1.);
#727 = DIRECTION('',(0.,1.,0.));
#728 = ORIENTED_EDGE('',*,*,#729,.T.);
#729 = EDGE_CURVE('',#722,#730,#732,.T.);
#730 = VERTEX_POINT('',#731);
#731 = CARTESIAN_POINT('',(-50.,49.477267507412,171.));
#732 = LINE('',#733,#734);
#733 = CARTESIAN_POINT('',(-50.,49.477267507412,87.));
#734 = VECTOR('',#735,1.);
#735 = DIRECTION('',(-0.,-0.,-1.));
#736 = ORIENTED_EDGE('',*,*,#737,.T.);
#737 = EDGE_CURVE('',#730,#146,#738,.T.);
#738 = LINE('',#739,#740);
#739 = CARTESIAN_POINT('',(-50.,40.,171.));
#740 = VECTOR('',#741,1.);
#741 = DIRECTION('',(0.,1.,0.));
#742 = ORIENTED_EDGE('',*,*,#143,.F.);
#743 = PLANE('',#744);
#744 = AXIS2_PLACEMENT_3D('',#745,#746,#747);
#745 = CARTESIAN_POINT('',(-50.,40.,171.));
#746 = DIRECTION('',(1.,0.,0.));
#747 = DIRECTION('',(0.,0.,1.));
#748 = ADVANCED_FACE('',(#749),#768,.T.);
#749 = FACE_BOUND('',#750,.T.);
#750 = EDGE_LOOP('',(#751,#752,#753,#762));
#751 = ORIENTED_EDGE('',*,*,#356,.F.);
#752 = ORIENTED_EDGE('',*,*,#737,.F.);
#753 = ORIENTED_EDGE('',*,*,#754,.T.);
#754 = EDGE_CURVE('',#730,#755,#757,.T.);
#755 = VERTEX_POINT('',#756);
#756 = CARTESIAN_POINT('',(-34.,40.987803063838,171.));
#757 = CIRCLE('',#758,52.);
#758 = AXIS2_PLACEMENT_3D('',#759,#760,#761);
#759 = CARTESIAN_POINT('',(-66.,0.,171.));
#760 = DIRECTION('',(0.,0.,-1.));
#761 = DIRECTION('',(1.,0.,0.));
#762 = ORIENTED_EDGE('',*,*,#763,.F.);
#763 = EDGE_CURVE('',#260,#755,#764,.T.);
#764 = LINE('',#765,#766);
#765 = CARTESIAN_POINT('',(-34.,33.,171.));
#766 = VECTOR('',#767,1.);
#767 = DIRECTION('',(0.,-1.,2.2E-16));
#768 = PLANE('',#769);
#769 = AXIS2_PLACEMENT_3D('',#770,#771,#772);
#770 = CARTESIAN_POINT('',(-50.,40.,171.));
#771 = DIRECTION('',(0.,0.,1.));
#772 = DIRECTION('',(1.,0.,0.));
#773 = ADVANCED_FACE('',(#774),#793,.F.);
#774 = FACE_BOUND('',#775,.F.);
#775 = EDGE_LOOP('',(#776,#777,#778,#787));
#776 = ORIENTED_EDGE('',*,*,#153,.F.);
#777 = ORIENTED_EDGE('',*,*,#721,.F.);
#778 = ORIENTED_EDGE('',*,*,#779,.T.);
#779 = EDGE_CURVE('',#722,#780,#782,.T.);
#780 = VERTEX_POINT('',#781);
#781 = CARTESIAN_POINT('',(-34.,40.987803063838,177.));
#782 = CIRCLE('',#783,52.);
#783 = AXIS2_PLACEMENT_3D('',#784,#785,#786);
#784 = CARTESIAN_POINT('',(-66.,0.,177.));
#785 = DIRECTION('',(0.,0.,-1.));
#786 = DIRECTION('',(1.,0.,0.));
#787 = ORIENTED_EDGE('',*,*,#788,.F.);
#788 = EDGE_CURVE('',#154,#780,#789,.T.);
#789 = LINE('',#790,#791);
#790 = CARTESIAN_POINT('',(-34.,33.,177.));
#791 = VECTOR('',#792,1.);
#792 = DIRECTION('',(0.,-1.,2.2E-16));
#793 = PLANE('',#794);
#794 = AXIS2_PLACEMENT_3D('',#795,#796,#797);
#795 = CARTESIAN_POINT('',(-50.,40.,177.));
#796 = DIRECTION('',(0.,0.,1.));
#797 = DIRECTION('',(1.,0.,0.));
#798 = ADVANCED_FACE('',(#799),#865,.F.);
#799 = FACE_BOUND('',#800,.T.);
#800 = EDGE_LOOP('',(#801,#857,#863,#864));
#801 = ORIENTED_EDGE('',*,*,#802,.F.);
#802 = EDGE_CURVE('',#803,#803,#805,.T.);
#803 = VERTEX_POINT('',#804);
#804 = CARTESIAN_POINT('',(-63.,51.91338940967,146.));
#805 = B_SPLINE_CURVE_WITH_KNOTS('',8,(#806,#807,#808,#809,#810,#811,
    #812,#813,#814,#815,#816,#817,#818,#819,#820,#821,#822,#823,#824,
    #825,#826,#827,#828,#829,#830,#831,#832,#833,#834,#835,#836,#837,
    #838,#839,#840,#841,#842,#843,#844,#845,#846,#847,#848,#849,#850,
    #851,#852,#853,#854,#855,#856),.UNSPECIFIED.,.T.,.F.,(9,7,7,7,7,7,7,
    9),(0.,0.116347873397,0.220415034842,0.395464484789,0.53122441103,
    0.666426958335,0.8119421807,1.),.UNSPECIFIED.);
#806 = CARTESIAN_POINT('',(-63.,51.91338940967,146.));
#807 = CARTESIAN_POINT('',(-63.,51.91338940967,145.75337067772));
#808 = CARTESIAN_POINT('',(-63.02317140239,51.91472844477,
    145.50692657563));
#809 = CARTESIAN_POINT('',(-63.06945580651,51.917403181049,
    145.26183424997));
#810 = CARTESIAN_POINT('',(-63.13917426525,51.921373957625,
    145.01934968364));
#811 = CARTESIAN_POINT('',(-63.23296820891,51.926562472837,
    144.78095440621));
#812 = CARTESIAN_POINT('',(-63.35173508306,51.932836681466,
    144.54851147711));
#813 = CARTESIAN_POINT('',(-63.49654967651,51.939988297606,
    144.3244564988));
#814 = CARTESIAN_POINT('',(-63.8224183551,51.95461343907,143.9220421942)
  );
#815 = CARTESIAN_POINT('',(-63.9998408174,51.96205441541,143.73912467841
    ));
#816 = CARTESIAN_POINT('',(-64.20118946715,51.969767894088,
    143.56767660912));
#817 = CARTESIAN_POINT('',(-64.42612019107,51.977392491891,
    143.41210491885));
#818 = CARTESIAN_POINT('',(-64.67361330309,51.984486405449,
    143.27681750935));
#819 = CARTESIAN_POINT('',(-64.94197154888,51.99056488767,
    143.16622320048));
#820 = CARTESIAN_POINT('',(-65.22876454709,51.995157142466,
    143.0847563182));
#821 = CARTESIAN_POINT('',(-66.03857094202,52.002465995718,
    142.95649558557));
#822 = CARTESIAN_POINT('',(-66.54433333371,52.001361030905,
    142.97837180494));
#823 = CARTESIAN_POINT('',(-67.02574692409,51.994451557051,
    143.09353596274));
#824 = CARTESIAN_POINT('',(-67.46468800295,51.983043716193,
    143.28922268229));
#825 = CARTESIAN_POINT('',(-67.84713853733,51.969438069926,
    143.54898997369));
#826 = CARTESIAN_POINT('',(-68.16385679418,51.956017424966,
    143.8529574387));
#827 = CARTESIAN_POINT('',(-68.41241622785,51.944343328557,
    144.17842747565));
#828 = CARTESIAN_POINT('',(-68.74206515661,51.927852481863,
    144.74939616891));
#829 = CARTESIAN_POINT('',(-68.85507120101,51.921741926592,
    145.00831256931));
#830 = CARTESIAN_POINT('',(-68.93846463512,51.91699956019,145.2735673669
    ));
#831 = CARTESIAN_POINT('',(-68.99330499694,51.913788944115,
    145.54278064549));
#832 = CARTESIAN_POINT('',(-69.02028302371,51.912195432086,
    145.81406767868));
#833 = CARTESIAN_POINT('',(-69.01967313411,51.912247620153,
    146.08578285047));
#834 = CARTESIAN_POINT('',(-68.99129000441,51.913923238741,
    146.35629001328));
#835 = CARTESIAN_POINT('',(-68.87782899311,51.920336243607,
    146.8900821033));
#836 = CARTESIAN_POINT('',(-68.79303276573,51.9250581666,147.1531599648)
  );
#837 = CARTESIAN_POINT('',(-68.67943129644,51.931214726028,
    147.41125831488));
#838 = CARTESIAN_POINT('',(-68.53588452139,51.938654977749,
    147.66215325013));
#839 = CARTESIAN_POINT('',(-68.36096404941,51.947143356817,
    147.90282471877));
#840 = CARTESIAN_POINT('',(-68.15313100998,51.956310939953,
    148.12924536357));
#841 = CARTESIAN_POINT('',(-67.91101135152,51.965612598309,
    148.33606459614));
#842 = CARTESIAN_POINT('',(-67.33568728839,51.983699064132,
    148.70968441128));
#843 = CARTESIAN_POINT('',(-66.98607952683,51.992732145055,
    148.8792863363));
#844 = CARTESIAN_POINT('',(-66.59517757604,51.999925880077,
    149.00130211021));
#845 = CARTESIAN_POINT('',(-66.17860688267,52.003702535373,
    149.0608015118));
#846 = CARTESIAN_POINT('',(-65.75593385984,52.003022263134,
    149.05132302165));
#847 = CARTESIAN_POINT('',(-65.34723550549,51.998313641172,
    148.97492364981));
#848 = CARTESIAN_POINT('',(-64.97029439328,51.990866339912,
    148.84231750079));
#849 = CARTESIAN_POINT('',(-64.20862188506,51.970909950384,
    148.45422597367));
#850 = CARTESIAN_POINT('',(-63.84826638628,51.957411356674,
    148.17131289163));
#851 = CARTESIAN_POINT('',(-63.55683044213,51.943943701049,
    147.84758053772));
#852 = CARTESIAN_POINT('',(-63.33026049013,51.932152197711,
    147.49786974963));
#853 = CARTESIAN_POINT('',(-63.16422408453,51.922878286718,
    147.13252867306));
#854 = CARTESIAN_POINT('',(-63.05488693574,51.916561536725,
    146.75827995857));
#855 = CARTESIAN_POINT('',(-63.,51.91338940967,146.37957945611));
#856 = CARTESIAN_POINT('',(-63.,51.91338940967,146.));
#857 = ORIENTED_EDGE('',*,*,#858,.T.);
#858 = EDGE_CURVE('',#803,#366,#859,.T.);
#859 = LINE('',#860,#861);
#860 = CARTESIAN_POINT('',(-63.,40.,146.));
#861 = VECTOR('',#862,1.);
#862 = DIRECTION('',(0.,1.,0.));
#863 = ORIENTED_EDGE('',*,*,#365,.T.);
#864 = ORIENTED_EDGE('',*,*,#858,.F.);
#865 = CYLINDRICAL_SURFACE('',#866,3.);
#866 = AXIS2_PLACEMENT_3D('',#867,#868,#869);
#867 = CARTESIAN_POINT('',(-66.,40.,146.));
#868 = DIRECTION('',(-0.,-1.,0.));
#869 = DIRECTION('',(1.,0.,0.));
#870 = ADVANCED_FACE('',(#871),#897,.F.);
#871 = FACE_BOUND('',#872,.F.);
#872 = EDGE_LOOP('',(#873,#881,#882,#890));
#873 = ORIENTED_EDGE('',*,*,#874,.F.);
#874 = EDGE_CURVE('',#426,#875,#877,.T.);
#875 = VERTEX_POINT('',#876);
#876 = CARTESIAN_POINT('',(-51.8,-50.02359443302,143.8));
#877 = LINE('',#878,#879);
#878 = CARTESIAN_POINT('',(-51.8,-56.,143.8));
#879 = VECTOR('',#880,1.);
#880 = DIRECTION('',(0.,1.,0.));
#881 = ORIENTED_EDGE('',*,*,#423,.F.);
#882 = ORIENTED_EDGE('',*,*,#883,.F.);
#883 = EDGE_CURVE('',#884,#424,#886,.T.);
#884 = VERTEX_POINT('',#885);
#885 = CARTESIAN_POINT('',(-30.5035213014,-38.,143.8));
#886 = LINE('',#887,#888);
#887 = CARTESIAN_POINT('',(-51.8,-38.,143.8));
#888 = VECTOR('',#889,1.);
#889 = DIRECTION('',(1.,0.,0.));
#890 = ORIENTED_EDGE('',*,*,#891,.T.);
#891 = EDGE_CURVE('',#884,#875,#892,.T.);
#892 = CIRCLE('',#893,52.);
#893 = AXIS2_PLACEMENT_3D('',#894,#895,#896);
#894 = CARTESIAN_POINT('',(-66.,0.,143.8));
#895 = DIRECTION('',(0.,0.,-1.));
#896 = DIRECTION('',(1.,0.,0.));
#897 = PLANE('',#898);
#898 = AXIS2_PLACEMENT_3D('',#899,#900,#901);
#899 = CARTESIAN_POINT('',(-51.8,-56.,143.8));
#900 = DIRECTION('',(0.,0.,1.));
#901 = DIRECTION('',(1.,0.,0.));
#902 = ADVANCED_FACE('',(#903),#921,.F.);
#903 = FACE_BOUND('',#904,.F.);
#904 = EDGE_LOOP('',(#905,#913,#919,#920));
#905 = ORIENTED_EDGE('',*,*,#906,.F.);
#906 = EDGE_CURVE('',#907,#443,#909,.T.);
#907 = VERTEX_POINT('',#908);
#908 = CARTESIAN_POINT('',(-30.5035213014,-38.,117.8));
#909 = LINE('',#910,#911);
#910 = CARTESIAN_POINT('',(-51.8,-38.,117.8));
#911 = VECTOR('',#912,1.);
#912 = DIRECTION('',(1.,0.,0.));
#913 = ORIENTED_EDGE('',*,*,#914,.F.);
#914 = EDGE_CURVE('',#884,#907,#915,.T.);
#915 = LINE('',#916,#917);
#916 = CARTESIAN_POINT('',(-30.5035213014,-38.,87.));
#917 = VECTOR('',#918,1.);
#918 = DIRECTION('',(-0.,-0.,-1.));
#919 = ORIENTED_EDGE('',*,*,#883,.T.);
#920 = ORIENTED_EDGE('',*,*,#451,.T.);
#921 = PLANE('',#922);
#922 = AXIS2_PLACEMENT_3D('',#923,#924,#925);
#923 = CARTESIAN_POINT('',(-51.8,-38.,117.8));
#924 = DIRECTION('',(0.,1.,0.));
#925 = DIRECTION('',(0.,0.,1.));
#926 = ADVANCED_FACE('',(#927),#946,.T.);
#927 = FACE_BOUND('',#928,.T.);
#928 = EDGE_LOOP('',(#929,#937,#938,#939));
#929 = ORIENTED_EDGE('',*,*,#930,.F.);
#930 = EDGE_CURVE('',#435,#931,#933,.T.);
#931 = VERTEX_POINT('',#932);
#932 = CARTESIAN_POINT('',(-51.8,-50.02359443302,117.8));
#933 = LINE('',#934,#935);
#934 = CARTESIAN_POINT('',(-51.8,-56.,117.8));
#935 = VECTOR('',#936,1.);
#936 = DIRECTION('',(0.,1.,0.));
#937 = ORIENTED_EDGE('',*,*,#442,.F.);
#938 = ORIENTED_EDGE('',*,*,#906,.F.);
#939 = ORIENTED_EDGE('',*,*,#940,.T.);
#940 = EDGE_CURVE('',#907,#931,#941,.T.);
#941 = CIRCLE('',#942,52.);
#942 = AXIS2_PLACEMENT_3D('',#943,#944,#945);
#943 = CARTESIAN_POINT('',(-66.,0.,117.8));
#944 = DIRECTION('',(0.,0.,-1.));
#945 = DIRECTION('',(1.,0.,0.));
#946 = PLANE('',#947);
#947 = AXIS2_PLACEMENT_3D('',#948,#949,#950);
#948 = CARTESIAN_POINT('',(-51.8,-56.,117.8));
#949 = DIRECTION('',(0.,0.,1.));
#950 = DIRECTION('',(1.,0.,0.));
#951 = ADVANCED_FACE('',(#952),#963,.T.);
#952 = FACE_BOUND('',#953,.T.);
#953 = EDGE_LOOP('',(#954,#955,#956,#957));
#954 = ORIENTED_EDGE('',*,*,#874,.F.);
#955 = ORIENTED_EDGE('',*,*,#434,.T.);
#956 = ORIENTED_EDGE('',*,*,#930,.T.);
#957 = ORIENTED_EDGE('',*,*,#958,.F.);
#958 = EDGE_CURVE('',#875,#931,#959,.T.);
#959 = LINE('',#960,#961);
#960 = CARTESIAN_POINT('',(-51.8,-50.02359443302,87.));
#961 = VECTOR('',#962,1.);
#962 = DIRECTION('',(-0.,-0.,-1.));
#963 = PLANE('',#964);
#964 = AXIS2_PLACEMENT_3D('',#965,#966,#967);
#965 = CARTESIAN_POINT('',(-51.8,-56.,117.8));
#966 = DIRECTION('',(1.,0.,0.));
#967 = DIRECTION('',(0.,0.,1.));
#968 = ADVANCED_FACE('',(#969,#993,#999,#1224,#1227),#1233,.F.);
#969 = FACE_BOUND('',#970,.T.);
#970 = EDGE_LOOP('',(#971,#977,#978,#979,#980,#981,#982,#988,#989,#990,
    #991,#992));
#971 = ORIENTED_EDGE('',*,*,#972,.F.);
#972 = EDGE_CURVE('',#469,#494,#973,.T.);
#973 = LINE('',#974,#975);
#974 = CARTESIAN_POINT('',(-14.,-1.274E-14,87.));
#975 = VECTOR('',#976,1.);
#976 = DIRECTION('',(0.,0.,1.));
#977 = ORIENTED_EDGE('',*,*,#468,.T.);
#978 = ORIENTED_EDGE('',*,*,#972,.T.);
#979 = ORIENTED_EDGE('',*,*,#493,.F.);
#980 = ORIENTED_EDGE('',*,*,#607,.F.);
#981 = ORIENTED_EDGE('',*,*,#559,.T.);
#982 = ORIENTED_EDGE('',*,*,#983,.T.);
#983 = EDGE_CURVE('',#560,#590,#984,.T.);
#984 = LINE('',#985,#986);
#985 = CARTESIAN_POINT('',(-14.,-1.274E-14,87.));
#986 = VECTOR('',#987,1.);
#987 = DIRECTION('',(0.,0.,1.));
#988 = ORIENTED_EDGE('',*,*,#589,.F.);
#989 = ORIENTED_EDGE('',*,*,#983,.F.);
#990 = ORIENTED_EDGE('',*,*,#568,.T.);
#991 = ORIENTED_EDGE('',*,*,#528,.T.);
#992 = ORIENTED_EDGE('',*,*,#502,.F.);
#993 = FACE_BOUND('',#994,.T.);
#994 = EDGE_LOOP('',(#995,#996,#997,#998));
#995 = ORIENTED_EDGE('',*,*,#631,.F.);
#996 = ORIENTED_EDGE('',*,*,#704,.T.);
#997 = ORIENTED_EDGE('',*,*,#687,.T.);
#998 = ORIENTED_EDGE('',*,*,#655,.F.);
#999 = FACE_BOUND('',#1000,.T.);
#1000 = EDGE_LOOP('',(#1001,#1002,#1003,#1110,#1118,#1223));
#1001 = ORIENTED_EDGE('',*,*,#729,.F.);
#1002 = ORIENTED_EDGE('',*,*,#779,.T.);
#1003 = ORIENTED_EDGE('',*,*,#1004,.T.);
#1004 = EDGE_CURVE('',#780,#1005,#1007,.T.);
#1005 = VERTEX_POINT('',#1006);
#1006 = CARTESIAN_POINT('',(-25.81293740518,33.,176.73285689838));
#1007 = B_SPLINE_CURVE_WITH_KNOTS('',6,(#1008,#1009,#1010,#1011,#1012,
    #1013,#1014,#1015,#1016,#1017,#1018,#1019,#1020,#1021,#1022,#1023,
    #1024,#1025,#1026,#1027,#1028,#1029,#1030,#1031,#1032,#1033,#1034,
    #1035,#1036,#1037,#1038,#1039,#1040,#1041,#1042,#1043,#1044,#1045,
    #1046,#1047,#1048,#1049,#1050,#1051,#1052,#1053,#1054,#1055,#1056,
    #1057,#1058,#1059,#1060,#1061,#1062,#1063,#1064,#1065,#1066,#1067,
    #1068,#1069,#1070,#1071,#1072,#1073,#1074,#1075,#1076,#1077,#1078,
    #1079,#1080,#1081,#1082,#1083,#1084,#1085,#1086,#1087,#1088,#1089,
    #1090,#1091,#1092,#1093,#1094,#1095,#1096,#1097,#1098,#1099,#1100,
    #1101,#1102,#1103,#1104,#1105,#1106,#1107,#1108,#1109),
  .UNSPECIFIED.,.F.,.F.,(7,5,5,5,5,5,5,5,5,5,5,5,5,5,5,5,5,5,5,5,7),(0.,
    3.346892411109E-02,5.736374125457E-02,0.124176485285,0.220712683256,
    0.267556989789,0.313206379247,0.35957539155,0.412549961859,
    0.452509456653,0.500000160439,0.547741985346,0.587541512058,
    0.639957536218,0.687604016885,0.7317473378,0.77896603348,
    0.875890129417,0.940869876658,0.965336764029,1.),.UNSPECIFIED.);
#1008 = CARTESIAN_POINT('',(-25.8125328142,32.999507287091,
    171.26776308349));
#1009 = CARTESIAN_POINT('',(-25.88931100445,33.093009319544,
    171.15009168014));
#1010 = CARTESIAN_POINT('',(-25.96931071054,33.189902283436,
    171.03615333248));
#1011 = CARTESIAN_POINT('',(-26.05233594416,33.289870530903,
    170.92593264565));
#1012 = CARTESIAN_POINT('',(-26.13820975994,33.392627604139,
    170.81941185683));
#1013 = CARTESIAN_POINT('',(-26.22677425538,33.497916235392,
    170.71657083523));
#1014 = CARTESIAN_POINT('',(-26.38294218987,33.682322702386,
    170.54657579351));
#1015 = CARTESIAN_POINT('',(-26.44929637129,33.760313317699,
    170.47762665059));
#1016 = CARTESIAN_POINT('',(-26.51690453541,33.839399471916,
    170.41052989686));
#1017 = CARTESIAN_POINT('',(-26.58572222361,33.919506715418,
    170.34527674945));
#1018 = CARTESIAN_POINT('',(-26.65570909844,34.000566869959,
    170.28185939913));
#1019 = CARTESIAN_POINT('',(-26.92568846952,34.311663192517,
    170.04806256723));
#1020 = CARTESIAN_POINT('',(-27.13344824152,34.547822852787,
    169.89011685466));
#1021 = CARTESIAN_POINT('',(-27.34926532322,34.789580579825,
    169.74634652383));
#1022 = CARTESIAN_POINT('',(-27.57249381437,35.035832298416,
    169.6167320214));
#1023 = CARTESIAN_POINT('',(-27.80262570845,35.28569758135,
    169.50136660284));
#1024 = CARTESIAN_POINT('',(-28.38109838104,35.903599567462,
    169.25476345433));
#1025 = CARTESIAN_POINT('',(-28.73664700456,36.274933807947,
    169.13922611881));
#1026 = CARTESIAN_POINT('',(-29.10399606908,36.649545997012,
    169.05496188295));
#1027 = CARTESIAN_POINT('',(-29.48129324219,37.024916761351,
    169.00343022015));
#1028 = CARTESIAN_POINT('',(-29.86646638173,37.3986185908,
    168.98651947479));
#1029 = CARTESIAN_POINT('',(-30.44631361345,37.947376944295,
    169.01634791871));
#1030 = CARTESIAN_POINT('',(-30.63692821178,38.125610325247,
    169.03480102964));
#1031 = CARTESIAN_POINT('',(-30.82827993286,38.302375138877,
    169.0622161532));
#1032 = CARTESIAN_POINT('',(-31.01990257283,38.477259743376,
    169.0988334204));
#1033 = CARTESIAN_POINT('',(-31.2112974425,38.64985619388,
    169.14487884456));
#1034 = CARTESIAN_POINT('',(-31.58770650015,38.985330333245,
    169.25482935813));
#1035 = CARTESIAN_POINT('',(-31.772767934,39.148351939743,
    169.31825170784));
#1036 = CARTESIAN_POINT('',(-31.95648402747,39.308324323853,
    169.39098816364));
#1037 = CARTESIAN_POINT('',(-32.13820257569,39.464770916808,
    169.47314012433));
#1038 = CARTESIAN_POINT('',(-32.31725569829,39.617237780263,
    169.56475333494));
#1039 = CARTESIAN_POINT('',(-32.67143962442,39.915680301294,169.76847511
    ));
#1040 = CARTESIAN_POINT('',(-32.84645608083,40.061508983817,
    169.88087951412));
#1041 = CARTESIAN_POINT('',(-33.01716563956,40.202212120217,
    170.00294094831));
#1042 = CARTESIAN_POINT('',(-33.18273792502,40.337279336492,
    170.1344698749));
#1043 = CARTESIAN_POINT('',(-33.34236816026,40.466250921272,
    170.27517679006));
#1044 = CARTESIAN_POINT('',(-33.66998941561,40.72862029022,
    170.59546353872));
#1045 = CARTESIAN_POINT('',(-33.83589480047,40.860001446604,
    170.7776889709));
#1046 = CARTESIAN_POINT('',(-33.99181411036,40.982207083588,
    170.97070979254));
#1047 = CARTESIAN_POINT('',(-34.13664971469,41.094691935055,
    171.17370353267));
#1048 = CARTESIAN_POINT('',(-34.26943099815,41.197012033968,
    171.38568130446));
#1049 = CARTESIAN_POINT('',(-34.47980714831,41.358075645539,
    171.77132202944));
#1050 = CARTESIAN_POINT('',(-34.56294570858,41.421349143167,
    171.94160345086));
#1051 = CARTESIAN_POINT('',(-34.63843904723,41.478509694243,
    172.11589657117));
#1052 = CARTESIAN_POINT('',(-34.70600647541,41.529450648198,
    172.29371662575));
#1053 = CARTESIAN_POINT('',(-34.7654171933,41.574089416066,
    172.47454763249));
#1054 = CARTESIAN_POINT('',(-34.87719721214,41.657855211716,
    172.87568379043));
#1055 = CARTESIAN_POINT('',(-34.92613232543,41.694360194188,
    173.09701745925));
#1056 = CARTESIAN_POINT('',(-34.96302063854,41.721793474909,
    173.32099467988));
#1057 = CARTESIAN_POINT('',(-34.98767448038,41.740099329826,
    173.54674607308));
#1058 = CARTESIAN_POINT('',(-35.,41.749251490296,173.77338323966));
#1059 = CARTESIAN_POINT('',(-35.,41.749251490296,174.22781506337));
#1060 = CARTESIAN_POINT('',(-34.98754378008,41.740002277472,
    174.45565102498));
#1061 = CARTESIAN_POINT('',(-34.9626284581,41.721502276523,
    174.68258699829));
#1062 = CARTESIAN_POINT('',(-34.92534991647,41.693778326796,
    174.90772035008));
#1063 = CARTESIAN_POINT('',(-34.87589987559,41.656887387618,
    175.13016798273));
#1064 = CARTESIAN_POINT('',(-34.76343002615,41.572596495808,
    175.5315512532));
#1065 = CARTESIAN_POINT('',(-34.7040340291,41.527964185256,
    175.71157734613));
#1066 = CARTESIAN_POINT('',(-34.63655111903,41.477081656833,
    175.88860587164));
#1067 = CARTESIAN_POINT('',(-34.56121013723,41.420030901843,
    176.06212722958));
#1068 = CARTESIAN_POINT('',(-34.47828902076,41.356917632876,
    176.23166263445));
#1069 = CARTESIAN_POINT('',(-34.2693469019,41.196941967152,
    176.61420386845));
#1070 = CARTESIAN_POINT('',(-34.13799560166,41.095723074603,
    176.82395427243));
#1071 = CARTESIAN_POINT('',(-33.99484055202,40.984551741071,
    177.02491407297));
#1072 = CARTESIAN_POINT('',(-33.84082118259,40.863857655908,
    177.21612437364));
#1073 = CARTESIAN_POINT('',(-33.67699889355,40.734167574315,
    177.39678580644));
#1074 = CARTESIAN_POINT('',(-33.34774109003,40.470610548215,
    177.72034228906));
#1075 = CARTESIAN_POINT('',(-33.18384069478,40.338223084814,
    177.86514641648));
#1076 = CARTESIAN_POINT('',(-33.01365510281,40.199392707578,
    178.00026213518));
#1077 = CARTESIAN_POINT('',(-32.83805697499,40.054617476078,
    178.12537548798));
#1078 = CARTESIAN_POINT('',(-32.65794728683,39.904451805847,
    178.24028377808));
#1079 = CARTESIAN_POINT('',(-32.30404812487,39.605964197471,
    178.44181522618));
#1080 = CARTESIAN_POINT('',(-32.13076907421,39.458319697522,
    178.52989614395));
#1081 = CARTESIAN_POINT('',(-31.95502206634,39.306970979951,
    178.60913178923));
#1082 = CARTESIAN_POINT('',(-31.7774105759,39.152328874168,
    178.6795647913));
#1083 = CARTESIAN_POINT('',(-31.59852432255,38.9948239646,178.7412863819
    ));
#1084 = CARTESIAN_POINT('',(-31.22683786234,38.663850784643,
    178.85128880792));
#1085 = CARTESIAN_POINT('',(-31.03393161951,38.490030178161,
    178.89833528595));
#1086 = CARTESIAN_POINT('',(-30.84076550103,38.313861401149,
    178.93579074647));
#1087 = CARTESIAN_POINT('',(-30.64785327417,38.135763680589,
    178.96388547804));
#1088 = CARTESIAN_POINT('',(-30.45567508246,37.956160137271,
    178.9828649216));
#1089 = CARTESIAN_POINT('',(-29.87262355703,37.404597707139,
    179.01377237359));
#1090 = CARTESIAN_POINT('',(-29.48580087472,37.029413968626,
    178.99723275528));
#1091 = CARTESIAN_POINT('',(-29.10689471525,36.652521324685,
    178.94577522338));
#1092 = CARTESIAN_POINT('',(-28.73800627764,36.276378471718,
    178.86131276718));
#1093 = CARTESIAN_POINT('',(-28.381013078,35.903537533597,
    178.74532423218));
#1094 = CARTESIAN_POINT('',(-27.80774063122,35.291141544598,
    178.50073029825));
#1095 = CARTESIAN_POINT('',(-27.58378162805,35.048070551758,
    178.3888476415));
#1096 = CARTESIAN_POINT('',(-27.36634273026,34.808400820609,
    178.26348039054));
#1097 = CARTESIAN_POINT('',(-27.15589112511,34.572941176635,
    178.12471892245));
#1098 = CARTESIAN_POINT('',(-26.95301522635,34.342697741621,
    177.97255184949));
#1099 = CARTESIAN_POINT('',(-26.68522623261,34.034703272371,
    177.74453342959));
#1100 = CARTESIAN_POINT('',(-26.6131528863,33.951370625103,
    177.68024646352));
#1101 = CARTESIAN_POINT('',(-26.54229424246,33.869018164431,
    177.61403686564));
#1102 = CARTESIAN_POINT('',(-26.47269280233,33.787717849795,
    177.54589652044));
#1103 = CARTESIAN_POINT('',(-26.40439548795,33.707548385174,
    177.47581614155));
#1104 = CARTESIAN_POINT('',(-26.24261440232,33.51673905261,
    177.30173620446));
#1105 = CARTESIAN_POINT('',(-26.15049205803,33.407319868785,
    177.19576821571));
#1106 = CARTESIAN_POINT('',(-26.06123815226,33.300587234928,
    177.08585591372));
#1107 = CARTESIAN_POINT('',(-25.97502629014,33.196824193334,
    176.97197637853));
#1108 = CARTESIAN_POINT('',(-25.89205203663,33.096347403955,
    176.85410926679));
#1109 = CARTESIAN_POINT('',(-25.8125328142,32.999507287091,
    176.7322369165));
#1110 = ORIENTED_EDGE('',*,*,#1111,.T.);
#1111 = EDGE_CURVE('',#1005,#1112,#1114,.T.);
#1112 = VERTEX_POINT('',#1113);
#1113 = CARTESIAN_POINT('',(-25.81293740518,33.,171.26714310161));
#1114 = LINE('',#1115,#1116);
#1115 = CARTESIAN_POINT('',(-25.81293740518,33.,87.));
#1116 = VECTOR('',#1117,1.);
#1117 = DIRECTION('',(-0.,-0.,-1.));
#1118 = ORIENTED_EDGE('',*,*,#1119,.T.);
#1119 = EDGE_CURVE('',#1112,#755,#1120,.T.);
#1120 = B_SPLINE_CURVE_WITH_KNOTS('',6,(#1121,#1122,#1123,#1124,#1125,
    #1126,#1127,#1128,#1129,#1130,#1131,#1132,#1133,#1134,#1135,#1136,
    #1137,#1138,#1139,#1140,#1141,#1142,#1143,#1144,#1145,#1146,#1147,
    #1148,#1149,#1150,#1151,#1152,#1153,#1154,#1155,#1156,#1157,#1158,
    #1159,#1160,#1161,#1162,#1163,#1164,#1165,#1166,#1167,#1168,#1169,
    #1170,#1171,#1172,#1173,#1174,#1175,#1176,#1177,#1178,#1179,#1180,
    #1181,#1182,#1183,#1184,#1185,#1186,#1187,#1188,#1189,#1190,#1191,
    #1192,#1193,#1194,#1195,#1196,#1197,#1198,#1199,#1200,#1201,#1202,
    #1203,#1204,#1205,#1206,#1207,#1208,#1209,#1210,#1211,#1212,#1213,
    #1214,#1215,#1216,#1217,#1218,#1219,#1220,#1221,#1222),
  .UNSPECIFIED.,.F.,.F.,(7,5,5,5,5,5,5,5,5,5,5,5,5,5,5,5,5,5,5,5,7),(0.,
    3.346892411109E-02,5.736374125457E-02,0.124176485285,0.220712683256,
    0.267556989789,0.313206379247,0.35957539155,0.412549961859,
    0.452509456653,0.500000160439,0.547741985346,0.587541512058,
    0.639957536218,0.687604016885,0.7317473378,0.77896603348,
    0.875890129417,0.940869876658,0.965336764029,1.),.UNSPECIFIED.);
#1121 = CARTESIAN_POINT('',(-25.8125328142,32.999507287091,
    171.26776308349));
#1122 = CARTESIAN_POINT('',(-25.88931100445,33.093009319544,
    171.15009168014));
#1123 = CARTESIAN_POINT('',(-25.96931071054,33.189902283436,
    171.03615333248));
#1124 = CARTESIAN_POINT('',(-26.05233594416,33.289870530903,
    170.92593264565));
#1125 = CARTESIAN_POINT('',(-26.13820975994,33.392627604139,
    170.81941185683));
#1126 = CARTESIAN_POINT('',(-26.22677425538,33.497916235392,
    170.71657083523));
#1127 = CARTESIAN_POINT('',(-26.38294218987,33.682322702386,
    170.54657579351));
#1128 = CARTESIAN_POINT('',(-26.44929637129,33.760313317699,
    170.47762665059));
#1129 = CARTESIAN_POINT('',(-26.51690453541,33.839399471916,
    170.41052989686));
#1130 = CARTESIAN_POINT('',(-26.58572222361,33.919506715418,
    170.34527674945));
#1131 = CARTESIAN_POINT('',(-26.65570909844,34.000566869959,
    170.28185939913));
#1132 = CARTESIAN_POINT('',(-26.92568846952,34.311663192517,
    170.04806256723));
#1133 = CARTESIAN_POINT('',(-27.13344824152,34.547822852787,
    169.89011685466));
#1134 = CARTESIAN_POINT('',(-27.34926532322,34.789580579825,
    169.74634652383));
#1135 = CARTESIAN_POINT('',(-27.57249381437,35.035832298416,
    169.6167320214));
#1136 = CARTESIAN_POINT('',(-27.80262570845,35.28569758135,
    169.50136660284));
#1137 = CARTESIAN_POINT('',(-28.38109838104,35.903599567462,
    169.25476345433));
#1138 = CARTESIAN_POINT('',(-28.73664700456,36.274933807947,
    169.13922611881));
#1139 = CARTESIAN_POINT('',(-29.10399606908,36.649545997012,
    169.05496188295));
#1140 = CARTESIAN_POINT('',(-29.48129324219,37.024916761351,
    169.00343022015));
#1141 = CARTESIAN_POINT('',(-29.86646638173,37.3986185908,
    168.98651947479));
#1142 = CARTESIAN_POINT('',(-30.44631361345,37.947376944295,
    169.01634791871));
#1143 = CARTESIAN_POINT('',(-30.63692821178,38.125610325247,
    169.03480102964));
#1144 = CARTESIAN_POINT('',(-30.82827993286,38.302375138877,
    169.0622161532));
#1145 = CARTESIAN_POINT('',(-31.01990257283,38.477259743376,
    169.0988334204));
#1146 = CARTESIAN_POINT('',(-31.2112974425,38.64985619388,
    169.14487884456));
#1147 = CARTESIAN_POINT('',(-31.58770650015,38.985330333245,
    169.25482935813));
#1148 = CARTESIAN_POINT('',(-31.772767934,39.148351939743,
    169.31825170784));
#1149 = CARTESIAN_POINT('',(-31.95648402747,39.308324323853,
    169.39098816364));
#1150 = CARTESIAN_POINT('',(-32.13820257569,39.464770916808,
    169.47314012433));
#1151 = CARTESIAN_POINT('',(-32.31725569829,39.617237780263,
    169.56475333494));
#1152 = CARTESIAN_POINT('',(-32.67143962442,39.915680301294,169.76847511
    ));
#1153 = CARTESIAN_POINT('',(-32.84645608083,40.061508983817,
    169.88087951412));
#1154 = CARTESIAN_POINT('',(-33.01716563956,40.202212120217,
    170.00294094831));
#1155 = CARTESIAN_POINT('',(-33.18273792502,40.337279336492,
    170.1344698749));
#1156 = CARTESIAN_POINT('',(-33.34236816026,40.466250921272,
    170.27517679006));
#1157 = CARTESIAN_POINT('',(-33.66998941561,40.72862029022,
    170.59546353872));
#1158 = CARTESIAN_POINT('',(-33.83589480047,40.860001446604,
    170.7776889709));
#1159 = CARTESIAN_POINT('',(-33.99181411036,40.982207083588,
    170.97070979254));
#1160 = CARTESIAN_POINT('',(-34.13664971469,41.094691935055,
    171.17370353267));
#1161 = CARTESIAN_POINT('',(-34.26943099815,41.197012033968,
    171.38568130446));
#1162 = CARTESIAN_POINT('',(-34.47980714831,41.358075645539,
    171.77132202944));
#1163 = CARTESIAN_POINT('',(-34.56294570858,41.421349143167,
    171.94160345086));
#1164 = CARTESIAN_POINT('',(-34.63843904723,41.478509694243,
    172.11589657117));
#1165 = CARTESIAN_POINT('',(-34.70600647541,41.529450648198,
    172.29371662575));
#1166 = CARTESIAN_POINT('',(-34.7654171933,41.574089416066,
    172.47454763249));
#1167 = CARTESIAN_POINT('',(-34.87719721214,41.657855211716,
    172.87568379043));
#1168 = CARTESIAN_POINT('',(-34.92613232543,41.694360194188,
    173.09701745925));
#1169 = CARTESIAN_POINT('',(-34.96302063854,41.721793474909,
    173.32099467988));
#1170 = CARTESIAN_POINT('',(-34.98767448038,41.740099329826,
    173.54674607308));
#1171 = CARTESIAN_POINT('',(-35.,41.749251490296,173.77338323966));
#1172 = CARTESIAN_POINT('',(-35.,41.749251490296,174.22781506337));
#1173 = CARTESIAN_POINT('',(-34.98754378008,41.740002277472,
    174.45565102498));
#1174 = CARTESIAN_POINT('',(-34.9626284581,41.721502276523,
    174.68258699829));
#1175 = CARTESIAN_POINT('',(-34.92534991647,41.693778326796,
    174.90772035008));
#1176 = CARTESIAN_POINT('',(-34.87589987559,41.656887387618,
    175.13016798273));
#1177 = CARTESIAN_POINT('',(-34.76343002615,41.572596495808,
    175.5315512532));
#1178 = CARTESIAN_POINT('',(-34.7040340291,41.527964185256,
    175.71157734613));
#1179 = CARTESIAN_POINT('',(-34.63655111903,41.477081656833,
    175.88860587164));
#1180 = CARTESIAN_POINT('',(-34.56121013723,41.420030901843,
    176.06212722958));
#1181 = CARTESIAN_POINT('',(-34.47828902076,41.356917632876,
    176.23166263445));
#1182 = CARTESIAN_POINT('',(-34.2693469019,41.196941967152,
    176.61420386845));
#1183 = CARTESIAN_POINT('',(-34.13799560166,41.095723074603,
    176.82395427243));
#1184 = CARTESIAN_POINT('',(-33.99484055202,40.984551741071,
    177.02491407297));
#1185 = CARTESIAN_POINT('',(-33.84082118259,40.863857655908,
    177.21612437364));
#1186 = CARTESIAN_POINT('',(-33.67699889355,40.734167574315,
    177.39678580644));
#1187 = CARTESIAN_POINT('',(-33.34774109003,40.470610548215,
    177.72034228906));
#1188 = CARTESIAN_POINT('',(-33.18384069478,40.338223084814,
    177.86514641648));
#1189 = CARTESIAN_POINT('',(-33.01365510281,40.199392707578,
    178.00026213518));
#1190 = CARTESIAN_POINT('',(-32.83805697499,40.054617476078,
    178.12537548798));
#1191 = CARTESIAN_POINT('',(-32.65794728683,39.904451805847,
    178.24028377808));
#1192 = CARTESIAN_POINT('',(-32.30404812487,39.605964197471,
    178.44181522618));
#1193 = CARTESIAN_POINT('',(-32.13076907421,39.458319697522,
    178.52989614395));
#1194 = CARTESIAN_POINT('',(-31.95502206634,39.306970979951,
    178.60913178923));
#1195 = CARTESIAN_POINT('',(-31.7774105759,39.152328874168,
    178.6795647913));
#1196 = CARTESIAN_POINT('',(-31.59852432255,38.9948239646,178.7412863819
    ));
#1197 = CARTESIAN_POINT('',(-31.22683786234,38.663850784643,
    178.85128880792));
#1198 = CARTESIAN_POINT('',(-31.03393161951,38.490030178161,
    178.89833528595));
#1199 = CARTESIAN_POINT('',(-30.84076550103,38.313861401149,
    178.93579074647));
#1200 = CARTESIAN_POINT('',(-30.64785327417,38.135763680589,
    178.96388547804));
#1201 = CARTESIAN_POINT('',(-30.45567508246,37.956160137271,
    178.9828649216));
#1202 = CARTESIAN_POINT('',(-29.87262355703,37.404597707139,
    179.01377237359));
#1203 = CARTESIAN_POINT('',(-29.48580087472,37.029413968626,
    178.99723275528));
#1204 = CARTESIAN_POINT('',(-29.10689471525,36.652521324685,
    178.94577522338));
#1205 = CARTESIAN_POINT('',(-28.73800627764,36.276378471718,
    178.86131276718));
#1206 = CARTESIAN_POINT('',(-28.381013078,35.903537533597,
    178.74532423218));
#1207 = CARTESIAN_POINT('',(-27.80774063122,35.291141544598,
    178.50073029825));
#1208 = CARTESIAN_POINT('',(-27.58378162805,35.048070551758,
    178.3888476415));
#1209 = CARTESIAN_POINT('',(-27.36634273026,34.808400820609,
    178.26348039054));
#1210 = CARTESIAN_POINT('',(-27.15589112511,34.572941176635,
    178.12471892245));
#1211 = CARTESIAN_POINT('',(-26.95301522635,34.342697741621,
    177.97255184949));
#1212 = CARTESIAN_POINT('',(-26.68522623261,34.034703272371,
    177.74453342959));
#1213 = CARTESIAN_POINT('',(-26.6131528863,33.951370625103,
    177.68024646352));
#1214 = CARTESIAN_POINT('',(-26.54229424246,33.869018164431,
    177.61403686564));
#1215 = CARTESIAN_POINT('',(-26.47269280233,33.787717849795,
    177.54589652044));
#1216 = CARTESIAN_POINT('',(-26.40439548795,33.707548385174,
    177.47581614155));
#1217 = CARTESIAN_POINT('',(-26.24261440232,33.51673905261,
    177.30173620446));
#1218 = CARTESIAN_POINT('',(-26.15049205803,33.407319868785,
    177.19576821571));
#1219 = CARTESIAN_POINT('',(-26.06123815226,33.300587234928,
    177.08585591372));
#1220 = CARTESIAN_POINT('',(-25.97502629014,33.196824193334,
    176.97197637853));
#1221 = CARTESIAN_POINT('',(-25.89205203663,33.096347403955,
    176.85410926679));
#1222 = CARTESIAN_POINT('',(-25.8125328142,32.999507287091,
    176.7322369165));
#1223 = ORIENTED_EDGE('',*,*,#754,.F.);
#1224 = FACE_BOUND('',#1225,.T.);
#1225 = EDGE_LOOP('',(#1226));
#1226 = ORIENTED_EDGE('',*,*,#802,.T.);
#1227 = FACE_BOUND('',#1228,.T.);
#1228 = EDGE_LOOP('',(#1229,#1230,#1231,#1232));
#1229 = ORIENTED_EDGE('',*,*,#891,.T.);
#1230 = ORIENTED_EDGE('',*,*,#958,.T.);
#1231 = ORIENTED_EDGE('',*,*,#940,.F.);
#1232 = ORIENTED_EDGE('',*,*,#914,.F.);
#1233 = CYLINDRICAL_SURFACE('',#1234,52.);
#1234 = AXIS2_PLACEMENT_3D('',#1235,#1236,#1237);
#1235 = CARTESIAN_POINT('',(-66.,0.,87.));
#1236 = DIRECTION('',(-0.,-0.,-1.));
#1237 = DIRECTION('',(1.,0.,0.));
#1238 = ADVANCED_FACE('',(#1239),#1258,.T.);
#1239 = FACE_BOUND('',#1240,.T.);
#1240 = EDGE_LOOP('',(#1241,#1250,#1257));
#1241 = ORIENTED_EDGE('',*,*,#1242,.T.);
#1242 = EDGE_CURVE('',#1005,#1243,#1245,.T.);
#1243 = VERTEX_POINT('',#1244);
#1244 = CARTESIAN_POINT('',(-25.,33.,174.));
#1245 = CIRCLE('',#1246,5.);
#1246 = AXIS2_PLACEMENT_3D('',#1247,#1248,#1249);
#1247 = CARTESIAN_POINT('',(-30.,33.,174.));
#1248 = DIRECTION('',(-0.,1.,0.));
#1249 = DIRECTION('',(1.,0.,0.));
#1250 = ORIENTED_EDGE('',*,*,#1251,.T.);
#1251 = EDGE_CURVE('',#1243,#1112,#1252,.T.);
#1252 = CIRCLE('',#1253,5.);
#1253 = AXIS2_PLACEMENT_3D('',#1254,#1255,#1256);
#1254 = CARTESIAN_POINT('',(-30.,33.,174.));
#1255 = DIRECTION('',(-0.,1.,0.));
#1256 = DIRECTION('',(1.,0.,0.));
#1257 = ORIENTED_EDGE('',*,*,#1111,.F.);
#1258 = PLANE('',#1259);
#1259 = AXIS2_PLACEMENT_3D('',#1260,#1261,#1262);
#1260 = CARTESIAN_POINT('',(-30.,33.,174.));
#1261 = DIRECTION('',(0.,1.,0.));
#1262 = DIRECTION('',(1.,0.,0.));
#1263 = ADVANCED_FACE('',(#1264),#1274,.F.);
#1264 = FACE_BOUND('',#1265,.T.);
#1265 = EDGE_LOOP('',(#1266,#1267,#1268,#1269,#1270,#1271,#1272,#1273));
#1266 = ORIENTED_EDGE('',*,*,#1242,.F.);
#1267 = ORIENTED_EDGE('',*,*,#1004,.F.);
#1268 = ORIENTED_EDGE('',*,*,#788,.F.);
#1269 = ORIENTED_EDGE('',*,*,#162,.T.);
#1270 = ORIENTED_EDGE('',*,*,#259,.T.);
#1271 = ORIENTED_EDGE('',*,*,#763,.T.);
#1272 = ORIENTED_EDGE('',*,*,#1119,.F.);
#1273 = ORIENTED_EDGE('',*,*,#1251,.F.);
#1274 = CYLINDRICAL_SURFACE('',#1275,5.);
#1275 = AXIS2_PLACEMENT_3D('',#1276,#1277,#1278);
#1276 = CARTESIAN_POINT('',(-30.,33.,174.));
#1277 = DIRECTION('',(0.,-1.,2.2E-16));
#1278 = DIRECTION('',(1.,0.,0.));
#1279 = ( GEOMETRIC_REPRESENTATION_CONTEXT(3) 
GLOBAL_UNCERTAINTY_ASSIGNED_CONTEXT((#1283)) 
GLOBAL_UNIT_ASSIGNED_CONTEXT((#1280,#1281,#1282)) REPRESENTATION_CONTEXT
('Context #1','3D Context with UNIT and UNCERTAINTY') );
#1280 = ( LENGTH_UNIT() NAMED_UNIT(*) SI_UNIT(.MILLI.,.METRE.) );
#1281 = ( NAMED_UNIT(*) PLANE_ANGLE_UNIT() SI_UNIT($,.RADIAN.) );
#1282 = ( NAMED_UNIT(*) SI_UNIT($,.STERADIAN.) SOLID_ANGLE_UNIT() );
#1283 = UNCERTAINTY_MEASURE_WITH_UNIT(LENGTH_MEASURE(1.E-07),#1280,
  'distance_accuracy_value','confusion accuracy');
#1284 = PRODUCT_RELATED_PRODUCT_CATEGORY('part',$,(#7));
ENDSEC;
END-ISO-10303-21;
