ISO-10303-21;
HEADER;
FILE_DESCRIPTION(('FreeCAD Model'),'2;1');
FILE_NAME('Open CASCADE Shape Model','2026-09-28T13:06:05',('Author'),(
    ''),'Open CASCADE STEP processor 7.8','FreeCAD','Unknown');
FILE_SCHEMA(('AUTOMOTIVE_DESIGN { 1 0 10303 214 1 1 1 1 }'));
ENDSEC;
DATA;
#1 = APPLICATION_PROTOCOL_DEFINITION('international standard',
  'automotive_design',2000,#2);
#2 = APPLICATION_CONTEXT(
  'core data for automotive mechanical design processes');
#3 = SHAPE_DEFINITION_REPRESENTATION(#4,#10);
#4 = PRODUCT_DEFINITION_SHAPE('','',#5);
#5 = PRODUCT_DEFINITION('design','',#6,#9);
#6 = PRODUCT_DEFINITION_FORMATION('','',#7);
#7 = PRODUCT('FEED_MOTOR','FEED_MOTOR','',(#8));
#8 = PRODUCT_CONTEXT('',#2,'mechanical');
#9 = PRODUCT_DEFINITION_CONTEXT('part definition',#2,'design');
#10 = ADVANCED_BREP_SHAPE_REPRESENTATION('',(#11,#15),#501);
#11 = AXIS2_PLACEMENT_3D('',#12,#13,#14);
#12 = CARTESIAN_POINT('',(0.,0.,0.));
#13 = DIRECTION('',(0.,0.,1.));
#14 = DIRECTION('',(1.,0.,-0.));
#15 = MANIFOLD_SOLID_BREP('',#16);
#16 = CLOSED_SHELL('',(#17,#50,#59,#79,#104,#207,#232,#257,#282,#313,
    #337,#361,#385,#409,#426,#451,#460,#469,#478,#492));
#17 = ADVANCED_FACE('',(#18),#45,.T.);
#18 = FACE_BOUND('',#19,.F.);
#19 = EDGE_LOOP('',(#20,#30,#37,#38));
#20 = ORIENTED_EDGE('',*,*,#21,.T.);
#21 = EDGE_CURVE('',#22,#24,#26,.T.);
#22 = VERTEX_POINT('',#23);
#23 = CARTESIAN_POINT('',(-22.8,-132.4,71.1));
#24 = VERTEX_POINT('',#25);
#25 = CARTESIAN_POINT('',(-22.8,-92.4,71.1));
#26 = LINE('',#27,#28);
#27 = CARTESIAN_POINT('',(-22.8,-132.4,71.1));
#28 = VECTOR('',#29,1.);
#29 = DIRECTION('',(0.,1.,0.));
#30 = ORIENTED_EDGE('',*,*,#31,.T.);
#31 = EDGE_CURVE('',#24,#24,#32,.T.);
#32 = CIRCLE('',#33,14.);
#33 = AXIS2_PLACEMENT_3D('',#34,#35,#36);
#34 = CARTESIAN_POINT('',(-36.8,-92.4,71.1));
#35 = DIRECTION('',(-0.,1.,0.));
#36 = DIRECTION('',(1.,0.,0.));
#37 = ORIENTED_EDGE('',*,*,#21,.F.);
#38 = ORIENTED_EDGE('',*,*,#39,.F.);
#39 = EDGE_CURVE('',#22,#22,#40,.T.);
#40 = CIRCLE('',#41,14.);
#41 = AXIS2_PLACEMENT_3D('',#42,#43,#44);
#42 = CARTESIAN_POINT('',(-36.8,-132.4,71.1));
#43 = DIRECTION('',(-0.,1.,0.));
#44 = DIRECTION('',(1.,0.,0.));
#45 = CYLINDRICAL_SURFACE('',#46,14.);
#46 = AXIS2_PLACEMENT_3D('',#47,#48,#49);
#47 = CARTESIAN_POINT('',(-36.8,-132.4,71.1));
#48 = DIRECTION('',(-0.,-1.,0.));
#49 = DIRECTION('',(1.,0.,0.));
#50 = ADVANCED_FACE('',(#51),#54,.F.);
#51 = FACE_BOUND('',#52,.T.);
#52 = EDGE_LOOP('',(#53));
#53 = ORIENTED_EDGE('',*,*,#39,.F.);
#54 = PLANE('',#55);
#55 = AXIS2_PLACEMENT_3D('',#56,#57,#58);
#56 = CARTESIAN_POINT('',(-36.8,-132.4,71.1));
#57 = DIRECTION('',(0.,1.,0.));
#58 = DIRECTION('',(1.,0.,0.));
#59 = ADVANCED_FACE('',(#60,#71),#74,.F.);
#60 = FACE_BOUND('',#61,.F.);
#61 = EDGE_LOOP('',(#62));
#62 = ORIENTED_EDGE('',*,*,#63,.T.);
#63 = EDGE_CURVE('',#64,#64,#66,.T.);
#64 = VERTEX_POINT('',#65);
#65 = CARTESIAN_POINT('',(-21.8,-92.4,71.1));
#66 = CIRCLE('',#67,15.);
#67 = AXIS2_PLACEMENT_3D('',#68,#69,#70);
#68 = CARTESIAN_POINT('',(-36.8,-92.4,71.1));
#69 = DIRECTION('',(-0.,1.,0.));
#70 = DIRECTION('',(1.,0.,0.));
#71 = FACE_BOUND('',#72,.F.);
#72 = EDGE_LOOP('',(#73));
#73 = ORIENTED_EDGE('',*,*,#31,.F.);
#74 = PLANE('',#75);
#75 = AXIS2_PLACEMENT_3D('',#76,#77,#78);
#76 = CARTESIAN_POINT('',(-36.8,-92.4,71.1));
#77 = DIRECTION('',(0.,1.,0.));
#78 = DIRECTION('',(1.,0.,0.));
#79 = ADVANCED_FACE('',(#80),#99,.T.);
#80 = FACE_BOUND('',#81,.F.);
#81 = EDGE_LOOP('',(#82,#90,#97,#98));
#82 = ORIENTED_EDGE('',*,*,#83,.T.);
#83 = EDGE_CURVE('',#64,#84,#86,.T.);
#84 = VERTEX_POINT('',#85);
#85 = CARTESIAN_POINT('',(-21.8,-72.4,71.1));
#86 = LINE('',#87,#88);
#87 = CARTESIAN_POINT('',(-21.8,-92.4,71.1));
#88 = VECTOR('',#89,1.);
#89 = DIRECTION('',(0.,1.,0.));
#90 = ORIENTED_EDGE('',*,*,#91,.T.);
#91 = EDGE_CURVE('',#84,#84,#92,.T.);
#92 = CIRCLE('',#93,15.);
#93 = AXIS2_PLACEMENT_3D('',#94,#95,#96);
#94 = CARTESIAN_POINT('',(-36.8,-72.4,71.1));
#95 = DIRECTION('',(-0.,1.,0.));
#96 = DIRECTION('',(1.,0.,0.));
#97 = ORIENTED_EDGE('',*,*,#83,.F.);
#98 = ORIENTED_EDGE('',*,*,#63,.F.);
#99 = CYLINDRICAL_SURFACE('',#100,15.);
#100 = AXIS2_PLACEMENT_3D('',#101,#102,#103);
#101 = CARTESIAN_POINT('',(-36.8,-92.4,71.1));
#102 = DIRECTION('',(-0.,-1.,0.));
#103 = DIRECTION('',(1.,0.,0.));
#104 = ADVANCED_FACE('',(#105,#108,#119,#130,#141,#191),#202,.T.);
#105 = FACE_BOUND('',#106,.T.);
#106 = EDGE_LOOP('',(#107));
#107 = ORIENTED_EDGE('',*,*,#91,.T.);
#108 = FACE_BOUND('',#109,.T.);
#109 = EDGE_LOOP('',(#110));
#110 = ORIENTED_EDGE('',*,*,#111,.F.);
#111 = EDGE_CURVE('',#112,#112,#114,.T.);
#112 = VERTEX_POINT('',#113);
#113 = CARTESIAN_POINT('',(-42.15,-72.4,78.1));
#114 = CIRCLE('',#115,1.65);
#115 = AXIS2_PLACEMENT_3D('',#116,#117,#118);
#116 = CARTESIAN_POINT('',(-43.8,-72.4,78.1));
#117 = DIRECTION('',(-0.,1.,0.));
#118 = DIRECTION('',(1.,0.,0.));
#119 = FACE_BOUND('',#120,.T.);
#120 = EDGE_LOOP('',(#121));
#121 = ORIENTED_EDGE('',*,*,#122,.F.);
#122 = EDGE_CURVE('',#123,#123,#125,.T.);
#123 = VERTEX_POINT('',#124);
#124 = CARTESIAN_POINT('',(-28.15,-72.4,78.1));
#125 = CIRCLE('',#126,1.65);
#126 = AXIS2_PLACEMENT_3D('',#127,#128,#129);
#127 = CARTESIAN_POINT('',(-29.8,-72.4,78.1));
#128 = DIRECTION('',(-0.,1.,0.));
#129 = DIRECTION('',(1.,0.,0.));
#130 = FACE_BOUND('',#131,.T.);
#131 = EDGE_LOOP('',(#132));
#132 = ORIENTED_EDGE('',*,*,#133,.F.);
#133 = EDGE_CURVE('',#134,#134,#136,.T.);
#134 = VERTEX_POINT('',#135);
#135 = CARTESIAN_POINT('',(-42.15,-72.4,64.1));
#136 = CIRCLE('',#137,1.65);
#137 = AXIS2_PLACEMENT_3D('',#138,#139,#140);
#138 = CARTESIAN_POINT('',(-43.8,-72.4,64.1));
#139 = DIRECTION('',(-0.,1.,0.));
#140 = DIRECTION('',(1.,0.,0.));
#141 = FACE_BOUND('',#142,.T.);
#142 = EDGE_LOOP('',(#143,#153,#161,#169,#177,#185));
#143 = ORIENTED_EDGE('',*,*,#144,.T.);
#144 = EDGE_CURVE('',#145,#147,#149,.T.);
#145 = VERTEX_POINT('',#146);
#146 = CARTESIAN_POINT('',(-39.22487113059,-72.4,66.9));
#147 = VERTEX_POINT('',#148);
#148 = CARTESIAN_POINT('',(-34.3751288694,-72.4,66.9));
#149 = LINE('',#150,#151);
#150 = CARTESIAN_POINT('',(-35.5875644347,-72.4,66.9));
#151 = VECTOR('',#152,1.);
#152 = DIRECTION('',(1.,0.,1.8E-16));
#153 = ORIENTED_EDGE('',*,*,#154,.T.);
#154 = EDGE_CURVE('',#147,#155,#157,.T.);
#155 = VERTEX_POINT('',#156);
#156 = CARTESIAN_POINT('',(-31.9502577388,-72.4,71.1));
#157 = LINE('',#158,#159);
#158 = CARTESIAN_POINT('',(-32.55647552145,-72.4,70.05));
#159 = VECTOR('',#160,1.);
#160 = DIRECTION('',(0.5,1.9E-16,0.866025403784));
#161 = ORIENTED_EDGE('',*,*,#162,.T.);
#162 = EDGE_CURVE('',#155,#163,#165,.T.);
#163 = VERTEX_POINT('',#164);
#164 = CARTESIAN_POINT('',(-34.3751288694,-72.4,75.3));
#165 = LINE('',#166,#167);
#166 = CARTESIAN_POINT('',(-33.76891108675,-72.4,74.25));
#167 = VECTOR('',#168,1.);
#168 = DIRECTION('',(-0.5,1.9E-16,0.866025403784));
#169 = ORIENTED_EDGE('',*,*,#170,.T.);
#170 = EDGE_CURVE('',#163,#171,#173,.T.);
#171 = VERTEX_POINT('',#172);
#172 = CARTESIAN_POINT('',(-39.22487113059,-72.4,75.3));
#173 = LINE('',#174,#175);
#174 = CARTESIAN_POINT('',(-38.01243556529,-72.4,75.3));
#175 = VECTOR('',#176,1.);
#176 = DIRECTION('',(-1.,-0.,-3.7E-16));
#177 = ORIENTED_EDGE('',*,*,#178,.T.);
#178 = EDGE_CURVE('',#171,#179,#181,.T.);
#179 = VERTEX_POINT('',#180);
#180 = CARTESIAN_POINT('',(-41.64974226119,-72.4,71.1));
#181 = LINE('',#182,#183);
#182 = CARTESIAN_POINT('',(-41.04352447854,-72.4,72.15));
#183 = VECTOR('',#184,1.);
#184 = DIRECTION('',(-0.5,-1.9E-16,-0.866025403784));
#185 = ORIENTED_EDGE('',*,*,#186,.T.);
#186 = EDGE_CURVE('',#179,#145,#187,.T.);
#187 = LINE('',#188,#189);
#188 = CARTESIAN_POINT('',(-39.83108891324,-72.4,67.95));
#189 = VECTOR('',#190,1.);
#190 = DIRECTION('',(0.5,-1.9E-16,-0.866025403784));
#191 = FACE_BOUND('',#192,.T.);
#192 = EDGE_LOOP('',(#193));
#193 = ORIENTED_EDGE('',*,*,#194,.F.);
#194 = EDGE_CURVE('',#195,#195,#197,.T.);
#195 = VERTEX_POINT('',#196);
#196 = CARTESIAN_POINT('',(-28.15,-72.4,64.1));
#197 = CIRCLE('',#198,1.65);
#198 = AXIS2_PLACEMENT_3D('',#199,#200,#201);
#199 = CARTESIAN_POINT('',(-29.8,-72.4,64.1));
#200 = DIRECTION('',(-0.,1.,0.));
#201 = DIRECTION('',(1.,0.,0.));
#202 = PLANE('',#203);
#203 = AXIS2_PLACEMENT_3D('',#204,#205,#206);
#204 = CARTESIAN_POINT('',(-36.8,-72.4,71.1));
#205 = DIRECTION('',(0.,1.,0.));
#206 = DIRECTION('',(1.,0.,0.));
#207 = ADVANCED_FACE('',(#208),#227,.F.);
#208 = FACE_BOUND('',#209,.T.);
#209 = EDGE_LOOP('',(#210,#218,#219,#220));
#210 = ORIENTED_EDGE('',*,*,#211,.T.);
#211 = EDGE_CURVE('',#212,#112,#214,.T.);
#212 = VERTEX_POINT('',#213);
#213 = CARTESIAN_POINT('',(-42.15,-78.4,78.1));
#214 = LINE('',#215,#216);
#215 = CARTESIAN_POINT('',(-42.15,-78.4,78.1));
#216 = VECTOR('',#217,1.);
#217 = DIRECTION('',(0.,1.,0.));
#218 = ORIENTED_EDGE('',*,*,#111,.T.);
#219 = ORIENTED_EDGE('',*,*,#211,.F.);
#220 = ORIENTED_EDGE('',*,*,#221,.F.);
#221 = EDGE_CURVE('',#212,#212,#222,.T.);
#222 = CIRCLE('',#223,1.65);
#223 = AXIS2_PLACEMENT_3D('',#224,#225,#226);
#224 = CARTESIAN_POINT('',(-43.8,-78.4,78.1));
#225 = DIRECTION('',(-0.,1.,0.));
#226 = DIRECTION('',(1.,0.,0.));
#227 = CYLINDRICAL_SURFACE('',#228,1.65);
#228 = AXIS2_PLACEMENT_3D('',#229,#230,#231);
#229 = CARTESIAN_POINT('',(-43.8,-78.4,78.1));
#230 = DIRECTION('',(-0.,-1.,0.));
#231 = DIRECTION('',(1.,0.,0.));
#232 = ADVANCED_FACE('',(#233),#252,.F.);
#233 = FACE_BOUND('',#234,.T.);
#234 = EDGE_LOOP('',(#235,#243,#244,#245));
#235 = ORIENTED_EDGE('',*,*,#236,.T.);
#236 = EDGE_CURVE('',#237,#123,#239,.T.);
#237 = VERTEX_POINT('',#238);
#238 = CARTESIAN_POINT('',(-28.15,-78.4,78.1));
#239 = LINE('',#240,#241);
#240 = CARTESIAN_POINT('',(-28.15,-78.4,78.1));
#241 = VECTOR('',#242,1.);
#242 = DIRECTION('',(0.,1.,0.));
#243 = ORIENTED_EDGE('',*,*,#122,.T.);
#244 = ORIENTED_EDGE('',*,*,#236,.F.);
#245 = ORIENTED_EDGE('',*,*,#246,.F.);
#246 = EDGE_CURVE('',#237,#237,#247,.T.);
#247 = CIRCLE('',#248,1.65);
#248 = AXIS2_PLACEMENT_3D('',#249,#250,#251);
#249 = CARTESIAN_POINT('',(-29.8,-78.4,78.1));
#250 = DIRECTION('',(-0.,1.,0.));
#251 = DIRECTION('',(1.,0.,0.));
#252 = CYLINDRICAL_SURFACE('',#253,1.65);
#253 = AXIS2_PLACEMENT_3D('',#254,#255,#256);
#254 = CARTESIAN_POINT('',(-29.8,-78.4,78.1));
#255 = DIRECTION('',(-0.,-1.,0.));
#256 = DIRECTION('',(1.,0.,0.));
#257 = ADVANCED_FACE('',(#258),#277,.F.);
#258 = FACE_BOUND('',#259,.T.);
#259 = EDGE_LOOP('',(#260,#268,#269,#270));
#260 = ORIENTED_EDGE('',*,*,#261,.T.);
#261 = EDGE_CURVE('',#262,#134,#264,.T.);
#262 = VERTEX_POINT('',#263);
#263 = CARTESIAN_POINT('',(-42.15,-78.4,64.1));
#264 = LINE('',#265,#266);
#265 = CARTESIAN_POINT('',(-42.15,-78.4,64.1));
#266 = VECTOR('',#267,1.);
#267 = DIRECTION('',(0.,1.,0.));
#268 = ORIENTED_EDGE('',*,*,#133,.T.);
#269 = ORIENTED_EDGE('',*,*,#261,.F.);
#270 = ORIENTED_EDGE('',*,*,#271,.F.);
#271 = EDGE_CURVE('',#262,#262,#272,.T.);
#272 = CIRCLE('',#273,1.65);
#273 = AXIS2_PLACEMENT_3D('',#274,#275,#276);
#274 = CARTESIAN_POINT('',(-43.8,-78.4,64.1));
#275 = DIRECTION('',(-0.,1.,0.));
#276 = DIRECTION('',(1.,0.,0.));
#277 = CYLINDRICAL_SURFACE('',#278,1.65);
#278 = AXIS2_PLACEMENT_3D('',#279,#280,#281);
#279 = CARTESIAN_POINT('',(-43.8,-78.4,64.1));
#280 = DIRECTION('',(-0.,-1.,0.));
#281 = DIRECTION('',(1.,0.,0.));
#282 = ADVANCED_FACE('',(#283),#308,.T.);
#283 = FACE_BOUND('',#284,.T.);
#284 = EDGE_LOOP('',(#285,#295,#301,#302));
#285 = ORIENTED_EDGE('',*,*,#286,.F.);
#286 = EDGE_CURVE('',#287,#289,#291,.T.);
#287 = VERTEX_POINT('',#288);
#288 = CARTESIAN_POINT('',(-34.3751288694,-89.4,66.9));
#289 = VERTEX_POINT('',#290);
#290 = CARTESIAN_POINT('',(-39.22487113059,-89.4,66.9));
#291 = LINE('',#292,#293);
#292 = CARTESIAN_POINT('',(-34.3751288694,-89.4,66.9));
#293 = VECTOR('',#294,1.);
#294 = DIRECTION('',(-1.,0.,-1.8E-16));
#295 = ORIENTED_EDGE('',*,*,#296,.T.);
#296 = EDGE_CURVE('',#287,#147,#297,.T.);
#297 = LINE('',#298,#299);
#298 = CARTESIAN_POINT('',(-34.3751288694,-89.4,66.9));
#299 = VECTOR('',#300,1.);
#300 = DIRECTION('',(0.,1.,0.));
#301 = ORIENTED_EDGE('',*,*,#144,.F.);
#302 = ORIENTED_EDGE('',*,*,#303,.F.);
#303 = EDGE_CURVE('',#289,#145,#304,.T.);
#304 = LINE('',#305,#306);
#305 = CARTESIAN_POINT('',(-39.22487113059,-89.4,66.9));
#306 = VECTOR('',#307,1.);
#307 = DIRECTION('',(0.,1.,0.));
#308 = PLANE('',#309);
#309 = AXIS2_PLACEMENT_3D('',#310,#311,#312);
#310 = CARTESIAN_POINT('',(-34.3751288694,-89.4,66.9));
#311 = DIRECTION('',(-1.8E-16,0.,1.));
#312 = DIRECTION('',(-1.,0.,-1.8E-16));
#313 = ADVANCED_FACE('',(#314),#332,.T.);
#314 = FACE_BOUND('',#315,.T.);
#315 = EDGE_LOOP('',(#316,#324,#325,#326));
#316 = ORIENTED_EDGE('',*,*,#317,.F.);
#317 = EDGE_CURVE('',#289,#318,#320,.T.);
#318 = VERTEX_POINT('',#319);
#319 = CARTESIAN_POINT('',(-41.64974226119,-89.4,71.1));
#320 = LINE('',#321,#322);
#321 = CARTESIAN_POINT('',(-39.22487113059,-89.4,66.9));
#322 = VECTOR('',#323,1.);
#323 = DIRECTION('',(-0.5,0.,0.866025403784));
#324 = ORIENTED_EDGE('',*,*,#303,.T.);
#325 = ORIENTED_EDGE('',*,*,#186,.F.);
#326 = ORIENTED_EDGE('',*,*,#327,.F.);
#327 = EDGE_CURVE('',#318,#179,#328,.T.);
#328 = LINE('',#329,#330);
#329 = CARTESIAN_POINT('',(-41.64974226119,-89.4,71.1));
#330 = VECTOR('',#331,1.);
#331 = DIRECTION('',(0.,1.,0.));
#332 = PLANE('',#333);
#333 = AXIS2_PLACEMENT_3D('',#334,#335,#336);
#334 = CARTESIAN_POINT('',(-39.22487113059,-89.4,66.9));
#335 = DIRECTION('',(0.866025403784,0.,0.5));
#336 = DIRECTION('',(-0.5,0.,0.866025403784));
#337 = ADVANCED_FACE('',(#338),#356,.T.);
#338 = FACE_BOUND('',#339,.T.);
#339 = EDGE_LOOP('',(#340,#348,#349,#350));
#340 = ORIENTED_EDGE('',*,*,#341,.F.);
#341 = EDGE_CURVE('',#318,#342,#344,.T.);
#342 = VERTEX_POINT('',#343);
#343 = CARTESIAN_POINT('',(-39.22487113059,-89.4,75.3));
#344 = LINE('',#345,#346);
#345 = CARTESIAN_POINT('',(-41.64974226119,-89.4,71.1));
#346 = VECTOR('',#347,1.);
#347 = DIRECTION('',(0.5,0.,0.866025403784));
#348 = ORIENTED_EDGE('',*,*,#327,.T.);
#349 = ORIENTED_EDGE('',*,*,#178,.F.);
#350 = ORIENTED_EDGE('',*,*,#351,.F.);
#351 = EDGE_CURVE('',#342,#171,#352,.T.);
#352 = LINE('',#353,#354);
#353 = CARTESIAN_POINT('',(-39.22487113059,-89.4,75.3));
#354 = VECTOR('',#355,1.);
#355 = DIRECTION('',(0.,1.,0.));
#356 = PLANE('',#357);
#357 = AXIS2_PLACEMENT_3D('',#358,#359,#360);
#358 = CARTESIAN_POINT('',(-41.64974226119,-89.4,71.1));
#359 = DIRECTION('',(0.866025403784,0.,-0.5));
#360 = DIRECTION('',(0.5,0.,0.866025403784));
#361 = ADVANCED_FACE('',(#362),#380,.T.);
#362 = FACE_BOUND('',#363,.T.);
#363 = EDGE_LOOP('',(#364,#372,#373,#374));
#364 = ORIENTED_EDGE('',*,*,#365,.F.);
#365 = EDGE_CURVE('',#342,#366,#368,.T.);
#366 = VERTEX_POINT('',#367);
#367 = CARTESIAN_POINT('',(-34.3751288694,-89.4,75.3));
#368 = LINE('',#369,#370);
#369 = CARTESIAN_POINT('',(-39.22487113059,-89.4,75.3));
#370 = VECTOR('',#371,1.);
#371 = DIRECTION('',(1.,0.,3.7E-16));
#372 = ORIENTED_EDGE('',*,*,#351,.T.);
#373 = ORIENTED_EDGE('',*,*,#170,.F.);
#374 = ORIENTED_EDGE('',*,*,#375,.F.);
#375 = EDGE_CURVE('',#366,#163,#376,.T.);
#376 = LINE('',#377,#378);
#377 = CARTESIAN_POINT('',(-34.3751288694,-89.4,75.3));
#378 = VECTOR('',#379,1.);
#379 = DIRECTION('',(0.,1.,0.));
#380 = PLANE('',#381);
#381 = AXIS2_PLACEMENT_3D('',#382,#383,#384);
#382 = CARTESIAN_POINT('',(-39.22487113059,-89.4,75.3));
#383 = DIRECTION('',(3.7E-16,0.,-1.));
#384 = DIRECTION('',(1.,0.,3.7E-16));
#385 = ADVANCED_FACE('',(#386),#404,.T.);
#386 = FACE_BOUND('',#387,.T.);
#387 = EDGE_LOOP('',(#388,#396,#397,#398));
#388 = ORIENTED_EDGE('',*,*,#389,.F.);
#389 = EDGE_CURVE('',#366,#390,#392,.T.);
#390 = VERTEX_POINT('',#391);
#391 = CARTESIAN_POINT('',(-31.9502577388,-89.4,71.1));
#392 = LINE('',#393,#394);
#393 = CARTESIAN_POINT('',(-34.3751288694,-89.4,75.3));
#394 = VECTOR('',#395,1.);
#395 = DIRECTION('',(0.5,0.,-0.866025403784));
#396 = ORIENTED_EDGE('',*,*,#375,.T.);
#397 = ORIENTED_EDGE('',*,*,#162,.F.);
#398 = ORIENTED_EDGE('',*,*,#399,.F.);
#399 = EDGE_CURVE('',#390,#155,#400,.T.);
#400 = LINE('',#401,#402);
#401 = CARTESIAN_POINT('',(-31.9502577388,-89.4,71.1));
#402 = VECTOR('',#403,1.);
#403 = DIRECTION('',(0.,1.,0.));
#404 = PLANE('',#405);
#405 = AXIS2_PLACEMENT_3D('',#406,#407,#408);
#406 = CARTESIAN_POINT('',(-34.3751288694,-89.4,75.3));
#407 = DIRECTION('',(-0.866025403784,0.,-0.5));
#408 = DIRECTION('',(0.5,0.,-0.866025403784));
#409 = ADVANCED_FACE('',(#410),#421,.T.);
#410 = FACE_BOUND('',#411,.T.);
#411 = EDGE_LOOP('',(#412,#418,#419,#420));
#412 = ORIENTED_EDGE('',*,*,#413,.F.);
#413 = EDGE_CURVE('',#390,#287,#414,.T.);
#414 = LINE('',#415,#416);
#415 = CARTESIAN_POINT('',(-31.9502577388,-89.4,71.1));
#416 = VECTOR('',#417,1.);
#417 = DIRECTION('',(-0.5,0.,-0.866025403784));
#418 = ORIENTED_EDGE('',*,*,#399,.T.);
#419 = ORIENTED_EDGE('',*,*,#154,.F.);
#420 = ORIENTED_EDGE('',*,*,#296,.F.);
#421 = PLANE('',#422);
#422 = AXIS2_PLACEMENT_3D('',#423,#424,#425);
#423 = CARTESIAN_POINT('',(-31.9502577388,-89.4,71.1));
#424 = DIRECTION('',(-0.866025403784,0.,0.5));
#425 = DIRECTION('',(-0.5,0.,-0.866025403784));
#426 = ADVANCED_FACE('',(#427),#446,.F.);
#427 = FACE_BOUND('',#428,.T.);
#428 = EDGE_LOOP('',(#429,#437,#438,#439));
#429 = ORIENTED_EDGE('',*,*,#430,.T.);
#430 = EDGE_CURVE('',#431,#195,#433,.T.);
#431 = VERTEX_POINT('',#432);
#432 = CARTESIAN_POINT('',(-28.15,-78.4,64.1));
#433 = LINE('',#434,#435);
#434 = CARTESIAN_POINT('',(-28.15,-78.4,64.1));
#435 = VECTOR('',#436,1.);
#436 = DIRECTION('',(0.,1.,0.));
#437 = ORIENTED_EDGE('',*,*,#194,.T.);
#438 = ORIENTED_EDGE('',*,*,#430,.F.);
#439 = ORIENTED_EDGE('',*,*,#440,.F.);
#440 = EDGE_CURVE('',#431,#431,#441,.T.);
#441 = CIRCLE('',#442,1.65);
#442 = AXIS2_PLACEMENT_3D('',#443,#444,#445);
#443 = CARTESIAN_POINT('',(-29.8,-78.4,64.1));
#444 = DIRECTION('',(-0.,1.,0.));
#445 = DIRECTION('',(1.,0.,0.));
#446 = CYLINDRICAL_SURFACE('',#447,1.65);
#447 = AXIS2_PLACEMENT_3D('',#448,#449,#450);
#448 = CARTESIAN_POINT('',(-29.8,-78.4,64.1));
#449 = DIRECTION('',(-0.,-1.,0.));
#450 = DIRECTION('',(1.,0.,0.));
#451 = ADVANCED_FACE('',(#452),#455,.T.);
#452 = FACE_BOUND('',#453,.F.);
#453 = EDGE_LOOP('',(#454));
#454 = ORIENTED_EDGE('',*,*,#221,.F.);
#455 = PLANE('',#456);
#456 = AXIS2_PLACEMENT_3D('',#457,#458,#459);
#457 = CARTESIAN_POINT('',(-43.8,-78.4,78.1));
#458 = DIRECTION('',(0.,1.,0.));
#459 = DIRECTION('',(1.,0.,0.));
#460 = ADVANCED_FACE('',(#461),#464,.T.);
#461 = FACE_BOUND('',#462,.F.);
#462 = EDGE_LOOP('',(#463));
#463 = ORIENTED_EDGE('',*,*,#246,.F.);
#464 = PLANE('',#465);
#465 = AXIS2_PLACEMENT_3D('',#466,#467,#468);
#466 = CARTESIAN_POINT('',(-29.8,-78.4,78.1));
#467 = DIRECTION('',(0.,1.,0.));
#468 = DIRECTION('',(1.,0.,0.));
#469 = ADVANCED_FACE('',(#470),#473,.T.);
#470 = FACE_BOUND('',#471,.F.);
#471 = EDGE_LOOP('',(#472));
#472 = ORIENTED_EDGE('',*,*,#271,.F.);
#473 = PLANE('',#474);
#474 = AXIS2_PLACEMENT_3D('',#475,#476,#477);
#475 = CARTESIAN_POINT('',(-43.8,-78.4,64.1));
#476 = DIRECTION('',(0.,1.,0.));
#477 = DIRECTION('',(1.,0.,0.));
#478 = ADVANCED_FACE('',(#479),#487,.T.);
#479 = FACE_BOUND('',#480,.T.);
#480 = EDGE_LOOP('',(#481,#482,#483,#484,#485,#486));
#481 = ORIENTED_EDGE('',*,*,#413,.T.);
#482 = ORIENTED_EDGE('',*,*,#286,.T.);
#483 = ORIENTED_EDGE('',*,*,#317,.T.);
#484 = ORIENTED_EDGE('',*,*,#341,.T.);
#485 = ORIENTED_EDGE('',*,*,#365,.T.);
#486 = ORIENTED_EDGE('',*,*,#389,.T.);
#487 = PLANE('',#488);
#488 = AXIS2_PLACEMENT_3D('',#489,#490,#491);
#489 = CARTESIAN_POINT('',(-36.8,-89.4,71.1));
#490 = DIRECTION('',(0.,1.,0.));
#491 = DIRECTION('',(1.,0.,0.));
#492 = ADVANCED_FACE('',(#493),#496,.T.);
#493 = FACE_BOUND('',#494,.F.);
#494 = EDGE_LOOP('',(#495));
#495 = ORIENTED_EDGE('',*,*,#440,.F.);
#496 = PLANE('',#497);
#497 = AXIS2_PLACEMENT_3D('',#498,#499,#500);
#498 = CARTESIAN_POINT('',(-29.8,-78.4,64.1));
#499 = DIRECTION('',(0.,1.,0.));
#500 = DIRECTION('',(1.,0.,0.));
#501 = ( GEOMETRIC_REPRESENTATION_CONTEXT(3) 
GLOBAL_UNCERTAINTY_ASSIGNED_CONTEXT((#505)) GLOBAL_UNIT_ASSIGNED_CONTEXT
((#502,#503,#504)) REPRESENTATION_CONTEXT('Context #1',
  '3D Context with UNIT and UNCERTAINTY') );
#502 = ( LENGTH_UNIT() NAMED_UNIT(*) SI_UNIT(.MILLI.,.METRE.) );
#503 = ( NAMED_UNIT(*) PLANE_ANGLE_UNIT() SI_UNIT($,.RADIAN.) );
#504 = ( NAMED_UNIT(*) SI_UNIT($,.STERADIAN.) SOLID_ANGLE_UNIT() );
#505 = UNCERTAINTY_MEASURE_WITH_UNIT(LENGTH_MEASURE(1.E-05),#502,
  'distance_accuracy_value','confusion accuracy');
#506 = PRODUCT_RELATED_PRODUCT_CATEGORY('part',$,(#7));
ENDSEC;
END-ISO-10303-21;
