ISO-10303-21;
HEADER;
FILE_DESCRIPTION(('FreeCAD Model'),'2;1');
FILE_NAME('Open CASCADE Shape Model','2026-09-30T03:00:04',('Author'),(
    ''),'Open CASCADE STEP processor 7.8','FreeCAD','Unknown');
FILE_SCHEMA(('AUTOMOTIVE_DESIGN { 1 0 10303 214 1 1 1 1 }'));
ENDSEC;
DATA;
#1 = APPLICATION_PROTOCOL_DEFINITION('international standard',
  'automotive_design',2000,#2);
#2 = APPLICATION_CONTEXT(
  'core data for automotive mechanical design processes');
#3 = SHAPE_DEFINITION_REPRESENTATION(#4,#10);
#4 = PRODUCT_DEFINITION_SHAPE('','',#5);
#5 = PRODUCT_DEFINITION('design','',#6,#9);
#6 = PRODUCT_DEFINITION_FORMATION('','',#7);
#7 = PRODUCT('FRAME_CROSS_B','FRAME_CROSS_B','',(#8));
#8 = PRODUCT_CONTEXT('',#2,'mechanical');
#9 = PRODUCT_DEFINITION_CONTEXT('part definition',#2,'design');
#10 = ADVANCED_BREP_SHAPE_REPRESENTATION('',(#11,#15),#921);
#11 = AXIS2_PLACEMENT_3D('',#12,#13,#14);
#12 = CARTESIAN_POINT('',(0.,0.,0.));
#13 = DIRECTION('',(0.,0.,1.));
#14 = DIRECTION('',(1.,0.,-0.));
#15 = MANIFOLD_SOLID_BREP('',#16);
#16 = CLOSED_SHELL('',(#17,#101,#164,#232,#256,#305,#330,#355,#380,#405,
    #434,#495,#600,#617,#717,#734,#751,#768,#785,#802,#819,#836,#853,
    #870,#887,#904));
#17 = ADVANCED_FACE('',(#18,#52,#63,#74,#85),#96,.F.);
#18 = FACE_BOUND('',#19,.F.);
#19 = EDGE_LOOP('',(#20,#30,#38,#46));
#20 = ORIENTED_EDGE('',*,*,#21,.F.);
#21 = EDGE_CURVE('',#22,#24,#26,.T.);
#22 = VERTEX_POINT('',#23);
#23 = CARTESIAN_POINT('',(-222.12,-136.02,15.75));
#24 = VERTEX_POINT('',#25);
#25 = CARTESIAN_POINT('',(-222.12,-136.02,63.75));
#26 = LINE('',#27,#28);
#27 = CARTESIAN_POINT('',(-222.12,-136.02,15.75));
#28 = VECTOR('',#29,1.);
#29 = DIRECTION('',(0.,0.,1.));
#30 = ORIENTED_EDGE('',*,*,#31,.T.);
#31 = EDGE_CURVE('',#22,#32,#34,.T.);
#32 = VERTEX_POINT('',#33);
#33 = CARTESIAN_POINT('',(-222.12,136.02,15.75));
#34 = LINE('',#35,#36);
#35 = CARTESIAN_POINT('',(-222.12,-136.02,15.75));
#36 = VECTOR('',#37,1.);
#37 = DIRECTION('',(0.,1.,0.));
#38 = ORIENTED_EDGE('',*,*,#39,.T.);
#39 = EDGE_CURVE('',#32,#40,#42,.T.);
#40 = VERTEX_POINT('',#41);
#41 = CARTESIAN_POINT('',(-222.12,136.02,63.75));
#42 = LINE('',#43,#44);
#43 = CARTESIAN_POINT('',(-222.12,136.02,15.75));
#44 = VECTOR('',#45,1.);
#45 = DIRECTION('',(0.,0.,1.));
#46 = ORIENTED_EDGE('',*,*,#47,.F.);
#47 = EDGE_CURVE('',#24,#40,#48,.T.);
#48 = LINE('',#49,#50);
#49 = CARTESIAN_POINT('',(-222.12,-136.02,63.75));
#50 = VECTOR('',#51,1.);
#51 = DIRECTION('',(0.,1.,0.));
#52 = FACE_BOUND('',#53,.F.);
#53 = EDGE_LOOP('',(#54));
#54 = ORIENTED_EDGE('',*,*,#55,.T.);
#55 = EDGE_CURVE('',#56,#56,#58,.T.);
#56 = VERTEX_POINT('',#57);
#57 = CARTESIAN_POINT('',(-222.12,25.,23.55));
#58 = CIRCLE('',#59,2.2);
#59 = AXIS2_PLACEMENT_3D('',#60,#61,#62);
#60 = CARTESIAN_POINT('',(-222.12,25.,25.75));
#61 = DIRECTION('',(-1.,0.,2.2E-16));
#62 = DIRECTION('',(-2.2E-16,0.,-1.));
#63 = FACE_BOUND('',#64,.F.);
#64 = EDGE_LOOP('',(#65));
#65 = ORIENTED_EDGE('',*,*,#66,.T.);
#66 = EDGE_CURVE('',#67,#67,#69,.T.);
#67 = VERTEX_POINT('',#68);
#68 = CARTESIAN_POINT('',(-222.12,25.,47.55));
#69 = CIRCLE('',#70,2.2);
#70 = AXIS2_PLACEMENT_3D('',#71,#72,#73);
#71 = CARTESIAN_POINT('',(-222.12,25.,49.75));
#72 = DIRECTION('',(-1.,0.,2.2E-16));
#73 = DIRECTION('',(-2.2E-16,0.,-1.));
#74 = FACE_BOUND('',#75,.F.);
#75 = EDGE_LOOP('',(#76));
#76 = ORIENTED_EDGE('',*,*,#77,.T.);
#77 = EDGE_CURVE('',#78,#78,#80,.T.);
#78 = VERTEX_POINT('',#79);
#79 = CARTESIAN_POINT('',(-222.12,-25.,23.55));
#80 = CIRCLE('',#81,2.2);
#81 = AXIS2_PLACEMENT_3D('',#82,#83,#84);
#82 = CARTESIAN_POINT('',(-222.12,-25.,25.75));
#83 = DIRECTION('',(-1.,0.,2.2E-16));
#84 = DIRECTION('',(-2.2E-16,0.,-1.));
#85 = FACE_BOUND('',#86,.F.);
#86 = EDGE_LOOP('',(#87));
#87 = ORIENTED_EDGE('',*,*,#88,.T.);
#88 = EDGE_CURVE('',#89,#89,#91,.T.);
#89 = VERTEX_POINT('',#90);
#90 = CARTESIAN_POINT('',(-222.12,-25.,47.55));
#91 = CIRCLE('',#92,2.2);
#92 = AXIS2_PLACEMENT_3D('',#93,#94,#95);
#93 = CARTESIAN_POINT('',(-222.12,-25.,49.75));
#94 = DIRECTION('',(-1.,0.,2.2E-16));
#95 = DIRECTION('',(-2.2E-16,0.,-1.));
#96 = PLANE('',#97);
#97 = AXIS2_PLACEMENT_3D('',#98,#99,#100);
#98 = CARTESIAN_POINT('',(-222.12,-136.02,15.75));
#99 = DIRECTION('',(1.,0.,0.));
#100 = DIRECTION('',(0.,0.,1.));
#101 = ADVANCED_FACE('',(#102),#159,.F.);
#102 = FACE_BOUND('',#103,.F.);
#103 = EDGE_LOOP('',(#104,#112,#113,#121,#129,#137,#145,#153));
#104 = ORIENTED_EDGE('',*,*,#105,.F.);
#105 = EDGE_CURVE('',#22,#106,#108,.T.);
#106 = VERTEX_POINT('',#107);
#107 = CARTESIAN_POINT('',(-219.62,-136.02,15.75));
#108 = LINE('',#109,#110);
#109 = CARTESIAN_POINT('',(-222.12,-136.02,15.75));
#110 = VECTOR('',#111,1.);
#111 = DIRECTION('',(1.,0.,0.));
#112 = ORIENTED_EDGE('',*,*,#21,.T.);
#113 = ORIENTED_EDGE('',*,*,#114,.T.);
#114 = EDGE_CURVE('',#24,#115,#117,.T.);
#115 = VERTEX_POINT('',#116);
#116 = CARTESIAN_POINT('',(-174.12,-136.02,63.75));
#117 = LINE('',#118,#119);
#118 = CARTESIAN_POINT('',(-222.12,-136.02,63.75));
#119 = VECTOR('',#120,1.);
#120 = DIRECTION('',(1.,0.,0.));
#121 = ORIENTED_EDGE('',*,*,#122,.F.);
#122 = EDGE_CURVE('',#123,#115,#125,.T.);
#123 = VERTEX_POINT('',#124);
#124 = CARTESIAN_POINT('',(-174.12,-136.02,15.75));
#125 = LINE('',#126,#127);
#126 = CARTESIAN_POINT('',(-174.12,-136.02,15.75));
#127 = VECTOR('',#128,1.);
#128 = DIRECTION('',(0.,0.,1.));
#129 = ORIENTED_EDGE('',*,*,#130,.F.);
#130 = EDGE_CURVE('',#131,#123,#133,.T.);
#131 = VERTEX_POINT('',#132);
#132 = CARTESIAN_POINT('',(-176.62,-136.02,15.75));
#133 = LINE('',#134,#135);
#134 = CARTESIAN_POINT('',(-222.12,-136.02,15.75));
#135 = VECTOR('',#136,1.);
#136 = DIRECTION('',(1.,0.,0.));
#137 = ORIENTED_EDGE('',*,*,#138,.F.);
#138 = EDGE_CURVE('',#139,#131,#141,.T.);
#139 = VERTEX_POINT('',#140);
#140 = CARTESIAN_POINT('',(-176.62,-136.02,61.25));
#141 = LINE('',#142,#143);
#142 = CARTESIAN_POINT('',(-176.62,-136.02,15.75));
#143 = VECTOR('',#144,1.);
#144 = DIRECTION('',(0.,0.,-1.));
#145 = ORIENTED_EDGE('',*,*,#146,.F.);
#146 = EDGE_CURVE('',#147,#139,#149,.T.);
#147 = VERTEX_POINT('',#148);
#148 = CARTESIAN_POINT('',(-219.62,-136.02,61.25));
#149 = LINE('',#150,#151);
#150 = CARTESIAN_POINT('',(-220.87,-136.02,61.25));
#151 = VECTOR('',#152,1.);
#152 = DIRECTION('',(1.,0.,0.));
#153 = ORIENTED_EDGE('',*,*,#154,.T.);
#154 = EDGE_CURVE('',#147,#106,#155,.T.);
#155 = LINE('',#156,#157);
#156 = CARTESIAN_POINT('',(-219.62,-136.02,15.75));
#157 = VECTOR('',#158,1.);
#158 = DIRECTION('',(0.,0.,-1.));
#159 = PLANE('',#160);
#160 = AXIS2_PLACEMENT_3D('',#161,#162,#163);
#161 = CARTESIAN_POINT('',(-222.12,-136.02,15.75));
#162 = DIRECTION('',(0.,1.,0.));
#163 = DIRECTION('',(0.,0.,1.));
#164 = ADVANCED_FACE('',(#165,#183,#194,#205,#216),#227,.T.);
#165 = FACE_BOUND('',#166,.T.);
#166 = EDGE_LOOP('',(#167,#168,#169,#177));
#167 = ORIENTED_EDGE('',*,*,#47,.F.);
#168 = ORIENTED_EDGE('',*,*,#114,.T.);
#169 = ORIENTED_EDGE('',*,*,#170,.T.);
#170 = EDGE_CURVE('',#115,#171,#173,.T.);
#171 = VERTEX_POINT('',#172);
#172 = CARTESIAN_POINT('',(-174.12,136.02,63.75));
#173 = LINE('',#174,#175);
#174 = CARTESIAN_POINT('',(-174.12,-136.02,63.75));
#175 = VECTOR('',#176,1.);
#176 = DIRECTION('',(0.,1.,0.));
#177 = ORIENTED_EDGE('',*,*,#178,.F.);
#178 = EDGE_CURVE('',#40,#171,#179,.T.);
#179 = LINE('',#180,#181);
#180 = CARTESIAN_POINT('',(-222.12,136.02,63.75));
#181 = VECTOR('',#182,1.);
#182 = DIRECTION('',(1.,0.,0.));
#183 = FACE_BOUND('',#184,.T.);
#184 = EDGE_LOOP('',(#185));
#185 = ORIENTED_EDGE('',*,*,#186,.T.);
#186 = EDGE_CURVE('',#187,#187,#189,.T.);
#187 = VERTEX_POINT('',#188);
#188 = CARTESIAN_POINT('',(-203.92,-124.02,63.75));
#189 = CIRCLE('',#190,2.2);
#190 = AXIS2_PLACEMENT_3D('',#191,#192,#193);
#191 = CARTESIAN_POINT('',(-206.12,-124.02,63.75));
#192 = DIRECTION('',(0.,0.,-1.));
#193 = DIRECTION('',(1.,0.,0.));
#194 = FACE_BOUND('',#195,.T.);
#195 = EDGE_LOOP('',(#196));
#196 = ORIENTED_EDGE('',*,*,#197,.T.);
#197 = EDGE_CURVE('',#198,#198,#200,.T.);
#198 = VERTEX_POINT('',#199);
#199 = CARTESIAN_POINT('',(-189.92,-124.02,63.75));
#200 = CIRCLE('',#201,2.2);
#201 = AXIS2_PLACEMENT_3D('',#202,#203,#204);
#202 = CARTESIAN_POINT('',(-192.12,-124.02,63.75));
#203 = DIRECTION('',(0.,0.,-1.));
#204 = DIRECTION('',(1.,0.,0.));
#205 = FACE_BOUND('',#206,.T.);
#206 = EDGE_LOOP('',(#207));
#207 = ORIENTED_EDGE('',*,*,#208,.T.);
#208 = EDGE_CURVE('',#209,#209,#211,.T.);
#209 = VERTEX_POINT('',#210);
#210 = CARTESIAN_POINT('',(-203.92,124.02,63.75));
#211 = CIRCLE('',#212,2.2);
#212 = AXIS2_PLACEMENT_3D('',#213,#214,#215);
#213 = CARTESIAN_POINT('',(-206.12,124.02,63.75));
#214 = DIRECTION('',(0.,0.,-1.));
#215 = DIRECTION('',(1.,0.,0.));
#216 = FACE_BOUND('',#217,.T.);
#217 = EDGE_LOOP('',(#218));
#218 = ORIENTED_EDGE('',*,*,#219,.T.);
#219 = EDGE_CURVE('',#220,#220,#222,.T.);
#220 = VERTEX_POINT('',#221);
#221 = CARTESIAN_POINT('',(-189.92,124.02,63.75));
#222 = CIRCLE('',#223,2.2);
#223 = AXIS2_PLACEMENT_3D('',#224,#225,#226);
#224 = CARTESIAN_POINT('',(-192.12,124.02,63.75));
#225 = DIRECTION('',(0.,0.,-1.));
#226 = DIRECTION('',(1.,0.,0.));
#227 = PLANE('',#228);
#228 = AXIS2_PLACEMENT_3D('',#229,#230,#231);
#229 = CARTESIAN_POINT('',(-222.12,-136.02,63.75));
#230 = DIRECTION('',(0.,0.,1.));
#231 = DIRECTION('',(1.,0.,0.));
#232 = ADVANCED_FACE('',(#233),#251,.F.);
#233 = FACE_BOUND('',#234,.F.);
#234 = EDGE_LOOP('',(#235,#243,#244,#245));
#235 = ORIENTED_EDGE('',*,*,#236,.F.);
#236 = EDGE_CURVE('',#32,#237,#239,.T.);
#237 = VERTEX_POINT('',#238);
#238 = CARTESIAN_POINT('',(-219.62,136.02,15.75));
#239 = LINE('',#240,#241);
#240 = CARTESIAN_POINT('',(-222.12,136.02,15.75));
#241 = VECTOR('',#242,1.);
#242 = DIRECTION('',(1.,0.,0.));
#243 = ORIENTED_EDGE('',*,*,#31,.F.);
#244 = ORIENTED_EDGE('',*,*,#105,.T.);
#245 = ORIENTED_EDGE('',*,*,#246,.T.);
#246 = EDGE_CURVE('',#106,#237,#247,.T.);
#247 = LINE('',#248,#249);
#248 = CARTESIAN_POINT('',(-219.62,-137.02,15.75));
#249 = VECTOR('',#250,1.);
#250 = DIRECTION('',(0.,1.,0.));
#251 = PLANE('',#252);
#252 = AXIS2_PLACEMENT_3D('',#253,#254,#255);
#253 = CARTESIAN_POINT('',(-222.12,-136.02,15.75));
#254 = DIRECTION('',(0.,0.,1.));
#255 = DIRECTION('',(1.,0.,0.));
#256 = ADVANCED_FACE('',(#257),#300,.T.);
#257 = FACE_BOUND('',#258,.T.);
#258 = EDGE_LOOP('',(#259,#260,#261,#262,#270,#278,#286,#294));
#259 = ORIENTED_EDGE('',*,*,#236,.F.);
#260 = ORIENTED_EDGE('',*,*,#39,.T.);
#261 = ORIENTED_EDGE('',*,*,#178,.T.);
#262 = ORIENTED_EDGE('',*,*,#263,.F.);
#263 = EDGE_CURVE('',#264,#171,#266,.T.);
#264 = VERTEX_POINT('',#265);
#265 = CARTESIAN_POINT('',(-174.12,136.02,15.75));
#266 = LINE('',#267,#268);
#267 = CARTESIAN_POINT('',(-174.12,136.02,15.75));
#268 = VECTOR('',#269,1.);
#269 = DIRECTION('',(0.,0.,1.));
#270 = ORIENTED_EDGE('',*,*,#271,.F.);
#271 = EDGE_CURVE('',#272,#264,#274,.T.);
#272 = VERTEX_POINT('',#273);
#273 = CARTESIAN_POINT('',(-176.62,136.02,15.75));
#274 = LINE('',#275,#276);
#275 = CARTESIAN_POINT('',(-222.12,136.02,15.75));
#276 = VECTOR('',#277,1.);
#277 = DIRECTION('',(1.,0.,0.));
#278 = ORIENTED_EDGE('',*,*,#279,.F.);
#279 = EDGE_CURVE('',#280,#272,#282,.T.);
#280 = VERTEX_POINT('',#281);
#281 = CARTESIAN_POINT('',(-176.62,136.02,61.25));
#282 = LINE('',#283,#284);
#283 = CARTESIAN_POINT('',(-176.62,136.02,15.75));
#284 = VECTOR('',#285,1.);
#285 = DIRECTION('',(0.,0.,-1.));
#286 = ORIENTED_EDGE('',*,*,#287,.F.);
#287 = EDGE_CURVE('',#288,#280,#290,.T.);
#288 = VERTEX_POINT('',#289);
#289 = CARTESIAN_POINT('',(-219.62,136.02,61.25));
#290 = LINE('',#291,#292);
#291 = CARTESIAN_POINT('',(-220.87,136.02,61.25));
#292 = VECTOR('',#293,1.);
#293 = DIRECTION('',(1.,0.,0.));
#294 = ORIENTED_EDGE('',*,*,#295,.T.);
#295 = EDGE_CURVE('',#288,#237,#296,.T.);
#296 = LINE('',#297,#298);
#297 = CARTESIAN_POINT('',(-219.62,136.02,15.75));
#298 = VECTOR('',#299,1.);
#299 = DIRECTION('',(0.,0.,-1.));
#300 = PLANE('',#301);
#301 = AXIS2_PLACEMENT_3D('',#302,#303,#304);
#302 = CARTESIAN_POINT('',(-222.12,136.02,15.75));
#303 = DIRECTION('',(0.,1.,0.));
#304 = DIRECTION('',(0.,0.,1.));
#305 = ADVANCED_FACE('',(#306),#325,.F.);
#306 = FACE_BOUND('',#307,.T.);
#307 = EDGE_LOOP('',(#308,#309,#317,#324));
#308 = ORIENTED_EDGE('',*,*,#55,.T.);
#309 = ORIENTED_EDGE('',*,*,#310,.T.);
#310 = EDGE_CURVE('',#56,#311,#313,.T.);
#311 = VERTEX_POINT('',#312);
#312 = CARTESIAN_POINT('',(-219.62,25.,23.55));
#313 = LINE('',#314,#315);
#314 = CARTESIAN_POINT('',(-223.12,25.,23.55));
#315 = VECTOR('',#316,1.);
#316 = DIRECTION('',(1.,0.,0.));
#317 = ORIENTED_EDGE('',*,*,#318,.F.);
#318 = EDGE_CURVE('',#311,#311,#319,.T.);
#319 = CIRCLE('',#320,2.2);
#320 = AXIS2_PLACEMENT_3D('',#321,#322,#323);
#321 = CARTESIAN_POINT('',(-219.62,25.,25.75));
#322 = DIRECTION('',(-1.,0.,2.2E-16));
#323 = DIRECTION('',(-2.2E-16,0.,-1.));
#324 = ORIENTED_EDGE('',*,*,#310,.F.);
#325 = CYLINDRICAL_SURFACE('',#326,2.2);
#326 = AXIS2_PLACEMENT_3D('',#327,#328,#329);
#327 = CARTESIAN_POINT('',(-223.12,25.,25.75));
#328 = DIRECTION('',(-1.,-0.,0.));
#329 = DIRECTION('',(0.,0.,-1.));
#330 = ADVANCED_FACE('',(#331),#350,.F.);
#331 = FACE_BOUND('',#332,.T.);
#332 = EDGE_LOOP('',(#333,#334,#342,#349));
#333 = ORIENTED_EDGE('',*,*,#66,.T.);
#334 = ORIENTED_EDGE('',*,*,#335,.T.);
#335 = EDGE_CURVE('',#67,#336,#338,.T.);
#336 = VERTEX_POINT('',#337);
#337 = CARTESIAN_POINT('',(-219.62,25.,47.55));
#338 = LINE('',#339,#340);
#339 = CARTESIAN_POINT('',(-223.12,25.,47.55));
#340 = VECTOR('',#341,1.);
#341 = DIRECTION('',(1.,0.,0.));
#342 = ORIENTED_EDGE('',*,*,#343,.F.);
#343 = EDGE_CURVE('',#336,#336,#344,.T.);
#344 = CIRCLE('',#345,2.2);
#345 = AXIS2_PLACEMENT_3D('',#346,#347,#348);
#346 = CARTESIAN_POINT('',(-219.62,25.,49.75));
#347 = DIRECTION('',(-1.,0.,2.2E-16));
#348 = DIRECTION('',(-2.2E-16,0.,-1.));
#349 = ORIENTED_EDGE('',*,*,#335,.F.);
#350 = CYLINDRICAL_SURFACE('',#351,2.2);
#351 = AXIS2_PLACEMENT_3D('',#352,#353,#354);
#352 = CARTESIAN_POINT('',(-223.12,25.,49.75));
#353 = DIRECTION('',(-1.,-0.,0.));
#354 = DIRECTION('',(0.,0.,-1.));
#355 = ADVANCED_FACE('',(#356),#375,.F.);
#356 = FACE_BOUND('',#357,.T.);
#357 = EDGE_LOOP('',(#358,#359,#367,#374));
#358 = ORIENTED_EDGE('',*,*,#77,.T.);
#359 = ORIENTED_EDGE('',*,*,#360,.T.);
#360 = EDGE_CURVE('',#78,#361,#363,.T.);
#361 = VERTEX_POINT('',#362);
#362 = CARTESIAN_POINT('',(-219.62,-25.,23.55));
#363 = LINE('',#364,#365);
#364 = CARTESIAN_POINT('',(-223.12,-25.,23.55));
#365 = VECTOR('',#366,1.);
#366 = DIRECTION('',(1.,0.,0.));
#367 = ORIENTED_EDGE('',*,*,#368,.F.);
#368 = EDGE_CURVE('',#361,#361,#369,.T.);
#369 = CIRCLE('',#370,2.2);
#370 = AXIS2_PLACEMENT_3D('',#371,#372,#373);
#371 = CARTESIAN_POINT('',(-219.62,-25.,25.75));
#372 = DIRECTION('',(-1.,0.,2.2E-16));
#373 = DIRECTION('',(-2.2E-16,0.,-1.));
#374 = ORIENTED_EDGE('',*,*,#360,.F.);
#375 = CYLINDRICAL_SURFACE('',#376,2.2);
#376 = AXIS2_PLACEMENT_3D('',#377,#378,#379);
#377 = CARTESIAN_POINT('',(-223.12,-25.,25.75));
#378 = DIRECTION('',(-1.,-0.,0.));
#379 = DIRECTION('',(0.,0.,-1.));
#380 = ADVANCED_FACE('',(#381),#400,.F.);
#381 = FACE_BOUND('',#382,.T.);
#382 = EDGE_LOOP('',(#383,#384,#392,#399));
#383 = ORIENTED_EDGE('',*,*,#88,.T.);
#384 = ORIENTED_EDGE('',*,*,#385,.T.);
#385 = EDGE_CURVE('',#89,#386,#388,.T.);
#386 = VERTEX_POINT('',#387);
#387 = CARTESIAN_POINT('',(-219.62,-25.,47.55));
#388 = LINE('',#389,#390);
#389 = CARTESIAN_POINT('',(-223.12,-25.,47.55));
#390 = VECTOR('',#391,1.);
#391 = DIRECTION('',(1.,0.,0.));
#392 = ORIENTED_EDGE('',*,*,#393,.F.);
#393 = EDGE_CURVE('',#386,#386,#394,.T.);
#394 = CIRCLE('',#395,2.2);
#395 = AXIS2_PLACEMENT_3D('',#396,#397,#398);
#396 = CARTESIAN_POINT('',(-219.62,-25.,49.75));
#397 = DIRECTION('',(-1.,0.,2.2E-16));
#398 = DIRECTION('',(-2.2E-16,0.,-1.));
#399 = ORIENTED_EDGE('',*,*,#385,.F.);
#400 = CYLINDRICAL_SURFACE('',#401,2.2);
#401 = AXIS2_PLACEMENT_3D('',#402,#403,#404);
#402 = CARTESIAN_POINT('',(-223.12,-25.,49.75));
#403 = DIRECTION('',(-1.,-0.,0.));
#404 = DIRECTION('',(0.,0.,-1.));
#405 = ADVANCED_FACE('',(#406,#417,#420,#423,#426),#429,.T.);
#406 = FACE_BOUND('',#407,.T.);
#407 = EDGE_LOOP('',(#408,#414,#415,#416));
#408 = ORIENTED_EDGE('',*,*,#409,.F.);
#409 = EDGE_CURVE('',#147,#288,#410,.T.);
#410 = LINE('',#411,#412);
#411 = CARTESIAN_POINT('',(-219.62,-137.02,61.25));
#412 = VECTOR('',#413,1.);
#413 = DIRECTION('',(0.,1.,0.));
#414 = ORIENTED_EDGE('',*,*,#154,.T.);
#415 = ORIENTED_EDGE('',*,*,#246,.T.);
#416 = ORIENTED_EDGE('',*,*,#295,.F.);
#417 = FACE_BOUND('',#418,.T.);
#418 = EDGE_LOOP('',(#419));
#419 = ORIENTED_EDGE('',*,*,#318,.T.);
#420 = FACE_BOUND('',#421,.T.);
#421 = EDGE_LOOP('',(#422));
#422 = ORIENTED_EDGE('',*,*,#343,.T.);
#423 = FACE_BOUND('',#424,.T.);
#424 = EDGE_LOOP('',(#425));
#425 = ORIENTED_EDGE('',*,*,#368,.T.);
#426 = FACE_BOUND('',#427,.T.);
#427 = EDGE_LOOP('',(#428));
#428 = ORIENTED_EDGE('',*,*,#393,.T.);
#429 = PLANE('',#430);
#430 = AXIS2_PLACEMENT_3D('',#431,#432,#433);
#431 = CARTESIAN_POINT('',(-219.62,-137.02,15.75));
#432 = DIRECTION('',(1.,0.,0.));
#433 = DIRECTION('',(0.,0.,1.));
#434 = ADVANCED_FACE('',(#435,#446,#457,#468,#479),#490,.F.);
#435 = FACE_BOUND('',#436,.F.);
#436 = EDGE_LOOP('',(#437,#438,#439,#445));
#437 = ORIENTED_EDGE('',*,*,#409,.F.);
#438 = ORIENTED_EDGE('',*,*,#146,.T.);
#439 = ORIENTED_EDGE('',*,*,#440,.T.);
#440 = EDGE_CURVE('',#139,#280,#441,.T.);
#441 = LINE('',#442,#443);
#442 = CARTESIAN_POINT('',(-176.62,-137.02,61.25));
#443 = VECTOR('',#444,1.);
#444 = DIRECTION('',(0.,1.,0.));
#445 = ORIENTED_EDGE('',*,*,#287,.F.);
#446 = FACE_BOUND('',#447,.F.);
#447 = EDGE_LOOP('',(#448));
#448 = ORIENTED_EDGE('',*,*,#449,.F.);
#449 = EDGE_CURVE('',#450,#450,#452,.T.);
#450 = VERTEX_POINT('',#451);
#451 = CARTESIAN_POINT('',(-203.92,-124.02,61.25));
#452 = CIRCLE('',#453,2.2);
#453 = AXIS2_PLACEMENT_3D('',#454,#455,#456);
#454 = CARTESIAN_POINT('',(-206.12,-124.02,61.25));
#455 = DIRECTION('',(0.,0.,1.));
#456 = DIRECTION('',(1.,0.,0.));
#457 = FACE_BOUND('',#458,.F.);
#458 = EDGE_LOOP('',(#459));
#459 = ORIENTED_EDGE('',*,*,#460,.F.);
#460 = EDGE_CURVE('',#461,#461,#463,.T.);
#461 = VERTEX_POINT('',#462);
#462 = CARTESIAN_POINT('',(-189.92,-124.02,61.25));
#463 = CIRCLE('',#464,2.2);
#464 = AXIS2_PLACEMENT_3D('',#465,#466,#467);
#465 = CARTESIAN_POINT('',(-192.12,-124.02,61.25));
#466 = DIRECTION('',(0.,0.,1.));
#467 = DIRECTION('',(1.,0.,0.));
#468 = FACE_BOUND('',#469,.F.);
#469 = EDGE_LOOP('',(#470));
#470 = ORIENTED_EDGE('',*,*,#471,.F.);
#471 = EDGE_CURVE('',#472,#472,#474,.T.);
#472 = VERTEX_POINT('',#473);
#473 = CARTESIAN_POINT('',(-203.92,124.02,61.25));
#474 = CIRCLE('',#475,2.2);
#475 = AXIS2_PLACEMENT_3D('',#476,#477,#478);
#476 = CARTESIAN_POINT('',(-206.12,124.02,61.25));
#477 = DIRECTION('',(0.,0.,1.));
#478 = DIRECTION('',(1.,0.,0.));
#479 = FACE_BOUND('',#480,.F.);
#480 = EDGE_LOOP('',(#481));
#481 = ORIENTED_EDGE('',*,*,#482,.F.);
#482 = EDGE_CURVE('',#483,#483,#485,.T.);
#483 = VERTEX_POINT('',#484);
#484 = CARTESIAN_POINT('',(-189.92,124.02,61.25));
#485 = CIRCLE('',#486,2.2);
#486 = AXIS2_PLACEMENT_3D('',#487,#488,#489);
#487 = CARTESIAN_POINT('',(-192.12,124.02,61.25));
#488 = DIRECTION('',(0.,0.,1.));
#489 = DIRECTION('',(1.,0.,0.));
#490 = PLANE('',#491);
#491 = AXIS2_PLACEMENT_3D('',#492,#493,#494);
#492 = CARTESIAN_POINT('',(-219.62,-137.02,61.25));
#493 = DIRECTION('',(0.,0.,1.));
#494 = DIRECTION('',(1.,0.,0.));
#495 = ADVANCED_FACE('',(#496,#507,#518,#529,#540,#551,#562,#573,#584),
  #595,.F.);
#496 = FACE_BOUND('',#497,.F.);
#497 = EDGE_LOOP('',(#498,#499,#500,#506));
#498 = ORIENTED_EDGE('',*,*,#440,.F.);
#499 = ORIENTED_EDGE('',*,*,#138,.T.);
#500 = ORIENTED_EDGE('',*,*,#501,.T.);
#501 = EDGE_CURVE('',#131,#272,#502,.T.);
#502 = LINE('',#503,#504);
#503 = CARTESIAN_POINT('',(-176.62,-137.02,15.75));
#504 = VECTOR('',#505,1.);
#505 = DIRECTION('',(0.,1.,0.));
#506 = ORIENTED_EDGE('',*,*,#279,.F.);
#507 = FACE_BOUND('',#508,.F.);
#508 = EDGE_LOOP('',(#509));
#509 = ORIENTED_EDGE('',*,*,#510,.T.);
#510 = EDGE_CURVE('',#511,#511,#513,.T.);
#511 = VERTEX_POINT('',#512);
#512 = CARTESIAN_POINT('',(-176.62,122.02,17.8));
#513 = CIRCLE('',#514,2.2);
#514 = AXIS2_PLACEMENT_3D('',#515,#516,#517);
#515 = CARTESIAN_POINT('',(-176.62,122.02,20.));
#516 = DIRECTION('',(-1.,0.,2.2E-16));
#517 = DIRECTION('',(-2.2E-16,0.,-1.));
#518 = FACE_BOUND('',#519,.F.);
#519 = EDGE_LOOP('',(#520));
#520 = ORIENTED_EDGE('',*,*,#521,.T.);
#521 = EDGE_CURVE('',#522,#522,#524,.T.);
#522 = VERTEX_POINT('',#523);
#523 = CARTESIAN_POINT('',(-176.62,106.02,17.8));
#524 = CIRCLE('',#525,2.2);
#525 = AXIS2_PLACEMENT_3D('',#526,#527,#528);
#526 = CARTESIAN_POINT('',(-176.62,106.02,20.));
#527 = DIRECTION('',(-1.,0.,2.2E-16));
#528 = DIRECTION('',(-2.2E-16,0.,-1.));
#529 = FACE_BOUND('',#530,.F.);
#530 = EDGE_LOOP('',(#531));
#531 = ORIENTED_EDGE('',*,*,#532,.T.);
#532 = EDGE_CURVE('',#533,#533,#535,.T.);
#533 = VERTEX_POINT('',#534);
#534 = CARTESIAN_POINT('',(-176.62,122.02,30.55));
#535 = CIRCLE('',#536,2.2);
#536 = AXIS2_PLACEMENT_3D('',#537,#538,#539);
#537 = CARTESIAN_POINT('',(-176.62,122.02,32.75));
#538 = DIRECTION('',(-1.,0.,2.2E-16));
#539 = DIRECTION('',(-2.2E-16,0.,-1.));
#540 = FACE_BOUND('',#541,.F.);
#541 = EDGE_LOOP('',(#542));
#542 = ORIENTED_EDGE('',*,*,#543,.T.);
#543 = EDGE_CURVE('',#544,#544,#546,.T.);
#544 = VERTEX_POINT('',#545);
#545 = CARTESIAN_POINT('',(-176.62,106.02,30.55));
#546 = CIRCLE('',#547,2.2);
#547 = AXIS2_PLACEMENT_3D('',#548,#549,#550);
#548 = CARTESIAN_POINT('',(-176.62,106.02,32.75));
#549 = DIRECTION('',(-1.,0.,2.2E-16));
#550 = DIRECTION('',(-2.2E-16,0.,-1.));
#551 = FACE_BOUND('',#552,.F.);
#552 = EDGE_LOOP('',(#553));
#553 = ORIENTED_EDGE('',*,*,#554,.T.);
#554 = EDGE_CURVE('',#555,#555,#557,.T.);
#555 = VERTEX_POINT('',#556);
#556 = CARTESIAN_POINT('',(-176.62,-106.02,17.8));
#557 = CIRCLE('',#558,2.2);
#558 = AXIS2_PLACEMENT_3D('',#559,#560,#561);
#559 = CARTESIAN_POINT('',(-176.62,-106.02,20.));
#560 = DIRECTION('',(-1.,0.,2.2E-16));
#561 = DIRECTION('',(-2.2E-16,0.,-1.));
#562 = FACE_BOUND('',#563,.F.);
#563 = EDGE_LOOP('',(#564));
#564 = ORIENTED_EDGE('',*,*,#565,.T.);
#565 = EDGE_CURVE('',#566,#566,#568,.T.);
#566 = VERTEX_POINT('',#567);
#567 = CARTESIAN_POINT('',(-176.62,-122.02,17.8));
#568 = CIRCLE('',#569,2.2);
#569 = AXIS2_PLACEMENT_3D('',#570,#571,#572);
#570 = CARTESIAN_POINT('',(-176.62,-122.02,20.));
#571 = DIRECTION('',(-1.,0.,2.2E-16));
#572 = DIRECTION('',(-2.2E-16,0.,-1.));
#573 = FACE_BOUND('',#574,.F.);
#574 = EDGE_LOOP('',(#575));
#575 = ORIENTED_EDGE('',*,*,#576,.T.);
#576 = EDGE_CURVE('',#577,#577,#579,.T.);
#577 = VERTEX_POINT('',#578);
#578 = CARTESIAN_POINT('',(-176.62,-106.02,30.55));
#579 = CIRCLE('',#580,2.2);
#580 = AXIS2_PLACEMENT_3D('',#581,#582,#583);
#581 = CARTESIAN_POINT('',(-176.62,-106.02,32.75));
#582 = DIRECTION('',(-1.,0.,2.2E-16));
#583 = DIRECTION('',(-2.2E-16,0.,-1.));
#584 = FACE_BOUND('',#585,.F.);
#585 = EDGE_LOOP('',(#586));
#586 = ORIENTED_EDGE('',*,*,#587,.T.);
#587 = EDGE_CURVE('',#588,#588,#590,.T.);
#588 = VERTEX_POINT('',#589);
#589 = CARTESIAN_POINT('',(-176.62,-122.02,30.55));
#590 = CIRCLE('',#591,2.2);
#591 = AXIS2_PLACEMENT_3D('',#592,#593,#594);
#592 = CARTESIAN_POINT('',(-176.62,-122.02,32.75));
#593 = DIRECTION('',(-1.,0.,2.2E-16));
#594 = DIRECTION('',(-2.2E-16,0.,-1.));
#595 = PLANE('',#596);
#596 = AXIS2_PLACEMENT_3D('',#597,#598,#599);
#597 = CARTESIAN_POINT('',(-176.62,-137.02,15.75));
#598 = DIRECTION('',(1.,0.,0.));
#599 = DIRECTION('',(0.,0.,1.));
#600 = ADVANCED_FACE('',(#601),#612,.F.);
#601 = FACE_BOUND('',#602,.F.);
#602 = EDGE_LOOP('',(#603,#604,#605,#606));
#603 = ORIENTED_EDGE('',*,*,#271,.F.);
#604 = ORIENTED_EDGE('',*,*,#501,.F.);
#605 = ORIENTED_EDGE('',*,*,#130,.T.);
#606 = ORIENTED_EDGE('',*,*,#607,.T.);
#607 = EDGE_CURVE('',#123,#264,#608,.T.);
#608 = LINE('',#609,#610);
#609 = CARTESIAN_POINT('',(-174.12,-136.02,15.75));
#610 = VECTOR('',#611,1.);
#611 = DIRECTION('',(0.,1.,0.));
#612 = PLANE('',#613);
#613 = AXIS2_PLACEMENT_3D('',#614,#615,#616);
#614 = CARTESIAN_POINT('',(-222.12,-136.02,15.75));
#615 = DIRECTION('',(0.,0.,1.));
#616 = DIRECTION('',(1.,0.,0.));
#617 = ADVANCED_FACE('',(#618,#624,#635,#646,#657,#668,#679,#690,#701),
  #712,.T.);
#618 = FACE_BOUND('',#619,.T.);
#619 = EDGE_LOOP('',(#620,#621,#622,#623));
#620 = ORIENTED_EDGE('',*,*,#122,.F.);
#621 = ORIENTED_EDGE('',*,*,#607,.T.);
#622 = ORIENTED_EDGE('',*,*,#263,.T.);
#623 = ORIENTED_EDGE('',*,*,#170,.F.);
#624 = FACE_BOUND('',#625,.T.);
#625 = EDGE_LOOP('',(#626));
#626 = ORIENTED_EDGE('',*,*,#627,.T.);
#627 = EDGE_CURVE('',#628,#628,#630,.T.);
#628 = VERTEX_POINT('',#629);
#629 = CARTESIAN_POINT('',(-174.12,122.02,17.8));
#630 = CIRCLE('',#631,2.2);
#631 = AXIS2_PLACEMENT_3D('',#632,#633,#634);
#632 = CARTESIAN_POINT('',(-174.12,122.02,20.));
#633 = DIRECTION('',(-1.,0.,2.2E-16));
#634 = DIRECTION('',(-2.2E-16,0.,-1.));
#635 = FACE_BOUND('',#636,.T.);
#636 = EDGE_LOOP('',(#637));
#637 = ORIENTED_EDGE('',*,*,#638,.T.);
#638 = EDGE_CURVE('',#639,#639,#641,.T.);
#639 = VERTEX_POINT('',#640);
#640 = CARTESIAN_POINT('',(-174.12,106.02,17.8));
#641 = CIRCLE('',#642,2.2);
#642 = AXIS2_PLACEMENT_3D('',#643,#644,#645);
#643 = CARTESIAN_POINT('',(-174.12,106.02,20.));
#644 = DIRECTION('',(-1.,0.,2.2E-16));
#645 = DIRECTION('',(-2.2E-16,0.,-1.));
#646 = FACE_BOUND('',#647,.T.);
#647 = EDGE_LOOP('',(#648));
#648 = ORIENTED_EDGE('',*,*,#649,.T.);
#649 = EDGE_CURVE('',#650,#650,#652,.T.);
#650 = VERTEX_POINT('',#651);
#651 = CARTESIAN_POINT('',(-174.12,122.02,30.55));
#652 = CIRCLE('',#653,2.2);
#653 = AXIS2_PLACEMENT_3D('',#654,#655,#656);
#654 = CARTESIAN_POINT('',(-174.12,122.02,32.75));
#655 = DIRECTION('',(-1.,0.,2.2E-16));
#656 = DIRECTION('',(-2.2E-16,0.,-1.));
#657 = FACE_BOUND('',#658,.T.);
#658 = EDGE_LOOP('',(#659));
#659 = ORIENTED_EDGE('',*,*,#660,.T.);
#660 = EDGE_CURVE('',#661,#661,#663,.T.);
#661 = VERTEX_POINT('',#662);
#662 = CARTESIAN_POINT('',(-174.12,106.02,30.55));
#663 = CIRCLE('',#664,2.2);
#664 = AXIS2_PLACEMENT_3D('',#665,#666,#667);
#665 = CARTESIAN_POINT('',(-174.12,106.02,32.75));
#666 = DIRECTION('',(-1.,0.,2.2E-16));
#667 = DIRECTION('',(-2.2E-16,0.,-1.));
#668 = FACE_BOUND('',#669,.T.);
#669 = EDGE_LOOP('',(#670));
#670 = ORIENTED_EDGE('',*,*,#671,.T.);
#671 = EDGE_CURVE('',#672,#672,#674,.T.);
#672 = VERTEX_POINT('',#673);
#673 = CARTESIAN_POINT('',(-174.12,-106.02,17.8));
#674 = CIRCLE('',#675,2.2);
#675 = AXIS2_PLACEMENT_3D('',#676,#677,#678);
#676 = CARTESIAN_POINT('',(-174.12,-106.02,20.));
#677 = DIRECTION('',(-1.,0.,2.2E-16));
#678 = DIRECTION('',(-2.2E-16,0.,-1.));
#679 = FACE_BOUND('',#680,.T.);
#680 = EDGE_LOOP('',(#681));
#681 = ORIENTED_EDGE('',*,*,#682,.T.);
#682 = EDGE_CURVE('',#683,#683,#685,.T.);
#683 = VERTEX_POINT('',#684);
#684 = CARTESIAN_POINT('',(-174.12,-122.02,17.8));
#685 = CIRCLE('',#686,2.2);
#686 = AXIS2_PLACEMENT_3D('',#687,#688,#689);
#687 = CARTESIAN_POINT('',(-174.12,-122.02,20.));
#688 = DIRECTION('',(-1.,0.,2.2E-16));
#689 = DIRECTION('',(-2.2E-16,0.,-1.));
#690 = FACE_BOUND('',#691,.T.);
#691 = EDGE_LOOP('',(#692));
#692 = ORIENTED_EDGE('',*,*,#693,.T.);
#693 = EDGE_CURVE('',#694,#694,#696,.T.);
#694 = VERTEX_POINT('',#695);
#695 = CARTESIAN_POINT('',(-174.12,-106.02,30.55));
#696 = CIRCLE('',#697,2.2);
#697 = AXIS2_PLACEMENT_3D('',#698,#699,#700);
#698 = CARTESIAN_POINT('',(-174.12,-106.02,32.75));
#699 = DIRECTION('',(-1.,0.,2.2E-16));
#700 = DIRECTION('',(-2.2E-16,0.,-1.));
#701 = FACE_BOUND('',#702,.T.);
#702 = EDGE_LOOP('',(#703));
#703 = ORIENTED_EDGE('',*,*,#704,.T.);
#704 = EDGE_CURVE('',#705,#705,#707,.T.);
#705 = VERTEX_POINT('',#706);
#706 = CARTESIAN_POINT('',(-174.12,-122.02,30.55));
#707 = CIRCLE('',#708,2.2);
#708 = AXIS2_PLACEMENT_3D('',#709,#710,#711);
#709 = CARTESIAN_POINT('',(-174.12,-122.02,32.75));
#710 = DIRECTION('',(-1.,0.,2.2E-16));
#711 = DIRECTION('',(-2.2E-16,0.,-1.));
#712 = PLANE('',#713);
#713 = AXIS2_PLACEMENT_3D('',#714,#715,#716);
#714 = CARTESIAN_POINT('',(-174.12,-136.02,15.75));
#715 = DIRECTION('',(1.,0.,0.));
#716 = DIRECTION('',(0.,0.,1.));
#717 = ADVANCED_FACE('',(#718),#729,.F.);
#718 = FACE_BOUND('',#719,.T.);
#719 = EDGE_LOOP('',(#720,#721,#727,#728));
#720 = ORIENTED_EDGE('',*,*,#449,.F.);
#721 = ORIENTED_EDGE('',*,*,#722,.T.);
#722 = EDGE_CURVE('',#450,#187,#723,.T.);
#723 = LINE('',#724,#725);
#724 = CARTESIAN_POINT('',(-203.92,-124.02,61.25));
#725 = VECTOR('',#726,1.);
#726 = DIRECTION('',(0.,0.,1.));
#727 = ORIENTED_EDGE('',*,*,#186,.F.);
#728 = ORIENTED_EDGE('',*,*,#722,.F.);
#729 = CYLINDRICAL_SURFACE('',#730,2.2);
#730 = AXIS2_PLACEMENT_3D('',#731,#732,#733);
#731 = CARTESIAN_POINT('',(-206.12,-124.02,61.25));
#732 = DIRECTION('',(-0.,-0.,-1.));
#733 = DIRECTION('',(1.,0.,0.));
#734 = ADVANCED_FACE('',(#735),#746,.F.);
#735 = FACE_BOUND('',#736,.T.);
#736 = EDGE_LOOP('',(#737,#738,#744,#745));
#737 = ORIENTED_EDGE('',*,*,#460,.F.);
#738 = ORIENTED_EDGE('',*,*,#739,.T.);
#739 = EDGE_CURVE('',#461,#198,#740,.T.);
#740 = LINE('',#741,#742);
#741 = CARTESIAN_POINT('',(-189.92,-124.02,61.25));
#742 = VECTOR('',#743,1.);
#743 = DIRECTION('',(0.,0.,1.));
#744 = ORIENTED_EDGE('',*,*,#197,.F.);
#745 = ORIENTED_EDGE('',*,*,#739,.F.);
#746 = CYLINDRICAL_SURFACE('',#747,2.2);
#747 = AXIS2_PLACEMENT_3D('',#748,#749,#750);
#748 = CARTESIAN_POINT('',(-192.12,-124.02,61.25));
#749 = DIRECTION('',(-0.,-0.,-1.));
#750 = DIRECTION('',(1.,0.,0.));
#751 = ADVANCED_FACE('',(#752),#763,.F.);
#752 = FACE_BOUND('',#753,.T.);
#753 = EDGE_LOOP('',(#754,#755,#761,#762));
#754 = ORIENTED_EDGE('',*,*,#471,.F.);
#755 = ORIENTED_EDGE('',*,*,#756,.T.);
#756 = EDGE_CURVE('',#472,#209,#757,.T.);
#757 = LINE('',#758,#759);
#758 = CARTESIAN_POINT('',(-203.92,124.02,61.25));
#759 = VECTOR('',#760,1.);
#760 = DIRECTION('',(0.,0.,1.));
#761 = ORIENTED_EDGE('',*,*,#208,.F.);
#762 = ORIENTED_EDGE('',*,*,#756,.F.);
#763 = CYLINDRICAL_SURFACE('',#764,2.2);
#764 = AXIS2_PLACEMENT_3D('',#765,#766,#767);
#765 = CARTESIAN_POINT('',(-206.12,124.02,61.25));
#766 = DIRECTION('',(-0.,-0.,-1.));
#767 = DIRECTION('',(1.,0.,0.));
#768 = ADVANCED_FACE('',(#769),#780,.F.);
#769 = FACE_BOUND('',#770,.T.);
#770 = EDGE_LOOP('',(#771,#772,#778,#779));
#771 = ORIENTED_EDGE('',*,*,#482,.F.);
#772 = ORIENTED_EDGE('',*,*,#773,.T.);
#773 = EDGE_CURVE('',#483,#220,#774,.T.);
#774 = LINE('',#775,#776);
#775 = CARTESIAN_POINT('',(-189.92,124.02,61.25));
#776 = VECTOR('',#777,1.);
#777 = DIRECTION('',(0.,0.,1.));
#778 = ORIENTED_EDGE('',*,*,#219,.F.);
#779 = ORIENTED_EDGE('',*,*,#773,.F.);
#780 = CYLINDRICAL_SURFACE('',#781,2.2);
#781 = AXIS2_PLACEMENT_3D('',#782,#783,#784);
#782 = CARTESIAN_POINT('',(-192.12,124.02,61.25));
#783 = DIRECTION('',(-0.,-0.,-1.));
#784 = DIRECTION('',(1.,0.,0.));
#785 = ADVANCED_FACE('',(#786),#797,.F.);
#786 = FACE_BOUND('',#787,.T.);
#787 = EDGE_LOOP('',(#788,#794,#795,#796));
#788 = ORIENTED_EDGE('',*,*,#789,.F.);
#789 = EDGE_CURVE('',#511,#628,#790,.T.);
#790 = LINE('',#791,#792);
#791 = CARTESIAN_POINT('',(-177.62,122.02,17.8));
#792 = VECTOR('',#793,1.);
#793 = DIRECTION('',(1.,0.,0.));
#794 = ORIENTED_EDGE('',*,*,#510,.T.);
#795 = ORIENTED_EDGE('',*,*,#789,.T.);
#796 = ORIENTED_EDGE('',*,*,#627,.F.);
#797 = CYLINDRICAL_SURFACE('',#798,2.2);
#798 = AXIS2_PLACEMENT_3D('',#799,#800,#801);
#799 = CARTESIAN_POINT('',(-177.62,122.02,20.));
#800 = DIRECTION('',(-1.,-0.,0.));
#801 = DIRECTION('',(0.,0.,-1.));
#802 = ADVANCED_FACE('',(#803),#814,.F.);
#803 = FACE_BOUND('',#804,.T.);
#804 = EDGE_LOOP('',(#805,#811,#812,#813));
#805 = ORIENTED_EDGE('',*,*,#806,.F.);
#806 = EDGE_CURVE('',#522,#639,#807,.T.);
#807 = LINE('',#808,#809);
#808 = CARTESIAN_POINT('',(-177.62,106.02,17.8));
#809 = VECTOR('',#810,1.);
#810 = DIRECTION('',(1.,0.,0.));
#811 = ORIENTED_EDGE('',*,*,#521,.T.);
#812 = ORIENTED_EDGE('',*,*,#806,.T.);
#813 = ORIENTED_EDGE('',*,*,#638,.F.);
#814 = CYLINDRICAL_SURFACE('',#815,2.2);
#815 = AXIS2_PLACEMENT_3D('',#816,#817,#818);
#816 = CARTESIAN_POINT('',(-177.62,106.02,20.));
#817 = DIRECTION('',(-1.,-0.,0.));
#818 = DIRECTION('',(0.,0.,-1.));
#819 = ADVANCED_FACE('',(#820),#831,.F.);
#820 = FACE_BOUND('',#821,.T.);
#821 = EDGE_LOOP('',(#822,#828,#829,#830));
#822 = ORIENTED_EDGE('',*,*,#823,.F.);
#823 = EDGE_CURVE('',#533,#650,#824,.T.);
#824 = LINE('',#825,#826);
#825 = CARTESIAN_POINT('',(-177.62,122.02,30.55));
#826 = VECTOR('',#827,1.);
#827 = DIRECTION('',(1.,0.,0.));
#828 = ORIENTED_EDGE('',*,*,#532,.T.);
#829 = ORIENTED_EDGE('',*,*,#823,.T.);
#830 = ORIENTED_EDGE('',*,*,#649,.F.);
#831 = CYLINDRICAL_SURFACE('',#832,2.2);
#832 = AXIS2_PLACEMENT_3D('',#833,#834,#835);
#833 = CARTESIAN_POINT('',(-177.62,122.02,32.75));
#834 = DIRECTION('',(-1.,-0.,0.));
#835 = DIRECTION('',(0.,0.,-1.));
#836 = ADVANCED_FACE('',(#837),#848,.F.);
#837 = FACE_BOUND('',#838,.T.);
#838 = EDGE_LOOP('',(#839,#845,#846,#847));
#839 = ORIENTED_EDGE('',*,*,#840,.F.);
#840 = EDGE_CURVE('',#544,#661,#841,.T.);
#841 = LINE('',#842,#843);
#842 = CARTESIAN_POINT('',(-177.62,106.02,30.55));
#843 = VECTOR('',#844,1.);
#844 = DIRECTION('',(1.,0.,0.));
#845 = ORIENTED_EDGE('',*,*,#543,.T.);
#846 = ORIENTED_EDGE('',*,*,#840,.T.);
#847 = ORIENTED_EDGE('',*,*,#660,.F.);
#848 = CYLINDRICAL_SURFACE('',#849,2.2);
#849 = AXIS2_PLACEMENT_3D('',#850,#851,#852);
#850 = CARTESIAN_POINT('',(-177.62,106.02,32.75));
#851 = DIRECTION('',(-1.,-0.,0.));
#852 = DIRECTION('',(0.,0.,-1.));
#853 = ADVANCED_FACE('',(#854),#865,.F.);
#854 = FACE_BOUND('',#855,.T.);
#855 = EDGE_LOOP('',(#856,#862,#863,#864));
#856 = ORIENTED_EDGE('',*,*,#857,.F.);
#857 = EDGE_CURVE('',#555,#672,#858,.T.);
#858 = LINE('',#859,#860);
#859 = CARTESIAN_POINT('',(-177.62,-106.02,17.8));
#860 = VECTOR('',#861,1.);
#861 = DIRECTION('',(1.,0.,0.));
#862 = ORIENTED_EDGE('',*,*,#554,.T.);
#863 = ORIENTED_EDGE('',*,*,#857,.T.);
#864 = ORIENTED_EDGE('',*,*,#671,.F.);
#865 = CYLINDRICAL_SURFACE('',#866,2.2);
#866 = AXIS2_PLACEMENT_3D('',#867,#868,#869);
#867 = CARTESIAN_POINT('',(-177.62,-106.02,20.));
#868 = DIRECTION('',(-1.,-0.,0.));
#869 = DIRECTION('',(0.,0.,-1.));
#870 = ADVANCED_FACE('',(#871),#882,.F.);
#871 = FACE_BOUND('',#872,.T.);
#872 = EDGE_LOOP('',(#873,#879,#880,#881));
#873 = ORIENTED_EDGE('',*,*,#874,.F.);
#874 = EDGE_CURVE('',#566,#683,#875,.T.);
#875 = LINE('',#876,#877);
#876 = CARTESIAN_POINT('',(-177.62,-122.02,17.8));
#877 = VECTOR('',#878,1.);
#878 = DIRECTION('',(1.,0.,0.));
#879 = ORIENTED_EDGE('',*,*,#565,.T.);
#880 = ORIENTED_EDGE('',*,*,#874,.T.);
#881 = ORIENTED_EDGE('',*,*,#682,.F.);
#882 = CYLINDRICAL_SURFACE('',#883,2.2);
#883 = AXIS2_PLACEMENT_3D('',#884,#885,#886);
#884 = CARTESIAN_POINT('',(-177.62,-122.02,20.));
#885 = DIRECTION('',(-1.,-0.,0.));
#886 = DIRECTION('',(0.,0.,-1.));
#887 = ADVANCED_FACE('',(#888),#899,.F.);
#888 = FACE_BOUND('',#889,.T.);
#889 = EDGE_LOOP('',(#890,#896,#897,#898));
#890 = ORIENTED_EDGE('',*,*,#891,.F.);
#891 = EDGE_CURVE('',#577,#694,#892,.T.);
#892 = LINE('',#893,#894);
#893 = CARTESIAN_POINT('',(-177.62,-106.02,30.55));
#894 = VECTOR('',#895,1.);
#895 = DIRECTION('',(1.,0.,0.));
#896 = ORIENTED_EDGE('',*,*,#576,.T.);
#897 = ORIENTED_EDGE('',*,*,#891,.T.);
#898 = ORIENTED_EDGE('',*,*,#693,.F.);
#899 = CYLINDRICAL_SURFACE('',#900,2.2);
#900 = AXIS2_PLACEMENT_3D('',#901,#902,#903);
#901 = CARTESIAN_POINT('',(-177.62,-106.02,32.75));
#902 = DIRECTION('',(-1.,-0.,0.));
#903 = DIRECTION('',(0.,0.,-1.));
#904 = ADVANCED_FACE('',(#905),#916,.F.);
#905 = FACE_BOUND('',#906,.T.);
#906 = EDGE_LOOP('',(#907,#913,#914,#915));
#907 = ORIENTED_EDGE('',*,*,#908,.F.);
#908 = EDGE_CURVE('',#588,#705,#909,.T.);
#909 = LINE('',#910,#911);
#910 = CARTESIAN_POINT('',(-177.62,-122.02,30.55));
#911 = VECTOR('',#912,1.);
#912 = DIRECTION('',(1.,0.,0.));
#913 = ORIENTED_EDGE('',*,*,#587,.T.);
#914 = ORIENTED_EDGE('',*,*,#908,.T.);
#915 = ORIENTED_EDGE('',*,*,#704,.F.);
#916 = CYLINDRICAL_SURFACE('',#917,2.2);
#917 = AXIS2_PLACEMENT_3D('',#918,#919,#920);
#918 = CARTESIAN_POINT('',(-177.62,-122.02,32.75));
#919 = DIRECTION('',(-1.,-0.,0.));
#920 = DIRECTION('',(0.,0.,-1.));
#921 = ( GEOMETRIC_REPRESENTATION_CONTEXT(3) 
GLOBAL_UNCERTAINTY_ASSIGNED_CONTEXT((#925)) GLOBAL_UNIT_ASSIGNED_CONTEXT
((#922,#923,#924)) REPRESENTATION_CONTEXT('Context #1',
  '3D Context with UNIT and UNCERTAINTY') );
#922 = ( LENGTH_UNIT() NAMED_UNIT(*) SI_UNIT(.MILLI.,.METRE.) );
#923 = ( NAMED_UNIT(*) PLANE_ANGLE_UNIT() SI_UNIT($,.RADIAN.) );
#924 = ( NAMED_UNIT(*) SI_UNIT($,.STERADIAN.) SOLID_ANGLE_UNIT() );
#925 = UNCERTAINTY_MEASURE_WITH_UNIT(LENGTH_MEASURE(2.E-05),#922,
  'distance_accuracy_value','confusion accuracy');
#926 = PRODUCT_RELATED_PRODUCT_CATEGORY('part',$,(#7));
ENDSEC;
END-ISO-10303-21;
