ISO-10303-21;
HEADER;
FILE_DESCRIPTION(('FreeCAD Model'),'2;1');
FILE_NAME('Open CASCADE Shape Model','2026-09-28T03:26:13',('Author'),(
    ''),'Open CASCADE STEP processor 7.8','FreeCAD','Unknown');
FILE_SCHEMA(('AUTOMOTIVE_DESIGN { 1 0 10303 214 1 1 1 1 }'));
ENDSEC;
DATA;
#1 = APPLICATION_PROTOCOL_DEFINITION('international standard',
  'automotive_design',2000,#2);
#2 = APPLICATION_CONTEXT(
  'core data for automotive mechanical design processes');
#3 = SHAPE_DEFINITION_REPRESENTATION(#4,#10);
#4 = PRODUCT_DEFINITION_SHAPE('','',#5);
#5 = PRODUCT_DEFINITION('design','',#6,#9);
#6 = PRODUCT_DEFINITION_FORMATION('','',#7);
#7 = PRODUCT('FRAME_CROWN_F','FRAME_CROWN_F','',(#8));
#8 = PRODUCT_CONTEXT('',#2,'mechanical');
#9 = PRODUCT_DEFINITION_CONTEXT('part definition',#2,'design');
#10 = ADVANCED_BREP_SHAPE_REPRESENTATION('',(#11,#15),#921);
#11 = AXIS2_PLACEMENT_3D('',#12,#13,#14);
#12 = CARTESIAN_POINT('',(0.,0.,0.));
#13 = DIRECTION('',(0.,0.,1.));
#14 = DIRECTION('',(1.,0.,-0.));
#15 = MANIFOLD_SOLID_BREP('',#16);
#16 = CLOSED_SHELL('',(#17,#145,#208,#232,#256,#305,#330,#355,#380,#405,
    #430,#455,#480,#505,#546,#563,#668,#685,#785,#802,#819,#836,#853,
    #870,#887,#904));
#17 = ADVANCED_FACE('',(#18,#52,#63,#74,#85,#96,#107,#118,#129),#140,.F.
  );
#18 = FACE_BOUND('',#19,.F.);
#19 = EDGE_LOOP('',(#20,#30,#38,#46));
#20 = ORIENTED_EDGE('',*,*,#21,.F.);
#21 = EDGE_CURVE('',#22,#24,#26,.T.);
#22 = VERTEX_POINT('',#23);
#23 = CARTESIAN_POINT('',(174.12,-136.02,133.48));
#24 = VERTEX_POINT('',#25);
#25 = CARTESIAN_POINT('',(174.12,-136.02,181.48));
#26 = LINE('',#27,#28);
#27 = CARTESIAN_POINT('',(174.12,-136.02,133.48));
#28 = VECTOR('',#29,1.);
#29 = DIRECTION('',(0.,0.,1.));
#30 = ORIENTED_EDGE('',*,*,#31,.T.);
#31 = EDGE_CURVE('',#22,#32,#34,.T.);
#32 = VERTEX_POINT('',#33);
#33 = CARTESIAN_POINT('',(174.12,136.02,133.48));
#34 = LINE('',#35,#36);
#35 = CARTESIAN_POINT('',(174.12,-136.02,133.48));
#36 = VECTOR('',#37,1.);
#37 = DIRECTION('',(0.,1.,0.));
#38 = ORIENTED_EDGE('',*,*,#39,.T.);
#39 = EDGE_CURVE('',#32,#40,#42,.T.);
#40 = VERTEX_POINT('',#41);
#41 = CARTESIAN_POINT('',(174.12,136.02,181.48));
#42 = LINE('',#43,#44);
#43 = CARTESIAN_POINT('',(174.12,136.02,133.48));
#44 = VECTOR('',#45,1.);
#45 = DIRECTION('',(0.,0.,1.));
#46 = ORIENTED_EDGE('',*,*,#47,.F.);
#47 = EDGE_CURVE('',#24,#40,#48,.T.);
#48 = LINE('',#49,#50);
#49 = CARTESIAN_POINT('',(174.12,-136.02,181.48));
#50 = VECTOR('',#51,1.);
#51 = DIRECTION('',(0.,1.,0.));
#52 = FACE_BOUND('',#53,.F.);
#53 = EDGE_LOOP('',(#54));
#54 = ORIENTED_EDGE('',*,*,#55,.T.);
#55 = EDGE_CURVE('',#56,#56,#58,.T.);
#56 = VERTEX_POINT('',#57);
#57 = CARTESIAN_POINT('',(174.12,127.02,147.28));
#58 = CIRCLE('',#59,2.2);
#59 = AXIS2_PLACEMENT_3D('',#60,#61,#62);
#60 = CARTESIAN_POINT('',(174.12,127.02,149.48));
#61 = DIRECTION('',(-1.,0.,2.2E-16));
#62 = DIRECTION('',(-2.2E-16,0.,-1.));
#63 = FACE_BOUND('',#64,.F.);
#64 = EDGE_LOOP('',(#65));
#65 = ORIENTED_EDGE('',*,*,#66,.T.);
#66 = EDGE_CURVE('',#67,#67,#69,.T.);
#67 = VERTEX_POINT('',#68);
#68 = CARTESIAN_POINT('',(174.12,111.02,147.28));
#69 = CIRCLE('',#70,2.2);
#70 = AXIS2_PLACEMENT_3D('',#71,#72,#73);
#71 = CARTESIAN_POINT('',(174.12,111.02,149.48));
#72 = DIRECTION('',(-1.,0.,2.2E-16));
#73 = DIRECTION('',(-2.2E-16,0.,-1.));
#74 = FACE_BOUND('',#75,.F.);
#75 = EDGE_LOOP('',(#76));
#76 = ORIENTED_EDGE('',*,*,#77,.T.);
#77 = EDGE_CURVE('',#78,#78,#80,.T.);
#78 = VERTEX_POINT('',#79);
#79 = CARTESIAN_POINT('',(174.12,127.02,167.28));
#80 = CIRCLE('',#81,2.2);
#81 = AXIS2_PLACEMENT_3D('',#82,#83,#84);
#82 = CARTESIAN_POINT('',(174.12,127.02,169.48));
#83 = DIRECTION('',(-1.,0.,2.2E-16));
#84 = DIRECTION('',(-2.2E-16,0.,-1.));
#85 = FACE_BOUND('',#86,.F.);
#86 = EDGE_LOOP('',(#87));
#87 = ORIENTED_EDGE('',*,*,#88,.T.);
#88 = EDGE_CURVE('',#89,#89,#91,.T.);
#89 = VERTEX_POINT('',#90);
#90 = CARTESIAN_POINT('',(174.12,111.02,167.28));
#91 = CIRCLE('',#92,2.2);
#92 = AXIS2_PLACEMENT_3D('',#93,#94,#95);
#93 = CARTESIAN_POINT('',(174.12,111.02,169.48));
#94 = DIRECTION('',(-1.,0.,2.2E-16));
#95 = DIRECTION('',(-2.2E-16,0.,-1.));
#96 = FACE_BOUND('',#97,.F.);
#97 = EDGE_LOOP('',(#98));
#98 = ORIENTED_EDGE('',*,*,#99,.T.);
#99 = EDGE_CURVE('',#100,#100,#102,.T.);
#100 = VERTEX_POINT('',#101);
#101 = CARTESIAN_POINT('',(174.12,-111.02,147.28));
#102 = CIRCLE('',#103,2.2);
#103 = AXIS2_PLACEMENT_3D('',#104,#105,#106);
#104 = CARTESIAN_POINT('',(174.12,-111.02,149.48));
#105 = DIRECTION('',(-1.,0.,2.2E-16));
#106 = DIRECTION('',(-2.2E-16,0.,-1.));
#107 = FACE_BOUND('',#108,.F.);
#108 = EDGE_LOOP('',(#109));
#109 = ORIENTED_EDGE('',*,*,#110,.T.);
#110 = EDGE_CURVE('',#111,#111,#113,.T.);
#111 = VERTEX_POINT('',#112);
#112 = CARTESIAN_POINT('',(174.12,-127.02,147.28));
#113 = CIRCLE('',#114,2.2);
#114 = AXIS2_PLACEMENT_3D('',#115,#116,#117);
#115 = CARTESIAN_POINT('',(174.12,-127.02,149.48));
#116 = DIRECTION('',(-1.,0.,2.2E-16));
#117 = DIRECTION('',(-2.2E-16,0.,-1.));
#118 = FACE_BOUND('',#119,.F.);
#119 = EDGE_LOOP('',(#120));
#120 = ORIENTED_EDGE('',*,*,#121,.T.);
#121 = EDGE_CURVE('',#122,#122,#124,.T.);
#122 = VERTEX_POINT('',#123);
#123 = CARTESIAN_POINT('',(174.12,-111.02,167.28));
#124 = CIRCLE('',#125,2.2);
#125 = AXIS2_PLACEMENT_3D('',#126,#127,#128);
#126 = CARTESIAN_POINT('',(174.12,-111.02,169.48));
#127 = DIRECTION('',(-1.,0.,2.2E-16));
#128 = DIRECTION('',(-2.2E-16,0.,-1.));
#129 = FACE_BOUND('',#130,.F.);
#130 = EDGE_LOOP('',(#131));
#131 = ORIENTED_EDGE('',*,*,#132,.T.);
#132 = EDGE_CURVE('',#133,#133,#135,.T.);
#133 = VERTEX_POINT('',#134);
#134 = CARTESIAN_POINT('',(174.12,-127.02,167.28));
#135 = CIRCLE('',#136,2.2);
#136 = AXIS2_PLACEMENT_3D('',#137,#138,#139);
#137 = CARTESIAN_POINT('',(174.12,-127.02,169.48));
#138 = DIRECTION('',(-1.,0.,2.2E-16));
#139 = DIRECTION('',(-2.2E-16,0.,-1.));
#140 = PLANE('',#141);
#141 = AXIS2_PLACEMENT_3D('',#142,#143,#144);
#142 = CARTESIAN_POINT('',(174.12,-136.02,133.48));
#143 = DIRECTION('',(1.,0.,0.));
#144 = DIRECTION('',(0.,0.,1.));
#145 = ADVANCED_FACE('',(#146),#203,.F.);
#146 = FACE_BOUND('',#147,.F.);
#147 = EDGE_LOOP('',(#148,#156,#157,#165,#173,#181,#189,#197));
#148 = ORIENTED_EDGE('',*,*,#149,.F.);
#149 = EDGE_CURVE('',#22,#150,#152,.T.);
#150 = VERTEX_POINT('',#151);
#151 = CARTESIAN_POINT('',(176.62,-136.02,133.48));
#152 = LINE('',#153,#154);
#153 = CARTESIAN_POINT('',(174.12,-136.02,133.48));
#154 = VECTOR('',#155,1.);
#155 = DIRECTION('',(1.,0.,0.));
#156 = ORIENTED_EDGE('',*,*,#21,.T.);
#157 = ORIENTED_EDGE('',*,*,#158,.T.);
#158 = EDGE_CURVE('',#24,#159,#161,.T.);
#159 = VERTEX_POINT('',#160);
#160 = CARTESIAN_POINT('',(222.12,-136.02,181.48));
#161 = LINE('',#162,#163);
#162 = CARTESIAN_POINT('',(174.12,-136.02,181.48));
#163 = VECTOR('',#164,1.);
#164 = DIRECTION('',(1.,0.,0.));
#165 = ORIENTED_EDGE('',*,*,#166,.F.);
#166 = EDGE_CURVE('',#167,#159,#169,.T.);
#167 = VERTEX_POINT('',#168);
#168 = CARTESIAN_POINT('',(222.12,-136.02,133.48));
#169 = LINE('',#170,#171);
#170 = CARTESIAN_POINT('',(222.12,-136.02,133.48));
#171 = VECTOR('',#172,1.);
#172 = DIRECTION('',(0.,0.,1.));
#173 = ORIENTED_EDGE('',*,*,#174,.F.);
#174 = EDGE_CURVE('',#175,#167,#177,.T.);
#175 = VERTEX_POINT('',#176);
#176 = CARTESIAN_POINT('',(219.62,-136.02,133.48));
#177 = LINE('',#178,#179);
#178 = CARTESIAN_POINT('',(174.12,-136.02,133.48));
#179 = VECTOR('',#180,1.);
#180 = DIRECTION('',(1.,0.,0.));
#181 = ORIENTED_EDGE('',*,*,#182,.F.);
#182 = EDGE_CURVE('',#183,#175,#185,.T.);
#183 = VERTEX_POINT('',#184);
#184 = CARTESIAN_POINT('',(219.62,-136.02,178.98));
#185 = LINE('',#186,#187);
#186 = CARTESIAN_POINT('',(219.62,-136.02,133.48));
#187 = VECTOR('',#188,1.);
#188 = DIRECTION('',(0.,0.,-1.));
#189 = ORIENTED_EDGE('',*,*,#190,.F.);
#190 = EDGE_CURVE('',#191,#183,#193,.T.);
#191 = VERTEX_POINT('',#192);
#192 = CARTESIAN_POINT('',(176.62,-136.02,178.98));
#193 = LINE('',#194,#195);
#194 = CARTESIAN_POINT('',(175.37,-136.02,178.98));
#195 = VECTOR('',#196,1.);
#196 = DIRECTION('',(1.,0.,0.));
#197 = ORIENTED_EDGE('',*,*,#198,.T.);
#198 = EDGE_CURVE('',#191,#150,#199,.T.);
#199 = LINE('',#200,#201);
#200 = CARTESIAN_POINT('',(176.62,-136.02,133.48));
#201 = VECTOR('',#202,1.);
#202 = DIRECTION('',(0.,0.,-1.));
#203 = PLANE('',#204);
#204 = AXIS2_PLACEMENT_3D('',#205,#206,#207);
#205 = CARTESIAN_POINT('',(174.12,-136.02,133.48));
#206 = DIRECTION('',(0.,1.,0.));
#207 = DIRECTION('',(0.,0.,1.));
#208 = ADVANCED_FACE('',(#209),#227,.T.);
#209 = FACE_BOUND('',#210,.T.);
#210 = EDGE_LOOP('',(#211,#212,#213,#221));
#211 = ORIENTED_EDGE('',*,*,#47,.F.);
#212 = ORIENTED_EDGE('',*,*,#158,.T.);
#213 = ORIENTED_EDGE('',*,*,#214,.T.);
#214 = EDGE_CURVE('',#159,#215,#217,.T.);
#215 = VERTEX_POINT('',#216);
#216 = CARTESIAN_POINT('',(222.12,136.02,181.48));
#217 = LINE('',#218,#219);
#218 = CARTESIAN_POINT('',(222.12,-136.02,181.48));
#219 = VECTOR('',#220,1.);
#220 = DIRECTION('',(0.,1.,0.));
#221 = ORIENTED_EDGE('',*,*,#222,.F.);
#222 = EDGE_CURVE('',#40,#215,#223,.T.);
#223 = LINE('',#224,#225);
#224 = CARTESIAN_POINT('',(174.12,136.02,181.48));
#225 = VECTOR('',#226,1.);
#226 = DIRECTION('',(1.,0.,0.));
#227 = PLANE('',#228);
#228 = AXIS2_PLACEMENT_3D('',#229,#230,#231);
#229 = CARTESIAN_POINT('',(174.12,-136.02,181.48));
#230 = DIRECTION('',(0.,0.,1.));
#231 = DIRECTION('',(1.,0.,0.));
#232 = ADVANCED_FACE('',(#233),#251,.F.);
#233 = FACE_BOUND('',#234,.F.);
#234 = EDGE_LOOP('',(#235,#243,#244,#245));
#235 = ORIENTED_EDGE('',*,*,#236,.F.);
#236 = EDGE_CURVE('',#32,#237,#239,.T.);
#237 = VERTEX_POINT('',#238);
#238 = CARTESIAN_POINT('',(176.62,136.02,133.48));
#239 = LINE('',#240,#241);
#240 = CARTESIAN_POINT('',(174.12,136.02,133.48));
#241 = VECTOR('',#242,1.);
#242 = DIRECTION('',(1.,0.,0.));
#243 = ORIENTED_EDGE('',*,*,#31,.F.);
#244 = ORIENTED_EDGE('',*,*,#149,.T.);
#245 = ORIENTED_EDGE('',*,*,#246,.T.);
#246 = EDGE_CURVE('',#150,#237,#247,.T.);
#247 = LINE('',#248,#249);
#248 = CARTESIAN_POINT('',(176.62,-137.02,133.48));
#249 = VECTOR('',#250,1.);
#250 = DIRECTION('',(0.,1.,0.));
#251 = PLANE('',#252);
#252 = AXIS2_PLACEMENT_3D('',#253,#254,#255);
#253 = CARTESIAN_POINT('',(174.12,-136.02,133.48));
#254 = DIRECTION('',(0.,0.,1.));
#255 = DIRECTION('',(1.,0.,0.));
#256 = ADVANCED_FACE('',(#257),#300,.T.);
#257 = FACE_BOUND('',#258,.T.);
#258 = EDGE_LOOP('',(#259,#260,#261,#262,#270,#278,#286,#294));
#259 = ORIENTED_EDGE('',*,*,#236,.F.);
#260 = ORIENTED_EDGE('',*,*,#39,.T.);
#261 = ORIENTED_EDGE('',*,*,#222,.T.);
#262 = ORIENTED_EDGE('',*,*,#263,.F.);
#263 = EDGE_CURVE('',#264,#215,#266,.T.);
#264 = VERTEX_POINT('',#265);
#265 = CARTESIAN_POINT('',(222.12,136.02,133.48));
#266 = LINE('',#267,#268);
#267 = CARTESIAN_POINT('',(222.12,136.02,133.48));
#268 = VECTOR('',#269,1.);
#269 = DIRECTION('',(0.,0.,1.));
#270 = ORIENTED_EDGE('',*,*,#271,.F.);
#271 = EDGE_CURVE('',#272,#264,#274,.T.);
#272 = VERTEX_POINT('',#273);
#273 = CARTESIAN_POINT('',(219.62,136.02,133.48));
#274 = LINE('',#275,#276);
#275 = CARTESIAN_POINT('',(174.12,136.02,133.48));
#276 = VECTOR('',#277,1.);
#277 = DIRECTION('',(1.,0.,0.));
#278 = ORIENTED_EDGE('',*,*,#279,.F.);
#279 = EDGE_CURVE('',#280,#272,#282,.T.);
#280 = VERTEX_POINT('',#281);
#281 = CARTESIAN_POINT('',(219.62,136.02,178.98));
#282 = LINE('',#283,#284);
#283 = CARTESIAN_POINT('',(219.62,136.02,133.48));
#284 = VECTOR('',#285,1.);
#285 = DIRECTION('',(0.,0.,-1.));
#286 = ORIENTED_EDGE('',*,*,#287,.F.);
#287 = EDGE_CURVE('',#288,#280,#290,.T.);
#288 = VERTEX_POINT('',#289);
#289 = CARTESIAN_POINT('',(176.62,136.02,178.98));
#290 = LINE('',#291,#292);
#291 = CARTESIAN_POINT('',(175.37,136.02,178.98));
#292 = VECTOR('',#293,1.);
#293 = DIRECTION('',(1.,0.,0.));
#294 = ORIENTED_EDGE('',*,*,#295,.T.);
#295 = EDGE_CURVE('',#288,#237,#296,.T.);
#296 = LINE('',#297,#298);
#297 = CARTESIAN_POINT('',(176.62,136.02,133.48));
#298 = VECTOR('',#299,1.);
#299 = DIRECTION('',(0.,0.,-1.));
#300 = PLANE('',#301);
#301 = AXIS2_PLACEMENT_3D('',#302,#303,#304);
#302 = CARTESIAN_POINT('',(174.12,136.02,133.48));
#303 = DIRECTION('',(0.,1.,0.));
#304 = DIRECTION('',(0.,0.,1.));
#305 = ADVANCED_FACE('',(#306),#325,.F.);
#306 = FACE_BOUND('',#307,.T.);
#307 = EDGE_LOOP('',(#308,#309,#317,#324));
#308 = ORIENTED_EDGE('',*,*,#55,.T.);
#309 = ORIENTED_EDGE('',*,*,#310,.T.);
#310 = EDGE_CURVE('',#56,#311,#313,.T.);
#311 = VERTEX_POINT('',#312);
#312 = CARTESIAN_POINT('',(176.62,127.02,147.28));
#313 = LINE('',#314,#315);
#314 = CARTESIAN_POINT('',(173.12,127.02,147.28));
#315 = VECTOR('',#316,1.);
#316 = DIRECTION('',(1.,0.,0.));
#317 = ORIENTED_EDGE('',*,*,#318,.F.);
#318 = EDGE_CURVE('',#311,#311,#319,.T.);
#319 = CIRCLE('',#320,2.2);
#320 = AXIS2_PLACEMENT_3D('',#321,#322,#323);
#321 = CARTESIAN_POINT('',(176.62,127.02,149.48));
#322 = DIRECTION('',(-1.,0.,2.2E-16));
#323 = DIRECTION('',(-2.2E-16,0.,-1.));
#324 = ORIENTED_EDGE('',*,*,#310,.F.);
#325 = CYLINDRICAL_SURFACE('',#326,2.2);
#326 = AXIS2_PLACEMENT_3D('',#327,#328,#329);
#327 = CARTESIAN_POINT('',(173.12,127.02,149.48));
#328 = DIRECTION('',(-1.,-0.,0.));
#329 = DIRECTION('',(0.,0.,-1.));
#330 = ADVANCED_FACE('',(#331),#350,.F.);
#331 = FACE_BOUND('',#332,.T.);
#332 = EDGE_LOOP('',(#333,#334,#342,#349));
#333 = ORIENTED_EDGE('',*,*,#66,.T.);
#334 = ORIENTED_EDGE('',*,*,#335,.T.);
#335 = EDGE_CURVE('',#67,#336,#338,.T.);
#336 = VERTEX_POINT('',#337);
#337 = CARTESIAN_POINT('',(176.62,111.02,147.28));
#338 = LINE('',#339,#340);
#339 = CARTESIAN_POINT('',(173.12,111.02,147.28));
#340 = VECTOR('',#341,1.);
#341 = DIRECTION('',(1.,0.,0.));
#342 = ORIENTED_EDGE('',*,*,#343,.F.);
#343 = EDGE_CURVE('',#336,#336,#344,.T.);
#344 = CIRCLE('',#345,2.2);
#345 = AXIS2_PLACEMENT_3D('',#346,#347,#348);
#346 = CARTESIAN_POINT('',(176.62,111.02,149.48));
#347 = DIRECTION('',(-1.,0.,2.2E-16));
#348 = DIRECTION('',(-2.2E-16,0.,-1.));
#349 = ORIENTED_EDGE('',*,*,#335,.F.);
#350 = CYLINDRICAL_SURFACE('',#351,2.2);
#351 = AXIS2_PLACEMENT_3D('',#352,#353,#354);
#352 = CARTESIAN_POINT('',(173.12,111.02,149.48));
#353 = DIRECTION('',(-1.,-0.,0.));
#354 = DIRECTION('',(0.,0.,-1.));
#355 = ADVANCED_FACE('',(#356),#375,.F.);
#356 = FACE_BOUND('',#357,.T.);
#357 = EDGE_LOOP('',(#358,#359,#367,#374));
#358 = ORIENTED_EDGE('',*,*,#77,.T.);
#359 = ORIENTED_EDGE('',*,*,#360,.T.);
#360 = EDGE_CURVE('',#78,#361,#363,.T.);
#361 = VERTEX_POINT('',#362);
#362 = CARTESIAN_POINT('',(176.62,127.02,167.28));
#363 = LINE('',#364,#365);
#364 = CARTESIAN_POINT('',(173.12,127.02,167.28));
#365 = VECTOR('',#366,1.);
#366 = DIRECTION('',(1.,0.,0.));
#367 = ORIENTED_EDGE('',*,*,#368,.F.);
#368 = EDGE_CURVE('',#361,#361,#369,.T.);
#369 = CIRCLE('',#370,2.2);
#370 = AXIS2_PLACEMENT_3D('',#371,#372,#373);
#371 = CARTESIAN_POINT('',(176.62,127.02,169.48));
#372 = DIRECTION('',(-1.,0.,2.2E-16));
#373 = DIRECTION('',(-2.2E-16,0.,-1.));
#374 = ORIENTED_EDGE('',*,*,#360,.F.);
#375 = CYLINDRICAL_SURFACE('',#376,2.2);
#376 = AXIS2_PLACEMENT_3D('',#377,#378,#379);
#377 = CARTESIAN_POINT('',(173.12,127.02,169.48));
#378 = DIRECTION('',(-1.,-0.,0.));
#379 = DIRECTION('',(0.,0.,-1.));
#380 = ADVANCED_FACE('',(#381),#400,.F.);
#381 = FACE_BOUND('',#382,.T.);
#382 = EDGE_LOOP('',(#383,#384,#392,#399));
#383 = ORIENTED_EDGE('',*,*,#88,.T.);
#384 = ORIENTED_EDGE('',*,*,#385,.T.);
#385 = EDGE_CURVE('',#89,#386,#388,.T.);
#386 = VERTEX_POINT('',#387);
#387 = CARTESIAN_POINT('',(176.62,111.02,167.28));
#388 = LINE('',#389,#390);
#389 = CARTESIAN_POINT('',(173.12,111.02,167.28));
#390 = VECTOR('',#391,1.);
#391 = DIRECTION('',(1.,0.,0.));
#392 = ORIENTED_EDGE('',*,*,#393,.F.);
#393 = EDGE_CURVE('',#386,#386,#394,.T.);
#394 = CIRCLE('',#395,2.2);
#395 = AXIS2_PLACEMENT_3D('',#396,#397,#398);
#396 = CARTESIAN_POINT('',(176.62,111.02,169.48));
#397 = DIRECTION('',(-1.,0.,2.2E-16));
#398 = DIRECTION('',(-2.2E-16,0.,-1.));
#399 = ORIENTED_EDGE('',*,*,#385,.F.);
#400 = CYLINDRICAL_SURFACE('',#401,2.2);
#401 = AXIS2_PLACEMENT_3D('',#402,#403,#404);
#402 = CARTESIAN_POINT('',(173.12,111.02,169.48));
#403 = DIRECTION('',(-1.,-0.,0.));
#404 = DIRECTION('',(0.,0.,-1.));
#405 = ADVANCED_FACE('',(#406),#425,.F.);
#406 = FACE_BOUND('',#407,.T.);
#407 = EDGE_LOOP('',(#408,#409,#417,#424));
#408 = ORIENTED_EDGE('',*,*,#99,.T.);
#409 = ORIENTED_EDGE('',*,*,#410,.T.);
#410 = EDGE_CURVE('',#100,#411,#413,.T.);
#411 = VERTEX_POINT('',#412);
#412 = CARTESIAN_POINT('',(176.62,-111.02,147.28));
#413 = LINE('',#414,#415);
#414 = CARTESIAN_POINT('',(173.12,-111.02,147.28));
#415 = VECTOR('',#416,1.);
#416 = DIRECTION('',(1.,0.,0.));
#417 = ORIENTED_EDGE('',*,*,#418,.F.);
#418 = EDGE_CURVE('',#411,#411,#419,.T.);
#419 = CIRCLE('',#420,2.2);
#420 = AXIS2_PLACEMENT_3D('',#421,#422,#423);
#421 = CARTESIAN_POINT('',(176.62,-111.02,149.48));
#422 = DIRECTION('',(-1.,0.,2.2E-16));
#423 = DIRECTION('',(-2.2E-16,0.,-1.));
#424 = ORIENTED_EDGE('',*,*,#410,.F.);
#425 = CYLINDRICAL_SURFACE('',#426,2.2);
#426 = AXIS2_PLACEMENT_3D('',#427,#428,#429);
#427 = CARTESIAN_POINT('',(173.12,-111.02,149.48));
#428 = DIRECTION('',(-1.,-0.,0.));
#429 = DIRECTION('',(0.,0.,-1.));
#430 = ADVANCED_FACE('',(#431),#450,.F.);
#431 = FACE_BOUND('',#432,.T.);
#432 = EDGE_LOOP('',(#433,#434,#442,#449));
#433 = ORIENTED_EDGE('',*,*,#110,.T.);
#434 = ORIENTED_EDGE('',*,*,#435,.T.);
#435 = EDGE_CURVE('',#111,#436,#438,.T.);
#436 = VERTEX_POINT('',#437);
#437 = CARTESIAN_POINT('',(176.62,-127.02,147.28));
#438 = LINE('',#439,#440);
#439 = CARTESIAN_POINT('',(173.12,-127.02,147.28));
#440 = VECTOR('',#441,1.);
#441 = DIRECTION('',(1.,0.,0.));
#442 = ORIENTED_EDGE('',*,*,#443,.F.);
#443 = EDGE_CURVE('',#436,#436,#444,.T.);
#444 = CIRCLE('',#445,2.2);
#445 = AXIS2_PLACEMENT_3D('',#446,#447,#448);
#446 = CARTESIAN_POINT('',(176.62,-127.02,149.48));
#447 = DIRECTION('',(-1.,0.,2.2E-16));
#448 = DIRECTION('',(-2.2E-16,0.,-1.));
#449 = ORIENTED_EDGE('',*,*,#435,.F.);
#450 = CYLINDRICAL_SURFACE('',#451,2.2);
#451 = AXIS2_PLACEMENT_3D('',#452,#453,#454);
#452 = CARTESIAN_POINT('',(173.12,-127.02,149.48));
#453 = DIRECTION('',(-1.,-0.,0.));
#454 = DIRECTION('',(0.,0.,-1.));
#455 = ADVANCED_FACE('',(#456),#475,.F.);
#456 = FACE_BOUND('',#457,.T.);
#457 = EDGE_LOOP('',(#458,#459,#467,#474));
#458 = ORIENTED_EDGE('',*,*,#121,.T.);
#459 = ORIENTED_EDGE('',*,*,#460,.T.);
#460 = EDGE_CURVE('',#122,#461,#463,.T.);
#461 = VERTEX_POINT('',#462);
#462 = CARTESIAN_POINT('',(176.62,-111.02,167.28));
#463 = LINE('',#464,#465);
#464 = CARTESIAN_POINT('',(173.12,-111.02,167.28));
#465 = VECTOR('',#466,1.);
#466 = DIRECTION('',(1.,0.,0.));
#467 = ORIENTED_EDGE('',*,*,#468,.F.);
#468 = EDGE_CURVE('',#461,#461,#469,.T.);
#469 = CIRCLE('',#470,2.2);
#470 = AXIS2_PLACEMENT_3D('',#471,#472,#473);
#471 = CARTESIAN_POINT('',(176.62,-111.02,169.48));
#472 = DIRECTION('',(-1.,0.,2.2E-16));
#473 = DIRECTION('',(-2.2E-16,0.,-1.));
#474 = ORIENTED_EDGE('',*,*,#460,.F.);
#475 = CYLINDRICAL_SURFACE('',#476,2.2);
#476 = AXIS2_PLACEMENT_3D('',#477,#478,#479);
#477 = CARTESIAN_POINT('',(173.12,-111.02,169.48));
#478 = DIRECTION('',(-1.,-0.,0.));
#479 = DIRECTION('',(0.,0.,-1.));
#480 = ADVANCED_FACE('',(#481),#500,.F.);
#481 = FACE_BOUND('',#482,.T.);
#482 = EDGE_LOOP('',(#483,#484,#492,#499));
#483 = ORIENTED_EDGE('',*,*,#132,.T.);
#484 = ORIENTED_EDGE('',*,*,#485,.T.);
#485 = EDGE_CURVE('',#133,#486,#488,.T.);
#486 = VERTEX_POINT('',#487);
#487 = CARTESIAN_POINT('',(176.62,-127.02,167.28));
#488 = LINE('',#489,#490);
#489 = CARTESIAN_POINT('',(173.12,-127.02,167.28));
#490 = VECTOR('',#491,1.);
#491 = DIRECTION('',(1.,0.,0.));
#492 = ORIENTED_EDGE('',*,*,#493,.F.);
#493 = EDGE_CURVE('',#486,#486,#494,.T.);
#494 = CIRCLE('',#495,2.2);
#495 = AXIS2_PLACEMENT_3D('',#496,#497,#498);
#496 = CARTESIAN_POINT('',(176.62,-127.02,169.48));
#497 = DIRECTION('',(-1.,0.,2.2E-16));
#498 = DIRECTION('',(-2.2E-16,0.,-1.));
#499 = ORIENTED_EDGE('',*,*,#485,.F.);
#500 = CYLINDRICAL_SURFACE('',#501,2.2);
#501 = AXIS2_PLACEMENT_3D('',#502,#503,#504);
#502 = CARTESIAN_POINT('',(173.12,-127.02,169.48));
#503 = DIRECTION('',(-1.,-0.,0.));
#504 = DIRECTION('',(0.,0.,-1.));
#505 = ADVANCED_FACE('',(#506,#517,#520,#523,#526,#529,#532,#535,#538),
  #541,.T.);
#506 = FACE_BOUND('',#507,.T.);
#507 = EDGE_LOOP('',(#508,#514,#515,#516));
#508 = ORIENTED_EDGE('',*,*,#509,.F.);
#509 = EDGE_CURVE('',#191,#288,#510,.T.);
#510 = LINE('',#511,#512);
#511 = CARTESIAN_POINT('',(176.62,-137.02,178.98));
#512 = VECTOR('',#513,1.);
#513 = DIRECTION('',(0.,1.,0.));
#514 = ORIENTED_EDGE('',*,*,#198,.T.);
#515 = ORIENTED_EDGE('',*,*,#246,.T.);
#516 = ORIENTED_EDGE('',*,*,#295,.F.);
#517 = FACE_BOUND('',#518,.T.);
#518 = EDGE_LOOP('',(#519));
#519 = ORIENTED_EDGE('',*,*,#318,.T.);
#520 = FACE_BOUND('',#521,.T.);
#521 = EDGE_LOOP('',(#522));
#522 = ORIENTED_EDGE('',*,*,#343,.T.);
#523 = FACE_BOUND('',#524,.T.);
#524 = EDGE_LOOP('',(#525));
#525 = ORIENTED_EDGE('',*,*,#368,.T.);
#526 = FACE_BOUND('',#527,.T.);
#527 = EDGE_LOOP('',(#528));
#528 = ORIENTED_EDGE('',*,*,#393,.T.);
#529 = FACE_BOUND('',#530,.T.);
#530 = EDGE_LOOP('',(#531));
#531 = ORIENTED_EDGE('',*,*,#418,.T.);
#532 = FACE_BOUND('',#533,.T.);
#533 = EDGE_LOOP('',(#534));
#534 = ORIENTED_EDGE('',*,*,#443,.T.);
#535 = FACE_BOUND('',#536,.T.);
#536 = EDGE_LOOP('',(#537));
#537 = ORIENTED_EDGE('',*,*,#468,.T.);
#538 = FACE_BOUND('',#539,.T.);
#539 = EDGE_LOOP('',(#540));
#540 = ORIENTED_EDGE('',*,*,#493,.T.);
#541 = PLANE('',#542);
#542 = AXIS2_PLACEMENT_3D('',#543,#544,#545);
#543 = CARTESIAN_POINT('',(176.62,-137.02,133.48));
#544 = DIRECTION('',(1.,0.,0.));
#545 = DIRECTION('',(0.,0.,1.));
#546 = ADVANCED_FACE('',(#547),#558,.F.);
#547 = FACE_BOUND('',#548,.F.);
#548 = EDGE_LOOP('',(#549,#550,#551,#557));
#549 = ORIENTED_EDGE('',*,*,#509,.F.);
#550 = ORIENTED_EDGE('',*,*,#190,.T.);
#551 = ORIENTED_EDGE('',*,*,#552,.T.);
#552 = EDGE_CURVE('',#183,#280,#553,.T.);
#553 = LINE('',#554,#555);
#554 = CARTESIAN_POINT('',(219.62,-137.02,178.98));
#555 = VECTOR('',#556,1.);
#556 = DIRECTION('',(0.,1.,0.));
#557 = ORIENTED_EDGE('',*,*,#287,.F.);
#558 = PLANE('',#559);
#559 = AXIS2_PLACEMENT_3D('',#560,#561,#562);
#560 = CARTESIAN_POINT('',(176.62,-137.02,178.98));
#561 = DIRECTION('',(0.,0.,1.));
#562 = DIRECTION('',(1.,0.,0.));
#563 = ADVANCED_FACE('',(#564,#575,#586,#597,#608,#619,#630,#641,#652),
  #663,.F.);
#564 = FACE_BOUND('',#565,.F.);
#565 = EDGE_LOOP('',(#566,#567,#568,#574));
#566 = ORIENTED_EDGE('',*,*,#552,.F.);
#567 = ORIENTED_EDGE('',*,*,#182,.T.);
#568 = ORIENTED_EDGE('',*,*,#569,.T.);
#569 = EDGE_CURVE('',#175,#272,#570,.T.);
#570 = LINE('',#571,#572);
#571 = CARTESIAN_POINT('',(219.62,-137.02,133.48));
#572 = VECTOR('',#573,1.);
#573 = DIRECTION('',(0.,1.,0.));
#574 = ORIENTED_EDGE('',*,*,#279,.F.);
#575 = FACE_BOUND('',#576,.F.);
#576 = EDGE_LOOP('',(#577));
#577 = ORIENTED_EDGE('',*,*,#578,.T.);
#578 = EDGE_CURVE('',#579,#579,#581,.T.);
#579 = VERTEX_POINT('',#580);
#580 = CARTESIAN_POINT('',(219.62,127.02,147.28));
#581 = CIRCLE('',#582,2.2);
#582 = AXIS2_PLACEMENT_3D('',#583,#584,#585);
#583 = CARTESIAN_POINT('',(219.62,127.02,149.48));
#584 = DIRECTION('',(-1.,0.,2.2E-16));
#585 = DIRECTION('',(-2.2E-16,0.,-1.));
#586 = FACE_BOUND('',#587,.F.);
#587 = EDGE_LOOP('',(#588));
#588 = ORIENTED_EDGE('',*,*,#589,.T.);
#589 = EDGE_CURVE('',#590,#590,#592,.T.);
#590 = VERTEX_POINT('',#591);
#591 = CARTESIAN_POINT('',(219.62,111.02,147.28));
#592 = CIRCLE('',#593,2.2);
#593 = AXIS2_PLACEMENT_3D('',#594,#595,#596);
#594 = CARTESIAN_POINT('',(219.62,111.02,149.48));
#595 = DIRECTION('',(-1.,0.,2.2E-16));
#596 = DIRECTION('',(-2.2E-16,0.,-1.));
#597 = FACE_BOUND('',#598,.F.);
#598 = EDGE_LOOP('',(#599));
#599 = ORIENTED_EDGE('',*,*,#600,.T.);
#600 = EDGE_CURVE('',#601,#601,#603,.T.);
#601 = VERTEX_POINT('',#602);
#602 = CARTESIAN_POINT('',(219.62,127.02,167.28));
#603 = CIRCLE('',#604,2.2);
#604 = AXIS2_PLACEMENT_3D('',#605,#606,#607);
#605 = CARTESIAN_POINT('',(219.62,127.02,169.48));
#606 = DIRECTION('',(-1.,0.,2.2E-16));
#607 = DIRECTION('',(-2.2E-16,0.,-1.));
#608 = FACE_BOUND('',#609,.F.);
#609 = EDGE_LOOP('',(#610));
#610 = ORIENTED_EDGE('',*,*,#611,.T.);
#611 = EDGE_CURVE('',#612,#612,#614,.T.);
#612 = VERTEX_POINT('',#613);
#613 = CARTESIAN_POINT('',(219.62,111.02,167.28));
#614 = CIRCLE('',#615,2.2);
#615 = AXIS2_PLACEMENT_3D('',#616,#617,#618);
#616 = CARTESIAN_POINT('',(219.62,111.02,169.48));
#617 = DIRECTION('',(-1.,0.,2.2E-16));
#618 = DIRECTION('',(-2.2E-16,0.,-1.));
#619 = FACE_BOUND('',#620,.F.);
#620 = EDGE_LOOP('',(#621));
#621 = ORIENTED_EDGE('',*,*,#622,.T.);
#622 = EDGE_CURVE('',#623,#623,#625,.T.);
#623 = VERTEX_POINT('',#624);
#624 = CARTESIAN_POINT('',(219.62,-111.02,147.28));
#625 = CIRCLE('',#626,2.2);
#626 = AXIS2_PLACEMENT_3D('',#627,#628,#629);
#627 = CARTESIAN_POINT('',(219.62,-111.02,149.48));
#628 = DIRECTION('',(-1.,0.,2.2E-16));
#629 = DIRECTION('',(-2.2E-16,0.,-1.));
#630 = FACE_BOUND('',#631,.F.);
#631 = EDGE_LOOP('',(#632));
#632 = ORIENTED_EDGE('',*,*,#633,.T.);
#633 = EDGE_CURVE('',#634,#634,#636,.T.);
#634 = VERTEX_POINT('',#635);
#635 = CARTESIAN_POINT('',(219.62,-127.02,147.28));
#636 = CIRCLE('',#637,2.2);
#637 = AXIS2_PLACEMENT_3D('',#638,#639,#640);
#638 = CARTESIAN_POINT('',(219.62,-127.02,149.48));
#639 = DIRECTION('',(-1.,0.,2.2E-16));
#640 = DIRECTION('',(-2.2E-16,0.,-1.));
#641 = FACE_BOUND('',#642,.F.);
#642 = EDGE_LOOP('',(#643));
#643 = ORIENTED_EDGE('',*,*,#644,.T.);
#644 = EDGE_CURVE('',#645,#645,#647,.T.);
#645 = VERTEX_POINT('',#646);
#646 = CARTESIAN_POINT('',(219.62,-111.02,167.28));
#647 = CIRCLE('',#648,2.2);
#648 = AXIS2_PLACEMENT_3D('',#649,#650,#651);
#649 = CARTESIAN_POINT('',(219.62,-111.02,169.48));
#650 = DIRECTION('',(-1.,0.,2.2E-16));
#651 = DIRECTION('',(-2.2E-16,0.,-1.));
#652 = FACE_BOUND('',#653,.F.);
#653 = EDGE_LOOP('',(#654));
#654 = ORIENTED_EDGE('',*,*,#655,.T.);
#655 = EDGE_CURVE('',#656,#656,#658,.T.);
#656 = VERTEX_POINT('',#657);
#657 = CARTESIAN_POINT('',(219.62,-127.02,167.28));
#658 = CIRCLE('',#659,2.2);
#659 = AXIS2_PLACEMENT_3D('',#660,#661,#662);
#660 = CARTESIAN_POINT('',(219.62,-127.02,169.48));
#661 = DIRECTION('',(-1.,0.,2.2E-16));
#662 = DIRECTION('',(-2.2E-16,0.,-1.));
#663 = PLANE('',#664);
#664 = AXIS2_PLACEMENT_3D('',#665,#666,#667);
#665 = CARTESIAN_POINT('',(219.62,-137.02,133.48));
#666 = DIRECTION('',(1.,0.,0.));
#667 = DIRECTION('',(0.,0.,1.));
#668 = ADVANCED_FACE('',(#669),#680,.F.);
#669 = FACE_BOUND('',#670,.F.);
#670 = EDGE_LOOP('',(#671,#672,#673,#674));
#671 = ORIENTED_EDGE('',*,*,#271,.F.);
#672 = ORIENTED_EDGE('',*,*,#569,.F.);
#673 = ORIENTED_EDGE('',*,*,#174,.T.);
#674 = ORIENTED_EDGE('',*,*,#675,.T.);
#675 = EDGE_CURVE('',#167,#264,#676,.T.);
#676 = LINE('',#677,#678);
#677 = CARTESIAN_POINT('',(222.12,-136.02,133.48));
#678 = VECTOR('',#679,1.);
#679 = DIRECTION('',(0.,1.,0.));
#680 = PLANE('',#681);
#681 = AXIS2_PLACEMENT_3D('',#682,#683,#684);
#682 = CARTESIAN_POINT('',(174.12,-136.02,133.48));
#683 = DIRECTION('',(0.,0.,1.));
#684 = DIRECTION('',(1.,0.,0.));
#685 = ADVANCED_FACE('',(#686,#692,#703,#714,#725,#736,#747,#758,#769),
  #780,.T.);
#686 = FACE_BOUND('',#687,.T.);
#687 = EDGE_LOOP('',(#688,#689,#690,#691));
#688 = ORIENTED_EDGE('',*,*,#166,.F.);
#689 = ORIENTED_EDGE('',*,*,#675,.T.);
#690 = ORIENTED_EDGE('',*,*,#263,.T.);
#691 = ORIENTED_EDGE('',*,*,#214,.F.);
#692 = FACE_BOUND('',#693,.T.);
#693 = EDGE_LOOP('',(#694));
#694 = ORIENTED_EDGE('',*,*,#695,.T.);
#695 = EDGE_CURVE('',#696,#696,#698,.T.);
#696 = VERTEX_POINT('',#697);
#697 = CARTESIAN_POINT('',(222.12,127.02,147.28));
#698 = CIRCLE('',#699,2.2);
#699 = AXIS2_PLACEMENT_3D('',#700,#701,#702);
#700 = CARTESIAN_POINT('',(222.12,127.02,149.48));
#701 = DIRECTION('',(-1.,0.,2.2E-16));
#702 = DIRECTION('',(-2.2E-16,0.,-1.));
#703 = FACE_BOUND('',#704,.T.);
#704 = EDGE_LOOP('',(#705));
#705 = ORIENTED_EDGE('',*,*,#706,.T.);
#706 = EDGE_CURVE('',#707,#707,#709,.T.);
#707 = VERTEX_POINT('',#708);
#708 = CARTESIAN_POINT('',(222.12,111.02,147.28));
#709 = CIRCLE('',#710,2.2);
#710 = AXIS2_PLACEMENT_3D('',#711,#712,#713);
#711 = CARTESIAN_POINT('',(222.12,111.02,149.48));
#712 = DIRECTION('',(-1.,0.,2.2E-16));
#713 = DIRECTION('',(-2.2E-16,0.,-1.));
#714 = FACE_BOUND('',#715,.T.);
#715 = EDGE_LOOP('',(#716));
#716 = ORIENTED_EDGE('',*,*,#717,.T.);
#717 = EDGE_CURVE('',#718,#718,#720,.T.);
#718 = VERTEX_POINT('',#719);
#719 = CARTESIAN_POINT('',(222.12,127.02,167.28));
#720 = CIRCLE('',#721,2.2);
#721 = AXIS2_PLACEMENT_3D('',#722,#723,#724);
#722 = CARTESIAN_POINT('',(222.12,127.02,169.48));
#723 = DIRECTION('',(-1.,0.,2.2E-16));
#724 = DIRECTION('',(-2.2E-16,0.,-1.));
#725 = FACE_BOUND('',#726,.T.);
#726 = EDGE_LOOP('',(#727));
#727 = ORIENTED_EDGE('',*,*,#728,.T.);
#728 = EDGE_CURVE('',#729,#729,#731,.T.);
#729 = VERTEX_POINT('',#730);
#730 = CARTESIAN_POINT('',(222.12,111.02,167.28));
#731 = CIRCLE('',#732,2.2);
#732 = AXIS2_PLACEMENT_3D('',#733,#734,#735);
#733 = CARTESIAN_POINT('',(222.12,111.02,169.48));
#734 = DIRECTION('',(-1.,0.,2.2E-16));
#735 = DIRECTION('',(-2.2E-16,0.,-1.));
#736 = FACE_BOUND('',#737,.T.);
#737 = EDGE_LOOP('',(#738));
#738 = ORIENTED_EDGE('',*,*,#739,.T.);
#739 = EDGE_CURVE('',#740,#740,#742,.T.);
#740 = VERTEX_POINT('',#741);
#741 = CARTESIAN_POINT('',(222.12,-111.02,147.28));
#742 = CIRCLE('',#743,2.2);
#743 = AXIS2_PLACEMENT_3D('',#744,#745,#746);
#744 = CARTESIAN_POINT('',(222.12,-111.02,149.48));
#745 = DIRECTION('',(-1.,0.,2.2E-16));
#746 = DIRECTION('',(-2.2E-16,0.,-1.));
#747 = FACE_BOUND('',#748,.T.);
#748 = EDGE_LOOP('',(#749));
#749 = ORIENTED_EDGE('',*,*,#750,.T.);
#750 = EDGE_CURVE('',#751,#751,#753,.T.);
#751 = VERTEX_POINT('',#752);
#752 = CARTESIAN_POINT('',(222.12,-127.02,147.28));
#753 = CIRCLE('',#754,2.2);
#754 = AXIS2_PLACEMENT_3D('',#755,#756,#757);
#755 = CARTESIAN_POINT('',(222.12,-127.02,149.48));
#756 = DIRECTION('',(-1.,0.,2.2E-16));
#757 = DIRECTION('',(-2.2E-16,0.,-1.));
#758 = FACE_BOUND('',#759,.T.);
#759 = EDGE_LOOP('',(#760));
#760 = ORIENTED_EDGE('',*,*,#761,.T.);
#761 = EDGE_CURVE('',#762,#762,#764,.T.);
#762 = VERTEX_POINT('',#763);
#763 = CARTESIAN_POINT('',(222.12,-111.02,167.28));
#764 = CIRCLE('',#765,2.2);
#765 = AXIS2_PLACEMENT_3D('',#766,#767,#768);
#766 = CARTESIAN_POINT('',(222.12,-111.02,169.48));
#767 = DIRECTION('',(-1.,0.,2.2E-16));
#768 = DIRECTION('',(-2.2E-16,0.,-1.));
#769 = FACE_BOUND('',#770,.T.);
#770 = EDGE_LOOP('',(#771));
#771 = ORIENTED_EDGE('',*,*,#772,.T.);
#772 = EDGE_CURVE('',#773,#773,#775,.T.);
#773 = VERTEX_POINT('',#774);
#774 = CARTESIAN_POINT('',(222.12,-127.02,167.28));
#775 = CIRCLE('',#776,2.2);
#776 = AXIS2_PLACEMENT_3D('',#777,#778,#779);
#777 = CARTESIAN_POINT('',(222.12,-127.02,169.48));
#778 = DIRECTION('',(-1.,0.,2.2E-16));
#779 = DIRECTION('',(-2.2E-16,0.,-1.));
#780 = PLANE('',#781);
#781 = AXIS2_PLACEMENT_3D('',#782,#783,#784);
#782 = CARTESIAN_POINT('',(222.12,-136.02,133.48));
#783 = DIRECTION('',(1.,0.,0.));
#784 = DIRECTION('',(0.,0.,1.));
#785 = ADVANCED_FACE('',(#786),#797,.F.);
#786 = FACE_BOUND('',#787,.T.);
#787 = EDGE_LOOP('',(#788,#794,#795,#796));
#788 = ORIENTED_EDGE('',*,*,#789,.F.);
#789 = EDGE_CURVE('',#579,#696,#790,.T.);
#790 = LINE('',#791,#792);
#791 = CARTESIAN_POINT('',(218.62,127.02,147.28));
#792 = VECTOR('',#793,1.);
#793 = DIRECTION('',(1.,0.,0.));
#794 = ORIENTED_EDGE('',*,*,#578,.T.);
#795 = ORIENTED_EDGE('',*,*,#789,.T.);
#796 = ORIENTED_EDGE('',*,*,#695,.F.);
#797 = CYLINDRICAL_SURFACE('',#798,2.2);
#798 = AXIS2_PLACEMENT_3D('',#799,#800,#801);
#799 = CARTESIAN_POINT('',(218.62,127.02,149.48));
#800 = DIRECTION('',(-1.,-0.,0.));
#801 = DIRECTION('',(0.,0.,-1.));
#802 = ADVANCED_FACE('',(#803),#814,.F.);
#803 = FACE_BOUND('',#804,.T.);
#804 = EDGE_LOOP('',(#805,#811,#812,#813));
#805 = ORIENTED_EDGE('',*,*,#806,.F.);
#806 = EDGE_CURVE('',#590,#707,#807,.T.);
#807 = LINE('',#808,#809);
#808 = CARTESIAN_POINT('',(218.62,111.02,147.28));
#809 = VECTOR('',#810,1.);
#810 = DIRECTION('',(1.,0.,0.));
#811 = ORIENTED_EDGE('',*,*,#589,.T.);
#812 = ORIENTED_EDGE('',*,*,#806,.T.);
#813 = ORIENTED_EDGE('',*,*,#706,.F.);
#814 = CYLINDRICAL_SURFACE('',#815,2.2);
#815 = AXIS2_PLACEMENT_3D('',#816,#817,#818);
#816 = CARTESIAN_POINT('',(218.62,111.02,149.48));
#817 = DIRECTION('',(-1.,-0.,0.));
#818 = DIRECTION('',(0.,0.,-1.));
#819 = ADVANCED_FACE('',(#820),#831,.F.);
#820 = FACE_BOUND('',#821,.T.);
#821 = EDGE_LOOP('',(#822,#828,#829,#830));
#822 = ORIENTED_EDGE('',*,*,#823,.F.);
#823 = EDGE_CURVE('',#601,#718,#824,.T.);
#824 = LINE('',#825,#826);
#825 = CARTESIAN_POINT('',(218.62,127.02,167.28));
#826 = VECTOR('',#827,1.);
#827 = DIRECTION('',(1.,0.,0.));
#828 = ORIENTED_EDGE('',*,*,#600,.T.);
#829 = ORIENTED_EDGE('',*,*,#823,.T.);
#830 = ORIENTED_EDGE('',*,*,#717,.F.);
#831 = CYLINDRICAL_SURFACE('',#832,2.2);
#832 = AXIS2_PLACEMENT_3D('',#833,#834,#835);
#833 = CARTESIAN_POINT('',(218.62,127.02,169.48));
#834 = DIRECTION('',(-1.,-0.,0.));
#835 = DIRECTION('',(0.,0.,-1.));
#836 = ADVANCED_FACE('',(#837),#848,.F.);
#837 = FACE_BOUND('',#838,.T.);
#838 = EDGE_LOOP('',(#839,#845,#846,#847));
#839 = ORIENTED_EDGE('',*,*,#840,.F.);
#840 = EDGE_CURVE('',#612,#729,#841,.T.);
#841 = LINE('',#842,#843);
#842 = CARTESIAN_POINT('',(218.62,111.02,167.28));
#843 = VECTOR('',#844,1.);
#844 = DIRECTION('',(1.,0.,0.));
#845 = ORIENTED_EDGE('',*,*,#611,.T.);
#846 = ORIENTED_EDGE('',*,*,#840,.T.);
#847 = ORIENTED_EDGE('',*,*,#728,.F.);
#848 = CYLINDRICAL_SURFACE('',#849,2.2);
#849 = AXIS2_PLACEMENT_3D('',#850,#851,#852);
#850 = CARTESIAN_POINT('',(218.62,111.02,169.48));
#851 = DIRECTION('',(-1.,-0.,0.));
#852 = DIRECTION('',(0.,0.,-1.));
#853 = ADVANCED_FACE('',(#854),#865,.F.);
#854 = FACE_BOUND('',#855,.T.);
#855 = EDGE_LOOP('',(#856,#862,#863,#864));
#856 = ORIENTED_EDGE('',*,*,#857,.F.);
#857 = EDGE_CURVE('',#623,#740,#858,.T.);
#858 = LINE('',#859,#860);
#859 = CARTESIAN_POINT('',(218.62,-111.02,147.28));
#860 = VECTOR('',#861,1.);
#861 = DIRECTION('',(1.,0.,0.));
#862 = ORIENTED_EDGE('',*,*,#622,.T.);
#863 = ORIENTED_EDGE('',*,*,#857,.T.);
#864 = ORIENTED_EDGE('',*,*,#739,.F.);
#865 = CYLINDRICAL_SURFACE('',#866,2.2);
#866 = AXIS2_PLACEMENT_3D('',#867,#868,#869);
#867 = CARTESIAN_POINT('',(218.62,-111.02,149.48));
#868 = DIRECTION('',(-1.,-0.,0.));
#869 = DIRECTION('',(0.,0.,-1.));
#870 = ADVANCED_FACE('',(#871),#882,.F.);
#871 = FACE_BOUND('',#872,.T.);
#872 = EDGE_LOOP('',(#873,#879,#880,#881));
#873 = ORIENTED_EDGE('',*,*,#874,.F.);
#874 = EDGE_CURVE('',#634,#751,#875,.T.);
#875 = LINE('',#876,#877);
#876 = CARTESIAN_POINT('',(218.62,-127.02,147.28));
#877 = VECTOR('',#878,1.);
#878 = DIRECTION('',(1.,0.,0.));
#879 = ORIENTED_EDGE('',*,*,#633,.T.);
#880 = ORIENTED_EDGE('',*,*,#874,.T.);
#881 = ORIENTED_EDGE('',*,*,#750,.F.);
#882 = CYLINDRICAL_SURFACE('',#883,2.2);
#883 = AXIS2_PLACEMENT_3D('',#884,#885,#886);
#884 = CARTESIAN_POINT('',(218.62,-127.02,149.48));
#885 = DIRECTION('',(-1.,-0.,0.));
#886 = DIRECTION('',(0.,0.,-1.));
#887 = ADVANCED_FACE('',(#888),#899,.F.);
#888 = FACE_BOUND('',#889,.T.);
#889 = EDGE_LOOP('',(#890,#896,#897,#898));
#890 = ORIENTED_EDGE('',*,*,#891,.F.);
#891 = EDGE_CURVE('',#645,#762,#892,.T.);
#892 = LINE('',#893,#894);
#893 = CARTESIAN_POINT('',(218.62,-111.02,167.28));
#894 = VECTOR('',#895,1.);
#895 = DIRECTION('',(1.,0.,0.));
#896 = ORIENTED_EDGE('',*,*,#644,.T.);
#897 = ORIENTED_EDGE('',*,*,#891,.T.);
#898 = ORIENTED_EDGE('',*,*,#761,.F.);
#899 = CYLINDRICAL_SURFACE('',#900,2.2);
#900 = AXIS2_PLACEMENT_3D('',#901,#902,#903);
#901 = CARTESIAN_POINT('',(218.62,-111.02,169.48));
#902 = DIRECTION('',(-1.,-0.,0.));
#903 = DIRECTION('',(0.,0.,-1.));
#904 = ADVANCED_FACE('',(#905),#916,.F.);
#905 = FACE_BOUND('',#906,.T.);
#906 = EDGE_LOOP('',(#907,#913,#914,#915));
#907 = ORIENTED_EDGE('',*,*,#908,.F.);
#908 = EDGE_CURVE('',#656,#773,#909,.T.);
#909 = LINE('',#910,#911);
#910 = CARTESIAN_POINT('',(218.62,-127.02,167.28));
#911 = VECTOR('',#912,1.);
#912 = DIRECTION('',(1.,0.,0.));
#913 = ORIENTED_EDGE('',*,*,#655,.T.);
#914 = ORIENTED_EDGE('',*,*,#908,.T.);
#915 = ORIENTED_EDGE('',*,*,#772,.F.);
#916 = CYLINDRICAL_SURFACE('',#917,2.2);
#917 = AXIS2_PLACEMENT_3D('',#918,#919,#920);
#918 = CARTESIAN_POINT('',(218.62,-127.02,169.48));
#919 = DIRECTION('',(-1.,-0.,0.));
#920 = DIRECTION('',(0.,0.,-1.));
#921 = ( GEOMETRIC_REPRESENTATION_CONTEXT(3) 
GLOBAL_UNCERTAINTY_ASSIGNED_CONTEXT((#925)) GLOBAL_UNIT_ASSIGNED_CONTEXT
((#922,#923,#924)) REPRESENTATION_CONTEXT('Context #1',
  '3D Context with UNIT and UNCERTAINTY') );
#922 = ( LENGTH_UNIT() NAMED_UNIT(*) SI_UNIT(.MILLI.,.METRE.) );
#923 = ( NAMED_UNIT(*) PLANE_ANGLE_UNIT() SI_UNIT($,.RADIAN.) );
#924 = ( NAMED_UNIT(*) SI_UNIT($,.STERADIAN.) SOLID_ANGLE_UNIT() );
#925 = UNCERTAINTY_MEASURE_WITH_UNIT(LENGTH_MEASURE(2.E-05),#922,
  'distance_accuracy_value','confusion accuracy');
#926 = PRODUCT_RELATED_PRODUCT_CATEGORY('part',$,(#7));
ENDSEC;
END-ISO-10303-21;
