ISO-10303-21;
HEADER;
FILE_DESCRIPTION(('FreeCAD Model'),'2;1');
FILE_NAME('Open CASCADE Shape Model','2026-09-28T03:26:30',('Author'),(
    ''),'Open CASCADE STEP processor 7.8','FreeCAD','Unknown');
FILE_SCHEMA(('AUTOMOTIVE_DESIGN { 1 0 10303 214 1 1 1 1 }'));
ENDSEC;
DATA;
#1 = APPLICATION_PROTOCOL_DEFINITION('international standard',
  'automotive_design',2000,#2);
#2 = APPLICATION_CONTEXT(
  'core data for automotive mechanical design processes');
#3 = SHAPE_DEFINITION_REPRESENTATION(#4,#10);
#4 = PRODUCT_DEFINITION_SHAPE('','',#5);
#5 = PRODUCT_DEFINITION('design','',#6,#9);
#6 = PRODUCT_DEFINITION_FORMATION('','',#7);
#7 = PRODUCT('HOP_WALL_L','HOP_WALL_L','',(#8));
#8 = PRODUCT_CONTEXT('',#2,'mechanical');
#9 = PRODUCT_DEFINITION_CONTEXT('part definition',#2,'design');
#10 = ADVANCED_BREP_SHAPE_REPRESENTATION('',(#11,#15),#962);
#11 = AXIS2_PLACEMENT_3D('',#12,#13,#14);
#12 = CARTESIAN_POINT('',(0.,0.,0.));
#13 = DIRECTION('',(0.,0.,1.));
#14 = DIRECTION('',(1.,0.,-0.));
#15 = MANIFOLD_SOLID_BREP('',#16);
#16 = CLOSED_SHELL('',(#17,#57,#97,#308,#341,#427,#451,#637,#668,#690,
    #712,#729,#746,#772,#789,#806,#823,#840,#857,#874,#891,#908,#920,
    #934,#948));
#17 = ADVANCED_FACE('',(#18),#52,.F.);
#18 = FACE_BOUND('',#19,.F.);
#19 = EDGE_LOOP('',(#20,#30,#38,#46));
#20 = ORIENTED_EDGE('',*,*,#21,.F.);
#21 = EDGE_CURVE('',#22,#24,#26,.T.);
#22 = VERTEX_POINT('',#23);
#23 = CARTESIAN_POINT('',(-73.,59.086800556469,180.));
#24 = VERTEX_POINT('',#25);
#25 = CARTESIAN_POINT('',(-73.,60.,180.));
#26 = LINE('',#27,#28);
#27 = CARTESIAN_POINT('',(-73.,57.,180.));
#28 = VECTOR('',#29,1.);
#29 = DIRECTION('',(0.,1.,0.));
#30 = ORIENTED_EDGE('',*,*,#31,.T.);
#31 = EDGE_CURVE('',#22,#32,#34,.T.);
#32 = VERTEX_POINT('',#33);
#33 = CARTESIAN_POINT('',(-73.,59.086800556469,94.));
#34 = LINE('',#35,#36);
#35 = CARTESIAN_POINT('',(-73.,59.086800556469,67.));
#36 = VECTOR('',#37,1.);
#37 = DIRECTION('',(-0.,-0.,-1.));
#38 = ORIENTED_EDGE('',*,*,#39,.T.);
#39 = EDGE_CURVE('',#32,#40,#42,.T.);
#40 = VERTEX_POINT('',#41);
#41 = CARTESIAN_POINT('',(-73.,60.,94.));
#42 = LINE('',#43,#44);
#43 = CARTESIAN_POINT('',(-73.,56.,94.));
#44 = VECTOR('',#45,1.);
#45 = DIRECTION('',(0.,1.,0.));
#46 = ORIENTED_EDGE('',*,*,#47,.T.);
#47 = EDGE_CURVE('',#40,#24,#48,.T.);
#48 = LINE('',#49,#50);
#49 = CARTESIAN_POINT('',(-73.,60.,70.));
#50 = VECTOR('',#51,1.);
#51 = DIRECTION('',(0.,0.,1.));
#52 = PLANE('',#53);
#53 = AXIS2_PLACEMENT_3D('',#54,#55,#56);
#54 = CARTESIAN_POINT('',(-73.,57.,70.));
#55 = DIRECTION('',(1.,0.,0.));
#56 = DIRECTION('',(0.,0.,1.));
#57 = ADVANCED_FACE('',(#58),#92,.T.);
#58 = FACE_BOUND('',#59,.T.);
#59 = EDGE_LOOP('',(#60,#61,#70,#78,#86));
#60 = ORIENTED_EDGE('',*,*,#21,.F.);
#61 = ORIENTED_EDGE('',*,*,#62,.T.);
#62 = EDGE_CURVE('',#22,#63,#65,.T.);
#63 = VERTEX_POINT('',#64);
#64 = CARTESIAN_POINT('',(-48.93395183412,57.,180.));
#65 = CIRCLE('',#66,59.5);
#66 = AXIS2_PLACEMENT_3D('',#67,#68,#69);
#67 = CARTESIAN_POINT('',(-66.,0.,180.));
#68 = DIRECTION('',(0.,0.,-1.));
#69 = DIRECTION('',(1.,0.,0.));
#70 = ORIENTED_EDGE('',*,*,#71,.T.);
#71 = EDGE_CURVE('',#63,#72,#74,.T.);
#72 = VERTEX_POINT('',#73);
#73 = CARTESIAN_POINT('',(92.,57.,180.));
#74 = LINE('',#75,#76);
#75 = CARTESIAN_POINT('',(-73.,57.,180.));
#76 = VECTOR('',#77,1.);
#77 = DIRECTION('',(1.,0.,0.));
#78 = ORIENTED_EDGE('',*,*,#79,.T.);
#79 = EDGE_CURVE('',#72,#80,#82,.T.);
#80 = VERTEX_POINT('',#81);
#81 = CARTESIAN_POINT('',(92.,60.,180.));
#82 = LINE('',#83,#84);
#83 = CARTESIAN_POINT('',(92.,57.,180.));
#84 = VECTOR('',#85,1.);
#85 = DIRECTION('',(0.,1.,0.));
#86 = ORIENTED_EDGE('',*,*,#87,.F.);
#87 = EDGE_CURVE('',#24,#80,#88,.T.);
#88 = LINE('',#89,#90);
#89 = CARTESIAN_POINT('',(-73.,60.,180.));
#90 = VECTOR('',#91,1.);
#91 = DIRECTION('',(1.,0.,0.));
#92 = PLANE('',#93);
#93 = AXIS2_PLACEMENT_3D('',#94,#95,#96);
#94 = CARTESIAN_POINT('',(-73.,57.,180.));
#95 = DIRECTION('',(0.,0.,1.));
#96 = DIRECTION('',(1.,0.,0.));
#97 = ADVANCED_FACE('',(#98,#226,#237,#248,#259,#270,#281,#292),#303,.T.
  );
#98 = FACE_BOUND('',#99,.T.);
#99 = EDGE_LOOP('',(#100,#110,#118,#126,#134,#140,#141,#142,#150,#158,
    #167,#176,#184,#193,#202,#210,#219));
#100 = ORIENTED_EDGE('',*,*,#101,.F.);
#101 = EDGE_CURVE('',#102,#104,#106,.T.);
#102 = VERTEX_POINT('',#103);
#103 = CARTESIAN_POINT('',(-73.,60.,70.));
#104 = VERTEX_POINT('',#105);
#105 = CARTESIAN_POINT('',(3.083484861009,60.,70.));
#106 = LINE('',#107,#108);
#107 = CARTESIAN_POINT('',(-73.,60.,70.));
#108 = VECTOR('',#109,1.);
#109 = DIRECTION('',(1.,0.,0.));
#110 = ORIENTED_EDGE('',*,*,#111,.T.);
#111 = EDGE_CURVE('',#102,#112,#114,.T.);
#112 = VERTEX_POINT('',#113);
#113 = CARTESIAN_POINT('',(-73.,60.,87.));
#114 = LINE('',#115,#116);
#115 = CARTESIAN_POINT('',(-73.,60.,70.));
#116 = VECTOR('',#117,1.);
#117 = DIRECTION('',(0.,0.,1.));
#118 = ORIENTED_EDGE('',*,*,#119,.T.);
#119 = EDGE_CURVE('',#112,#120,#122,.T.);
#120 = VERTEX_POINT('',#121);
#121 = CARTESIAN_POINT('',(19.,60.,87.));
#122 = LINE('',#123,#124);
#123 = CARTESIAN_POINT('',(-73.,60.,87.));
#124 = VECTOR('',#125,1.);
#125 = DIRECTION('',(1.,0.,0.));
#126 = ORIENTED_EDGE('',*,*,#127,.F.);
#127 = EDGE_CURVE('',#128,#120,#130,.T.);
#128 = VERTEX_POINT('',#129);
#129 = CARTESIAN_POINT('',(19.,60.,94.));
#130 = LINE('',#131,#132);
#131 = CARTESIAN_POINT('',(19.,60.,78.5));
#132 = VECTOR('',#133,1.);
#133 = DIRECTION('',(0.,0.,-1.));
#134 = ORIENTED_EDGE('',*,*,#135,.F.);
#135 = EDGE_CURVE('',#40,#128,#136,.T.);
#136 = LINE('',#137,#138);
#137 = CARTESIAN_POINT('',(-73.,60.,94.));
#138 = VECTOR('',#139,1.);
#139 = DIRECTION('',(1.,0.,0.));
#140 = ORIENTED_EDGE('',*,*,#47,.T.);
#141 = ORIENTED_EDGE('',*,*,#87,.T.);
#142 = ORIENTED_EDGE('',*,*,#143,.F.);
#143 = EDGE_CURVE('',#144,#80,#146,.T.);
#144 = VERTEX_POINT('',#145);
#145 = CARTESIAN_POINT('',(92.,60.,70.));
#146 = LINE('',#147,#148);
#147 = CARTESIAN_POINT('',(92.,60.,70.));
#148 = VECTOR('',#149,1.);
#149 = DIRECTION('',(0.,0.,1.));
#150 = ORIENTED_EDGE('',*,*,#151,.F.);
#151 = EDGE_CURVE('',#152,#144,#154,.T.);
#152 = VERTEX_POINT('',#153);
#153 = CARTESIAN_POINT('',(80.916515138989,60.,70.));
#154 = LINE('',#155,#156);
#155 = CARTESIAN_POINT('',(-73.,60.,70.));
#156 = VECTOR('',#157,1.);
#157 = DIRECTION('',(1.,0.,0.));
#158 = ORIENTED_EDGE('',*,*,#159,.T.);
#159 = EDGE_CURVE('',#152,#160,#162,.T.);
#160 = VERTEX_POINT('',#161);
#161 = CARTESIAN_POINT('',(82.2,60.,72.));
#162 = CIRCLE('',#163,2.2);
#163 = AXIS2_PLACEMENT_3D('',#164,#165,#166);
#164 = CARTESIAN_POINT('',(80.,60.,72.));
#165 = DIRECTION('',(0.,-1.,2.2E-16));
#166 = DIRECTION('',(1.,0.,0.));
#167 = ORIENTED_EDGE('',*,*,#168,.T.);
#168 = EDGE_CURVE('',#160,#169,#171,.T.);
#169 = VERTEX_POINT('',#170);
#170 = CARTESIAN_POINT('',(79.083484861011,60.,70.));
#171 = CIRCLE('',#172,2.2);
#172 = AXIS2_PLACEMENT_3D('',#173,#174,#175);
#173 = CARTESIAN_POINT('',(80.,60.,72.));
#174 = DIRECTION('',(0.,-1.,2.2E-16));
#175 = DIRECTION('',(1.,0.,0.));
#176 = ORIENTED_EDGE('',*,*,#177,.F.);
#177 = EDGE_CURVE('',#178,#169,#180,.T.);
#178 = VERTEX_POINT('',#179);
#179 = CARTESIAN_POINT('',(21.959591794227,60.,70.));
#180 = LINE('',#181,#182);
#181 = CARTESIAN_POINT('',(-73.,60.,70.));
#182 = VECTOR('',#183,1.);
#183 = DIRECTION('',(1.,0.,0.));
#184 = ORIENTED_EDGE('',*,*,#185,.T.);
#185 = EDGE_CURVE('',#178,#186,#188,.T.);
#186 = VERTEX_POINT('',#187);
#187 = CARTESIAN_POINT('',(22.2,60.,71.));
#188 = CIRCLE('',#189,2.2);
#189 = AXIS2_PLACEMENT_3D('',#190,#191,#192);
#190 = CARTESIAN_POINT('',(20.,60.,71.));
#191 = DIRECTION('',(0.,-1.,2.2E-16));
#192 = DIRECTION('',(1.,0.,0.));
#193 = ORIENTED_EDGE('',*,*,#194,.T.);
#194 = EDGE_CURVE('',#186,#195,#197,.T.);
#195 = VERTEX_POINT('',#196);
#196 = CARTESIAN_POINT('',(18.040408205773,60.,70.));
#197 = CIRCLE('',#198,2.2);
#198 = AXIS2_PLACEMENT_3D('',#199,#200,#201);
#199 = CARTESIAN_POINT('',(20.,60.,71.));
#200 = DIRECTION('',(0.,-1.,2.2E-16));
#201 = DIRECTION('',(1.,0.,0.));
#202 = ORIENTED_EDGE('',*,*,#203,.F.);
#203 = EDGE_CURVE('',#204,#195,#206,.T.);
#204 = VERTEX_POINT('',#205);
#205 = CARTESIAN_POINT('',(4.916515138991,60.,70.));
#206 = LINE('',#207,#208);
#207 = CARTESIAN_POINT('',(-73.,60.,70.));
#208 = VECTOR('',#209,1.);
#209 = DIRECTION('',(1.,0.,0.));
#210 = ORIENTED_EDGE('',*,*,#211,.T.);
#211 = EDGE_CURVE('',#204,#212,#214,.T.);
#212 = VERTEX_POINT('',#213);
#213 = CARTESIAN_POINT('',(6.2,60.,72.));
#214 = CIRCLE('',#215,2.2);
#215 = AXIS2_PLACEMENT_3D('',#216,#217,#218);
#216 = CARTESIAN_POINT('',(4.,60.,72.));
#217 = DIRECTION('',(0.,-1.,2.2E-16));
#218 = DIRECTION('',(1.,0.,0.));
#219 = ORIENTED_EDGE('',*,*,#220,.T.);
#220 = EDGE_CURVE('',#212,#104,#221,.T.);
#221 = CIRCLE('',#222,2.2);
#222 = AXIS2_PLACEMENT_3D('',#223,#224,#225);
#223 = CARTESIAN_POINT('',(4.,60.,72.));
#224 = DIRECTION('',(0.,-1.,2.2E-16));
#225 = DIRECTION('',(1.,0.,0.));
#226 = FACE_BOUND('',#227,.T.);
#227 = EDGE_LOOP('',(#228));
#228 = ORIENTED_EDGE('',*,*,#229,.T.);
#229 = EDGE_CURVE('',#230,#230,#232,.T.);
#230 = VERTEX_POINT('',#231);
#231 = CARTESIAN_POINT('',(6.2,60.,80.));
#232 = CIRCLE('',#233,2.2);
#233 = AXIS2_PLACEMENT_3D('',#234,#235,#236);
#234 = CARTESIAN_POINT('',(4.,60.,80.));
#235 = DIRECTION('',(0.,-1.,2.2E-16));
#236 = DIRECTION('',(1.,0.,0.));
#237 = FACE_BOUND('',#238,.T.);
#238 = EDGE_LOOP('',(#239));
#239 = ORIENTED_EDGE('',*,*,#240,.T.);
#240 = EDGE_CURVE('',#241,#241,#243,.T.);
#241 = VERTEX_POINT('',#242);
#242 = CARTESIAN_POINT('',(-62.7,60.,146.));
#243 = CIRCLE('',#244,3.3);
#244 = AXIS2_PLACEMENT_3D('',#245,#246,#247);
#245 = CARTESIAN_POINT('',(-66.,60.,146.));
#246 = DIRECTION('',(0.,-1.,2.2E-16));
#247 = DIRECTION('',(1.,0.,0.));
#248 = FACE_BOUND('',#249,.T.);
#249 = EDGE_LOOP('',(#250));
#250 = ORIENTED_EDGE('',*,*,#251,.T.);
#251 = EDGE_CURVE('',#252,#252,#254,.T.);
#252 = VERTEX_POINT('',#253);
#253 = CARTESIAN_POINT('',(-43.8,60.,174.));
#254 = CIRCLE('',#255,2.2);
#255 = AXIS2_PLACEMENT_3D('',#256,#257,#258);
#256 = CARTESIAN_POINT('',(-46.,60.,174.));
#257 = DIRECTION('',(0.,-1.,2.2E-16));
#258 = DIRECTION('',(1.,0.,0.));
#259 = FACE_BOUND('',#260,.T.);
#260 = EDGE_LOOP('',(#261));
#261 = ORIENTED_EDGE('',*,*,#262,.T.);
#262 = EDGE_CURVE('',#263,#263,#265,.T.);
#263 = VERTEX_POINT('',#264);
#264 = CARTESIAN_POINT('',(-25.5,60.,174.));
#265 = CIRCLE('',#266,4.5);
#266 = AXIS2_PLACEMENT_3D('',#267,#268,#269);
#267 = CARTESIAN_POINT('',(-30.,60.,174.));
#268 = DIRECTION('',(0.,-1.,2.2E-16));
#269 = DIRECTION('',(1.,0.,0.));
#270 = FACE_BOUND('',#271,.T.);
#271 = EDGE_LOOP('',(#272));
#272 = ORIENTED_EDGE('',*,*,#273,.T.);
#273 = EDGE_CURVE('',#274,#274,#276,.T.);
#274 = VERTEX_POINT('',#275);
#275 = CARTESIAN_POINT('',(-9.8,60.,174.));
#276 = CIRCLE('',#277,2.2);
#277 = AXIS2_PLACEMENT_3D('',#278,#279,#280);
#278 = CARTESIAN_POINT('',(-12.,60.,174.));
#279 = DIRECTION('',(0.,-1.,2.2E-16));
#280 = DIRECTION('',(1.,0.,0.));
#281 = FACE_BOUND('',#282,.T.);
#282 = EDGE_LOOP('',(#283));
#283 = ORIENTED_EDGE('',*,*,#284,.T.);
#284 = EDGE_CURVE('',#285,#285,#287,.T.);
#285 = VERTEX_POINT('',#286);
#286 = CARTESIAN_POINT('',(62.2,60.,87.));
#287 = CIRCLE('',#288,2.2);
#288 = AXIS2_PLACEMENT_3D('',#289,#290,#291);
#289 = CARTESIAN_POINT('',(60.,60.,87.));
#290 = DIRECTION('',(0.,-1.,2.2E-16));
#291 = DIRECTION('',(1.,0.,0.));
#292 = FACE_BOUND('',#293,.T.);
#293 = EDGE_LOOP('',(#294));
#294 = ORIENTED_EDGE('',*,*,#295,.T.);
#295 = EDGE_CURVE('',#296,#296,#298,.T.);
#296 = VERTEX_POINT('',#297);
#297 = CARTESIAN_POINT('',(82.2,60.,80.));
#298 = CIRCLE('',#299,2.2);
#299 = AXIS2_PLACEMENT_3D('',#300,#301,#302);
#300 = CARTESIAN_POINT('',(80.,60.,80.));
#301 = DIRECTION('',(0.,-1.,2.2E-16));
#302 = DIRECTION('',(1.,0.,0.));
#303 = PLANE('',#304);
#304 = AXIS2_PLACEMENT_3D('',#305,#306,#307);
#305 = CARTESIAN_POINT('',(-73.,60.,70.));
#306 = DIRECTION('',(0.,1.,0.));
#307 = DIRECTION('',(0.,0.,1.));
#308 = ADVANCED_FACE('',(#309),#336,.F.);
#309 = FACE_BOUND('',#310,.F.);
#310 = EDGE_LOOP('',(#311,#312,#321,#329,#335));
#311 = ORIENTED_EDGE('',*,*,#39,.F.);
#312 = ORIENTED_EDGE('',*,*,#313,.T.);
#313 = EDGE_CURVE('',#32,#314,#316,.T.);
#314 = VERTEX_POINT('',#315);
#315 = CARTESIAN_POINT('',(-48.93395183412,57.,94.));
#316 = CIRCLE('',#317,59.5);
#317 = AXIS2_PLACEMENT_3D('',#318,#319,#320);
#318 = CARTESIAN_POINT('',(-66.,0.,94.));
#319 = DIRECTION('',(0.,0.,-1.));
#320 = DIRECTION('',(1.,0.,0.));
#321 = ORIENTED_EDGE('',*,*,#322,.T.);
#322 = EDGE_CURVE('',#314,#323,#325,.T.);
#323 = VERTEX_POINT('',#324);
#324 = CARTESIAN_POINT('',(19.,57.,94.));
#325 = LINE('',#326,#327);
#326 = CARTESIAN_POINT('',(-73.,57.,94.));
#327 = VECTOR('',#328,1.);
#328 = DIRECTION('',(1.,0.,0.));
#329 = ORIENTED_EDGE('',*,*,#330,.T.);
#330 = EDGE_CURVE('',#323,#128,#331,.T.);
#331 = LINE('',#332,#333);
#332 = CARTESIAN_POINT('',(19.,56.,94.));
#333 = VECTOR('',#334,1.);
#334 = DIRECTION('',(0.,1.,0.));
#335 = ORIENTED_EDGE('',*,*,#135,.F.);
#336 = PLANE('',#337);
#337 = AXIS2_PLACEMENT_3D('',#338,#339,#340);
#338 = CARTESIAN_POINT('',(-73.,56.,94.));
#339 = DIRECTION('',(0.,0.,1.));
#340 = DIRECTION('',(1.,0.,0.));
#341 = ADVANCED_FACE('',(#342,#353),#422,.F.);
#342 = FACE_BOUND('',#343,.T.);
#343 = EDGE_LOOP('',(#344,#345,#346,#352));
#344 = ORIENTED_EDGE('',*,*,#31,.T.);
#345 = ORIENTED_EDGE('',*,*,#313,.T.);
#346 = ORIENTED_EDGE('',*,*,#347,.F.);
#347 = EDGE_CURVE('',#63,#314,#348,.T.);
#348 = LINE('',#349,#350);
#349 = CARTESIAN_POINT('',(-48.93395183412,57.,67.));
#350 = VECTOR('',#351,1.);
#351 = DIRECTION('',(-0.,-0.,-1.));
#352 = ORIENTED_EDGE('',*,*,#62,.F.);
#353 = FACE_BOUND('',#354,.T.);
#354 = EDGE_LOOP('',(#355));
#355 = ORIENTED_EDGE('',*,*,#356,.T.);
#356 = EDGE_CURVE('',#357,#357,#359,.T.);
#357 = VERTEX_POINT('',#358);
#358 = CARTESIAN_POINT('',(-62.7,59.408416912084,146.));
#359 = B_SPLINE_CURVE_WITH_KNOTS('',7,(#360,#361,#362,#363,#364,#365,
    #366,#367,#368,#369,#370,#371,#372,#373,#374,#375,#376,#377,#378,
    #379,#380,#381,#382,#383,#384,#385,#386,#387,#388,#389,#390,#391,
    #392,#393,#394,#395,#396,#397,#398,#399,#400,#401,#402,#403,#404,
    #405,#406,#407,#408,#409,#410,#411,#412,#413,#414,#415,#416,#417,
    #418,#419,#420,#421),.UNSPECIFIED.,.T.,.F.,(8,6,6,6,6,6,6,6,6,6,8),(
    0.,0.121822707947,0.224254597644,0.309289341493,0.416514183605,
    0.531418342987,0.643336704958,0.737761662983,0.822915181446,
    0.905363205311,1.),.UNSPECIFIED.);
#360 = CARTESIAN_POINT('',(-62.7,59.408416912084,146.));
#361 = CARTESIAN_POINT('',(-62.7,59.408416912084,145.69614100142));
#362 = CARTESIAN_POINT('',(-62.73264147921,59.410230063347,
    145.39254148579));
#363 = CARTESIAN_POINT('',(-62.79782801904,59.413851062416,
    145.09111697307));
#364 = CARTESIAN_POINT('',(-62.89624494606,59.419204464574,
    144.7939601162));
#365 = CARTESIAN_POINT('',(-63.0292065967,59.426138834545,
    144.50370733872));
#366 = CARTESIAN_POINT('',(-63.19848005651,59.434372570481,
    144.22398993962));
#367 = CARTESIAN_POINT('',(-63.58053411597,59.451044535255,
    143.73816868248));
#368 = CARTESIAN_POINT('',(-63.78363226285,59.459308432692,
    143.52548747351));
#369 = CARTESIAN_POINT('',(-64.0160204233,59.467898842059,
    143.32719984063));
#370 = CARTESIAN_POINT('',(-64.27756966993,59.476356289856,
    143.14878890266));
#371 = CARTESIAN_POINT('',(-64.56729605193,59.484100965977,
    142.99605874707));
#372 = CARTESIAN_POINT('',(-64.88322031986,59.490483200284,
    142.87520779707));
#373 = CARTESIAN_POINT('',(-65.50323275095,59.498590993483,
    142.72479440879));
#374 = CARTESIAN_POINT('',(-65.7973755178,59.500886386634,
    142.68390294207));
#375 = CARTESIAN_POINT('',(-66.09802328294,59.501458950493,
    142.67421386445));
#376 = CARTESIAN_POINT('',(-66.39806223353,59.500155264448,
    142.6970434416));
#377 = CARTESIAN_POINT('',(-66.69034171175,59.497103394104,
    142.75120079273));
#378 = CARTESIAN_POINT('',(-66.96829237856,59.492681081013,
    142.83302064599));
#379 = CARTESIAN_POINT('',(-67.55205633716,59.480645273572,
    143.06672448114));
#380 = CARTESIAN_POINT('',(-67.84738139935,59.47247667058,
    143.23178826278));
#381 = CARTESIAN_POINT('',(-68.11112564986,59.463574256998,
    143.4237526789));
#382 = CARTESIAN_POINT('',(-68.34323776357,59.454587373804,
    143.63631972996));
#383 = CARTESIAN_POINT('',(-68.54435332928,59.446003724896,
    143.86429479163));
#384 = CARTESIAN_POINT('',(-68.71548991091,59.438173234533,
    144.10336649315));
#385 = CARTESIAN_POINT('',(-69.01047583949,59.423988198223,
    144.61429710896));
#386 = CARTESIAN_POINT('',(-69.1307391898,59.417746879225,
    144.88845325646));
#387 = CARTESIAN_POINT('',(-69.22014189747,59.412880863258,
    145.16909252114));
#388 = CARTESIAN_POINT('',(-69.2798213522,59.409546853647,145.4537653365
    ));
#389 = CARTESIAN_POINT('',(-69.31049058525,59.407824093916,
    145.74056156043));
#390 = CARTESIAN_POINT('',(-69.31235753965,59.407735482082,
    146.02778436446));
#391 = CARTESIAN_POINT('',(-69.25846654794,59.410715405458,
    146.59215636289));
#392 = CARTESIAN_POINT('',(-69.20423642146,59.413700145342,
    146.86904082108));
#393 = CARTESIAN_POINT('',(-69.12213423162,59.41816009075,
    147.14282813889));
#394 = CARTESIAN_POINT('',(-69.01137807669,59.424004171958,
    147.41172076467));
#395 = CARTESIAN_POINT('',(-68.87076071465,59.431076974379,
    147.67338942617));
#396 = CARTESIAN_POINT('',(-68.69880189823,59.439115881615,
    147.92465595936));
#397 = CARTESIAN_POINT('',(-68.32116098839,59.454958821146,
    148.36047680198));
#398 = CARTESIAN_POINT('',(-68.12361583468,59.462659282973,
    148.55086087441));
#399 = CARTESIAN_POINT('',(-67.90100060842,59.470521777614,
    148.72778147303));
#400 = CARTESIAN_POINT('',(-67.6536751875,59.478158694392,
    148.88667253942));
#401 = CARTESIAN_POINT('',(-67.38268681381,59.485098439495,
    149.02282123113));
#402 = CARTESIAN_POINT('',(-67.08986258635,59.490835190371,
    149.13132221922));
#403 = CARTESIAN_POINT('',(-66.49676724904,59.498590993483,
    149.2752055912));
#404 = CARTESIAN_POINT('',(-66.20262448219,59.500886386634,
    149.31609705793));
#405 = CARTESIAN_POINT('',(-65.90197671705,59.501458950493,
    149.32578613554));
#406 = CARTESIAN_POINT('',(-65.60193776646,59.500155264448,
    149.30295655839));
#407 = CARTESIAN_POINT('',(-65.30965828824,59.497103394104,
    149.24879920726));
#408 = CARTESIAN_POINT('',(-65.03170762143,59.492681081013,149.166979354
    ));
#409 = CARTESIAN_POINT('',(-64.52352349317,59.482203547719,
    148.96353311861));
#410 = CARTESIAN_POINT('',(-64.28305588646,59.476019580665,
    148.83965097959));
#411 = CARTESIAN_POINT('',(-64.05484541822,59.469029524618,
    148.69306096874));
#412 = CARTESIAN_POINT('',(-63.84144410462,59.461525483188,
    148.5252417413));
#413 = CARTESIAN_POINT('',(-63.64517736251,59.453839634099,
    148.33801923548));
#414 = CARTESIAN_POINT('',(-63.46809241243,59.446310988441,
    148.13353025527));
#415 = CARTESIAN_POINT('',(-63.13261537653,59.431139261391,
    147.66241867743));
#416 = CARTESIAN_POINT('',(-62.98605831004,59.423879029957,
    147.39838446922));
#417 = CARTESIAN_POINT('',(-62.87067350672,59.41781190283,
    147.12599527936));
#418 = CARTESIAN_POINT('',(-62.78511431279,59.4131445782,146.84803979043
    ));
#419 = CARTESIAN_POINT('',(-62.72839259266,59.409994150984,
    146.56660196959));
#420 = CARTESIAN_POINT('',(-62.7,59.408416912084,146.28339322295));
#421 = CARTESIAN_POINT('',(-62.7,59.408416912084,146.));
#422 = CYLINDRICAL_SURFACE('',#423,59.5);
#423 = AXIS2_PLACEMENT_3D('',#424,#425,#426);
#424 = CARTESIAN_POINT('',(-66.,0.,67.));
#425 = DIRECTION('',(-0.,-0.,-1.));
#426 = DIRECTION('',(1.,0.,0.));
#427 = ADVANCED_FACE('',(#428),#446,.T.);
#428 = FACE_BOUND('',#429,.T.);
#429 = EDGE_LOOP('',(#430,#438,#444,#445));
#430 = ORIENTED_EDGE('',*,*,#431,.F.);
#431 = EDGE_CURVE('',#432,#72,#434,.T.);
#432 = VERTEX_POINT('',#433);
#433 = CARTESIAN_POINT('',(92.,57.,70.));
#434 = LINE('',#435,#436);
#435 = CARTESIAN_POINT('',(92.,57.,70.));
#436 = VECTOR('',#437,1.);
#437 = DIRECTION('',(0.,0.,1.));
#438 = ORIENTED_EDGE('',*,*,#439,.T.);
#439 = EDGE_CURVE('',#432,#144,#440,.T.);
#440 = LINE('',#441,#442);
#441 = CARTESIAN_POINT('',(92.,57.,70.));
#442 = VECTOR('',#443,1.);
#443 = DIRECTION('',(0.,1.,0.));
#444 = ORIENTED_EDGE('',*,*,#143,.T.);
#445 = ORIENTED_EDGE('',*,*,#79,.F.);
#446 = PLANE('',#447);
#447 = AXIS2_PLACEMENT_3D('',#448,#449,#450);
#448 = CARTESIAN_POINT('',(92.,57.,70.));
#449 = DIRECTION('',(1.,0.,0.));
#450 = DIRECTION('',(0.,0.,1.));
#451 = ADVANCED_FACE('',(#452,#566,#577,#588,#599,#610,#621),#632,.F.);
#452 = FACE_BOUND('',#453,.F.);
#453 = EDGE_LOOP('',(#454,#465,#473,#481,#489,#495,#496,#497,#498,#499,
    #507,#516,#525,#533,#542,#551,#559));
#454 = ORIENTED_EDGE('',*,*,#455,.F.);
#455 = EDGE_CURVE('',#456,#458,#460,.T.);
#456 = VERTEX_POINT('',#457);
#457 = CARTESIAN_POINT('',(3.083484861009,57.,70.));
#458 = VERTEX_POINT('',#459);
#459 = CARTESIAN_POINT('',(6.2,57.,72.));
#460 = CIRCLE('',#461,2.2);
#461 = AXIS2_PLACEMENT_3D('',#462,#463,#464);
#462 = CARTESIAN_POINT('',(4.,57.,72.));
#463 = DIRECTION('',(-0.,1.,0.));
#464 = DIRECTION('',(1.,0.,0.));
#465 = ORIENTED_EDGE('',*,*,#466,.F.);
#466 = EDGE_CURVE('',#467,#456,#469,.T.);
#467 = VERTEX_POINT('',#468);
#468 = CARTESIAN_POINT('',(-48.93395183412,57.,70.));
#469 = LINE('',#470,#471);
#470 = CARTESIAN_POINT('',(-73.,57.,70.));
#471 = VECTOR('',#472,1.);
#472 = DIRECTION('',(1.,0.,0.));
#473 = ORIENTED_EDGE('',*,*,#474,.F.);
#474 = EDGE_CURVE('',#475,#467,#477,.T.);
#475 = VERTEX_POINT('',#476);
#476 = CARTESIAN_POINT('',(-48.93395183412,57.,87.));
#477 = LINE('',#478,#479);
#478 = CARTESIAN_POINT('',(-48.93395183412,57.,67.));
#479 = VECTOR('',#480,1.);
#480 = DIRECTION('',(-0.,-0.,-1.));
#481 = ORIENTED_EDGE('',*,*,#482,.T.);
#482 = EDGE_CURVE('',#475,#483,#485,.T.);
#483 = VERTEX_POINT('',#484);
#484 = CARTESIAN_POINT('',(19.,57.,87.));
#485 = LINE('',#486,#487);
#486 = CARTESIAN_POINT('',(-73.,57.,87.));
#487 = VECTOR('',#488,1.);
#488 = DIRECTION('',(1.,0.,0.));
#489 = ORIENTED_EDGE('',*,*,#490,.F.);
#490 = EDGE_CURVE('',#323,#483,#491,.T.);
#491 = LINE('',#492,#493);
#492 = CARTESIAN_POINT('',(19.,57.,78.5));
#493 = VECTOR('',#494,1.);
#494 = DIRECTION('',(0.,0.,-1.));
#495 = ORIENTED_EDGE('',*,*,#322,.F.);
#496 = ORIENTED_EDGE('',*,*,#347,.F.);
#497 = ORIENTED_EDGE('',*,*,#71,.T.);
#498 = ORIENTED_EDGE('',*,*,#431,.F.);
#499 = ORIENTED_EDGE('',*,*,#500,.F.);
#500 = EDGE_CURVE('',#501,#432,#503,.T.);
#501 = VERTEX_POINT('',#502);
#502 = CARTESIAN_POINT('',(80.916515138991,57.,70.));
#503 = LINE('',#504,#505);
#504 = CARTESIAN_POINT('',(-73.,57.,70.));
#505 = VECTOR('',#506,1.);
#506 = DIRECTION('',(1.,0.,0.));
#507 = ORIENTED_EDGE('',*,*,#508,.F.);
#508 = EDGE_CURVE('',#509,#501,#511,.T.);
#509 = VERTEX_POINT('',#510);
#510 = CARTESIAN_POINT('',(82.2,57.,72.));
#511 = CIRCLE('',#512,2.2);
#512 = AXIS2_PLACEMENT_3D('',#513,#514,#515);
#513 = CARTESIAN_POINT('',(80.,57.,72.));
#514 = DIRECTION('',(-0.,1.,0.));
#515 = DIRECTION('',(1.,0.,0.));
#516 = ORIENTED_EDGE('',*,*,#517,.F.);
#517 = EDGE_CURVE('',#518,#509,#520,.T.);
#518 = VERTEX_POINT('',#519);
#519 = CARTESIAN_POINT('',(79.083484861009,57.,70.));
#520 = CIRCLE('',#521,2.2);
#521 = AXIS2_PLACEMENT_3D('',#522,#523,#524);
#522 = CARTESIAN_POINT('',(80.,57.,72.));
#523 = DIRECTION('',(-0.,1.,0.));
#524 = DIRECTION('',(1.,0.,0.));
#525 = ORIENTED_EDGE('',*,*,#526,.F.);
#526 = EDGE_CURVE('',#527,#518,#529,.T.);
#527 = VERTEX_POINT('',#528);
#528 = CARTESIAN_POINT('',(21.959591794227,57.,70.));
#529 = LINE('',#530,#531);
#530 = CARTESIAN_POINT('',(-73.,57.,70.));
#531 = VECTOR('',#532,1.);
#532 = DIRECTION('',(1.,0.,0.));
#533 = ORIENTED_EDGE('',*,*,#534,.F.);
#534 = EDGE_CURVE('',#535,#527,#537,.T.);
#535 = VERTEX_POINT('',#536);
#536 = CARTESIAN_POINT('',(22.2,57.,71.));
#537 = CIRCLE('',#538,2.2);
#538 = AXIS2_PLACEMENT_3D('',#539,#540,#541);
#539 = CARTESIAN_POINT('',(20.,57.,71.));
#540 = DIRECTION('',(-0.,1.,0.));
#541 = DIRECTION('',(1.,0.,0.));
#542 = ORIENTED_EDGE('',*,*,#543,.F.);
#543 = EDGE_CURVE('',#544,#535,#546,.T.);
#544 = VERTEX_POINT('',#545);
#545 = CARTESIAN_POINT('',(18.040408205773,57.,70.));
#546 = CIRCLE('',#547,2.2);
#547 = AXIS2_PLACEMENT_3D('',#548,#549,#550);
#548 = CARTESIAN_POINT('',(20.,57.,71.));
#549 = DIRECTION('',(-0.,1.,0.));
#550 = DIRECTION('',(1.,0.,0.));
#551 = ORIENTED_EDGE('',*,*,#552,.F.);
#552 = EDGE_CURVE('',#553,#544,#555,.T.);
#553 = VERTEX_POINT('',#554);
#554 = CARTESIAN_POINT('',(4.916515138991,57.,70.));
#555 = LINE('',#556,#557);
#556 = CARTESIAN_POINT('',(-73.,57.,70.));
#557 = VECTOR('',#558,1.);
#558 = DIRECTION('',(1.,0.,0.));
#559 = ORIENTED_EDGE('',*,*,#560,.F.);
#560 = EDGE_CURVE('',#458,#553,#561,.T.);
#561 = CIRCLE('',#562,2.2);
#562 = AXIS2_PLACEMENT_3D('',#563,#564,#565);
#563 = CARTESIAN_POINT('',(4.,57.,72.));
#564 = DIRECTION('',(-0.,1.,0.));
#565 = DIRECTION('',(1.,0.,0.));
#566 = FACE_BOUND('',#567,.F.);
#567 = EDGE_LOOP('',(#568));
#568 = ORIENTED_EDGE('',*,*,#569,.F.);
#569 = EDGE_CURVE('',#570,#570,#572,.T.);
#570 = VERTEX_POINT('',#571);
#571 = CARTESIAN_POINT('',(6.2,57.,80.));
#572 = CIRCLE('',#573,2.2);
#573 = AXIS2_PLACEMENT_3D('',#574,#575,#576);
#574 = CARTESIAN_POINT('',(4.,57.,80.));
#575 = DIRECTION('',(-0.,1.,0.));
#576 = DIRECTION('',(1.,0.,0.));
#577 = FACE_BOUND('',#578,.F.);
#578 = EDGE_LOOP('',(#579));
#579 = ORIENTED_EDGE('',*,*,#580,.F.);
#580 = EDGE_CURVE('',#581,#581,#583,.T.);
#581 = VERTEX_POINT('',#582);
#582 = CARTESIAN_POINT('',(-43.8,57.,174.));
#583 = CIRCLE('',#584,2.2);
#584 = AXIS2_PLACEMENT_3D('',#585,#586,#587);
#585 = CARTESIAN_POINT('',(-46.,57.,174.));
#586 = DIRECTION('',(-0.,1.,0.));
#587 = DIRECTION('',(1.,0.,0.));
#588 = FACE_BOUND('',#589,.F.);
#589 = EDGE_LOOP('',(#590));
#590 = ORIENTED_EDGE('',*,*,#591,.F.);
#591 = EDGE_CURVE('',#592,#592,#594,.T.);
#592 = VERTEX_POINT('',#593);
#593 = CARTESIAN_POINT('',(-25.5,57.,174.));
#594 = CIRCLE('',#595,4.5);
#595 = AXIS2_PLACEMENT_3D('',#596,#597,#598);
#596 = CARTESIAN_POINT('',(-30.,57.,174.));
#597 = DIRECTION('',(-0.,1.,0.));
#598 = DIRECTION('',(1.,0.,0.));
#599 = FACE_BOUND('',#600,.F.);
#600 = EDGE_LOOP('',(#601));
#601 = ORIENTED_EDGE('',*,*,#602,.F.);
#602 = EDGE_CURVE('',#603,#603,#605,.T.);
#603 = VERTEX_POINT('',#604);
#604 = CARTESIAN_POINT('',(-9.8,57.,174.));
#605 = CIRCLE('',#606,2.2);
#606 = AXIS2_PLACEMENT_3D('',#607,#608,#609);
#607 = CARTESIAN_POINT('',(-12.,57.,174.));
#608 = DIRECTION('',(-0.,1.,0.));
#609 = DIRECTION('',(1.,0.,0.));
#610 = FACE_BOUND('',#611,.F.);
#611 = EDGE_LOOP('',(#612));
#612 = ORIENTED_EDGE('',*,*,#613,.F.);
#613 = EDGE_CURVE('',#614,#614,#616,.T.);
#614 = VERTEX_POINT('',#615);
#615 = CARTESIAN_POINT('',(62.2,57.,87.));
#616 = CIRCLE('',#617,2.2);
#617 = AXIS2_PLACEMENT_3D('',#618,#619,#620);
#618 = CARTESIAN_POINT('',(60.,57.,87.));
#619 = DIRECTION('',(-0.,1.,0.));
#620 = DIRECTION('',(1.,0.,0.));
#621 = FACE_BOUND('',#622,.F.);
#622 = EDGE_LOOP('',(#623));
#623 = ORIENTED_EDGE('',*,*,#624,.F.);
#624 = EDGE_CURVE('',#625,#625,#627,.T.);
#625 = VERTEX_POINT('',#626);
#626 = CARTESIAN_POINT('',(82.2,57.,80.));
#627 = CIRCLE('',#628,2.2);
#628 = AXIS2_PLACEMENT_3D('',#629,#630,#631);
#629 = CARTESIAN_POINT('',(80.,57.,80.));
#630 = DIRECTION('',(-0.,1.,0.));
#631 = DIRECTION('',(1.,0.,0.));
#632 = PLANE('',#633);
#633 = AXIS2_PLACEMENT_3D('',#634,#635,#636);
#634 = CARTESIAN_POINT('',(-73.,57.,70.));
#635 = DIRECTION('',(0.,1.,0.));
#636 = DIRECTION('',(0.,0.,1.));
#637 = ADVANCED_FACE('',(#638),#663,.F.);
#638 = FACE_BOUND('',#639,.F.);
#639 = EDGE_LOOP('',(#640,#648,#655,#656,#662));
#640 = ORIENTED_EDGE('',*,*,#641,.F.);
#641 = EDGE_CURVE('',#642,#102,#644,.T.);
#642 = VERTEX_POINT('',#643);
#643 = CARTESIAN_POINT('',(-73.,59.086800556469,70.));
#644 = LINE('',#645,#646);
#645 = CARTESIAN_POINT('',(-73.,57.,70.));
#646 = VECTOR('',#647,1.);
#647 = DIRECTION('',(0.,1.,0.));
#648 = ORIENTED_EDGE('',*,*,#649,.T.);
#649 = EDGE_CURVE('',#642,#467,#650,.T.);
#650 = CIRCLE('',#651,59.5);
#651 = AXIS2_PLACEMENT_3D('',#652,#653,#654);
#652 = CARTESIAN_POINT('',(-66.,0.,70.));
#653 = DIRECTION('',(0.,0.,-1.));
#654 = DIRECTION('',(1.,0.,0.));
#655 = ORIENTED_EDGE('',*,*,#466,.T.);
#656 = ORIENTED_EDGE('',*,*,#657,.F.);
#657 = EDGE_CURVE('',#104,#456,#658,.T.);
#658 = LINE('',#659,#660);
#659 = CARTESIAN_POINT('',(3.083484861009,57.,70.));
#660 = VECTOR('',#661,1.);
#661 = DIRECTION('',(0.,-1.,2.2E-16));
#662 = ORIENTED_EDGE('',*,*,#101,.F.);
#663 = PLANE('',#664);
#664 = AXIS2_PLACEMENT_3D('',#665,#666,#667);
#665 = CARTESIAN_POINT('',(-73.,57.,70.));
#666 = DIRECTION('',(0.,0.,1.));
#667 = DIRECTION('',(1.,0.,0.));
#668 = ADVANCED_FACE('',(#669),#685,.F.);
#669 = FACE_BOUND('',#670,.F.);
#670 = EDGE_LOOP('',(#671,#677,#678,#684));
#671 = ORIENTED_EDGE('',*,*,#672,.T.);
#672 = EDGE_CURVE('',#204,#553,#673,.T.);
#673 = LINE('',#674,#675);
#674 = CARTESIAN_POINT('',(4.916515138991,57.,70.));
#675 = VECTOR('',#676,1.);
#676 = DIRECTION('',(0.,-1.,2.2E-16));
#677 = ORIENTED_EDGE('',*,*,#552,.T.);
#678 = ORIENTED_EDGE('',*,*,#679,.F.);
#679 = EDGE_CURVE('',#195,#544,#680,.T.);
#680 = LINE('',#681,#682);
#681 = CARTESIAN_POINT('',(18.040408205773,57.,70.));
#682 = VECTOR('',#683,1.);
#683 = DIRECTION('',(0.,-1.,2.2E-16));
#684 = ORIENTED_EDGE('',*,*,#203,.F.);
#685 = PLANE('',#686);
#686 = AXIS2_PLACEMENT_3D('',#687,#688,#689);
#687 = CARTESIAN_POINT('',(-73.,57.,70.));
#688 = DIRECTION('',(0.,0.,1.));
#689 = DIRECTION('',(1.,0.,0.));
#690 = ADVANCED_FACE('',(#691),#707,.F.);
#691 = FACE_BOUND('',#692,.F.);
#692 = EDGE_LOOP('',(#693,#699,#700,#706));
#693 = ORIENTED_EDGE('',*,*,#694,.T.);
#694 = EDGE_CURVE('',#178,#527,#695,.T.);
#695 = LINE('',#696,#697);
#696 = CARTESIAN_POINT('',(21.959591794227,57.,70.));
#697 = VECTOR('',#698,1.);
#698 = DIRECTION('',(0.,-1.,2.2E-16));
#699 = ORIENTED_EDGE('',*,*,#526,.T.);
#700 = ORIENTED_EDGE('',*,*,#701,.F.);
#701 = EDGE_CURVE('',#169,#518,#702,.T.);
#702 = LINE('',#703,#704);
#703 = CARTESIAN_POINT('',(79.083484861009,57.,70.));
#704 = VECTOR('',#705,1.);
#705 = DIRECTION('',(0.,-1.,2.2E-16));
#706 = ORIENTED_EDGE('',*,*,#177,.F.);
#707 = PLANE('',#708);
#708 = AXIS2_PLACEMENT_3D('',#709,#710,#711);
#709 = CARTESIAN_POINT('',(-73.,57.,70.));
#710 = DIRECTION('',(0.,0.,1.));
#711 = DIRECTION('',(1.,0.,0.));
#712 = ADVANCED_FACE('',(#713),#724,.F.);
#713 = FACE_BOUND('',#714,.F.);
#714 = EDGE_LOOP('',(#715,#721,#722,#723));
#715 = ORIENTED_EDGE('',*,*,#716,.T.);
#716 = EDGE_CURVE('',#152,#501,#717,.T.);
#717 = LINE('',#718,#719);
#718 = CARTESIAN_POINT('',(80.916515138991,57.,70.));
#719 = VECTOR('',#720,1.);
#720 = DIRECTION('',(0.,-1.,2.2E-16));
#721 = ORIENTED_EDGE('',*,*,#500,.T.);
#722 = ORIENTED_EDGE('',*,*,#439,.T.);
#723 = ORIENTED_EDGE('',*,*,#151,.F.);
#724 = PLANE('',#725);
#725 = AXIS2_PLACEMENT_3D('',#726,#727,#728);
#726 = CARTESIAN_POINT('',(-73.,57.,70.));
#727 = DIRECTION('',(0.,0.,1.));
#728 = DIRECTION('',(1.,0.,0.));
#729 = ADVANCED_FACE('',(#730),#741,.F.);
#730 = FACE_BOUND('',#731,.F.);
#731 = EDGE_LOOP('',(#732,#733,#734,#740));
#732 = ORIENTED_EDGE('',*,*,#330,.F.);
#733 = ORIENTED_EDGE('',*,*,#490,.T.);
#734 = ORIENTED_EDGE('',*,*,#735,.T.);
#735 = EDGE_CURVE('',#483,#120,#736,.T.);
#736 = LINE('',#737,#738);
#737 = CARTESIAN_POINT('',(19.,56.,87.));
#738 = VECTOR('',#739,1.);
#739 = DIRECTION('',(0.,1.,0.));
#740 = ORIENTED_EDGE('',*,*,#127,.F.);
#741 = PLANE('',#742);
#742 = AXIS2_PLACEMENT_3D('',#743,#744,#745);
#743 = CARTESIAN_POINT('',(19.,56.,87.));
#744 = DIRECTION('',(1.,0.,0.));
#745 = DIRECTION('',(0.,0.,1.));
#746 = ADVANCED_FACE('',(#747),#767,.T.);
#747 = FACE_BOUND('',#748,.T.);
#748 = EDGE_LOOP('',(#749,#757,#764,#765,#766));
#749 = ORIENTED_EDGE('',*,*,#750,.F.);
#750 = EDGE_CURVE('',#751,#112,#753,.T.);
#751 = VERTEX_POINT('',#752);
#752 = CARTESIAN_POINT('',(-73.,59.086800556469,87.));
#753 = LINE('',#754,#755);
#754 = CARTESIAN_POINT('',(-73.,56.,87.));
#755 = VECTOR('',#756,1.);
#756 = DIRECTION('',(0.,1.,0.));
#757 = ORIENTED_EDGE('',*,*,#758,.T.);
#758 = EDGE_CURVE('',#751,#475,#759,.T.);
#759 = CIRCLE('',#760,59.5);
#760 = AXIS2_PLACEMENT_3D('',#761,#762,#763);
#761 = CARTESIAN_POINT('',(-66.,0.,87.));
#762 = DIRECTION('',(0.,0.,-1.));
#763 = DIRECTION('',(1.,0.,0.));
#764 = ORIENTED_EDGE('',*,*,#482,.T.);
#765 = ORIENTED_EDGE('',*,*,#735,.T.);
#766 = ORIENTED_EDGE('',*,*,#119,.F.);
#767 = PLANE('',#768);
#768 = AXIS2_PLACEMENT_3D('',#769,#770,#771);
#769 = CARTESIAN_POINT('',(-73.,56.,87.));
#770 = DIRECTION('',(0.,0.,1.));
#771 = DIRECTION('',(1.,0.,0.));
#772 = ADVANCED_FACE('',(#773),#784,.F.);
#773 = FACE_BOUND('',#774,.F.);
#774 = EDGE_LOOP('',(#775,#781,#782,#783));
#775 = ORIENTED_EDGE('',*,*,#776,.T.);
#776 = EDGE_CURVE('',#751,#642,#777,.T.);
#777 = LINE('',#778,#779);
#778 = CARTESIAN_POINT('',(-73.,59.086800556469,67.));
#779 = VECTOR('',#780,1.);
#780 = DIRECTION('',(-0.,-0.,-1.));
#781 = ORIENTED_EDGE('',*,*,#641,.T.);
#782 = ORIENTED_EDGE('',*,*,#111,.T.);
#783 = ORIENTED_EDGE('',*,*,#750,.F.);
#784 = PLANE('',#785);
#785 = AXIS2_PLACEMENT_3D('',#786,#787,#788);
#786 = CARTESIAN_POINT('',(-73.,57.,70.));
#787 = DIRECTION('',(1.,0.,0.));
#788 = DIRECTION('',(0.,0.,1.));
#789 = ADVANCED_FACE('',(#790),#801,.F.);
#790 = FACE_BOUND('',#791,.T.);
#791 = EDGE_LOOP('',(#792,#793,#799,#800));
#792 = ORIENTED_EDGE('',*,*,#569,.F.);
#793 = ORIENTED_EDGE('',*,*,#794,.T.);
#794 = EDGE_CURVE('',#570,#230,#795,.T.);
#795 = LINE('',#796,#797);
#796 = CARTESIAN_POINT('',(6.2,57.,80.));
#797 = VECTOR('',#798,1.);
#798 = DIRECTION('',(0.,1.,0.));
#799 = ORIENTED_EDGE('',*,*,#229,.F.);
#800 = ORIENTED_EDGE('',*,*,#794,.F.);
#801 = CYLINDRICAL_SURFACE('',#802,2.2);
#802 = AXIS2_PLACEMENT_3D('',#803,#804,#805);
#803 = CARTESIAN_POINT('',(4.,57.,80.));
#804 = DIRECTION('',(-0.,-1.,0.));
#805 = DIRECTION('',(1.,0.,0.));
#806 = ADVANCED_FACE('',(#807),#818,.F.);
#807 = FACE_BOUND('',#808,.T.);
#808 = EDGE_LOOP('',(#809,#815,#816,#817));
#809 = ORIENTED_EDGE('',*,*,#810,.F.);
#810 = EDGE_CURVE('',#357,#241,#811,.T.);
#811 = LINE('',#812,#813);
#812 = CARTESIAN_POINT('',(-62.7,57.,146.));
#813 = VECTOR('',#814,1.);
#814 = DIRECTION('',(0.,1.,0.));
#815 = ORIENTED_EDGE('',*,*,#356,.F.);
#816 = ORIENTED_EDGE('',*,*,#810,.T.);
#817 = ORIENTED_EDGE('',*,*,#240,.F.);
#818 = CYLINDRICAL_SURFACE('',#819,3.3);
#819 = AXIS2_PLACEMENT_3D('',#820,#821,#822);
#820 = CARTESIAN_POINT('',(-66.,57.,146.));
#821 = DIRECTION('',(-0.,-1.,0.));
#822 = DIRECTION('',(1.,0.,0.));
#823 = ADVANCED_FACE('',(#824),#835,.F.);
#824 = FACE_BOUND('',#825,.T.);
#825 = EDGE_LOOP('',(#826,#827,#833,#834));
#826 = ORIENTED_EDGE('',*,*,#580,.F.);
#827 = ORIENTED_EDGE('',*,*,#828,.T.);
#828 = EDGE_CURVE('',#581,#252,#829,.T.);
#829 = LINE('',#830,#831);
#830 = CARTESIAN_POINT('',(-43.8,57.,174.));
#831 = VECTOR('',#832,1.);
#832 = DIRECTION('',(0.,1.,0.));
#833 = ORIENTED_EDGE('',*,*,#251,.F.);
#834 = ORIENTED_EDGE('',*,*,#828,.F.);
#835 = CYLINDRICAL_SURFACE('',#836,2.2);
#836 = AXIS2_PLACEMENT_3D('',#837,#838,#839);
#837 = CARTESIAN_POINT('',(-46.,57.,174.));
#838 = DIRECTION('',(-0.,-1.,0.));
#839 = DIRECTION('',(1.,0.,0.));
#840 = ADVANCED_FACE('',(#841),#852,.F.);
#841 = FACE_BOUND('',#842,.T.);
#842 = EDGE_LOOP('',(#843,#844,#850,#851));
#843 = ORIENTED_EDGE('',*,*,#591,.F.);
#844 = ORIENTED_EDGE('',*,*,#845,.T.);
#845 = EDGE_CURVE('',#592,#263,#846,.T.);
#846 = LINE('',#847,#848);
#847 = CARTESIAN_POINT('',(-25.5,57.,174.));
#848 = VECTOR('',#849,1.);
#849 = DIRECTION('',(0.,1.,0.));
#850 = ORIENTED_EDGE('',*,*,#262,.F.);
#851 = ORIENTED_EDGE('',*,*,#845,.F.);
#852 = CYLINDRICAL_SURFACE('',#853,4.5);
#853 = AXIS2_PLACEMENT_3D('',#854,#855,#856);
#854 = CARTESIAN_POINT('',(-30.,57.,174.));
#855 = DIRECTION('',(-0.,-1.,0.));
#856 = DIRECTION('',(1.,0.,0.));
#857 = ADVANCED_FACE('',(#858),#869,.F.);
#858 = FACE_BOUND('',#859,.T.);
#859 = EDGE_LOOP('',(#860,#861,#867,#868));
#860 = ORIENTED_EDGE('',*,*,#602,.F.);
#861 = ORIENTED_EDGE('',*,*,#862,.T.);
#862 = EDGE_CURVE('',#603,#274,#863,.T.);
#863 = LINE('',#864,#865);
#864 = CARTESIAN_POINT('',(-9.8,57.,174.));
#865 = VECTOR('',#866,1.);
#866 = DIRECTION('',(0.,1.,0.));
#867 = ORIENTED_EDGE('',*,*,#273,.F.);
#868 = ORIENTED_EDGE('',*,*,#862,.F.);
#869 = CYLINDRICAL_SURFACE('',#870,2.2);
#870 = AXIS2_PLACEMENT_3D('',#871,#872,#873);
#871 = CARTESIAN_POINT('',(-12.,57.,174.));
#872 = DIRECTION('',(-0.,-1.,0.));
#873 = DIRECTION('',(1.,0.,0.));
#874 = ADVANCED_FACE('',(#875),#886,.F.);
#875 = FACE_BOUND('',#876,.T.);
#876 = EDGE_LOOP('',(#877,#878,#884,#885));
#877 = ORIENTED_EDGE('',*,*,#613,.F.);
#878 = ORIENTED_EDGE('',*,*,#879,.T.);
#879 = EDGE_CURVE('',#614,#285,#880,.T.);
#880 = LINE('',#881,#882);
#881 = CARTESIAN_POINT('',(62.2,57.,87.));
#882 = VECTOR('',#883,1.);
#883 = DIRECTION('',(0.,1.,0.));
#884 = ORIENTED_EDGE('',*,*,#284,.F.);
#885 = ORIENTED_EDGE('',*,*,#879,.F.);
#886 = CYLINDRICAL_SURFACE('',#887,2.2);
#887 = AXIS2_PLACEMENT_3D('',#888,#889,#890);
#888 = CARTESIAN_POINT('',(60.,57.,87.));
#889 = DIRECTION('',(-0.,-1.,0.));
#890 = DIRECTION('',(1.,0.,0.));
#891 = ADVANCED_FACE('',(#892),#903,.F.);
#892 = FACE_BOUND('',#893,.T.);
#893 = EDGE_LOOP('',(#894,#895,#901,#902));
#894 = ORIENTED_EDGE('',*,*,#624,.F.);
#895 = ORIENTED_EDGE('',*,*,#896,.T.);
#896 = EDGE_CURVE('',#625,#296,#897,.T.);
#897 = LINE('',#898,#899);
#898 = CARTESIAN_POINT('',(82.2,57.,80.));
#899 = VECTOR('',#900,1.);
#900 = DIRECTION('',(0.,1.,0.));
#901 = ORIENTED_EDGE('',*,*,#295,.F.);
#902 = ORIENTED_EDGE('',*,*,#896,.F.);
#903 = CYLINDRICAL_SURFACE('',#904,2.2);
#904 = AXIS2_PLACEMENT_3D('',#905,#906,#907);
#905 = CARTESIAN_POINT('',(80.,57.,80.));
#906 = DIRECTION('',(-0.,-1.,0.));
#907 = DIRECTION('',(1.,0.,0.));
#908 = ADVANCED_FACE('',(#909),#915,.F.);
#909 = FACE_BOUND('',#910,.T.);
#910 = EDGE_LOOP('',(#911,#912,#913,#914));
#911 = ORIENTED_EDGE('',*,*,#758,.F.);
#912 = ORIENTED_EDGE('',*,*,#776,.T.);
#913 = ORIENTED_EDGE('',*,*,#649,.T.);
#914 = ORIENTED_EDGE('',*,*,#474,.F.);
#915 = CYLINDRICAL_SURFACE('',#916,59.5);
#916 = AXIS2_PLACEMENT_3D('',#917,#918,#919);
#917 = CARTESIAN_POINT('',(-66.,0.,67.));
#918 = DIRECTION('',(-0.,-0.,-1.));
#919 = DIRECTION('',(1.,0.,0.));
#920 = ADVANCED_FACE('',(#921),#929,.F.);
#921 = FACE_BOUND('',#922,.T.);
#922 = EDGE_LOOP('',(#923,#924,#925,#926,#927,#928));
#923 = ORIENTED_EDGE('',*,*,#211,.F.);
#924 = ORIENTED_EDGE('',*,*,#672,.T.);
#925 = ORIENTED_EDGE('',*,*,#560,.F.);
#926 = ORIENTED_EDGE('',*,*,#455,.F.);
#927 = ORIENTED_EDGE('',*,*,#657,.F.);
#928 = ORIENTED_EDGE('',*,*,#220,.F.);
#929 = CYLINDRICAL_SURFACE('',#930,2.2);
#930 = AXIS2_PLACEMENT_3D('',#931,#932,#933);
#931 = CARTESIAN_POINT('',(4.,57.,72.));
#932 = DIRECTION('',(0.,-1.,2.2E-16));
#933 = DIRECTION('',(1.,0.,0.));
#934 = ADVANCED_FACE('',(#935),#943,.F.);
#935 = FACE_BOUND('',#936,.T.);
#936 = EDGE_LOOP('',(#937,#938,#939,#940,#941,#942));
#937 = ORIENTED_EDGE('',*,*,#185,.F.);
#938 = ORIENTED_EDGE('',*,*,#694,.T.);
#939 = ORIENTED_EDGE('',*,*,#534,.F.);
#940 = ORIENTED_EDGE('',*,*,#543,.F.);
#941 = ORIENTED_EDGE('',*,*,#679,.F.);
#942 = ORIENTED_EDGE('',*,*,#194,.F.);
#943 = CYLINDRICAL_SURFACE('',#944,2.2);
#944 = AXIS2_PLACEMENT_3D('',#945,#946,#947);
#945 = CARTESIAN_POINT('',(20.,57.,71.));
#946 = DIRECTION('',(0.,-1.,2.2E-16));
#947 = DIRECTION('',(1.,0.,0.));
#948 = ADVANCED_FACE('',(#949),#957,.F.);
#949 = FACE_BOUND('',#950,.T.);
#950 = EDGE_LOOP('',(#951,#952,#953,#954,#955,#956));
#951 = ORIENTED_EDGE('',*,*,#159,.F.);
#952 = ORIENTED_EDGE('',*,*,#716,.T.);
#953 = ORIENTED_EDGE('',*,*,#508,.F.);
#954 = ORIENTED_EDGE('',*,*,#517,.F.);
#955 = ORIENTED_EDGE('',*,*,#701,.F.);
#956 = ORIENTED_EDGE('',*,*,#168,.F.);
#957 = CYLINDRICAL_SURFACE('',#958,2.2);
#958 = AXIS2_PLACEMENT_3D('',#959,#960,#961);
#959 = CARTESIAN_POINT('',(80.,57.,72.));
#960 = DIRECTION('',(0.,-1.,2.2E-16));
#961 = DIRECTION('',(1.,0.,0.));
#962 = ( GEOMETRIC_REPRESENTATION_CONTEXT(3) 
GLOBAL_UNCERTAINTY_ASSIGNED_CONTEXT((#966)) GLOBAL_UNIT_ASSIGNED_CONTEXT
((#963,#964,#965)) REPRESENTATION_CONTEXT('Context #1',
  '3D Context with UNIT and UNCERTAINTY') );
#963 = ( LENGTH_UNIT() NAMED_UNIT(*) SI_UNIT(.MILLI.,.METRE.) );
#964 = ( NAMED_UNIT(*) PLANE_ANGLE_UNIT() SI_UNIT($,.RADIAN.) );
#965 = ( NAMED_UNIT(*) SI_UNIT($,.STERADIAN.) SOLID_ANGLE_UNIT() );
#966 = UNCERTAINTY_MEASURE_WITH_UNIT(LENGTH_MEASURE(2.E-05),#963,
  'distance_accuracy_value','confusion accuracy');
#967 = PRODUCT_RELATED_PRODUCT_CATEGORY('part',$,(#7));
ENDSEC;
END-ISO-10303-21;
