ISO-10303-21;
HEADER;
FILE_DESCRIPTION(('FreeCAD Model'),'2;1');
FILE_NAME('Open CASCADE Shape Model','2026-09-29T03:47:05',('Author'),(
    ''),'Open CASCADE STEP processor 7.8','FreeCAD','Unknown');
FILE_SCHEMA(('AUTOMOTIVE_DESIGN { 1 0 10303 214 1 1 1 1 }'));
ENDSEC;
DATA;
#1 = APPLICATION_PROTOCOL_DEFINITION('international standard',
  'automotive_design',2000,#2);
#2 = APPLICATION_CONTEXT(
  'core data for automotive mechanical design processes');
#3 = SHAPE_DEFINITION_REPRESENTATION(#4,#10);
#4 = PRODUCT_DEFINITION_SHAPE('','',#5);
#5 = PRODUCT_DEFINITION('design','',#6,#9);
#6 = PRODUCT_DEFINITION_FORMATION('','',#7);
#7 = PRODUCT('LOAD_CHUTE','LOAD_CHUTE','',(#8));
#8 = PRODUCT_CONTEXT('',#2,'mechanical');
#9 = PRODUCT_DEFINITION_CONTEXT('part definition',#2,'design');
#10 = ADVANCED_BREP_SHAPE_REPRESENTATION('',(#11,#15),#543);
#11 = AXIS2_PLACEMENT_3D('',#12,#13,#14);
#12 = CARTESIAN_POINT('',(0.,0.,0.));
#13 = DIRECTION('',(0.,0.,1.));
#14 = DIRECTION('',(1.,0.,-0.));
#15 = MANIFOLD_SOLID_BREP('',#16);
#16 = CLOSED_SHELL('',(#17,#57,#104,#152,#176,#209,#249,#320,#331,#348,
    #373,#389,#446,#463,#480,#497,#514,#531));
#17 = ADVANCED_FACE('',(#18),#52,.F.);
#18 = FACE_BOUND('',#19,.F.);
#19 = EDGE_LOOP('',(#20,#30,#38,#46));
#20 = ORIENTED_EDGE('',*,*,#21,.F.);
#21 = EDGE_CURVE('',#22,#24,#26,.T.);
#22 = VERTEX_POINT('',#23);
#23 = CARTESIAN_POINT('',(-22.76782118497,77.982463804253,204.));
#24 = VERTEX_POINT('',#25);
#25 = CARTESIAN_POINT('',(-23.63406006605,79.686066937044,
    207.51388197964));
#26 = LINE('',#27,#28);
#27 = CARTESIAN_POINT('',(-22.76782118497,77.982463804253,204.));
#28 = VECTOR('',#29,1.);
#29 = DIRECTION('',(-0.21655972027,0.425900783198,0.87847049491));
#30 = ORIENTED_EDGE('',*,*,#31,.T.);
#31 = EDGE_CURVE('',#22,#32,#34,.T.);
#32 = VERTEX_POINT('',#33);
#33 = CARTESIAN_POINT('',(-109.232178815,34.017536195747,204.));
#34 = LINE('',#35,#36);
#35 = CARTESIAN_POINT('',(-22.76782118497,77.982463804253,204.));
#36 = VECTOR('',#37,1.);
#37 = DIRECTION('',(-0.891385130207,-0.453246676376,2.09039387616E-16));
#38 = ORIENTED_EDGE('',*,*,#39,.T.);
#39 = EDGE_CURVE('',#32,#40,#42,.T.);
#40 = VERTEX_POINT('',#41);
#41 = CARTESIAN_POINT('',(-110.0984176961,35.721139328539,
    207.51388197964));
#42 = LINE('',#43,#44);
#43 = CARTESIAN_POINT('',(-109.232178815,34.017536195747,204.));
#44 = VECTOR('',#45,1.);
#45 = DIRECTION('',(-0.21655972027,0.425900783198,0.87847049491));
#46 = ORIENTED_EDGE('',*,*,#47,.F.);
#47 = EDGE_CURVE('',#24,#40,#48,.T.);
#48 = LINE('',#49,#50);
#49 = CARTESIAN_POINT('',(-23.63406006605,79.686066937044,
    207.51388197964));
#50 = VECTOR('',#51,1.);
#51 = DIRECTION('',(-0.891385130207,-0.453246676376,2.09039387616E-16));
#52 = PLANE('',#53);
#53 = AXIS2_PLACEMENT_3D('',#54,#55,#56);
#54 = CARTESIAN_POINT('',(-22.76782118497,77.982463804253,204.));
#55 = DIRECTION('',(-0.398163832113,0.783055536489,-0.477796598535));
#56 = DIRECTION('',(-0.21655972027,0.425900783198,0.87847049491));
#57 = ADVANCED_FACE('',(#58),#99,.F.);
#58 = FACE_BOUND('',#59,.F.);
#59 = EDGE_LOOP('',(#60,#68,#69,#77,#85,#93));
#60 = ORIENTED_EDGE('',*,*,#61,.F.);
#61 = EDGE_CURVE('',#22,#62,#64,.T.);
#62 = VERTEX_POINT('',#63);
#63 = CARTESIAN_POINT('',(-51.28796723011,134.07208435969,
    169.77582474583));
#64 = LINE('',#65,#66);
#65 = CARTESIAN_POINT('',(-22.76782118497,77.982463804253,204.));
#66 = VECTOR('',#67,1.);
#67 = DIRECTION('',(-0.398163832113,0.783055536489,-0.477796598535));
#68 = ORIENTED_EDGE('',*,*,#21,.T.);
#69 = ORIENTED_EDGE('',*,*,#70,.T.);
#70 = EDGE_CURVE('',#24,#71,#73,.T.);
#71 = VERTEX_POINT('',#72);
#72 = CARTESIAN_POINT('',(-53.63406006605,138.68606693704,
    171.51388197964));
#73 = LINE('',#74,#75);
#74 = CARTESIAN_POINT('',(-23.63406006605,79.686066937044,
    207.51388197964));
#75 = VECTOR('',#76,1.);
#76 = DIRECTION('',(-0.398163832113,0.783055536489,-0.477796598535));
#77 = ORIENTED_EDGE('',*,*,#78,.F.);
#78 = EDGE_CURVE('',#79,#71,#81,.T.);
#79 = VERTEX_POINT('',#80);
#80 = CARTESIAN_POINT('',(-53.12641621342,137.68770069353,
    169.45463409226));
#81 = LINE('',#82,#83);
#82 = CARTESIAN_POINT('',(-52.76782118497,136.98246380425,168.));
#83 = VECTOR('',#84,1.);
#84 = DIRECTION('',(-0.21655972027,0.425900783198,0.87847049491));
#85 = ORIENTED_EDGE('',*,*,#86,.F.);
#86 = EDGE_CURVE('',#87,#79,#89,.T.);
#87 = VERTEX_POINT('',#88);
#88 = CARTESIAN_POINT('',(-51.28796723011,134.07208435969,
    171.02076307795));
#89 = LINE('',#90,#91);
#90 = CARTESIAN_POINT('',(-35.95855239628,103.92423518649,
    184.07951049108));
#91 = VECTOR('',#92,1.);
#92 = DIRECTION('',(-0.422823757168,0.831553389097,-0.360193047483));
#93 = ORIENTED_EDGE('',*,*,#94,.T.);
#94 = EDGE_CURVE('',#87,#62,#95,.T.);
#95 = LINE('',#96,#97);
#96 = CARTESIAN_POINT('',(-51.28796723011,134.07208435969,186.));
#97 = VECTOR('',#98,1.);
#98 = DIRECTION('',(6.E-17,-1.E-16,-1.));
#99 = PLANE('',#100);
#100 = AXIS2_PLACEMENT_3D('',#101,#102,#103);
#101 = CARTESIAN_POINT('',(-22.76782118497,77.982463804253,204.));
#102 = DIRECTION('',(-0.891385130207,-0.453246676376,2.09039387616E-16)
  );
#103 = DIRECTION('',(-0.21655972027,0.425900783198,0.87847049491));
#104 = ADVANCED_FACE('',(#105),#147,.T.);
#105 = FACE_BOUND('',#106,.T.);
#106 = EDGE_LOOP('',(#107,#115,#116,#117,#125,#133,#141));
#107 = ORIENTED_EDGE('',*,*,#108,.F.);
#108 = EDGE_CURVE('',#40,#109,#111,.T.);
#109 = VERTEX_POINT('',#110);
#110 = CARTESIAN_POINT('',(-140.0984176961,94.721139328539,
    171.51388197964));
#111 = LINE('',#112,#113);
#112 = CARTESIAN_POINT('',(-110.0984176961,35.721139328539,
    207.51388197964));
#113 = VECTOR('',#114,1.);
#114 = DIRECTION('',(-0.398163832113,0.783055536489,-0.477796598535));
#115 = ORIENTED_EDGE('',*,*,#47,.F.);
#116 = ORIENTED_EDGE('',*,*,#70,.T.);
#117 = ORIENTED_EDGE('',*,*,#118,.T.);
#118 = EDGE_CURVE('',#71,#119,#121,.T.);
#119 = VERTEX_POINT('',#120);
#120 = CARTESIAN_POINT('',(-96.16499139081,117.06016965326,
    171.51388197964));
#121 = LINE('',#122,#123);
#122 = CARTESIAN_POINT('',(-53.63406006605,138.68606693704,
    171.51388197964));
#123 = VECTOR('',#124,1.);
#124 = DIRECTION('',(-0.891385130207,-0.453246676376,2.09039387616E-16)
  );
#125 = ORIENTED_EDGE('',*,*,#126,.F.);
#126 = EDGE_CURVE('',#127,#119,#129,.T.);
#127 = VERTEX_POINT('',#128);
#128 = CARTESIAN_POINT('',(-97.04308622629,116.17391218126,
    171.72709093837));
#129 = LINE('',#130,#131);
#130 = CARTESIAN_POINT('',(-75.24362925072,138.17601360542,
    166.43399577943));
#131 = VECTOR('',#132,1.);
#132 = DIRECTION('',(0.693769919926,0.700219099969,-0.16845328802));
#133 = ORIENTED_EDGE('',*,*,#134,.T.);
#134 = EDGE_CURVE('',#127,#135,#137,.T.);
#135 = VERTEX_POINT('',#136);
#136 = CARTESIAN_POINT('',(-100.3567388058,114.92877266257,
    171.51388197964));
#137 = LINE('',#138,#139);
#138 = CARTESIAN_POINT('',(-47.20624949258,134.90062339004,
    174.93372163113));
#139 = VECTOR('',#140,1.);
#140 = DIRECTION('',(-0.934401590736,-0.351111143676,-6.012180982158E-02
    ));
#141 = ORIENTED_EDGE('',*,*,#142,.T.);
#142 = EDGE_CURVE('',#135,#109,#143,.T.);
#143 = LINE('',#144,#145);
#144 = CARTESIAN_POINT('',(-53.63406006605,138.68606693704,
    171.51388197964));
#145 = VECTOR('',#146,1.);
#146 = DIRECTION('',(-0.891385130207,-0.453246676376,2.09039387616E-16)
  );
#147 = PLANE('',#148);
#148 = AXIS2_PLACEMENT_3D('',#149,#150,#151);
#149 = CARTESIAN_POINT('',(-23.63406006605,79.686066937044,
    207.51388197964));
#150 = DIRECTION('',(-0.21655972027,0.425900783198,0.87847049491));
#151 = DIRECTION('',(-0.398163832113,0.783055536489,-0.477796598535));
#152 = ADVANCED_FACE('',(#153),#171,.T.);
#153 = FACE_BOUND('',#154,.T.);
#154 = EDGE_LOOP('',(#155,#163,#164,#165));
#155 = ORIENTED_EDGE('',*,*,#156,.F.);
#156 = EDGE_CURVE('',#32,#157,#159,.T.);
#157 = VERTEX_POINT('',#158);
#158 = CARTESIAN_POINT('',(-139.232178815,93.017536195747,168.));
#159 = LINE('',#160,#161);
#160 = CARTESIAN_POINT('',(-109.232178815,34.017536195747,204.));
#161 = VECTOR('',#162,1.);
#162 = DIRECTION('',(-0.398163832113,0.783055536489,-0.477796598535));
#163 = ORIENTED_EDGE('',*,*,#39,.T.);
#164 = ORIENTED_EDGE('',*,*,#108,.T.);
#165 = ORIENTED_EDGE('',*,*,#166,.F.);
#166 = EDGE_CURVE('',#157,#109,#167,.T.);
#167 = LINE('',#168,#169);
#168 = CARTESIAN_POINT('',(-139.232178815,93.017536195747,168.));
#169 = VECTOR('',#170,1.);
#170 = DIRECTION('',(-0.21655972027,0.425900783198,0.87847049491));
#171 = PLANE('',#172);
#172 = AXIS2_PLACEMENT_3D('',#173,#174,#175);
#173 = CARTESIAN_POINT('',(-109.232178815,34.017536195747,204.));
#174 = DIRECTION('',(-0.891385130207,-0.453246676376,2.09039387616E-16)
  );
#175 = DIRECTION('',(-0.21655972027,0.425900783198,0.87847049491));
#176 = ADVANCED_FACE('',(#177),#204,.F.);
#177 = FACE_BOUND('',#178,.F.);
#178 = EDGE_LOOP('',(#179,#180,#181,#182,#190,#198));
#179 = ORIENTED_EDGE('',*,*,#156,.F.);
#180 = ORIENTED_EDGE('',*,*,#31,.F.);
#181 = ORIENTED_EDGE('',*,*,#61,.T.);
#182 = ORIENTED_EDGE('',*,*,#183,.T.);
#183 = EDGE_CURVE('',#62,#184,#186,.T.);
#184 = VERTEX_POINT('',#185);
#185 = CARTESIAN_POINT('',(-50.58688865363,132.06445025433,
    170.92199678472));
#186 = LINE('',#187,#188);
#187 = CARTESIAN_POINT('',(-40.6719380255,103.67163709196,
    187.13164796829));
#188 = VECTOR('',#189,1.);
#189 = DIRECTION('',(0.290212352066,-0.831062644554,0.474459346557));
#190 = ORIENTED_EDGE('',*,*,#191,.T.);
#191 = EDGE_CURVE('',#184,#192,#194,.T.);
#192 = VERTEX_POINT('',#193);
#193 = CARTESIAN_POINT('',(-96.,115.,168.));
#194 = LINE('',#195,#196);
#195 = CARTESIAN_POINT('',(-46.47937254629,133.6078922737,
    171.18628497161));
#196 = VECTOR('',#197,1.);
#197 = DIRECTION('',(-0.934401590736,-0.351111143676,-6.012180982158E-02
    ));
#198 = ORIENTED_EDGE('',*,*,#199,.T.);
#199 = EDGE_CURVE('',#192,#157,#200,.T.);
#200 = LINE('',#201,#202);
#201 = CARTESIAN_POINT('',(-52.76782118497,136.98246380425,168.));
#202 = VECTOR('',#203,1.);
#203 = DIRECTION('',(-0.891385130207,-0.453246676376,2.09039387616E-16)
  );
#204 = PLANE('',#205);
#205 = AXIS2_PLACEMENT_3D('',#206,#207,#208);
#206 = CARTESIAN_POINT('',(-22.76782118497,77.982463804253,204.));
#207 = DIRECTION('',(-0.21655972027,0.425900783198,0.87847049491));
#208 = DIRECTION('',(-0.398163832113,0.783055536489,-0.477796598535));
#209 = ADVANCED_FACE('',(#210),#244,.F.);
#210 = FACE_BOUND('',#211,.F.);
#211 = EDGE_LOOP('',(#212,#220,#228,#236,#242,#243));
#212 = ORIENTED_EDGE('',*,*,#213,.T.);
#213 = EDGE_CURVE('',#87,#214,#216,.T.);
#214 = VERTEX_POINT('',#215);
#215 = CARTESIAN_POINT('',(-67.77527359915,181.28573441649,
    151.53576464181));
#216 = LINE('',#217,#218);
#217 = CARTESIAN_POINT('',(-50.69030519436,132.36059762098,
    171.72709093837));
#218 = VECTOR('',#219,1.);
#219 = DIRECTION('',(-0.307189474701,0.87967895028,-0.363042106465));
#220 = ORIENTED_EDGE('',*,*,#221,.T.);
#221 = EDGE_CURVE('',#214,#222,#224,.T.);
#222 = VERTEX_POINT('',#223);
#223 = CARTESIAN_POINT('',(-67.29651859875,179.91475418809,
    147.80867370343));
#224 = LINE('',#225,#226);
#225 = CARTESIAN_POINT('',(-67.17682984865,179.57200913099,
    146.87690096884));
#226 = VECTOR('',#227,1.);
#227 = DIRECTION('',(0.119688750098,-0.3427450571,-0.931772734594));
#228 = ORIENTED_EDGE('',*,*,#229,.F.);
#229 = EDGE_CURVE('',#230,#222,#232,.T.);
#230 = VERTEX_POINT('',#231);
#231 = CARTESIAN_POINT('',(-50.21155019397,130.98961739258,168.));
#232 = LINE('',#233,#234);
#233 = CARTESIAN_POINT('',(-50.21155019397,130.98961739258,168.));
#234 = VECTOR('',#235,1.);
#235 = DIRECTION('',(-0.307189474701,0.87967895028,-0.363042106465));
#236 = ORIENTED_EDGE('',*,*,#237,.T.);
#237 = EDGE_CURVE('',#230,#184,#238,.T.);
#238 = LINE('',#239,#240);
#239 = CARTESIAN_POINT('',(-50.21155019397,130.98961739258,168.));
#240 = VECTOR('',#241,1.);
#241 = DIRECTION('',(-0.119688750098,0.3427450571,0.931772734594));
#242 = ORIENTED_EDGE('',*,*,#183,.F.);
#243 = ORIENTED_EDGE('',*,*,#94,.F.);
#244 = PLANE('',#245);
#245 = AXIS2_PLACEMENT_3D('',#246,#247,#248);
#246 = CARTESIAN_POINT('',(-50.21155019397,130.98961739258,168.));
#247 = DIRECTION('',(-0.944091748578,-0.329682832837,-6.050924640455E-18
    ));
#248 = DIRECTION('',(-0.119688750098,0.3427450571,0.931772734594));
#249 = ADVANCED_FACE('',(#250),#315,.T.);
#250 = FACE_BOUND('',#251,.T.);
#251 = EDGE_LOOP('',(#252,#260,#261,#267,#268,#269,#277,#285,#293,#301,
    #309));
#252 = ORIENTED_EDGE('',*,*,#253,.F.);
#253 = EDGE_CURVE('',#127,#254,#256,.T.);
#254 = VERTEX_POINT('',#255);
#255 = CARTESIAN_POINT('',(-142.2672048064,100.38136283581,
    171.72709093837));
#256 = LINE('',#257,#258);
#257 = CARTESIAN_POINT('',(-50.69030519436,132.36059762098,
    171.72709093837));
#258 = VECTOR('',#259,1.);
#259 = DIRECTION('',(-0.944091748578,-0.329682832837,-6.050924640455E-18
    ));
#260 = ORIENTED_EDGE('',*,*,#126,.T.);
#261 = ORIENTED_EDGE('',*,*,#262,.T.);
#262 = EDGE_CURVE('',#119,#79,#263,.T.);
#263 = LINE('',#264,#265);
#264 = CARTESIAN_POINT('',(-53.18145046087,137.66132387592,
    169.45726729183));
#265 = VECTOR('',#266,1.);
#266 = DIRECTION('',(0.900937947991,0.431801596845,-4.31067840516E-02));
#267 = ORIENTED_EDGE('',*,*,#86,.F.);
#268 = ORIENTED_EDGE('',*,*,#213,.T.);
#269 = ORIENTED_EDGE('',*,*,#270,.T.);
#270 = EDGE_CURVE('',#214,#271,#273,.T.);
#271 = VERTEX_POINT('',#272);
#272 = CARTESIAN_POINT('',(-80.52051220495,176.83501617319,
    151.53576464181));
#273 = LINE('',#274,#275);
#274 = CARTESIAN_POINT('',(-62.34674604482,183.1814107053,
    151.53576464181));
#275 = VECTOR('',#276,1.);
#276 = DIRECTION('',(-0.944091748578,-0.329682832837,-3.E-17));
#277 = ORIENTED_EDGE('',*,*,#278,.F.);
#278 = EDGE_CURVE('',#279,#271,#281,.T.);
#279 = VERTEX_POINT('',#280);
#280 = CARTESIAN_POINT('',(-85.43554380016,190.90987937768,
    145.72709093837));
#281 = LINE('',#282,#283);
#282 = CARTESIAN_POINT('',(-71.97802800256,152.37244777544,
    161.63142779009));
#283 = VECTOR('',#284,1.);
#284 = DIRECTION('',(0.307189474701,-0.87967895028,0.363042106465));
#285 = ORIENTED_EDGE('',*,*,#286,.T.);
#286 = EDGE_CURVE('',#279,#287,#289,.T.);
#287 = VERTEX_POINT('',#288);
#288 = CARTESIAN_POINT('',(-151.5219662006,167.83208107911,
    145.72709093837));
#289 = LINE('',#290,#291);
#290 = CARTESIAN_POINT('',(-72.69030519436,195.36059762098,
    145.72709093837));
#291 = VECTOR('',#292,1.);
#292 = DIRECTION('',(-0.944091748578,-0.329682832837,-6.050924640455E-18
    ));
#293 = ORIENTED_EDGE('',*,*,#294,.T.);
#294 = EDGE_CURVE('',#287,#295,#297,.T.);
#295 = VERTEX_POINT('',#296);
#296 = CARTESIAN_POINT('',(-146.6069346054,153.75721787462,
    151.53576464181));
#297 = LINE('',#298,#299);
#298 = CARTESIAN_POINT('',(-138.064450403,129.29464947687,
    161.63142779009));
#299 = VECTOR('',#300,1.);
#300 = DIRECTION('',(0.307189474701,-0.87967895028,0.363042106465));
#301 = ORIENTED_EDGE('',*,*,#302,.T.);
#302 = EDGE_CURVE('',#295,#303,#305,.T.);
#303 = VERTEX_POINT('',#304);
#304 = CARTESIAN_POINT('',(-159.3521732112,149.30649963133,
    151.53576464181));
#305 = LINE('',#306,#307);
#306 = CARTESIAN_POINT('',(-107.1911041022,167.52147614556,
    151.53576464181));
#307 = VECTOR('',#308,1.);
#308 = DIRECTION('',(-0.944091748578,-0.329682832837,-3.E-17));
#309 = ORIENTED_EDGE('',*,*,#310,.F.);
#310 = EDGE_CURVE('',#254,#303,#311,.T.);
#311 = LINE('',#312,#313);
#312 = CARTESIAN_POINT('',(-142.2672048064,100.38136283581,
    171.72709093837));
#313 = VECTOR('',#314,1.);
#314 = DIRECTION('',(-0.307189474701,0.87967895028,-0.363042106465));
#315 = PLANE('',#316);
#316 = AXIS2_PLACEMENT_3D('',#317,#318,#319);
#317 = CARTESIAN_POINT('',(-50.69030519436,132.36059762098,
    171.72709093837));
#318 = DIRECTION('',(-0.119688750098,0.3427450571,0.931772734594));
#319 = DIRECTION('',(-0.307189474701,0.87967895028,-0.363042106465));
#320 = ADVANCED_FACE('',(#321),#326,.T.);
#321 = FACE_BOUND('',#322,.T.);
#322 = EDGE_LOOP('',(#323,#324,#325));
#323 = ORIENTED_EDGE('',*,*,#78,.F.);
#324 = ORIENTED_EDGE('',*,*,#262,.F.);
#325 = ORIENTED_EDGE('',*,*,#118,.F.);
#326 = PLANE('',#327);
#327 = AXIS2_PLACEMENT_3D('',#328,#329,#330);
#328 = CARTESIAN_POINT('',(-52.76782118497,136.98246380425,168.));
#329 = DIRECTION('',(-0.398163832113,0.783055536489,-0.477796598535));
#330 = DIRECTION('',(-0.21655972027,0.425900783198,0.87847049491));
#331 = ADVANCED_FACE('',(#332),#343,.T.);
#332 = FACE_BOUND('',#333,.T.);
#333 = EDGE_LOOP('',(#334,#340,#341,#342));
#334 = ORIENTED_EDGE('',*,*,#335,.T.);
#335 = EDGE_CURVE('',#135,#192,#336,.T.);
#336 = LINE('',#337,#338);
#337 = CARTESIAN_POINT('',(-68.84865595833,115.44389118324,
    146.10136829336));
#338 = VECTOR('',#339,1.);
#339 = DIRECTION('',(0.778316588765,1.272452188717E-02,-0.627743079767)
  );
#340 = ORIENTED_EDGE('',*,*,#199,.T.);
#341 = ORIENTED_EDGE('',*,*,#166,.T.);
#342 = ORIENTED_EDGE('',*,*,#142,.F.);
#343 = PLANE('',#344);
#344 = AXIS2_PLACEMENT_3D('',#345,#346,#347);
#345 = CARTESIAN_POINT('',(-52.76782118497,136.98246380425,168.));
#346 = DIRECTION('',(-0.398163832113,0.783055536489,-0.477796598535));
#347 = DIRECTION('',(-0.21655972027,0.425900783198,0.87847049491));
#348 = ADVANCED_FACE('',(#349),#368,.F.);
#349 = FACE_BOUND('',#350,.F.);
#350 = EDGE_LOOP('',(#351,#352,#360,#366,#367));
#351 = ORIENTED_EDGE('',*,*,#335,.T.);
#352 = ORIENTED_EDGE('',*,*,#353,.T.);
#353 = EDGE_CURVE('',#192,#354,#356,.T.);
#354 = VERTEX_POINT('',#355);
#355 = CARTESIAN_POINT('',(-141.788449806,99.01038260742,168.));
#356 = LINE('',#357,#358);
#357 = CARTESIAN_POINT('',(-50.21155019397,130.98961739258,168.));
#358 = VECTOR('',#359,1.);
#359 = DIRECTION('',(-0.944091748578,-0.329682832837,-6.050924640455E-18
    ));
#360 = ORIENTED_EDGE('',*,*,#361,.T.);
#361 = EDGE_CURVE('',#354,#254,#362,.T.);
#362 = LINE('',#363,#364);
#363 = CARTESIAN_POINT('',(-141.788449806,99.01038260742,168.));
#364 = VECTOR('',#365,1.);
#365 = DIRECTION('',(-0.119688750098,0.3427450571,0.931772734594));
#366 = ORIENTED_EDGE('',*,*,#253,.F.);
#367 = ORIENTED_EDGE('',*,*,#134,.T.);
#368 = PLANE('',#369);
#369 = AXIS2_PLACEMENT_3D('',#370,#371,#372);
#370 = CARTESIAN_POINT('',(-50.21155019397,130.98961739258,168.));
#371 = DIRECTION('',(-0.307189474701,0.87967895028,-0.363042106465));
#372 = DIRECTION('',(-0.119688750098,0.3427450571,0.931772734594));
#373 = ADVANCED_FACE('',(#374),#384,.F.);
#374 = FACE_BOUND('',#375,.F.);
#375 = EDGE_LOOP('',(#376,#377,#383));
#376 = ORIENTED_EDGE('',*,*,#237,.F.);
#377 = ORIENTED_EDGE('',*,*,#378,.T.);
#378 = EDGE_CURVE('',#230,#192,#379,.T.);
#379 = LINE('',#380,#381);
#380 = CARTESIAN_POINT('',(-50.21155019397,130.98961739258,168.));
#381 = VECTOR('',#382,1.);
#382 = DIRECTION('',(-0.944091748578,-0.329682832837,-6.050924640455E-18
    ));
#383 = ORIENTED_EDGE('',*,*,#191,.F.);
#384 = PLANE('',#385);
#385 = AXIS2_PLACEMENT_3D('',#386,#387,#388);
#386 = CARTESIAN_POINT('',(-50.21155019397,130.98961739258,168.));
#387 = DIRECTION('',(-0.307189474701,0.87967895028,-0.363042106465));
#388 = DIRECTION('',(-0.119688750098,0.3427450571,0.931772734594));
#389 = ADVANCED_FACE('',(#390),#441,.F.);
#390 = FACE_BOUND('',#391,.F.);
#391 = EDGE_LOOP('',(#392,#393,#394,#402,#410,#418,#426,#434,#440));
#392 = ORIENTED_EDGE('',*,*,#378,.F.);
#393 = ORIENTED_EDGE('',*,*,#229,.T.);
#394 = ORIENTED_EDGE('',*,*,#395,.T.);
#395 = EDGE_CURVE('',#222,#396,#398,.T.);
#396 = VERTEX_POINT('',#397);
#397 = CARTESIAN_POINT('',(-80.04175720455,175.46403594479,
    147.80867370343));
#398 = LINE('',#399,#400);
#399 = CARTESIAN_POINT('',(-61.86799104443,181.8104304769,
    147.80867370343));
#400 = VECTOR('',#401,1.);
#401 = DIRECTION('',(-0.944091748578,-0.329682832837,-3.E-17));
#402 = ORIENTED_EDGE('',*,*,#403,.F.);
#403 = EDGE_CURVE('',#404,#396,#406,.T.);
#404 = VERTEX_POINT('',#405);
#405 = CARTESIAN_POINT('',(-84.95678879977,189.53889914928,142.));
#406 = LINE('',#407,#408);
#407 = CARTESIAN_POINT('',(-71.49927300216,151.00146754704,
    157.90433685171));
#408 = VECTOR('',#409,1.);
#409 = DIRECTION('',(0.307189474701,-0.87967895028,0.363042106465));
#410 = ORIENTED_EDGE('',*,*,#411,.T.);
#411 = EDGE_CURVE('',#404,#412,#414,.T.);
#412 = VERTEX_POINT('',#413);
#413 = CARTESIAN_POINT('',(-151.0432112002,166.46110085071,142.));
#414 = LINE('',#415,#416);
#415 = CARTESIAN_POINT('',(-72.21155019397,193.98961739258,142.));
#416 = VECTOR('',#417,1.);
#417 = DIRECTION('',(-0.944091748578,-0.329682832837,-6.050924640455E-18
    ));
#418 = ORIENTED_EDGE('',*,*,#419,.T.);
#419 = EDGE_CURVE('',#412,#420,#422,.T.);
#420 = VERTEX_POINT('',#421);
#421 = CARTESIAN_POINT('',(-146.128179605,152.38623764622,
    147.80867370343));
#422 = LINE('',#423,#424);
#423 = CARTESIAN_POINT('',(-137.5856954026,127.92366924847,
    157.90433685171));
#424 = VECTOR('',#425,1.);
#425 = DIRECTION('',(0.307189474701,-0.87967895028,0.363042106465));
#426 = ORIENTED_EDGE('',*,*,#427,.T.);
#427 = EDGE_CURVE('',#420,#428,#430,.T.);
#428 = VERTEX_POINT('',#429);
#429 = CARTESIAN_POINT('',(-158.8734182108,147.93551940293,
    147.80867370343));
#430 = LINE('',#431,#432);
#431 = CARTESIAN_POINT('',(-106.7123491018,166.15049591716,
    147.80867370343));
#432 = VECTOR('',#433,1.);
#433 = DIRECTION('',(-0.944091748578,-0.329682832837,-3.E-17));
#434 = ORIENTED_EDGE('',*,*,#435,.F.);
#435 = EDGE_CURVE('',#354,#428,#436,.T.);
#436 = LINE('',#437,#438);
#437 = CARTESIAN_POINT('',(-141.788449806,99.01038260742,168.));
#438 = VECTOR('',#439,1.);
#439 = DIRECTION('',(-0.307189474701,0.87967895028,-0.363042106465));
#440 = ORIENTED_EDGE('',*,*,#353,.F.);
#441 = PLANE('',#442);
#442 = AXIS2_PLACEMENT_3D('',#443,#444,#445);
#443 = CARTESIAN_POINT('',(-50.21155019397,130.98961739258,168.));
#444 = DIRECTION('',(-0.119688750098,0.3427450571,0.931772734594));
#445 = DIRECTION('',(-0.307189474701,0.87967895028,-0.363042106465));
#446 = ADVANCED_FACE('',(#447),#458,.T.);
#447 = FACE_BOUND('',#448,.T.);
#448 = EDGE_LOOP('',(#449,#455,#456,#457));
#449 = ORIENTED_EDGE('',*,*,#450,.T.);
#450 = EDGE_CURVE('',#396,#271,#451,.T.);
#451 = LINE('',#452,#453);
#452 = CARTESIAN_POINT('',(-79.80237970436,174.77854583059,
    145.94512823425));
#453 = VECTOR('',#454,1.);
#454 = DIRECTION('',(-0.119688750098,0.3427450571,0.931772734594));
#455 = ORIENTED_EDGE('',*,*,#270,.F.);
#456 = ORIENTED_EDGE('',*,*,#221,.T.);
#457 = ORIENTED_EDGE('',*,*,#395,.T.);
#458 = PLANE('',#459);
#459 = AXIS2_PLACEMENT_3D('',#460,#461,#462);
#460 = CARTESIAN_POINT('',(-56.20008598991,183.02061665151,
    145.94512823425));
#461 = DIRECTION('',(-0.307189474701,0.87967895028,-0.363042106465));
#462 = DIRECTION('',(-0.119688750098,0.3427450571,0.931772734594));
#463 = ADVANCED_FACE('',(#464),#475,.T.);
#464 = FACE_BOUND('',#465,.T.);
#465 = EDGE_LOOP('',(#466,#467,#468,#469));
#466 = ORIENTED_EDGE('',*,*,#435,.F.);
#467 = ORIENTED_EDGE('',*,*,#361,.T.);
#468 = ORIENTED_EDGE('',*,*,#310,.T.);
#469 = ORIENTED_EDGE('',*,*,#470,.T.);
#470 = EDGE_CURVE('',#303,#428,#471,.T.);
#471 = LINE('',#472,#473);
#472 = CARTESIAN_POINT('',(-158.7537294607,147.59277434583,
    146.87690096884));
#473 = VECTOR('',#474,1.);
#474 = DIRECTION('',(0.119688750098,-0.3427450571,-0.931772734594));
#475 = PLANE('',#476);
#476 = AXIS2_PLACEMENT_3D('',#477,#478,#479);
#477 = CARTESIAN_POINT('',(-141.788449806,99.01038260742,168.));
#478 = DIRECTION('',(-0.944091748578,-0.329682832837,-6.050924640455E-18
    ));
#479 = DIRECTION('',(-0.119688750098,0.3427450571,0.931772734594));
#480 = ADVANCED_FACE('',(#481),#492,.T.);
#481 = FACE_BOUND('',#482,.T.);
#482 = EDGE_LOOP('',(#483,#489,#490,#491));
#483 = ORIENTED_EDGE('',*,*,#484,.F.);
#484 = EDGE_CURVE('',#420,#295,#485,.T.);
#485 = LINE('',#486,#487);
#486 = CARTESIAN_POINT('',(-145.8888021048,151.70074753203,
    145.94512823425));
#487 = VECTOR('',#488,1.);
#488 = DIRECTION('',(-0.119688750098,0.3427450571,0.931772734594));
#489 = ORIENTED_EDGE('',*,*,#427,.T.);
#490 = ORIENTED_EDGE('',*,*,#470,.F.);
#491 = ORIENTED_EDGE('',*,*,#302,.F.);
#492 = PLANE('',#493);
#493 = AXIS2_PLACEMENT_3D('',#494,#495,#496);
#494 = CARTESIAN_POINT('',(-145.8888021048,151.70074753203,
    145.94512823425));
#495 = DIRECTION('',(-0.307189474701,0.87967895028,-0.363042106465));
#496 = DIRECTION('',(-0.119688750098,0.3427450571,0.931772734594));
#497 = ADVANCED_FACE('',(#498),#509,.T.);
#498 = FACE_BOUND('',#499,.T.);
#499 = EDGE_LOOP('',(#500,#501,#502,#503));
#500 = ORIENTED_EDGE('',*,*,#419,.T.);
#501 = ORIENTED_EDGE('',*,*,#484,.T.);
#502 = ORIENTED_EDGE('',*,*,#294,.F.);
#503 = ORIENTED_EDGE('',*,*,#504,.F.);
#504 = EDGE_CURVE('',#412,#287,#505,.T.);
#505 = LINE('',#506,#507);
#506 = CARTESIAN_POINT('',(-150.9235224501,166.11835579361,
    141.0682272654));
#507 = VECTOR('',#508,1.);
#508 = DIRECTION('',(-0.119688750098,0.3427450571,0.931772734594));
#509 = PLANE('',#510);
#510 = AXIS2_PLACEMENT_3D('',#511,#512,#513);
#511 = CARTESIAN_POINT('',(-145.8888021048,151.70074753203,
    145.94512823425));
#512 = DIRECTION('',(-0.944091748578,-0.329682832837,-6.050924640455E-18
    ));
#513 = DIRECTION('',(-0.119688750098,0.3427450571,0.931772734594));
#514 = ADVANCED_FACE('',(#515),#526,.T.);
#515 = FACE_BOUND('',#516,.T.);
#516 = EDGE_LOOP('',(#517,#518,#524,#525));
#517 = ORIENTED_EDGE('',*,*,#286,.F.);
#518 = ORIENTED_EDGE('',*,*,#519,.F.);
#519 = EDGE_CURVE('',#404,#279,#520,.T.);
#520 = LINE('',#521,#522);
#521 = CARTESIAN_POINT('',(-84.83710004967,189.19615409218,
    141.0682272654));
#522 = VECTOR('',#523,1.);
#523 = DIRECTION('',(-0.119688750098,0.3427450571,0.931772734594));
#524 = ORIENTED_EDGE('',*,*,#411,.T.);
#525 = ORIENTED_EDGE('',*,*,#504,.T.);
#526 = PLANE('',#527);
#527 = AXIS2_PLACEMENT_3D('',#528,#529,#530);
#528 = CARTESIAN_POINT('',(-72.21155019397,193.98961739258,142.));
#529 = DIRECTION('',(-0.307189474701,0.87967895028,-0.363042106465));
#530 = DIRECTION('',(-0.119688750098,0.3427450571,0.931772734594));
#531 = ADVANCED_FACE('',(#532),#538,.F.);
#532 = FACE_BOUND('',#533,.F.);
#533 = EDGE_LOOP('',(#534,#535,#536,#537));
#534 = ORIENTED_EDGE('',*,*,#403,.T.);
#535 = ORIENTED_EDGE('',*,*,#450,.T.);
#536 = ORIENTED_EDGE('',*,*,#278,.F.);
#537 = ORIENTED_EDGE('',*,*,#519,.F.);
#538 = PLANE('',#539);
#539 = AXIS2_PLACEMENT_3D('',#540,#541,#542);
#540 = CARTESIAN_POINT('',(-79.80237970436,174.77854583059,
    145.94512823425));
#541 = DIRECTION('',(-0.944091748578,-0.329682832837,-6.050924640455E-18
    ));
#542 = DIRECTION('',(-0.119688750098,0.3427450571,0.931772734594));
#543 = ( GEOMETRIC_REPRESENTATION_CONTEXT(3) 
GLOBAL_UNCERTAINTY_ASSIGNED_CONTEXT((#547)) GLOBAL_UNIT_ASSIGNED_CONTEXT
((#544,#545,#546)) REPRESENTATION_CONTEXT('Context #1',
  '3D Context with UNIT and UNCERTAINTY') );
#544 = ( LENGTH_UNIT() NAMED_UNIT(*) SI_UNIT(.MILLI.,.METRE.) );
#545 = ( NAMED_UNIT(*) PLANE_ANGLE_UNIT() SI_UNIT($,.RADIAN.) );
#546 = ( NAMED_UNIT(*) SI_UNIT($,.STERADIAN.) SOLID_ANGLE_UNIT() );
#547 = UNCERTAINTY_MEASURE_WITH_UNIT(LENGTH_MEASURE(1.E-07),#544,
  'distance_accuracy_value','confusion accuracy');
#548 = PRODUCT_RELATED_PRODUCT_CATEGORY('part',$,(#7));
ENDSEC;
END-ISO-10303-21;
