ISO-10303-21;
HEADER;
FILE_DESCRIPTION(('FreeCAD Model'),'2;1');
FILE_NAME('Open CASCADE Shape Model','2026-09-28T03:26:24',('Author'),(
    ''),'Open CASCADE STEP processor 7.8','FreeCAD','Unknown');
FILE_SCHEMA(('AUTOMOTIVE_DESIGN { 1 0 10303 214 1 1 1 1 }'));
ENDSEC;
DATA;
#1 = APPLICATION_PROTOCOL_DEFINITION('international standard',
  'automotive_design',2000,#2);
#2 = APPLICATION_CONTEXT(
  'core data for automotive mechanical design processes');
#3 = SHAPE_DEFINITION_REPRESENTATION(#4,#10);
#4 = PRODUCT_DEFINITION_SHAPE('','',#5);
#5 = PRODUCT_DEFINITION('design','',#6,#9);
#6 = PRODUCT_DEFINITION_FORMATION('','',#7);
#7 = PRODUCT('ODO_ARM_LON','ODO_ARM_LON','',(#8));
#8 = PRODUCT_CONTEXT('',#2,'mechanical');
#9 = PRODUCT_DEFINITION_CONTEXT('part definition',#2,'design');
#10 = ADVANCED_BREP_SHAPE_REPRESENTATION('',(#11,#15),#382);
#11 = AXIS2_PLACEMENT_3D('',#12,#13,#14);
#12 = CARTESIAN_POINT('',(0.,0.,0.));
#13 = DIRECTION('',(0.,0.,1.));
#14 = DIRECTION('',(1.,0.,-0.));
#15 = MANIFOLD_SOLID_BREP('',#16);
#16 = CLOSED_SHELL('',(#17,#116,#147,#178,#202,#226,#243,#268,#293,#318,
    #350,#359,#368));
#17 = ADVANCED_FACE('',(#18,#78,#89,#100),#111,.F.);
#18 = FACE_BOUND('',#19,.F.);
#19 = EDGE_LOOP('',(#20,#30,#38,#46,#54,#62,#71));
#20 = ORIENTED_EDGE('',*,*,#21,.F.);
#21 = EDGE_CURVE('',#22,#24,#26,.T.);
#22 = VERTEX_POINT('',#23);
#23 = CARTESIAN_POINT('',(-149.,-26.,25.7));
#24 = VERTEX_POINT('',#25);
#25 = CARTESIAN_POINT('',(-149.,-2.711088342345,25.7));
#26 = LINE('',#27,#28);
#27 = CARTESIAN_POINT('',(-149.,-26.,25.7));
#28 = VECTOR('',#29,1.);
#29 = DIRECTION('',(0.,1.,0.));
#30 = ORIENTED_EDGE('',*,*,#31,.F.);
#31 = EDGE_CURVE('',#32,#22,#34,.T.);
#32 = VERTEX_POINT('',#33);
#33 = CARTESIAN_POINT('',(-149.,-26.,6.));
#34 = LINE('',#35,#36);
#35 = CARTESIAN_POINT('',(-149.,-26.,6.));
#36 = VECTOR('',#37,1.);
#37 = DIRECTION('',(0.,0.,1.));
#38 = ORIENTED_EDGE('',*,*,#39,.T.);
#39 = EDGE_CURVE('',#32,#40,#42,.T.);
#40 = VERTEX_POINT('',#41);
#41 = CARTESIAN_POINT('',(-149.,26.,6.));
#42 = LINE('',#43,#44);
#43 = CARTESIAN_POINT('',(-149.,-26.,6.));
#44 = VECTOR('',#45,1.);
#45 = DIRECTION('',(0.,1.,0.));
#46 = ORIENTED_EDGE('',*,*,#47,.T.);
#47 = EDGE_CURVE('',#40,#48,#50,.T.);
#48 = VERTEX_POINT('',#49);
#49 = CARTESIAN_POINT('',(-149.,26.,25.7));
#50 = LINE('',#51,#52);
#51 = CARTESIAN_POINT('',(-149.,26.,6.));
#52 = VECTOR('',#53,1.);
#53 = DIRECTION('',(0.,0.,1.));
#54 = ORIENTED_EDGE('',*,*,#55,.F.);
#55 = EDGE_CURVE('',#56,#48,#58,.T.);
#56 = VERTEX_POINT('',#57);
#57 = CARTESIAN_POINT('',(-149.,2.711088342345,25.7));
#58 = LINE('',#59,#60);
#59 = CARTESIAN_POINT('',(-149.,-26.,25.7));
#60 = VECTOR('',#61,1.);
#61 = DIRECTION('',(0.,1.,0.));
#62 = ORIENTED_EDGE('',*,*,#63,.T.);
#63 = EDGE_CURVE('',#56,#64,#66,.T.);
#64 = VERTEX_POINT('',#65);
#65 = CARTESIAN_POINT('',(-149.,-1.E-15,20.8));
#66 = CIRCLE('',#67,3.2);
#67 = AXIS2_PLACEMENT_3D('',#68,#69,#70);
#68 = CARTESIAN_POINT('',(-149.,0.,24.));
#69 = DIRECTION('',(-1.,0.,2.2E-16));
#70 = DIRECTION('',(-2.2E-16,0.,-1.));
#71 = ORIENTED_EDGE('',*,*,#72,.T.);
#72 = EDGE_CURVE('',#64,#24,#73,.T.);
#73 = CIRCLE('',#74,3.2);
#74 = AXIS2_PLACEMENT_3D('',#75,#76,#77);
#75 = CARTESIAN_POINT('',(-149.,0.,24.));
#76 = DIRECTION('',(-1.,0.,2.2E-16));
#77 = DIRECTION('',(-2.2E-16,0.,-1.));
#78 = FACE_BOUND('',#79,.F.);
#79 = EDGE_LOOP('',(#80));
#80 = ORIENTED_EDGE('',*,*,#81,.F.);
#81 = EDGE_CURVE('',#82,#82,#84,.T.);
#82 = VERTEX_POINT('',#83);
#83 = CARTESIAN_POINT('',(-149.,-6.,10.35));
#84 = CIRCLE('',#85,1.65);
#85 = AXIS2_PLACEMENT_3D('',#86,#87,#88);
#86 = CARTESIAN_POINT('',(-149.,-6.,12.));
#87 = DIRECTION('',(1.,-0.,0.));
#88 = DIRECTION('',(0.,0.,-1.));
#89 = FACE_BOUND('',#90,.F.);
#90 = EDGE_LOOP('',(#91));
#91 = ORIENTED_EDGE('',*,*,#92,.F.);
#92 = EDGE_CURVE('',#93,#93,#95,.T.);
#93 = VERTEX_POINT('',#94);
#94 = CARTESIAN_POINT('',(-149.,0.,16.35));
#95 = CIRCLE('',#96,1.65);
#96 = AXIS2_PLACEMENT_3D('',#97,#98,#99);
#97 = CARTESIAN_POINT('',(-149.,0.,18.));
#98 = DIRECTION('',(1.,-0.,0.));
#99 = DIRECTION('',(0.,0.,-1.));
#100 = FACE_BOUND('',#101,.F.);
#101 = EDGE_LOOP('',(#102));
#102 = ORIENTED_EDGE('',*,*,#103,.T.);
#103 = EDGE_CURVE('',#104,#104,#106,.T.);
#104 = VERTEX_POINT('',#105);
#105 = CARTESIAN_POINT('',(-149.,-18.,15.8));
#106 = CIRCLE('',#107,3.2);
#107 = AXIS2_PLACEMENT_3D('',#108,#109,#110);
#108 = CARTESIAN_POINT('',(-149.,-18.,19.));
#109 = DIRECTION('',(-1.,0.,2.2E-16));
#110 = DIRECTION('',(-2.2E-16,0.,-1.));
#111 = PLANE('',#112);
#112 = AXIS2_PLACEMENT_3D('',#113,#114,#115);
#113 = CARTESIAN_POINT('',(-149.,-26.,6.));
#114 = DIRECTION('',(1.,0.,0.));
#115 = DIRECTION('',(0.,0.,1.));
#116 = ADVANCED_FACE('',(#117),#142,.T.);
#117 = FACE_BOUND('',#118,.T.);
#118 = EDGE_LOOP('',(#119,#120,#128,#136));
#119 = ORIENTED_EDGE('',*,*,#21,.F.);
#120 = ORIENTED_EDGE('',*,*,#121,.T.);
#121 = EDGE_CURVE('',#22,#122,#124,.T.);
#122 = VERTEX_POINT('',#123);
#123 = CARTESIAN_POINT('',(-145.,-26.,25.7));
#124 = LINE('',#125,#126);
#125 = CARTESIAN_POINT('',(-149.,-26.,25.7));
#126 = VECTOR('',#127,1.);
#127 = DIRECTION('',(1.,0.,0.));
#128 = ORIENTED_EDGE('',*,*,#129,.T.);
#129 = EDGE_CURVE('',#122,#130,#132,.T.);
#130 = VERTEX_POINT('',#131);
#131 = CARTESIAN_POINT('',(-145.,-2.711088342345,25.7));
#132 = LINE('',#133,#134);
#133 = CARTESIAN_POINT('',(-145.,-26.,25.7));
#134 = VECTOR('',#135,1.);
#135 = DIRECTION('',(0.,1.,0.));
#136 = ORIENTED_EDGE('',*,*,#137,.T.);
#137 = EDGE_CURVE('',#130,#24,#138,.T.);
#138 = LINE('',#139,#140);
#139 = CARTESIAN_POINT('',(-150.,-2.711088342345,25.7));
#140 = VECTOR('',#141,1.);
#141 = DIRECTION('',(-1.,0.,2.2E-16));
#142 = PLANE('',#143);
#143 = AXIS2_PLACEMENT_3D('',#144,#145,#146);
#144 = CARTESIAN_POINT('',(-149.,-26.,25.7));
#145 = DIRECTION('',(0.,0.,1.));
#146 = DIRECTION('',(1.,0.,0.));
#147 = ADVANCED_FACE('',(#148),#173,.T.);
#148 = FACE_BOUND('',#149,.T.);
#149 = EDGE_LOOP('',(#150,#151,#159,#167));
#150 = ORIENTED_EDGE('',*,*,#55,.F.);
#151 = ORIENTED_EDGE('',*,*,#152,.F.);
#152 = EDGE_CURVE('',#153,#56,#155,.T.);
#153 = VERTEX_POINT('',#154);
#154 = CARTESIAN_POINT('',(-145.,2.711088342345,25.7));
#155 = LINE('',#156,#157);
#156 = CARTESIAN_POINT('',(-150.,2.711088342345,25.7));
#157 = VECTOR('',#158,1.);
#158 = DIRECTION('',(-1.,0.,2.2E-16));
#159 = ORIENTED_EDGE('',*,*,#160,.T.);
#160 = EDGE_CURVE('',#153,#161,#163,.T.);
#161 = VERTEX_POINT('',#162);
#162 = CARTESIAN_POINT('',(-145.,26.,25.7));
#163 = LINE('',#164,#165);
#164 = CARTESIAN_POINT('',(-145.,-26.,25.7));
#165 = VECTOR('',#166,1.);
#166 = DIRECTION('',(0.,1.,0.));
#167 = ORIENTED_EDGE('',*,*,#168,.F.);
#168 = EDGE_CURVE('',#48,#161,#169,.T.);
#169 = LINE('',#170,#171);
#170 = CARTESIAN_POINT('',(-149.,26.,25.7));
#171 = VECTOR('',#172,1.);
#172 = DIRECTION('',(1.,0.,0.));
#173 = PLANE('',#174);
#174 = AXIS2_PLACEMENT_3D('',#175,#176,#177);
#175 = CARTESIAN_POINT('',(-149.,-26.,25.7));
#176 = DIRECTION('',(0.,0.,1.));
#177 = DIRECTION('',(1.,0.,0.));
#178 = ADVANCED_FACE('',(#179),#197,.T.);
#179 = FACE_BOUND('',#180,.T.);
#180 = EDGE_LOOP('',(#181,#189,#190,#191));
#181 = ORIENTED_EDGE('',*,*,#182,.F.);
#182 = EDGE_CURVE('',#40,#183,#185,.T.);
#183 = VERTEX_POINT('',#184);
#184 = CARTESIAN_POINT('',(-145.,26.,6.));
#185 = LINE('',#186,#187);
#186 = CARTESIAN_POINT('',(-149.,26.,6.));
#187 = VECTOR('',#188,1.);
#188 = DIRECTION('',(1.,0.,0.));
#189 = ORIENTED_EDGE('',*,*,#47,.T.);
#190 = ORIENTED_EDGE('',*,*,#168,.T.);
#191 = ORIENTED_EDGE('',*,*,#192,.F.);
#192 = EDGE_CURVE('',#183,#161,#193,.T.);
#193 = LINE('',#194,#195);
#194 = CARTESIAN_POINT('',(-145.,26.,6.));
#195 = VECTOR('',#196,1.);
#196 = DIRECTION('',(0.,0.,1.));
#197 = PLANE('',#198);
#198 = AXIS2_PLACEMENT_3D('',#199,#200,#201);
#199 = CARTESIAN_POINT('',(-149.,26.,6.));
#200 = DIRECTION('',(0.,1.,0.));
#201 = DIRECTION('',(0.,0.,1.));
#202 = ADVANCED_FACE('',(#203),#221,.F.);
#203 = FACE_BOUND('',#204,.F.);
#204 = EDGE_LOOP('',(#205,#206,#214,#220));
#205 = ORIENTED_EDGE('',*,*,#39,.F.);
#206 = ORIENTED_EDGE('',*,*,#207,.T.);
#207 = EDGE_CURVE('',#32,#208,#210,.T.);
#208 = VERTEX_POINT('',#209);
#209 = CARTESIAN_POINT('',(-145.,-26.,6.));
#210 = LINE('',#211,#212);
#211 = CARTESIAN_POINT('',(-149.,-26.,6.));
#212 = VECTOR('',#213,1.);
#213 = DIRECTION('',(1.,0.,0.));
#214 = ORIENTED_EDGE('',*,*,#215,.T.);
#215 = EDGE_CURVE('',#208,#183,#216,.T.);
#216 = LINE('',#217,#218);
#217 = CARTESIAN_POINT('',(-145.,-26.,6.));
#218 = VECTOR('',#219,1.);
#219 = DIRECTION('',(0.,1.,0.));
#220 = ORIENTED_EDGE('',*,*,#182,.F.);
#221 = PLANE('',#222);
#222 = AXIS2_PLACEMENT_3D('',#223,#224,#225);
#223 = CARTESIAN_POINT('',(-149.,-26.,6.));
#224 = DIRECTION('',(0.,0.,1.));
#225 = DIRECTION('',(1.,0.,0.));
#226 = ADVANCED_FACE('',(#227),#238,.F.);
#227 = FACE_BOUND('',#228,.F.);
#228 = EDGE_LOOP('',(#229,#230,#231,#232));
#229 = ORIENTED_EDGE('',*,*,#207,.F.);
#230 = ORIENTED_EDGE('',*,*,#31,.T.);
#231 = ORIENTED_EDGE('',*,*,#121,.T.);
#232 = ORIENTED_EDGE('',*,*,#233,.F.);
#233 = EDGE_CURVE('',#208,#122,#234,.T.);
#234 = LINE('',#235,#236);
#235 = CARTESIAN_POINT('',(-145.,-26.,6.));
#236 = VECTOR('',#237,1.);
#237 = DIRECTION('',(0.,0.,1.));
#238 = PLANE('',#239);
#239 = AXIS2_PLACEMENT_3D('',#240,#241,#242);
#240 = CARTESIAN_POINT('',(-149.,-26.,6.));
#241 = DIRECTION('',(0.,1.,0.));
#242 = DIRECTION('',(0.,0.,1.));
#243 = ADVANCED_FACE('',(#244),#263,.F.);
#244 = FACE_BOUND('',#245,.T.);
#245 = EDGE_LOOP('',(#246,#254,#261,#262));
#246 = ORIENTED_EDGE('',*,*,#247,.T.);
#247 = EDGE_CURVE('',#82,#248,#250,.T.);
#248 = VERTEX_POINT('',#249);
#249 = CARTESIAN_POINT('',(-146.,-6.,10.35));
#250 = LINE('',#251,#252);
#251 = CARTESIAN_POINT('',(-149.,-6.,10.35));
#252 = VECTOR('',#253,1.);
#253 = DIRECTION('',(1.,0.,0.));
#254 = ORIENTED_EDGE('',*,*,#255,.T.);
#255 = EDGE_CURVE('',#248,#248,#256,.T.);
#256 = CIRCLE('',#257,1.65);
#257 = AXIS2_PLACEMENT_3D('',#258,#259,#260);
#258 = CARTESIAN_POINT('',(-146.,-6.,12.));
#259 = DIRECTION('',(1.,-0.,0.));
#260 = DIRECTION('',(0.,0.,-1.));
#261 = ORIENTED_EDGE('',*,*,#247,.F.);
#262 = ORIENTED_EDGE('',*,*,#81,.F.);
#263 = CYLINDRICAL_SURFACE('',#264,1.65);
#264 = AXIS2_PLACEMENT_3D('',#265,#266,#267);
#265 = CARTESIAN_POINT('',(-149.,-6.,12.));
#266 = DIRECTION('',(-1.,-0.,0.));
#267 = DIRECTION('',(0.,0.,-1.));
#268 = ADVANCED_FACE('',(#269),#288,.F.);
#269 = FACE_BOUND('',#270,.T.);
#270 = EDGE_LOOP('',(#271,#279,#286,#287));
#271 = ORIENTED_EDGE('',*,*,#272,.T.);
#272 = EDGE_CURVE('',#93,#273,#275,.T.);
#273 = VERTEX_POINT('',#274);
#274 = CARTESIAN_POINT('',(-146.,0.,16.35));
#275 = LINE('',#276,#277);
#276 = CARTESIAN_POINT('',(-149.,-4.E-16,16.35));
#277 = VECTOR('',#278,1.);
#278 = DIRECTION('',(1.,0.,0.));
#279 = ORIENTED_EDGE('',*,*,#280,.T.);
#280 = EDGE_CURVE('',#273,#273,#281,.T.);
#281 = CIRCLE('',#282,1.65);
#282 = AXIS2_PLACEMENT_3D('',#283,#284,#285);
#283 = CARTESIAN_POINT('',(-146.,0.,18.));
#284 = DIRECTION('',(1.,-0.,0.));
#285 = DIRECTION('',(0.,0.,-1.));
#286 = ORIENTED_EDGE('',*,*,#272,.F.);
#287 = ORIENTED_EDGE('',*,*,#92,.F.);
#288 = CYLINDRICAL_SURFACE('',#289,1.65);
#289 = AXIS2_PLACEMENT_3D('',#290,#291,#292);
#290 = CARTESIAN_POINT('',(-149.,0.,18.));
#291 = DIRECTION('',(-1.,-0.,0.));
#292 = DIRECTION('',(0.,0.,-1.));
#293 = ADVANCED_FACE('',(#294),#313,.F.);
#294 = FACE_BOUND('',#295,.T.);
#295 = EDGE_LOOP('',(#296,#297,#305,#312));
#296 = ORIENTED_EDGE('',*,*,#103,.T.);
#297 = ORIENTED_EDGE('',*,*,#298,.T.);
#298 = EDGE_CURVE('',#104,#299,#301,.T.);
#299 = VERTEX_POINT('',#300);
#300 = CARTESIAN_POINT('',(-145.,-18.,15.8));
#301 = LINE('',#302,#303);
#302 = CARTESIAN_POINT('',(-150.,-18.,15.8));
#303 = VECTOR('',#304,1.);
#304 = DIRECTION('',(1.,0.,0.));
#305 = ORIENTED_EDGE('',*,*,#306,.F.);
#306 = EDGE_CURVE('',#299,#299,#307,.T.);
#307 = CIRCLE('',#308,3.2);
#308 = AXIS2_PLACEMENT_3D('',#309,#310,#311);
#309 = CARTESIAN_POINT('',(-145.,-18.,19.));
#310 = DIRECTION('',(-1.,0.,2.2E-16));
#311 = DIRECTION('',(-2.2E-16,0.,-1.));
#312 = ORIENTED_EDGE('',*,*,#298,.F.);
#313 = CYLINDRICAL_SURFACE('',#314,3.2);
#314 = AXIS2_PLACEMENT_3D('',#315,#316,#317);
#315 = CARTESIAN_POINT('',(-150.,-18.,19.));
#316 = DIRECTION('',(-1.,-0.,0.));
#317 = DIRECTION('',(0.,0.,-1.));
#318 = ADVANCED_FACE('',(#319,#342),#345,.T.);
#319 = FACE_BOUND('',#320,.T.);
#320 = EDGE_LOOP('',(#321,#322,#323,#324,#325,#326,#335));
#321 = ORIENTED_EDGE('',*,*,#129,.F.);
#322 = ORIENTED_EDGE('',*,*,#233,.F.);
#323 = ORIENTED_EDGE('',*,*,#215,.T.);
#324 = ORIENTED_EDGE('',*,*,#192,.T.);
#325 = ORIENTED_EDGE('',*,*,#160,.F.);
#326 = ORIENTED_EDGE('',*,*,#327,.T.);
#327 = EDGE_CURVE('',#153,#328,#330,.T.);
#328 = VERTEX_POINT('',#329);
#329 = CARTESIAN_POINT('',(-145.,-1.E-15,20.8));
#330 = CIRCLE('',#331,3.2);
#331 = AXIS2_PLACEMENT_3D('',#332,#333,#334);
#332 = CARTESIAN_POINT('',(-145.,0.,24.));
#333 = DIRECTION('',(-1.,0.,2.2E-16));
#334 = DIRECTION('',(-2.2E-16,0.,-1.));
#335 = ORIENTED_EDGE('',*,*,#336,.T.);
#336 = EDGE_CURVE('',#328,#130,#337,.T.);
#337 = CIRCLE('',#338,3.2);
#338 = AXIS2_PLACEMENT_3D('',#339,#340,#341);
#339 = CARTESIAN_POINT('',(-145.,0.,24.));
#340 = DIRECTION('',(-1.,0.,2.2E-16));
#341 = DIRECTION('',(-2.2E-16,0.,-1.));
#342 = FACE_BOUND('',#343,.T.);
#343 = EDGE_LOOP('',(#344));
#344 = ORIENTED_EDGE('',*,*,#306,.T.);
#345 = PLANE('',#346);
#346 = AXIS2_PLACEMENT_3D('',#347,#348,#349);
#347 = CARTESIAN_POINT('',(-145.,-26.,6.));
#348 = DIRECTION('',(1.,0.,0.));
#349 = DIRECTION('',(0.,0.,1.));
#350 = ADVANCED_FACE('',(#351),#354,.F.);
#351 = FACE_BOUND('',#352,.T.);
#352 = EDGE_LOOP('',(#353));
#353 = ORIENTED_EDGE('',*,*,#255,.F.);
#354 = PLANE('',#355);
#355 = AXIS2_PLACEMENT_3D('',#356,#357,#358);
#356 = CARTESIAN_POINT('',(-146.,-6.,12.));
#357 = DIRECTION('',(1.,0.,0.));
#358 = DIRECTION('',(0.,0.,-1.));
#359 = ADVANCED_FACE('',(#360),#363,.F.);
#360 = FACE_BOUND('',#361,.T.);
#361 = EDGE_LOOP('',(#362));
#362 = ORIENTED_EDGE('',*,*,#280,.F.);
#363 = PLANE('',#364);
#364 = AXIS2_PLACEMENT_3D('',#365,#366,#367);
#365 = CARTESIAN_POINT('',(-146.,0.,18.));
#366 = DIRECTION('',(1.,0.,0.));
#367 = DIRECTION('',(0.,0.,-1.));
#368 = ADVANCED_FACE('',(#369),#377,.F.);
#369 = FACE_BOUND('',#370,.T.);
#370 = EDGE_LOOP('',(#371,#372,#373,#374,#375,#376));
#371 = ORIENTED_EDGE('',*,*,#327,.F.);
#372 = ORIENTED_EDGE('',*,*,#152,.T.);
#373 = ORIENTED_EDGE('',*,*,#63,.T.);
#374 = ORIENTED_EDGE('',*,*,#72,.T.);
#375 = ORIENTED_EDGE('',*,*,#137,.F.);
#376 = ORIENTED_EDGE('',*,*,#336,.F.);
#377 = CYLINDRICAL_SURFACE('',#378,3.2);
#378 = AXIS2_PLACEMENT_3D('',#379,#380,#381);
#379 = CARTESIAN_POINT('',(-150.,0.,24.));
#380 = DIRECTION('',(-1.,0.,2.2E-16));
#381 = DIRECTION('',(-2.2E-16,0.,-1.));
#382 = ( GEOMETRIC_REPRESENTATION_CONTEXT(3) 
GLOBAL_UNCERTAINTY_ASSIGNED_CONTEXT((#386)) GLOBAL_UNIT_ASSIGNED_CONTEXT
((#383,#384,#385)) REPRESENTATION_CONTEXT('Context #1',
  '3D Context with UNIT and UNCERTAINTY') );
#383 = ( LENGTH_UNIT() NAMED_UNIT(*) SI_UNIT(.MILLI.,.METRE.) );
#384 = ( NAMED_UNIT(*) PLANE_ANGLE_UNIT() SI_UNIT($,.RADIAN.) );
#385 = ( NAMED_UNIT(*) SI_UNIT($,.STERADIAN.) SOLID_ANGLE_UNIT() );
#386 = UNCERTAINTY_MEASURE_WITH_UNIT(LENGTH_MEASURE(1.E-07),#383,
  'distance_accuracy_value','confusion accuracy');
#387 = PRODUCT_RELATED_PRODUCT_CATEGORY('part',$,(#7));
ENDSEC;
END-ISO-10303-21;
