ISO-10303-21;
HEADER;
FILE_DESCRIPTION(('FreeCAD Model'),'2;1');
FILE_NAME('Open CASCADE Shape Model','2026-09-28T03:26:24',('Author'),(
    ''),'Open CASCADE STEP processor 7.8','FreeCAD','Unknown');
FILE_SCHEMA(('AUTOMOTIVE_DESIGN { 1 0 10303 214 1 1 1 1 }'));
ENDSEC;
DATA;
#1 = APPLICATION_PROTOCOL_DEFINITION('international standard',
  'automotive_design',2000,#2);
#2 = APPLICATION_CONTEXT(
  'core data for automotive mechanical design processes');
#3 = SHAPE_DEFINITION_REPRESENTATION(#4,#10);
#4 = PRODUCT_DEFINITION_SHAPE('','',#5);
#5 = PRODUCT_DEFINITION('design','',#6,#9);
#6 = PRODUCT_DEFINITION_FORMATION('','',#7);
#7 = PRODUCT('ODO_SPRING_LAT_R','ODO_SPRING_LAT_R','',(#8));
#8 = PRODUCT_CONTEXT('',#2,'mechanical');
#9 = PRODUCT_DEFINITION_CONTEXT('part definition',#2,'design');
#10 = ADVANCED_BREP_SHAPE_REPRESENTATION('',(#11,#15),#270);
#11 = AXIS2_PLACEMENT_3D('',#12,#13,#14);
#12 = CARTESIAN_POINT('',(0.,0.,0.));
#13 = DIRECTION('',(0.,0.,1.));
#14 = DIRECTION('',(1.,0.,-0.));
#15 = MANIFOLD_SOLID_BREP('',#16);
#16 = CLOSED_SHELL('',(#17,#59,#110,#119,#159,#190,#215,#239,#256));
#17 = ADVANCED_FACE('',(#18),#54,.F.);
#18 = FACE_BOUND('',#19,.F.);
#19 = EDGE_LOOP('',(#20,#31,#40,#48));
#20 = ORIENTED_EDGE('',*,*,#21,.T.);
#21 = EDGE_CURVE('',#22,#24,#26,.T.);
#22 = VERTEX_POINT('',#23);
#23 = CARTESIAN_POINT('',(45.893053971557,-98.84,25.474469519255));
#24 = VERTEX_POINT('',#25);
#25 = CARTESIAN_POINT('',(52.312483064718,-101.0872534921,
    22.544472353933));
#26 = CIRCLE('',#27,4.);
#27 = AXIS2_PLACEMENT_3D('',#28,#29,#30);
#28 = CARTESIAN_POINT('',(48.48,-101.3,23.67));
#29 = DIRECTION('',(0.281381911517,-0.357355027626,0.890573749951));
#30 = DIRECTION('',(0.95812076618,5.318662695188E-02,-0.281381911517));
#31 = ORIENTED_EDGE('',*,*,#32,.T.);
#32 = EDGE_CURVE('',#24,#33,#35,.T.);
#33 = VERTEX_POINT('',#34);
#34 = CARTESIAN_POINT('',(46.48,-98.34987059314,25.485691736718));
#35 = CIRCLE('',#36,4.);
#36 = AXIS2_PLACEMENT_3D('',#37,#38,#39);
#37 = CARTESIAN_POINT('',(48.48,-101.3,23.67));
#38 = DIRECTION('',(0.281381911517,-0.357355027626,0.890573749951));
#39 = DIRECTION('',(0.95812076618,5.318662695188E-02,-0.281381911517));
#40 = ORIENTED_EDGE('',*,*,#41,.T.);
#41 = EDGE_CURVE('',#33,#42,#44,.T.);
#42 = VERTEX_POINT('',#43);
#43 = CARTESIAN_POINT('',(46.48,-98.84,25.289020537125));
#44 = LINE('',#45,#46);
#45 = CARTESIAN_POINT('',(46.48,-100.4589783643,24.639383089176));
#46 = VECTOR('',#47,1.);
#47 = DIRECTION('',(0.,-0.928071685686,-0.372401592677));
#48 = ORIENTED_EDGE('',*,*,#49,.F.);
#49 = EDGE_CURVE('',#22,#42,#50,.T.);
#50 = LINE('',#51,#52);
#51 = CARTESIAN_POINT('',(45.126641962926,-98.84,25.716621812662));
#52 = VECTOR('',#53,1.);
#53 = DIRECTION('',(0.953537121404,0.,-0.301275551786));
#54 = PLANE('',#55);
#55 = AXIS2_PLACEMENT_3D('',#56,#57,#58);
#56 = CARTESIAN_POINT('',(48.48,-101.3,23.67));
#57 = DIRECTION('',(0.281381911517,-0.357355027626,0.890573749951));
#58 = DIRECTION('',(0.95812076618,5.318662695188E-02,-0.281381911517));
#59 = ADVANCED_FACE('',(#60),#105,.T.);
#60 = FACE_BOUND('',#61,.F.);
#61 = EDGE_LOOP('',(#62,#63,#71,#78,#79,#80,#89,#98));
#62 = ORIENTED_EDGE('',*,*,#32,.F.);
#63 = ORIENTED_EDGE('',*,*,#64,.T.);
#64 = EDGE_CURVE('',#24,#65,#67,.T.);
#65 = VERTEX_POINT('',#66);
#66 = CARTESIAN_POINT('',(54.312483064718,-103.6272534921,
    28.874472353933));
#67 = LINE('',#68,#69);
#68 = CARTESIAN_POINT('',(52.312483064718,-101.0872534921,
    22.544472353933));
#69 = VECTOR('',#70,1.);
#70 = DIRECTION('',(0.281381911517,-0.357355027626,0.890573749951));
#71 = ORIENTED_EDGE('',*,*,#72,.T.);
#72 = EDGE_CURVE('',#65,#65,#73,.T.);
#73 = CIRCLE('',#74,4.);
#74 = AXIS2_PLACEMENT_3D('',#75,#76,#77);
#75 = CARTESIAN_POINT('',(50.48,-103.84,30.));
#76 = DIRECTION('',(0.281381911517,-0.357355027626,0.890573749951));
#77 = DIRECTION('',(0.95812076618,5.318662695188E-02,-0.281381911517));
#78 = ORIENTED_EDGE('',*,*,#64,.F.);
#79 = ORIENTED_EDGE('',*,*,#21,.F.);
#80 = ORIENTED_EDGE('',*,*,#81,.T.);
#81 = EDGE_CURVE('',#22,#82,#84,.T.);
#82 = VERTEX_POINT('',#83);
#83 = CARTESIAN_POINT('',(46.031768042118,-98.84,25.67));
#84 = ELLIPSE('',#85,11.193350284083,4.);
#85 = AXIS2_PLACEMENT_3D('',#86,#87,#88);
#86 = CARTESIAN_POINT('',(46.542992125984,-98.84,17.53937007874));
#87 = DIRECTION('',(0.,1.,0.));
#88 = DIRECTION('',(-0.301275551786,0.,-0.953537121404));
#89 = ORIENTED_EDGE('',*,*,#90,.F.);
#90 = EDGE_CURVE('',#91,#82,#93,.T.);
#91 = VERTEX_POINT('',#92);
#92 = CARTESIAN_POINT('',(46.48,-98.46415499624,25.67));
#93 = ELLIPSE('',#94,4.491486527894,4.);
#94 = AXIS2_PLACEMENT_3D('',#95,#96,#97);
#95 = CARTESIAN_POINT('',(49.111911532385,-102.1025276461,25.67));
#96 = DIRECTION('',(0.,0.,1.));
#97 = DIRECTION('',(-0.618640866636,0.785673900628,0.));
#98 = ORIENTED_EDGE('',*,*,#99,.F.);
#99 = EDGE_CURVE('',#33,#91,#100,.T.);
#100 = ELLIPSE('',#101,14.215554860785,4.);
#101 = AXIS2_PLACEMENT_3D('',#102,#103,#104);
#102 = CARTESIAN_POINT('',(46.48,-98.76,17.34));
#103 = DIRECTION('',(1.,-0.,0.));
#104 = DIRECTION('',(0.,0.372401592677,-0.928071685686));
#105 = CYLINDRICAL_SURFACE('',#106,4.);
#106 = AXIS2_PLACEMENT_3D('',#107,#108,#109);
#107 = CARTESIAN_POINT('',(48.48,-101.3,23.67));
#108 = DIRECTION('',(-0.281381911517,0.357355027626,-0.890573749951));
#109 = DIRECTION('',(0.95812076618,5.318662695188E-02,-0.281381911517));
#110 = ADVANCED_FACE('',(#111),#114,.T.);
#111 = FACE_BOUND('',#112,.F.);
#112 = EDGE_LOOP('',(#113));
#113 = ORIENTED_EDGE('',*,*,#72,.F.);
#114 = PLANE('',#115);
#115 = AXIS2_PLACEMENT_3D('',#116,#117,#118);
#116 = CARTESIAN_POINT('',(50.48,-103.84,30.));
#117 = DIRECTION('',(0.281381911517,-0.357355027626,0.890573749951));
#118 = DIRECTION('',(0.95812076618,5.318662695188E-02,-0.281381911517));
#119 = ADVANCED_FACE('',(#120),#154,.F.);
#120 = FACE_BOUND('',#121,.T.);
#121 = EDGE_LOOP('',(#122,#132,#138,#139,#140,#148));
#122 = ORIENTED_EDGE('',*,*,#123,.T.);
#123 = EDGE_CURVE('',#124,#126,#128,.T.);
#124 = VERTEX_POINT('',#125);
#125 = CARTESIAN_POINT('',(40.48,-98.84,23.67));
#126 = VERTEX_POINT('',#127);
#127 = CARTESIAN_POINT('',(46.48,-98.84,23.67));
#128 = LINE('',#129,#130);
#129 = CARTESIAN_POINT('',(40.48,-98.84,23.67));
#130 = VECTOR('',#131,1.);
#131 = DIRECTION('',(1.,0.,0.));
#132 = ORIENTED_EDGE('',*,*,#133,.T.);
#133 = EDGE_CURVE('',#126,#42,#134,.T.);
#134 = LINE('',#135,#136);
#135 = CARTESIAN_POINT('',(46.48,-98.84,23.67));
#136 = VECTOR('',#137,1.);
#137 = DIRECTION('',(0.,0.,1.));
#138 = ORIENTED_EDGE('',*,*,#49,.F.);
#139 = ORIENTED_EDGE('',*,*,#81,.T.);
#140 = ORIENTED_EDGE('',*,*,#141,.F.);
#141 = EDGE_CURVE('',#142,#82,#144,.T.);
#142 = VERTEX_POINT('',#143);
#143 = CARTESIAN_POINT('',(40.48,-98.84,25.67));
#144 = LINE('',#145,#146);
#145 = CARTESIAN_POINT('',(40.48,-98.84,25.67));
#146 = VECTOR('',#147,1.);
#147 = DIRECTION('',(1.,0.,0.));
#148 = ORIENTED_EDGE('',*,*,#149,.F.);
#149 = EDGE_CURVE('',#124,#142,#150,.T.);
#150 = LINE('',#151,#152);
#151 = CARTESIAN_POINT('',(40.48,-98.84,23.67));
#152 = VECTOR('',#153,1.);
#153 = DIRECTION('',(0.,0.,1.));
#154 = PLANE('',#155);
#155 = AXIS2_PLACEMENT_3D('',#156,#157,#158);
#156 = CARTESIAN_POINT('',(40.48,-98.84,23.67));
#157 = DIRECTION('',(0.,1.,0.));
#158 = DIRECTION('',(0.,0.,1.));
#159 = ADVANCED_FACE('',(#160),#185,.F.);
#160 = FACE_BOUND('',#161,.F.);
#161 = EDGE_LOOP('',(#162,#163,#171,#179));
#162 = ORIENTED_EDGE('',*,*,#149,.F.);
#163 = ORIENTED_EDGE('',*,*,#164,.T.);
#164 = EDGE_CURVE('',#124,#165,#167,.T.);
#165 = VERTEX_POINT('',#166);
#166 = CARTESIAN_POINT('',(40.48,-94.84,23.67));
#167 = LINE('',#168,#169);
#168 = CARTESIAN_POINT('',(40.48,-98.84,23.67));
#169 = VECTOR('',#170,1.);
#170 = DIRECTION('',(0.,1.,0.));
#171 = ORIENTED_EDGE('',*,*,#172,.T.);
#172 = EDGE_CURVE('',#165,#173,#175,.T.);
#173 = VERTEX_POINT('',#174);
#174 = CARTESIAN_POINT('',(40.48,-94.84,25.67));
#175 = LINE('',#176,#177);
#176 = CARTESIAN_POINT('',(40.48,-94.84,23.67));
#177 = VECTOR('',#178,1.);
#178 = DIRECTION('',(0.,0.,1.));
#179 = ORIENTED_EDGE('',*,*,#180,.F.);
#180 = EDGE_CURVE('',#142,#173,#181,.T.);
#181 = LINE('',#182,#183);
#182 = CARTESIAN_POINT('',(40.48,-98.84,25.67));
#183 = VECTOR('',#184,1.);
#184 = DIRECTION('',(0.,1.,0.));
#185 = PLANE('',#186);
#186 = AXIS2_PLACEMENT_3D('',#187,#188,#189);
#187 = CARTESIAN_POINT('',(40.48,-98.84,23.67));
#188 = DIRECTION('',(1.,0.,0.));
#189 = DIRECTION('',(0.,0.,1.));
#190 = ADVANCED_FACE('',(#191),#210,.T.);
#191 = FACE_BOUND('',#192,.T.);
#192 = EDGE_LOOP('',(#193,#194,#195,#196,#204));
#193 = ORIENTED_EDGE('',*,*,#180,.F.);
#194 = ORIENTED_EDGE('',*,*,#141,.T.);
#195 = ORIENTED_EDGE('',*,*,#90,.F.);
#196 = ORIENTED_EDGE('',*,*,#197,.T.);
#197 = EDGE_CURVE('',#91,#198,#200,.T.);
#198 = VERTEX_POINT('',#199);
#199 = CARTESIAN_POINT('',(46.48,-94.84,25.67));
#200 = LINE('',#201,#202);
#201 = CARTESIAN_POINT('',(46.48,-98.84,25.67));
#202 = VECTOR('',#203,1.);
#203 = DIRECTION('',(0.,1.,0.));
#204 = ORIENTED_EDGE('',*,*,#205,.F.);
#205 = EDGE_CURVE('',#173,#198,#206,.T.);
#206 = LINE('',#207,#208);
#207 = CARTESIAN_POINT('',(40.48,-94.84,25.67));
#208 = VECTOR('',#209,1.);
#209 = DIRECTION('',(1.,0.,0.));
#210 = PLANE('',#211);
#211 = AXIS2_PLACEMENT_3D('',#212,#213,#214);
#212 = CARTESIAN_POINT('',(40.48,-98.84,25.67));
#213 = DIRECTION('',(0.,0.,1.));
#214 = DIRECTION('',(1.,0.,0.));
#215 = ADVANCED_FACE('',(#216),#234,.T.);
#216 = FACE_BOUND('',#217,.T.);
#217 = EDGE_LOOP('',(#218,#219,#220,#228));
#218 = ORIENTED_EDGE('',*,*,#172,.T.);
#219 = ORIENTED_EDGE('',*,*,#205,.T.);
#220 = ORIENTED_EDGE('',*,*,#221,.F.);
#221 = EDGE_CURVE('',#222,#198,#224,.T.);
#222 = VERTEX_POINT('',#223);
#223 = CARTESIAN_POINT('',(46.48,-94.84,23.67));
#224 = LINE('',#225,#226);
#225 = CARTESIAN_POINT('',(46.48,-94.84,23.67));
#226 = VECTOR('',#227,1.);
#227 = DIRECTION('',(0.,0.,1.));
#228 = ORIENTED_EDGE('',*,*,#229,.F.);
#229 = EDGE_CURVE('',#165,#222,#230,.T.);
#230 = LINE('',#231,#232);
#231 = CARTESIAN_POINT('',(40.48,-94.84,23.67));
#232 = VECTOR('',#233,1.);
#233 = DIRECTION('',(1.,0.,0.));
#234 = PLANE('',#235);
#235 = AXIS2_PLACEMENT_3D('',#236,#237,#238);
#236 = CARTESIAN_POINT('',(40.48,-94.84,23.67));
#237 = DIRECTION('',(0.,1.,0.));
#238 = DIRECTION('',(0.,0.,1.));
#239 = ADVANCED_FACE('',(#240),#251,.F.);
#240 = FACE_BOUND('',#241,.T.);
#241 = EDGE_LOOP('',(#242,#243,#249,#250));
#242 = ORIENTED_EDGE('',*,*,#229,.T.);
#243 = ORIENTED_EDGE('',*,*,#244,.F.);
#244 = EDGE_CURVE('',#126,#222,#245,.T.);
#245 = LINE('',#246,#247);
#246 = CARTESIAN_POINT('',(46.48,-98.84,23.67));
#247 = VECTOR('',#248,1.);
#248 = DIRECTION('',(0.,1.,0.));
#249 = ORIENTED_EDGE('',*,*,#123,.F.);
#250 = ORIENTED_EDGE('',*,*,#164,.T.);
#251 = PLANE('',#252);
#252 = AXIS2_PLACEMENT_3D('',#253,#254,#255);
#253 = CARTESIAN_POINT('',(40.48,-98.84,23.67));
#254 = DIRECTION('',(0.,0.,1.));
#255 = DIRECTION('',(1.,0.,0.));
#256 = ADVANCED_FACE('',(#257),#265,.T.);
#257 = FACE_BOUND('',#258,.T.);
#258 = EDGE_LOOP('',(#259,#260,#261,#262,#263,#264));
#259 = ORIENTED_EDGE('',*,*,#133,.F.);
#260 = ORIENTED_EDGE('',*,*,#244,.T.);
#261 = ORIENTED_EDGE('',*,*,#221,.T.);
#262 = ORIENTED_EDGE('',*,*,#197,.F.);
#263 = ORIENTED_EDGE('',*,*,#99,.F.);
#264 = ORIENTED_EDGE('',*,*,#41,.T.);
#265 = PLANE('',#266);
#266 = AXIS2_PLACEMENT_3D('',#267,#268,#269);
#267 = CARTESIAN_POINT('',(46.48,-98.84,23.67));
#268 = DIRECTION('',(1.,0.,0.));
#269 = DIRECTION('',(0.,0.,1.));
#270 = ( GEOMETRIC_REPRESENTATION_CONTEXT(3) 
GLOBAL_UNCERTAINTY_ASSIGNED_CONTEXT((#274)) GLOBAL_UNIT_ASSIGNED_CONTEXT
((#271,#272,#273)) REPRESENTATION_CONTEXT('Context #1',
  '3D Context with UNIT and UNCERTAINTY') );
#271 = ( LENGTH_UNIT() NAMED_UNIT(*) SI_UNIT(.MILLI.,.METRE.) );
#272 = ( NAMED_UNIT(*) PLANE_ANGLE_UNIT() SI_UNIT($,.RADIAN.) );
#273 = ( NAMED_UNIT(*) SI_UNIT($,.STERADIAN.) SOLID_ANGLE_UNIT() );
#274 = UNCERTAINTY_MEASURE_WITH_UNIT(LENGTH_MEASURE(1.E-05),#271,
  'distance_accuracy_value','confusion accuracy');
#275 = PRODUCT_RELATED_PRODUCT_CATEGORY('part',$,(#7));
ENDSEC;
END-ISO-10303-21;
