ISO-10303-21;
HEADER;
FILE_DESCRIPTION(('FreeCAD Model'),'2;1');
FILE_NAME('Open CASCADE Shape Model','2026-09-28T13:05:54',('Author'),(
    ''),'Open CASCADE STEP processor 7.8','FreeCAD','Unknown');
FILE_SCHEMA(('AUTOMOTIVE_DESIGN { 1 0 10303 214 1 1 1 1 }'));
ENDSEC;
DATA;
#1 = APPLICATION_PROTOCOL_DEFINITION('international standard',
  'automotive_design',2000,#2);
#2 = APPLICATION_CONTEXT(
  'core data for automotive mechanical design processes');
#3 = SHAPE_DEFINITION_REPRESENTATION(#4,#10);
#4 = PRODUCT_DEFINITION_SHAPE('','',#5);
#5 = PRODUCT_DEFINITION('design','',#6,#9);
#6 = PRODUCT_DEFINITION_FORMATION('','',#7);
#7 = PRODUCT('ODO_SPRING_LAT_L','ODO_SPRING_LAT_L','',(#8));
#8 = PRODUCT_CONTEXT('',#2,'mechanical');
#9 = PRODUCT_DEFINITION_CONTEXT('part definition',#2,'design');
#10 = ADVANCED_BREP_SHAPE_REPRESENTATION('',(#11,#15),#270);
#11 = AXIS2_PLACEMENT_3D('',#12,#13,#14);
#12 = CARTESIAN_POINT('',(0.,0.,0.));
#13 = DIRECTION('',(0.,0.,1.));
#14 = DIRECTION('',(1.,0.,-0.));
#15 = MANIFOLD_SOLID_BREP('',#16);
#16 = CLOSED_SHELL('',(#17,#57,#88,#121,#180,#204,#213,#239,#256));
#17 = ADVANCED_FACE('',(#18),#52,.F.);
#18 = FACE_BOUND('',#19,.F.);
#19 = EDGE_LOOP('',(#20,#30,#38,#46));
#20 = ORIENTED_EDGE('',*,*,#21,.F.);
#21 = EDGE_CURVE('',#22,#24,#26,.T.);
#22 = VERTEX_POINT('',#23);
#23 = CARTESIAN_POINT('',(40.48,94.84,23.67));
#24 = VERTEX_POINT('',#25);
#25 = CARTESIAN_POINT('',(40.48,94.84,25.67));
#26 = LINE('',#27,#28);
#27 = CARTESIAN_POINT('',(40.48,94.84,23.67));
#28 = VECTOR('',#29,1.);
#29 = DIRECTION('',(0.,0.,1.));
#30 = ORIENTED_EDGE('',*,*,#31,.T.);
#31 = EDGE_CURVE('',#22,#32,#34,.T.);
#32 = VERTEX_POINT('',#33);
#33 = CARTESIAN_POINT('',(40.48,98.84,23.67));
#34 = LINE('',#35,#36);
#35 = CARTESIAN_POINT('',(40.48,94.84,23.67));
#36 = VECTOR('',#37,1.);
#37 = DIRECTION('',(0.,1.,0.));
#38 = ORIENTED_EDGE('',*,*,#39,.T.);
#39 = EDGE_CURVE('',#32,#40,#42,.T.);
#40 = VERTEX_POINT('',#41);
#41 = CARTESIAN_POINT('',(40.48,98.84,25.67));
#42 = LINE('',#43,#44);
#43 = CARTESIAN_POINT('',(40.48,98.84,23.67));
#44 = VECTOR('',#45,1.);
#45 = DIRECTION('',(0.,0.,1.));
#46 = ORIENTED_EDGE('',*,*,#47,.F.);
#47 = EDGE_CURVE('',#24,#40,#48,.T.);
#48 = LINE('',#49,#50);
#49 = CARTESIAN_POINT('',(40.48,94.84,25.67));
#50 = VECTOR('',#51,1.);
#51 = DIRECTION('',(0.,1.,0.));
#52 = PLANE('',#53);
#53 = AXIS2_PLACEMENT_3D('',#54,#55,#56);
#54 = CARTESIAN_POINT('',(40.48,94.84,23.67));
#55 = DIRECTION('',(1.,0.,0.));
#56 = DIRECTION('',(0.,0.,1.));
#57 = ADVANCED_FACE('',(#58),#83,.F.);
#58 = FACE_BOUND('',#59,.T.);
#59 = EDGE_LOOP('',(#60,#68,#76,#82));
#60 = ORIENTED_EDGE('',*,*,#61,.T.);
#61 = EDGE_CURVE('',#22,#62,#64,.T.);
#62 = VERTEX_POINT('',#63);
#63 = CARTESIAN_POINT('',(46.48,94.84,23.67));
#64 = LINE('',#65,#66);
#65 = CARTESIAN_POINT('',(40.48,94.84,23.67));
#66 = VECTOR('',#67,1.);
#67 = DIRECTION('',(1.,0.,0.));
#68 = ORIENTED_EDGE('',*,*,#69,.T.);
#69 = EDGE_CURVE('',#62,#70,#72,.T.);
#70 = VERTEX_POINT('',#71);
#71 = CARTESIAN_POINT('',(46.48,94.84,25.67));
#72 = LINE('',#73,#74);
#73 = CARTESIAN_POINT('',(46.48,94.84,23.67));
#74 = VECTOR('',#75,1.);
#75 = DIRECTION('',(0.,0.,1.));
#76 = ORIENTED_EDGE('',*,*,#77,.F.);
#77 = EDGE_CURVE('',#24,#70,#78,.T.);
#78 = LINE('',#79,#80);
#79 = CARTESIAN_POINT('',(40.48,94.84,25.67));
#80 = VECTOR('',#81,1.);
#81 = DIRECTION('',(1.,0.,0.));
#82 = ORIENTED_EDGE('',*,*,#21,.F.);
#83 = PLANE('',#84);
#84 = AXIS2_PLACEMENT_3D('',#85,#86,#87);
#85 = CARTESIAN_POINT('',(40.48,94.84,23.67));
#86 = DIRECTION('',(0.,1.,0.));
#87 = DIRECTION('',(0.,0.,1.));
#88 = ADVANCED_FACE('',(#89),#116,.T.);
#89 = FACE_BOUND('',#90,.T.);
#90 = EDGE_LOOP('',(#91,#92,#93,#101,#110));
#91 = ORIENTED_EDGE('',*,*,#47,.F.);
#92 = ORIENTED_EDGE('',*,*,#77,.T.);
#93 = ORIENTED_EDGE('',*,*,#94,.T.);
#94 = EDGE_CURVE('',#70,#95,#97,.T.);
#95 = VERTEX_POINT('',#96);
#96 = CARTESIAN_POINT('',(46.48,98.46415499624,25.67));
#97 = LINE('',#98,#99);
#98 = CARTESIAN_POINT('',(46.48,94.84,25.67));
#99 = VECTOR('',#100,1.);
#100 = DIRECTION('',(0.,1.,0.));
#101 = ORIENTED_EDGE('',*,*,#102,.F.);
#102 = EDGE_CURVE('',#103,#95,#105,.T.);
#103 = VERTEX_POINT('',#104);
#104 = CARTESIAN_POINT('',(46.031768042118,98.84,25.67));
#105 = ELLIPSE('',#106,4.491486527894,4.);
#106 = AXIS2_PLACEMENT_3D('',#107,#108,#109);
#107 = CARTESIAN_POINT('',(49.111911532385,102.10252764613,25.67));
#108 = DIRECTION('',(0.,0.,1.));
#109 = DIRECTION('',(-0.618640866636,-0.785673900628,0.));
#110 = ORIENTED_EDGE('',*,*,#111,.F.);
#111 = EDGE_CURVE('',#40,#103,#112,.T.);
#112 = LINE('',#113,#114);
#113 = CARTESIAN_POINT('',(40.48,98.84,25.67));
#114 = VECTOR('',#115,1.);
#115 = DIRECTION('',(1.,0.,0.));
#116 = PLANE('',#117);
#117 = AXIS2_PLACEMENT_3D('',#118,#119,#120);
#118 = CARTESIAN_POINT('',(40.48,94.84,25.67));
#119 = DIRECTION('',(0.,0.,1.));
#120 = DIRECTION('',(1.,0.,0.));
#121 = ADVANCED_FACE('',(#122),#175,.T.);
#122 = FACE_BOUND('',#123,.F.);
#123 = EDGE_LOOP('',(#124,#135,#143,#150,#151,#160,#167,#168));
#124 = ORIENTED_EDGE('',*,*,#125,.F.);
#125 = EDGE_CURVE('',#126,#128,#130,.T.);
#126 = VERTEX_POINT('',#127);
#127 = CARTESIAN_POINT('',(52.312483064718,101.08725349219,
    22.544472353933));
#128 = VERTEX_POINT('',#129);
#129 = CARTESIAN_POINT('',(45.893053971557,98.84,25.474469519255));
#130 = CIRCLE('',#131,4.);
#131 = AXIS2_PLACEMENT_3D('',#132,#133,#134);
#132 = CARTESIAN_POINT('',(48.48,101.3,23.67));
#133 = DIRECTION('',(0.281381911517,0.357355027626,0.890573749951));
#134 = DIRECTION('',(0.95812076618,-5.318662695188E-02,-0.281381911517)
  );
#135 = ORIENTED_EDGE('',*,*,#136,.T.);
#136 = EDGE_CURVE('',#126,#137,#139,.T.);
#137 = VERTEX_POINT('',#138);
#138 = CARTESIAN_POINT('',(54.312483064718,103.62725349219,
    28.874472353933));
#139 = LINE('',#140,#141);
#140 = CARTESIAN_POINT('',(52.312483064718,101.08725349219,
    22.544472353933));
#141 = VECTOR('',#142,1.);
#142 = DIRECTION('',(0.281381911517,0.357355027626,0.890573749951));
#143 = ORIENTED_EDGE('',*,*,#144,.T.);
#144 = EDGE_CURVE('',#137,#137,#145,.T.);
#145 = CIRCLE('',#146,4.);
#146 = AXIS2_PLACEMENT_3D('',#147,#148,#149);
#147 = CARTESIAN_POINT('',(50.48,103.84,30.));
#148 = DIRECTION('',(0.281381911517,0.357355027626,0.890573749951));
#149 = DIRECTION('',(0.95812076618,-5.318662695188E-02,-0.281381911517)
  );
#150 = ORIENTED_EDGE('',*,*,#136,.F.);
#151 = ORIENTED_EDGE('',*,*,#152,.F.);
#152 = EDGE_CURVE('',#153,#126,#155,.T.);
#153 = VERTEX_POINT('',#154);
#154 = CARTESIAN_POINT('',(46.48,98.349870593141,25.485691736718));
#155 = CIRCLE('',#156,4.);
#156 = AXIS2_PLACEMENT_3D('',#157,#158,#159);
#157 = CARTESIAN_POINT('',(48.48,101.3,23.67));
#158 = DIRECTION('',(0.281381911517,0.357355027626,0.890573749951));
#159 = DIRECTION('',(0.95812076618,-5.318662695188E-02,-0.281381911517)
  );
#160 = ORIENTED_EDGE('',*,*,#161,.F.);
#161 = EDGE_CURVE('',#95,#153,#162,.T.);
#162 = ELLIPSE('',#163,14.215554860785,4.);
#163 = AXIS2_PLACEMENT_3D('',#164,#165,#166);
#164 = CARTESIAN_POINT('',(46.48,98.76,17.34));
#165 = DIRECTION('',(1.,0.,0.));
#166 = DIRECTION('',(0.,-0.372401592677,-0.928071685686));
#167 = ORIENTED_EDGE('',*,*,#102,.F.);
#168 = ORIENTED_EDGE('',*,*,#169,.F.);
#169 = EDGE_CURVE('',#128,#103,#170,.T.);
#170 = ELLIPSE('',#171,11.193350284083,4.);
#171 = AXIS2_PLACEMENT_3D('',#172,#173,#174);
#172 = CARTESIAN_POINT('',(46.542992125984,98.84,17.53937007874));
#173 = DIRECTION('',(0.,1.,0.));
#174 = DIRECTION('',(-0.301275551786,0.,-0.953537121404));
#175 = CYLINDRICAL_SURFACE('',#176,4.);
#176 = AXIS2_PLACEMENT_3D('',#177,#178,#179);
#177 = CARTESIAN_POINT('',(48.48,101.3,23.67));
#178 = DIRECTION('',(-0.281381911517,-0.357355027626,-0.890573749951));
#179 = DIRECTION('',(0.95812076618,-5.318662695188E-02,-0.281381911517)
  );
#180 = ADVANCED_FACE('',(#181),#199,.F.);
#181 = FACE_BOUND('',#182,.F.);
#182 = EDGE_LOOP('',(#183,#184,#185,#193));
#183 = ORIENTED_EDGE('',*,*,#152,.T.);
#184 = ORIENTED_EDGE('',*,*,#125,.T.);
#185 = ORIENTED_EDGE('',*,*,#186,.T.);
#186 = EDGE_CURVE('',#128,#187,#189,.T.);
#187 = VERTEX_POINT('',#188);
#188 = CARTESIAN_POINT('',(46.48,98.84,25.289020537125));
#189 = LINE('',#190,#191);
#190 = CARTESIAN_POINT('',(45.126641962926,98.84,25.716621812662));
#191 = VECTOR('',#192,1.);
#192 = DIRECTION('',(0.953537121404,0.,-0.301275551786));
#193 = ORIENTED_EDGE('',*,*,#194,.T.);
#194 = EDGE_CURVE('',#187,#153,#195,.T.);
#195 = LINE('',#196,#197);
#196 = CARTESIAN_POINT('',(46.48,98.736344256833,25.330613836911));
#197 = VECTOR('',#198,1.);
#198 = DIRECTION('',(0.,-0.928071685686,0.372401592677));
#199 = PLANE('',#200);
#200 = AXIS2_PLACEMENT_3D('',#201,#202,#203);
#201 = CARTESIAN_POINT('',(48.48,101.3,23.67));
#202 = DIRECTION('',(0.281381911517,0.357355027626,0.890573749951));
#203 = DIRECTION('',(0.95812076618,-5.318662695188E-02,-0.281381911517)
  );
#204 = ADVANCED_FACE('',(#205),#208,.T.);
#205 = FACE_BOUND('',#206,.F.);
#206 = EDGE_LOOP('',(#207));
#207 = ORIENTED_EDGE('',*,*,#144,.F.);
#208 = PLANE('',#209);
#209 = AXIS2_PLACEMENT_3D('',#210,#211,#212);
#210 = CARTESIAN_POINT('',(50.48,103.84,30.));
#211 = DIRECTION('',(0.281381911517,0.357355027626,0.890573749951));
#212 = DIRECTION('',(0.95812076618,-5.318662695188E-02,-0.281381911517)
  );
#213 = ADVANCED_FACE('',(#214),#234,.T.);
#214 = FACE_BOUND('',#215,.T.);
#215 = EDGE_LOOP('',(#216,#217,#218,#219,#220,#228));
#216 = ORIENTED_EDGE('',*,*,#39,.T.);
#217 = ORIENTED_EDGE('',*,*,#111,.T.);
#218 = ORIENTED_EDGE('',*,*,#169,.F.);
#219 = ORIENTED_EDGE('',*,*,#186,.T.);
#220 = ORIENTED_EDGE('',*,*,#221,.F.);
#221 = EDGE_CURVE('',#222,#187,#224,.T.);
#222 = VERTEX_POINT('',#223);
#223 = CARTESIAN_POINT('',(46.48,98.84,23.67));
#224 = LINE('',#225,#226);
#225 = CARTESIAN_POINT('',(46.48,98.84,23.67));
#226 = VECTOR('',#227,1.);
#227 = DIRECTION('',(0.,0.,1.));
#228 = ORIENTED_EDGE('',*,*,#229,.F.);
#229 = EDGE_CURVE('',#32,#222,#230,.T.);
#230 = LINE('',#231,#232);
#231 = CARTESIAN_POINT('',(40.48,98.84,23.67));
#232 = VECTOR('',#233,1.);
#233 = DIRECTION('',(1.,0.,0.));
#234 = PLANE('',#235);
#235 = AXIS2_PLACEMENT_3D('',#236,#237,#238);
#236 = CARTESIAN_POINT('',(40.48,98.84,23.67));
#237 = DIRECTION('',(0.,1.,0.));
#238 = DIRECTION('',(0.,0.,1.));
#239 = ADVANCED_FACE('',(#240),#251,.F.);
#240 = FACE_BOUND('',#241,.T.);
#241 = EDGE_LOOP('',(#242,#243,#249,#250));
#242 = ORIENTED_EDGE('',*,*,#229,.T.);
#243 = ORIENTED_EDGE('',*,*,#244,.F.);
#244 = EDGE_CURVE('',#62,#222,#245,.T.);
#245 = LINE('',#246,#247);
#246 = CARTESIAN_POINT('',(46.48,94.84,23.67));
#247 = VECTOR('',#248,1.);
#248 = DIRECTION('',(0.,1.,0.));
#249 = ORIENTED_EDGE('',*,*,#61,.F.);
#250 = ORIENTED_EDGE('',*,*,#31,.T.);
#251 = PLANE('',#252);
#252 = AXIS2_PLACEMENT_3D('',#253,#254,#255);
#253 = CARTESIAN_POINT('',(40.48,94.84,23.67));
#254 = DIRECTION('',(0.,0.,1.));
#255 = DIRECTION('',(1.,0.,0.));
#256 = ADVANCED_FACE('',(#257),#265,.T.);
#257 = FACE_BOUND('',#258,.T.);
#258 = EDGE_LOOP('',(#259,#260,#261,#262,#263,#264));
#259 = ORIENTED_EDGE('',*,*,#69,.F.);
#260 = ORIENTED_EDGE('',*,*,#244,.T.);
#261 = ORIENTED_EDGE('',*,*,#221,.T.);
#262 = ORIENTED_EDGE('',*,*,#194,.T.);
#263 = ORIENTED_EDGE('',*,*,#161,.F.);
#264 = ORIENTED_EDGE('',*,*,#94,.F.);
#265 = PLANE('',#266);
#266 = AXIS2_PLACEMENT_3D('',#267,#268,#269);
#267 = CARTESIAN_POINT('',(46.48,94.84,23.67));
#268 = DIRECTION('',(1.,0.,0.));
#269 = DIRECTION('',(0.,0.,1.));
#270 = ( GEOMETRIC_REPRESENTATION_CONTEXT(3) 
GLOBAL_UNCERTAINTY_ASSIGNED_CONTEXT((#274)) GLOBAL_UNIT_ASSIGNED_CONTEXT
((#271,#272,#273)) REPRESENTATION_CONTEXT('Context #1',
  '3D Context with UNIT and UNCERTAINTY') );
#271 = ( LENGTH_UNIT() NAMED_UNIT(*) SI_UNIT(.MILLI.,.METRE.) );
#272 = ( NAMED_UNIT(*) PLANE_ANGLE_UNIT() SI_UNIT($,.RADIAN.) );
#273 = ( NAMED_UNIT(*) SI_UNIT($,.STERADIAN.) SOLID_ANGLE_UNIT() );
#274 = UNCERTAINTY_MEASURE_WITH_UNIT(LENGTH_MEASURE(1.E-05),#271,
  'distance_accuracy_value','confusion accuracy');
#275 = PRODUCT_RELATED_PRODUCT_CATEGORY('part',$,(#7));
ENDSEC;
END-ISO-10303-21;
