ISO-10303-21;
HEADER;
FILE_DESCRIPTION(('FreeCAD Model'),'2;1');
FILE_NAME('Open CASCADE Shape Model','2026-09-26T19:04:25',('Author'),(
    ''),'Open CASCADE STEP processor 7.8','FreeCAD','Unknown');
FILE_SCHEMA(('AUTOMOTIVE_DESIGN { 1 0 10303 214 1 1 1 1 }'));
ENDSEC;
DATA;
#1 = APPLICATION_PROTOCOL_DEFINITION('international standard',
  'automotive_design',2000,#2);
#2 = APPLICATION_CONTEXT(
  'core data for automotive mechanical design processes');
#3 = SHAPE_DEFINITION_REPRESENTATION(#4,#10);
#4 = PRODUCT_DEFINITION_SHAPE('','',#5);
#5 = PRODUCT_DEFINITION('design','',#6,#9);
#6 = PRODUCT_DEFINITION_FORMATION('','',#7);
#7 = PRODUCT('PAN_BRKT_R1','PAN_BRKT_R1','',(#8));
#8 = PRODUCT_CONTEXT('',#2,'mechanical');
#9 = PRODUCT_DEFINITION_CONTEXT('part definition',#2,'design');
#10 = ADVANCED_BREP_SHAPE_REPRESENTATION('',(#11,#15),#650);
#11 = AXIS2_PLACEMENT_3D('',#12,#13,#14);
#12 = CARTESIAN_POINT('',(0.,0.,0.));
#13 = DIRECTION('',(0.,0.,1.));
#14 = DIRECTION('',(1.,0.,-0.));
#15 = MANIFOLD_SOLID_BREP('',#16);
#16 = CLOSED_SHELL('',(#17,#85,#148,#215,#239,#270,#315,#339,#374,#408,
    #450,#466,#500,#517,#549,#580,#597,#609,#636));
#17 = ADVANCED_FACE('',(#18),#80,.T.);
#18 = FACE_BOUND('',#19,.T.);
#19 = EDGE_LOOP('',(#20,#30,#38,#47,#56,#65,#74));
#20 = ORIENTED_EDGE('',*,*,#21,.F.);
#21 = EDGE_CURVE('',#22,#24,#26,.T.);
#22 = VERTEX_POINT('',#23);
#23 = CARTESIAN_POINT('',(-1.,-132.02,16.5));
#24 = VERTEX_POINT('',#25);
#25 = CARTESIAN_POINT('',(-1.,-132.02,21.67));
#26 = LINE('',#27,#28);
#27 = CARTESIAN_POINT('',(-1.,-132.02,16.5));
#28 = VECTOR('',#29,1.);
#29 = DIRECTION('',(0.,0.,1.));
#30 = ORIENTED_EDGE('',*,*,#31,.F.);
#31 = EDGE_CURVE('',#32,#22,#34,.T.);
#32 = VERTEX_POINT('',#33);
#33 = CARTESIAN_POINT('',(-14.083484861,-132.02,16.5));
#34 = LINE('',#35,#36);
#35 = CARTESIAN_POINT('',(-29.,-132.02,16.5));
#36 = VECTOR('',#37,1.);
#37 = DIRECTION('',(1.,0.,0.));
#38 = ORIENTED_EDGE('',*,*,#39,.T.);
#39 = EDGE_CURVE('',#32,#40,#42,.T.);
#40 = VERTEX_POINT('',#41);
#41 = CARTESIAN_POINT('',(-12.8,-132.02,18.5));
#42 = CIRCLE('',#43,2.2);
#43 = AXIS2_PLACEMENT_3D('',#44,#45,#46);
#44 = CARTESIAN_POINT('',(-15.,-132.02,18.5));
#45 = DIRECTION('',(0.,-1.,2.2E-16));
#46 = DIRECTION('',(1.,0.,0.));
#47 = ORIENTED_EDGE('',*,*,#48,.T.);
#48 = EDGE_CURVE('',#40,#49,#51,.T.);
#49 = VERTEX_POINT('',#50);
#50 = CARTESIAN_POINT('',(-13.30294372515,-132.02,19.9));
#51 = CIRCLE('',#52,2.2);
#52 = AXIS2_PLACEMENT_3D('',#53,#54,#55);
#53 = CARTESIAN_POINT('',(-15.,-132.02,18.5));
#54 = DIRECTION('',(0.,-1.,2.2E-16));
#55 = DIRECTION('',(1.,0.,0.));
#56 = ORIENTED_EDGE('',*,*,#57,.T.);
#57 = EDGE_CURVE('',#49,#58,#60,.T.);
#58 = VERTEX_POINT('',#59);
#59 = CARTESIAN_POINT('',(-12.8,-132.02,21.3));
#60 = CIRCLE('',#61,2.2);
#61 = AXIS2_PLACEMENT_3D('',#62,#63,#64);
#62 = CARTESIAN_POINT('',(-15.,-132.02,21.3));
#63 = DIRECTION('',(0.,-1.,2.2E-16));
#64 = DIRECTION('',(1.,0.,0.));
#65 = ORIENTED_EDGE('',*,*,#66,.T.);
#66 = EDGE_CURVE('',#58,#67,#69,.T.);
#67 = VERTEX_POINT('',#68);
#68 = CARTESIAN_POINT('',(-12.8313368173,-132.02,21.67));
#69 = CIRCLE('',#70,2.2);
#70 = AXIS2_PLACEMENT_3D('',#71,#72,#73);
#71 = CARTESIAN_POINT('',(-15.,-132.02,21.3));
#72 = DIRECTION('',(0.,-1.,2.2E-16));
#73 = DIRECTION('',(1.,0.,0.));
#74 = ORIENTED_EDGE('',*,*,#75,.T.);
#75 = EDGE_CURVE('',#67,#24,#76,.T.);
#76 = LINE('',#77,#78);
#77 = CARTESIAN_POINT('',(-29.,-132.02,21.67));
#78 = VECTOR('',#79,1.);
#79 = DIRECTION('',(1.,0.,0.));
#80 = PLANE('',#81);
#81 = AXIS2_PLACEMENT_3D('',#82,#83,#84);
#82 = CARTESIAN_POINT('',(-29.,-132.02,16.5));
#83 = DIRECTION('',(0.,1.,0.));
#84 = DIRECTION('',(0.,0.,1.));
#85 = ADVANCED_FACE('',(#86),#143,.T.);
#86 = FACE_BOUND('',#87,.T.);
#87 = EDGE_LOOP('',(#88,#98,#106,#112,#113,#121,#129,#137));
#88 = ORIENTED_EDGE('',*,*,#89,.F.);
#89 = EDGE_CURVE('',#90,#92,#94,.T.);
#90 = VERTEX_POINT('',#91);
#91 = CARTESIAN_POINT('',(-1.,-136.02,23.3));
#92 = VERTEX_POINT('',#93);
#93 = CARTESIAN_POINT('',(-1.,-132.52,23.3));
#94 = LINE('',#95,#96);
#95 = CARTESIAN_POINT('',(-1.,-136.02,23.3));
#96 = VECTOR('',#97,1.);
#97 = DIRECTION('',(0.,1.,0.));
#98 = ORIENTED_EDGE('',*,*,#99,.F.);
#99 = EDGE_CURVE('',#100,#90,#102,.T.);
#100 = VERTEX_POINT('',#101);
#101 = CARTESIAN_POINT('',(-1.,-136.02,16.5));
#102 = LINE('',#103,#104);
#103 = CARTESIAN_POINT('',(-1.,-136.02,16.5));
#104 = VECTOR('',#105,1.);
#105 = DIRECTION('',(0.,0.,1.));
#106 = ORIENTED_EDGE('',*,*,#107,.T.);
#107 = EDGE_CURVE('',#100,#22,#108,.T.);
#108 = LINE('',#109,#110);
#109 = CARTESIAN_POINT('',(-1.,-136.02,16.5));
#110 = VECTOR('',#111,1.);
#111 = DIRECTION('',(0.,1.,0.));
#112 = ORIENTED_EDGE('',*,*,#21,.T.);
#113 = ORIENTED_EDGE('',*,*,#114,.T.);
#114 = EDGE_CURVE('',#24,#115,#117,.T.);
#115 = VERTEX_POINT('',#116);
#116 = CARTESIAN_POINT('',(-1.,-92.52,21.67));
#117 = LINE('',#118,#119);
#118 = CARTESIAN_POINT('',(-1.,-132.52,21.67));
#119 = VECTOR('',#120,1.);
#120 = DIRECTION('',(0.,1.,0.));
#121 = ORIENTED_EDGE('',*,*,#122,.T.);
#122 = EDGE_CURVE('',#115,#123,#125,.T.);
#123 = VERTEX_POINT('',#124);
#124 = CARTESIAN_POINT('',(-1.,-92.52,25.67));
#125 = LINE('',#126,#127);
#126 = CARTESIAN_POINT('',(-1.,-92.52,21.67));
#127 = VECTOR('',#128,1.);
#128 = DIRECTION('',(0.,0.,1.));
#129 = ORIENTED_EDGE('',*,*,#130,.F.);
#130 = EDGE_CURVE('',#131,#123,#133,.T.);
#131 = VERTEX_POINT('',#132);
#132 = CARTESIAN_POINT('',(-1.,-132.52,25.67));
#133 = LINE('',#134,#135);
#134 = CARTESIAN_POINT('',(-1.,-132.52,25.67));
#135 = VECTOR('',#136,1.);
#136 = DIRECTION('',(0.,1.,0.));
#137 = ORIENTED_EDGE('',*,*,#138,.F.);
#138 = EDGE_CURVE('',#92,#131,#139,.T.);
#139 = LINE('',#140,#141);
#140 = CARTESIAN_POINT('',(-1.,-132.52,21.67));
#141 = VECTOR('',#142,1.);
#142 = DIRECTION('',(0.,0.,1.));
#143 = PLANE('',#144);
#144 = AXIS2_PLACEMENT_3D('',#145,#146,#147);
#145 = CARTESIAN_POINT('',(-1.,-116.1298822859,22.944882285931));
#146 = DIRECTION('',(1.,0.,0.));
#147 = DIRECTION('',(0.,0.,1.));
#148 = ADVANCED_FACE('',(#149,#199),#210,.F.);
#149 = FACE_BOUND('',#150,.F.);
#150 = EDGE_LOOP('',(#151,#161,#169,#177,#185,#191,#192,#193));
#151 = ORIENTED_EDGE('',*,*,#152,.F.);
#152 = EDGE_CURVE('',#153,#155,#157,.T.);
#153 = VERTEX_POINT('',#154);
#154 = CARTESIAN_POINT('',(-29.,-132.02,21.67));
#155 = VERTEX_POINT('',#156);
#156 = CARTESIAN_POINT('',(-29.,-92.52,21.67));
#157 = LINE('',#158,#159);
#158 = CARTESIAN_POINT('',(-29.,-132.52,21.67));
#159 = VECTOR('',#160,1.);
#160 = DIRECTION('',(0.,1.,0.));
#161 = ORIENTED_EDGE('',*,*,#162,.T.);
#162 = EDGE_CURVE('',#153,#163,#165,.T.);
#163 = VERTEX_POINT('',#164);
#164 = CARTESIAN_POINT('',(-17.1686631827,-132.02,21.67));
#165 = LINE('',#166,#167);
#166 = CARTESIAN_POINT('',(-29.,-132.02,21.67));
#167 = VECTOR('',#168,1.);
#168 = DIRECTION('',(1.,0.,0.));
#169 = ORIENTED_EDGE('',*,*,#170,.F.);
#170 = EDGE_CURVE('',#171,#163,#173,.T.);
#171 = VERTEX_POINT('',#172);
#172 = CARTESIAN_POINT('',(-17.1686631827,-131.02,21.67));
#173 = LINE('',#174,#175);
#174 = CARTESIAN_POINT('',(-17.1686631827,-141.02,21.67));
#175 = VECTOR('',#176,1.);
#176 = DIRECTION('',(0.,-1.,2.2E-16));
#177 = ORIENTED_EDGE('',*,*,#178,.F.);
#178 = EDGE_CURVE('',#179,#171,#181,.T.);
#179 = VERTEX_POINT('',#180);
#180 = CARTESIAN_POINT('',(-12.8313368173,-131.02,21.67));
#181 = LINE('',#182,#183);
#182 = CARTESIAN_POINT('',(-22.,-131.02,21.67));
#183 = VECTOR('',#184,1.);
#184 = DIRECTION('',(-1.,0.,0.));
#185 = ORIENTED_EDGE('',*,*,#186,.T.);
#186 = EDGE_CURVE('',#179,#67,#187,.T.);
#187 = LINE('',#188,#189);
#188 = CARTESIAN_POINT('',(-12.8313368173,-141.02,21.67));
#189 = VECTOR('',#190,1.);
#190 = DIRECTION('',(0.,-1.,2.2E-16));
#191 = ORIENTED_EDGE('',*,*,#75,.T.);
#192 = ORIENTED_EDGE('',*,*,#114,.T.);
#193 = ORIENTED_EDGE('',*,*,#194,.F.);
#194 = EDGE_CURVE('',#155,#115,#195,.T.);
#195 = LINE('',#196,#197);
#196 = CARTESIAN_POINT('',(-29.,-92.52,21.67));
#197 = VECTOR('',#198,1.);
#198 = DIRECTION('',(1.,0.,0.));
#199 = FACE_BOUND('',#200,.F.);
#200 = EDGE_LOOP('',(#201));
#201 = ORIENTED_EDGE('',*,*,#202,.T.);
#202 = EDGE_CURVE('',#203,#203,#205,.T.);
#203 = VERTEX_POINT('',#204);
#204 = CARTESIAN_POINT('',(-12.8,-118.02,21.67));
#205 = CIRCLE('',#206,2.2);
#206 = AXIS2_PLACEMENT_3D('',#207,#208,#209);
#207 = CARTESIAN_POINT('',(-15.,-118.02,21.67));
#208 = DIRECTION('',(0.,0.,-1.));
#209 = DIRECTION('',(1.,0.,0.));
#210 = PLANE('',#211);
#211 = AXIS2_PLACEMENT_3D('',#212,#213,#214);
#212 = CARTESIAN_POINT('',(-29.,-132.52,21.67));
#213 = DIRECTION('',(0.,0.,1.));
#214 = DIRECTION('',(1.,0.,0.));
#215 = ADVANCED_FACE('',(#216),#234,.F.);
#216 = FACE_BOUND('',#217,.F.);
#217 = EDGE_LOOP('',(#218,#219,#227,#233));
#218 = ORIENTED_EDGE('',*,*,#31,.F.);
#219 = ORIENTED_EDGE('',*,*,#220,.T.);
#220 = EDGE_CURVE('',#32,#221,#223,.T.);
#221 = VERTEX_POINT('',#222);
#222 = CARTESIAN_POINT('',(-14.083484861,-136.02,16.5));
#223 = LINE('',#224,#225);
#224 = CARTESIAN_POINT('',(-14.083484861,-141.02,16.5));
#225 = VECTOR('',#226,1.);
#226 = DIRECTION('',(0.,-1.,2.2E-16));
#227 = ORIENTED_EDGE('',*,*,#228,.T.);
#228 = EDGE_CURVE('',#221,#100,#229,.T.);
#229 = LINE('',#230,#231);
#230 = CARTESIAN_POINT('',(-29.,-136.02,16.5));
#231 = VECTOR('',#232,1.);
#232 = DIRECTION('',(1.,0.,0.));
#233 = ORIENTED_EDGE('',*,*,#107,.T.);
#234 = PLANE('',#235);
#235 = AXIS2_PLACEMENT_3D('',#236,#237,#238);
#236 = CARTESIAN_POINT('',(-29.,-136.02,16.5));
#237 = DIRECTION('',(0.,0.,1.));
#238 = DIRECTION('',(1.,0.,0.));
#239 = ADVANCED_FACE('',(#240),#265,.T.);
#240 = FACE_BOUND('',#241,.T.);
#241 = EDGE_LOOP('',(#242,#252,#258,#259));
#242 = ORIENTED_EDGE('',*,*,#243,.T.);
#243 = EDGE_CURVE('',#244,#246,#248,.T.);
#244 = VERTEX_POINT('',#245);
#245 = CARTESIAN_POINT('',(-14.083484861,-132.52,23.3));
#246 = VERTEX_POINT('',#247);
#247 = CARTESIAN_POINT('',(-14.083484861,-136.02,23.3));
#248 = LINE('',#249,#250);
#249 = CARTESIAN_POINT('',(-14.083484861,-141.02,23.3));
#250 = VECTOR('',#251,1.);
#251 = DIRECTION('',(0.,-1.,2.2E-16));
#252 = ORIENTED_EDGE('',*,*,#253,.T.);
#253 = EDGE_CURVE('',#246,#90,#254,.T.);
#254 = LINE('',#255,#256);
#255 = CARTESIAN_POINT('',(-29.,-136.02,23.3));
#256 = VECTOR('',#257,1.);
#257 = DIRECTION('',(1.,0.,0.));
#258 = ORIENTED_EDGE('',*,*,#89,.T.);
#259 = ORIENTED_EDGE('',*,*,#260,.T.);
#260 = EDGE_CURVE('',#92,#244,#261,.T.);
#261 = LINE('',#262,#263);
#262 = CARTESIAN_POINT('',(-29.,-132.52,23.3));
#263 = VECTOR('',#264,1.);
#264 = DIRECTION('',(-1.,0.,0.));
#265 = PLANE('',#266);
#266 = AXIS2_PLACEMENT_3D('',#267,#268,#269);
#267 = CARTESIAN_POINT('',(-29.,-136.02,23.3));
#268 = DIRECTION('',(0.,0.,1.));
#269 = DIRECTION('',(1.,0.,0.));
#270 = ADVANCED_FACE('',(#271),#310,.F.);
#271 = FACE_BOUND('',#272,.F.);
#272 = EDGE_LOOP('',(#273,#274,#283,#292,#301,#308,#309));
#273 = ORIENTED_EDGE('',*,*,#228,.F.);
#274 = ORIENTED_EDGE('',*,*,#275,.T.);
#275 = EDGE_CURVE('',#221,#276,#278,.T.);
#276 = VERTEX_POINT('',#277);
#277 = CARTESIAN_POINT('',(-12.8,-136.02,18.5));
#278 = CIRCLE('',#279,2.2);
#279 = AXIS2_PLACEMENT_3D('',#280,#281,#282);
#280 = CARTESIAN_POINT('',(-15.,-136.02,18.5));
#281 = DIRECTION('',(0.,-1.,2.2E-16));
#282 = DIRECTION('',(1.,0.,0.));
#283 = ORIENTED_EDGE('',*,*,#284,.T.);
#284 = EDGE_CURVE('',#276,#285,#287,.T.);
#285 = VERTEX_POINT('',#286);
#286 = CARTESIAN_POINT('',(-13.30294372515,-136.02,19.9));
#287 = CIRCLE('',#288,2.2);
#288 = AXIS2_PLACEMENT_3D('',#289,#290,#291);
#289 = CARTESIAN_POINT('',(-15.,-136.02,18.5));
#290 = DIRECTION('',(0.,-1.,2.2E-16));
#291 = DIRECTION('',(1.,0.,0.));
#292 = ORIENTED_EDGE('',*,*,#293,.T.);
#293 = EDGE_CURVE('',#285,#294,#296,.T.);
#294 = VERTEX_POINT('',#295);
#295 = CARTESIAN_POINT('',(-12.8,-136.02,21.3));
#296 = CIRCLE('',#297,2.2);
#297 = AXIS2_PLACEMENT_3D('',#298,#299,#300);
#298 = CARTESIAN_POINT('',(-15.,-136.02,21.3));
#299 = DIRECTION('',(0.,-1.,2.2E-16));
#300 = DIRECTION('',(1.,0.,0.));
#301 = ORIENTED_EDGE('',*,*,#302,.T.);
#302 = EDGE_CURVE('',#294,#246,#303,.T.);
#303 = CIRCLE('',#304,2.2);
#304 = AXIS2_PLACEMENT_3D('',#305,#306,#307);
#305 = CARTESIAN_POINT('',(-15.,-136.02,21.3));
#306 = DIRECTION('',(0.,-1.,2.2E-16));
#307 = DIRECTION('',(1.,0.,0.));
#308 = ORIENTED_EDGE('',*,*,#253,.T.);
#309 = ORIENTED_EDGE('',*,*,#99,.F.);
#310 = PLANE('',#311);
#311 = AXIS2_PLACEMENT_3D('',#312,#313,#314);
#312 = CARTESIAN_POINT('',(-29.,-136.02,16.5));
#313 = DIRECTION('',(0.,1.,0.));
#314 = DIRECTION('',(0.,0.,1.));
#315 = ADVANCED_FACE('',(#316),#334,.T.);
#316 = FACE_BOUND('',#317,.T.);
#317 = EDGE_LOOP('',(#318,#319,#327,#333));
#318 = ORIENTED_EDGE('',*,*,#194,.F.);
#319 = ORIENTED_EDGE('',*,*,#320,.T.);
#320 = EDGE_CURVE('',#155,#321,#323,.T.);
#321 = VERTEX_POINT('',#322);
#322 = CARTESIAN_POINT('',(-29.,-92.52,25.67));
#323 = LINE('',#324,#325);
#324 = CARTESIAN_POINT('',(-29.,-92.52,21.67));
#325 = VECTOR('',#326,1.);
#326 = DIRECTION('',(0.,0.,1.));
#327 = ORIENTED_EDGE('',*,*,#328,.T.);
#328 = EDGE_CURVE('',#321,#123,#329,.T.);
#329 = LINE('',#330,#331);
#330 = CARTESIAN_POINT('',(-29.,-92.52,25.67));
#331 = VECTOR('',#332,1.);
#332 = DIRECTION('',(1.,0.,0.));
#333 = ORIENTED_EDGE('',*,*,#122,.F.);
#334 = PLANE('',#335);
#335 = AXIS2_PLACEMENT_3D('',#336,#337,#338);
#336 = CARTESIAN_POINT('',(-29.,-92.52,21.67));
#337 = DIRECTION('',(0.,1.,0.));
#338 = DIRECTION('',(0.,0.,1.));
#339 = ADVANCED_FACE('',(#340,#358),#369,.T.);
#340 = FACE_BOUND('',#341,.T.);
#341 = EDGE_LOOP('',(#342,#350,#356,#357));
#342 = ORIENTED_EDGE('',*,*,#343,.F.);
#343 = EDGE_CURVE('',#344,#321,#346,.T.);
#344 = VERTEX_POINT('',#345);
#345 = CARTESIAN_POINT('',(-29.,-132.52,25.67));
#346 = LINE('',#347,#348);
#347 = CARTESIAN_POINT('',(-29.,-132.52,25.67));
#348 = VECTOR('',#349,1.);
#349 = DIRECTION('',(0.,1.,0.));
#350 = ORIENTED_EDGE('',*,*,#351,.T.);
#351 = EDGE_CURVE('',#344,#131,#352,.T.);
#352 = LINE('',#353,#354);
#353 = CARTESIAN_POINT('',(-29.,-132.52,25.67));
#354 = VECTOR('',#355,1.);
#355 = DIRECTION('',(1.,0.,0.));
#356 = ORIENTED_EDGE('',*,*,#130,.T.);
#357 = ORIENTED_EDGE('',*,*,#328,.F.);
#358 = FACE_BOUND('',#359,.T.);
#359 = EDGE_LOOP('',(#360));
#360 = ORIENTED_EDGE('',*,*,#361,.T.);
#361 = EDGE_CURVE('',#362,#362,#364,.T.);
#362 = VERTEX_POINT('',#363);
#363 = CARTESIAN_POINT('',(-12.8,-118.02,25.67));
#364 = CIRCLE('',#365,2.2);
#365 = AXIS2_PLACEMENT_3D('',#366,#367,#368);
#366 = CARTESIAN_POINT('',(-15.,-118.02,25.67));
#367 = DIRECTION('',(0.,0.,-1.));
#368 = DIRECTION('',(1.,0.,0.));
#369 = PLANE('',#370);
#370 = AXIS2_PLACEMENT_3D('',#371,#372,#373);
#371 = CARTESIAN_POINT('',(-29.,-132.52,25.67));
#372 = DIRECTION('',(0.,0.,1.));
#373 = DIRECTION('',(1.,0.,0.));
#374 = ADVANCED_FACE('',(#375),#403,.F.);
#375 = FACE_BOUND('',#376,.F.);
#376 = EDGE_LOOP('',(#377,#378,#379,#388,#396,#402));
#377 = ORIENTED_EDGE('',*,*,#138,.F.);
#378 = ORIENTED_EDGE('',*,*,#260,.T.);
#379 = ORIENTED_EDGE('',*,*,#380,.T.);
#380 = EDGE_CURVE('',#244,#381,#383,.T.);
#381 = VERTEX_POINT('',#382);
#382 = CARTESIAN_POINT('',(-15.91651513899,-132.52,23.3));
#383 = CIRCLE('',#384,2.2);
#384 = AXIS2_PLACEMENT_3D('',#385,#386,#387);
#385 = CARTESIAN_POINT('',(-15.,-132.52,21.3));
#386 = DIRECTION('',(0.,-1.,2.2E-16));
#387 = DIRECTION('',(1.,0.,0.));
#388 = ORIENTED_EDGE('',*,*,#389,.T.);
#389 = EDGE_CURVE('',#381,#390,#392,.T.);
#390 = VERTEX_POINT('',#391);
#391 = CARTESIAN_POINT('',(-29.,-132.52,23.3));
#392 = LINE('',#393,#394);
#393 = CARTESIAN_POINT('',(-29.,-132.52,23.3));
#394 = VECTOR('',#395,1.);
#395 = DIRECTION('',(-1.,0.,0.));
#396 = ORIENTED_EDGE('',*,*,#397,.T.);
#397 = EDGE_CURVE('',#390,#344,#398,.T.);
#398 = LINE('',#399,#400);
#399 = CARTESIAN_POINT('',(-29.,-132.52,21.67));
#400 = VECTOR('',#401,1.);
#401 = DIRECTION('',(0.,0.,1.));
#402 = ORIENTED_EDGE('',*,*,#351,.T.);
#403 = PLANE('',#404);
#404 = AXIS2_PLACEMENT_3D('',#405,#406,#407);
#405 = CARTESIAN_POINT('',(-29.,-132.52,21.67));
#406 = DIRECTION('',(0.,1.,0.));
#407 = DIRECTION('',(0.,0.,1.));
#408 = ADVANCED_FACE('',(#409),#445,.T.);
#409 = FACE_BOUND('',#410,.T.);
#410 = EDGE_LOOP('',(#411,#419,#420,#421,#422,#423,#431,#439));
#411 = ORIENTED_EDGE('',*,*,#412,.T.);
#412 = EDGE_CURVE('',#413,#390,#415,.T.);
#413 = VERTEX_POINT('',#414);
#414 = CARTESIAN_POINT('',(-29.,-136.02,23.3));
#415 = LINE('',#416,#417);
#416 = CARTESIAN_POINT('',(-29.,-136.02,23.3));
#417 = VECTOR('',#418,1.);
#418 = DIRECTION('',(0.,1.,0.));
#419 = ORIENTED_EDGE('',*,*,#397,.T.);
#420 = ORIENTED_EDGE('',*,*,#343,.T.);
#421 = ORIENTED_EDGE('',*,*,#320,.F.);
#422 = ORIENTED_EDGE('',*,*,#152,.F.);
#423 = ORIENTED_EDGE('',*,*,#424,.F.);
#424 = EDGE_CURVE('',#425,#153,#427,.T.);
#425 = VERTEX_POINT('',#426);
#426 = CARTESIAN_POINT('',(-29.,-132.02,16.5));
#427 = LINE('',#428,#429);
#428 = CARTESIAN_POINT('',(-29.,-132.02,16.5));
#429 = VECTOR('',#430,1.);
#430 = DIRECTION('',(0.,0.,1.));
#431 = ORIENTED_EDGE('',*,*,#432,.F.);
#432 = EDGE_CURVE('',#433,#425,#435,.T.);
#433 = VERTEX_POINT('',#434);
#434 = CARTESIAN_POINT('',(-29.,-136.02,16.5));
#435 = LINE('',#436,#437);
#436 = CARTESIAN_POINT('',(-29.,-136.02,16.5));
#437 = VECTOR('',#438,1.);
#438 = DIRECTION('',(0.,1.,0.));
#439 = ORIENTED_EDGE('',*,*,#440,.T.);
#440 = EDGE_CURVE('',#433,#413,#441,.T.);
#441 = LINE('',#442,#443);
#442 = CARTESIAN_POINT('',(-29.,-136.02,16.5));
#443 = VECTOR('',#444,1.);
#444 = DIRECTION('',(0.,0.,1.));
#445 = PLANE('',#446);
#446 = AXIS2_PLACEMENT_3D('',#447,#448,#449);
#447 = CARTESIAN_POINT('',(-29.,-116.1298822859,22.944882285931));
#448 = DIRECTION('',(-1.,-0.,-0.));
#449 = DIRECTION('',(0.,0.,-1.));
#450 = ADVANCED_FACE('',(#451),#461,.F.);
#451 = FACE_BOUND('',#452,.F.);
#452 = EDGE_LOOP('',(#453,#454));
#453 = ORIENTED_EDGE('',*,*,#178,.T.);
#454 = ORIENTED_EDGE('',*,*,#455,.T.);
#455 = EDGE_CURVE('',#171,#179,#456,.T.);
#456 = CIRCLE('',#457,2.2);
#457 = AXIS2_PLACEMENT_3D('',#458,#459,#460);
#458 = CARTESIAN_POINT('',(-15.,-131.02,21.3));
#459 = DIRECTION('',(-0.,1.,0.));
#460 = DIRECTION('',(1.,0.,0.));
#461 = PLANE('',#462);
#462 = AXIS2_PLACEMENT_3D('',#463,#464,#465);
#463 = CARTESIAN_POINT('',(-15.,-131.02,21.3));
#464 = DIRECTION('',(0.,1.,0.));
#465 = DIRECTION('',(1.,0.,0.));
#466 = ADVANCED_FACE('',(#467),#495,.T.);
#467 = FACE_BOUND('',#468,.T.);
#468 = EDGE_LOOP('',(#469,#480,#486,#487,#488));
#469 = ORIENTED_EDGE('',*,*,#470,.T.);
#470 = EDGE_CURVE('',#471,#473,#475,.T.);
#471 = VERTEX_POINT('',#472);
#472 = CARTESIAN_POINT('',(-16.69705627484,-132.02,19.9));
#473 = VERTEX_POINT('',#474);
#474 = CARTESIAN_POINT('',(-15.91651513899,-132.02,16.5));
#475 = CIRCLE('',#476,2.2);
#476 = AXIS2_PLACEMENT_3D('',#477,#478,#479);
#477 = CARTESIAN_POINT('',(-15.,-132.02,18.5));
#478 = DIRECTION('',(0.,-1.,2.2E-16));
#479 = DIRECTION('',(1.,0.,0.));
#480 = ORIENTED_EDGE('',*,*,#481,.F.);
#481 = EDGE_CURVE('',#425,#473,#482,.T.);
#482 = LINE('',#483,#484);
#483 = CARTESIAN_POINT('',(-29.,-132.02,16.5));
#484 = VECTOR('',#485,1.);
#485 = DIRECTION('',(1.,0.,0.));
#486 = ORIENTED_EDGE('',*,*,#424,.T.);
#487 = ORIENTED_EDGE('',*,*,#162,.T.);
#488 = ORIENTED_EDGE('',*,*,#489,.T.);
#489 = EDGE_CURVE('',#163,#471,#490,.T.);
#490 = CIRCLE('',#491,2.2);
#491 = AXIS2_PLACEMENT_3D('',#492,#493,#494);
#492 = CARTESIAN_POINT('',(-15.,-132.02,21.3));
#493 = DIRECTION('',(0.,-1.,2.2E-16));
#494 = DIRECTION('',(1.,0.,0.));
#495 = PLANE('',#496);
#496 = AXIS2_PLACEMENT_3D('',#497,#498,#499);
#497 = CARTESIAN_POINT('',(-29.,-132.02,16.5));
#498 = DIRECTION('',(0.,1.,0.));
#499 = DIRECTION('',(0.,0.,1.));
#500 = ADVANCED_FACE('',(#501),#512,.F.);
#501 = FACE_BOUND('',#502,.T.);
#502 = EDGE_LOOP('',(#503,#504,#510,#511));
#503 = ORIENTED_EDGE('',*,*,#202,.T.);
#504 = ORIENTED_EDGE('',*,*,#505,.T.);
#505 = EDGE_CURVE('',#203,#362,#506,.T.);
#506 = LINE('',#507,#508);
#507 = CARTESIAN_POINT('',(-12.8,-118.02,19.67));
#508 = VECTOR('',#509,1.);
#509 = DIRECTION('',(0.,0.,1.));
#510 = ORIENTED_EDGE('',*,*,#361,.F.);
#511 = ORIENTED_EDGE('',*,*,#505,.F.);
#512 = CYLINDRICAL_SURFACE('',#513,2.2);
#513 = AXIS2_PLACEMENT_3D('',#514,#515,#516);
#514 = CARTESIAN_POINT('',(-15.,-118.02,19.67));
#515 = DIRECTION('',(-0.,-0.,-1.));
#516 = DIRECTION('',(1.,0.,0.));
#517 = ADVANCED_FACE('',(#518),#544,.F.);
#518 = FACE_BOUND('',#519,.T.);
#519 = EDGE_LOOP('',(#520,#528,#537,#543));
#520 = ORIENTED_EDGE('',*,*,#521,.T.);
#521 = EDGE_CURVE('',#471,#522,#524,.T.);
#522 = VERTEX_POINT('',#523);
#523 = CARTESIAN_POINT('',(-16.69705627484,-136.02,19.9));
#524 = LINE('',#525,#526);
#525 = CARTESIAN_POINT('',(-16.69705627484,-141.02,19.9));
#526 = VECTOR('',#527,1.);
#527 = DIRECTION('',(0.,-1.,2.2E-16));
#528 = ORIENTED_EDGE('',*,*,#529,.T.);
#529 = EDGE_CURVE('',#522,#530,#532,.T.);
#530 = VERTEX_POINT('',#531);
#531 = CARTESIAN_POINT('',(-15.91651513899,-136.02,16.5));
#532 = CIRCLE('',#533,2.2);
#533 = AXIS2_PLACEMENT_3D('',#534,#535,#536);
#534 = CARTESIAN_POINT('',(-15.,-136.02,18.5));
#535 = DIRECTION('',(0.,-1.,2.2E-16));
#536 = DIRECTION('',(1.,0.,0.));
#537 = ORIENTED_EDGE('',*,*,#538,.F.);
#538 = EDGE_CURVE('',#473,#530,#539,.T.);
#539 = LINE('',#540,#541);
#540 = CARTESIAN_POINT('',(-15.91651513899,-141.02,16.5));
#541 = VECTOR('',#542,1.);
#542 = DIRECTION('',(0.,-1.,2.2E-16));
#543 = ORIENTED_EDGE('',*,*,#470,.F.);
#544 = CYLINDRICAL_SURFACE('',#545,2.2);
#545 = AXIS2_PLACEMENT_3D('',#546,#547,#548);
#546 = CARTESIAN_POINT('',(-15.,-141.02,18.5));
#547 = DIRECTION('',(-0.,-1.,0.));
#548 = DIRECTION('',(1.,0.,0.));
#549 = ADVANCED_FACE('',(#550),#575,.F.);
#550 = FACE_BOUND('',#551,.F.);
#551 = EDGE_LOOP('',(#552,#558,#559,#567,#574));
#552 = ORIENTED_EDGE('',*,*,#553,.F.);
#553 = EDGE_CURVE('',#433,#530,#554,.T.);
#554 = LINE('',#555,#556);
#555 = CARTESIAN_POINT('',(-29.,-136.02,16.5));
#556 = VECTOR('',#557,1.);
#557 = DIRECTION('',(1.,0.,0.));
#558 = ORIENTED_EDGE('',*,*,#440,.T.);
#559 = ORIENTED_EDGE('',*,*,#560,.T.);
#560 = EDGE_CURVE('',#413,#561,#563,.T.);
#561 = VERTEX_POINT('',#562);
#562 = CARTESIAN_POINT('',(-15.91651513899,-136.02,23.3));
#563 = LINE('',#564,#565);
#564 = CARTESIAN_POINT('',(-29.,-136.02,23.3));
#565 = VECTOR('',#566,1.);
#566 = DIRECTION('',(1.,0.,0.));
#567 = ORIENTED_EDGE('',*,*,#568,.T.);
#568 = EDGE_CURVE('',#561,#522,#569,.T.);
#569 = CIRCLE('',#570,2.2);
#570 = AXIS2_PLACEMENT_3D('',#571,#572,#573);
#571 = CARTESIAN_POINT('',(-15.,-136.02,21.3));
#572 = DIRECTION('',(0.,-1.,2.2E-16));
#573 = DIRECTION('',(1.,0.,0.));
#574 = ORIENTED_EDGE('',*,*,#529,.T.);
#575 = PLANE('',#576);
#576 = AXIS2_PLACEMENT_3D('',#577,#578,#579);
#577 = CARTESIAN_POINT('',(-29.,-136.02,16.5));
#578 = DIRECTION('',(0.,1.,0.));
#579 = DIRECTION('',(0.,0.,1.));
#580 = ADVANCED_FACE('',(#581),#592,.T.);
#581 = FACE_BOUND('',#582,.T.);
#582 = EDGE_LOOP('',(#583,#584,#585,#591));
#583 = ORIENTED_EDGE('',*,*,#412,.F.);
#584 = ORIENTED_EDGE('',*,*,#560,.T.);
#585 = ORIENTED_EDGE('',*,*,#586,.F.);
#586 = EDGE_CURVE('',#381,#561,#587,.T.);
#587 = LINE('',#588,#589);
#588 = CARTESIAN_POINT('',(-15.91651513899,-141.02,23.3));
#589 = VECTOR('',#590,1.);
#590 = DIRECTION('',(0.,-1.,2.2E-16));
#591 = ORIENTED_EDGE('',*,*,#389,.T.);
#592 = PLANE('',#593);
#593 = AXIS2_PLACEMENT_3D('',#594,#595,#596);
#594 = CARTESIAN_POINT('',(-29.,-136.02,23.3));
#595 = DIRECTION('',(0.,0.,1.));
#596 = DIRECTION('',(1.,0.,0.));
#597 = ADVANCED_FACE('',(#598),#604,.F.);
#598 = FACE_BOUND('',#599,.F.);
#599 = EDGE_LOOP('',(#600,#601,#602,#603));
#600 = ORIENTED_EDGE('',*,*,#481,.F.);
#601 = ORIENTED_EDGE('',*,*,#432,.F.);
#602 = ORIENTED_EDGE('',*,*,#553,.T.);
#603 = ORIENTED_EDGE('',*,*,#538,.F.);
#604 = PLANE('',#605);
#605 = AXIS2_PLACEMENT_3D('',#606,#607,#608);
#606 = CARTESIAN_POINT('',(-29.,-136.02,16.5));
#607 = DIRECTION('',(0.,0.,1.));
#608 = DIRECTION('',(1.,0.,0.));
#609 = ADVANCED_FACE('',(#610),#631,.F.);
#610 = FACE_BOUND('',#611,.T.);
#611 = EDGE_LOOP('',(#612,#613,#619,#620,#621,#622,#623,#624,#625,#626,
    #627,#628,#629,#630));
#612 = ORIENTED_EDGE('',*,*,#57,.F.);
#613 = ORIENTED_EDGE('',*,*,#614,.T.);
#614 = EDGE_CURVE('',#49,#285,#615,.T.);
#615 = LINE('',#616,#617);
#616 = CARTESIAN_POINT('',(-13.30294372515,-141.02,19.9));
#617 = VECTOR('',#618,1.);
#618 = DIRECTION('',(0.,-1.,2.2E-16));
#619 = ORIENTED_EDGE('',*,*,#293,.T.);
#620 = ORIENTED_EDGE('',*,*,#302,.T.);
#621 = ORIENTED_EDGE('',*,*,#243,.F.);
#622 = ORIENTED_EDGE('',*,*,#380,.T.);
#623 = ORIENTED_EDGE('',*,*,#586,.T.);
#624 = ORIENTED_EDGE('',*,*,#568,.T.);
#625 = ORIENTED_EDGE('',*,*,#521,.F.);
#626 = ORIENTED_EDGE('',*,*,#489,.F.);
#627 = ORIENTED_EDGE('',*,*,#170,.F.);
#628 = ORIENTED_EDGE('',*,*,#455,.T.);
#629 = ORIENTED_EDGE('',*,*,#186,.T.);
#630 = ORIENTED_EDGE('',*,*,#66,.F.);
#631 = CYLINDRICAL_SURFACE('',#632,2.2);
#632 = AXIS2_PLACEMENT_3D('',#633,#634,#635);
#633 = CARTESIAN_POINT('',(-15.,-141.02,21.3));
#634 = DIRECTION('',(0.,-1.,2.2E-16));
#635 = DIRECTION('',(1.,0.,0.));
#636 = ADVANCED_FACE('',(#637),#645,.F.);
#637 = FACE_BOUND('',#638,.T.);
#638 = EDGE_LOOP('',(#639,#640,#641,#642,#643,#644));
#639 = ORIENTED_EDGE('',*,*,#39,.F.);
#640 = ORIENTED_EDGE('',*,*,#220,.T.);
#641 = ORIENTED_EDGE('',*,*,#275,.T.);
#642 = ORIENTED_EDGE('',*,*,#284,.T.);
#643 = ORIENTED_EDGE('',*,*,#614,.F.);
#644 = ORIENTED_EDGE('',*,*,#48,.F.);
#645 = CYLINDRICAL_SURFACE('',#646,2.2);
#646 = AXIS2_PLACEMENT_3D('',#647,#648,#649);
#647 = CARTESIAN_POINT('',(-15.,-141.02,18.5));
#648 = DIRECTION('',(0.,-1.,2.2E-16));
#649 = DIRECTION('',(1.,0.,0.));
#650 = ( GEOMETRIC_REPRESENTATION_CONTEXT(3) 
GLOBAL_UNCERTAINTY_ASSIGNED_CONTEXT((#654)) GLOBAL_UNIT_ASSIGNED_CONTEXT
((#651,#652,#653)) REPRESENTATION_CONTEXT('Context #1',
  '3D Context with UNIT and UNCERTAINTY') );
#651 = ( LENGTH_UNIT() NAMED_UNIT(*) SI_UNIT(.MILLI.,.METRE.) );
#652 = ( NAMED_UNIT(*) PLANE_ANGLE_UNIT() SI_UNIT($,.RADIAN.) );
#653 = ( NAMED_UNIT(*) SI_UNIT($,.STERADIAN.) SOLID_ANGLE_UNIT() );
#654 = UNCERTAINTY_MEASURE_WITH_UNIT(LENGTH_MEASURE(5.E-06),#651,
  'distance_accuracy_value','confusion accuracy');
#655 = PRODUCT_RELATED_PRODUCT_CATEGORY('part',$,(#7));
ENDSEC;
END-ISO-10303-21;
