ISO-10303-21;
HEADER;
FILE_DESCRIPTION(('FreeCAD Model'),'2;1');
FILE_NAME('Open CASCADE Shape Model','2026-09-26T13:53:16',('FreeCAD'),(
    'FreeCAD'),'Open CASCADE STEP processor 7.8','FreeCAD','Unknown');
FILE_SCHEMA(('AUTOMOTIVE_DESIGN { 1 0 10303 214 1 1 1 1 }'));
ENDSEC;
DATA;
#1 = APPLICATION_PROTOCOL_DEFINITION('international standard',
  'automotive_design',2000,#2);
#2 = APPLICATION_CONTEXT(
  'core data for automotive mechanical design processes');
#3 = SHAPE_DEFINITION_REPRESENTATION(#4,#10);
#4 = PRODUCT_DEFINITION_SHAPE('','',#5);
#5 = PRODUCT_DEFINITION('design','',#6,#9);
#6 = PRODUCT_DEFINITION_FORMATION('','',#7);
#7 = PRODUCT('Open CASCADE STEP translator 7.8 94',
  'Open CASCADE STEP translator 7.8 94','',(#8));
#8 = PRODUCT_CONTEXT('',#2,'mechanical');
#9 = PRODUCT_DEFINITION_CONTEXT('part definition',#2,'design');
#10 = ADVANCED_BREP_SHAPE_REPRESENTATION('',(#11,#15),#650);
#11 = AXIS2_PLACEMENT_3D('',#12,#13,#14);
#12 = CARTESIAN_POINT('',(0.,0.,0.));
#13 = DIRECTION('',(0.,0.,1.));
#14 = DIRECTION('',(1.,0.,-0.));
#15 = MANIFOLD_SOLID_BREP('',#16);
#16 = CLOSED_SHELL('',(#17,#85,#116,#156,#219,#253,#285,#326,#393,#417,
    #445,#462,#479,#495,#554,#575,#592,#609,#636));
#17 = ADVANCED_FACE('',(#18),#80,.T.);
#18 = FACE_BOUND('',#19,.T.);
#19 = EDGE_LOOP('',(#20,#30,#39,#48,#57,#66,#74));
#20 = ORIENTED_EDGE('',*,*,#21,.F.);
#21 = EDGE_CURVE('',#22,#24,#26,.T.);
#22 = VERTEX_POINT('',#23);
#23 = CARTESIAN_POINT('',(-69.083484861,136.02,16.5));
#24 = VERTEX_POINT('',#25);
#25 = CARTESIAN_POINT('',(-56.,136.02,16.5));
#26 = LINE('',#27,#28);
#27 = CARTESIAN_POINT('',(-84.,136.02,16.5));
#28 = VECTOR('',#29,1.);
#29 = DIRECTION('',(1.,0.,0.));
#30 = ORIENTED_EDGE('',*,*,#31,.T.);
#31 = EDGE_CURVE('',#22,#32,#34,.T.);
#32 = VERTEX_POINT('',#33);
#33 = CARTESIAN_POINT('',(-67.8,136.02,18.5));
#34 = CIRCLE('',#35,2.2);
#35 = AXIS2_PLACEMENT_3D('',#36,#37,#38);
#36 = CARTESIAN_POINT('',(-70.,136.02,18.5));
#37 = DIRECTION('',(0.,-1.,2.2E-16));
#38 = DIRECTION('',(1.,0.,0.));
#39 = ORIENTED_EDGE('',*,*,#40,.T.);
#40 = EDGE_CURVE('',#32,#41,#43,.T.);
#41 = VERTEX_POINT('',#42);
#42 = CARTESIAN_POINT('',(-68.30294372515,136.02,19.9));
#43 = CIRCLE('',#44,2.2);
#44 = AXIS2_PLACEMENT_3D('',#45,#46,#47);
#45 = CARTESIAN_POINT('',(-70.,136.02,18.5));
#46 = DIRECTION('',(0.,-1.,2.2E-16));
#47 = DIRECTION('',(1.,0.,0.));
#48 = ORIENTED_EDGE('',*,*,#49,.T.);
#49 = EDGE_CURVE('',#41,#50,#52,.T.);
#50 = VERTEX_POINT('',#51);
#51 = CARTESIAN_POINT('',(-67.8,136.02,21.3));
#52 = CIRCLE('',#53,2.2);
#53 = AXIS2_PLACEMENT_3D('',#54,#55,#56);
#54 = CARTESIAN_POINT('',(-70.,136.02,21.3));
#55 = DIRECTION('',(0.,-1.,2.2E-16));
#56 = DIRECTION('',(1.,0.,0.));
#57 = ORIENTED_EDGE('',*,*,#58,.T.);
#58 = EDGE_CURVE('',#50,#59,#61,.T.);
#59 = VERTEX_POINT('',#60);
#60 = CARTESIAN_POINT('',(-69.083484861,136.02,23.3));
#61 = CIRCLE('',#62,2.2);
#62 = AXIS2_PLACEMENT_3D('',#63,#64,#65);
#63 = CARTESIAN_POINT('',(-70.,136.02,21.3));
#64 = DIRECTION('',(0.,-1.,2.2E-16));
#65 = DIRECTION('',(1.,0.,0.));
#66 = ORIENTED_EDGE('',*,*,#67,.T.);
#67 = EDGE_CURVE('',#59,#68,#70,.T.);
#68 = VERTEX_POINT('',#69);
#69 = CARTESIAN_POINT('',(-56.,136.02,23.3));
#70 = LINE('',#71,#72);
#71 = CARTESIAN_POINT('',(-84.,136.02,23.3));
#72 = VECTOR('',#73,1.);
#73 = DIRECTION('',(1.,0.,0.));
#74 = ORIENTED_EDGE('',*,*,#75,.F.);
#75 = EDGE_CURVE('',#24,#68,#76,.T.);
#76 = LINE('',#77,#78);
#77 = CARTESIAN_POINT('',(-56.,136.02,16.5));
#78 = VECTOR('',#79,1.);
#79 = DIRECTION('',(0.,0.,1.));
#80 = PLANE('',#81);
#81 = AXIS2_PLACEMENT_3D('',#82,#83,#84);
#82 = CARTESIAN_POINT('',(-84.,136.02,16.5));
#83 = DIRECTION('',(0.,1.,0.));
#84 = DIRECTION('',(0.,0.,1.));
#85 = ADVANCED_FACE('',(#86),#111,.T.);
#86 = FACE_BOUND('',#87,.T.);
#87 = EDGE_LOOP('',(#88,#96,#104,#110));
#88 = ORIENTED_EDGE('',*,*,#89,.T.);
#89 = EDGE_CURVE('',#59,#90,#92,.T.);
#90 = VERTEX_POINT('',#91);
#91 = CARTESIAN_POINT('',(-69.083484861,132.52,23.3));
#92 = LINE('',#93,#94);
#93 = CARTESIAN_POINT('',(-69.083484861,131.02,23.3));
#94 = VECTOR('',#95,1.);
#95 = DIRECTION('',(0.,-1.,2.2E-16));
#96 = ORIENTED_EDGE('',*,*,#97,.F.);
#97 = EDGE_CURVE('',#98,#90,#100,.T.);
#98 = VERTEX_POINT('',#99);
#99 = CARTESIAN_POINT('',(-56.,132.52,23.3));
#100 = LINE('',#101,#102);
#101 = CARTESIAN_POINT('',(-84.,132.52,23.3));
#102 = VECTOR('',#103,1.);
#103 = DIRECTION('',(-1.,0.,0.));
#104 = ORIENTED_EDGE('',*,*,#105,.T.);
#105 = EDGE_CURVE('',#98,#68,#106,.T.);
#106 = LINE('',#107,#108);
#107 = CARTESIAN_POINT('',(-56.,132.02,23.3));
#108 = VECTOR('',#109,1.);
#109 = DIRECTION('',(0.,1.,0.));
#110 = ORIENTED_EDGE('',*,*,#67,.F.);
#111 = PLANE('',#112);
#112 = AXIS2_PLACEMENT_3D('',#113,#114,#115);
#113 = CARTESIAN_POINT('',(-84.,132.02,23.3));
#114 = DIRECTION('',(0.,0.,1.));
#115 = DIRECTION('',(1.,0.,0.));
#116 = ADVANCED_FACE('',(#117),#151,.T.);
#117 = FACE_BOUND('',#118,.T.);
#118 = EDGE_LOOP('',(#119,#129,#137,#145));
#119 = ORIENTED_EDGE('',*,*,#120,.F.);
#120 = EDGE_CURVE('',#121,#123,#125,.T.);
#121 = VERTEX_POINT('',#122);
#122 = CARTESIAN_POINT('',(-84.,132.52,23.3));
#123 = VERTEX_POINT('',#124);
#124 = CARTESIAN_POINT('',(-84.,136.02,23.3));
#125 = LINE('',#126,#127);
#126 = CARTESIAN_POINT('',(-84.,132.02,23.3));
#127 = VECTOR('',#128,1.);
#128 = DIRECTION('',(0.,1.,0.));
#129 = ORIENTED_EDGE('',*,*,#130,.F.);
#130 = EDGE_CURVE('',#131,#121,#133,.T.);
#131 = VERTEX_POINT('',#132);
#132 = CARTESIAN_POINT('',(-70.91651513899,132.52,23.3));
#133 = LINE('',#134,#135);
#134 = CARTESIAN_POINT('',(-84.,132.52,23.3));
#135 = VECTOR('',#136,1.);
#136 = DIRECTION('',(-1.,0.,0.));
#137 = ORIENTED_EDGE('',*,*,#138,.F.);
#138 = EDGE_CURVE('',#139,#131,#141,.T.);
#139 = VERTEX_POINT('',#140);
#140 = CARTESIAN_POINT('',(-70.91651513899,136.02,23.3));
#141 = LINE('',#142,#143);
#142 = CARTESIAN_POINT('',(-70.91651513899,131.02,23.3));
#143 = VECTOR('',#144,1.);
#144 = DIRECTION('',(0.,-1.,2.2E-16));
#145 = ORIENTED_EDGE('',*,*,#146,.F.);
#146 = EDGE_CURVE('',#123,#139,#147,.T.);
#147 = LINE('',#148,#149);
#148 = CARTESIAN_POINT('',(-84.,136.02,23.3));
#149 = VECTOR('',#150,1.);
#150 = DIRECTION('',(1.,0.,0.));
#151 = PLANE('',#152);
#152 = AXIS2_PLACEMENT_3D('',#153,#154,#155);
#153 = CARTESIAN_POINT('',(-84.,132.02,23.3));
#154 = DIRECTION('',(0.,0.,1.));
#155 = DIRECTION('',(1.,0.,0.));
#156 = ADVANCED_FACE('',(#157),#214,.T.);
#157 = FACE_BOUND('',#158,.T.);
#158 = EDGE_LOOP('',(#159,#169,#177,#185,#193,#199,#200,#208));
#159 = ORIENTED_EDGE('',*,*,#160,.T.);
#160 = EDGE_CURVE('',#161,#163,#165,.T.);
#161 = VERTEX_POINT('',#162);
#162 = CARTESIAN_POINT('',(-84.,132.02,16.5));
#163 = VERTEX_POINT('',#164);
#164 = CARTESIAN_POINT('',(-84.,132.02,21.67));
#165 = LINE('',#166,#167);
#166 = CARTESIAN_POINT('',(-84.,132.02,16.5));
#167 = VECTOR('',#168,1.);
#168 = DIRECTION('',(0.,0.,1.));
#169 = ORIENTED_EDGE('',*,*,#170,.F.);
#170 = EDGE_CURVE('',#171,#163,#173,.T.);
#171 = VERTEX_POINT('',#172);
#172 = CARTESIAN_POINT('',(-84.,92.52,21.67));
#173 = LINE('',#174,#175);
#174 = CARTESIAN_POINT('',(-84.,92.52,21.67));
#175 = VECTOR('',#176,1.);
#176 = DIRECTION('',(0.,1.,0.));
#177 = ORIENTED_EDGE('',*,*,#178,.T.);
#178 = EDGE_CURVE('',#171,#179,#181,.T.);
#179 = VERTEX_POINT('',#180);
#180 = CARTESIAN_POINT('',(-84.,92.52,25.67));
#181 = LINE('',#182,#183);
#182 = CARTESIAN_POINT('',(-84.,92.52,21.67));
#183 = VECTOR('',#184,1.);
#184 = DIRECTION('',(0.,0.,1.));
#185 = ORIENTED_EDGE('',*,*,#186,.T.);
#186 = EDGE_CURVE('',#179,#187,#189,.T.);
#187 = VERTEX_POINT('',#188);
#188 = CARTESIAN_POINT('',(-84.,132.52,25.67));
#189 = LINE('',#190,#191);
#190 = CARTESIAN_POINT('',(-84.,92.52,25.67));
#191 = VECTOR('',#192,1.);
#192 = DIRECTION('',(0.,1.,0.));
#193 = ORIENTED_EDGE('',*,*,#194,.F.);
#194 = EDGE_CURVE('',#121,#187,#195,.T.);
#195 = LINE('',#196,#197);
#196 = CARTESIAN_POINT('',(-84.,132.52,21.67));
#197 = VECTOR('',#198,1.);
#198 = DIRECTION('',(0.,0.,1.));
#199 = ORIENTED_EDGE('',*,*,#120,.T.);
#200 = ORIENTED_EDGE('',*,*,#201,.F.);
#201 = EDGE_CURVE('',#202,#123,#204,.T.);
#202 = VERTEX_POINT('',#203);
#203 = CARTESIAN_POINT('',(-84.,136.02,16.5));
#204 = LINE('',#205,#206);
#205 = CARTESIAN_POINT('',(-84.,136.02,16.5));
#206 = VECTOR('',#207,1.);
#207 = DIRECTION('',(0.,0.,1.));
#208 = ORIENTED_EDGE('',*,*,#209,.F.);
#209 = EDGE_CURVE('',#161,#202,#210,.T.);
#210 = LINE('',#211,#212);
#211 = CARTESIAN_POINT('',(-84.,132.02,16.5));
#212 = VECTOR('',#213,1.);
#213 = DIRECTION('',(0.,1.,0.));
#214 = PLANE('',#215);
#215 = AXIS2_PLACEMENT_3D('',#216,#217,#218);
#216 = CARTESIAN_POINT('',(-84.,116.12988228593,22.944882285931));
#217 = DIRECTION('',(-1.,-0.,-0.));
#218 = DIRECTION('',(0.,0.,-1.));
#219 = ADVANCED_FACE('',(#220),#248,.T.);
#220 = FACE_BOUND('',#221,.T.);
#221 = EDGE_LOOP('',(#222,#230,#231,#232,#241));
#222 = ORIENTED_EDGE('',*,*,#223,.F.);
#223 = EDGE_CURVE('',#202,#224,#226,.T.);
#224 = VERTEX_POINT('',#225);
#225 = CARTESIAN_POINT('',(-70.91651513899,136.02,16.5));
#226 = LINE('',#227,#228);
#227 = CARTESIAN_POINT('',(-84.,136.02,16.5));
#228 = VECTOR('',#229,1.);
#229 = DIRECTION('',(1.,0.,0.));
#230 = ORIENTED_EDGE('',*,*,#201,.T.);
#231 = ORIENTED_EDGE('',*,*,#146,.T.);
#232 = ORIENTED_EDGE('',*,*,#233,.T.);
#233 = EDGE_CURVE('',#139,#234,#236,.T.);
#234 = VERTEX_POINT('',#235);
#235 = CARTESIAN_POINT('',(-71.69705627484,136.02,19.9));
#236 = CIRCLE('',#237,2.2);
#237 = AXIS2_PLACEMENT_3D('',#238,#239,#240);
#238 = CARTESIAN_POINT('',(-70.,136.02,21.3));
#239 = DIRECTION('',(0.,-1.,2.2E-16));
#240 = DIRECTION('',(1.,0.,0.));
#241 = ORIENTED_EDGE('',*,*,#242,.T.);
#242 = EDGE_CURVE('',#234,#224,#243,.T.);
#243 = CIRCLE('',#244,2.2);
#244 = AXIS2_PLACEMENT_3D('',#245,#246,#247);
#245 = CARTESIAN_POINT('',(-70.,136.02,18.5));
#246 = DIRECTION('',(0.,-1.,2.2E-16));
#247 = DIRECTION('',(1.,0.,0.));
#248 = PLANE('',#249);
#249 = AXIS2_PLACEMENT_3D('',#250,#251,#252);
#250 = CARTESIAN_POINT('',(-84.,136.02,16.5));
#251 = DIRECTION('',(0.,1.,0.));
#252 = DIRECTION('',(0.,0.,1.));
#253 = ADVANCED_FACE('',(#254),#280,.T.);
#254 = FACE_BOUND('',#255,.T.);
#255 = EDGE_LOOP('',(#256,#264,#265,#272,#273,#274));
#256 = ORIENTED_EDGE('',*,*,#257,.F.);
#257 = EDGE_CURVE('',#98,#258,#260,.T.);
#258 = VERTEX_POINT('',#259);
#259 = CARTESIAN_POINT('',(-56.,132.52,25.67));
#260 = LINE('',#261,#262);
#261 = CARTESIAN_POINT('',(-56.,132.52,21.67));
#262 = VECTOR('',#263,1.);
#263 = DIRECTION('',(0.,0.,1.));
#264 = ORIENTED_EDGE('',*,*,#97,.T.);
#265 = ORIENTED_EDGE('',*,*,#266,.T.);
#266 = EDGE_CURVE('',#90,#131,#267,.T.);
#267 = CIRCLE('',#268,2.2);
#268 = AXIS2_PLACEMENT_3D('',#269,#270,#271);
#269 = CARTESIAN_POINT('',(-70.,132.52,21.3));
#270 = DIRECTION('',(0.,-1.,2.2E-16));
#271 = DIRECTION('',(1.,0.,0.));
#272 = ORIENTED_EDGE('',*,*,#130,.T.);
#273 = ORIENTED_EDGE('',*,*,#194,.T.);
#274 = ORIENTED_EDGE('',*,*,#275,.T.);
#275 = EDGE_CURVE('',#187,#258,#276,.T.);
#276 = LINE('',#277,#278);
#277 = CARTESIAN_POINT('',(-84.,132.52,25.67));
#278 = VECTOR('',#279,1.);
#279 = DIRECTION('',(1.,0.,0.));
#280 = PLANE('',#281);
#281 = AXIS2_PLACEMENT_3D('',#282,#283,#284);
#282 = CARTESIAN_POINT('',(-84.,132.52,21.67));
#283 = DIRECTION('',(0.,1.,0.));
#284 = DIRECTION('',(0.,0.,1.));
#285 = ADVANCED_FACE('',(#286),#321,.F.);
#286 = FACE_BOUND('',#287,.F.);
#287 = EDGE_LOOP('',(#288,#299,#305,#306,#314));
#288 = ORIENTED_EDGE('',*,*,#289,.T.);
#289 = EDGE_CURVE('',#290,#292,#294,.T.);
#290 = VERTEX_POINT('',#291);
#291 = CARTESIAN_POINT('',(-71.69705627484,132.02,19.9));
#292 = VERTEX_POINT('',#293);
#293 = CARTESIAN_POINT('',(-70.91651513899,132.02,16.5));
#294 = CIRCLE('',#295,2.2);
#295 = AXIS2_PLACEMENT_3D('',#296,#297,#298);
#296 = CARTESIAN_POINT('',(-70.,132.02,18.5));
#297 = DIRECTION('',(0.,-1.,2.2E-16));
#298 = DIRECTION('',(1.,0.,0.));
#299 = ORIENTED_EDGE('',*,*,#300,.F.);
#300 = EDGE_CURVE('',#161,#292,#301,.T.);
#301 = LINE('',#302,#303);
#302 = CARTESIAN_POINT('',(-84.,132.02,16.5));
#303 = VECTOR('',#304,1.);
#304 = DIRECTION('',(1.,0.,0.));
#305 = ORIENTED_EDGE('',*,*,#160,.T.);
#306 = ORIENTED_EDGE('',*,*,#307,.T.);
#307 = EDGE_CURVE('',#163,#308,#310,.T.);
#308 = VERTEX_POINT('',#309);
#309 = CARTESIAN_POINT('',(-72.1686631827,132.02,21.67));
#310 = LINE('',#311,#312);
#311 = CARTESIAN_POINT('',(-84.,132.02,21.67));
#312 = VECTOR('',#313,1.);
#313 = DIRECTION('',(1.,0.,0.));
#314 = ORIENTED_EDGE('',*,*,#315,.T.);
#315 = EDGE_CURVE('',#308,#290,#316,.T.);
#316 = CIRCLE('',#317,2.2);
#317 = AXIS2_PLACEMENT_3D('',#318,#319,#320);
#318 = CARTESIAN_POINT('',(-70.,132.02,21.3));
#319 = DIRECTION('',(0.,-1.,2.2E-16));
#320 = DIRECTION('',(1.,0.,0.));
#321 = PLANE('',#322);
#322 = AXIS2_PLACEMENT_3D('',#323,#324,#325);
#323 = CARTESIAN_POINT('',(-84.,132.02,16.5));
#324 = DIRECTION('',(0.,1.,0.));
#325 = DIRECTION('',(0.,0.,1.));
#326 = ADVANCED_FACE('',(#327,#377),#388,.F.);
#327 = FACE_BOUND('',#328,.F.);
#328 = EDGE_LOOP('',(#329,#330,#338,#346,#354,#362,#370,#376));
#329 = ORIENTED_EDGE('',*,*,#170,.F.);
#330 = ORIENTED_EDGE('',*,*,#331,.T.);
#331 = EDGE_CURVE('',#171,#332,#334,.T.);
#332 = VERTEX_POINT('',#333);
#333 = CARTESIAN_POINT('',(-56.,92.52,21.67));
#334 = LINE('',#335,#336);
#335 = CARTESIAN_POINT('',(-84.,92.52,21.67));
#336 = VECTOR('',#337,1.);
#337 = DIRECTION('',(1.,0.,0.));
#338 = ORIENTED_EDGE('',*,*,#339,.T.);
#339 = EDGE_CURVE('',#332,#340,#342,.T.);
#340 = VERTEX_POINT('',#341);
#341 = CARTESIAN_POINT('',(-56.,132.02,21.67));
#342 = LINE('',#343,#344);
#343 = CARTESIAN_POINT('',(-56.,92.52,21.67));
#344 = VECTOR('',#345,1.);
#345 = DIRECTION('',(0.,1.,0.));
#346 = ORIENTED_EDGE('',*,*,#347,.F.);
#347 = EDGE_CURVE('',#348,#340,#350,.T.);
#348 = VERTEX_POINT('',#349);
#349 = CARTESIAN_POINT('',(-67.8313368173,132.02,21.67));
#350 = LINE('',#351,#352);
#351 = CARTESIAN_POINT('',(-84.,132.02,21.67));
#352 = VECTOR('',#353,1.);
#353 = DIRECTION('',(1.,0.,0.));
#354 = ORIENTED_EDGE('',*,*,#355,.T.);
#355 = EDGE_CURVE('',#348,#356,#358,.T.);
#356 = VERTEX_POINT('',#357);
#357 = CARTESIAN_POINT('',(-67.8313368173,131.02,21.67));
#358 = LINE('',#359,#360);
#359 = CARTESIAN_POINT('',(-67.8313368173,131.02,21.67));
#360 = VECTOR('',#361,1.);
#361 = DIRECTION('',(0.,-1.,2.2E-16));
#362 = ORIENTED_EDGE('',*,*,#363,.T.);
#363 = EDGE_CURVE('',#356,#364,#366,.T.);
#364 = VERTEX_POINT('',#365);
#365 = CARTESIAN_POINT('',(-72.1686631827,131.02,21.67));
#366 = LINE('',#367,#368);
#367 = CARTESIAN_POINT('',(-77.,131.02,21.67));
#368 = VECTOR('',#369,1.);
#369 = DIRECTION('',(-1.,0.,0.));
#370 = ORIENTED_EDGE('',*,*,#371,.F.);
#371 = EDGE_CURVE('',#308,#364,#372,.T.);
#372 = LINE('',#373,#374);
#373 = CARTESIAN_POINT('',(-72.1686631827,131.02,21.67));
#374 = VECTOR('',#375,1.);
#375 = DIRECTION('',(0.,-1.,2.2E-16));
#376 = ORIENTED_EDGE('',*,*,#307,.F.);
#377 = FACE_BOUND('',#378,.F.);
#378 = EDGE_LOOP('',(#379));
#379 = ORIENTED_EDGE('',*,*,#380,.T.);
#380 = EDGE_CURVE('',#381,#381,#383,.T.);
#381 = VERTEX_POINT('',#382);
#382 = CARTESIAN_POINT('',(-67.8,118.02,21.67));
#383 = CIRCLE('',#384,2.2);
#384 = AXIS2_PLACEMENT_3D('',#385,#386,#387);
#385 = CARTESIAN_POINT('',(-70.,118.02,21.67));
#386 = DIRECTION('',(0.,0.,-1.));
#387 = DIRECTION('',(1.,0.,0.));
#388 = PLANE('',#389);
#389 = AXIS2_PLACEMENT_3D('',#390,#391,#392);
#390 = CARTESIAN_POINT('',(-84.,92.52,21.67));
#391 = DIRECTION('',(0.,0.,1.));
#392 = DIRECTION('',(1.,0.,0.));
#393 = ADVANCED_FACE('',(#394),#412,.F.);
#394 = FACE_BOUND('',#395,.F.);
#395 = EDGE_LOOP('',(#396,#397,#398,#406));
#396 = ORIENTED_EDGE('',*,*,#331,.F.);
#397 = ORIENTED_EDGE('',*,*,#178,.T.);
#398 = ORIENTED_EDGE('',*,*,#399,.T.);
#399 = EDGE_CURVE('',#179,#400,#402,.T.);
#400 = VERTEX_POINT('',#401);
#401 = CARTESIAN_POINT('',(-56.,92.52,25.67));
#402 = LINE('',#403,#404);
#403 = CARTESIAN_POINT('',(-84.,92.52,25.67));
#404 = VECTOR('',#405,1.);
#405 = DIRECTION('',(1.,0.,0.));
#406 = ORIENTED_EDGE('',*,*,#407,.F.);
#407 = EDGE_CURVE('',#332,#400,#408,.T.);
#408 = LINE('',#409,#410);
#409 = CARTESIAN_POINT('',(-56.,92.52,21.67));
#410 = VECTOR('',#411,1.);
#411 = DIRECTION('',(0.,0.,1.));
#412 = PLANE('',#413);
#413 = AXIS2_PLACEMENT_3D('',#414,#415,#416);
#414 = CARTESIAN_POINT('',(-84.,92.52,21.67));
#415 = DIRECTION('',(0.,1.,0.));
#416 = DIRECTION('',(0.,0.,1.));
#417 = ADVANCED_FACE('',(#418,#429),#440,.T.);
#418 = FACE_BOUND('',#419,.T.);
#419 = EDGE_LOOP('',(#420,#421,#422,#428));
#420 = ORIENTED_EDGE('',*,*,#186,.F.);
#421 = ORIENTED_EDGE('',*,*,#399,.T.);
#422 = ORIENTED_EDGE('',*,*,#423,.T.);
#423 = EDGE_CURVE('',#400,#258,#424,.T.);
#424 = LINE('',#425,#426);
#425 = CARTESIAN_POINT('',(-56.,92.52,25.67));
#426 = VECTOR('',#427,1.);
#427 = DIRECTION('',(0.,1.,0.));
#428 = ORIENTED_EDGE('',*,*,#275,.F.);
#429 = FACE_BOUND('',#430,.T.);
#430 = EDGE_LOOP('',(#431));
#431 = ORIENTED_EDGE('',*,*,#432,.T.);
#432 = EDGE_CURVE('',#433,#433,#435,.T.);
#433 = VERTEX_POINT('',#434);
#434 = CARTESIAN_POINT('',(-67.8,118.02,25.67));
#435 = CIRCLE('',#436,2.2);
#436 = AXIS2_PLACEMENT_3D('',#437,#438,#439);
#437 = CARTESIAN_POINT('',(-70.,118.02,25.67));
#438 = DIRECTION('',(0.,0.,-1.));
#439 = DIRECTION('',(1.,0.,0.));
#440 = PLANE('',#441);
#441 = AXIS2_PLACEMENT_3D('',#442,#443,#444);
#442 = CARTESIAN_POINT('',(-84.,92.52,25.67));
#443 = DIRECTION('',(0.,0.,1.));
#444 = DIRECTION('',(1.,0.,0.));
#445 = ADVANCED_FACE('',(#446),#457,.F.);
#446 = FACE_BOUND('',#447,.F.);
#447 = EDGE_LOOP('',(#448,#449,#450,#451));
#448 = ORIENTED_EDGE('',*,*,#223,.F.);
#449 = ORIENTED_EDGE('',*,*,#209,.F.);
#450 = ORIENTED_EDGE('',*,*,#300,.T.);
#451 = ORIENTED_EDGE('',*,*,#452,.F.);
#452 = EDGE_CURVE('',#224,#292,#453,.T.);
#453 = LINE('',#454,#455);
#454 = CARTESIAN_POINT('',(-70.91651513899,131.02,16.5));
#455 = VECTOR('',#456,1.);
#456 = DIRECTION('',(0.,-1.,2.2E-16));
#457 = PLANE('',#458);
#458 = AXIS2_PLACEMENT_3D('',#459,#460,#461);
#459 = CARTESIAN_POINT('',(-84.,132.02,16.5));
#460 = DIRECTION('',(0.,0.,1.));
#461 = DIRECTION('',(1.,0.,0.));
#462 = ADVANCED_FACE('',(#463),#474,.F.);
#463 = FACE_BOUND('',#464,.T.);
#464 = EDGE_LOOP('',(#465,#471,#472,#473));
#465 = ORIENTED_EDGE('',*,*,#466,.T.);
#466 = EDGE_CURVE('',#234,#290,#467,.T.);
#467 = LINE('',#468,#469);
#468 = CARTESIAN_POINT('',(-71.69705627484,131.02,19.9));
#469 = VECTOR('',#470,1.);
#470 = DIRECTION('',(0.,-1.,2.2E-16));
#471 = ORIENTED_EDGE('',*,*,#289,.T.);
#472 = ORIENTED_EDGE('',*,*,#452,.F.);
#473 = ORIENTED_EDGE('',*,*,#242,.F.);
#474 = CYLINDRICAL_SURFACE('',#475,2.2);
#475 = AXIS2_PLACEMENT_3D('',#476,#477,#478);
#476 = CARTESIAN_POINT('',(-70.,131.02,18.5));
#477 = DIRECTION('',(-0.,-1.,0.));
#478 = DIRECTION('',(1.,0.,0.));
#479 = ADVANCED_FACE('',(#480),#490,.T.);
#480 = FACE_BOUND('',#481,.T.);
#481 = EDGE_LOOP('',(#482,#483));
#482 = ORIENTED_EDGE('',*,*,#363,.T.);
#483 = ORIENTED_EDGE('',*,*,#484,.T.);
#484 = EDGE_CURVE('',#364,#356,#485,.T.);
#485 = CIRCLE('',#486,2.2);
#486 = AXIS2_PLACEMENT_3D('',#487,#488,#489);
#487 = CARTESIAN_POINT('',(-70.,131.02,21.3));
#488 = DIRECTION('',(-0.,1.,0.));
#489 = DIRECTION('',(1.,0.,0.));
#490 = PLANE('',#491);
#491 = AXIS2_PLACEMENT_3D('',#492,#493,#494);
#492 = CARTESIAN_POINT('',(-70.,131.02,21.3));
#493 = DIRECTION('',(0.,1.,0.));
#494 = DIRECTION('',(1.,0.,0.));
#495 = ADVANCED_FACE('',(#496),#549,.F.);
#496 = FACE_BOUND('',#497,.F.);
#497 = EDGE_LOOP('',(#498,#506,#514,#523,#532,#541,#548));
#498 = ORIENTED_EDGE('',*,*,#499,.F.);
#499 = EDGE_CURVE('',#500,#340,#502,.T.);
#500 = VERTEX_POINT('',#501);
#501 = CARTESIAN_POINT('',(-56.,132.02,16.5));
#502 = LINE('',#503,#504);
#503 = CARTESIAN_POINT('',(-56.,132.02,16.5));
#504 = VECTOR('',#505,1.);
#505 = DIRECTION('',(0.,0.,1.));
#506 = ORIENTED_EDGE('',*,*,#507,.F.);
#507 = EDGE_CURVE('',#508,#500,#510,.T.);
#508 = VERTEX_POINT('',#509);
#509 = CARTESIAN_POINT('',(-69.083484861,132.02,16.5));
#510 = LINE('',#511,#512);
#511 = CARTESIAN_POINT('',(-84.,132.02,16.5));
#512 = VECTOR('',#513,1.);
#513 = DIRECTION('',(1.,0.,0.));
#514 = ORIENTED_EDGE('',*,*,#515,.T.);
#515 = EDGE_CURVE('',#508,#516,#518,.T.);
#516 = VERTEX_POINT('',#517);
#517 = CARTESIAN_POINT('',(-67.8,132.02,18.5));
#518 = CIRCLE('',#519,2.2);
#519 = AXIS2_PLACEMENT_3D('',#520,#521,#522);
#520 = CARTESIAN_POINT('',(-70.,132.02,18.5));
#521 = DIRECTION('',(0.,-1.,2.2E-16));
#522 = DIRECTION('',(1.,0.,0.));
#523 = ORIENTED_EDGE('',*,*,#524,.T.);
#524 = EDGE_CURVE('',#516,#525,#527,.T.);
#525 = VERTEX_POINT('',#526);
#526 = CARTESIAN_POINT('',(-68.30294372515,132.02,19.9));
#527 = CIRCLE('',#528,2.2);
#528 = AXIS2_PLACEMENT_3D('',#529,#530,#531);
#529 = CARTESIAN_POINT('',(-70.,132.02,18.5));
#530 = DIRECTION('',(0.,-1.,2.2E-16));
#531 = DIRECTION('',(1.,0.,0.));
#532 = ORIENTED_EDGE('',*,*,#533,.T.);
#533 = EDGE_CURVE('',#525,#534,#536,.T.);
#534 = VERTEX_POINT('',#535);
#535 = CARTESIAN_POINT('',(-67.8,132.02,21.3));
#536 = CIRCLE('',#537,2.2);
#537 = AXIS2_PLACEMENT_3D('',#538,#539,#540);
#538 = CARTESIAN_POINT('',(-70.,132.02,21.3));
#539 = DIRECTION('',(0.,-1.,2.2E-16));
#540 = DIRECTION('',(1.,0.,0.));
#541 = ORIENTED_EDGE('',*,*,#542,.T.);
#542 = EDGE_CURVE('',#534,#348,#543,.T.);
#543 = CIRCLE('',#544,2.2);
#544 = AXIS2_PLACEMENT_3D('',#545,#546,#547);
#545 = CARTESIAN_POINT('',(-70.,132.02,21.3));
#546 = DIRECTION('',(0.,-1.,2.2E-16));
#547 = DIRECTION('',(1.,0.,0.));
#548 = ORIENTED_EDGE('',*,*,#347,.T.);
#549 = PLANE('',#550);
#550 = AXIS2_PLACEMENT_3D('',#551,#552,#553);
#551 = CARTESIAN_POINT('',(-84.,132.02,16.5));
#552 = DIRECTION('',(0.,1.,0.));
#553 = DIRECTION('',(0.,0.,1.));
#554 = ADVANCED_FACE('',(#555),#570,.T.);
#555 = FACE_BOUND('',#556,.T.);
#556 = EDGE_LOOP('',(#557,#558,#564,#565,#566,#567,#568,#569));
#557 = ORIENTED_EDGE('',*,*,#499,.F.);
#558 = ORIENTED_EDGE('',*,*,#559,.T.);
#559 = EDGE_CURVE('',#500,#24,#560,.T.);
#560 = LINE('',#561,#562);
#561 = CARTESIAN_POINT('',(-56.,132.02,16.5));
#562 = VECTOR('',#563,1.);
#563 = DIRECTION('',(0.,1.,0.));
#564 = ORIENTED_EDGE('',*,*,#75,.T.);
#565 = ORIENTED_EDGE('',*,*,#105,.F.);
#566 = ORIENTED_EDGE('',*,*,#257,.T.);
#567 = ORIENTED_EDGE('',*,*,#423,.F.);
#568 = ORIENTED_EDGE('',*,*,#407,.F.);
#569 = ORIENTED_EDGE('',*,*,#339,.T.);
#570 = PLANE('',#571);
#571 = AXIS2_PLACEMENT_3D('',#572,#573,#574);
#572 = CARTESIAN_POINT('',(-56.,116.12988228593,22.944882285931));
#573 = DIRECTION('',(1.,0.,0.));
#574 = DIRECTION('',(0.,0.,1.));
#575 = ADVANCED_FACE('',(#576),#587,.F.);
#576 = FACE_BOUND('',#577,.T.);
#577 = EDGE_LOOP('',(#578,#579,#585,#586));
#578 = ORIENTED_EDGE('',*,*,#380,.T.);
#579 = ORIENTED_EDGE('',*,*,#580,.T.);
#580 = EDGE_CURVE('',#381,#433,#581,.T.);
#581 = LINE('',#582,#583);
#582 = CARTESIAN_POINT('',(-67.8,118.02,19.67));
#583 = VECTOR('',#584,1.);
#584 = DIRECTION('',(0.,0.,1.));
#585 = ORIENTED_EDGE('',*,*,#432,.F.);
#586 = ORIENTED_EDGE('',*,*,#580,.F.);
#587 = CYLINDRICAL_SURFACE('',#588,2.2);
#588 = AXIS2_PLACEMENT_3D('',#589,#590,#591);
#589 = CARTESIAN_POINT('',(-70.,118.02,19.67));
#590 = DIRECTION('',(-0.,-0.,-1.));
#591 = DIRECTION('',(1.,0.,0.));
#592 = ADVANCED_FACE('',(#593),#604,.F.);
#593 = FACE_BOUND('',#594,.F.);
#594 = EDGE_LOOP('',(#595,#596,#602,#603));
#595 = ORIENTED_EDGE('',*,*,#21,.F.);
#596 = ORIENTED_EDGE('',*,*,#597,.T.);
#597 = EDGE_CURVE('',#22,#508,#598,.T.);
#598 = LINE('',#599,#600);
#599 = CARTESIAN_POINT('',(-69.083484861,131.02,16.5));
#600 = VECTOR('',#601,1.);
#601 = DIRECTION('',(0.,-1.,2.2E-16));
#602 = ORIENTED_EDGE('',*,*,#507,.T.);
#603 = ORIENTED_EDGE('',*,*,#559,.T.);
#604 = PLANE('',#605);
#605 = AXIS2_PLACEMENT_3D('',#606,#607,#608);
#606 = CARTESIAN_POINT('',(-84.,132.02,16.5));
#607 = DIRECTION('',(0.,0.,1.));
#608 = DIRECTION('',(1.,0.,0.));
#609 = ADVANCED_FACE('',(#610),#631,.F.);
#610 = FACE_BOUND('',#611,.T.);
#611 = EDGE_LOOP('',(#612,#613,#619,#620,#621,#622,#623,#624,#625,#626,
    #627,#628,#629,#630));
#612 = ORIENTED_EDGE('',*,*,#49,.F.);
#613 = ORIENTED_EDGE('',*,*,#614,.T.);
#614 = EDGE_CURVE('',#41,#525,#615,.T.);
#615 = LINE('',#616,#617);
#616 = CARTESIAN_POINT('',(-68.30294372515,131.02,19.9));
#617 = VECTOR('',#618,1.);
#618 = DIRECTION('',(0.,-1.,2.2E-16));
#619 = ORIENTED_EDGE('',*,*,#533,.T.);
#620 = ORIENTED_EDGE('',*,*,#542,.T.);
#621 = ORIENTED_EDGE('',*,*,#355,.T.);
#622 = ORIENTED_EDGE('',*,*,#484,.F.);
#623 = ORIENTED_EDGE('',*,*,#371,.F.);
#624 = ORIENTED_EDGE('',*,*,#315,.T.);
#625 = ORIENTED_EDGE('',*,*,#466,.F.);
#626 = ORIENTED_EDGE('',*,*,#233,.F.);
#627 = ORIENTED_EDGE('',*,*,#138,.T.);
#628 = ORIENTED_EDGE('',*,*,#266,.F.);
#629 = ORIENTED_EDGE('',*,*,#89,.F.);
#630 = ORIENTED_EDGE('',*,*,#58,.F.);
#631 = CYLINDRICAL_SURFACE('',#632,2.2);
#632 = AXIS2_PLACEMENT_3D('',#633,#634,#635);
#633 = CARTESIAN_POINT('',(-70.,131.02,21.3));
#634 = DIRECTION('',(0.,-1.,2.2E-16));
#635 = DIRECTION('',(1.,0.,0.));
#636 = ADVANCED_FACE('',(#637),#645,.F.);
#637 = FACE_BOUND('',#638,.T.);
#638 = EDGE_LOOP('',(#639,#640,#641,#642,#643,#644));
#639 = ORIENTED_EDGE('',*,*,#31,.F.);
#640 = ORIENTED_EDGE('',*,*,#597,.T.);
#641 = ORIENTED_EDGE('',*,*,#515,.T.);
#642 = ORIENTED_EDGE('',*,*,#524,.T.);
#643 = ORIENTED_EDGE('',*,*,#614,.F.);
#644 = ORIENTED_EDGE('',*,*,#40,.F.);
#645 = CYLINDRICAL_SURFACE('',#646,2.2);
#646 = AXIS2_PLACEMENT_3D('',#647,#648,#649);
#647 = CARTESIAN_POINT('',(-70.,131.02,18.5));
#648 = DIRECTION('',(0.,-1.,2.2E-16));
#649 = DIRECTION('',(1.,0.,0.));
#650 = ( GEOMETRIC_REPRESENTATION_CONTEXT(3) 
GLOBAL_UNCERTAINTY_ASSIGNED_CONTEXT((#654)) GLOBAL_UNIT_ASSIGNED_CONTEXT
((#651,#652,#653)) REPRESENTATION_CONTEXT('Context #1',
  '3D Context with UNIT and UNCERTAINTY') );
#651 = ( LENGTH_UNIT() NAMED_UNIT(*) SI_UNIT(.MILLI.,.METRE.) );
#652 = ( NAMED_UNIT(*) PLANE_ANGLE_UNIT() SI_UNIT($,.RADIAN.) );
#653 = ( NAMED_UNIT(*) SI_UNIT($,.STERADIAN.) SOLID_ANGLE_UNIT() );
#654 = UNCERTAINTY_MEASURE_WITH_UNIT(LENGTH_MEASURE(5.E-06),#651,
  'distance_accuracy_value','confusion accuracy');
#655 = PRODUCT_RELATED_PRODUCT_CATEGORY('part',$,(#7));
ENDSEC;
END-ISO-10303-21;
