ISO-10303-21;
HEADER;
FILE_DESCRIPTION(('FreeCAD Model'),'2;1');
FILE_NAME('Open CASCADE Shape Model','2026-09-28T03:26:31',('Author'),(
    ''),'Open CASCADE STEP processor 7.8','FreeCAD','Unknown');
FILE_SCHEMA(('AUTOMOTIVE_DESIGN { 1 0 10303 214 1 1 1 1 }'));
ENDSEC;
DATA;
#1 = APPLICATION_PROTOCOL_DEFINITION('international standard',
  'automotive_design',2000,#2);
#2 = APPLICATION_CONTEXT(
  'core data for automotive mechanical design processes');
#3 = SHAPE_DEFINITION_REPRESENTATION(#4,#10);
#4 = PRODUCT_DEFINITION_SHAPE('','',#5);
#5 = PRODUCT_DEFINITION('design','',#6,#9);
#6 = PRODUCT_DEFINITION_FORMATION('','',#7);
#7 = PRODUCT('PORT_FLANGE','PORT_FLANGE','',(#8));
#8 = PRODUCT_CONTEXT('',#2,'mechanical');
#9 = PRODUCT_DEFINITION_CONTEXT('part definition',#2,'design');
#10 = ADVANCED_BREP_SHAPE_REPRESENTATION('',(#11,#15),#209);
#11 = AXIS2_PLACEMENT_3D('',#12,#13,#14);
#12 = CARTESIAN_POINT('',(0.,0.,0.));
#13 = DIRECTION('',(0.,0.,1.));
#14 = DIRECTION('',(1.,0.,-0.));
#15 = MANIFOLD_SOLID_BREP('',#16);
#16 = CLOSED_SHELL('',(#17,#77,#108,#159,#181,#195));
#17 = ADVANCED_FACE('',(#18),#72,.F.);
#18 = FACE_BOUND('',#19,.F.);
#19 = EDGE_LOOP('',(#20,#31,#40,#48,#57,#66));
#20 = ORIENTED_EDGE('',*,*,#21,.T.);
#21 = EDGE_CURVE('',#22,#24,#26,.T.);
#22 = VERTEX_POINT('',#23);
#23 = CARTESIAN_POINT('',(-50.,55.,158.17267082079));
#24 = VERTEX_POINT('',#25);
#25 = CARTESIAN_POINT('',(-6.,55.,216.));
#26 = CIRCLE('',#27,60.);
#27 = AXIS2_PLACEMENT_3D('',#28,#29,#30);
#28 = CARTESIAN_POINT('',(-66.,55.,216.));
#29 = DIRECTION('',(-0.,1.,0.));
#30 = DIRECTION('',(1.,0.,0.));
#31 = ORIENTED_EDGE('',*,*,#32,.T.);
#32 = EDGE_CURVE('',#24,#33,#35,.T.);
#33 = VERTEX_POINT('',#34);
#34 = CARTESIAN_POINT('',(-9.795018014414,55.,195.));
#35 = CIRCLE('',#36,60.);
#36 = AXIS2_PLACEMENT_3D('',#37,#38,#39);
#37 = CARTESIAN_POINT('',(-66.,55.,216.));
#38 = DIRECTION('',(-0.,1.,0.));
#39 = DIRECTION('',(1.,0.,0.));
#40 = ORIENTED_EDGE('',*,*,#41,.F.);
#41 = EDGE_CURVE('',#42,#33,#44,.T.);
#42 = VERTEX_POINT('',#43);
#43 = CARTESIAN_POINT('',(-27.33477014163,55.,195.));
#44 = LINE('',#45,#46);
#45 = CARTESIAN_POINT('',(-58.,55.,195.));
#46 = VECTOR('',#47,1.);
#47 = DIRECTION('',(1.,0.,0.));
#48 = ORIENTED_EDGE('',*,*,#49,.T.);
#49 = EDGE_CURVE('',#42,#50,#52,.T.);
#50 = VERTEX_POINT('',#51);
#51 = CARTESIAN_POINT('',(-22.,55.,216.));
#52 = CIRCLE('',#53,44.);
#53 = AXIS2_PLACEMENT_3D('',#54,#55,#56);
#54 = CARTESIAN_POINT('',(-66.,55.,216.));
#55 = DIRECTION('',(0.,-1.,2.2E-16));
#56 = DIRECTION('',(1.,0.,0.));
#57 = ORIENTED_EDGE('',*,*,#58,.T.);
#58 = EDGE_CURVE('',#50,#59,#61,.T.);
#59 = VERTEX_POINT('',#60);
#60 = CARTESIAN_POINT('',(-50.,55.,175.01219693616));
#61 = CIRCLE('',#62,44.);
#62 = AXIS2_PLACEMENT_3D('',#63,#64,#65);
#63 = CARTESIAN_POINT('',(-66.,55.,216.));
#64 = DIRECTION('',(0.,-1.,2.2E-16));
#65 = DIRECTION('',(1.,0.,0.));
#66 = ORIENTED_EDGE('',*,*,#67,.T.);
#67 = EDGE_CURVE('',#59,#22,#68,.T.);
#68 = LINE('',#69,#70);
#69 = CARTESIAN_POINT('',(-50.,55.,183.));
#70 = VECTOR('',#71,1.);
#71 = DIRECTION('',(0.,-2.2E-16,-1.));
#72 = PLANE('',#73);
#73 = AXIS2_PLACEMENT_3D('',#74,#75,#76);
#74 = CARTESIAN_POINT('',(-66.,55.,216.));
#75 = DIRECTION('',(0.,1.,0.));
#76 = DIRECTION('',(1.,0.,0.));
#77 = ADVANCED_FACE('',(#78),#103,.F.);
#78 = FACE_BOUND('',#79,.F.);
#79 = EDGE_LOOP('',(#80,#88,#96,#102));
#80 = ORIENTED_EDGE('',*,*,#81,.F.);
#81 = EDGE_CURVE('',#82,#33,#84,.T.);
#82 = VERTEX_POINT('',#83);
#83 = CARTESIAN_POINT('',(-9.795018014414,59.,195.));
#84 = LINE('',#85,#86);
#85 = CARTESIAN_POINT('',(-9.795018014414,55.,195.));
#86 = VECTOR('',#87,1.);
#87 = DIRECTION('',(0.,-1.,2.2E-16));
#88 = ORIENTED_EDGE('',*,*,#89,.F.);
#89 = EDGE_CURVE('',#90,#82,#92,.T.);
#90 = VERTEX_POINT('',#91);
#91 = CARTESIAN_POINT('',(-27.33477014163,59.,195.));
#92 = LINE('',#93,#94);
#93 = CARTESIAN_POINT('',(-58.,59.,195.));
#94 = VECTOR('',#95,1.);
#95 = DIRECTION('',(1.,0.,0.));
#96 = ORIENTED_EDGE('',*,*,#97,.T.);
#97 = EDGE_CURVE('',#90,#42,#98,.T.);
#98 = LINE('',#99,#100);
#99 = CARTESIAN_POINT('',(-27.33477014163,54.,195.));
#100 = VECTOR('',#101,1.);
#101 = DIRECTION('',(0.,-1.,2.2E-16));
#102 = ORIENTED_EDGE('',*,*,#41,.T.);
#103 = PLANE('',#104);
#104 = AXIS2_PLACEMENT_3D('',#105,#106,#107);
#105 = CARTESIAN_POINT('',(-50.,50.,195.));
#106 = DIRECTION('',(0.,0.,1.));
#107 = DIRECTION('',(1.,0.,0.));
#108 = ADVANCED_FACE('',(#109),#154,.T.);
#109 = FACE_BOUND('',#110,.T.);
#110 = EDGE_LOOP('',(#111,#122,#129,#130,#139,#148));
#111 = ORIENTED_EDGE('',*,*,#112,.T.);
#112 = EDGE_CURVE('',#113,#115,#117,.T.);
#113 = VERTEX_POINT('',#114);
#114 = CARTESIAN_POINT('',(-50.,59.,158.17267082079));
#115 = VERTEX_POINT('',#116);
#116 = CARTESIAN_POINT('',(-6.,59.,216.));
#117 = CIRCLE('',#118,60.);
#118 = AXIS2_PLACEMENT_3D('',#119,#120,#121);
#119 = CARTESIAN_POINT('',(-66.,59.,216.));
#120 = DIRECTION('',(-0.,1.,0.));
#121 = DIRECTION('',(1.,0.,0.));
#122 = ORIENTED_EDGE('',*,*,#123,.T.);
#123 = EDGE_CURVE('',#115,#82,#124,.T.);
#124 = CIRCLE('',#125,60.);
#125 = AXIS2_PLACEMENT_3D('',#126,#127,#128);
#126 = CARTESIAN_POINT('',(-66.,59.,216.));
#127 = DIRECTION('',(-0.,1.,0.));
#128 = DIRECTION('',(1.,0.,0.));
#129 = ORIENTED_EDGE('',*,*,#89,.F.);
#130 = ORIENTED_EDGE('',*,*,#131,.T.);
#131 = EDGE_CURVE('',#90,#132,#134,.T.);
#132 = VERTEX_POINT('',#133);
#133 = CARTESIAN_POINT('',(-22.,59.,216.));
#134 = CIRCLE('',#135,44.);
#135 = AXIS2_PLACEMENT_3D('',#136,#137,#138);
#136 = CARTESIAN_POINT('',(-66.,59.,216.));
#137 = DIRECTION('',(0.,-1.,2.2E-16));
#138 = DIRECTION('',(1.,0.,0.));
#139 = ORIENTED_EDGE('',*,*,#140,.T.);
#140 = EDGE_CURVE('',#132,#141,#143,.T.);
#141 = VERTEX_POINT('',#142);
#142 = CARTESIAN_POINT('',(-50.,59.,175.01219693616));
#143 = CIRCLE('',#144,44.);
#144 = AXIS2_PLACEMENT_3D('',#145,#146,#147);
#145 = CARTESIAN_POINT('',(-66.,59.,216.));
#146 = DIRECTION('',(0.,-1.,2.2E-16));
#147 = DIRECTION('',(1.,0.,0.));
#148 = ORIENTED_EDGE('',*,*,#149,.T.);
#149 = EDGE_CURVE('',#141,#113,#150,.T.);
#150 = LINE('',#151,#152);
#151 = CARTESIAN_POINT('',(-50.,59.,183.));
#152 = VECTOR('',#153,1.);
#153 = DIRECTION('',(0.,-2.2E-16,-1.));
#154 = PLANE('',#155);
#155 = AXIS2_PLACEMENT_3D('',#156,#157,#158);
#156 = CARTESIAN_POINT('',(-66.,59.,216.));
#157 = DIRECTION('',(0.,1.,0.));
#158 = DIRECTION('',(1.,0.,0.));
#159 = ADVANCED_FACE('',(#160),#176,.T.);
#160 = FACE_BOUND('',#161,.T.);
#161 = EDGE_LOOP('',(#162,#168,#169,#175));
#162 = ORIENTED_EDGE('',*,*,#163,.F.);
#163 = EDGE_CURVE('',#113,#22,#164,.T.);
#164 = LINE('',#165,#166);
#165 = CARTESIAN_POINT('',(-50.,55.,158.17267082079));
#166 = VECTOR('',#167,1.);
#167 = DIRECTION('',(0.,-1.,2.2E-16));
#168 = ORIENTED_EDGE('',*,*,#149,.F.);
#169 = ORIENTED_EDGE('',*,*,#170,.T.);
#170 = EDGE_CURVE('',#141,#59,#171,.T.);
#171 = LINE('',#172,#173);
#172 = CARTESIAN_POINT('',(-50.,54.,175.01219693616));
#173 = VECTOR('',#174,1.);
#174 = DIRECTION('',(0.,-1.,2.2E-16));
#175 = ORIENTED_EDGE('',*,*,#67,.T.);
#176 = PLANE('',#177);
#177 = AXIS2_PLACEMENT_3D('',#178,#179,#180);
#178 = CARTESIAN_POINT('',(-50.,50.,150.));
#179 = DIRECTION('',(1.,0.,0.));
#180 = DIRECTION('',(0.,0.,1.));
#181 = ADVANCED_FACE('',(#182),#190,.T.);
#182 = FACE_BOUND('',#183,.F.);
#183 = EDGE_LOOP('',(#184,#185,#186,#187,#188,#189));
#184 = ORIENTED_EDGE('',*,*,#163,.F.);
#185 = ORIENTED_EDGE('',*,*,#112,.T.);
#186 = ORIENTED_EDGE('',*,*,#123,.T.);
#187 = ORIENTED_EDGE('',*,*,#81,.T.);
#188 = ORIENTED_EDGE('',*,*,#32,.F.);
#189 = ORIENTED_EDGE('',*,*,#21,.F.);
#190 = CYLINDRICAL_SURFACE('',#191,60.);
#191 = AXIS2_PLACEMENT_3D('',#192,#193,#194);
#192 = CARTESIAN_POINT('',(-66.,55.,216.));
#193 = DIRECTION('',(0.,-1.,2.2E-16));
#194 = DIRECTION('',(1.,0.,0.));
#195 = ADVANCED_FACE('',(#196),#204,.F.);
#196 = FACE_BOUND('',#197,.T.);
#197 = EDGE_LOOP('',(#198,#199,#200,#201,#202,#203));
#198 = ORIENTED_EDGE('',*,*,#131,.F.);
#199 = ORIENTED_EDGE('',*,*,#97,.T.);
#200 = ORIENTED_EDGE('',*,*,#49,.T.);
#201 = ORIENTED_EDGE('',*,*,#58,.T.);
#202 = ORIENTED_EDGE('',*,*,#170,.F.);
#203 = ORIENTED_EDGE('',*,*,#140,.F.);
#204 = CYLINDRICAL_SURFACE('',#205,44.);
#205 = AXIS2_PLACEMENT_3D('',#206,#207,#208);
#206 = CARTESIAN_POINT('',(-66.,54.,216.));
#207 = DIRECTION('',(0.,-1.,2.2E-16));
#208 = DIRECTION('',(1.,0.,0.));
#209 = ( GEOMETRIC_REPRESENTATION_CONTEXT(3) 
GLOBAL_UNCERTAINTY_ASSIGNED_CONTEXT((#213)) GLOBAL_UNIT_ASSIGNED_CONTEXT
((#210,#211,#212)) REPRESENTATION_CONTEXT('Context #1',
  '3D Context with UNIT and UNCERTAINTY') );
#210 = ( LENGTH_UNIT() NAMED_UNIT(*) SI_UNIT(.MILLI.,.METRE.) );
#211 = ( NAMED_UNIT(*) PLANE_ANGLE_UNIT() SI_UNIT($,.RADIAN.) );
#212 = ( NAMED_UNIT(*) SI_UNIT($,.STERADIAN.) SOLID_ANGLE_UNIT() );
#213 = UNCERTAINTY_MEASURE_WITH_UNIT(LENGTH_MEASURE(5.E-05),#210,
  'distance_accuracy_value','confusion accuracy');
#214 = PRODUCT_RELATED_PRODUCT_CATEGORY('part',$,(#7));
ENDSEC;
END-ISO-10303-21;
