ISO-10303-21;
HEADER;
FILE_DESCRIPTION(('FreeCAD Model'),'2;1');
FILE_NAME('Open CASCADE Shape Model','2026-09-26T19:22:44',('Author'),(
    ''),'Open CASCADE STEP processor 7.8','FreeCAD','Unknown');
FILE_SCHEMA(('AUTOMOTIVE_DESIGN { 1 0 10303 214 1 1 1 1 }'));
ENDSEC;
DATA;
#1 = APPLICATION_PROTOCOL_DEFINITION('international standard',
  'automotive_design',2000,#2);
#2 = APPLICATION_CONTEXT(
  'core data for automotive mechanical design processes');
#3 = SHAPE_DEFINITION_REPRESENTATION(#4,#10);
#4 = PRODUCT_DEFINITION_SHAPE('','',#5);
#5 = PRODUCT_DEFINITION('design','',#6,#9);
#6 = PRODUCT_DEFINITION_FORMATION('','',#7);
#7 = PRODUCT('ROLLER_FL_02_B','ROLLER_FL_02_B','',(#8));
#8 = PRODUCT_CONTEXT('',#2,'mechanical');
#9 = PRODUCT_DEFINITION_CONTEXT('part definition',#2,'design');
#10 = ADVANCED_BREP_SHAPE_REPRESENTATION('',(#11,#15),#158);
#11 = AXIS2_PLACEMENT_3D('',#12,#13,#14);
#12 = CARTESIAN_POINT('',(0.,0.,0.));
#13 = DIRECTION('',(0.,0.,1.));
#14 = DIRECTION('',(1.,0.,-0.));
#15 = MANIFOLD_SOLID_BREP('',#16);
#16 = CLOSED_SHELL('',(#17,#50,#70,#90,#115,#140,#149));
#17 = ADVANCED_FACE('',(#18),#45,.T.);
#18 = FACE_BOUND('',#19,.F.);
#19 = EDGE_LOOP('',(#20,#30,#37,#38));
#20 = ORIENTED_EDGE('',*,*,#21,.T.);
#21 = EDGE_CURVE('',#22,#24,#26,.T.);
#22 = VERTEX_POINT('',#23);
#23 = CARTESIAN_POINT('',(140.43502884254,199.66446609406,89.));
#24 = VERTEX_POINT('',#25);
#25 = CARTESIAN_POINT('',(123.46446609406,216.63502884254,89.));
#26 = LINE('',#27,#28);
#27 = CARTESIAN_POINT('',(140.43502884254,199.66446609406,89.));
#28 = VECTOR('',#29,1.);
#29 = DIRECTION('',(-0.707106781187,0.707106781187,7.071067811865E-17));
#30 = ORIENTED_EDGE('',*,*,#31,.T.);
#31 = EDGE_CURVE('',#24,#24,#32,.T.);
#32 = CIRCLE('',#33,7.);
#33 = AXIS2_PLACEMENT_3D('',#34,#35,#36);
#34 = CARTESIAN_POINT('',(118.51471862576,211.68528137423,89.));
#35 = DIRECTION('',(-0.707106781187,0.707106781187,7.071067811865E-17));
#36 = DIRECTION('',(0.707106781187,0.707106781187,2.928932188135E-17));
#37 = ORIENTED_EDGE('',*,*,#21,.F.);
#38 = ORIENTED_EDGE('',*,*,#39,.F.);
#39 = EDGE_CURVE('',#22,#22,#40,.T.);
#40 = CIRCLE('',#41,7.);
#41 = AXIS2_PLACEMENT_3D('',#42,#43,#44);
#42 = CARTESIAN_POINT('',(135.48528137423,194.71471862576,89.));
#43 = DIRECTION('',(-0.707106781187,0.707106781187,7.071067811865E-17));
#44 = DIRECTION('',(0.707106781187,0.707106781187,2.928932188135E-17));
#45 = CYLINDRICAL_SURFACE('',#46,7.);
#46 = AXIS2_PLACEMENT_3D('',#47,#48,#49);
#47 = CARTESIAN_POINT('',(135.48528137423,194.71471862576,89.));
#48 = DIRECTION('',(0.707106781187,-0.707106781187,-7.071067811865E-17)
  );
#49 = DIRECTION('',(0.707106781187,0.707106781187,2.928932188135E-17));
#50 = ADVANCED_FACE('',(#51,#54),#65,.F.);
#51 = FACE_BOUND('',#52,.F.);
#52 = EDGE_LOOP('',(#53));
#53 = ORIENTED_EDGE('',*,*,#39,.T.);
#54 = FACE_BOUND('',#55,.F.);
#55 = EDGE_LOOP('',(#56));
#56 = ORIENTED_EDGE('',*,*,#57,.T.);
#57 = EDGE_CURVE('',#58,#58,#60,.T.);
#58 = VERTEX_POINT('',#59);
#59 = CARTESIAN_POINT('',(137.2530483272,196.48248557872,89.));
#60 = CIRCLE('',#61,2.5);
#61 = AXIS2_PLACEMENT_3D('',#62,#63,#64);
#62 = CARTESIAN_POINT('',(135.48528137423,194.71471862576,89.));
#63 = DIRECTION('',(0.707106781187,-0.707106781187,1.492893218813E-16));
#64 = DIRECTION('',(0.707106781187,0.707106781187,2.928932188135E-17));
#65 = PLANE('',#66);
#66 = AXIS2_PLACEMENT_3D('',#67,#68,#69);
#67 = CARTESIAN_POINT('',(135.48528137423,194.71471862576,89.));
#68 = DIRECTION('',(-0.707106781187,0.707106781187,7.071067811865E-17));
#69 = DIRECTION('',(0.707106781187,0.707106781187,2.928932188135E-17));
#70 = ADVANCED_FACE('',(#71,#74),#85,.T.);
#71 = FACE_BOUND('',#72,.T.);
#72 = EDGE_LOOP('',(#73));
#73 = ORIENTED_EDGE('',*,*,#31,.T.);
#74 = FACE_BOUND('',#75,.T.);
#75 = EDGE_LOOP('',(#76));
#76 = ORIENTED_EDGE('',*,*,#77,.T.);
#77 = EDGE_CURVE('',#78,#78,#80,.T.);
#78 = VERTEX_POINT('',#79);
#79 = CARTESIAN_POINT('',(120.28248557872,213.4530483272,89.));
#80 = CIRCLE('',#81,2.5);
#81 = AXIS2_PLACEMENT_3D('',#82,#83,#84);
#82 = CARTESIAN_POINT('',(118.51471862576,211.68528137423,89.));
#83 = DIRECTION('',(0.707106781187,-0.707106781187,1.492893218813E-16));
#84 = DIRECTION('',(0.707106781187,0.707106781187,2.928932188135E-17));
#85 = PLANE('',#86);
#86 = AXIS2_PLACEMENT_3D('',#87,#88,#89);
#87 = CARTESIAN_POINT('',(118.51471862576,211.68528137423,89.));
#88 = DIRECTION('',(-0.707106781187,0.707106781187,7.071067811865E-17));
#89 = DIRECTION('',(0.707106781187,0.707106781187,2.928932188135E-17));
#90 = ADVANCED_FACE('',(#91),#110,.T.);
#91 = FACE_BOUND('',#92,.F.);
#92 = EDGE_LOOP('',(#93,#102,#108,#109));
#93 = ORIENTED_EDGE('',*,*,#94,.F.);
#94 = EDGE_CURVE('',#95,#95,#97,.T.);
#95 = VERTEX_POINT('',#96);
#96 = CARTESIAN_POINT('',(142.23815113457,191.49738277136,89.));
#97 = CIRCLE('',#98,2.5);
#98 = AXIS2_PLACEMENT_3D('',#99,#100,#101);
#99 = CARTESIAN_POINT('',(140.4703841816,189.72961581839,89.));
#100 = DIRECTION('',(-0.707106781187,0.707106781187,7.071067811865E-17)
  );
#101 = DIRECTION('',(0.707106781187,0.707106781187,2.928932188135E-17));
#102 = ORIENTED_EDGE('',*,*,#103,.T.);
#103 = EDGE_CURVE('',#95,#58,#104,.T.);
#104 = LINE('',#105,#106);
#105 = CARTESIAN_POINT('',(142.23815113457,191.49738277136,89.));
#106 = VECTOR('',#107,1.);
#107 = DIRECTION('',(-0.707106781187,0.707106781187,7.071067811865E-17)
  );
#108 = ORIENTED_EDGE('',*,*,#57,.F.);
#109 = ORIENTED_EDGE('',*,*,#103,.F.);
#110 = CYLINDRICAL_SURFACE('',#111,2.5);
#111 = AXIS2_PLACEMENT_3D('',#112,#113,#114);
#112 = CARTESIAN_POINT('',(140.4703841816,189.72961581839,89.));
#113 = DIRECTION('',(0.707106781187,-0.707106781187,-7.071067811865E-17)
  );
#114 = DIRECTION('',(0.707106781187,0.707106781187,2.928932188135E-17));
#115 = ADVANCED_FACE('',(#116),#135,.T.);
#116 = FACE_BOUND('',#117,.F.);
#117 = EDGE_LOOP('',(#118,#119,#127,#134));
#118 = ORIENTED_EDGE('',*,*,#77,.T.);
#119 = ORIENTED_EDGE('',*,*,#120,.T.);
#120 = EDGE_CURVE('',#78,#121,#123,.T.);
#121 = VERTEX_POINT('',#122);
#122 = CARTESIAN_POINT('',(115.29738277136,218.43815113457,89.));
#123 = LINE('',#124,#125);
#124 = CARTESIAN_POINT('',(142.23815113457,191.49738277136,89.));
#125 = VECTOR('',#126,1.);
#126 = DIRECTION('',(-0.707106781187,0.707106781187,7.071067811865E-17)
  );
#127 = ORIENTED_EDGE('',*,*,#128,.T.);
#128 = EDGE_CURVE('',#121,#121,#129,.T.);
#129 = CIRCLE('',#130,2.5);
#130 = AXIS2_PLACEMENT_3D('',#131,#132,#133);
#131 = CARTESIAN_POINT('',(113.52961581839,216.6703841816,89.));
#132 = DIRECTION('',(-0.707106781187,0.707106781187,7.071067811865E-17)
  );
#133 = DIRECTION('',(0.707106781187,0.707106781187,2.928932188135E-17));
#134 = ORIENTED_EDGE('',*,*,#120,.F.);
#135 = CYLINDRICAL_SURFACE('',#136,2.5);
#136 = AXIS2_PLACEMENT_3D('',#137,#138,#139);
#137 = CARTESIAN_POINT('',(140.4703841816,189.72961581839,89.));
#138 = DIRECTION('',(0.707106781187,-0.707106781187,-7.071067811865E-17)
  );
#139 = DIRECTION('',(0.707106781187,0.707106781187,2.928932188135E-17));
#140 = ADVANCED_FACE('',(#141),#144,.F.);
#141 = FACE_BOUND('',#142,.T.);
#142 = EDGE_LOOP('',(#143));
#143 = ORIENTED_EDGE('',*,*,#94,.F.);
#144 = PLANE('',#145);
#145 = AXIS2_PLACEMENT_3D('',#146,#147,#148);
#146 = CARTESIAN_POINT('',(140.4703841816,189.72961581839,89.));
#147 = DIRECTION('',(-0.707106781187,0.707106781187,7.071067811865E-17)
  );
#148 = DIRECTION('',(0.707106781187,0.707106781187,2.928932188135E-17));
#149 = ADVANCED_FACE('',(#150),#153,.T.);
#150 = FACE_BOUND('',#151,.F.);
#151 = EDGE_LOOP('',(#152));
#152 = ORIENTED_EDGE('',*,*,#128,.F.);
#153 = PLANE('',#154);
#154 = AXIS2_PLACEMENT_3D('',#155,#156,#157);
#155 = CARTESIAN_POINT('',(113.52961581839,216.6703841816,89.));
#156 = DIRECTION('',(-0.707106781187,0.707106781187,7.071067811865E-17)
  );
#157 = DIRECTION('',(0.707106781187,0.707106781187,2.928932188135E-17));
#158 = ( GEOMETRIC_REPRESENTATION_CONTEXT(3) 
GLOBAL_UNCERTAINTY_ASSIGNED_CONTEXT((#162)) GLOBAL_UNIT_ASSIGNED_CONTEXT
((#159,#160,#161)) REPRESENTATION_CONTEXT('Context #1',
  '3D Context with UNIT and UNCERTAINTY') );
#159 = ( LENGTH_UNIT() NAMED_UNIT(*) SI_UNIT(.MILLI.,.METRE.) );
#160 = ( NAMED_UNIT(*) PLANE_ANGLE_UNIT() SI_UNIT($,.RADIAN.) );
#161 = ( NAMED_UNIT(*) SI_UNIT($,.STERADIAN.) SOLID_ANGLE_UNIT() );
#162 = UNCERTAINTY_MEASURE_WITH_UNIT(LENGTH_MEASURE(1.E-07),#159,
  'distance_accuracy_value','confusion accuracy');
#163 = PRODUCT_RELATED_PRODUCT_CATEGORY('part',$,(#7));
ENDSEC;
END-ISO-10303-21;
