ISO-10303-21;
HEADER;
FILE_DESCRIPTION(('FreeCAD Model'),'2;1');
FILE_NAME('Open CASCADE Shape Model','2026-09-28T13:05:57',('Author'),(
    ''),'Open CASCADE STEP processor 7.8','FreeCAD','Unknown');
FILE_SCHEMA(('AUTOMOTIVE_DESIGN { 1 0 10303 214 1 1 1 1 }'));
ENDSEC;
DATA;
#1 = APPLICATION_PROTOCOL_DEFINITION('international standard',
  'automotive_design',2000,#2);
#2 = APPLICATION_CONTEXT(
  'core data for automotive mechanical design processes');
#3 = SHAPE_DEFINITION_REPRESENTATION(#4,#10);
#4 = PRODUCT_DEFINITION_SHAPE('','',#5);
#5 = PRODUCT_DEFINITION('design','',#6,#9);
#6 = PRODUCT_DEFINITION_FORMATION('','',#7);
#7 = PRODUCT('ROLLER_LOW','ROLLER_LOW','',(#8));
#8 = PRODUCT_CONTEXT('',#2,'mechanical');
#9 = PRODUCT_DEFINITION_CONTEXT('part definition',#2,'design');
#10 = ADVANCED_BREP_SHAPE_REPRESENTATION('',(#11,#15),#1860);
#11 = AXIS2_PLACEMENT_3D('',#12,#13,#14);
#12 = CARTESIAN_POINT('',(0.,0.,0.));
#13 = DIRECTION('',(0.,0.,1.));
#14 = DIRECTION('',(1.,0.,-0.));
#15 = MANIFOLD_SOLID_BREP('',#16);
#16 = CLOSED_SHELL('',(#17,#505,#525,#557,#581,#606,#626,#643,#674,#698,
    #722,#739,#770,#794,#818,#835,#866,#890,#914,#931,#962,#986,#1010,
    #1027,#1058,#1082,#1106,#1123,#1154,#1178,#1202,#1219,#1250,#1274,
    #1298,#1315,#1346,#1370,#1394,#1411,#1442,#1466,#1490,#1507,#1538,
    #1562,#1586,#1603,#1634,#1658,#1682,#1699,#1716,#1728,#1740,#1752,
    #1764,#1776,#1788,#1800,#1812,#1824,#1836,#1848));
#17 = ADVANCED_FACE('',(#18,#104,#140,#176,#212,#248,#284,#320,#356,#392
    ,#428,#464),#500,.T.);
#18 = FACE_BOUND('',#19,.F.);
#19 = EDGE_LOOP('',(#20,#29,#37,#46,#54,#63,#71,#78,#79,#88,#96,#103));
#20 = ORIENTED_EDGE('',*,*,#21,.F.);
#21 = EDGE_CURVE('',#22,#22,#24,.T.);
#22 = VERTEX_POINT('',#23);
#23 = CARTESIAN_POINT('',(215.4,-127.5,36.8));
#24 = CIRCLE('',#25,25.4);
#25 = AXIS2_PLACEMENT_3D('',#26,#27,#28);
#26 = CARTESIAN_POINT('',(190.,-127.5,36.8));
#27 = DIRECTION('',(-0.,1.,0.));
#28 = DIRECTION('',(1.,0.,0.));
#29 = ORIENTED_EDGE('',*,*,#30,.T.);
#30 = EDGE_CURVE('',#22,#31,#33,.T.);
#31 = VERTEX_POINT('',#32);
#32 = CARTESIAN_POINT('',(215.4,-121.5,36.8));
#33 = LINE('',#34,#35);
#34 = CARTESIAN_POINT('',(215.4,-127.5,36.8));
#35 = VECTOR('',#36,1.);
#36 = DIRECTION('',(0.,1.,0.));
#37 = ORIENTED_EDGE('',*,*,#38,.F.);
#38 = EDGE_CURVE('',#39,#31,#41,.T.);
#39 = VERTEX_POINT('',#40);
#40 = CARTESIAN_POINT('',(215.35566997734,-121.5,35.3));
#41 = CIRCLE('',#42,25.4);
#42 = AXIS2_PLACEMENT_3D('',#43,#44,#45);
#43 = CARTESIAN_POINT('',(190.,-121.5,36.8));
#44 = DIRECTION('',(0.,-1.,2.2E-16));
#45 = DIRECTION('',(1.,0.,0.));
#46 = ORIENTED_EDGE('',*,*,#47,.F.);
#47 = EDGE_CURVE('',#48,#39,#50,.T.);
#48 = VERTEX_POINT('',#49);
#49 = CARTESIAN_POINT('',(215.35566997734,121.5,35.3));
#50 = LINE('',#51,#52);
#51 = CARTESIAN_POINT('',(215.35566997734,-127.5,35.3));
#52 = VECTOR('',#53,1.);
#53 = DIRECTION('',(0.,-1.,2.2E-16));
#54 = ORIENTED_EDGE('',*,*,#55,.T.);
#55 = EDGE_CURVE('',#48,#56,#58,.T.);
#56 = VERTEX_POINT('',#57);
#57 = CARTESIAN_POINT('',(215.4,121.5,36.8));
#58 = CIRCLE('',#59,25.4);
#59 = AXIS2_PLACEMENT_3D('',#60,#61,#62);
#60 = CARTESIAN_POINT('',(190.,121.5,36.8));
#61 = DIRECTION('',(0.,-1.,2.2E-16));
#62 = DIRECTION('',(1.,0.,0.));
#63 = ORIENTED_EDGE('',*,*,#64,.T.);
#64 = EDGE_CURVE('',#56,#65,#67,.T.);
#65 = VERTEX_POINT('',#66);
#66 = CARTESIAN_POINT('',(215.4,127.5,36.8));
#67 = LINE('',#68,#69);
#68 = CARTESIAN_POINT('',(215.4,-127.5,36.8));
#69 = VECTOR('',#70,1.);
#70 = DIRECTION('',(0.,1.,0.));
#71 = ORIENTED_EDGE('',*,*,#72,.T.);
#72 = EDGE_CURVE('',#65,#65,#73,.T.);
#73 = CIRCLE('',#74,25.4);
#74 = AXIS2_PLACEMENT_3D('',#75,#76,#77);
#75 = CARTESIAN_POINT('',(190.,127.5,36.8));
#76 = DIRECTION('',(-0.,1.,0.));
#77 = DIRECTION('',(1.,0.,0.));
#78 = ORIENTED_EDGE('',*,*,#64,.F.);
#79 = ORIENTED_EDGE('',*,*,#80,.T.);
#80 = EDGE_CURVE('',#56,#81,#83,.T.);
#81 = VERTEX_POINT('',#82);
#82 = CARTESIAN_POINT('',(215.35566997734,121.5,38.3));
#83 = CIRCLE('',#84,25.4);
#84 = AXIS2_PLACEMENT_3D('',#85,#86,#87);
#85 = CARTESIAN_POINT('',(190.,121.5,36.8));
#86 = DIRECTION('',(0.,-1.,2.2E-16));
#87 = DIRECTION('',(1.,0.,0.));
#88 = ORIENTED_EDGE('',*,*,#89,.T.);
#89 = EDGE_CURVE('',#81,#90,#92,.T.);
#90 = VERTEX_POINT('',#91);
#91 = CARTESIAN_POINT('',(215.35566997734,-121.5,38.3));
#92 = LINE('',#93,#94);
#93 = CARTESIAN_POINT('',(215.35566997734,-127.5,38.3));
#94 = VECTOR('',#95,1.);
#95 = DIRECTION('',(0.,-1.,2.2E-16));
#96 = ORIENTED_EDGE('',*,*,#97,.F.);
#97 = EDGE_CURVE('',#31,#90,#98,.T.);
#98 = CIRCLE('',#99,25.4);
#99 = AXIS2_PLACEMENT_3D('',#100,#101,#102);
#100 = CARTESIAN_POINT('',(190.,-121.5,36.8));
#101 = DIRECTION('',(0.,-1.,2.2E-16));
#102 = DIRECTION('',(1.,0.,0.));
#103 = ORIENTED_EDGE('',*,*,#30,.F.);
#104 = FACE_BOUND('',#105,.F.);
#105 = EDGE_LOOP('',(#106,#117,#125,#134));
#106 = ORIENTED_EDGE('',*,*,#107,.T.);
#107 = EDGE_CURVE('',#108,#110,#112,.T.);
#108 = VERTEX_POINT('',#109);
#109 = CARTESIAN_POINT('',(176.02312690565,121.5,15.591345669645));
#110 = VERTEX_POINT('',#111);
#111 = CARTESIAN_POINT('',(178.621203117,121.5,14.091345669646));
#112 = CIRCLE('',#113,25.4);
#113 = AXIS2_PLACEMENT_3D('',#114,#115,#116);
#114 = CARTESIAN_POINT('',(190.,121.5,36.8));
#115 = DIRECTION('',(0.,-1.,2.2E-16));
#116 = DIRECTION('',(1.,0.,0.));
#117 = ORIENTED_EDGE('',*,*,#118,.T.);
#118 = EDGE_CURVE('',#110,#119,#121,.T.);
#119 = VERTEX_POINT('',#120);
#120 = CARTESIAN_POINT('',(178.621203117,-121.5,14.091345669646));
#121 = LINE('',#122,#123);
#122 = CARTESIAN_POINT('',(178.621203117,-127.5,14.091345669645));
#123 = VECTOR('',#124,1.);
#124 = DIRECTION('',(0.,-1.,2.2E-16));
#125 = ORIENTED_EDGE('',*,*,#126,.F.);
#126 = EDGE_CURVE('',#127,#119,#129,.T.);
#127 = VERTEX_POINT('',#128);
#128 = CARTESIAN_POINT('',(176.02312690565,-121.5,15.591345669645));
#129 = CIRCLE('',#130,25.4);
#130 = AXIS2_PLACEMENT_3D('',#131,#132,#133);
#131 = CARTESIAN_POINT('',(190.,-121.5,36.8));
#132 = DIRECTION('',(0.,-1.,2.2E-16));
#133 = DIRECTION('',(1.,0.,0.));
#134 = ORIENTED_EDGE('',*,*,#135,.F.);
#135 = EDGE_CURVE('',#108,#127,#136,.T.);
#136 = LINE('',#137,#138);
#137 = CARTESIAN_POINT('',(176.02312690565,-127.5,15.591345669645));
#138 = VECTOR('',#139,1.);
#139 = DIRECTION('',(0.,-1.,2.2E-16));
#140 = FACE_BOUND('',#141,.F.);
#141 = EDGE_LOOP('',(#142,#153,#161,#170));
#142 = ORIENTED_EDGE('',*,*,#143,.T.);
#143 = EDGE_CURVE('',#144,#146,#148,.T.);
#144 = VERTEX_POINT('',#145);
#145 = CARTESIAN_POINT('',(167.29134566964,121.5,25.421203117004));
#146 = VERTEX_POINT('',#147);
#147 = CARTESIAN_POINT('',(168.79134566964,121.5,22.823126905651));
#148 = CIRCLE('',#149,25.4);
#149 = AXIS2_PLACEMENT_3D('',#150,#151,#152);
#150 = CARTESIAN_POINT('',(190.,121.5,36.8));
#151 = DIRECTION('',(0.,-1.,2.2E-16));
#152 = DIRECTION('',(1.,0.,0.));
#153 = ORIENTED_EDGE('',*,*,#154,.T.);
#154 = EDGE_CURVE('',#146,#155,#157,.T.);
#155 = VERTEX_POINT('',#156);
#156 = CARTESIAN_POINT('',(168.79134566964,-121.5,22.823126905651));
#157 = LINE('',#158,#159);
#158 = CARTESIAN_POINT('',(168.79134566964,-127.5,22.823126905651));
#159 = VECTOR('',#160,1.);
#160 = DIRECTION('',(0.,-1.,2.2E-16));
#161 = ORIENTED_EDGE('',*,*,#162,.F.);
#162 = EDGE_CURVE('',#163,#155,#165,.T.);
#163 = VERTEX_POINT('',#164);
#164 = CARTESIAN_POINT('',(167.29134566964,-121.5,25.421203117004));
#165 = CIRCLE('',#166,25.4);
#166 = AXIS2_PLACEMENT_3D('',#167,#168,#169);
#167 = CARTESIAN_POINT('',(190.,-121.5,36.8));
#168 = DIRECTION('',(0.,-1.,2.2E-16));
#169 = DIRECTION('',(1.,0.,0.));
#170 = ORIENTED_EDGE('',*,*,#171,.F.);
#171 = EDGE_CURVE('',#144,#163,#172,.T.);
#172 = LINE('',#173,#174);
#173 = CARTESIAN_POINT('',(167.29134566964,-127.5,25.421203117004));
#174 = VECTOR('',#175,1.);
#175 = DIRECTION('',(0.,-1.,2.2E-16));
#176 = FACE_BOUND('',#177,.F.);
#177 = EDGE_LOOP('',(#178,#189,#197,#206));
#178 = ORIENTED_EDGE('',*,*,#179,.T.);
#179 = EDGE_CURVE('',#180,#182,#184,.T.);
#180 = VERTEX_POINT('',#181);
#181 = CARTESIAN_POINT('',(211.20865433035,121.5,22.823126905651));
#182 = VERTEX_POINT('',#183);
#183 = CARTESIAN_POINT('',(212.70865433035,121.5,25.421203117004));
#184 = CIRCLE('',#185,25.4);
#185 = AXIS2_PLACEMENT_3D('',#186,#187,#188);
#186 = CARTESIAN_POINT('',(190.,121.5,36.8));
#187 = DIRECTION('',(0.,-1.,2.2E-16));
#188 = DIRECTION('',(1.,0.,0.));
#189 = ORIENTED_EDGE('',*,*,#190,.T.);
#190 = EDGE_CURVE('',#182,#191,#193,.T.);
#191 = VERTEX_POINT('',#192);
#192 = CARTESIAN_POINT('',(212.70865433035,-121.5,25.421203117004));
#193 = LINE('',#194,#195);
#194 = CARTESIAN_POINT('',(212.70865433035,-127.5,25.421203117005));
#195 = VECTOR('',#196,1.);
#196 = DIRECTION('',(0.,-1.,2.2E-16));
#197 = ORIENTED_EDGE('',*,*,#198,.F.);
#198 = EDGE_CURVE('',#199,#191,#201,.T.);
#199 = VERTEX_POINT('',#200);
#200 = CARTESIAN_POINT('',(211.20865433035,-121.5,22.823126905651));
#201 = CIRCLE('',#202,25.4);
#202 = AXIS2_PLACEMENT_3D('',#203,#204,#205);
#203 = CARTESIAN_POINT('',(190.,-121.5,36.8));
#204 = DIRECTION('',(0.,-1.,2.2E-16));
#205 = DIRECTION('',(1.,0.,0.));
#206 = ORIENTED_EDGE('',*,*,#207,.F.);
#207 = EDGE_CURVE('',#180,#199,#208,.T.);
#208 = LINE('',#209,#210);
#209 = CARTESIAN_POINT('',(211.20865433035,-127.5,22.823126905651));
#210 = VECTOR('',#211,1.);
#211 = DIRECTION('',(0.,-1.,2.2E-16));
#212 = FACE_BOUND('',#213,.F.);
#213 = EDGE_LOOP('',(#214,#225,#233,#242));
#214 = ORIENTED_EDGE('',*,*,#215,.T.);
#215 = EDGE_CURVE('',#216,#218,#220,.T.);
#216 = VERTEX_POINT('',#217);
#217 = CARTESIAN_POINT('',(201.37879688299,121.5,14.091345669646));
#218 = VERTEX_POINT('',#219);
#219 = CARTESIAN_POINT('',(203.97687309434,121.5,15.591345669645));
#220 = CIRCLE('',#221,25.4);
#221 = AXIS2_PLACEMENT_3D('',#222,#223,#224);
#222 = CARTESIAN_POINT('',(190.,121.5,36.8));
#223 = DIRECTION('',(0.,-1.,2.2E-16));
#224 = DIRECTION('',(1.,0.,0.));
#225 = ORIENTED_EDGE('',*,*,#226,.T.);
#226 = EDGE_CURVE('',#218,#227,#229,.T.);
#227 = VERTEX_POINT('',#228);
#228 = CARTESIAN_POINT('',(203.97687309434,-121.5,15.591345669645));
#229 = LINE('',#230,#231);
#230 = CARTESIAN_POINT('',(203.97687309434,-127.5,15.591345669645));
#231 = VECTOR('',#232,1.);
#232 = DIRECTION('',(0.,-1.,2.2E-16));
#233 = ORIENTED_EDGE('',*,*,#234,.F.);
#234 = EDGE_CURVE('',#235,#227,#237,.T.);
#235 = VERTEX_POINT('',#236);
#236 = CARTESIAN_POINT('',(201.37879688299,-121.5,14.091345669646));
#237 = CIRCLE('',#238,25.4);
#238 = AXIS2_PLACEMENT_3D('',#239,#240,#241);
#239 = CARTESIAN_POINT('',(190.,-121.5,36.8));
#240 = DIRECTION('',(0.,-1.,2.2E-16));
#241 = DIRECTION('',(1.,0.,0.));
#242 = ORIENTED_EDGE('',*,*,#243,.F.);
#243 = EDGE_CURVE('',#216,#235,#244,.T.);
#244 = LINE('',#245,#246);
#245 = CARTESIAN_POINT('',(201.37879688299,-127.5,14.091345669645));
#246 = VECTOR('',#247,1.);
#247 = DIRECTION('',(0.,-1.,2.2E-16));
#248 = FACE_BOUND('',#249,.F.);
#249 = EDGE_LOOP('',(#250,#261,#269,#278));
#250 = ORIENTED_EDGE('',*,*,#251,.T.);
#251 = EDGE_CURVE('',#252,#254,#256,.T.);
#252 = VERTEX_POINT('',#253);
#253 = CARTESIAN_POINT('',(188.5,121.5,11.444330022656));
#254 = VERTEX_POINT('',#255);
#255 = CARTESIAN_POINT('',(191.5,121.5,11.444330022656));
#256 = CIRCLE('',#257,25.4);
#257 = AXIS2_PLACEMENT_3D('',#258,#259,#260);
#258 = CARTESIAN_POINT('',(190.,121.5,36.8));
#259 = DIRECTION('',(0.,-1.,2.2E-16));
#260 = DIRECTION('',(1.,0.,0.));
#261 = ORIENTED_EDGE('',*,*,#262,.T.);
#262 = EDGE_CURVE('',#254,#263,#265,.T.);
#263 = VERTEX_POINT('',#264);
#264 = CARTESIAN_POINT('',(191.5,-121.5,11.444330022656));
#265 = LINE('',#266,#267);
#266 = CARTESIAN_POINT('',(191.5,-127.5,11.444330022656));
#267 = VECTOR('',#268,1.);
#268 = DIRECTION('',(0.,-1.,2.2E-16));
#269 = ORIENTED_EDGE('',*,*,#270,.F.);
#270 = EDGE_CURVE('',#271,#263,#273,.T.);
#271 = VERTEX_POINT('',#272);
#272 = CARTESIAN_POINT('',(188.5,-121.5,11.444330022656));
#273 = CIRCLE('',#274,25.4);
#274 = AXIS2_PLACEMENT_3D('',#275,#276,#277);
#275 = CARTESIAN_POINT('',(190.,-121.5,36.8));
#276 = DIRECTION('',(0.,-1.,2.2E-16));
#277 = DIRECTION('',(1.,0.,0.));
#278 = ORIENTED_EDGE('',*,*,#279,.F.);
#279 = EDGE_CURVE('',#252,#271,#280,.T.);
#280 = LINE('',#281,#282);
#281 = CARTESIAN_POINT('',(188.5,-127.5,11.444330022656));
#282 = VECTOR('',#283,1.);
#283 = DIRECTION('',(0.,-1.,2.2E-16));
#284 = FACE_BOUND('',#285,.F.);
#285 = EDGE_LOOP('',(#286,#297,#305,#314));
#286 = ORIENTED_EDGE('',*,*,#287,.T.);
#287 = EDGE_CURVE('',#288,#290,#292,.T.);
#288 = VERTEX_POINT('',#289);
#289 = CARTESIAN_POINT('',(164.64433002265,121.5,38.3));
#290 = VERTEX_POINT('',#291);
#291 = CARTESIAN_POINT('',(164.64433002265,121.5,35.3));
#292 = CIRCLE('',#293,25.4);
#293 = AXIS2_PLACEMENT_3D('',#294,#295,#296);
#294 = CARTESIAN_POINT('',(190.,121.5,36.8));
#295 = DIRECTION('',(0.,-1.,2.2E-16));
#296 = DIRECTION('',(1.,0.,0.));
#297 = ORIENTED_EDGE('',*,*,#298,.T.);
#298 = EDGE_CURVE('',#290,#299,#301,.T.);
#299 = VERTEX_POINT('',#300);
#300 = CARTESIAN_POINT('',(164.64433002265,-121.5,35.3));
#301 = LINE('',#302,#303);
#302 = CARTESIAN_POINT('',(164.64433002265,-127.5,35.3));
#303 = VECTOR('',#304,1.);
#304 = DIRECTION('',(0.,-1.,2.2E-16));
#305 = ORIENTED_EDGE('',*,*,#306,.F.);
#306 = EDGE_CURVE('',#307,#299,#309,.T.);
#307 = VERTEX_POINT('',#308);
#308 = CARTESIAN_POINT('',(164.64433002265,-121.5,38.3));
#309 = CIRCLE('',#310,25.4);
#310 = AXIS2_PLACEMENT_3D('',#311,#312,#313);
#311 = CARTESIAN_POINT('',(190.,-121.5,36.8));
#312 = DIRECTION('',(0.,-1.,2.2E-16));
#313 = DIRECTION('',(1.,0.,0.));
#314 = ORIENTED_EDGE('',*,*,#315,.F.);
#315 = EDGE_CURVE('',#288,#307,#316,.T.);
#316 = LINE('',#317,#318);
#317 = CARTESIAN_POINT('',(164.64433002265,-127.5,38.3));
#318 = VECTOR('',#319,1.);
#319 = DIRECTION('',(0.,-1.,2.2E-16));
#320 = FACE_BOUND('',#321,.F.);
#321 = EDGE_LOOP('',(#322,#333,#341,#350));
#322 = ORIENTED_EDGE('',*,*,#323,.T.);
#323 = EDGE_CURVE('',#324,#326,#328,.T.);
#324 = VERTEX_POINT('',#325);
#325 = CARTESIAN_POINT('',(168.79134566964,121.5,50.776873094349));
#326 = VERTEX_POINT('',#327);
#327 = CARTESIAN_POINT('',(167.29134566964,121.5,48.178796882995));
#328 = CIRCLE('',#329,25.4);
#329 = AXIS2_PLACEMENT_3D('',#330,#331,#332);
#330 = CARTESIAN_POINT('',(190.,121.5,36.8));
#331 = DIRECTION('',(0.,-1.,2.2E-16));
#332 = DIRECTION('',(1.,0.,0.));
#333 = ORIENTED_EDGE('',*,*,#334,.T.);
#334 = EDGE_CURVE('',#326,#335,#337,.T.);
#335 = VERTEX_POINT('',#336);
#336 = CARTESIAN_POINT('',(167.29134566964,-121.5,48.178796882995));
#337 = LINE('',#338,#339);
#338 = CARTESIAN_POINT('',(167.29134566964,-127.5,48.178796882996));
#339 = VECTOR('',#340,1.);
#340 = DIRECTION('',(0.,-1.,2.2E-16));
#341 = ORIENTED_EDGE('',*,*,#342,.F.);
#342 = EDGE_CURVE('',#343,#335,#345,.T.);
#343 = VERTEX_POINT('',#344);
#344 = CARTESIAN_POINT('',(168.79134566964,-121.5,50.776873094349));
#345 = CIRCLE('',#346,25.4);
#346 = AXIS2_PLACEMENT_3D('',#347,#348,#349);
#347 = CARTESIAN_POINT('',(190.,-121.5,36.8));
#348 = DIRECTION('',(0.,-1.,2.2E-16));
#349 = DIRECTION('',(1.,0.,0.));
#350 = ORIENTED_EDGE('',*,*,#351,.F.);
#351 = EDGE_CURVE('',#324,#343,#352,.T.);
#352 = LINE('',#353,#354);
#353 = CARTESIAN_POINT('',(168.79134566964,-127.5,50.776873094349));
#354 = VECTOR('',#355,1.);
#355 = DIRECTION('',(0.,-1.,2.2E-16));
#356 = FACE_BOUND('',#357,.F.);
#357 = EDGE_LOOP('',(#358,#369,#377,#386));
#358 = ORIENTED_EDGE('',*,*,#359,.T.);
#359 = EDGE_CURVE('',#360,#362,#364,.T.);
#360 = VERTEX_POINT('',#361);
#361 = CARTESIAN_POINT('',(178.621203117,121.5,59.508654330355));
#362 = VERTEX_POINT('',#363);
#363 = CARTESIAN_POINT('',(176.02312690565,121.5,58.008654330354));
#364 = CIRCLE('',#365,25.4);
#365 = AXIS2_PLACEMENT_3D('',#366,#367,#368);
#366 = CARTESIAN_POINT('',(190.,121.5,36.8));
#367 = DIRECTION('',(0.,-1.,2.2E-16));
#368 = DIRECTION('',(1.,0.,0.));
#369 = ORIENTED_EDGE('',*,*,#370,.T.);
#370 = EDGE_CURVE('',#362,#371,#373,.T.);
#371 = VERTEX_POINT('',#372);
#372 = CARTESIAN_POINT('',(176.02312690565,-121.5,58.008654330354));
#373 = LINE('',#374,#375);
#374 = CARTESIAN_POINT('',(176.02312690565,-127.5,58.008654330355));
#375 = VECTOR('',#376,1.);
#376 = DIRECTION('',(0.,-1.,2.2E-16));
#377 = ORIENTED_EDGE('',*,*,#378,.F.);
#378 = EDGE_CURVE('',#379,#371,#381,.T.);
#379 = VERTEX_POINT('',#380);
#380 = CARTESIAN_POINT('',(178.621203117,-121.5,59.508654330355));
#381 = CIRCLE('',#382,25.4);
#382 = AXIS2_PLACEMENT_3D('',#383,#384,#385);
#383 = CARTESIAN_POINT('',(190.,-121.5,36.8));
#384 = DIRECTION('',(0.,-1.,2.2E-16));
#385 = DIRECTION('',(1.,0.,0.));
#386 = ORIENTED_EDGE('',*,*,#387,.F.);
#387 = EDGE_CURVE('',#360,#379,#388,.T.);
#388 = LINE('',#389,#390);
#389 = CARTESIAN_POINT('',(178.621203117,-127.5,59.508654330355));
#390 = VECTOR('',#391,1.);
#391 = DIRECTION('',(0.,-1.,2.2E-16));
#392 = FACE_BOUND('',#393,.F.);
#393 = EDGE_LOOP('',(#394,#405,#413,#422));
#394 = ORIENTED_EDGE('',*,*,#395,.T.);
#395 = EDGE_CURVE('',#396,#398,#400,.T.);
#396 = VERTEX_POINT('',#397);
#397 = CARTESIAN_POINT('',(191.5,121.5,62.155669977344));
#398 = VERTEX_POINT('',#399);
#399 = CARTESIAN_POINT('',(188.5,121.5,62.155669977344));
#400 = CIRCLE('',#401,25.4);
#401 = AXIS2_PLACEMENT_3D('',#402,#403,#404);
#402 = CARTESIAN_POINT('',(190.,121.5,36.8));
#403 = DIRECTION('',(0.,-1.,2.2E-16));
#404 = DIRECTION('',(1.,0.,0.));
#405 = ORIENTED_EDGE('',*,*,#406,.T.);
#406 = EDGE_CURVE('',#398,#407,#409,.T.);
#407 = VERTEX_POINT('',#408);
#408 = CARTESIAN_POINT('',(188.5,-121.5,62.155669977344));
#409 = LINE('',#410,#411);
#410 = CARTESIAN_POINT('',(188.5,-127.5,62.155669977344));
#411 = VECTOR('',#412,1.);
#412 = DIRECTION('',(0.,-1.,2.2E-16));
#413 = ORIENTED_EDGE('',*,*,#414,.F.);
#414 = EDGE_CURVE('',#415,#407,#417,.T.);
#415 = VERTEX_POINT('',#416);
#416 = CARTESIAN_POINT('',(191.5,-121.5,62.155669977344));
#417 = CIRCLE('',#418,25.4);
#418 = AXIS2_PLACEMENT_3D('',#419,#420,#421);
#419 = CARTESIAN_POINT('',(190.,-121.5,36.8));
#420 = DIRECTION('',(0.,-1.,2.2E-16));
#421 = DIRECTION('',(1.,0.,0.));
#422 = ORIENTED_EDGE('',*,*,#423,.F.);
#423 = EDGE_CURVE('',#396,#415,#424,.T.);
#424 = LINE('',#425,#426);
#425 = CARTESIAN_POINT('',(191.5,-127.5,62.155669977344));
#426 = VECTOR('',#427,1.);
#427 = DIRECTION('',(0.,-1.,2.2E-16));
#428 = FACE_BOUND('',#429,.F.);
#429 = EDGE_LOOP('',(#430,#441,#449,#458));
#430 = ORIENTED_EDGE('',*,*,#431,.T.);
#431 = EDGE_CURVE('',#432,#434,#436,.T.);
#432 = VERTEX_POINT('',#433);
#433 = CARTESIAN_POINT('',(203.97687309434,121.5,58.008654330355));
#434 = VERTEX_POINT('',#435);
#435 = CARTESIAN_POINT('',(201.37879688299,121.5,59.508654330354));
#436 = CIRCLE('',#437,25.4);
#437 = AXIS2_PLACEMENT_3D('',#438,#439,#440);
#438 = CARTESIAN_POINT('',(190.,121.5,36.8));
#439 = DIRECTION('',(0.,-1.,2.2E-16));
#440 = DIRECTION('',(1.,0.,0.));
#441 = ORIENTED_EDGE('',*,*,#442,.T.);
#442 = EDGE_CURVE('',#434,#443,#445,.T.);
#443 = VERTEX_POINT('',#444);
#444 = CARTESIAN_POINT('',(201.37879688299,-121.5,59.508654330354));
#445 = LINE('',#446,#447);
#446 = CARTESIAN_POINT('',(201.37879688299,-127.5,59.508654330355));
#447 = VECTOR('',#448,1.);
#448 = DIRECTION('',(0.,-1.,2.2E-16));
#449 = ORIENTED_EDGE('',*,*,#450,.F.);
#450 = EDGE_CURVE('',#451,#443,#453,.T.);
#451 = VERTEX_POINT('',#452);
#452 = CARTESIAN_POINT('',(203.97687309434,-121.5,58.008654330355));
#453 = CIRCLE('',#454,25.4);
#454 = AXIS2_PLACEMENT_3D('',#455,#456,#457);
#455 = CARTESIAN_POINT('',(190.,-121.5,36.8));
#456 = DIRECTION('',(0.,-1.,2.2E-16));
#457 = DIRECTION('',(1.,0.,0.));
#458 = ORIENTED_EDGE('',*,*,#459,.F.);
#459 = EDGE_CURVE('',#432,#451,#460,.T.);
#460 = LINE('',#461,#462);
#461 = CARTESIAN_POINT('',(203.97687309434,-127.5,58.008654330355));
#462 = VECTOR('',#463,1.);
#463 = DIRECTION('',(0.,-1.,2.2E-16));
#464 = FACE_BOUND('',#465,.F.);
#465 = EDGE_LOOP('',(#466,#477,#485,#494));
#466 = ORIENTED_EDGE('',*,*,#467,.T.);
#467 = EDGE_CURVE('',#468,#470,#472,.T.);
#468 = VERTEX_POINT('',#469);
#469 = CARTESIAN_POINT('',(212.70865433035,121.5,48.178796882996));
#470 = VERTEX_POINT('',#471);
#471 = CARTESIAN_POINT('',(211.20865433035,121.5,50.776873094349));
#472 = CIRCLE('',#473,25.4);
#473 = AXIS2_PLACEMENT_3D('',#474,#475,#476);
#474 = CARTESIAN_POINT('',(190.,121.5,36.8));
#475 = DIRECTION('',(0.,-1.,2.2E-16));
#476 = DIRECTION('',(1.,0.,0.));
#477 = ORIENTED_EDGE('',*,*,#478,.T.);
#478 = EDGE_CURVE('',#470,#479,#481,.T.);
#479 = VERTEX_POINT('',#480);
#480 = CARTESIAN_POINT('',(211.20865433035,-121.5,50.776873094349));
#481 = LINE('',#482,#483);
#482 = CARTESIAN_POINT('',(211.20865433035,-127.5,50.776873094349));
#483 = VECTOR('',#484,1.);
#484 = DIRECTION('',(0.,-1.,2.2E-16));
#485 = ORIENTED_EDGE('',*,*,#486,.F.);
#486 = EDGE_CURVE('',#487,#479,#489,.T.);
#487 = VERTEX_POINT('',#488);
#488 = CARTESIAN_POINT('',(212.70865433035,-121.5,48.178796882996));
#489 = CIRCLE('',#490,25.4);
#490 = AXIS2_PLACEMENT_3D('',#491,#492,#493);
#491 = CARTESIAN_POINT('',(190.,-121.5,36.8));
#492 = DIRECTION('',(0.,-1.,2.2E-16));
#493 = DIRECTION('',(1.,0.,0.));
#494 = ORIENTED_EDGE('',*,*,#495,.F.);
#495 = EDGE_CURVE('',#468,#487,#496,.T.);
#496 = LINE('',#497,#498);
#497 = CARTESIAN_POINT('',(212.70865433035,-127.5,48.178796882995));
#498 = VECTOR('',#499,1.);
#499 = DIRECTION('',(0.,-1.,2.2E-16));
#500 = CYLINDRICAL_SURFACE('',#501,25.4);
#501 = AXIS2_PLACEMENT_3D('',#502,#503,#504);
#502 = CARTESIAN_POINT('',(190.,-127.5,36.8));
#503 = DIRECTION('',(-0.,-1.,0.));
#504 = DIRECTION('',(1.,0.,0.));
#505 = ADVANCED_FACE('',(#506,#509),#520,.F.);
#506 = FACE_BOUND('',#507,.F.);
#507 = EDGE_LOOP('',(#508));
#508 = ORIENTED_EDGE('',*,*,#21,.T.);
#509 = FACE_BOUND('',#510,.F.);
#510 = EDGE_LOOP('',(#511));
#511 = ORIENTED_EDGE('',*,*,#512,.T.);
#512 = EDGE_CURVE('',#513,#513,#515,.T.);
#513 = VERTEX_POINT('',#514);
#514 = CARTESIAN_POINT('',(194.8,-127.5,36.8));
#515 = CIRCLE('',#516,4.8);
#516 = AXIS2_PLACEMENT_3D('',#517,#518,#519);
#517 = CARTESIAN_POINT('',(190.,-127.5,36.8));
#518 = DIRECTION('',(0.,-1.,2.2E-16));
#519 = DIRECTION('',(1.,0.,0.));
#520 = PLANE('',#521);
#521 = AXIS2_PLACEMENT_3D('',#522,#523,#524);
#522 = CARTESIAN_POINT('',(190.,-127.5,36.8));
#523 = DIRECTION('',(0.,1.,0.));
#524 = DIRECTION('',(1.,0.,0.));
#525 = ADVANCED_FACE('',(#526),#552,.F.);
#526 = FACE_BOUND('',#527,.F.);
#527 = EDGE_LOOP('',(#528,#536,#537,#538,#546));
#528 = ORIENTED_EDGE('',*,*,#529,.F.);
#529 = EDGE_CURVE('',#39,#530,#532,.T.);
#530 = VERTEX_POINT('',#531);
#531 = CARTESIAN_POINT('',(217.9,-121.5,35.3));
#532 = LINE('',#533,#534);
#533 = CARTESIAN_POINT('',(214.9,-121.5,35.3));
#534 = VECTOR('',#535,1.);
#535 = DIRECTION('',(1.,0.,0.));
#536 = ORIENTED_EDGE('',*,*,#38,.T.);
#537 = ORIENTED_EDGE('',*,*,#97,.T.);
#538 = ORIENTED_EDGE('',*,*,#539,.T.);
#539 = EDGE_CURVE('',#90,#540,#542,.T.);
#540 = VERTEX_POINT('',#541);
#541 = CARTESIAN_POINT('',(217.9,-121.5,38.3));
#542 = LINE('',#543,#544);
#543 = CARTESIAN_POINT('',(214.9,-121.5,38.3));
#544 = VECTOR('',#545,1.);
#545 = DIRECTION('',(1.,0.,0.));
#546 = ORIENTED_EDGE('',*,*,#547,.T.);
#547 = EDGE_CURVE('',#540,#530,#548,.T.);
#548 = LINE('',#549,#550);
#549 = CARTESIAN_POINT('',(217.9,-121.5,38.3));
#550 = VECTOR('',#551,1.);
#551 = DIRECTION('',(0.,0.,-1.));
#552 = PLANE('',#553);
#553 = AXIS2_PLACEMENT_3D('',#554,#555,#556);
#554 = CARTESIAN_POINT('',(214.9,-121.5,38.3));
#555 = DIRECTION('',(0.,1.,0.));
#556 = DIRECTION('',(1.,0.,0.));
#557 = ADVANCED_FACE('',(#558),#576,.F.);
#558 = FACE_BOUND('',#559,.F.);
#559 = EDGE_LOOP('',(#560,#561,#562,#570));
#560 = ORIENTED_EDGE('',*,*,#539,.F.);
#561 = ORIENTED_EDGE('',*,*,#89,.F.);
#562 = ORIENTED_EDGE('',*,*,#563,.T.);
#563 = EDGE_CURVE('',#81,#564,#566,.T.);
#564 = VERTEX_POINT('',#565);
#565 = CARTESIAN_POINT('',(217.9,121.5,38.3));
#566 = LINE('',#567,#568);
#567 = CARTESIAN_POINT('',(214.9,121.5,38.3));
#568 = VECTOR('',#569,1.);
#569 = DIRECTION('',(1.,0.,0.));
#570 = ORIENTED_EDGE('',*,*,#571,.F.);
#571 = EDGE_CURVE('',#540,#564,#572,.T.);
#572 = LINE('',#573,#574);
#573 = CARTESIAN_POINT('',(217.9,-121.5,38.3));
#574 = VECTOR('',#575,1.);
#575 = DIRECTION('',(0.,1.,0.));
#576 = PLANE('',#577);
#577 = AXIS2_PLACEMENT_3D('',#578,#579,#580);
#578 = CARTESIAN_POINT('',(214.9,-121.5,38.3));
#579 = DIRECTION('',(0.,0.,-1.));
#580 = DIRECTION('',(1.,0.,0.));
#581 = ADVANCED_FACE('',(#582),#601,.T.);
#582 = FACE_BOUND('',#583,.T.);
#583 = EDGE_LOOP('',(#584,#592,#593,#594,#595));
#584 = ORIENTED_EDGE('',*,*,#585,.F.);
#585 = EDGE_CURVE('',#48,#586,#588,.T.);
#586 = VERTEX_POINT('',#587);
#587 = CARTESIAN_POINT('',(217.9,121.5,35.3));
#588 = LINE('',#589,#590);
#589 = CARTESIAN_POINT('',(214.9,121.5,35.3));
#590 = VECTOR('',#591,1.);
#591 = DIRECTION('',(1.,0.,0.));
#592 = ORIENTED_EDGE('',*,*,#55,.T.);
#593 = ORIENTED_EDGE('',*,*,#80,.T.);
#594 = ORIENTED_EDGE('',*,*,#563,.T.);
#595 = ORIENTED_EDGE('',*,*,#596,.T.);
#596 = EDGE_CURVE('',#564,#586,#597,.T.);
#597 = LINE('',#598,#599);
#598 = CARTESIAN_POINT('',(217.9,121.5,38.3));
#599 = VECTOR('',#600,1.);
#600 = DIRECTION('',(0.,0.,-1.));
#601 = PLANE('',#602);
#602 = AXIS2_PLACEMENT_3D('',#603,#604,#605);
#603 = CARTESIAN_POINT('',(214.9,121.5,38.3));
#604 = DIRECTION('',(0.,1.,0.));
#605 = DIRECTION('',(1.,0.,0.));
#606 = ADVANCED_FACE('',(#607,#610),#621,.T.);
#607 = FACE_BOUND('',#608,.T.);
#608 = EDGE_LOOP('',(#609));
#609 = ORIENTED_EDGE('',*,*,#72,.T.);
#610 = FACE_BOUND('',#611,.T.);
#611 = EDGE_LOOP('',(#612));
#612 = ORIENTED_EDGE('',*,*,#613,.T.);
#613 = EDGE_CURVE('',#614,#614,#616,.T.);
#614 = VERTEX_POINT('',#615);
#615 = CARTESIAN_POINT('',(194.8,127.5,36.8));
#616 = CIRCLE('',#617,4.8);
#617 = AXIS2_PLACEMENT_3D('',#618,#619,#620);
#618 = CARTESIAN_POINT('',(190.,127.5,36.8));
#619 = DIRECTION('',(0.,-1.,2.2E-16));
#620 = DIRECTION('',(1.,0.,0.));
#621 = PLANE('',#622);
#622 = AXIS2_PLACEMENT_3D('',#623,#624,#625);
#623 = CARTESIAN_POINT('',(190.,127.5,36.8));
#624 = DIRECTION('',(0.,1.,0.));
#625 = DIRECTION('',(1.,0.,0.));
#626 = ADVANCED_FACE('',(#627),#638,.T.);
#627 = FACE_BOUND('',#628,.T.);
#628 = EDGE_LOOP('',(#629,#630,#631,#632));
#629 = ORIENTED_EDGE('',*,*,#529,.F.);
#630 = ORIENTED_EDGE('',*,*,#47,.F.);
#631 = ORIENTED_EDGE('',*,*,#585,.T.);
#632 = ORIENTED_EDGE('',*,*,#633,.F.);
#633 = EDGE_CURVE('',#530,#586,#634,.T.);
#634 = LINE('',#635,#636);
#635 = CARTESIAN_POINT('',(217.9,-121.5,35.3));
#636 = VECTOR('',#637,1.);
#637 = DIRECTION('',(0.,1.,0.));
#638 = PLANE('',#639);
#639 = AXIS2_PLACEMENT_3D('',#640,#641,#642);
#640 = CARTESIAN_POINT('',(214.9,-121.5,35.3));
#641 = DIRECTION('',(0.,0.,-1.));
#642 = DIRECTION('',(1.,0.,0.));
#643 = ADVANCED_FACE('',(#644),#669,.T.);
#644 = FACE_BOUND('',#645,.T.);
#645 = EDGE_LOOP('',(#646,#654,#655,#663));
#646 = ORIENTED_EDGE('',*,*,#647,.F.);
#647 = EDGE_CURVE('',#108,#648,#650,.T.);
#648 = VERTEX_POINT('',#649);
#649 = CARTESIAN_POINT('',(174.75096189432,121.5,13.387891234414));
#650 = LINE('',#651,#652);
#651 = CARTESIAN_POINT('',(176.25096189432,121.5,15.985967445767));
#652 = VECTOR('',#653,1.);
#653 = DIRECTION('',(-0.5,0.,-0.866025403784));
#654 = ORIENTED_EDGE('',*,*,#107,.T.);
#655 = ORIENTED_EDGE('',*,*,#656,.T.);
#656 = EDGE_CURVE('',#110,#657,#659,.T.);
#657 = VERTEX_POINT('',#658);
#658 = CARTESIAN_POINT('',(177.34903810567,121.5,11.887891234414));
#659 = LINE('',#660,#661);
#660 = CARTESIAN_POINT('',(178.84903810567,121.5,14.485967445767));
#661 = VECTOR('',#662,1.);
#662 = DIRECTION('',(-0.5,0.,-0.866025403784));
#663 = ORIENTED_EDGE('',*,*,#664,.T.);
#664 = EDGE_CURVE('',#657,#648,#665,.T.);
#665 = LINE('',#666,#667);
#666 = CARTESIAN_POINT('',(177.34903810567,121.5,11.887891234414));
#667 = VECTOR('',#668,1.);
#668 = DIRECTION('',(-0.866025403784,0.,0.5));
#669 = PLANE('',#670);
#670 = AXIS2_PLACEMENT_3D('',#671,#672,#673);
#671 = CARTESIAN_POINT('',(178.84903810567,121.5,14.485967445767));
#672 = DIRECTION('',(0.,1.,0.));
#673 = DIRECTION('',(-0.5,0.,-0.866025403784));
#674 = ADVANCED_FACE('',(#675),#693,.T.);
#675 = FACE_BOUND('',#676,.T.);
#676 = EDGE_LOOP('',(#677,#685,#686,#687));
#677 = ORIENTED_EDGE('',*,*,#678,.F.);
#678 = EDGE_CURVE('',#127,#679,#681,.T.);
#679 = VERTEX_POINT('',#680);
#680 = CARTESIAN_POINT('',(174.75096189432,-121.5,13.387891234414));
#681 = LINE('',#682,#683);
#682 = CARTESIAN_POINT('',(176.25096189432,-121.5,15.985967445767));
#683 = VECTOR('',#684,1.);
#684 = DIRECTION('',(-0.5,0.,-0.866025403784));
#685 = ORIENTED_EDGE('',*,*,#135,.F.);
#686 = ORIENTED_EDGE('',*,*,#647,.T.);
#687 = ORIENTED_EDGE('',*,*,#688,.F.);
#688 = EDGE_CURVE('',#679,#648,#689,.T.);
#689 = LINE('',#690,#691);
#690 = CARTESIAN_POINT('',(174.75096189432,-121.5,13.387891234414));
#691 = VECTOR('',#692,1.);
#692 = DIRECTION('',(0.,1.,0.));
#693 = PLANE('',#694);
#694 = AXIS2_PLACEMENT_3D('',#695,#696,#697);
#695 = CARTESIAN_POINT('',(176.25096189432,-121.5,15.985967445767));
#696 = DIRECTION('',(-0.866025403784,0.,0.5));
#697 = DIRECTION('',(-0.5,0.,-0.866025403784));
#698 = ADVANCED_FACE('',(#699),#717,.F.);
#699 = FACE_BOUND('',#700,.F.);
#700 = EDGE_LOOP('',(#701,#702,#703,#711));
#701 = ORIENTED_EDGE('',*,*,#678,.F.);
#702 = ORIENTED_EDGE('',*,*,#126,.T.);
#703 = ORIENTED_EDGE('',*,*,#704,.T.);
#704 = EDGE_CURVE('',#119,#705,#707,.T.);
#705 = VERTEX_POINT('',#706);
#706 = CARTESIAN_POINT('',(177.34903810567,-121.5,11.887891234414));
#707 = LINE('',#708,#709);
#708 = CARTESIAN_POINT('',(178.84903810567,-121.5,14.485967445767));
#709 = VECTOR('',#710,1.);
#710 = DIRECTION('',(-0.5,0.,-0.866025403784));
#711 = ORIENTED_EDGE('',*,*,#712,.T.);
#712 = EDGE_CURVE('',#705,#679,#713,.T.);
#713 = LINE('',#714,#715);
#714 = CARTESIAN_POINT('',(177.34903810567,-121.5,11.887891234414));
#715 = VECTOR('',#716,1.);
#716 = DIRECTION('',(-0.866025403784,0.,0.5));
#717 = PLANE('',#718);
#718 = AXIS2_PLACEMENT_3D('',#719,#720,#721);
#719 = CARTESIAN_POINT('',(178.84903810567,-121.5,14.485967445767));
#720 = DIRECTION('',(0.,1.,0.));
#721 = DIRECTION('',(-0.5,0.,-0.866025403784));
#722 = ADVANCED_FACE('',(#723),#734,.F.);
#723 = FACE_BOUND('',#724,.F.);
#724 = EDGE_LOOP('',(#725,#726,#727,#728));
#725 = ORIENTED_EDGE('',*,*,#704,.F.);
#726 = ORIENTED_EDGE('',*,*,#118,.F.);
#727 = ORIENTED_EDGE('',*,*,#656,.T.);
#728 = ORIENTED_EDGE('',*,*,#729,.F.);
#729 = EDGE_CURVE('',#705,#657,#730,.T.);
#730 = LINE('',#731,#732);
#731 = CARTESIAN_POINT('',(177.34903810567,-121.5,11.887891234414));
#732 = VECTOR('',#733,1.);
#733 = DIRECTION('',(0.,1.,0.));
#734 = PLANE('',#735);
#735 = AXIS2_PLACEMENT_3D('',#736,#737,#738);
#736 = CARTESIAN_POINT('',(178.84903810567,-121.5,14.485967445767));
#737 = DIRECTION('',(-0.866025403784,0.,0.5));
#738 = DIRECTION('',(-0.5,0.,-0.866025403784));
#739 = ADVANCED_FACE('',(#740),#765,.T.);
#740 = FACE_BOUND('',#741,.T.);
#741 = EDGE_LOOP('',(#742,#750,#751,#759));
#742 = ORIENTED_EDGE('',*,*,#743,.F.);
#743 = EDGE_CURVE('',#144,#744,#746,.T.);
#744 = VERTEX_POINT('',#745);
#745 = CARTESIAN_POINT('',(165.08789123441,121.5,24.149038105677));
#746 = LINE('',#747,#748);
#747 = CARTESIAN_POINT('',(167.68596744576,121.5,25.649038105677));
#748 = VECTOR('',#749,1.);
#749 = DIRECTION('',(-0.866025403784,0.,-0.5));
#750 = ORIENTED_EDGE('',*,*,#143,.T.);
#751 = ORIENTED_EDGE('',*,*,#752,.T.);
#752 = EDGE_CURVE('',#146,#753,#755,.T.);
#753 = VERTEX_POINT('',#754);
#754 = CARTESIAN_POINT('',(166.58789123441,121.5,21.550961894323));
#755 = LINE('',#756,#757);
#756 = CARTESIAN_POINT('',(169.18596744576,121.5,23.050961894323));
#757 = VECTOR('',#758,1.);
#758 = DIRECTION('',(-0.866025403784,0.,-0.5));
#759 = ORIENTED_EDGE('',*,*,#760,.T.);
#760 = EDGE_CURVE('',#753,#744,#761,.T.);
#761 = LINE('',#762,#763);
#762 = CARTESIAN_POINT('',(166.58789123441,121.5,21.550961894323));
#763 = VECTOR('',#764,1.);
#764 = DIRECTION('',(-0.5,0.,0.866025403784));
#765 = PLANE('',#766);
#766 = AXIS2_PLACEMENT_3D('',#767,#768,#769);
#767 = CARTESIAN_POINT('',(169.18596744576,121.5,23.050961894323));
#768 = DIRECTION('',(0.,1.,0.));
#769 = DIRECTION('',(-0.866025403784,0.,-0.5));
#770 = ADVANCED_FACE('',(#771),#789,.T.);
#771 = FACE_BOUND('',#772,.T.);
#772 = EDGE_LOOP('',(#773,#781,#782,#783));
#773 = ORIENTED_EDGE('',*,*,#774,.F.);
#774 = EDGE_CURVE('',#163,#775,#777,.T.);
#775 = VERTEX_POINT('',#776);
#776 = CARTESIAN_POINT('',(165.08789123441,-121.5,24.149038105677));
#777 = LINE('',#778,#779);
#778 = CARTESIAN_POINT('',(167.68596744576,-121.5,25.649038105677));
#779 = VECTOR('',#780,1.);
#780 = DIRECTION('',(-0.866025403784,0.,-0.5));
#781 = ORIENTED_EDGE('',*,*,#171,.F.);
#782 = ORIENTED_EDGE('',*,*,#743,.T.);
#783 = ORIENTED_EDGE('',*,*,#784,.F.);
#784 = EDGE_CURVE('',#775,#744,#785,.T.);
#785 = LINE('',#786,#787);
#786 = CARTESIAN_POINT('',(165.08789123441,-121.5,24.149038105677));
#787 = VECTOR('',#788,1.);
#788 = DIRECTION('',(0.,1.,0.));
#789 = PLANE('',#790);
#790 = AXIS2_PLACEMENT_3D('',#791,#792,#793);
#791 = CARTESIAN_POINT('',(167.68596744576,-121.5,25.649038105677));
#792 = DIRECTION('',(-0.5,0.,0.866025403784));
#793 = DIRECTION('',(-0.866025403784,0.,-0.5));
#794 = ADVANCED_FACE('',(#795),#813,.F.);
#795 = FACE_BOUND('',#796,.F.);
#796 = EDGE_LOOP('',(#797,#798,#799,#807));
#797 = ORIENTED_EDGE('',*,*,#774,.F.);
#798 = ORIENTED_EDGE('',*,*,#162,.T.);
#799 = ORIENTED_EDGE('',*,*,#800,.T.);
#800 = EDGE_CURVE('',#155,#801,#803,.T.);
#801 = VERTEX_POINT('',#802);
#802 = CARTESIAN_POINT('',(166.58789123441,-121.5,21.550961894323));
#803 = LINE('',#804,#805);
#804 = CARTESIAN_POINT('',(169.18596744576,-121.5,23.050961894323));
#805 = VECTOR('',#806,1.);
#806 = DIRECTION('',(-0.866025403784,0.,-0.5));
#807 = ORIENTED_EDGE('',*,*,#808,.T.);
#808 = EDGE_CURVE('',#801,#775,#809,.T.);
#809 = LINE('',#810,#811);
#810 = CARTESIAN_POINT('',(166.58789123441,-121.5,21.550961894323));
#811 = VECTOR('',#812,1.);
#812 = DIRECTION('',(-0.5,0.,0.866025403784));
#813 = PLANE('',#814);
#814 = AXIS2_PLACEMENT_3D('',#815,#816,#817);
#815 = CARTESIAN_POINT('',(169.18596744576,-121.5,23.050961894323));
#816 = DIRECTION('',(0.,1.,0.));
#817 = DIRECTION('',(-0.866025403784,0.,-0.5));
#818 = ADVANCED_FACE('',(#819),#830,.F.);
#819 = FACE_BOUND('',#820,.F.);
#820 = EDGE_LOOP('',(#821,#822,#823,#824));
#821 = ORIENTED_EDGE('',*,*,#800,.F.);
#822 = ORIENTED_EDGE('',*,*,#154,.F.);
#823 = ORIENTED_EDGE('',*,*,#752,.T.);
#824 = ORIENTED_EDGE('',*,*,#825,.F.);
#825 = EDGE_CURVE('',#801,#753,#826,.T.);
#826 = LINE('',#827,#828);
#827 = CARTESIAN_POINT('',(166.58789123441,-121.5,21.550961894323));
#828 = VECTOR('',#829,1.);
#829 = DIRECTION('',(0.,1.,0.));
#830 = PLANE('',#831);
#831 = AXIS2_PLACEMENT_3D('',#832,#833,#834);
#832 = CARTESIAN_POINT('',(169.18596744576,-121.5,23.050961894323));
#833 = DIRECTION('',(-0.5,0.,0.866025403784));
#834 = DIRECTION('',(-0.866025403784,0.,-0.5));
#835 = ADVANCED_FACE('',(#836),#861,.T.);
#836 = FACE_BOUND('',#837,.T.);
#837 = EDGE_LOOP('',(#838,#846,#847,#855));
#838 = ORIENTED_EDGE('',*,*,#839,.F.);
#839 = EDGE_CURVE('',#180,#840,#842,.T.);
#840 = VERTEX_POINT('',#841);
#841 = CARTESIAN_POINT('',(213.41210876558,121.5,21.550961894323));
#842 = LINE('',#843,#844);
#843 = CARTESIAN_POINT('',(210.81403255423,121.5,23.050961894323));
#844 = VECTOR('',#845,1.);
#845 = DIRECTION('',(0.866025403784,0.,-0.5));
#846 = ORIENTED_EDGE('',*,*,#179,.T.);
#847 = ORIENTED_EDGE('',*,*,#848,.T.);
#848 = EDGE_CURVE('',#182,#849,#851,.T.);
#849 = VERTEX_POINT('',#850);
#850 = CARTESIAN_POINT('',(214.91210876558,121.5,24.149038105677));
#851 = LINE('',#852,#853);
#852 = CARTESIAN_POINT('',(212.31403255423,121.5,25.649038105677));
#853 = VECTOR('',#854,1.);
#854 = DIRECTION('',(0.866025403784,0.,-0.5));
#855 = ORIENTED_EDGE('',*,*,#856,.T.);
#856 = EDGE_CURVE('',#849,#840,#857,.T.);
#857 = LINE('',#858,#859);
#858 = CARTESIAN_POINT('',(214.91210876558,121.5,24.149038105677));
#859 = VECTOR('',#860,1.);
#860 = DIRECTION('',(-0.5,0.,-0.866025403784));
#861 = PLANE('',#862);
#862 = AXIS2_PLACEMENT_3D('',#863,#864,#865);
#863 = CARTESIAN_POINT('',(212.31403255423,121.5,25.649038105677));
#864 = DIRECTION('',(0.,1.,0.));
#865 = DIRECTION('',(0.866025403784,0.,-0.5));
#866 = ADVANCED_FACE('',(#867),#885,.T.);
#867 = FACE_BOUND('',#868,.T.);
#868 = EDGE_LOOP('',(#869,#877,#878,#879));
#869 = ORIENTED_EDGE('',*,*,#870,.F.);
#870 = EDGE_CURVE('',#199,#871,#873,.T.);
#871 = VERTEX_POINT('',#872);
#872 = CARTESIAN_POINT('',(213.41210876558,-121.5,21.550961894323));
#873 = LINE('',#874,#875);
#874 = CARTESIAN_POINT('',(210.81403255423,-121.5,23.050961894323));
#875 = VECTOR('',#876,1.);
#876 = DIRECTION('',(0.866025403784,0.,-0.5));
#877 = ORIENTED_EDGE('',*,*,#207,.F.);
#878 = ORIENTED_EDGE('',*,*,#839,.T.);
#879 = ORIENTED_EDGE('',*,*,#880,.F.);
#880 = EDGE_CURVE('',#871,#840,#881,.T.);
#881 = LINE('',#882,#883);
#882 = CARTESIAN_POINT('',(213.41210876558,-121.5,21.550961894323));
#883 = VECTOR('',#884,1.);
#884 = DIRECTION('',(0.,1.,0.));
#885 = PLANE('',#886);
#886 = AXIS2_PLACEMENT_3D('',#887,#888,#889);
#887 = CARTESIAN_POINT('',(210.81403255423,-121.5,23.050961894323));
#888 = DIRECTION('',(-0.5,0.,-0.866025403784));
#889 = DIRECTION('',(0.866025403784,0.,-0.5));
#890 = ADVANCED_FACE('',(#891),#909,.F.);
#891 = FACE_BOUND('',#892,.F.);
#892 = EDGE_LOOP('',(#893,#894,#895,#903));
#893 = ORIENTED_EDGE('',*,*,#870,.F.);
#894 = ORIENTED_EDGE('',*,*,#198,.T.);
#895 = ORIENTED_EDGE('',*,*,#896,.T.);
#896 = EDGE_CURVE('',#191,#897,#899,.T.);
#897 = VERTEX_POINT('',#898);
#898 = CARTESIAN_POINT('',(214.91210876558,-121.5,24.149038105677));
#899 = LINE('',#900,#901);
#900 = CARTESIAN_POINT('',(212.31403255423,-121.5,25.649038105677));
#901 = VECTOR('',#902,1.);
#902 = DIRECTION('',(0.866025403784,0.,-0.5));
#903 = ORIENTED_EDGE('',*,*,#904,.T.);
#904 = EDGE_CURVE('',#897,#871,#905,.T.);
#905 = LINE('',#906,#907);
#906 = CARTESIAN_POINT('',(214.91210876558,-121.5,24.149038105677));
#907 = VECTOR('',#908,1.);
#908 = DIRECTION('',(-0.5,0.,-0.866025403784));
#909 = PLANE('',#910);
#910 = AXIS2_PLACEMENT_3D('',#911,#912,#913);
#911 = CARTESIAN_POINT('',(212.31403255423,-121.5,25.649038105677));
#912 = DIRECTION('',(0.,1.,0.));
#913 = DIRECTION('',(0.866025403784,0.,-0.5));
#914 = ADVANCED_FACE('',(#915),#926,.F.);
#915 = FACE_BOUND('',#916,.F.);
#916 = EDGE_LOOP('',(#917,#918,#919,#920));
#917 = ORIENTED_EDGE('',*,*,#896,.F.);
#918 = ORIENTED_EDGE('',*,*,#190,.F.);
#919 = ORIENTED_EDGE('',*,*,#848,.T.);
#920 = ORIENTED_EDGE('',*,*,#921,.F.);
#921 = EDGE_CURVE('',#897,#849,#922,.T.);
#922 = LINE('',#923,#924);
#923 = CARTESIAN_POINT('',(214.91210876558,-121.5,24.149038105677));
#924 = VECTOR('',#925,1.);
#925 = DIRECTION('',(0.,1.,0.));
#926 = PLANE('',#927);
#927 = AXIS2_PLACEMENT_3D('',#928,#929,#930);
#928 = CARTESIAN_POINT('',(212.31403255423,-121.5,25.649038105677));
#929 = DIRECTION('',(-0.5,0.,-0.866025403784));
#930 = DIRECTION('',(0.866025403784,0.,-0.5));
#931 = ADVANCED_FACE('',(#932),#957,.T.);
#932 = FACE_BOUND('',#933,.T.);
#933 = EDGE_LOOP('',(#934,#942,#943,#951));
#934 = ORIENTED_EDGE('',*,*,#935,.F.);
#935 = EDGE_CURVE('',#216,#936,#938,.T.);
#936 = VERTEX_POINT('',#937);
#937 = CARTESIAN_POINT('',(202.65096189432,121.5,11.887891234414));
#938 = LINE('',#939,#940);
#939 = CARTESIAN_POINT('',(201.15096189432,121.5,14.485967445767));
#940 = VECTOR('',#941,1.);
#941 = DIRECTION('',(0.5,0.,-0.866025403784));
#942 = ORIENTED_EDGE('',*,*,#215,.T.);
#943 = ORIENTED_EDGE('',*,*,#944,.T.);
#944 = EDGE_CURVE('',#218,#945,#947,.T.);
#945 = VERTEX_POINT('',#946);
#946 = CARTESIAN_POINT('',(205.24903810567,121.5,13.387891234414));
#947 = LINE('',#948,#949);
#948 = CARTESIAN_POINT('',(203.74903810567,121.5,15.985967445767));
#949 = VECTOR('',#950,1.);
#950 = DIRECTION('',(0.5,0.,-0.866025403784));
#951 = ORIENTED_EDGE('',*,*,#952,.T.);
#952 = EDGE_CURVE('',#945,#936,#953,.T.);
#953 = LINE('',#954,#955);
#954 = CARTESIAN_POINT('',(205.24903810567,121.5,13.387891234414));
#955 = VECTOR('',#956,1.);
#956 = DIRECTION('',(-0.866025403784,0.,-0.5));
#957 = PLANE('',#958);
#958 = AXIS2_PLACEMENT_3D('',#959,#960,#961);
#959 = CARTESIAN_POINT('',(203.74903810567,121.5,15.985967445767));
#960 = DIRECTION('',(0.,1.,0.));
#961 = DIRECTION('',(0.5,0.,-0.866025403784));
#962 = ADVANCED_FACE('',(#963),#981,.T.);
#963 = FACE_BOUND('',#964,.T.);
#964 = EDGE_LOOP('',(#965,#973,#974,#975));
#965 = ORIENTED_EDGE('',*,*,#966,.F.);
#966 = EDGE_CURVE('',#235,#967,#969,.T.);
#967 = VERTEX_POINT('',#968);
#968 = CARTESIAN_POINT('',(202.65096189432,-121.5,11.887891234414));
#969 = LINE('',#970,#971);
#970 = CARTESIAN_POINT('',(201.15096189432,-121.5,14.485967445767));
#971 = VECTOR('',#972,1.);
#972 = DIRECTION('',(0.5,0.,-0.866025403784));
#973 = ORIENTED_EDGE('',*,*,#243,.F.);
#974 = ORIENTED_EDGE('',*,*,#935,.T.);
#975 = ORIENTED_EDGE('',*,*,#976,.F.);
#976 = EDGE_CURVE('',#967,#936,#977,.T.);
#977 = LINE('',#978,#979);
#978 = CARTESIAN_POINT('',(202.65096189432,-121.5,11.887891234414));
#979 = VECTOR('',#980,1.);
#980 = DIRECTION('',(0.,1.,0.));
#981 = PLANE('',#982);
#982 = AXIS2_PLACEMENT_3D('',#983,#984,#985);
#983 = CARTESIAN_POINT('',(201.15096189432,-121.5,14.485967445767));
#984 = DIRECTION('',(-0.866025403784,0.,-0.5));
#985 = DIRECTION('',(0.5,0.,-0.866025403784));
#986 = ADVANCED_FACE('',(#987),#1005,.F.);
#987 = FACE_BOUND('',#988,.F.);
#988 = EDGE_LOOP('',(#989,#990,#991,#999));
#989 = ORIENTED_EDGE('',*,*,#966,.F.);
#990 = ORIENTED_EDGE('',*,*,#234,.T.);
#991 = ORIENTED_EDGE('',*,*,#992,.T.);
#992 = EDGE_CURVE('',#227,#993,#995,.T.);
#993 = VERTEX_POINT('',#994);
#994 = CARTESIAN_POINT('',(205.24903810567,-121.5,13.387891234414));
#995 = LINE('',#996,#997);
#996 = CARTESIAN_POINT('',(203.74903810567,-121.5,15.985967445767));
#997 = VECTOR('',#998,1.);
#998 = DIRECTION('',(0.5,0.,-0.866025403784));
#999 = ORIENTED_EDGE('',*,*,#1000,.T.);
#1000 = EDGE_CURVE('',#993,#967,#1001,.T.);
#1001 = LINE('',#1002,#1003);
#1002 = CARTESIAN_POINT('',(205.24903810567,-121.5,13.387891234414));
#1003 = VECTOR('',#1004,1.);
#1004 = DIRECTION('',(-0.866025403784,0.,-0.5));
#1005 = PLANE('',#1006);
#1006 = AXIS2_PLACEMENT_3D('',#1007,#1008,#1009);
#1007 = CARTESIAN_POINT('',(203.74903810567,-121.5,15.985967445767));
#1008 = DIRECTION('',(0.,1.,0.));
#1009 = DIRECTION('',(0.5,0.,-0.866025403784));
#1010 = ADVANCED_FACE('',(#1011),#1022,.F.);
#1011 = FACE_BOUND('',#1012,.F.);
#1012 = EDGE_LOOP('',(#1013,#1014,#1015,#1016));
#1013 = ORIENTED_EDGE('',*,*,#992,.F.);
#1014 = ORIENTED_EDGE('',*,*,#226,.F.);
#1015 = ORIENTED_EDGE('',*,*,#944,.T.);
#1016 = ORIENTED_EDGE('',*,*,#1017,.F.);
#1017 = EDGE_CURVE('',#993,#945,#1018,.T.);
#1018 = LINE('',#1019,#1020);
#1019 = CARTESIAN_POINT('',(205.24903810567,-121.5,13.387891234414));
#1020 = VECTOR('',#1021,1.);
#1021 = DIRECTION('',(0.,1.,0.));
#1022 = PLANE('',#1023);
#1023 = AXIS2_PLACEMENT_3D('',#1024,#1025,#1026);
#1024 = CARTESIAN_POINT('',(203.74903810567,-121.5,15.985967445767));
#1025 = DIRECTION('',(-0.866025403784,0.,-0.5));
#1026 = DIRECTION('',(0.5,0.,-0.866025403784));
#1027 = ADVANCED_FACE('',(#1028),#1053,.T.);
#1028 = FACE_BOUND('',#1029,.T.);
#1029 = EDGE_LOOP('',(#1030,#1038,#1039,#1047));
#1030 = ORIENTED_EDGE('',*,*,#1031,.F.);
#1031 = EDGE_CURVE('',#252,#1032,#1034,.T.);
#1032 = VERTEX_POINT('',#1033);
#1033 = CARTESIAN_POINT('',(188.5,121.5,8.9));
#1034 = LINE('',#1035,#1036);
#1035 = CARTESIAN_POINT('',(188.5,121.5,11.9));
#1036 = VECTOR('',#1037,1.);
#1037 = DIRECTION('',(0.,0.,-1.));
#1038 = ORIENTED_EDGE('',*,*,#251,.T.);
#1039 = ORIENTED_EDGE('',*,*,#1040,.T.);
#1040 = EDGE_CURVE('',#254,#1041,#1043,.T.);
#1041 = VERTEX_POINT('',#1042);
#1042 = CARTESIAN_POINT('',(191.5,121.5,8.9));
#1043 = LINE('',#1044,#1045);
#1044 = CARTESIAN_POINT('',(191.5,121.5,11.9));
#1045 = VECTOR('',#1046,1.);
#1046 = DIRECTION('',(0.,0.,-1.));
#1047 = ORIENTED_EDGE('',*,*,#1048,.T.);
#1048 = EDGE_CURVE('',#1041,#1032,#1049,.T.);
#1049 = LINE('',#1050,#1051);
#1050 = CARTESIAN_POINT('',(191.5,121.5,8.9));
#1051 = VECTOR('',#1052,1.);
#1052 = DIRECTION('',(-1.,0.,0.));
#1053 = PLANE('',#1054);
#1054 = AXIS2_PLACEMENT_3D('',#1055,#1056,#1057);
#1055 = CARTESIAN_POINT('',(191.5,121.5,11.9));
#1056 = DIRECTION('',(0.,1.,0.));
#1057 = DIRECTION('',(0.,0.,-1.));
#1058 = ADVANCED_FACE('',(#1059),#1077,.T.);
#1059 = FACE_BOUND('',#1060,.T.);
#1060 = EDGE_LOOP('',(#1061,#1069,#1070,#1071));
#1061 = ORIENTED_EDGE('',*,*,#1062,.F.);
#1062 = EDGE_CURVE('',#271,#1063,#1065,.T.);
#1063 = VERTEX_POINT('',#1064);
#1064 = CARTESIAN_POINT('',(188.5,-121.5,8.9));
#1065 = LINE('',#1066,#1067);
#1066 = CARTESIAN_POINT('',(188.5,-121.5,11.9));
#1067 = VECTOR('',#1068,1.);
#1068 = DIRECTION('',(0.,0.,-1.));
#1069 = ORIENTED_EDGE('',*,*,#279,.F.);
#1070 = ORIENTED_EDGE('',*,*,#1031,.T.);
#1071 = ORIENTED_EDGE('',*,*,#1072,.F.);
#1072 = EDGE_CURVE('',#1063,#1032,#1073,.T.);
#1073 = LINE('',#1074,#1075);
#1074 = CARTESIAN_POINT('',(188.5,-121.5,8.9));
#1075 = VECTOR('',#1076,1.);
#1076 = DIRECTION('',(0.,1.,0.));
#1077 = PLANE('',#1078);
#1078 = AXIS2_PLACEMENT_3D('',#1079,#1080,#1081);
#1079 = CARTESIAN_POINT('',(188.5,-121.5,11.9));
#1080 = DIRECTION('',(-1.,0.,0.));
#1081 = DIRECTION('',(0.,0.,-1.));
#1082 = ADVANCED_FACE('',(#1083),#1101,.F.);
#1083 = FACE_BOUND('',#1084,.F.);
#1084 = EDGE_LOOP('',(#1085,#1086,#1087,#1095));
#1085 = ORIENTED_EDGE('',*,*,#1062,.F.);
#1086 = ORIENTED_EDGE('',*,*,#270,.T.);
#1087 = ORIENTED_EDGE('',*,*,#1088,.T.);
#1088 = EDGE_CURVE('',#263,#1089,#1091,.T.);
#1089 = VERTEX_POINT('',#1090);
#1090 = CARTESIAN_POINT('',(191.5,-121.5,8.9));
#1091 = LINE('',#1092,#1093);
#1092 = CARTESIAN_POINT('',(191.5,-121.5,11.9));
#1093 = VECTOR('',#1094,1.);
#1094 = DIRECTION('',(0.,0.,-1.));
#1095 = ORIENTED_EDGE('',*,*,#1096,.T.);
#1096 = EDGE_CURVE('',#1089,#1063,#1097,.T.);
#1097 = LINE('',#1098,#1099);
#1098 = CARTESIAN_POINT('',(191.5,-121.5,8.9));
#1099 = VECTOR('',#1100,1.);
#1100 = DIRECTION('',(-1.,0.,0.));
#1101 = PLANE('',#1102);
#1102 = AXIS2_PLACEMENT_3D('',#1103,#1104,#1105);
#1103 = CARTESIAN_POINT('',(191.5,-121.5,11.9));
#1104 = DIRECTION('',(0.,1.,0.));
#1105 = DIRECTION('',(0.,0.,-1.));
#1106 = ADVANCED_FACE('',(#1107),#1118,.F.);
#1107 = FACE_BOUND('',#1108,.F.);
#1108 = EDGE_LOOP('',(#1109,#1110,#1111,#1112));
#1109 = ORIENTED_EDGE('',*,*,#1088,.F.);
#1110 = ORIENTED_EDGE('',*,*,#262,.F.);
#1111 = ORIENTED_EDGE('',*,*,#1040,.T.);
#1112 = ORIENTED_EDGE('',*,*,#1113,.F.);
#1113 = EDGE_CURVE('',#1089,#1041,#1114,.T.);
#1114 = LINE('',#1115,#1116);
#1115 = CARTESIAN_POINT('',(191.5,-121.5,8.9));
#1116 = VECTOR('',#1117,1.);
#1117 = DIRECTION('',(0.,1.,0.));
#1118 = PLANE('',#1119);
#1119 = AXIS2_PLACEMENT_3D('',#1120,#1121,#1122);
#1120 = CARTESIAN_POINT('',(191.5,-121.5,11.9));
#1121 = DIRECTION('',(-1.,0.,0.));
#1122 = DIRECTION('',(0.,0.,-1.));
#1123 = ADVANCED_FACE('',(#1124),#1149,.T.);
#1124 = FACE_BOUND('',#1125,.T.);
#1125 = EDGE_LOOP('',(#1126,#1134,#1135,#1143));
#1126 = ORIENTED_EDGE('',*,*,#1127,.F.);
#1127 = EDGE_CURVE('',#288,#1128,#1130,.T.);
#1128 = VERTEX_POINT('',#1129);
#1129 = CARTESIAN_POINT('',(162.1,121.5,38.3));
#1130 = LINE('',#1131,#1132);
#1131 = CARTESIAN_POINT('',(165.1,121.5,38.3));
#1132 = VECTOR('',#1133,1.);
#1133 = DIRECTION('',(-1.,0.,0.));
#1134 = ORIENTED_EDGE('',*,*,#287,.T.);
#1135 = ORIENTED_EDGE('',*,*,#1136,.T.);
#1136 = EDGE_CURVE('',#290,#1137,#1139,.T.);
#1137 = VERTEX_POINT('',#1138);
#1138 = CARTESIAN_POINT('',(162.1,121.5,35.3));
#1139 = LINE('',#1140,#1141);
#1140 = CARTESIAN_POINT('',(165.1,121.5,35.3));
#1141 = VECTOR('',#1142,1.);
#1142 = DIRECTION('',(-1.,0.,0.));
#1143 = ORIENTED_EDGE('',*,*,#1144,.T.);
#1144 = EDGE_CURVE('',#1137,#1128,#1145,.T.);
#1145 = LINE('',#1146,#1147);
#1146 = CARTESIAN_POINT('',(162.1,121.5,35.3));
#1147 = VECTOR('',#1148,1.);
#1148 = DIRECTION('',(0.,0.,1.));
#1149 = PLANE('',#1150);
#1150 = AXIS2_PLACEMENT_3D('',#1151,#1152,#1153);
#1151 = CARTESIAN_POINT('',(165.1,121.5,35.3));
#1152 = DIRECTION('',(0.,1.,0.));
#1153 = DIRECTION('',(-1.,0.,0.));
#1154 = ADVANCED_FACE('',(#1155),#1173,.T.);
#1155 = FACE_BOUND('',#1156,.T.);
#1156 = EDGE_LOOP('',(#1157,#1165,#1166,#1167));
#1157 = ORIENTED_EDGE('',*,*,#1158,.F.);
#1158 = EDGE_CURVE('',#307,#1159,#1161,.T.);
#1159 = VERTEX_POINT('',#1160);
#1160 = CARTESIAN_POINT('',(162.1,-121.5,38.3));
#1161 = LINE('',#1162,#1163);
#1162 = CARTESIAN_POINT('',(165.1,-121.5,38.3));
#1163 = VECTOR('',#1164,1.);
#1164 = DIRECTION('',(-1.,0.,0.));
#1165 = ORIENTED_EDGE('',*,*,#315,.F.);
#1166 = ORIENTED_EDGE('',*,*,#1127,.T.);
#1167 = ORIENTED_EDGE('',*,*,#1168,.F.);
#1168 = EDGE_CURVE('',#1159,#1128,#1169,.T.);
#1169 = LINE('',#1170,#1171);
#1170 = CARTESIAN_POINT('',(162.1,-121.5,38.3));
#1171 = VECTOR('',#1172,1.);
#1172 = DIRECTION('',(0.,1.,0.));
#1173 = PLANE('',#1174);
#1174 = AXIS2_PLACEMENT_3D('',#1175,#1176,#1177);
#1175 = CARTESIAN_POINT('',(165.1,-121.5,38.3));
#1176 = DIRECTION('',(0.,0.,1.));
#1177 = DIRECTION('',(-1.,0.,0.));
#1178 = ADVANCED_FACE('',(#1179),#1197,.F.);
#1179 = FACE_BOUND('',#1180,.F.);
#1180 = EDGE_LOOP('',(#1181,#1182,#1183,#1191));
#1181 = ORIENTED_EDGE('',*,*,#1158,.F.);
#1182 = ORIENTED_EDGE('',*,*,#306,.T.);
#1183 = ORIENTED_EDGE('',*,*,#1184,.T.);
#1184 = EDGE_CURVE('',#299,#1185,#1187,.T.);
#1185 = VERTEX_POINT('',#1186);
#1186 = CARTESIAN_POINT('',(162.1,-121.5,35.3));
#1187 = LINE('',#1188,#1189);
#1188 = CARTESIAN_POINT('',(165.1,-121.5,35.3));
#1189 = VECTOR('',#1190,1.);
#1190 = DIRECTION('',(-1.,0.,0.));
#1191 = ORIENTED_EDGE('',*,*,#1192,.T.);
#1192 = EDGE_CURVE('',#1185,#1159,#1193,.T.);
#1193 = LINE('',#1194,#1195);
#1194 = CARTESIAN_POINT('',(162.1,-121.5,35.3));
#1195 = VECTOR('',#1196,1.);
#1196 = DIRECTION('',(0.,0.,1.));
#1197 = PLANE('',#1198);
#1198 = AXIS2_PLACEMENT_3D('',#1199,#1200,#1201);
#1199 = CARTESIAN_POINT('',(165.1,-121.5,35.3));
#1200 = DIRECTION('',(0.,1.,0.));
#1201 = DIRECTION('',(-1.,0.,0.));
#1202 = ADVANCED_FACE('',(#1203),#1214,.F.);
#1203 = FACE_BOUND('',#1204,.F.);
#1204 = EDGE_LOOP('',(#1205,#1206,#1207,#1208));
#1205 = ORIENTED_EDGE('',*,*,#1184,.F.);
#1206 = ORIENTED_EDGE('',*,*,#298,.F.);
#1207 = ORIENTED_EDGE('',*,*,#1136,.T.);
#1208 = ORIENTED_EDGE('',*,*,#1209,.F.);
#1209 = EDGE_CURVE('',#1185,#1137,#1210,.T.);
#1210 = LINE('',#1211,#1212);
#1211 = CARTESIAN_POINT('',(162.1,-121.5,35.3));
#1212 = VECTOR('',#1213,1.);
#1213 = DIRECTION('',(0.,1.,0.));
#1214 = PLANE('',#1215);
#1215 = AXIS2_PLACEMENT_3D('',#1216,#1217,#1218);
#1216 = CARTESIAN_POINT('',(165.1,-121.5,35.3));
#1217 = DIRECTION('',(0.,0.,1.));
#1218 = DIRECTION('',(-1.,0.,0.));
#1219 = ADVANCED_FACE('',(#1220),#1245,.T.);
#1220 = FACE_BOUND('',#1221,.T.);
#1221 = EDGE_LOOP('',(#1222,#1230,#1231,#1239));
#1222 = ORIENTED_EDGE('',*,*,#1223,.F.);
#1223 = EDGE_CURVE('',#324,#1224,#1226,.T.);
#1224 = VERTEX_POINT('',#1225);
#1225 = CARTESIAN_POINT('',(166.58789123441,121.5,52.049038105677));
#1226 = LINE('',#1227,#1228);
#1227 = CARTESIAN_POINT('',(169.18596744576,121.5,50.549038105677));
#1228 = VECTOR('',#1229,1.);
#1229 = DIRECTION('',(-0.866025403784,0.,0.5));
#1230 = ORIENTED_EDGE('',*,*,#323,.T.);
#1231 = ORIENTED_EDGE('',*,*,#1232,.T.);
#1232 = EDGE_CURVE('',#326,#1233,#1235,.T.);
#1233 = VERTEX_POINT('',#1234);
#1234 = CARTESIAN_POINT('',(165.08789123441,121.5,49.450961894323));
#1235 = LINE('',#1236,#1237);
#1236 = CARTESIAN_POINT('',(167.68596744576,121.5,47.950961894323));
#1237 = VECTOR('',#1238,1.);
#1238 = DIRECTION('',(-0.866025403784,0.,0.5));
#1239 = ORIENTED_EDGE('',*,*,#1240,.T.);
#1240 = EDGE_CURVE('',#1233,#1224,#1241,.T.);
#1241 = LINE('',#1242,#1243);
#1242 = CARTESIAN_POINT('',(165.08789123441,121.5,49.450961894323));
#1243 = VECTOR('',#1244,1.);
#1244 = DIRECTION('',(0.5,0.,0.866025403784));
#1245 = PLANE('',#1246);
#1246 = AXIS2_PLACEMENT_3D('',#1247,#1248,#1249);
#1247 = CARTESIAN_POINT('',(167.68596744576,121.5,47.950961894323));
#1248 = DIRECTION('',(0.,1.,0.));
#1249 = DIRECTION('',(-0.866025403784,0.,0.5));
#1250 = ADVANCED_FACE('',(#1251),#1269,.T.);
#1251 = FACE_BOUND('',#1252,.T.);
#1252 = EDGE_LOOP('',(#1253,#1261,#1262,#1263));
#1253 = ORIENTED_EDGE('',*,*,#1254,.F.);
#1254 = EDGE_CURVE('',#343,#1255,#1257,.T.);
#1255 = VERTEX_POINT('',#1256);
#1256 = CARTESIAN_POINT('',(166.58789123441,-121.5,52.049038105677));
#1257 = LINE('',#1258,#1259);
#1258 = CARTESIAN_POINT('',(169.18596744576,-121.5,50.549038105677));
#1259 = VECTOR('',#1260,1.);
#1260 = DIRECTION('',(-0.866025403784,0.,0.5));
#1261 = ORIENTED_EDGE('',*,*,#351,.F.);
#1262 = ORIENTED_EDGE('',*,*,#1223,.T.);
#1263 = ORIENTED_EDGE('',*,*,#1264,.F.);
#1264 = EDGE_CURVE('',#1255,#1224,#1265,.T.);
#1265 = LINE('',#1266,#1267);
#1266 = CARTESIAN_POINT('',(166.58789123441,-121.5,52.049038105677));
#1267 = VECTOR('',#1268,1.);
#1268 = DIRECTION('',(0.,1.,0.));
#1269 = PLANE('',#1270);
#1270 = AXIS2_PLACEMENT_3D('',#1271,#1272,#1273);
#1271 = CARTESIAN_POINT('',(169.18596744576,-121.5,50.549038105677));
#1272 = DIRECTION('',(0.5,0.,0.866025403784));
#1273 = DIRECTION('',(-0.866025403784,0.,0.5));
#1274 = ADVANCED_FACE('',(#1275),#1293,.F.);
#1275 = FACE_BOUND('',#1276,.F.);
#1276 = EDGE_LOOP('',(#1277,#1278,#1279,#1287));
#1277 = ORIENTED_EDGE('',*,*,#1254,.F.);
#1278 = ORIENTED_EDGE('',*,*,#342,.T.);
#1279 = ORIENTED_EDGE('',*,*,#1280,.T.);
#1280 = EDGE_CURVE('',#335,#1281,#1283,.T.);
#1281 = VERTEX_POINT('',#1282);
#1282 = CARTESIAN_POINT('',(165.08789123441,-121.5,49.450961894323));
#1283 = LINE('',#1284,#1285);
#1284 = CARTESIAN_POINT('',(167.68596744576,-121.5,47.950961894323));
#1285 = VECTOR('',#1286,1.);
#1286 = DIRECTION('',(-0.866025403784,0.,0.5));
#1287 = ORIENTED_EDGE('',*,*,#1288,.T.);
#1288 = EDGE_CURVE('',#1281,#1255,#1289,.T.);
#1289 = LINE('',#1290,#1291);
#1290 = CARTESIAN_POINT('',(165.08789123441,-121.5,49.450961894323));
#1291 = VECTOR('',#1292,1.);
#1292 = DIRECTION('',(0.5,0.,0.866025403784));
#1293 = PLANE('',#1294);
#1294 = AXIS2_PLACEMENT_3D('',#1295,#1296,#1297);
#1295 = CARTESIAN_POINT('',(167.68596744576,-121.5,47.950961894323));
#1296 = DIRECTION('',(0.,1.,0.));
#1297 = DIRECTION('',(-0.866025403784,0.,0.5));
#1298 = ADVANCED_FACE('',(#1299),#1310,.F.);
#1299 = FACE_BOUND('',#1300,.F.);
#1300 = EDGE_LOOP('',(#1301,#1302,#1303,#1304));
#1301 = ORIENTED_EDGE('',*,*,#1280,.F.);
#1302 = ORIENTED_EDGE('',*,*,#334,.F.);
#1303 = ORIENTED_EDGE('',*,*,#1232,.T.);
#1304 = ORIENTED_EDGE('',*,*,#1305,.F.);
#1305 = EDGE_CURVE('',#1281,#1233,#1306,.T.);
#1306 = LINE('',#1307,#1308);
#1307 = CARTESIAN_POINT('',(165.08789123441,-121.5,49.450961894323));
#1308 = VECTOR('',#1309,1.);
#1309 = DIRECTION('',(0.,1.,0.));
#1310 = PLANE('',#1311);
#1311 = AXIS2_PLACEMENT_3D('',#1312,#1313,#1314);
#1312 = CARTESIAN_POINT('',(167.68596744576,-121.5,47.950961894323));
#1313 = DIRECTION('',(0.5,0.,0.866025403784));
#1314 = DIRECTION('',(-0.866025403784,0.,0.5));
#1315 = ADVANCED_FACE('',(#1316),#1341,.T.);
#1316 = FACE_BOUND('',#1317,.T.);
#1317 = EDGE_LOOP('',(#1318,#1326,#1327,#1335));
#1318 = ORIENTED_EDGE('',*,*,#1319,.F.);
#1319 = EDGE_CURVE('',#360,#1320,#1322,.T.);
#1320 = VERTEX_POINT('',#1321);
#1321 = CARTESIAN_POINT('',(177.34903810567,121.5,61.712108765586));
#1322 = LINE('',#1323,#1324);
#1323 = CARTESIAN_POINT('',(178.84903810567,121.5,59.114032554233));
#1324 = VECTOR('',#1325,1.);
#1325 = DIRECTION('',(-0.5,0.,0.866025403784));
#1326 = ORIENTED_EDGE('',*,*,#359,.T.);
#1327 = ORIENTED_EDGE('',*,*,#1328,.T.);
#1328 = EDGE_CURVE('',#362,#1329,#1331,.T.);
#1329 = VERTEX_POINT('',#1330);
#1330 = CARTESIAN_POINT('',(174.75096189432,121.5,60.212108765586));
#1331 = LINE('',#1332,#1333);
#1332 = CARTESIAN_POINT('',(176.25096189432,121.5,57.614032554233));
#1333 = VECTOR('',#1334,1.);
#1334 = DIRECTION('',(-0.5,0.,0.866025403784));
#1335 = ORIENTED_EDGE('',*,*,#1336,.T.);
#1336 = EDGE_CURVE('',#1329,#1320,#1337,.T.);
#1337 = LINE('',#1338,#1339);
#1338 = CARTESIAN_POINT('',(174.75096189432,121.5,60.212108765586));
#1339 = VECTOR('',#1340,1.);
#1340 = DIRECTION('',(0.866025403784,0.,0.5));
#1341 = PLANE('',#1342);
#1342 = AXIS2_PLACEMENT_3D('',#1343,#1344,#1345);
#1343 = CARTESIAN_POINT('',(176.25096189432,121.5,57.614032554233));
#1344 = DIRECTION('',(0.,1.,0.));
#1345 = DIRECTION('',(-0.5,0.,0.866025403784));
#1346 = ADVANCED_FACE('',(#1347),#1365,.T.);
#1347 = FACE_BOUND('',#1348,.T.);
#1348 = EDGE_LOOP('',(#1349,#1357,#1358,#1359));
#1349 = ORIENTED_EDGE('',*,*,#1350,.F.);
#1350 = EDGE_CURVE('',#379,#1351,#1353,.T.);
#1351 = VERTEX_POINT('',#1352);
#1352 = CARTESIAN_POINT('',(177.34903810567,-121.5,61.712108765586));
#1353 = LINE('',#1354,#1355);
#1354 = CARTESIAN_POINT('',(178.84903810567,-121.5,59.114032554233));
#1355 = VECTOR('',#1356,1.);
#1356 = DIRECTION('',(-0.5,0.,0.866025403784));
#1357 = ORIENTED_EDGE('',*,*,#387,.F.);
#1358 = ORIENTED_EDGE('',*,*,#1319,.T.);
#1359 = ORIENTED_EDGE('',*,*,#1360,.F.);
#1360 = EDGE_CURVE('',#1351,#1320,#1361,.T.);
#1361 = LINE('',#1362,#1363);
#1362 = CARTESIAN_POINT('',(177.34903810567,-121.5,61.712108765586));
#1363 = VECTOR('',#1364,1.);
#1364 = DIRECTION('',(0.,1.,0.));
#1365 = PLANE('',#1366);
#1366 = AXIS2_PLACEMENT_3D('',#1367,#1368,#1369);
#1367 = CARTESIAN_POINT('',(178.84903810567,-121.5,59.114032554233));
#1368 = DIRECTION('',(0.866025403784,0.,0.5));
#1369 = DIRECTION('',(-0.5,0.,0.866025403784));
#1370 = ADVANCED_FACE('',(#1371),#1389,.F.);
#1371 = FACE_BOUND('',#1372,.F.);
#1372 = EDGE_LOOP('',(#1373,#1374,#1375,#1383));
#1373 = ORIENTED_EDGE('',*,*,#1350,.F.);
#1374 = ORIENTED_EDGE('',*,*,#378,.T.);
#1375 = ORIENTED_EDGE('',*,*,#1376,.T.);
#1376 = EDGE_CURVE('',#371,#1377,#1379,.T.);
#1377 = VERTEX_POINT('',#1378);
#1378 = CARTESIAN_POINT('',(174.75096189432,-121.5,60.212108765586));
#1379 = LINE('',#1380,#1381);
#1380 = CARTESIAN_POINT('',(176.25096189432,-121.5,57.614032554233));
#1381 = VECTOR('',#1382,1.);
#1382 = DIRECTION('',(-0.5,0.,0.866025403784));
#1383 = ORIENTED_EDGE('',*,*,#1384,.T.);
#1384 = EDGE_CURVE('',#1377,#1351,#1385,.T.);
#1385 = LINE('',#1386,#1387);
#1386 = CARTESIAN_POINT('',(174.75096189432,-121.5,60.212108765586));
#1387 = VECTOR('',#1388,1.);
#1388 = DIRECTION('',(0.866025403784,0.,0.5));
#1389 = PLANE('',#1390);
#1390 = AXIS2_PLACEMENT_3D('',#1391,#1392,#1393);
#1391 = CARTESIAN_POINT('',(176.25096189432,-121.5,57.614032554233));
#1392 = DIRECTION('',(0.,1.,0.));
#1393 = DIRECTION('',(-0.5,0.,0.866025403784));
#1394 = ADVANCED_FACE('',(#1395),#1406,.F.);
#1395 = FACE_BOUND('',#1396,.F.);
#1396 = EDGE_LOOP('',(#1397,#1398,#1399,#1400));
#1397 = ORIENTED_EDGE('',*,*,#1376,.F.);
#1398 = ORIENTED_EDGE('',*,*,#370,.F.);
#1399 = ORIENTED_EDGE('',*,*,#1328,.T.);
#1400 = ORIENTED_EDGE('',*,*,#1401,.F.);
#1401 = EDGE_CURVE('',#1377,#1329,#1402,.T.);
#1402 = LINE('',#1403,#1404);
#1403 = CARTESIAN_POINT('',(174.75096189432,-121.5,60.212108765586));
#1404 = VECTOR('',#1405,1.);
#1405 = DIRECTION('',(0.,1.,0.));
#1406 = PLANE('',#1407);
#1407 = AXIS2_PLACEMENT_3D('',#1408,#1409,#1410);
#1408 = CARTESIAN_POINT('',(176.25096189432,-121.5,57.614032554233));
#1409 = DIRECTION('',(0.866025403784,0.,0.5));
#1410 = DIRECTION('',(-0.5,0.,0.866025403784));
#1411 = ADVANCED_FACE('',(#1412),#1437,.T.);
#1412 = FACE_BOUND('',#1413,.T.);
#1413 = EDGE_LOOP('',(#1414,#1422,#1423,#1431));
#1414 = ORIENTED_EDGE('',*,*,#1415,.F.);
#1415 = EDGE_CURVE('',#396,#1416,#1418,.T.);
#1416 = VERTEX_POINT('',#1417);
#1417 = CARTESIAN_POINT('',(191.5,121.5,64.7));
#1418 = LINE('',#1419,#1420);
#1419 = CARTESIAN_POINT('',(191.5,121.5,61.7));
#1420 = VECTOR('',#1421,1.);
#1421 = DIRECTION('',(0.,0.,1.));
#1422 = ORIENTED_EDGE('',*,*,#395,.T.);
#1423 = ORIENTED_EDGE('',*,*,#1424,.T.);
#1424 = EDGE_CURVE('',#398,#1425,#1427,.T.);
#1425 = VERTEX_POINT('',#1426);
#1426 = CARTESIAN_POINT('',(188.5,121.5,64.7));
#1427 = LINE('',#1428,#1429);
#1428 = CARTESIAN_POINT('',(188.5,121.5,61.7));
#1429 = VECTOR('',#1430,1.);
#1430 = DIRECTION('',(0.,0.,1.));
#1431 = ORIENTED_EDGE('',*,*,#1432,.T.);
#1432 = EDGE_CURVE('',#1425,#1416,#1433,.T.);
#1433 = LINE('',#1434,#1435);
#1434 = CARTESIAN_POINT('',(188.5,121.5,64.7));
#1435 = VECTOR('',#1436,1.);
#1436 = DIRECTION('',(1.,0.,0.));
#1437 = PLANE('',#1438);
#1438 = AXIS2_PLACEMENT_3D('',#1439,#1440,#1441);
#1439 = CARTESIAN_POINT('',(188.5,121.5,61.7));
#1440 = DIRECTION('',(0.,1.,0.));
#1441 = DIRECTION('',(0.,0.,1.));
#1442 = ADVANCED_FACE('',(#1443),#1461,.T.);
#1443 = FACE_BOUND('',#1444,.T.);
#1444 = EDGE_LOOP('',(#1445,#1453,#1454,#1455));
#1445 = ORIENTED_EDGE('',*,*,#1446,.F.);
#1446 = EDGE_CURVE('',#415,#1447,#1449,.T.);
#1447 = VERTEX_POINT('',#1448);
#1448 = CARTESIAN_POINT('',(191.5,-121.5,64.7));
#1449 = LINE('',#1450,#1451);
#1450 = CARTESIAN_POINT('',(191.5,-121.5,61.7));
#1451 = VECTOR('',#1452,1.);
#1452 = DIRECTION('',(0.,0.,1.));
#1453 = ORIENTED_EDGE('',*,*,#423,.F.);
#1454 = ORIENTED_EDGE('',*,*,#1415,.T.);
#1455 = ORIENTED_EDGE('',*,*,#1456,.F.);
#1456 = EDGE_CURVE('',#1447,#1416,#1457,.T.);
#1457 = LINE('',#1458,#1459);
#1458 = CARTESIAN_POINT('',(191.5,-121.5,64.7));
#1459 = VECTOR('',#1460,1.);
#1460 = DIRECTION('',(0.,1.,0.));
#1461 = PLANE('',#1462);
#1462 = AXIS2_PLACEMENT_3D('',#1463,#1464,#1465);
#1463 = CARTESIAN_POINT('',(191.5,-121.5,61.7));
#1464 = DIRECTION('',(1.,0.,0.));
#1465 = DIRECTION('',(0.,0.,1.));
#1466 = ADVANCED_FACE('',(#1467),#1485,.F.);
#1467 = FACE_BOUND('',#1468,.F.);
#1468 = EDGE_LOOP('',(#1469,#1470,#1471,#1479));
#1469 = ORIENTED_EDGE('',*,*,#1446,.F.);
#1470 = ORIENTED_EDGE('',*,*,#414,.T.);
#1471 = ORIENTED_EDGE('',*,*,#1472,.T.);
#1472 = EDGE_CURVE('',#407,#1473,#1475,.T.);
#1473 = VERTEX_POINT('',#1474);
#1474 = CARTESIAN_POINT('',(188.5,-121.5,64.7));
#1475 = LINE('',#1476,#1477);
#1476 = CARTESIAN_POINT('',(188.5,-121.5,61.7));
#1477 = VECTOR('',#1478,1.);
#1478 = DIRECTION('',(0.,0.,1.));
#1479 = ORIENTED_EDGE('',*,*,#1480,.T.);
#1480 = EDGE_CURVE('',#1473,#1447,#1481,.T.);
#1481 = LINE('',#1482,#1483);
#1482 = CARTESIAN_POINT('',(188.5,-121.5,64.7));
#1483 = VECTOR('',#1484,1.);
#1484 = DIRECTION('',(1.,0.,0.));
#1485 = PLANE('',#1486);
#1486 = AXIS2_PLACEMENT_3D('',#1487,#1488,#1489);
#1487 = CARTESIAN_POINT('',(188.5,-121.5,61.7));
#1488 = DIRECTION('',(0.,1.,0.));
#1489 = DIRECTION('',(0.,0.,1.));
#1490 = ADVANCED_FACE('',(#1491),#1502,.F.);
#1491 = FACE_BOUND('',#1492,.F.);
#1492 = EDGE_LOOP('',(#1493,#1494,#1495,#1496));
#1493 = ORIENTED_EDGE('',*,*,#1472,.F.);
#1494 = ORIENTED_EDGE('',*,*,#406,.F.);
#1495 = ORIENTED_EDGE('',*,*,#1424,.T.);
#1496 = ORIENTED_EDGE('',*,*,#1497,.F.);
#1497 = EDGE_CURVE('',#1473,#1425,#1498,.T.);
#1498 = LINE('',#1499,#1500);
#1499 = CARTESIAN_POINT('',(188.5,-121.5,64.7));
#1500 = VECTOR('',#1501,1.);
#1501 = DIRECTION('',(0.,1.,0.));
#1502 = PLANE('',#1503);
#1503 = AXIS2_PLACEMENT_3D('',#1504,#1505,#1506);
#1504 = CARTESIAN_POINT('',(188.5,-121.5,61.7));
#1505 = DIRECTION('',(1.,0.,0.));
#1506 = DIRECTION('',(0.,0.,1.));
#1507 = ADVANCED_FACE('',(#1508),#1533,.T.);
#1508 = FACE_BOUND('',#1509,.T.);
#1509 = EDGE_LOOP('',(#1510,#1518,#1519,#1527));
#1510 = ORIENTED_EDGE('',*,*,#1511,.F.);
#1511 = EDGE_CURVE('',#432,#1512,#1514,.T.);
#1512 = VERTEX_POINT('',#1513);
#1513 = CARTESIAN_POINT('',(205.24903810567,121.5,60.212108765586));
#1514 = LINE('',#1515,#1516);
#1515 = CARTESIAN_POINT('',(203.74903810567,121.5,57.614032554233));
#1516 = VECTOR('',#1517,1.);
#1517 = DIRECTION('',(0.5,0.,0.866025403784));
#1518 = ORIENTED_EDGE('',*,*,#431,.T.);
#1519 = ORIENTED_EDGE('',*,*,#1520,.T.);
#1520 = EDGE_CURVE('',#434,#1521,#1523,.T.);
#1521 = VERTEX_POINT('',#1522);
#1522 = CARTESIAN_POINT('',(202.65096189432,121.5,61.712108765586));
#1523 = LINE('',#1524,#1525);
#1524 = CARTESIAN_POINT('',(201.15096189432,121.5,59.114032554233));
#1525 = VECTOR('',#1526,1.);
#1526 = DIRECTION('',(0.5,0.,0.866025403784));
#1527 = ORIENTED_EDGE('',*,*,#1528,.T.);
#1528 = EDGE_CURVE('',#1521,#1512,#1529,.T.);
#1529 = LINE('',#1530,#1531);
#1530 = CARTESIAN_POINT('',(202.65096189432,121.5,61.712108765586));
#1531 = VECTOR('',#1532,1.);
#1532 = DIRECTION('',(0.866025403784,0.,-0.5));
#1533 = PLANE('',#1534);
#1534 = AXIS2_PLACEMENT_3D('',#1535,#1536,#1537);
#1535 = CARTESIAN_POINT('',(201.15096189432,121.5,59.114032554233));
#1536 = DIRECTION('',(0.,1.,0.));
#1537 = DIRECTION('',(0.5,0.,0.866025403784));
#1538 = ADVANCED_FACE('',(#1539),#1557,.T.);
#1539 = FACE_BOUND('',#1540,.T.);
#1540 = EDGE_LOOP('',(#1541,#1549,#1550,#1551));
#1541 = ORIENTED_EDGE('',*,*,#1542,.F.);
#1542 = EDGE_CURVE('',#451,#1543,#1545,.T.);
#1543 = VERTEX_POINT('',#1544);
#1544 = CARTESIAN_POINT('',(205.24903810567,-121.5,60.212108765586));
#1545 = LINE('',#1546,#1547);
#1546 = CARTESIAN_POINT('',(203.74903810567,-121.5,57.614032554233));
#1547 = VECTOR('',#1548,1.);
#1548 = DIRECTION('',(0.5,0.,0.866025403784));
#1549 = ORIENTED_EDGE('',*,*,#459,.F.);
#1550 = ORIENTED_EDGE('',*,*,#1511,.T.);
#1551 = ORIENTED_EDGE('',*,*,#1552,.F.);
#1552 = EDGE_CURVE('',#1543,#1512,#1553,.T.);
#1553 = LINE('',#1554,#1555);
#1554 = CARTESIAN_POINT('',(205.24903810567,-121.5,60.212108765586));
#1555 = VECTOR('',#1556,1.);
#1556 = DIRECTION('',(0.,1.,0.));
#1557 = PLANE('',#1558);
#1558 = AXIS2_PLACEMENT_3D('',#1559,#1560,#1561);
#1559 = CARTESIAN_POINT('',(203.74903810567,-121.5,57.614032554233));
#1560 = DIRECTION('',(0.866025403784,0.,-0.5));
#1561 = DIRECTION('',(0.5,0.,0.866025403784));
#1562 = ADVANCED_FACE('',(#1563),#1581,.F.);
#1563 = FACE_BOUND('',#1564,.F.);
#1564 = EDGE_LOOP('',(#1565,#1566,#1567,#1575));
#1565 = ORIENTED_EDGE('',*,*,#1542,.F.);
#1566 = ORIENTED_EDGE('',*,*,#450,.T.);
#1567 = ORIENTED_EDGE('',*,*,#1568,.T.);
#1568 = EDGE_CURVE('',#443,#1569,#1571,.T.);
#1569 = VERTEX_POINT('',#1570);
#1570 = CARTESIAN_POINT('',(202.65096189432,-121.5,61.712108765586));
#1571 = LINE('',#1572,#1573);
#1572 = CARTESIAN_POINT('',(201.15096189432,-121.5,59.114032554233));
#1573 = VECTOR('',#1574,1.);
#1574 = DIRECTION('',(0.5,0.,0.866025403784));
#1575 = ORIENTED_EDGE('',*,*,#1576,.T.);
#1576 = EDGE_CURVE('',#1569,#1543,#1577,.T.);
#1577 = LINE('',#1578,#1579);
#1578 = CARTESIAN_POINT('',(202.65096189432,-121.5,61.712108765586));
#1579 = VECTOR('',#1580,1.);
#1580 = DIRECTION('',(0.866025403784,0.,-0.5));
#1581 = PLANE('',#1582);
#1582 = AXIS2_PLACEMENT_3D('',#1583,#1584,#1585);
#1583 = CARTESIAN_POINT('',(201.15096189432,-121.5,59.114032554233));
#1584 = DIRECTION('',(0.,1.,0.));
#1585 = DIRECTION('',(0.5,0.,0.866025403784));
#1586 = ADVANCED_FACE('',(#1587),#1598,.F.);
#1587 = FACE_BOUND('',#1588,.F.);
#1588 = EDGE_LOOP('',(#1589,#1590,#1591,#1592));
#1589 = ORIENTED_EDGE('',*,*,#1568,.F.);
#1590 = ORIENTED_EDGE('',*,*,#442,.F.);
#1591 = ORIENTED_EDGE('',*,*,#1520,.T.);
#1592 = ORIENTED_EDGE('',*,*,#1593,.F.);
#1593 = EDGE_CURVE('',#1569,#1521,#1594,.T.);
#1594 = LINE('',#1595,#1596);
#1595 = CARTESIAN_POINT('',(202.65096189432,-121.5,61.712108765586));
#1596 = VECTOR('',#1597,1.);
#1597 = DIRECTION('',(0.,1.,0.));
#1598 = PLANE('',#1599);
#1599 = AXIS2_PLACEMENT_3D('',#1600,#1601,#1602);
#1600 = CARTESIAN_POINT('',(201.15096189432,-121.5,59.114032554233));
#1601 = DIRECTION('',(0.866025403784,0.,-0.5));
#1602 = DIRECTION('',(0.5,0.,0.866025403784));
#1603 = ADVANCED_FACE('',(#1604),#1629,.T.);
#1604 = FACE_BOUND('',#1605,.T.);
#1605 = EDGE_LOOP('',(#1606,#1614,#1615,#1623));
#1606 = ORIENTED_EDGE('',*,*,#1607,.F.);
#1607 = EDGE_CURVE('',#468,#1608,#1610,.T.);
#1608 = VERTEX_POINT('',#1609);
#1609 = CARTESIAN_POINT('',(214.91210876558,121.5,49.450961894323));
#1610 = LINE('',#1611,#1612);
#1611 = CARTESIAN_POINT('',(212.31403255423,121.5,47.950961894323));
#1612 = VECTOR('',#1613,1.);
#1613 = DIRECTION('',(0.866025403784,0.,0.5));
#1614 = ORIENTED_EDGE('',*,*,#467,.T.);
#1615 = ORIENTED_EDGE('',*,*,#1616,.T.);
#1616 = EDGE_CURVE('',#470,#1617,#1619,.T.);
#1617 = VERTEX_POINT('',#1618);
#1618 = CARTESIAN_POINT('',(213.41210876558,121.5,52.049038105677));
#1619 = LINE('',#1620,#1621);
#1620 = CARTESIAN_POINT('',(210.81403255423,121.5,50.549038105677));
#1621 = VECTOR('',#1622,1.);
#1622 = DIRECTION('',(0.866025403784,0.,0.5));
#1623 = ORIENTED_EDGE('',*,*,#1624,.T.);
#1624 = EDGE_CURVE('',#1617,#1608,#1625,.T.);
#1625 = LINE('',#1626,#1627);
#1626 = CARTESIAN_POINT('',(213.41210876558,121.5,52.049038105677));
#1627 = VECTOR('',#1628,1.);
#1628 = DIRECTION('',(0.5,0.,-0.866025403784));
#1629 = PLANE('',#1630);
#1630 = AXIS2_PLACEMENT_3D('',#1631,#1632,#1633);
#1631 = CARTESIAN_POINT('',(210.81403255423,121.5,50.549038105677));
#1632 = DIRECTION('',(0.,1.,0.));
#1633 = DIRECTION('',(0.866025403784,0.,0.5));
#1634 = ADVANCED_FACE('',(#1635),#1653,.T.);
#1635 = FACE_BOUND('',#1636,.T.);
#1636 = EDGE_LOOP('',(#1637,#1645,#1646,#1647));
#1637 = ORIENTED_EDGE('',*,*,#1638,.F.);
#1638 = EDGE_CURVE('',#487,#1639,#1641,.T.);
#1639 = VERTEX_POINT('',#1640);
#1640 = CARTESIAN_POINT('',(214.91210876558,-121.5,49.450961894323));
#1641 = LINE('',#1642,#1643);
#1642 = CARTESIAN_POINT('',(212.31403255423,-121.5,47.950961894323));
#1643 = VECTOR('',#1644,1.);
#1644 = DIRECTION('',(0.866025403784,0.,0.5));
#1645 = ORIENTED_EDGE('',*,*,#495,.F.);
#1646 = ORIENTED_EDGE('',*,*,#1607,.T.);
#1647 = ORIENTED_EDGE('',*,*,#1648,.F.);
#1648 = EDGE_CURVE('',#1639,#1608,#1649,.T.);
#1649 = LINE('',#1650,#1651);
#1650 = CARTESIAN_POINT('',(214.91210876558,-121.5,49.450961894323));
#1651 = VECTOR('',#1652,1.);
#1652 = DIRECTION('',(0.,1.,0.));
#1653 = PLANE('',#1654);
#1654 = AXIS2_PLACEMENT_3D('',#1655,#1656,#1657);
#1655 = CARTESIAN_POINT('',(212.31403255423,-121.5,47.950961894323));
#1656 = DIRECTION('',(0.5,0.,-0.866025403784));
#1657 = DIRECTION('',(0.866025403784,0.,0.5));
#1658 = ADVANCED_FACE('',(#1659),#1677,.F.);
#1659 = FACE_BOUND('',#1660,.F.);
#1660 = EDGE_LOOP('',(#1661,#1662,#1663,#1671));
#1661 = ORIENTED_EDGE('',*,*,#1638,.F.);
#1662 = ORIENTED_EDGE('',*,*,#486,.T.);
#1663 = ORIENTED_EDGE('',*,*,#1664,.T.);
#1664 = EDGE_CURVE('',#479,#1665,#1667,.T.);
#1665 = VERTEX_POINT('',#1666);
#1666 = CARTESIAN_POINT('',(213.41210876558,-121.5,52.049038105677));
#1667 = LINE('',#1668,#1669);
#1668 = CARTESIAN_POINT('',(210.81403255423,-121.5,50.549038105677));
#1669 = VECTOR('',#1670,1.);
#1670 = DIRECTION('',(0.866025403784,0.,0.5));
#1671 = ORIENTED_EDGE('',*,*,#1672,.T.);
#1672 = EDGE_CURVE('',#1665,#1639,#1673,.T.);
#1673 = LINE('',#1674,#1675);
#1674 = CARTESIAN_POINT('',(213.41210876558,-121.5,52.049038105677));
#1675 = VECTOR('',#1676,1.);
#1676 = DIRECTION('',(0.5,0.,-0.866025403784));
#1677 = PLANE('',#1678);
#1678 = AXIS2_PLACEMENT_3D('',#1679,#1680,#1681);
#1679 = CARTESIAN_POINT('',(210.81403255423,-121.5,50.549038105677));
#1680 = DIRECTION('',(0.,1.,0.));
#1681 = DIRECTION('',(0.866025403784,0.,0.5));
#1682 = ADVANCED_FACE('',(#1683),#1694,.F.);
#1683 = FACE_BOUND('',#1684,.F.);
#1684 = EDGE_LOOP('',(#1685,#1686,#1687,#1688));
#1685 = ORIENTED_EDGE('',*,*,#1664,.F.);
#1686 = ORIENTED_EDGE('',*,*,#478,.F.);
#1687 = ORIENTED_EDGE('',*,*,#1616,.T.);
#1688 = ORIENTED_EDGE('',*,*,#1689,.F.);
#1689 = EDGE_CURVE('',#1665,#1617,#1690,.T.);
#1690 = LINE('',#1691,#1692);
#1691 = CARTESIAN_POINT('',(213.41210876558,-121.5,52.049038105677));
#1692 = VECTOR('',#1693,1.);
#1693 = DIRECTION('',(0.,1.,0.));
#1694 = PLANE('',#1695);
#1695 = AXIS2_PLACEMENT_3D('',#1696,#1697,#1698);
#1696 = CARTESIAN_POINT('',(210.81403255423,-121.5,50.549038105677));
#1697 = DIRECTION('',(0.5,0.,-0.866025403784));
#1698 = DIRECTION('',(0.866025403784,0.,0.5));
#1699 = ADVANCED_FACE('',(#1700),#1711,.F.);
#1700 = FACE_BOUND('',#1701,.T.);
#1701 = EDGE_LOOP('',(#1702,#1703,#1709,#1710));
#1702 = ORIENTED_EDGE('',*,*,#512,.T.);
#1703 = ORIENTED_EDGE('',*,*,#1704,.T.);
#1704 = EDGE_CURVE('',#513,#614,#1705,.T.);
#1705 = LINE('',#1706,#1707);
#1706 = CARTESIAN_POINT('',(194.8,-128.5,36.8));
#1707 = VECTOR('',#1708,1.);
#1708 = DIRECTION('',(0.,1.,0.));
#1709 = ORIENTED_EDGE('',*,*,#613,.F.);
#1710 = ORIENTED_EDGE('',*,*,#1704,.F.);
#1711 = CYLINDRICAL_SURFACE('',#1712,4.8);
#1712 = AXIS2_PLACEMENT_3D('',#1713,#1714,#1715);
#1713 = CARTESIAN_POINT('',(190.,-128.5,36.8));
#1714 = DIRECTION('',(-0.,-1.,0.));
#1715 = DIRECTION('',(1.,0.,0.));
#1716 = ADVANCED_FACE('',(#1717),#1723,.T.);
#1717 = FACE_BOUND('',#1718,.T.);
#1718 = EDGE_LOOP('',(#1719,#1720,#1721,#1722));
#1719 = ORIENTED_EDGE('',*,*,#571,.F.);
#1720 = ORIENTED_EDGE('',*,*,#547,.T.);
#1721 = ORIENTED_EDGE('',*,*,#633,.T.);
#1722 = ORIENTED_EDGE('',*,*,#596,.F.);
#1723 = PLANE('',#1724);
#1724 = AXIS2_PLACEMENT_3D('',#1725,#1726,#1727);
#1725 = CARTESIAN_POINT('',(217.9,-121.5,38.3));
#1726 = DIRECTION('',(1.,0.,0.));
#1727 = DIRECTION('',(0.,0.,-1.));
#1728 = ADVANCED_FACE('',(#1729),#1735,.T.);
#1729 = FACE_BOUND('',#1730,.T.);
#1730 = EDGE_LOOP('',(#1731,#1732,#1733,#1734));
#1731 = ORIENTED_EDGE('',*,*,#729,.F.);
#1732 = ORIENTED_EDGE('',*,*,#712,.T.);
#1733 = ORIENTED_EDGE('',*,*,#688,.T.);
#1734 = ORIENTED_EDGE('',*,*,#664,.F.);
#1735 = PLANE('',#1736);
#1736 = AXIS2_PLACEMENT_3D('',#1737,#1738,#1739);
#1737 = CARTESIAN_POINT('',(177.34903810567,-121.5,11.887891234414));
#1738 = DIRECTION('',(-0.5,0.,-0.866025403784));
#1739 = DIRECTION('',(-0.866025403784,0.,0.5));
#1740 = ADVANCED_FACE('',(#1741),#1747,.T.);
#1741 = FACE_BOUND('',#1742,.T.);
#1742 = EDGE_LOOP('',(#1743,#1744,#1745,#1746));
#1743 = ORIENTED_EDGE('',*,*,#825,.F.);
#1744 = ORIENTED_EDGE('',*,*,#808,.T.);
#1745 = ORIENTED_EDGE('',*,*,#784,.T.);
#1746 = ORIENTED_EDGE('',*,*,#760,.F.);
#1747 = PLANE('',#1748);
#1748 = AXIS2_PLACEMENT_3D('',#1749,#1750,#1751);
#1749 = CARTESIAN_POINT('',(166.58789123441,-121.5,21.550961894323));
#1750 = DIRECTION('',(-0.866025403784,0.,-0.5));
#1751 = DIRECTION('',(-0.5,0.,0.866025403784));
#1752 = ADVANCED_FACE('',(#1753),#1759,.T.);
#1753 = FACE_BOUND('',#1754,.T.);
#1754 = EDGE_LOOP('',(#1755,#1756,#1757,#1758));
#1755 = ORIENTED_EDGE('',*,*,#921,.F.);
#1756 = ORIENTED_EDGE('',*,*,#904,.T.);
#1757 = ORIENTED_EDGE('',*,*,#880,.T.);
#1758 = ORIENTED_EDGE('',*,*,#856,.F.);
#1759 = PLANE('',#1760);
#1760 = AXIS2_PLACEMENT_3D('',#1761,#1762,#1763);
#1761 = CARTESIAN_POINT('',(214.91210876558,-121.5,24.149038105677));
#1762 = DIRECTION('',(0.866025403784,0.,-0.5));
#1763 = DIRECTION('',(-0.5,0.,-0.866025403784));
#1764 = ADVANCED_FACE('',(#1765),#1771,.T.);
#1765 = FACE_BOUND('',#1766,.T.);
#1766 = EDGE_LOOP('',(#1767,#1768,#1769,#1770));
#1767 = ORIENTED_EDGE('',*,*,#1017,.F.);
#1768 = ORIENTED_EDGE('',*,*,#1000,.T.);
#1769 = ORIENTED_EDGE('',*,*,#976,.T.);
#1770 = ORIENTED_EDGE('',*,*,#952,.F.);
#1771 = PLANE('',#1772);
#1772 = AXIS2_PLACEMENT_3D('',#1773,#1774,#1775);
#1773 = CARTESIAN_POINT('',(205.24903810567,-121.5,13.387891234414));
#1774 = DIRECTION('',(0.5,0.,-0.866025403784));
#1775 = DIRECTION('',(-0.866025403784,0.,-0.5));
#1776 = ADVANCED_FACE('',(#1777),#1783,.T.);
#1777 = FACE_BOUND('',#1778,.T.);
#1778 = EDGE_LOOP('',(#1779,#1780,#1781,#1782));
#1779 = ORIENTED_EDGE('',*,*,#1113,.F.);
#1780 = ORIENTED_EDGE('',*,*,#1096,.T.);
#1781 = ORIENTED_EDGE('',*,*,#1072,.T.);
#1782 = ORIENTED_EDGE('',*,*,#1048,.F.);
#1783 = PLANE('',#1784);
#1784 = AXIS2_PLACEMENT_3D('',#1785,#1786,#1787);
#1785 = CARTESIAN_POINT('',(191.5,-121.5,8.9));
#1786 = DIRECTION('',(0.,0.,-1.));
#1787 = DIRECTION('',(-1.,0.,0.));
#1788 = ADVANCED_FACE('',(#1789),#1795,.T.);
#1789 = FACE_BOUND('',#1790,.T.);
#1790 = EDGE_LOOP('',(#1791,#1792,#1793,#1794));
#1791 = ORIENTED_EDGE('',*,*,#1209,.F.);
#1792 = ORIENTED_EDGE('',*,*,#1192,.T.);
#1793 = ORIENTED_EDGE('',*,*,#1168,.T.);
#1794 = ORIENTED_EDGE('',*,*,#1144,.F.);
#1795 = PLANE('',#1796);
#1796 = AXIS2_PLACEMENT_3D('',#1797,#1798,#1799);
#1797 = CARTESIAN_POINT('',(162.1,-121.5,35.3));
#1798 = DIRECTION('',(-1.,0.,0.));
#1799 = DIRECTION('',(0.,0.,1.));
#1800 = ADVANCED_FACE('',(#1801),#1807,.T.);
#1801 = FACE_BOUND('',#1802,.T.);
#1802 = EDGE_LOOP('',(#1803,#1804,#1805,#1806));
#1803 = ORIENTED_EDGE('',*,*,#1305,.F.);
#1804 = ORIENTED_EDGE('',*,*,#1288,.T.);
#1805 = ORIENTED_EDGE('',*,*,#1264,.T.);
#1806 = ORIENTED_EDGE('',*,*,#1240,.F.);
#1807 = PLANE('',#1808);
#1808 = AXIS2_PLACEMENT_3D('',#1809,#1810,#1811);
#1809 = CARTESIAN_POINT('',(165.08789123441,-121.5,49.450961894323));
#1810 = DIRECTION('',(-0.866025403784,0.,0.5));
#1811 = DIRECTION('',(0.5,0.,0.866025403784));
#1812 = ADVANCED_FACE('',(#1813),#1819,.T.);
#1813 = FACE_BOUND('',#1814,.T.);
#1814 = EDGE_LOOP('',(#1815,#1816,#1817,#1818));
#1815 = ORIENTED_EDGE('',*,*,#1401,.F.);
#1816 = ORIENTED_EDGE('',*,*,#1384,.T.);
#1817 = ORIENTED_EDGE('',*,*,#1360,.T.);
#1818 = ORIENTED_EDGE('',*,*,#1336,.F.);
#1819 = PLANE('',#1820);
#1820 = AXIS2_PLACEMENT_3D('',#1821,#1822,#1823);
#1821 = CARTESIAN_POINT('',(174.75096189432,-121.5,60.212108765586));
#1822 = DIRECTION('',(-0.5,0.,0.866025403784));
#1823 = DIRECTION('',(0.866025403784,0.,0.5));
#1824 = ADVANCED_FACE('',(#1825),#1831,.T.);
#1825 = FACE_BOUND('',#1826,.T.);
#1826 = EDGE_LOOP('',(#1827,#1828,#1829,#1830));
#1827 = ORIENTED_EDGE('',*,*,#1497,.F.);
#1828 = ORIENTED_EDGE('',*,*,#1480,.T.);
#1829 = ORIENTED_EDGE('',*,*,#1456,.T.);
#1830 = ORIENTED_EDGE('',*,*,#1432,.F.);
#1831 = PLANE('',#1832);
#1832 = AXIS2_PLACEMENT_3D('',#1833,#1834,#1835);
#1833 = CARTESIAN_POINT('',(188.5,-121.5,64.7));
#1834 = DIRECTION('',(0.,0.,1.));
#1835 = DIRECTION('',(1.,0.,0.));
#1836 = ADVANCED_FACE('',(#1837),#1843,.T.);
#1837 = FACE_BOUND('',#1838,.T.);
#1838 = EDGE_LOOP('',(#1839,#1840,#1841,#1842));
#1839 = ORIENTED_EDGE('',*,*,#1593,.F.);
#1840 = ORIENTED_EDGE('',*,*,#1576,.T.);
#1841 = ORIENTED_EDGE('',*,*,#1552,.T.);
#1842 = ORIENTED_EDGE('',*,*,#1528,.F.);
#1843 = PLANE('',#1844);
#1844 = AXIS2_PLACEMENT_3D('',#1845,#1846,#1847);
#1845 = CARTESIAN_POINT('',(202.65096189432,-121.5,61.712108765586));
#1846 = DIRECTION('',(0.5,0.,0.866025403784));
#1847 = DIRECTION('',(0.866025403784,0.,-0.5));
#1848 = ADVANCED_FACE('',(#1849),#1855,.T.);
#1849 = FACE_BOUND('',#1850,.T.);
#1850 = EDGE_LOOP('',(#1851,#1852,#1853,#1854));
#1851 = ORIENTED_EDGE('',*,*,#1689,.F.);
#1852 = ORIENTED_EDGE('',*,*,#1672,.T.);
#1853 = ORIENTED_EDGE('',*,*,#1648,.T.);
#1854 = ORIENTED_EDGE('',*,*,#1624,.F.);
#1855 = PLANE('',#1856);
#1856 = AXIS2_PLACEMENT_3D('',#1857,#1858,#1859);
#1857 = CARTESIAN_POINT('',(213.41210876558,-121.5,52.049038105677));
#1858 = DIRECTION('',(0.866025403784,0.,0.5));
#1859 = DIRECTION('',(0.5,0.,-0.866025403784));
#1860 = ( GEOMETRIC_REPRESENTATION_CONTEXT(3) 
GLOBAL_UNCERTAINTY_ASSIGNED_CONTEXT((#1864)) 
GLOBAL_UNIT_ASSIGNED_CONTEXT((#1861,#1862,#1863)) REPRESENTATION_CONTEXT
('Context #1','3D Context with UNIT and UNCERTAINTY') );
#1861 = ( LENGTH_UNIT() NAMED_UNIT(*) SI_UNIT(.MILLI.,.METRE.) );
#1862 = ( NAMED_UNIT(*) PLANE_ANGLE_UNIT() SI_UNIT($,.RADIAN.) );
#1863 = ( NAMED_UNIT(*) SI_UNIT($,.STERADIAN.) SOLID_ANGLE_UNIT() );
#1864 = UNCERTAINTY_MEASURE_WITH_UNIT(LENGTH_MEASURE(1.E-07),#1861,
  'distance_accuracy_value','confusion accuracy');
#1865 = PRODUCT_RELATED_PRODUCT_CATEGORY('part',$,(#7));
ENDSEC;
END-ISO-10303-21;
