ISO-10303-21;
HEADER;
FILE_DESCRIPTION(('FreeCAD Model'),'2;1');
FILE_NAME('Open CASCADE Shape Model','2026-09-30T03:00:36',('Author'),(
    ''),'Open CASCADE STEP processor 7.8','FreeCAD','Unknown');
FILE_SCHEMA(('AUTOMOTIVE_DESIGN { 1 0 10303 214 1 1 1 1 }'));
ENDSEC;
DATA;
#1 = APPLICATION_PROTOCOL_DEFINITION('international standard',
  'automotive_design',2000,#2);
#2 = APPLICATION_CONTEXT(
  'core data for automotive mechanical design processes');
#3 = SHAPE_DEFINITION_REPRESENTATION(#4,#10);
#4 = PRODUCT_DEFINITION_SHAPE('','',#5);
#5 = PRODUCT_DEFINITION('design','',#6,#9);
#6 = PRODUCT_DEFINITION_FORMATION('','',#7);
#7 = PRODUCT('master_robot','master_robot','',(#8));
#8 = PRODUCT_CONTEXT('',#2,'mechanical');
#9 = PRODUCT_DEFINITION_CONTEXT('part definition',#2,'design');
#10 = SHAPE_REPRESENTATION('',(#11,#15,#19,#23,#27,#31,#35,#39,#43,#47,
    #51,#55,#59,#63,#67,#71,#75),#79);
#11 = AXIS2_PLACEMENT_3D('',#12,#13,#14);
#12 = CARTESIAN_POINT('',(0.,0.,0.));
#13 = DIRECTION('',(0.,0.,1.));
#14 = DIRECTION('',(1.,0.,-0.));
#15 = AXIS2_PLACEMENT_3D('',#16,#17,#18);
#16 = CARTESIAN_POINT('',(0.,0.,0.));
#17 = DIRECTION('',(0.,0.,1.));
#18 = DIRECTION('',(1.,0.,0.));
#19 = AXIS2_PLACEMENT_3D('',#20,#21,#22);
#20 = CARTESIAN_POINT('',(-165.,155.,240.));
#21 = DIRECTION('',(0.238511207481,9.024748391162E-02,0.966937327625));
#22 = DIRECTION('',(0.971078084037,-1.094342766165E-02,-0.238511207481)
  );
#23 = AXIS2_PLACEMENT_3D('',#24,#25,#26);
#24 = CARTESIAN_POINT('',(-146.5,162.,315.));
#25 = DIRECTION('',(0.224859506699,-0.,0.974391195695));
#26 = DIRECTION('',(0.974391195695,0.,-0.224859506699));
#27 = AXIS2_PLACEMENT_3D('',#28,#29,#30);
#28 = CARTESIAN_POINT('',(-145.,162.,321.5));
#29 = DIRECTION('',(-0.379556356256,0.,0.925168618375));
#30 = DIRECTION('',(0.925168618375,0.,0.379556356256));
#31 = AXIS2_PLACEMENT_3D('',#32,#33,#34);
#32 = CARTESIAN_POINT('',(-148.2,162.,329.3));
#33 = DIRECTION('',(-0.925168618375,0.,0.379556356256));
#34 = DIRECTION('',(0.379556356256,0.,0.925168618375));
#35 = AXIS2_PLACEMENT_3D('',#36,#37,#38);
#36 = CARTESIAN_POINT('',(-156.,162.,332.5));
#37 = DIRECTION('',(-0.925168618375,0.,-0.379556356256));
#38 = DIRECTION('',(-0.379556356256,0.,0.925168618375));
#39 = AXIS2_PLACEMENT_3D('',#40,#41,#42);
#40 = CARTESIAN_POINT('',(-163.8,162.,329.3));
#41 = DIRECTION('',(-0.428584206872,0.,-0.903501841514));
#42 = DIRECTION('',(-0.903501841514,0.,0.428584206872));
#43 = AXIS2_PLACEMENT_3D('',#44,#45,#46);
#44 = CARTESIAN_POINT('',(-167.5,162.,321.5));
#45 = DIRECTION('',(0.417101691826,0.78911130886,-0.45092074792));
#46 = DIRECTION('',(0.683153532636,-0.59943926258,-0.417101691826));
#47 = AXIS2_PLACEMENT_3D('',#48,#49,#50);
#48 = CARTESIAN_POINT('',(-163.8,169.,317.5));
#49 = DIRECTION('',(-0.72953720414,0.683941128881,0.));
#50 = DIRECTION('',(0.467775467775,0.49896049896,0.72953720414));
#51 = AXIS2_PLACEMENT_3D('',#52,#53,#54);
#52 = CARTESIAN_POINT('',(-167.,172.,317.5));
#53 = DIRECTION('',(-0.953944501123,-0.2543852003,-0.158990750187));
#54 = DIRECTION('',(-8.204530619139E-02,-0.288545414984,0.953944501123)
  );
#55 = AXIS2_PLACEMENT_3D('',#56,#57,#58);
#56 = CARTESIAN_POINT('',(0.,0.,0.));
#57 = DIRECTION('',(0.,0.,1.));
#58 = DIRECTION('',(1.,0.,0.));
#59 = AXIS2_PLACEMENT_3D('',#60,#61,#62);
#60 = CARTESIAN_POINT('',(-199.5,162.,302.));
#61 = DIRECTION('',(0.359732267716,0.,-0.933055569387));
#62 = DIRECTION('',(-0.933055569387,0.,-0.359732267716));
#63 = AXIS2_PLACEMENT_3D('',#64,#65,#66);
#64 = CARTESIAN_POINT('',(-196.3,162.,293.7));
#65 = DIRECTION('',(0.94498607344,0.,-0.327110563883));
#66 = DIRECTION('',(-0.327110563883,0.,-0.94498607344));
#67 = AXIS2_PLACEMENT_3D('',#68,#69,#70);
#68 = CARTESIAN_POINT('',(-188.5,162.,291.));
#69 = DIRECTION('',(0.94498607344,-0.,0.327110563883));
#70 = DIRECTION('',(0.327110563883,0.,-0.94498607344));
#71 = AXIS2_PLACEMENT_3D('',#72,#73,#74);
#72 = CARTESIAN_POINT('',(-180.7,162.,293.7));
#73 = DIRECTION('',(0.359732267716,-0.,0.933055569387));
#74 = DIRECTION('',(0.933055569387,0.,-0.359732267716));
#75 = AXIS2_PLACEMENT_3D('',#76,#77,#78);
#76 = CARTESIAN_POINT('',(-177.5,162.,302.));
#77 = DIRECTION('',(0.775880177444,0.564276492687,0.282138246343));
#78 = DIRECTION('',(0.530479609771,-0.341469374712,-0.775880177444));
#79 = ( GEOMETRIC_REPRESENTATION_CONTEXT(3) 
GLOBAL_UNCERTAINTY_ASSIGNED_CONTEXT((#83)) GLOBAL_UNIT_ASSIGNED_CONTEXT(
(#80,#81,#82)) REPRESENTATION_CONTEXT('Context #1',
  '3D Context with UNIT and UNCERTAINTY') );
#80 = ( LENGTH_UNIT() NAMED_UNIT(*) SI_UNIT(.MILLI.,.METRE.) );
#81 = ( NAMED_UNIT(*) PLANE_ANGLE_UNIT() SI_UNIT($,.RADIAN.) );
#82 = ( NAMED_UNIT(*) SI_UNIT($,.STERADIAN.) SOLID_ANGLE_UNIT() );
#83 = UNCERTAINTY_MEASURE_WITH_UNIT(LENGTH_MEASURE(5.E-06),#80,
  'distance_accuracy_value','confusion accuracy');
#84 = PRODUCT_RELATED_PRODUCT_CATEGORY('part',$,(#7));
#85 = SHAPE_DEFINITION_REPRESENTATION(#86,#92);
#86 = PRODUCT_DEFINITION_SHAPE('','',#87);
#87 = PRODUCT_DEFINITION('design','',#88,#91);
#88 = PRODUCT_DEFINITION_FORMATION('','',#89);
#89 = PRODUCT('ROPE_DYNEEMA_0','ROPE_DYNEEMA_0','',(#90));
#90 = PRODUCT_CONTEXT('',#2,'mechanical');
#91 = PRODUCT_DEFINITION_CONTEXT('part definition',#2,'design');
#92 = ADVANCED_BREP_SHAPE_REPRESENTATION('',(#11,#93),#242);
#93 = MANIFOLD_SOLID_BREP('',#94);
#94 = CLOSED_SHELL('',(#95,#164,#173,#208,#223,#233));
#95 = ADVANCED_FACE('',(#96),#159,.T.);
#96 = FACE_BOUND('',#97,.F.);
#97 = EDGE_LOOP('',(#98,#107,#115,#124,#133,#142,#151,#158));
#98 = ORIENTED_EDGE('',*,*,#99,.F.);
#99 = EDGE_CURVE('',#100,#100,#102,.T.);
#100 = VERTEX_POINT('',#101);
#101 = CARTESIAN_POINT('',(-146.5642047532,159.92144881168,
    101.60531992676));
#102 = CIRCLE('',#103,0.75);
#103 = AXIS2_PLACEMENT_3D('',#104,#105,#106);
#104 = CARTESIAN_POINT('',(-147.,160.,101.));
#105 = DIRECTION('',(-0.807093235689,-0.201773308922,0.554876599536));
#106 = DIRECTION('',(0.581060328975,-0.104734917756,0.807093235689));
#107 = ORIENTED_EDGE('',*,*,#108,.T.);
#108 = EDGE_CURVE('',#100,#109,#111,.T.);
#109 = VERTEX_POINT('',#110);
#110 = CARTESIAN_POINT('',(-162.2560578415,155.99848553962,
    112.39346892493));
#111 = LINE('',#112,#113);
#112 = CARTESIAN_POINT('',(-146.5642047532,159.92144881168,
    101.60531992676));
#113 = VECTOR('',#114,1.);
#114 = DIRECTION('',(-0.807093235689,-0.201773308922,0.554876599536));
#115 = ORIENTED_EDGE('',*,*,#116,.F.);
#116 = EDGE_CURVE('',#117,#109,#119,.T.);
#117 = VERTEX_POINT('',#118);
#118 = CARTESIAN_POINT('',(-162.2781656583,156.17689656405,
    112.40582079853));
#119 = ELLIPSE('',#120,0.846774900254,0.75);
#120 = AXIS2_PLACEMENT_3D('',#121,#122,#123);
#121 = CARTESIAN_POINT('',(-163.,156.,112.));
#122 = DIRECTION('',(0.464436755703,0.118313995494,-0.877667532966));
#123 = DIRECTION('',(0.852451272992,0.208906244157,0.479254638294));
#124 = ORIENTED_EDGE('',*,*,#125,.F.);
#125 = EDGE_CURVE('',#126,#117,#128,.T.);
#126 = VERTEX_POINT('',#127);
#127 = CARTESIAN_POINT('',(-163.1800395692,156.72806420632,
    112.00287488334));
#128 = ELLIPSE('',#129,0.846774900254,0.75);
#129 = AXIS2_PLACEMENT_3D('',#130,#131,#132);
#130 = CARTESIAN_POINT('',(-163.,156.,112.));
#131 = DIRECTION('',(0.464436755703,0.118313995494,-0.877667532966));
#132 = DIRECTION('',(0.852451272992,0.208906244157,0.479254638294));
#133 = ORIENTED_EDGE('',*,*,#134,.T.);
#134 = EDGE_CURVE('',#126,#135,#137,.T.);
#135 = VERTEX_POINT('',#136);
#136 = CARTESIAN_POINT('',(-162.8199604307,155.27193579367,
    111.99712511665));
#137 = CIRCLE('',#138,0.75);
#138 = AXIS2_PLACEMENT_3D('',#139,#140,#141);
#139 = CARTESIAN_POINT('',(-163.,156.,112.));
#140 = DIRECTION('',(-0.807093235689,-0.201773308922,0.554876599536));
#141 = DIRECTION('',(0.581060328975,-0.104734917756,0.807093235689));
#142 = ORIENTED_EDGE('',*,*,#143,.F.);
#143 = EDGE_CURVE('',#144,#135,#146,.T.);
#144 = VERTEX_POINT('',#145);
#145 = CARTESIAN_POINT('',(-162.2560532589,155.99697337051,
    112.39326750191));
#146 = ELLIPSE('',#147,0.846774900254,0.75);
#147 = AXIS2_PLACEMENT_3D('',#148,#149,#150);
#148 = CARTESIAN_POINT('',(-163.,156.,112.));
#149 = DIRECTION('',(0.464436755703,0.118313995494,-0.877667532966));
#150 = DIRECTION('',(0.852451272992,0.208906244157,0.479254638294));
#151 = ORIENTED_EDGE('',*,*,#152,.F.);
#152 = EDGE_CURVE('',#109,#144,#153,.T.);
#153 = ELLIPSE('',#154,0.846774900254,0.75);
#154 = AXIS2_PLACEMENT_3D('',#155,#156,#157);
#155 = CARTESIAN_POINT('',(-163.,156.,112.));
#156 = DIRECTION('',(0.464436755703,0.118313995494,-0.877667532966));
#157 = DIRECTION('',(0.852451272992,0.208906244157,0.479254638294));
#158 = ORIENTED_EDGE('',*,*,#108,.F.);
#159 = CYLINDRICAL_SURFACE('',#160,0.75);
#160 = AXIS2_PLACEMENT_3D('',#161,#162,#163);
#161 = CARTESIAN_POINT('',(-147.,160.,101.));
#162 = DIRECTION('',(0.807093235689,0.201773308922,-0.554876599536));
#163 = DIRECTION('',(0.581060328975,-0.104734917756,0.807093235689));
#164 = ADVANCED_FACE('',(#165),#168,.F.);
#165 = FACE_BOUND('',#166,.T.);
#166 = EDGE_LOOP('',(#167));
#167 = ORIENTED_EDGE('',*,*,#99,.F.);
#168 = PLANE('',#169);
#169 = AXIS2_PLACEMENT_3D('',#170,#171,#172);
#170 = CARTESIAN_POINT('',(-147.,160.,101.));
#171 = DIRECTION('',(-0.807093235689,-0.201773308922,0.554876599536));
#172 = DIRECTION('',(0.581060328975,-0.104734917756,0.807093235689));
#173 = ADVANCED_FACE('',(#174),#203,.T.);
#174 = FACE_BOUND('',#175,.F.);
#175 = EDGE_LOOP('',(#176,#177,#185,#192,#193,#194,#201,#202));
#176 = ORIENTED_EDGE('',*,*,#152,.T.);
#177 = ORIENTED_EDGE('',*,*,#178,.T.);
#178 = EDGE_CURVE('',#144,#179,#181,.T.);
#179 = VERTEX_POINT('',#180);
#180 = CARTESIAN_POINT('',(-164.2500915317,154.9999542341,
    240.01171696227));
#181 = LINE('',#182,#183);
#182 = CARTESIAN_POINT('',(-162.2500915317,155.9999542341,
    112.01171696227));
#183 = VECTOR('',#184,1.);
#184 = DIRECTION('',(-1.562261635976E-02,-7.811308179882E-03,
    0.999847447025));
#185 = ORIENTED_EDGE('',*,*,#186,.T.);
#186 = EDGE_CURVE('',#179,#179,#187,.T.);
#187 = CIRCLE('',#188,0.75);
#188 = AXIS2_PLACEMENT_3D('',#189,#190,#191);
#189 = CARTESIAN_POINT('',(-164.9999999999,155.,240.));
#190 = DIRECTION('',(-1.562261635976E-02,-7.811308179882E-03,
    0.999847447025));
#191 = DIRECTION('',(0.99987795762,-6.1021189963E-05,1.562261635976E-02)
  );
#192 = ORIENTED_EDGE('',*,*,#178,.F.);
#193 = ORIENTED_EDGE('',*,*,#143,.T.);
#194 = ORIENTED_EDGE('',*,*,#195,.F.);
#195 = EDGE_CURVE('',#126,#135,#196,.T.);
#196 = CIRCLE('',#197,0.75);
#197 = AXIS2_PLACEMENT_3D('',#198,#199,#200);
#198 = CARTESIAN_POINT('',(-163.,156.,112.));
#199 = DIRECTION('',(-1.562261635976E-02,-7.811308179882E-03,
    0.999847447025));
#200 = DIRECTION('',(0.99987795762,-6.1021189963E-05,1.562261635976E-02)
  );
#201 = ORIENTED_EDGE('',*,*,#125,.T.);
#202 = ORIENTED_EDGE('',*,*,#116,.T.);
#203 = CYLINDRICAL_SURFACE('',#204,0.75);
#204 = AXIS2_PLACEMENT_3D('',#205,#206,#207);
#205 = CARTESIAN_POINT('',(-163.,156.,112.));
#206 = DIRECTION('',(1.562261635976E-02,7.811308179882E-03,
    -0.999847447025));
#207 = DIRECTION('',(0.99987795762,-6.1021189963E-05,1.562261635976E-02)
  );
#208 = ADVANCED_FACE('',(#209),#218,.T.);
#209 = FACE_BOUND('',#210,.T.);
#210 = EDGE_LOOP('',(#211,#217));
#211 = ORIENTED_EDGE('',*,*,#212,.T.);
#212 = EDGE_CURVE('',#135,#126,#213,.T.);
#213 = LINE('',#214,#215);
#214 = CARTESIAN_POINT('',(-163.,156.,112.));
#215 = VECTOR('',#216,1.);
#216 = DIRECTION('',(-0.240052759046,0.970752275105,3.833177789162E-03)
  );
#217 = ORIENTED_EDGE('',*,*,#134,.T.);
#218 = PLANE('',#219);
#219 = AXIS2_PLACEMENT_3D('',#220,#221,#222);
#220 = CARTESIAN_POINT('',(-163.,156.,112.));
#221 = DIRECTION('',(-0.807093235689,-0.201773308922,0.554876599536));
#222 = DIRECTION('',(0.581060328975,-0.104734917756,0.807093235689));
#223 = ADVANCED_FACE('',(#224),#228,.F.);
#224 = FACE_BOUND('',#225,.F.);
#225 = EDGE_LOOP('',(#226,#227));
#226 = ORIENTED_EDGE('',*,*,#212,.T.);
#227 = ORIENTED_EDGE('',*,*,#195,.T.);
#228 = PLANE('',#229);
#229 = AXIS2_PLACEMENT_3D('',#230,#231,#232);
#230 = CARTESIAN_POINT('',(-163.,156.,112.));
#231 = DIRECTION('',(-1.562261635976E-02,-7.811308179882E-03,
    0.999847447025));
#232 = DIRECTION('',(0.99987795762,-6.1021189963E-05,1.562261635976E-02)
  );
#233 = ADVANCED_FACE('',(#234),#237,.T.);
#234 = FACE_BOUND('',#235,.F.);
#235 = EDGE_LOOP('',(#236));
#236 = ORIENTED_EDGE('',*,*,#186,.F.);
#237 = PLANE('',#238);
#238 = AXIS2_PLACEMENT_3D('',#239,#240,#241);
#239 = CARTESIAN_POINT('',(-164.9999999999,155.,240.));
#240 = DIRECTION('',(-1.562261635976E-02,-7.811308179882E-03,
    0.999847447025));
#241 = DIRECTION('',(0.99987795762,-6.1021189963E-05,1.562261635976E-02)
  );
#242 = ( GEOMETRIC_REPRESENTATION_CONTEXT(3) 
GLOBAL_UNCERTAINTY_ASSIGNED_CONTEXT((#246)) GLOBAL_UNIT_ASSIGNED_CONTEXT
((#243,#244,#245)) REPRESENTATION_CONTEXT('Context #1',
  '3D Context with UNIT and UNCERTAINTY') );
#243 = ( LENGTH_UNIT() NAMED_UNIT(*) SI_UNIT(.MILLI.,.METRE.) );
#244 = ( NAMED_UNIT(*) PLANE_ANGLE_UNIT() SI_UNIT($,.RADIAN.) );
#245 = ( NAMED_UNIT(*) SI_UNIT($,.STERADIAN.) SOLID_ANGLE_UNIT() );
#246 = UNCERTAINTY_MEASURE_WITH_UNIT(LENGTH_MEASURE(2.E-05),#243,
  'distance_accuracy_value','confusion accuracy');
#247 = CONTEXT_DEPENDENT_SHAPE_REPRESENTATION(#248,#250);
#248 = ( REPRESENTATION_RELATIONSHIP('','',#92,#10) 
REPRESENTATION_RELATIONSHIP_WITH_TRANSFORMATION(#249) 
SHAPE_REPRESENTATION_RELATIONSHIP() );
#249 = ITEM_DEFINED_TRANSFORMATION('','',#11,#15);
#250 = PRODUCT_DEFINITION_SHAPE('Placement','Placement of an item',#251
  );
#251 = NEXT_ASSEMBLY_USAGE_OCCURRENCE('133','ROPE_DYNEEMA_0','',#5,#87,$
  );
#252 = PRODUCT_RELATED_PRODUCT_CATEGORY('part',$,(#89));
#253 = SHAPE_DEFINITION_REPRESENTATION(#254,#260);
#254 = PRODUCT_DEFINITION_SHAPE('','',#255);
#255 = PRODUCT_DEFINITION('design','',#256,#259);
#256 = PRODUCT_DEFINITION_FORMATION('','',#257);
#257 = PRODUCT('ROPE_DYNEEMA_1','ROPE_DYNEEMA_1','',(#258));
#258 = PRODUCT_CONTEXT('',#2,'mechanical');
#259 = PRODUCT_DEFINITION_CONTEXT('part definition',#2,'design');
#260 = ADVANCED_BREP_SHAPE_REPRESENTATION('',(#11,#261),#314);
#261 = MANIFOLD_SOLID_BREP('',#262);
#262 = CLOSED_SHELL('',(#263,#296,#305));
#263 = ADVANCED_FACE('',(#264),#291,.T.);
#264 = FACE_BOUND('',#265,.F.);
#265 = EDGE_LOOP('',(#266,#276,#283,#284));
#266 = ORIENTED_EDGE('',*,*,#267,.T.);
#267 = EDGE_CURVE('',#268,#270,#272,.T.);
#268 = VERTEX_POINT('',#269);
#269 = CARTESIAN_POINT('',(0.75,0.,0.));
#270 = VERTEX_POINT('',#271);
#271 = CARTESIAN_POINT('',(0.75,-2.84217094304E-14,77.564489297616));
#272 = LINE('',#273,#274);
#273 = CARTESIAN_POINT('',(0.75,-1.8E-16,0.));
#274 = VECTOR('',#275,1.);
#275 = DIRECTION('',(0.,0.,1.));
#276 = ORIENTED_EDGE('',*,*,#277,.T.);
#277 = EDGE_CURVE('',#270,#270,#278,.T.);
#278 = CIRCLE('',#279,0.75);
#279 = AXIS2_PLACEMENT_3D('',#280,#281,#282);
#280 = CARTESIAN_POINT('',(0.,0.,77.564489297616));
#281 = DIRECTION('',(0.,0.,1.));
#282 = DIRECTION('',(1.,0.,0.));
#283 = ORIENTED_EDGE('',*,*,#267,.F.);
#284 = ORIENTED_EDGE('',*,*,#285,.F.);
#285 = EDGE_CURVE('',#268,#268,#286,.T.);
#286 = CIRCLE('',#287,0.75);
#287 = AXIS2_PLACEMENT_3D('',#288,#289,#290);
#288 = CARTESIAN_POINT('',(0.,0.,0.));
#289 = DIRECTION('',(0.,0.,1.));
#290 = DIRECTION('',(1.,0.,-0.));
#291 = CYLINDRICAL_SURFACE('',#292,0.75);
#292 = AXIS2_PLACEMENT_3D('',#293,#294,#295);
#293 = CARTESIAN_POINT('',(0.,0.,0.));
#294 = DIRECTION('',(-0.,-0.,-1.));
#295 = DIRECTION('',(1.,0.,-0.));
#296 = ADVANCED_FACE('',(#297),#300,.F.);
#297 = FACE_BOUND('',#298,.T.);
#298 = EDGE_LOOP('',(#299));
#299 = ORIENTED_EDGE('',*,*,#285,.F.);
#300 = PLANE('',#301);
#301 = AXIS2_PLACEMENT_3D('',#302,#303,#304);
#302 = CARTESIAN_POINT('',(0.,0.,0.));
#303 = DIRECTION('',(0.,0.,1.));
#304 = DIRECTION('',(1.,0.,-0.));
#305 = ADVANCED_FACE('',(#306),#309,.T.);
#306 = FACE_BOUND('',#307,.F.);
#307 = EDGE_LOOP('',(#308));
#308 = ORIENTED_EDGE('',*,*,#277,.F.);
#309 = PLANE('',#310);
#310 = AXIS2_PLACEMENT_3D('',#311,#312,#313);
#311 = CARTESIAN_POINT('',(0.,0.,77.564489297616));
#312 = DIRECTION('',(0.,0.,1.));
#313 = DIRECTION('',(1.,0.,0.));
#314 = ( GEOMETRIC_REPRESENTATION_CONTEXT(3) 
GLOBAL_UNCERTAINTY_ASSIGNED_CONTEXT((#318)) GLOBAL_UNIT_ASSIGNED_CONTEXT
((#315,#316,#317)) REPRESENTATION_CONTEXT('Context #1',
  '3D Context with UNIT and UNCERTAINTY') );
#315 = ( LENGTH_UNIT() NAMED_UNIT(*) SI_UNIT(.MILLI.,.METRE.) );
#316 = ( NAMED_UNIT(*) PLANE_ANGLE_UNIT() SI_UNIT($,.RADIAN.) );
#317 = ( NAMED_UNIT(*) SI_UNIT($,.STERADIAN.) SOLID_ANGLE_UNIT() );
#318 = UNCERTAINTY_MEASURE_WITH_UNIT(LENGTH_MEASURE(1.E-07),#315,
  'distance_accuracy_value','confusion accuracy');
#319 = CONTEXT_DEPENDENT_SHAPE_REPRESENTATION(#320,#322);
#320 = ( REPRESENTATION_RELATIONSHIP('','',#260,#10) 
REPRESENTATION_RELATIONSHIP_WITH_TRANSFORMATION(#321) 
SHAPE_REPRESENTATION_RELATIONSHIP() );
#321 = ITEM_DEFINED_TRANSFORMATION('','',#11,#19);
#322 = PRODUCT_DEFINITION_SHAPE('Placement','Placement of an item',#323
  );
#323 = NEXT_ASSEMBLY_USAGE_OCCURRENCE('134','ROPE_DYNEEMA_1','',#5,#255,
  $);
#324 = PRODUCT_RELATED_PRODUCT_CATEGORY('part',$,(#257));
#325 = SHAPE_DEFINITION_REPRESENTATION(#326,#332);
#326 = PRODUCT_DEFINITION_SHAPE('','',#327);
#327 = PRODUCT_DEFINITION('design','',#328,#331);
#328 = PRODUCT_DEFINITION_FORMATION('','',#329);
#329 = PRODUCT('ROPE_DYNEEMA_2','ROPE_DYNEEMA_2','',(#330));
#330 = PRODUCT_CONTEXT('',#2,'mechanical');
#331 = PRODUCT_DEFINITION_CONTEXT('part definition',#2,'design');
#332 = ADVANCED_BREP_SHAPE_REPRESENTATION('',(#11,#333),#386);
#333 = MANIFOLD_SOLID_BREP('',#334);
#334 = CLOSED_SHELL('',(#335,#368,#377));
#335 = ADVANCED_FACE('',(#336),#363,.T.);
#336 = FACE_BOUND('',#337,.F.);
#337 = EDGE_LOOP('',(#338,#348,#355,#356));
#338 = ORIENTED_EDGE('',*,*,#339,.T.);
#339 = EDGE_CURVE('',#340,#342,#344,.T.);
#340 = VERTEX_POINT('',#341);
#341 = CARTESIAN_POINT('',(0.75,0.,0.));
#342 = VERTEX_POINT('',#343);
#343 = CARTESIAN_POINT('',(0.75,0.,6.670832032063));
#344 = LINE('',#345,#346);
#345 = CARTESIAN_POINT('',(0.75,-1.8E-16,0.));
#346 = VECTOR('',#347,1.);
#347 = DIRECTION('',(0.,0.,1.));
#348 = ORIENTED_EDGE('',*,*,#349,.T.);
#349 = EDGE_CURVE('',#342,#342,#350,.T.);
#350 = CIRCLE('',#351,0.75);
#351 = AXIS2_PLACEMENT_3D('',#352,#353,#354);
#352 = CARTESIAN_POINT('',(0.,0.,6.670832032063));
#353 = DIRECTION('',(0.,0.,1.));
#354 = DIRECTION('',(1.,0.,0.));
#355 = ORIENTED_EDGE('',*,*,#339,.F.);
#356 = ORIENTED_EDGE('',*,*,#357,.F.);
#357 = EDGE_CURVE('',#340,#340,#358,.T.);
#358 = CIRCLE('',#359,0.75);
#359 = AXIS2_PLACEMENT_3D('',#360,#361,#362);
#360 = CARTESIAN_POINT('',(0.,0.,0.));
#361 = DIRECTION('',(0.,0.,1.));
#362 = DIRECTION('',(1.,0.,-0.));
#363 = CYLINDRICAL_SURFACE('',#364,0.75);
#364 = AXIS2_PLACEMENT_3D('',#365,#366,#367);
#365 = CARTESIAN_POINT('',(0.,0.,0.));
#366 = DIRECTION('',(-0.,-0.,-1.));
#367 = DIRECTION('',(1.,0.,-0.));
#368 = ADVANCED_FACE('',(#369),#372,.F.);
#369 = FACE_BOUND('',#370,.T.);
#370 = EDGE_LOOP('',(#371));
#371 = ORIENTED_EDGE('',*,*,#357,.F.);
#372 = PLANE('',#373);
#373 = AXIS2_PLACEMENT_3D('',#374,#375,#376);
#374 = CARTESIAN_POINT('',(0.,0.,0.));
#375 = DIRECTION('',(0.,0.,1.));
#376 = DIRECTION('',(1.,0.,-0.));
#377 = ADVANCED_FACE('',(#378),#381,.T.);
#378 = FACE_BOUND('',#379,.F.);
#379 = EDGE_LOOP('',(#380));
#380 = ORIENTED_EDGE('',*,*,#349,.F.);
#381 = PLANE('',#382);
#382 = AXIS2_PLACEMENT_3D('',#383,#384,#385);
#383 = CARTESIAN_POINT('',(0.,0.,6.670832032063));
#384 = DIRECTION('',(0.,0.,1.));
#385 = DIRECTION('',(1.,0.,0.));
#386 = ( GEOMETRIC_REPRESENTATION_CONTEXT(3) 
GLOBAL_UNCERTAINTY_ASSIGNED_CONTEXT((#390)) GLOBAL_UNIT_ASSIGNED_CONTEXT
((#387,#388,#389)) REPRESENTATION_CONTEXT('Context #1',
  '3D Context with UNIT and UNCERTAINTY') );
#387 = ( LENGTH_UNIT() NAMED_UNIT(*) SI_UNIT(.MILLI.,.METRE.) );
#388 = ( NAMED_UNIT(*) PLANE_ANGLE_UNIT() SI_UNIT($,.RADIAN.) );
#389 = ( NAMED_UNIT(*) SI_UNIT($,.STERADIAN.) SOLID_ANGLE_UNIT() );
#390 = UNCERTAINTY_MEASURE_WITH_UNIT(LENGTH_MEASURE(1.E-07),#387,
  'distance_accuracy_value','confusion accuracy');
#391 = CONTEXT_DEPENDENT_SHAPE_REPRESENTATION(#392,#394);
#392 = ( REPRESENTATION_RELATIONSHIP('','',#332,#10) 
REPRESENTATION_RELATIONSHIP_WITH_TRANSFORMATION(#393) 
SHAPE_REPRESENTATION_RELATIONSHIP() );
#393 = ITEM_DEFINED_TRANSFORMATION('','',#11,#23);
#394 = PRODUCT_DEFINITION_SHAPE('Placement','Placement of an item',#395
  );
#395 = NEXT_ASSEMBLY_USAGE_OCCURRENCE('135','ROPE_DYNEEMA_2','',#5,#327,
  $);
#396 = PRODUCT_RELATED_PRODUCT_CATEGORY('part',$,(#329));
#397 = SHAPE_DEFINITION_REPRESENTATION(#398,#404);
#398 = PRODUCT_DEFINITION_SHAPE('','',#399);
#399 = PRODUCT_DEFINITION('design','',#400,#403);
#400 = PRODUCT_DEFINITION_FORMATION('','',#401);
#401 = PRODUCT('ROPE_DYNEEMA_3','ROPE_DYNEEMA_3','',(#402));
#402 = PRODUCT_CONTEXT('',#2,'mechanical');
#403 = PRODUCT_DEFINITION_CONTEXT('part definition',#2,'design');
#404 = ADVANCED_BREP_SHAPE_REPRESENTATION('',(#11,#405),#458);
#405 = MANIFOLD_SOLID_BREP('',#406);
#406 = CLOSED_SHELL('',(#407,#440,#449));
#407 = ADVANCED_FACE('',(#408),#435,.T.);
#408 = FACE_BOUND('',#409,.F.);
#409 = EDGE_LOOP('',(#410,#420,#427,#428));
#410 = ORIENTED_EDGE('',*,*,#411,.T.);
#411 = EDGE_CURVE('',#412,#414,#416,.T.);
#412 = VERTEX_POINT('',#413);
#413 = CARTESIAN_POINT('',(0.75,0.,0.));
#414 = VERTEX_POINT('',#415);
#415 = CARTESIAN_POINT('',(0.75,0.,8.430895563343));
#416 = LINE('',#417,#418);
#417 = CARTESIAN_POINT('',(0.75,-1.8E-16,0.));
#418 = VECTOR('',#419,1.);
#419 = DIRECTION('',(0.,0.,1.));
#420 = ORIENTED_EDGE('',*,*,#421,.T.);
#421 = EDGE_CURVE('',#414,#414,#422,.T.);
#422 = CIRCLE('',#423,0.75);
#423 = AXIS2_PLACEMENT_3D('',#424,#425,#426);
#424 = CARTESIAN_POINT('',(0.,0.,8.430895563343));
#425 = DIRECTION('',(0.,0.,1.));
#426 = DIRECTION('',(1.,0.,0.));
#427 = ORIENTED_EDGE('',*,*,#411,.F.);
#428 = ORIENTED_EDGE('',*,*,#429,.F.);
#429 = EDGE_CURVE('',#412,#412,#430,.T.);
#430 = CIRCLE('',#431,0.75);
#431 = AXIS2_PLACEMENT_3D('',#432,#433,#434);
#432 = CARTESIAN_POINT('',(0.,0.,0.));
#433 = DIRECTION('',(0.,0.,1.));
#434 = DIRECTION('',(1.,0.,-0.));
#435 = CYLINDRICAL_SURFACE('',#436,0.75);
#436 = AXIS2_PLACEMENT_3D('',#437,#438,#439);
#437 = CARTESIAN_POINT('',(0.,0.,0.));
#438 = DIRECTION('',(-0.,-0.,-1.));
#439 = DIRECTION('',(1.,0.,-0.));
#440 = ADVANCED_FACE('',(#441),#444,.F.);
#441 = FACE_BOUND('',#442,.T.);
#442 = EDGE_LOOP('',(#443));
#443 = ORIENTED_EDGE('',*,*,#429,.F.);
#444 = PLANE('',#445);
#445 = AXIS2_PLACEMENT_3D('',#446,#447,#448);
#446 = CARTESIAN_POINT('',(0.,0.,0.));
#447 = DIRECTION('',(0.,0.,1.));
#448 = DIRECTION('',(1.,0.,-0.));
#449 = ADVANCED_FACE('',(#450),#453,.T.);
#450 = FACE_BOUND('',#451,.F.);
#451 = EDGE_LOOP('',(#452));
#452 = ORIENTED_EDGE('',*,*,#421,.F.);
#453 = PLANE('',#454);
#454 = AXIS2_PLACEMENT_3D('',#455,#456,#457);
#455 = CARTESIAN_POINT('',(0.,0.,8.430895563343));
#456 = DIRECTION('',(0.,0.,1.));
#457 = DIRECTION('',(1.,0.,0.));
#458 = ( GEOMETRIC_REPRESENTATION_CONTEXT(3) 
GLOBAL_UNCERTAINTY_ASSIGNED_CONTEXT((#462)) GLOBAL_UNIT_ASSIGNED_CONTEXT
((#459,#460,#461)) REPRESENTATION_CONTEXT('Context #1',
  '3D Context with UNIT and UNCERTAINTY') );
#459 = ( LENGTH_UNIT() NAMED_UNIT(*) SI_UNIT(.MILLI.,.METRE.) );
#460 = ( NAMED_UNIT(*) PLANE_ANGLE_UNIT() SI_UNIT($,.RADIAN.) );
#461 = ( NAMED_UNIT(*) SI_UNIT($,.STERADIAN.) SOLID_ANGLE_UNIT() );
#462 = UNCERTAINTY_MEASURE_WITH_UNIT(LENGTH_MEASURE(1.E-07),#459,
  'distance_accuracy_value','confusion accuracy');
#463 = CONTEXT_DEPENDENT_SHAPE_REPRESENTATION(#464,#466);
#464 = ( REPRESENTATION_RELATIONSHIP('','',#404,#10) 
REPRESENTATION_RELATIONSHIP_WITH_TRANSFORMATION(#465) 
SHAPE_REPRESENTATION_RELATIONSHIP() );
#465 = ITEM_DEFINED_TRANSFORMATION('','',#11,#27);
#466 = PRODUCT_DEFINITION_SHAPE('Placement','Placement of an item',#467
  );
#467 = NEXT_ASSEMBLY_USAGE_OCCURRENCE('136','ROPE_DYNEEMA_3','',#5,#399,
  $);
#468 = PRODUCT_RELATED_PRODUCT_CATEGORY('part',$,(#401));
#469 = SHAPE_DEFINITION_REPRESENTATION(#470,#476);
#470 = PRODUCT_DEFINITION_SHAPE('','',#471);
#471 = PRODUCT_DEFINITION('design','',#472,#475);
#472 = PRODUCT_DEFINITION_FORMATION('','',#473);
#473 = PRODUCT('ROPE_DYNEEMA_4','ROPE_DYNEEMA_4','',(#474));
#474 = PRODUCT_CONTEXT('',#2,'mechanical');
#475 = PRODUCT_DEFINITION_CONTEXT('part definition',#2,'design');
#476 = ADVANCED_BREP_SHAPE_REPRESENTATION('',(#11,#477),#530);
#477 = MANIFOLD_SOLID_BREP('',#478);
#478 = CLOSED_SHELL('',(#479,#512,#521));
#479 = ADVANCED_FACE('',(#480),#507,.T.);
#480 = FACE_BOUND('',#481,.F.);
#481 = EDGE_LOOP('',(#482,#492,#499,#500));
#482 = ORIENTED_EDGE('',*,*,#483,.T.);
#483 = EDGE_CURVE('',#484,#486,#488,.T.);
#484 = VERTEX_POINT('',#485);
#485 = CARTESIAN_POINT('',(0.75,0.,0.));
#486 = VERTEX_POINT('',#487);
#487 = CARTESIAN_POINT('',(0.75,0.,8.430895563343));
#488 = LINE('',#489,#490);
#489 = CARTESIAN_POINT('',(0.75,-1.8E-16,0.));
#490 = VECTOR('',#491,1.);
#491 = DIRECTION('',(0.,0.,1.));
#492 = ORIENTED_EDGE('',*,*,#493,.T.);
#493 = EDGE_CURVE('',#486,#486,#494,.T.);
#494 = CIRCLE('',#495,0.75);
#495 = AXIS2_PLACEMENT_3D('',#496,#497,#498);
#496 = CARTESIAN_POINT('',(0.,0.,8.430895563343));
#497 = DIRECTION('',(0.,0.,1.));
#498 = DIRECTION('',(1.,0.,0.));
#499 = ORIENTED_EDGE('',*,*,#483,.F.);
#500 = ORIENTED_EDGE('',*,*,#501,.F.);
#501 = EDGE_CURVE('',#484,#484,#502,.T.);
#502 = CIRCLE('',#503,0.75);
#503 = AXIS2_PLACEMENT_3D('',#504,#505,#506);
#504 = CARTESIAN_POINT('',(0.,0.,0.));
#505 = DIRECTION('',(0.,0.,1.));
#506 = DIRECTION('',(1.,0.,-0.));
#507 = CYLINDRICAL_SURFACE('',#508,0.75);
#508 = AXIS2_PLACEMENT_3D('',#509,#510,#511);
#509 = CARTESIAN_POINT('',(0.,0.,0.));
#510 = DIRECTION('',(-0.,-0.,-1.));
#511 = DIRECTION('',(1.,0.,-0.));
#512 = ADVANCED_FACE('',(#513),#516,.F.);
#513 = FACE_BOUND('',#514,.T.);
#514 = EDGE_LOOP('',(#515));
#515 = ORIENTED_EDGE('',*,*,#501,.F.);
#516 = PLANE('',#517);
#517 = AXIS2_PLACEMENT_3D('',#518,#519,#520);
#518 = CARTESIAN_POINT('',(0.,0.,0.));
#519 = DIRECTION('',(0.,0.,1.));
#520 = DIRECTION('',(1.,0.,-0.));
#521 = ADVANCED_FACE('',(#522),#525,.T.);
#522 = FACE_BOUND('',#523,.F.);
#523 = EDGE_LOOP('',(#524));
#524 = ORIENTED_EDGE('',*,*,#493,.F.);
#525 = PLANE('',#526);
#526 = AXIS2_PLACEMENT_3D('',#527,#528,#529);
#527 = CARTESIAN_POINT('',(0.,0.,8.430895563343));
#528 = DIRECTION('',(0.,0.,1.));
#529 = DIRECTION('',(1.,0.,0.));
#530 = ( GEOMETRIC_REPRESENTATION_CONTEXT(3) 
GLOBAL_UNCERTAINTY_ASSIGNED_CONTEXT((#534)) GLOBAL_UNIT_ASSIGNED_CONTEXT
((#531,#532,#533)) REPRESENTATION_CONTEXT('Context #1',
  '3D Context with UNIT and UNCERTAINTY') );
#531 = ( LENGTH_UNIT() NAMED_UNIT(*) SI_UNIT(.MILLI.,.METRE.) );
#532 = ( NAMED_UNIT(*) PLANE_ANGLE_UNIT() SI_UNIT($,.RADIAN.) );
#533 = ( NAMED_UNIT(*) SI_UNIT($,.STERADIAN.) SOLID_ANGLE_UNIT() );
#534 = UNCERTAINTY_MEASURE_WITH_UNIT(LENGTH_MEASURE(1.E-07),#531,
  'distance_accuracy_value','confusion accuracy');
#535 = CONTEXT_DEPENDENT_SHAPE_REPRESENTATION(#536,#538);
#536 = ( REPRESENTATION_RELATIONSHIP('','',#476,#10) 
REPRESENTATION_RELATIONSHIP_WITH_TRANSFORMATION(#537) 
SHAPE_REPRESENTATION_RELATIONSHIP() );
#537 = ITEM_DEFINED_TRANSFORMATION('','',#11,#31);
#538 = PRODUCT_DEFINITION_SHAPE('Placement','Placement of an item',#539
  );
#539 = NEXT_ASSEMBLY_USAGE_OCCURRENCE('137','ROPE_DYNEEMA_4','',#5,#471,
  $);
#540 = PRODUCT_RELATED_PRODUCT_CATEGORY('part',$,(#473));
#541 = SHAPE_DEFINITION_REPRESENTATION(#542,#548);
#542 = PRODUCT_DEFINITION_SHAPE('','',#543);
#543 = PRODUCT_DEFINITION('design','',#544,#547);
#544 = PRODUCT_DEFINITION_FORMATION('','',#545);
#545 = PRODUCT('ROPE_DYNEEMA_5','ROPE_DYNEEMA_5','',(#546));
#546 = PRODUCT_CONTEXT('',#2,'mechanical');
#547 = PRODUCT_DEFINITION_CONTEXT('part definition',#2,'design');
#548 = ADVANCED_BREP_SHAPE_REPRESENTATION('',(#11,#549),#602);
#549 = MANIFOLD_SOLID_BREP('',#550);
#550 = CLOSED_SHELL('',(#551,#584,#593));
#551 = ADVANCED_FACE('',(#552),#579,.T.);
#552 = FACE_BOUND('',#553,.F.);
#553 = EDGE_LOOP('',(#554,#564,#571,#572));
#554 = ORIENTED_EDGE('',*,*,#555,.T.);
#555 = EDGE_CURVE('',#556,#558,#560,.T.);
#556 = VERTEX_POINT('',#557);
#557 = CARTESIAN_POINT('',(0.75,0.,-2.84217094304E-14));
#558 = VERTEX_POINT('',#559);
#559 = CARTESIAN_POINT('',(0.75,0.,8.430895563343));
#560 = LINE('',#561,#562);
#561 = CARTESIAN_POINT('',(0.75,-1.8E-16,0.));
#562 = VECTOR('',#563,1.);
#563 = DIRECTION('',(0.,0.,1.));
#564 = ORIENTED_EDGE('',*,*,#565,.T.);
#565 = EDGE_CURVE('',#558,#558,#566,.T.);
#566 = CIRCLE('',#567,0.75);
#567 = AXIS2_PLACEMENT_3D('',#568,#569,#570);
#568 = CARTESIAN_POINT('',(0.,0.,8.430895563343));
#569 = DIRECTION('',(0.,0.,1.));
#570 = DIRECTION('',(1.,0.,0.));
#571 = ORIENTED_EDGE('',*,*,#555,.F.);
#572 = ORIENTED_EDGE('',*,*,#573,.F.);
#573 = EDGE_CURVE('',#556,#556,#574,.T.);
#574 = CIRCLE('',#575,0.75);
#575 = AXIS2_PLACEMENT_3D('',#576,#577,#578);
#576 = CARTESIAN_POINT('',(0.,0.,0.));
#577 = DIRECTION('',(0.,0.,1.));
#578 = DIRECTION('',(1.,0.,-0.));
#579 = CYLINDRICAL_SURFACE('',#580,0.75);
#580 = AXIS2_PLACEMENT_3D('',#581,#582,#583);
#581 = CARTESIAN_POINT('',(0.,0.,0.));
#582 = DIRECTION('',(-0.,-0.,-1.));
#583 = DIRECTION('',(1.,0.,-0.));
#584 = ADVANCED_FACE('',(#585),#588,.F.);
#585 = FACE_BOUND('',#586,.T.);
#586 = EDGE_LOOP('',(#587));
#587 = ORIENTED_EDGE('',*,*,#573,.F.);
#588 = PLANE('',#589);
#589 = AXIS2_PLACEMENT_3D('',#590,#591,#592);
#590 = CARTESIAN_POINT('',(0.,0.,0.));
#591 = DIRECTION('',(0.,0.,1.));
#592 = DIRECTION('',(1.,0.,-0.));
#593 = ADVANCED_FACE('',(#594),#597,.T.);
#594 = FACE_BOUND('',#595,.F.);
#595 = EDGE_LOOP('',(#596));
#596 = ORIENTED_EDGE('',*,*,#565,.F.);
#597 = PLANE('',#598);
#598 = AXIS2_PLACEMENT_3D('',#599,#600,#601);
#599 = CARTESIAN_POINT('',(0.,0.,8.430895563343));
#600 = DIRECTION('',(0.,0.,1.));
#601 = DIRECTION('',(1.,0.,0.));
#602 = ( GEOMETRIC_REPRESENTATION_CONTEXT(3) 
GLOBAL_UNCERTAINTY_ASSIGNED_CONTEXT((#606)) GLOBAL_UNIT_ASSIGNED_CONTEXT
((#603,#604,#605)) REPRESENTATION_CONTEXT('Context #1',
  '3D Context with UNIT and UNCERTAINTY') );
#603 = ( LENGTH_UNIT() NAMED_UNIT(*) SI_UNIT(.MILLI.,.METRE.) );
#604 = ( NAMED_UNIT(*) PLANE_ANGLE_UNIT() SI_UNIT($,.RADIAN.) );
#605 = ( NAMED_UNIT(*) SI_UNIT($,.STERADIAN.) SOLID_ANGLE_UNIT() );
#606 = UNCERTAINTY_MEASURE_WITH_UNIT(LENGTH_MEASURE(1.E-07),#603,
  'distance_accuracy_value','confusion accuracy');
#607 = CONTEXT_DEPENDENT_SHAPE_REPRESENTATION(#608,#610);
#608 = ( REPRESENTATION_RELATIONSHIP('','',#548,#10) 
REPRESENTATION_RELATIONSHIP_WITH_TRANSFORMATION(#609) 
SHAPE_REPRESENTATION_RELATIONSHIP() );
#609 = ITEM_DEFINED_TRANSFORMATION('','',#11,#35);
#610 = PRODUCT_DEFINITION_SHAPE('Placement','Placement of an item',#611
  );
#611 = NEXT_ASSEMBLY_USAGE_OCCURRENCE('138','ROPE_DYNEEMA_5','',#5,#543,
  $);
#612 = PRODUCT_RELATED_PRODUCT_CATEGORY('part',$,(#545));
#613 = SHAPE_DEFINITION_REPRESENTATION(#614,#620);
#614 = PRODUCT_DEFINITION_SHAPE('','',#615);
#615 = PRODUCT_DEFINITION('design','',#616,#619);
#616 = PRODUCT_DEFINITION_FORMATION('','',#617);
#617 = PRODUCT('ROPE_DYNEEMA_6','ROPE_DYNEEMA_6','',(#618));
#618 = PRODUCT_CONTEXT('',#2,'mechanical');
#619 = PRODUCT_DEFINITION_CONTEXT('part definition',#2,'design');
#620 = ADVANCED_BREP_SHAPE_REPRESENTATION('',(#11,#621),#674);
#621 = MANIFOLD_SOLID_BREP('',#622);
#622 = CLOSED_SHELL('',(#623,#656,#665));
#623 = ADVANCED_FACE('',(#624),#651,.T.);
#624 = FACE_BOUND('',#625,.F.);
#625 = EDGE_LOOP('',(#626,#636,#643,#644));
#626 = ORIENTED_EDGE('',*,*,#627,.T.);
#627 = EDGE_CURVE('',#628,#630,#632,.T.);
#628 = VERTEX_POINT('',#629);
#629 = CARTESIAN_POINT('',(0.75,0.,0.));
#630 = VERTEX_POINT('',#631);
#631 = CARTESIAN_POINT('',(0.75,0.,8.633075929239));
#632 = LINE('',#633,#634);
#633 = CARTESIAN_POINT('',(0.75,-1.8E-16,0.));
#634 = VECTOR('',#635,1.);
#635 = DIRECTION('',(0.,0.,1.));
#636 = ORIENTED_EDGE('',*,*,#637,.T.);
#637 = EDGE_CURVE('',#630,#630,#638,.T.);
#638 = CIRCLE('',#639,0.75);
#639 = AXIS2_PLACEMENT_3D('',#640,#641,#642);
#640 = CARTESIAN_POINT('',(0.,0.,8.633075929239));
#641 = DIRECTION('',(0.,0.,1.));
#642 = DIRECTION('',(1.,0.,0.));
#643 = ORIENTED_EDGE('',*,*,#627,.F.);
#644 = ORIENTED_EDGE('',*,*,#645,.F.);
#645 = EDGE_CURVE('',#628,#628,#646,.T.);
#646 = CIRCLE('',#647,0.75);
#647 = AXIS2_PLACEMENT_3D('',#648,#649,#650);
#648 = CARTESIAN_POINT('',(0.,0.,0.));
#649 = DIRECTION('',(0.,0.,1.));
#650 = DIRECTION('',(1.,0.,-0.));
#651 = CYLINDRICAL_SURFACE('',#652,0.75);
#652 = AXIS2_PLACEMENT_3D('',#653,#654,#655);
#653 = CARTESIAN_POINT('',(0.,0.,0.));
#654 = DIRECTION('',(-0.,-0.,-1.));
#655 = DIRECTION('',(1.,0.,-0.));
#656 = ADVANCED_FACE('',(#657),#660,.F.);
#657 = FACE_BOUND('',#658,.T.);
#658 = EDGE_LOOP('',(#659));
#659 = ORIENTED_EDGE('',*,*,#645,.F.);
#660 = PLANE('',#661);
#661 = AXIS2_PLACEMENT_3D('',#662,#663,#664);
#662 = CARTESIAN_POINT('',(0.,0.,0.));
#663 = DIRECTION('',(0.,0.,1.));
#664 = DIRECTION('',(1.,0.,-0.));
#665 = ADVANCED_FACE('',(#666),#669,.T.);
#666 = FACE_BOUND('',#667,.F.);
#667 = EDGE_LOOP('',(#668));
#668 = ORIENTED_EDGE('',*,*,#637,.F.);
#669 = PLANE('',#670);
#670 = AXIS2_PLACEMENT_3D('',#671,#672,#673);
#671 = CARTESIAN_POINT('',(0.,0.,8.633075929239));
#672 = DIRECTION('',(0.,0.,1.));
#673 = DIRECTION('',(1.,0.,0.));
#674 = ( GEOMETRIC_REPRESENTATION_CONTEXT(3) 
GLOBAL_UNCERTAINTY_ASSIGNED_CONTEXT((#678)) GLOBAL_UNIT_ASSIGNED_CONTEXT
((#675,#676,#677)) REPRESENTATION_CONTEXT('Context #1',
  '3D Context with UNIT and UNCERTAINTY') );
#675 = ( LENGTH_UNIT() NAMED_UNIT(*) SI_UNIT(.MILLI.,.METRE.) );
#676 = ( NAMED_UNIT(*) PLANE_ANGLE_UNIT() SI_UNIT($,.RADIAN.) );
#677 = ( NAMED_UNIT(*) SI_UNIT($,.STERADIAN.) SOLID_ANGLE_UNIT() );
#678 = UNCERTAINTY_MEASURE_WITH_UNIT(LENGTH_MEASURE(1.E-07),#675,
  'distance_accuracy_value','confusion accuracy');
#679 = CONTEXT_DEPENDENT_SHAPE_REPRESENTATION(#680,#682);
#680 = ( REPRESENTATION_RELATIONSHIP('','',#620,#10) 
REPRESENTATION_RELATIONSHIP_WITH_TRANSFORMATION(#681) 
SHAPE_REPRESENTATION_RELATIONSHIP() );
#681 = ITEM_DEFINED_TRANSFORMATION('','',#11,#39);
#682 = PRODUCT_DEFINITION_SHAPE('Placement','Placement of an item',#683
  );
#683 = NEXT_ASSEMBLY_USAGE_OCCURRENCE('139','ROPE_DYNEEMA_6','',#5,#615,
  $);
#684 = PRODUCT_RELATED_PRODUCT_CATEGORY('part',$,(#617));
#685 = SHAPE_DEFINITION_REPRESENTATION(#686,#692);
#686 = PRODUCT_DEFINITION_SHAPE('','',#687);
#687 = PRODUCT_DEFINITION('design','',#688,#691);
#688 = PRODUCT_DEFINITION_FORMATION('','',#689);
#689 = PRODUCT('ROPE_DYNEEMA_7','ROPE_DYNEEMA_7','',(#690));
#690 = PRODUCT_CONTEXT('',#2,'mechanical');
#691 = PRODUCT_DEFINITION_CONTEXT('part definition',#2,'design');
#692 = ADVANCED_BREP_SHAPE_REPRESENTATION('',(#11,#693),#746);
#693 = MANIFOLD_SOLID_BREP('',#694);
#694 = CLOSED_SHELL('',(#695,#728,#737));
#695 = ADVANCED_FACE('',(#696),#723,.T.);
#696 = FACE_BOUND('',#697,.F.);
#697 = EDGE_LOOP('',(#698,#708,#715,#716));
#698 = ORIENTED_EDGE('',*,*,#699,.T.);
#699 = EDGE_CURVE('',#700,#702,#704,.T.);
#700 = VERTEX_POINT('',#701);
#701 = CARTESIAN_POINT('',(0.75,2.84217094304E-14,2.84217094304E-14));
#702 = VERTEX_POINT('',#703);
#703 = CARTESIAN_POINT('',(0.75,2.84217094304E-14,8.870738413458));
#704 = LINE('',#705,#706);
#705 = CARTESIAN_POINT('',(0.75,-1.8E-16,0.));
#706 = VECTOR('',#707,1.);
#707 = DIRECTION('',(0.,0.,1.));
#708 = ORIENTED_EDGE('',*,*,#709,.T.);
#709 = EDGE_CURVE('',#702,#702,#710,.T.);
#710 = CIRCLE('',#711,0.75);
#711 = AXIS2_PLACEMENT_3D('',#712,#713,#714);
#712 = CARTESIAN_POINT('',(0.,0.,8.870738413458));
#713 = DIRECTION('',(0.,0.,1.));
#714 = DIRECTION('',(1.,0.,0.));
#715 = ORIENTED_EDGE('',*,*,#699,.F.);
#716 = ORIENTED_EDGE('',*,*,#717,.F.);
#717 = EDGE_CURVE('',#700,#700,#718,.T.);
#718 = CIRCLE('',#719,0.75);
#719 = AXIS2_PLACEMENT_3D('',#720,#721,#722);
#720 = CARTESIAN_POINT('',(0.,0.,0.));
#721 = DIRECTION('',(0.,0.,1.));
#722 = DIRECTION('',(1.,0.,-0.));
#723 = CYLINDRICAL_SURFACE('',#724,0.75);
#724 = AXIS2_PLACEMENT_3D('',#725,#726,#727);
#725 = CARTESIAN_POINT('',(0.,0.,0.));
#726 = DIRECTION('',(-0.,-0.,-1.));
#727 = DIRECTION('',(1.,0.,-0.));
#728 = ADVANCED_FACE('',(#729),#732,.F.);
#729 = FACE_BOUND('',#730,.T.);
#730 = EDGE_LOOP('',(#731));
#731 = ORIENTED_EDGE('',*,*,#717,.F.);
#732 = PLANE('',#733);
#733 = AXIS2_PLACEMENT_3D('',#734,#735,#736);
#734 = CARTESIAN_POINT('',(0.,0.,0.));
#735 = DIRECTION('',(0.,0.,1.));
#736 = DIRECTION('',(1.,0.,-0.));
#737 = ADVANCED_FACE('',(#738),#741,.T.);
#738 = FACE_BOUND('',#739,.F.);
#739 = EDGE_LOOP('',(#740));
#740 = ORIENTED_EDGE('',*,*,#709,.F.);
#741 = PLANE('',#742);
#742 = AXIS2_PLACEMENT_3D('',#743,#744,#745);
#743 = CARTESIAN_POINT('',(0.,0.,8.870738413458));
#744 = DIRECTION('',(0.,0.,1.));
#745 = DIRECTION('',(1.,0.,0.));
#746 = ( GEOMETRIC_REPRESENTATION_CONTEXT(3) 
GLOBAL_UNCERTAINTY_ASSIGNED_CONTEXT((#750)) GLOBAL_UNIT_ASSIGNED_CONTEXT
((#747,#748,#749)) REPRESENTATION_CONTEXT('Context #1',
  '3D Context with UNIT and UNCERTAINTY') );
#747 = ( LENGTH_UNIT() NAMED_UNIT(*) SI_UNIT(.MILLI.,.METRE.) );
#748 = ( NAMED_UNIT(*) PLANE_ANGLE_UNIT() SI_UNIT($,.RADIAN.) );
#749 = ( NAMED_UNIT(*) SI_UNIT($,.STERADIAN.) SOLID_ANGLE_UNIT() );
#750 = UNCERTAINTY_MEASURE_WITH_UNIT(LENGTH_MEASURE(1.E-07),#747,
  'distance_accuracy_value','confusion accuracy');
#751 = CONTEXT_DEPENDENT_SHAPE_REPRESENTATION(#752,#754);
#752 = ( REPRESENTATION_RELATIONSHIP('','',#692,#10) 
REPRESENTATION_RELATIONSHIP_WITH_TRANSFORMATION(#753) 
SHAPE_REPRESENTATION_RELATIONSHIP() );
#753 = ITEM_DEFINED_TRANSFORMATION('','',#11,#43);
#754 = PRODUCT_DEFINITION_SHAPE('Placement','Placement of an item',#755
  );
#755 = NEXT_ASSEMBLY_USAGE_OCCURRENCE('140','ROPE_DYNEEMA_7','',#5,#687,
  $);
#756 = PRODUCT_RELATED_PRODUCT_CATEGORY('part',$,(#689));
#757 = SHAPE_DEFINITION_REPRESENTATION(#758,#764);
#758 = PRODUCT_DEFINITION_SHAPE('','',#759);
#759 = PRODUCT_DEFINITION('design','',#760,#763);
#760 = PRODUCT_DEFINITION_FORMATION('','',#761);
#761 = PRODUCT('ROPE_DYNEEMA_8','ROPE_DYNEEMA_8','',(#762));
#762 = PRODUCT_CONTEXT('',#2,'mechanical');
#763 = PRODUCT_DEFINITION_CONTEXT('part definition',#2,'design');
#764 = ADVANCED_BREP_SHAPE_REPRESENTATION('',(#11,#765),#818);
#765 = MANIFOLD_SOLID_BREP('',#766);
#766 = CLOSED_SHELL('',(#767,#800,#809));
#767 = ADVANCED_FACE('',(#768),#795,.T.);
#768 = FACE_BOUND('',#769,.F.);
#769 = EDGE_LOOP('',(#770,#780,#787,#788));
#770 = ORIENTED_EDGE('',*,*,#771,.T.);
#771 = EDGE_CURVE('',#772,#774,#776,.T.);
#772 = VERTEX_POINT('',#773);
#773 = CARTESIAN_POINT('',(0.75,0.,0.));
#774 = VERTEX_POINT('',#775);
#775 = CARTESIAN_POINT('',(0.75,0.,4.386342439892));
#776 = LINE('',#777,#778);
#777 = CARTESIAN_POINT('',(0.75,-1.8E-16,0.));
#778 = VECTOR('',#779,1.);
#779 = DIRECTION('',(0.,0.,1.));
#780 = ORIENTED_EDGE('',*,*,#781,.T.);
#781 = EDGE_CURVE('',#774,#774,#782,.T.);
#782 = CIRCLE('',#783,0.75);
#783 = AXIS2_PLACEMENT_3D('',#784,#785,#786);
#784 = CARTESIAN_POINT('',(0.,0.,4.386342439892));
#785 = DIRECTION('',(0.,0.,1.));
#786 = DIRECTION('',(1.,0.,0.));
#787 = ORIENTED_EDGE('',*,*,#771,.F.);
#788 = ORIENTED_EDGE('',*,*,#789,.F.);
#789 = EDGE_CURVE('',#772,#772,#790,.T.);
#790 = CIRCLE('',#791,0.75);
#791 = AXIS2_PLACEMENT_3D('',#792,#793,#794);
#792 = CARTESIAN_POINT('',(0.,0.,0.));
#793 = DIRECTION('',(0.,0.,1.));
#794 = DIRECTION('',(1.,0.,-0.));
#795 = CYLINDRICAL_SURFACE('',#796,0.75);
#796 = AXIS2_PLACEMENT_3D('',#797,#798,#799);
#797 = CARTESIAN_POINT('',(0.,0.,0.));
#798 = DIRECTION('',(-0.,-0.,-1.));
#799 = DIRECTION('',(1.,0.,-0.));
#800 = ADVANCED_FACE('',(#801),#804,.F.);
#801 = FACE_BOUND('',#802,.T.);
#802 = EDGE_LOOP('',(#803));
#803 = ORIENTED_EDGE('',*,*,#789,.F.);
#804 = PLANE('',#805);
#805 = AXIS2_PLACEMENT_3D('',#806,#807,#808);
#806 = CARTESIAN_POINT('',(0.,0.,0.));
#807 = DIRECTION('',(0.,0.,1.));
#808 = DIRECTION('',(1.,0.,-0.));
#809 = ADVANCED_FACE('',(#810),#813,.T.);
#810 = FACE_BOUND('',#811,.F.);
#811 = EDGE_LOOP('',(#812));
#812 = ORIENTED_EDGE('',*,*,#781,.F.);
#813 = PLANE('',#814);
#814 = AXIS2_PLACEMENT_3D('',#815,#816,#817);
#815 = CARTESIAN_POINT('',(0.,0.,4.386342439892));
#816 = DIRECTION('',(0.,0.,1.));
#817 = DIRECTION('',(1.,0.,0.));
#818 = ( GEOMETRIC_REPRESENTATION_CONTEXT(3) 
GLOBAL_UNCERTAINTY_ASSIGNED_CONTEXT((#822)) GLOBAL_UNIT_ASSIGNED_CONTEXT
((#819,#820,#821)) REPRESENTATION_CONTEXT('Context #1',
  '3D Context with UNIT and UNCERTAINTY') );
#819 = ( LENGTH_UNIT() NAMED_UNIT(*) SI_UNIT(.MILLI.,.METRE.) );
#820 = ( NAMED_UNIT(*) PLANE_ANGLE_UNIT() SI_UNIT($,.RADIAN.) );
#821 = ( NAMED_UNIT(*) SI_UNIT($,.STERADIAN.) SOLID_ANGLE_UNIT() );
#822 = UNCERTAINTY_MEASURE_WITH_UNIT(LENGTH_MEASURE(1.E-07),#819,
  'distance_accuracy_value','confusion accuracy');
#823 = CONTEXT_DEPENDENT_SHAPE_REPRESENTATION(#824,#826);
#824 = ( REPRESENTATION_RELATIONSHIP('','',#764,#10) 
REPRESENTATION_RELATIONSHIP_WITH_TRANSFORMATION(#825) 
SHAPE_REPRESENTATION_RELATIONSHIP() );
#825 = ITEM_DEFINED_TRANSFORMATION('','',#11,#47);
#826 = PRODUCT_DEFINITION_SHAPE('Placement','Placement of an item',#827
  );
#827 = NEXT_ASSEMBLY_USAGE_OCCURRENCE('141','ROPE_DYNEEMA_8','',#5,#759,
  $);
#828 = PRODUCT_RELATED_PRODUCT_CATEGORY('part',$,(#761));
#829 = SHAPE_DEFINITION_REPRESENTATION(#830,#836);
#830 = PRODUCT_DEFINITION_SHAPE('','',#831);
#831 = PRODUCT_DEFINITION('design','',#832,#835);
#832 = PRODUCT_DEFINITION_FORMATION('','',#833);
#833 = PRODUCT('ROPE_DYNEEMA_9','ROPE_DYNEEMA_9','',(#834));
#834 = PRODUCT_CONTEXT('',#2,'mechanical');
#835 = PRODUCT_DEFINITION_CONTEXT('part definition',#2,'design');
#836 = ADVANCED_BREP_SHAPE_REPRESENTATION('',(#11,#837),#890);
#837 = MANIFOLD_SOLID_BREP('',#838);
#838 = CLOSED_SHELL('',(#839,#872,#881));
#839 = ADVANCED_FACE('',(#840),#867,.T.);
#840 = FACE_BOUND('',#841,.F.);
#841 = EDGE_LOOP('',(#842,#852,#859,#860));
#842 = ORIENTED_EDGE('',*,*,#843,.T.);
#843 = EDGE_CURVE('',#844,#846,#848,.T.);
#844 = VERTEX_POINT('',#845);
#845 = CARTESIAN_POINT('',(0.75,0.,0.));
#846 = VERTEX_POINT('',#847);
#847 = CARTESIAN_POINT('',(0.75,0.,15.724185193516));
#848 = LINE('',#849,#850);
#849 = CARTESIAN_POINT('',(0.75,-1.8E-16,0.));
#850 = VECTOR('',#851,1.);
#851 = DIRECTION('',(0.,0.,1.));
#852 = ORIENTED_EDGE('',*,*,#853,.T.);
#853 = EDGE_CURVE('',#846,#846,#854,.T.);
#854 = CIRCLE('',#855,0.75);
#855 = AXIS2_PLACEMENT_3D('',#856,#857,#858);
#856 = CARTESIAN_POINT('',(0.,0.,15.724185193516));
#857 = DIRECTION('',(0.,0.,1.));
#858 = DIRECTION('',(1.,0.,0.));
#859 = ORIENTED_EDGE('',*,*,#843,.F.);
#860 = ORIENTED_EDGE('',*,*,#861,.F.);
#861 = EDGE_CURVE('',#844,#844,#862,.T.);
#862 = CIRCLE('',#863,0.75);
#863 = AXIS2_PLACEMENT_3D('',#864,#865,#866);
#864 = CARTESIAN_POINT('',(0.,0.,0.));
#865 = DIRECTION('',(0.,0.,1.));
#866 = DIRECTION('',(1.,0.,-0.));
#867 = CYLINDRICAL_SURFACE('',#868,0.75);
#868 = AXIS2_PLACEMENT_3D('',#869,#870,#871);
#869 = CARTESIAN_POINT('',(0.,0.,0.));
#870 = DIRECTION('',(-0.,-0.,-1.));
#871 = DIRECTION('',(1.,0.,-0.));
#872 = ADVANCED_FACE('',(#873),#876,.F.);
#873 = FACE_BOUND('',#874,.T.);
#874 = EDGE_LOOP('',(#875));
#875 = ORIENTED_EDGE('',*,*,#861,.F.);
#876 = PLANE('',#877);
#877 = AXIS2_PLACEMENT_3D('',#878,#879,#880);
#878 = CARTESIAN_POINT('',(0.,0.,0.));
#879 = DIRECTION('',(0.,0.,1.));
#880 = DIRECTION('',(1.,0.,-0.));
#881 = ADVANCED_FACE('',(#882),#885,.T.);
#882 = FACE_BOUND('',#883,.F.);
#883 = EDGE_LOOP('',(#884));
#884 = ORIENTED_EDGE('',*,*,#853,.F.);
#885 = PLANE('',#886);
#886 = AXIS2_PLACEMENT_3D('',#887,#888,#889);
#887 = CARTESIAN_POINT('',(0.,0.,15.724185193516));
#888 = DIRECTION('',(0.,0.,1.));
#889 = DIRECTION('',(1.,0.,0.));
#890 = ( GEOMETRIC_REPRESENTATION_CONTEXT(3) 
GLOBAL_UNCERTAINTY_ASSIGNED_CONTEXT((#894)) GLOBAL_UNIT_ASSIGNED_CONTEXT
((#891,#892,#893)) REPRESENTATION_CONTEXT('Context #1',
  '3D Context with UNIT and UNCERTAINTY') );
#891 = ( LENGTH_UNIT() NAMED_UNIT(*) SI_UNIT(.MILLI.,.METRE.) );
#892 = ( NAMED_UNIT(*) PLANE_ANGLE_UNIT() SI_UNIT($,.RADIAN.) );
#893 = ( NAMED_UNIT(*) SI_UNIT($,.STERADIAN.) SOLID_ANGLE_UNIT() );
#894 = UNCERTAINTY_MEASURE_WITH_UNIT(LENGTH_MEASURE(1.E-07),#891,
  'distance_accuracy_value','confusion accuracy');
#895 = CONTEXT_DEPENDENT_SHAPE_REPRESENTATION(#896,#898);
#896 = ( REPRESENTATION_RELATIONSHIP('','',#836,#10) 
REPRESENTATION_RELATIONSHIP_WITH_TRANSFORMATION(#897) 
SHAPE_REPRESENTATION_RELATIONSHIP() );
#897 = ITEM_DEFINED_TRANSFORMATION('','',#11,#51);
#898 = PRODUCT_DEFINITION_SHAPE('Placement','Placement of an item',#899
  );
#899 = NEXT_ASSEMBLY_USAGE_OCCURRENCE('142','ROPE_DYNEEMA_9','',#5,#831,
  $);
#900 = PRODUCT_RELATED_PRODUCT_CATEGORY('part',$,(#833));
#901 = SHAPE_DEFINITION_REPRESENTATION(#902,#908);
#902 = PRODUCT_DEFINITION_SHAPE('','',#903);
#903 = PRODUCT_DEFINITION('design','',#904,#907);
#904 = PRODUCT_DEFINITION_FORMATION('','',#905);
#905 = PRODUCT('ROPE_DYNEEMA_10','ROPE_DYNEEMA_10','',(#906));
#906 = PRODUCT_CONTEXT('',#2,'mechanical');
#907 = PRODUCT_DEFINITION_CONTEXT('part definition',#2,'design');
#908 = ADVANCED_BREP_SHAPE_REPRESENTATION('',(#11,#909),#1058);
#909 = MANIFOLD_SOLID_BREP('',#910);
#910 = CLOSED_SHELL('',(#911,#980,#989,#1005,#1039,#1049));
#911 = ADVANCED_FACE('',(#912),#975,.T.);
#912 = FACE_BOUND('',#913,.F.);
#913 = EDGE_LOOP('',(#914,#923,#931,#940,#949,#958,#967,#974));
#914 = ORIENTED_EDGE('',*,*,#915,.F.);
#915 = EDGE_CURVE('',#916,#916,#918,.T.);
#916 = VERTEX_POINT('',#917);
#917 = CARTESIAN_POINT('',(-192.8502334218,167.27971989377,
    332.14583052027));
#918 = CIRCLE('',#919,0.75);
#919 = AXIS2_PLACEMENT_3D('',#920,#921,#922);
#920 = CARTESIAN_POINT('',(-193.,168.,332.));
#921 = DIRECTION('',(-0.194440693696,-0.233328832435,-0.952759399109));
#922 = DIRECTION('',(0.199688770857,-0.960373474971,0.194440693696));
#923 = ORIENTED_EDGE('',*,*,#924,.T.);
#924 = EDGE_CURVE('',#916,#925,#927,.T.);
#925 = VERTEX_POINT('',#926);
#926 = CARTESIAN_POINT('',(-197.8502334218,161.27971989377,
    307.64583052027));
#927 = LINE('',#928,#929);
#928 = CARTESIAN_POINT('',(-192.8502334218,167.27971989377,
    332.14583052027));
#929 = VECTOR('',#930,1.);
#930 = DIRECTION('',(-0.194440693696,-0.233328832435,-0.952759399109));
#931 = ORIENTED_EDGE('',*,*,#932,.T.);
#932 = EDGE_CURVE('',#925,#933,#935,.T.);
#933 = VERTEX_POINT('',#934);
#934 = CARTESIAN_POINT('',(-198.6984833131,161.80421301071,
    307.69049544903));
#935 = CIRCLE('',#936,0.75);
#936 = AXIS2_PLACEMENT_3D('',#937,#938,#939);
#937 = CARTESIAN_POINT('',(-198.,162.,307.5));
#938 = DIRECTION('',(-0.194440693696,-0.233328832435,-0.952759399109));
#939 = DIRECTION('',(0.199688770857,-0.960373474971,0.194440693696));
#940 = ORIENTED_EDGE('',*,*,#941,.F.);
#941 = EDGE_CURVE('',#942,#933,#944,.T.);
#942 = VERTEX_POINT('',#943);
#943 = CARTESIAN_POINT('',(-198.7298923991,162.,307.67416643267));
#944 = ELLIPSE('',#945,0.755622243957,0.75);
#945 = AXIS2_PLACEMENT_3D('',#946,#947,#948);
#946 = CARTESIAN_POINT('',(-198.,162.,307.5));
#947 = DIRECTION('',(0.230494051917,0.117538970629,0.965948799065));
#948 = DIRECTION('',(-0.282014461551,0.958142913874,-4.929503087191E-02)
  );
#949 = ORIENTED_EDGE('',*,*,#950,.F.);
#950 = EDGE_CURVE('',#951,#942,#953,.T.);
#951 = VERTEX_POINT('',#952);
#952 = CARTESIAN_POINT('',(-198.2130964002,162.72399409861,
    307.46275157815));
#953 = ELLIPSE('',#954,0.755622243957,0.75);
#954 = AXIS2_PLACEMENT_3D('',#955,#956,#957);
#955 = CARTESIAN_POINT('',(-198.,162.,307.5));
#956 = DIRECTION('',(0.230494051917,0.117538970629,0.965948799065));
#957 = DIRECTION('',(-0.282014461551,0.958142913874,-4.929503087191E-02)
  );
#958 = ORIENTED_EDGE('',*,*,#959,.F.);
#959 = EDGE_CURVE('',#960,#951,#962,.T.);
#960 = VERTEX_POINT('',#961);
#961 = CARTESIAN_POINT('',(-197.3015166868,162.19578698928,
    307.30950455096));
#962 = ELLIPSE('',#963,0.755622243957,0.75);
#963 = AXIS2_PLACEMENT_3D('',#964,#965,#966);
#964 = CARTESIAN_POINT('',(-198.,162.,307.5));
#965 = DIRECTION('',(0.230494051917,0.117538970629,0.965948799065));
#966 = DIRECTION('',(-0.282014461551,0.958142913874,-4.929503087191E-02)
  );
#967 = ORIENTED_EDGE('',*,*,#968,.T.);
#968 = EDGE_CURVE('',#960,#925,#969,.T.);
#969 = CIRCLE('',#970,0.75);
#970 = AXIS2_PLACEMENT_3D('',#971,#972,#973);
#971 = CARTESIAN_POINT('',(-198.,162.,307.5));
#972 = DIRECTION('',(-0.194440693696,-0.233328832435,-0.952759399109));
#973 = DIRECTION('',(0.199688770857,-0.960373474971,0.194440693696));
#974 = ORIENTED_EDGE('',*,*,#924,.F.);
#975 = CYLINDRICAL_SURFACE('',#976,0.75);
#976 = AXIS2_PLACEMENT_3D('',#977,#978,#979);
#977 = CARTESIAN_POINT('',(-193.,168.,332.));
#978 = DIRECTION('',(0.194440693696,0.233328832435,0.952759399109));
#979 = DIRECTION('',(0.199688770857,-0.960373474971,0.194440693696));
#980 = ADVANCED_FACE('',(#981),#984,.F.);
#981 = FACE_BOUND('',#982,.T.);
#982 = EDGE_LOOP('',(#983));
#983 = ORIENTED_EDGE('',*,*,#915,.F.);
#984 = PLANE('',#985);
#985 = AXIS2_PLACEMENT_3D('',#986,#987,#988);
#986 = CARTESIAN_POINT('',(-193.,168.,332.));
#987 = DIRECTION('',(-0.194440693696,-0.233328832435,-0.952759399109));
#988 = DIRECTION('',(0.199688770857,-0.960373474971,0.194440693696));
#989 = ADVANCED_FACE('',(#990),#1000,.T.);
#990 = FACE_BOUND('',#991,.T.);
#991 = EDGE_LOOP('',(#992,#993,#994));
#992 = ORIENTED_EDGE('',*,*,#968,.T.);
#993 = ORIENTED_EDGE('',*,*,#932,.T.);
#994 = ORIENTED_EDGE('',*,*,#995,.T.);
#995 = EDGE_CURVE('',#933,#960,#996,.T.);
#996 = LINE('',#997,#998);
#997 = CARTESIAN_POINT('',(-198.,162.,307.5));
#998 = VECTOR('',#999,1.);
#999 = DIRECTION('',(0.931311084175,0.261049319049,-0.253993932048));
#1000 = PLANE('',#1001);
#1001 = AXIS2_PLACEMENT_3D('',#1002,#1003,#1004);
#1002 = CARTESIAN_POINT('',(-198.,162.,307.5));
#1003 = DIRECTION('',(-0.194440693696,-0.233328832435,-0.952759399109));
#1004 = DIRECTION('',(0.199688770857,-0.960373474971,0.194440693696));
#1005 = ADVANCED_FACE('',(#1006),#1034,.T.);
#1006 = FACE_BOUND('',#1007,.F.);
#1007 = EDGE_LOOP('',(#1008,#1009,#1017,#1024,#1025,#1026,#1033));
#1008 = ORIENTED_EDGE('',*,*,#950,.T.);
#1009 = ORIENTED_EDGE('',*,*,#1010,.T.);
#1010 = EDGE_CURVE('',#942,#1011,#1013,.T.);
#1011 = VERTEX_POINT('',#1012);
#1012 = CARTESIAN_POINT('',(-200.2235728659,162.,302.19733805434));
#1013 = LINE('',#1014,#1015);
#1014 = CARTESIAN_POINT('',(-198.7235728659,162.,307.69733805434));
#1015 = VECTOR('',#1016,1.);
#1016 = DIRECTION('',(-0.263117405792,0.,-0.964763821238));
#1017 = ORIENTED_EDGE('',*,*,#1018,.T.);
#1018 = EDGE_CURVE('',#1011,#1011,#1019,.T.);
#1019 = CIRCLE('',#1020,0.75);
#1020 = AXIS2_PLACEMENT_3D('',#1021,#1022,#1023);
#1021 = CARTESIAN_POINT('',(-199.5,162.,302.));
#1022 = DIRECTION('',(-0.263117405792,0.,-0.964763821238));
#1023 = DIRECTION('',(-0.964763821238,0.,0.263117405792));
#1024 = ORIENTED_EDGE('',*,*,#1010,.F.);
#1025 = ORIENTED_EDGE('',*,*,#941,.T.);
#1026 = ORIENTED_EDGE('',*,*,#1027,.F.);
#1027 = EDGE_CURVE('',#960,#933,#1028,.T.);
#1028 = CIRCLE('',#1029,0.75);
#1029 = AXIS2_PLACEMENT_3D('',#1030,#1031,#1032);
#1030 = CARTESIAN_POINT('',(-198.,162.,307.5));
#1031 = DIRECTION('',(-0.263117405792,0.,-0.964763821238));
#1032 = DIRECTION('',(-0.964763821238,0.,0.263117405792));
#1033 = ORIENTED_EDGE('',*,*,#959,.T.);
#1034 = CYLINDRICAL_SURFACE('',#1035,0.75);
#1035 = AXIS2_PLACEMENT_3D('',#1036,#1037,#1038);
#1036 = CARTESIAN_POINT('',(-198.,162.,307.5));
#1037 = DIRECTION('',(0.263117405792,-0.,0.964763821238));
#1038 = DIRECTION('',(-0.964763821238,0.,0.263117405792));
#1039 = ADVANCED_FACE('',(#1040),#1044,.F.);
#1040 = FACE_BOUND('',#1041,.F.);
#1041 = EDGE_LOOP('',(#1042,#1043));
#1042 = ORIENTED_EDGE('',*,*,#995,.T.);
#1043 = ORIENTED_EDGE('',*,*,#1027,.T.);
#1044 = PLANE('',#1045);
#1045 = AXIS2_PLACEMENT_3D('',#1046,#1047,#1048);
#1046 = CARTESIAN_POINT('',(-198.,162.,307.5));
#1047 = DIRECTION('',(-0.263117405792,0.,-0.964763821238));
#1048 = DIRECTION('',(-0.964763821238,0.,0.263117405792));
#1049 = ADVANCED_FACE('',(#1050),#1053,.T.);
#1050 = FACE_BOUND('',#1051,.F.);
#1051 = EDGE_LOOP('',(#1052));
#1052 = ORIENTED_EDGE('',*,*,#1018,.F.);
#1053 = PLANE('',#1054);
#1054 = AXIS2_PLACEMENT_3D('',#1055,#1056,#1057);
#1055 = CARTESIAN_POINT('',(-199.5,162.,302.));
#1056 = DIRECTION('',(-0.263117405792,0.,-0.964763821238));
#1057 = DIRECTION('',(-0.964763821238,0.,0.263117405792));
#1058 = ( GEOMETRIC_REPRESENTATION_CONTEXT(3) 
GLOBAL_UNCERTAINTY_ASSIGNED_CONTEXT((#1062)) 
GLOBAL_UNIT_ASSIGNED_CONTEXT((#1059,#1060,#1061)) REPRESENTATION_CONTEXT
('Context #1','3D Context with UNIT and UNCERTAINTY') );
#1059 = ( LENGTH_UNIT() NAMED_UNIT(*) SI_UNIT(.MILLI.,.METRE.) );
#1060 = ( NAMED_UNIT(*) PLANE_ANGLE_UNIT() SI_UNIT($,.RADIAN.) );
#1061 = ( NAMED_UNIT(*) SI_UNIT($,.STERADIAN.) SOLID_ANGLE_UNIT() );
#1062 = UNCERTAINTY_MEASURE_WITH_UNIT(LENGTH_MEASURE(5.E-06),#1059,
  'distance_accuracy_value','confusion accuracy');
#1063 = CONTEXT_DEPENDENT_SHAPE_REPRESENTATION(#1064,#1066);
#1064 = ( REPRESENTATION_RELATIONSHIP('','',#908,#10) 
REPRESENTATION_RELATIONSHIP_WITH_TRANSFORMATION(#1065) 
SHAPE_REPRESENTATION_RELATIONSHIP() );
#1065 = ITEM_DEFINED_TRANSFORMATION('','',#11,#55);
#1066 = PRODUCT_DEFINITION_SHAPE('Placement','Placement of an item',
  #1067);
#1067 = NEXT_ASSEMBLY_USAGE_OCCURRENCE('143','ROPE_DYNEEMA_10','',#5,
  #903,$);
#1068 = PRODUCT_RELATED_PRODUCT_CATEGORY('part',$,(#905));
#1069 = SHAPE_DEFINITION_REPRESENTATION(#1070,#1076);
#1070 = PRODUCT_DEFINITION_SHAPE('','',#1071);
#1071 = PRODUCT_DEFINITION('design','',#1072,#1075);
#1072 = PRODUCT_DEFINITION_FORMATION('','',#1073);
#1073 = PRODUCT('ROPE_DYNEEMA_11','ROPE_DYNEEMA_11','',(#1074));
#1074 = PRODUCT_CONTEXT('',#2,'mechanical');
#1075 = PRODUCT_DEFINITION_CONTEXT('part definition',#2,'design');
#1076 = ADVANCED_BREP_SHAPE_REPRESENTATION('',(#11,#1077),#1130);
#1077 = MANIFOLD_SOLID_BREP('',#1078);
#1078 = CLOSED_SHELL('',(#1079,#1112,#1121));
#1079 = ADVANCED_FACE('',(#1080),#1107,.T.);
#1080 = FACE_BOUND('',#1081,.F.);
#1081 = EDGE_LOOP('',(#1082,#1092,#1099,#1100));
#1082 = ORIENTED_EDGE('',*,*,#1083,.T.);
#1083 = EDGE_CURVE('',#1084,#1086,#1088,.T.);
#1084 = VERTEX_POINT('',#1085);
#1085 = CARTESIAN_POINT('',(0.75,0.,-5.684341886081E-14));
#1086 = VERTEX_POINT('',#1087);
#1087 = CARTESIAN_POINT('',(0.75,0.,8.895504482602));
#1088 = LINE('',#1089,#1090);
#1089 = CARTESIAN_POINT('',(0.75,-1.8E-16,0.));
#1090 = VECTOR('',#1091,1.);
#1091 = DIRECTION('',(0.,0.,1.));
#1092 = ORIENTED_EDGE('',*,*,#1093,.T.);
#1093 = EDGE_CURVE('',#1086,#1086,#1094,.T.);
#1094 = CIRCLE('',#1095,0.75);
#1095 = AXIS2_PLACEMENT_3D('',#1096,#1097,#1098);
#1096 = CARTESIAN_POINT('',(0.,0.,8.895504482602));
#1097 = DIRECTION('',(0.,0.,1.));
#1098 = DIRECTION('',(1.,0.,0.));
#1099 = ORIENTED_EDGE('',*,*,#1083,.F.);
#1100 = ORIENTED_EDGE('',*,*,#1101,.F.);
#1101 = EDGE_CURVE('',#1084,#1084,#1102,.T.);
#1102 = CIRCLE('',#1103,0.75);
#1103 = AXIS2_PLACEMENT_3D('',#1104,#1105,#1106);
#1104 = CARTESIAN_POINT('',(0.,0.,0.));
#1105 = DIRECTION('',(0.,0.,1.));
#1106 = DIRECTION('',(1.,0.,-0.));
#1107 = CYLINDRICAL_SURFACE('',#1108,0.75);
#1108 = AXIS2_PLACEMENT_3D('',#1109,#1110,#1111);
#1109 = CARTESIAN_POINT('',(0.,0.,0.));
#1110 = DIRECTION('',(-0.,-0.,-1.));
#1111 = DIRECTION('',(1.,0.,-0.));
#1112 = ADVANCED_FACE('',(#1113),#1116,.F.);
#1113 = FACE_BOUND('',#1114,.T.);
#1114 = EDGE_LOOP('',(#1115));
#1115 = ORIENTED_EDGE('',*,*,#1101,.F.);
#1116 = PLANE('',#1117);
#1117 = AXIS2_PLACEMENT_3D('',#1118,#1119,#1120);
#1118 = CARTESIAN_POINT('',(0.,0.,0.));
#1119 = DIRECTION('',(0.,0.,1.));
#1120 = DIRECTION('',(1.,0.,-0.));
#1121 = ADVANCED_FACE('',(#1122),#1125,.T.);
#1122 = FACE_BOUND('',#1123,.F.);
#1123 = EDGE_LOOP('',(#1124));
#1124 = ORIENTED_EDGE('',*,*,#1093,.F.);
#1125 = PLANE('',#1126);
#1126 = AXIS2_PLACEMENT_3D('',#1127,#1128,#1129);
#1127 = CARTESIAN_POINT('',(0.,0.,8.895504482602));
#1128 = DIRECTION('',(0.,0.,1.));
#1129 = DIRECTION('',(1.,0.,0.));
#1130 = ( GEOMETRIC_REPRESENTATION_CONTEXT(3) 
GLOBAL_UNCERTAINTY_ASSIGNED_CONTEXT((#1134)) 
GLOBAL_UNIT_ASSIGNED_CONTEXT((#1131,#1132,#1133)) REPRESENTATION_CONTEXT
('Context #1','3D Context with UNIT and UNCERTAINTY') );
#1131 = ( LENGTH_UNIT() NAMED_UNIT(*) SI_UNIT(.MILLI.,.METRE.) );
#1132 = ( NAMED_UNIT(*) PLANE_ANGLE_UNIT() SI_UNIT($,.RADIAN.) );
#1133 = ( NAMED_UNIT(*) SI_UNIT($,.STERADIAN.) SOLID_ANGLE_UNIT() );
#1134 = UNCERTAINTY_MEASURE_WITH_UNIT(LENGTH_MEASURE(1.E-07),#1131,
  'distance_accuracy_value','confusion accuracy');
#1135 = CONTEXT_DEPENDENT_SHAPE_REPRESENTATION(#1136,#1138);
#1136 = ( REPRESENTATION_RELATIONSHIP('','',#1076,#10) 
REPRESENTATION_RELATIONSHIP_WITH_TRANSFORMATION(#1137) 
SHAPE_REPRESENTATION_RELATIONSHIP() );
#1137 = ITEM_DEFINED_TRANSFORMATION('','',#11,#59);
#1138 = PRODUCT_DEFINITION_SHAPE('Placement','Placement of an item',
  #1139);
#1139 = NEXT_ASSEMBLY_USAGE_OCCURRENCE('144','ROPE_DYNEEMA_11','',#5,
  #1071,$);
#1140 = PRODUCT_RELATED_PRODUCT_CATEGORY('part',$,(#1073));
#1141 = SHAPE_DEFINITION_REPRESENTATION(#1142,#1148);
#1142 = PRODUCT_DEFINITION_SHAPE('','',#1143);
#1143 = PRODUCT_DEFINITION('design','',#1144,#1147);
#1144 = PRODUCT_DEFINITION_FORMATION('','',#1145);
#1145 = PRODUCT('ROPE_DYNEEMA_12','ROPE_DYNEEMA_12','',(#1146));
#1146 = PRODUCT_CONTEXT('',#2,'mechanical');
#1147 = PRODUCT_DEFINITION_CONTEXT('part definition',#2,'design');
#1148 = ADVANCED_BREP_SHAPE_REPRESENTATION('',(#11,#1149),#1202);
#1149 = MANIFOLD_SOLID_BREP('',#1150);
#1150 = CLOSED_SHELL('',(#1151,#1184,#1193));
#1151 = ADVANCED_FACE('',(#1152),#1179,.T.);
#1152 = FACE_BOUND('',#1153,.F.);
#1153 = EDGE_LOOP('',(#1154,#1164,#1171,#1172));
#1154 = ORIENTED_EDGE('',*,*,#1155,.T.);
#1155 = EDGE_CURVE('',#1156,#1158,#1160,.T.);
#1156 = VERTEX_POINT('',#1157);
#1157 = CARTESIAN_POINT('',(0.75,0.,-5.684341886081E-14));
#1158 = VERTEX_POINT('',#1159);
#1159 = CARTESIAN_POINT('',(0.75,0.,8.254089895319));
#1160 = LINE('',#1161,#1162);
#1161 = CARTESIAN_POINT('',(0.75,-1.8E-16,0.));
#1162 = VECTOR('',#1163,1.);
#1163 = DIRECTION('',(0.,0.,1.));
#1164 = ORIENTED_EDGE('',*,*,#1165,.T.);
#1165 = EDGE_CURVE('',#1158,#1158,#1166,.T.);
#1166 = CIRCLE('',#1167,0.75);
#1167 = AXIS2_PLACEMENT_3D('',#1168,#1169,#1170);
#1168 = CARTESIAN_POINT('',(0.,0.,8.254089895319));
#1169 = DIRECTION('',(0.,0.,1.));
#1170 = DIRECTION('',(1.,0.,0.));
#1171 = ORIENTED_EDGE('',*,*,#1155,.F.);
#1172 = ORIENTED_EDGE('',*,*,#1173,.F.);
#1173 = EDGE_CURVE('',#1156,#1156,#1174,.T.);
#1174 = CIRCLE('',#1175,0.75);
#1175 = AXIS2_PLACEMENT_3D('',#1176,#1177,#1178);
#1176 = CARTESIAN_POINT('',(0.,0.,0.));
#1177 = DIRECTION('',(0.,0.,1.));
#1178 = DIRECTION('',(1.,0.,-0.));
#1179 = CYLINDRICAL_SURFACE('',#1180,0.75);
#1180 = AXIS2_PLACEMENT_3D('',#1181,#1182,#1183);
#1181 = CARTESIAN_POINT('',(0.,0.,0.));
#1182 = DIRECTION('',(-0.,-0.,-1.));
#1183 = DIRECTION('',(1.,0.,-0.));
#1184 = ADVANCED_FACE('',(#1185),#1188,.F.);
#1185 = FACE_BOUND('',#1186,.T.);
#1186 = EDGE_LOOP('',(#1187));
#1187 = ORIENTED_EDGE('',*,*,#1173,.F.);
#1188 = PLANE('',#1189);
#1189 = AXIS2_PLACEMENT_3D('',#1190,#1191,#1192);
#1190 = CARTESIAN_POINT('',(0.,0.,0.));
#1191 = DIRECTION('',(0.,0.,1.));
#1192 = DIRECTION('',(1.,0.,-0.));
#1193 = ADVANCED_FACE('',(#1194),#1197,.T.);
#1194 = FACE_BOUND('',#1195,.F.);
#1195 = EDGE_LOOP('',(#1196));
#1196 = ORIENTED_EDGE('',*,*,#1165,.F.);
#1197 = PLANE('',#1198);
#1198 = AXIS2_PLACEMENT_3D('',#1199,#1200,#1201);
#1199 = CARTESIAN_POINT('',(0.,0.,8.254089895319));
#1200 = DIRECTION('',(0.,0.,1.));
#1201 = DIRECTION('',(1.,0.,0.));
#1202 = ( GEOMETRIC_REPRESENTATION_CONTEXT(3) 
GLOBAL_UNCERTAINTY_ASSIGNED_CONTEXT((#1206)) 
GLOBAL_UNIT_ASSIGNED_CONTEXT((#1203,#1204,#1205)) REPRESENTATION_CONTEXT
('Context #1','3D Context with UNIT and UNCERTAINTY') );
#1203 = ( LENGTH_UNIT() NAMED_UNIT(*) SI_UNIT(.MILLI.,.METRE.) );
#1204 = ( NAMED_UNIT(*) PLANE_ANGLE_UNIT() SI_UNIT($,.RADIAN.) );
#1205 = ( NAMED_UNIT(*) SI_UNIT($,.STERADIAN.) SOLID_ANGLE_UNIT() );
#1206 = UNCERTAINTY_MEASURE_WITH_UNIT(LENGTH_MEASURE(1.E-07),#1203,
  'distance_accuracy_value','confusion accuracy');
#1207 = CONTEXT_DEPENDENT_SHAPE_REPRESENTATION(#1208,#1210);
#1208 = ( REPRESENTATION_RELATIONSHIP('','',#1148,#10) 
REPRESENTATION_RELATIONSHIP_WITH_TRANSFORMATION(#1209) 
SHAPE_REPRESENTATION_RELATIONSHIP() );
#1209 = ITEM_DEFINED_TRANSFORMATION('','',#11,#63);
#1210 = PRODUCT_DEFINITION_SHAPE('Placement','Placement of an item',
  #1211);
#1211 = NEXT_ASSEMBLY_USAGE_OCCURRENCE('145','ROPE_DYNEEMA_12','',#5,
  #1143,$);
#1212 = PRODUCT_RELATED_PRODUCT_CATEGORY('part',$,(#1145));
#1213 = SHAPE_DEFINITION_REPRESENTATION(#1214,#1220);
#1214 = PRODUCT_DEFINITION_SHAPE('','',#1215);
#1215 = PRODUCT_DEFINITION('design','',#1216,#1219);
#1216 = PRODUCT_DEFINITION_FORMATION('','',#1217);
#1217 = PRODUCT('ROPE_DYNEEMA_13','ROPE_DYNEEMA_13','',(#1218));
#1218 = PRODUCT_CONTEXT('',#2,'mechanical');
#1219 = PRODUCT_DEFINITION_CONTEXT('part definition',#2,'design');
#1220 = ADVANCED_BREP_SHAPE_REPRESENTATION('',(#11,#1221),#1274);
#1221 = MANIFOLD_SOLID_BREP('',#1222);
#1222 = CLOSED_SHELL('',(#1223,#1256,#1265));
#1223 = ADVANCED_FACE('',(#1224),#1251,.T.);
#1224 = FACE_BOUND('',#1225,.F.);
#1225 = EDGE_LOOP('',(#1226,#1236,#1243,#1244));
#1226 = ORIENTED_EDGE('',*,*,#1227,.T.);
#1227 = EDGE_CURVE('',#1228,#1230,#1232,.T.);
#1228 = VERTEX_POINT('',#1229);
#1229 = CARTESIAN_POINT('',(0.75,0.,2.84217094304E-14));
#1230 = VERTEX_POINT('',#1231);
#1231 = CARTESIAN_POINT('',(0.75,0.,8.254089895319));
#1232 = LINE('',#1233,#1234);
#1233 = CARTESIAN_POINT('',(0.75,-1.8E-16,0.));
#1234 = VECTOR('',#1235,1.);
#1235 = DIRECTION('',(0.,0.,1.));
#1236 = ORIENTED_EDGE('',*,*,#1237,.T.);
#1237 = EDGE_CURVE('',#1230,#1230,#1238,.T.);
#1238 = CIRCLE('',#1239,0.75);
#1239 = AXIS2_PLACEMENT_3D('',#1240,#1241,#1242);
#1240 = CARTESIAN_POINT('',(0.,0.,8.254089895319));
#1241 = DIRECTION('',(0.,0.,1.));
#1242 = DIRECTION('',(1.,0.,0.));
#1243 = ORIENTED_EDGE('',*,*,#1227,.F.);
#1244 = ORIENTED_EDGE('',*,*,#1245,.F.);
#1245 = EDGE_CURVE('',#1228,#1228,#1246,.T.);
#1246 = CIRCLE('',#1247,0.75);
#1247 = AXIS2_PLACEMENT_3D('',#1248,#1249,#1250);
#1248 = CARTESIAN_POINT('',(0.,0.,0.));
#1249 = DIRECTION('',(0.,0.,1.));
#1250 = DIRECTION('',(1.,0.,-0.));
#1251 = CYLINDRICAL_SURFACE('',#1252,0.75);
#1252 = AXIS2_PLACEMENT_3D('',#1253,#1254,#1255);
#1253 = CARTESIAN_POINT('',(0.,0.,0.));
#1254 = DIRECTION('',(-0.,-0.,-1.));
#1255 = DIRECTION('',(1.,0.,-0.));
#1256 = ADVANCED_FACE('',(#1257),#1260,.F.);
#1257 = FACE_BOUND('',#1258,.T.);
#1258 = EDGE_LOOP('',(#1259));
#1259 = ORIENTED_EDGE('',*,*,#1245,.F.);
#1260 = PLANE('',#1261);
#1261 = AXIS2_PLACEMENT_3D('',#1262,#1263,#1264);
#1262 = CARTESIAN_POINT('',(0.,0.,0.));
#1263 = DIRECTION('',(0.,0.,1.));
#1264 = DIRECTION('',(1.,0.,-0.));
#1265 = ADVANCED_FACE('',(#1266),#1269,.T.);
#1266 = FACE_BOUND('',#1267,.F.);
#1267 = EDGE_LOOP('',(#1268));
#1268 = ORIENTED_EDGE('',*,*,#1237,.F.);
#1269 = PLANE('',#1270);
#1270 = AXIS2_PLACEMENT_3D('',#1271,#1272,#1273);
#1271 = CARTESIAN_POINT('',(0.,0.,8.254089895319));
#1272 = DIRECTION('',(0.,0.,1.));
#1273 = DIRECTION('',(1.,0.,0.));
#1274 = ( GEOMETRIC_REPRESENTATION_CONTEXT(3) 
GLOBAL_UNCERTAINTY_ASSIGNED_CONTEXT((#1278)) 
GLOBAL_UNIT_ASSIGNED_CONTEXT((#1275,#1276,#1277)) REPRESENTATION_CONTEXT
('Context #1','3D Context with UNIT and UNCERTAINTY') );
#1275 = ( LENGTH_UNIT() NAMED_UNIT(*) SI_UNIT(.MILLI.,.METRE.) );
#1276 = ( NAMED_UNIT(*) PLANE_ANGLE_UNIT() SI_UNIT($,.RADIAN.) );
#1277 = ( NAMED_UNIT(*) SI_UNIT($,.STERADIAN.) SOLID_ANGLE_UNIT() );
#1278 = UNCERTAINTY_MEASURE_WITH_UNIT(LENGTH_MEASURE(1.E-07),#1275,
  'distance_accuracy_value','confusion accuracy');
#1279 = CONTEXT_DEPENDENT_SHAPE_REPRESENTATION(#1280,#1282);
#1280 = ( REPRESENTATION_RELATIONSHIP('','',#1220,#10) 
REPRESENTATION_RELATIONSHIP_WITH_TRANSFORMATION(#1281) 
SHAPE_REPRESENTATION_RELATIONSHIP() );
#1281 = ITEM_DEFINED_TRANSFORMATION('','',#11,#67);
#1282 = PRODUCT_DEFINITION_SHAPE('Placement','Placement of an item',
  #1283);
#1283 = NEXT_ASSEMBLY_USAGE_OCCURRENCE('146','ROPE_DYNEEMA_13','',#5,
  #1215,$);
#1284 = PRODUCT_RELATED_PRODUCT_CATEGORY('part',$,(#1217));
#1285 = SHAPE_DEFINITION_REPRESENTATION(#1286,#1292);
#1286 = PRODUCT_DEFINITION_SHAPE('','',#1287);
#1287 = PRODUCT_DEFINITION('design','',#1288,#1291);
#1288 = PRODUCT_DEFINITION_FORMATION('','',#1289);
#1289 = PRODUCT('ROPE_DYNEEMA_14','ROPE_DYNEEMA_14','',(#1290));
#1290 = PRODUCT_CONTEXT('',#2,'mechanical');
#1291 = PRODUCT_DEFINITION_CONTEXT('part definition',#2,'design');
#1292 = ADVANCED_BREP_SHAPE_REPRESENTATION('',(#11,#1293),#1346);
#1293 = MANIFOLD_SOLID_BREP('',#1294);
#1294 = CLOSED_SHELL('',(#1295,#1328,#1337));
#1295 = ADVANCED_FACE('',(#1296),#1323,.T.);
#1296 = FACE_BOUND('',#1297,.F.);
#1297 = EDGE_LOOP('',(#1298,#1308,#1315,#1316));
#1298 = ORIENTED_EDGE('',*,*,#1299,.T.);
#1299 = EDGE_CURVE('',#1300,#1302,#1304,.T.);
#1300 = VERTEX_POINT('',#1301);
#1301 = CARTESIAN_POINT('',(0.75,0.,0.));
#1302 = VERTEX_POINT('',#1303);
#1303 = CARTESIAN_POINT('',(0.75,0.,8.895504482602));
#1304 = LINE('',#1305,#1306);
#1305 = CARTESIAN_POINT('',(0.75,-1.8E-16,0.));
#1306 = VECTOR('',#1307,1.);
#1307 = DIRECTION('',(0.,0.,1.));
#1308 = ORIENTED_EDGE('',*,*,#1309,.T.);
#1309 = EDGE_CURVE('',#1302,#1302,#1310,.T.);
#1310 = CIRCLE('',#1311,0.75);
#1311 = AXIS2_PLACEMENT_3D('',#1312,#1313,#1314);
#1312 = CARTESIAN_POINT('',(0.,0.,8.895504482602));
#1313 = DIRECTION('',(0.,0.,1.));
#1314 = DIRECTION('',(1.,0.,0.));
#1315 = ORIENTED_EDGE('',*,*,#1299,.F.);
#1316 = ORIENTED_EDGE('',*,*,#1317,.F.);
#1317 = EDGE_CURVE('',#1300,#1300,#1318,.T.);
#1318 = CIRCLE('',#1319,0.75);
#1319 = AXIS2_PLACEMENT_3D('',#1320,#1321,#1322);
#1320 = CARTESIAN_POINT('',(0.,0.,0.));
#1321 = DIRECTION('',(0.,0.,1.));
#1322 = DIRECTION('',(1.,0.,-0.));
#1323 = CYLINDRICAL_SURFACE('',#1324,0.75);
#1324 = AXIS2_PLACEMENT_3D('',#1325,#1326,#1327);
#1325 = CARTESIAN_POINT('',(0.,0.,0.));
#1326 = DIRECTION('',(-0.,-0.,-1.));
#1327 = DIRECTION('',(1.,0.,-0.));
#1328 = ADVANCED_FACE('',(#1329),#1332,.F.);
#1329 = FACE_BOUND('',#1330,.T.);
#1330 = EDGE_LOOP('',(#1331));
#1331 = ORIENTED_EDGE('',*,*,#1317,.F.);
#1332 = PLANE('',#1333);
#1333 = AXIS2_PLACEMENT_3D('',#1334,#1335,#1336);
#1334 = CARTESIAN_POINT('',(0.,0.,0.));
#1335 = DIRECTION('',(0.,0.,1.));
#1336 = DIRECTION('',(1.,0.,-0.));
#1337 = ADVANCED_FACE('',(#1338),#1341,.T.);
#1338 = FACE_BOUND('',#1339,.F.);
#1339 = EDGE_LOOP('',(#1340));
#1340 = ORIENTED_EDGE('',*,*,#1309,.F.);
#1341 = PLANE('',#1342);
#1342 = AXIS2_PLACEMENT_3D('',#1343,#1344,#1345);
#1343 = CARTESIAN_POINT('',(0.,0.,8.895504482602));
#1344 = DIRECTION('',(0.,0.,1.));
#1345 = DIRECTION('',(1.,0.,0.));
#1346 = ( GEOMETRIC_REPRESENTATION_CONTEXT(3) 
GLOBAL_UNCERTAINTY_ASSIGNED_CONTEXT((#1350)) 
GLOBAL_UNIT_ASSIGNED_CONTEXT((#1347,#1348,#1349)) REPRESENTATION_CONTEXT
('Context #1','3D Context with UNIT and UNCERTAINTY') );
#1347 = ( LENGTH_UNIT() NAMED_UNIT(*) SI_UNIT(.MILLI.,.METRE.) );
#1348 = ( NAMED_UNIT(*) PLANE_ANGLE_UNIT() SI_UNIT($,.RADIAN.) );
#1349 = ( NAMED_UNIT(*) SI_UNIT($,.STERADIAN.) SOLID_ANGLE_UNIT() );
#1350 = UNCERTAINTY_MEASURE_WITH_UNIT(LENGTH_MEASURE(1.E-07),#1347,
  'distance_accuracy_value','confusion accuracy');
#1351 = CONTEXT_DEPENDENT_SHAPE_REPRESENTATION(#1352,#1354);
#1352 = ( REPRESENTATION_RELATIONSHIP('','',#1292,#10) 
REPRESENTATION_RELATIONSHIP_WITH_TRANSFORMATION(#1353) 
SHAPE_REPRESENTATION_RELATIONSHIP() );
#1353 = ITEM_DEFINED_TRANSFORMATION('','',#11,#71);
#1354 = PRODUCT_DEFINITION_SHAPE('Placement','Placement of an item',
  #1355);
#1355 = NEXT_ASSEMBLY_USAGE_OCCURRENCE('147','ROPE_DYNEEMA_14','',#5,
  #1287,$);
#1356 = PRODUCT_RELATED_PRODUCT_CATEGORY('part',$,(#1289));
#1357 = SHAPE_DEFINITION_REPRESENTATION(#1358,#1364);
#1358 = PRODUCT_DEFINITION_SHAPE('','',#1359);
#1359 = PRODUCT_DEFINITION('design','',#1360,#1363);
#1360 = PRODUCT_DEFINITION_FORMATION('','',#1361);
#1361 = PRODUCT('ROPE_DYNEEMA_15','ROPE_DYNEEMA_15','',(#1362));
#1362 = PRODUCT_CONTEXT('',#2,'mechanical');
#1363 = PRODUCT_DEFINITION_CONTEXT('part definition',#2,'design');
#1364 = ADVANCED_BREP_SHAPE_REPRESENTATION('',(#11,#1365),#1418);
#1365 = MANIFOLD_SOLID_BREP('',#1366);
#1366 = CLOSED_SHELL('',(#1367,#1400,#1409));
#1367 = ADVANCED_FACE('',(#1368),#1395,.T.);
#1368 = FACE_BOUND('',#1369,.F.);
#1369 = EDGE_LOOP('',(#1370,#1380,#1387,#1388));
#1370 = ORIENTED_EDGE('',*,*,#1371,.T.);
#1371 = EDGE_CURVE('',#1372,#1374,#1376,.T.);
#1372 = VERTEX_POINT('',#1373);
#1373 = CARTESIAN_POINT('',(0.75,0.,1.42108547152E-14));
#1374 = VERTEX_POINT('',#1375);
#1375 = CARTESIAN_POINT('',(0.75,0.,7.088723439379));
#1376 = LINE('',#1377,#1378);
#1377 = CARTESIAN_POINT('',(0.75,-1.8E-16,0.));
#1378 = VECTOR('',#1379,1.);
#1379 = DIRECTION('',(0.,0.,1.));
#1380 = ORIENTED_EDGE('',*,*,#1381,.T.);
#1381 = EDGE_CURVE('',#1374,#1374,#1382,.T.);
#1382 = CIRCLE('',#1383,0.75);
#1383 = AXIS2_PLACEMENT_3D('',#1384,#1385,#1386);
#1384 = CARTESIAN_POINT('',(0.,0.,7.088723439379));
#1385 = DIRECTION('',(0.,0.,1.));
#1386 = DIRECTION('',(1.,0.,0.));
#1387 = ORIENTED_EDGE('',*,*,#1371,.F.);
#1388 = ORIENTED_EDGE('',*,*,#1389,.F.);
#1389 = EDGE_CURVE('',#1372,#1372,#1390,.T.);
#1390 = CIRCLE('',#1391,0.75);
#1391 = AXIS2_PLACEMENT_3D('',#1392,#1393,#1394);
#1392 = CARTESIAN_POINT('',(0.,0.,0.));
#1393 = DIRECTION('',(0.,0.,1.));
#1394 = DIRECTION('',(1.,0.,-0.));
#1395 = CYLINDRICAL_SURFACE('',#1396,0.75);
#1396 = AXIS2_PLACEMENT_3D('',#1397,#1398,#1399);
#1397 = CARTESIAN_POINT('',(0.,0.,0.));
#1398 = DIRECTION('',(-0.,-0.,-1.));
#1399 = DIRECTION('',(1.,0.,-0.));
#1400 = ADVANCED_FACE('',(#1401),#1404,.F.);
#1401 = FACE_BOUND('',#1402,.T.);
#1402 = EDGE_LOOP('',(#1403));
#1403 = ORIENTED_EDGE('',*,*,#1389,.F.);
#1404 = PLANE('',#1405);
#1405 = AXIS2_PLACEMENT_3D('',#1406,#1407,#1408);
#1406 = CARTESIAN_POINT('',(0.,0.,0.));
#1407 = DIRECTION('',(0.,0.,1.));
#1408 = DIRECTION('',(1.,0.,-0.));
#1409 = ADVANCED_FACE('',(#1410),#1413,.T.);
#1410 = FACE_BOUND('',#1411,.F.);
#1411 = EDGE_LOOP('',(#1412));
#1412 = ORIENTED_EDGE('',*,*,#1381,.F.);
#1413 = PLANE('',#1414);
#1414 = AXIS2_PLACEMENT_3D('',#1415,#1416,#1417);
#1415 = CARTESIAN_POINT('',(0.,0.,7.088723439379));
#1416 = DIRECTION('',(0.,0.,1.));
#1417 = DIRECTION('',(1.,0.,0.));
#1418 = ( GEOMETRIC_REPRESENTATION_CONTEXT(3) 
GLOBAL_UNCERTAINTY_ASSIGNED_CONTEXT((#1422)) 
GLOBAL_UNIT_ASSIGNED_CONTEXT((#1419,#1420,#1421)) REPRESENTATION_CONTEXT
('Context #1','3D Context with UNIT and UNCERTAINTY') );
#1419 = ( LENGTH_UNIT() NAMED_UNIT(*) SI_UNIT(.MILLI.,.METRE.) );
#1420 = ( NAMED_UNIT(*) PLANE_ANGLE_UNIT() SI_UNIT($,.RADIAN.) );
#1421 = ( NAMED_UNIT(*) SI_UNIT($,.STERADIAN.) SOLID_ANGLE_UNIT() );
#1422 = UNCERTAINTY_MEASURE_WITH_UNIT(LENGTH_MEASURE(1.E-07),#1419,
  'distance_accuracy_value','confusion accuracy');
#1423 = CONTEXT_DEPENDENT_SHAPE_REPRESENTATION(#1424,#1426);
#1424 = ( REPRESENTATION_RELATIONSHIP('','',#1364,#10) 
REPRESENTATION_RELATIONSHIP_WITH_TRANSFORMATION(#1425) 
SHAPE_REPRESENTATION_RELATIONSHIP() );
#1425 = ITEM_DEFINED_TRANSFORMATION('','',#11,#75);
#1426 = PRODUCT_DEFINITION_SHAPE('Placement','Placement of an item',
  #1427);
#1427 = NEXT_ASSEMBLY_USAGE_OCCURRENCE('148','ROPE_DYNEEMA_15','',#5,
  #1359,$);
#1428 = PRODUCT_RELATED_PRODUCT_CATEGORY('part',$,(#1361));
ENDSEC;
END-ISO-10303-21;
