ISO-10303-21;
HEADER;
FILE_DESCRIPTION(('FreeCAD Model'),'2;1');
FILE_NAME('Open CASCADE Shape Model','2026-09-28T13:05:56',('Author'),(
    ''),'Open CASCADE STEP processor 7.8','FreeCAD','Unknown');
FILE_SCHEMA(('AUTOMOTIVE_DESIGN { 1 0 10303 214 1 1 1 1 }'));
ENDSEC;
DATA;
#1 = APPLICATION_PROTOCOL_DEFINITION('international standard',
  'automotive_design',2000,#2);
#2 = APPLICATION_CONTEXT(
  'core data for automotive mechanical design processes');
#3 = SHAPE_DEFINITION_REPRESENTATION(#4,#10);
#4 = PRODUCT_DEFINITION_SHAPE('','',#5);
#5 = PRODUCT_DEFINITION('design','',#6,#9);
#6 = PRODUCT_DEFINITION_FORMATION('','',#7);
#7 = PRODUCT('SWITCH_BRKT','SWITCH_BRKT','',(#8));
#8 = PRODUCT_CONTEXT('',#2,'mechanical');
#9 = PRODUCT_DEFINITION_CONTEXT('part definition',#2,'design');
#10 = ADVANCED_BREP_SHAPE_REPRESENTATION('',(#11,#15),#618);
#11 = AXIS2_PLACEMENT_3D('',#12,#13,#14);
#12 = CARTESIAN_POINT('',(0.,0.,0.));
#13 = DIRECTION('',(0.,0.,1.));
#14 = DIRECTION('',(1.,0.,-0.));
#15 = MANIFOLD_SOLID_BREP('',#16);
#16 = CLOSED_SHELL('',(#17,#109,#172,#279,#314,#349,#405,#422,#446,#498,
    #515,#532,#550,#567,#577,#587,#604));
#17 = ADVANCED_FACE('',(#18),#104,.T.);
#18 = FACE_BOUND('',#19,.T.);
#19 = EDGE_LOOP('',(#20,#30,#38,#46,#54,#63,#72,#80,#89,#98));
#20 = ORIENTED_EDGE('',*,*,#21,.F.);
#21 = EDGE_CURVE('',#22,#24,#26,.T.);
#22 = VERTEX_POINT('',#23);
#23 = CARTESIAN_POINT('',(37.5,-67.,30.67));
#24 = VERTEX_POINT('',#25);
#25 = CARTESIAN_POINT('',(37.5,-60.,30.67));
#26 = LINE('',#27,#28);
#27 = CARTESIAN_POINT('',(37.5,-67.,30.67));
#28 = VECTOR('',#29,1.);
#29 = DIRECTION('',(0.,1.,0.));
#30 = ORIENTED_EDGE('',*,*,#31,.T.);
#31 = EDGE_CURVE('',#22,#32,#34,.T.);
#32 = VERTEX_POINT('',#33);
#33 = CARTESIAN_POINT('',(67.5,-67.,30.67));
#34 = LINE('',#35,#36);
#35 = CARTESIAN_POINT('',(37.5,-67.,30.67));
#36 = VECTOR('',#37,1.);
#37 = DIRECTION('',(1.,0.,0.));
#38 = ORIENTED_EDGE('',*,*,#39,.T.);
#39 = EDGE_CURVE('',#32,#40,#42,.T.);
#40 = VERTEX_POINT('',#41);
#41 = CARTESIAN_POINT('',(67.5,-60.,30.67));
#42 = LINE('',#43,#44);
#43 = CARTESIAN_POINT('',(67.5,-67.,30.67));
#44 = VECTOR('',#45,1.);
#45 = DIRECTION('',(0.,1.,0.));
#46 = ORIENTED_EDGE('',*,*,#47,.T.);
#47 = EDGE_CURVE('',#40,#48,#50,.T.);
#48 = VERTEX_POINT('',#49);
#49 = CARTESIAN_POINT('',(63.416515138991,-60.,30.67));
#50 = LINE('',#51,#52);
#51 = CARTESIAN_POINT('',(37.5,-60.,30.67));
#52 = VECTOR('',#53,1.);
#53 = DIRECTION('',(-1.,0.,0.));
#54 = ORIENTED_EDGE('',*,*,#55,.T.);
#55 = EDGE_CURVE('',#48,#56,#58,.T.);
#56 = VERTEX_POINT('',#57);
#57 = CARTESIAN_POINT('',(64.7,-62.,30.67));
#58 = CIRCLE('',#59,2.2);
#59 = AXIS2_PLACEMENT_3D('',#60,#61,#62);
#60 = CARTESIAN_POINT('',(62.5,-62.,30.67));
#61 = DIRECTION('',(0.,0.,-1.));
#62 = DIRECTION('',(1.,0.,0.));
#63 = ORIENTED_EDGE('',*,*,#64,.T.);
#64 = EDGE_CURVE('',#56,#65,#67,.T.);
#65 = VERTEX_POINT('',#66);
#66 = CARTESIAN_POINT('',(61.583484861009,-60.,30.67));
#67 = CIRCLE('',#68,2.2);
#68 = AXIS2_PLACEMENT_3D('',#69,#70,#71);
#69 = CARTESIAN_POINT('',(62.5,-62.,30.67));
#70 = DIRECTION('',(0.,0.,-1.));
#71 = DIRECTION('',(1.,0.,0.));
#72 = ORIENTED_EDGE('',*,*,#73,.T.);
#73 = EDGE_CURVE('',#65,#74,#76,.T.);
#74 = VERTEX_POINT('',#75);
#75 = CARTESIAN_POINT('',(43.416515138991,-60.,30.67));
#76 = LINE('',#77,#78);
#77 = CARTESIAN_POINT('',(37.5,-60.,30.67));
#78 = VECTOR('',#79,1.);
#79 = DIRECTION('',(-1.,0.,0.));
#80 = ORIENTED_EDGE('',*,*,#81,.T.);
#81 = EDGE_CURVE('',#74,#82,#84,.T.);
#82 = VERTEX_POINT('',#83);
#83 = CARTESIAN_POINT('',(44.7,-62.,30.67));
#84 = CIRCLE('',#85,2.2);
#85 = AXIS2_PLACEMENT_3D('',#86,#87,#88);
#86 = CARTESIAN_POINT('',(42.5,-62.,30.67));
#87 = DIRECTION('',(0.,0.,-1.));
#88 = DIRECTION('',(1.,0.,0.));
#89 = ORIENTED_EDGE('',*,*,#90,.T.);
#90 = EDGE_CURVE('',#82,#91,#93,.T.);
#91 = VERTEX_POINT('',#92);
#92 = CARTESIAN_POINT('',(41.583484861009,-60.,30.67));
#93 = CIRCLE('',#94,2.2);
#94 = AXIS2_PLACEMENT_3D('',#95,#96,#97);
#95 = CARTESIAN_POINT('',(42.5,-62.,30.67));
#96 = DIRECTION('',(0.,0.,-1.));
#97 = DIRECTION('',(1.,0.,0.));
#98 = ORIENTED_EDGE('',*,*,#99,.T.);
#99 = EDGE_CURVE('',#91,#24,#100,.T.);
#100 = LINE('',#101,#102);
#101 = CARTESIAN_POINT('',(37.5,-60.,30.67));
#102 = VECTOR('',#103,1.);
#103 = DIRECTION('',(-1.,0.,0.));
#104 = PLANE('',#105);
#105 = AXIS2_PLACEMENT_3D('',#106,#107,#108);
#106 = CARTESIAN_POINT('',(37.5,-67.,30.67));
#107 = DIRECTION('',(0.,0.,1.));
#108 = DIRECTION('',(1.,0.,0.));
#109 = ADVANCED_FACE('',(#110),#167,.T.);
#110 = FACE_BOUND('',#111,.T.);
#111 = EDGE_LOOP('',(#112,#113,#121,#129,#137,#145,#153,#161));
#112 = ORIENTED_EDGE('',*,*,#21,.T.);
#113 = ORIENTED_EDGE('',*,*,#114,.T.);
#114 = EDGE_CURVE('',#24,#115,#117,.T.);
#115 = VERTEX_POINT('',#116);
#116 = CARTESIAN_POINT('',(37.5,-60.,51.67));
#117 = LINE('',#118,#119);
#118 = CARTESIAN_POINT('',(37.5,-60.,27.67));
#119 = VECTOR('',#120,1.);
#120 = DIRECTION('',(0.,0.,1.));
#121 = ORIENTED_EDGE('',*,*,#122,.T.);
#122 = EDGE_CURVE('',#115,#123,#125,.T.);
#123 = VERTEX_POINT('',#124);
#124 = CARTESIAN_POINT('',(37.5,-57.,51.67));
#125 = LINE('',#126,#127);
#126 = CARTESIAN_POINT('',(37.5,-60.,51.67));
#127 = VECTOR('',#128,1.);
#128 = DIRECTION('',(0.,1.,0.));
#129 = ORIENTED_EDGE('',*,*,#130,.F.);
#130 = EDGE_CURVE('',#131,#123,#133,.T.);
#131 = VERTEX_POINT('',#132);
#132 = CARTESIAN_POINT('',(37.5,-57.,30.67));
#133 = LINE('',#134,#135);
#134 = CARTESIAN_POINT('',(37.5,-57.,27.67));
#135 = VECTOR('',#136,1.);
#136 = DIRECTION('',(0.,0.,1.));
#137 = ORIENTED_EDGE('',*,*,#138,.T.);
#138 = EDGE_CURVE('',#131,#139,#141,.T.);
#139 = VERTEX_POINT('',#140);
#140 = CARTESIAN_POINT('',(37.5,-47.,30.67));
#141 = LINE('',#142,#143);
#142 = CARTESIAN_POINT('',(37.5,-67.,30.67));
#143 = VECTOR('',#144,1.);
#144 = DIRECTION('',(0.,1.,0.));
#145 = ORIENTED_EDGE('',*,*,#146,.F.);
#146 = EDGE_CURVE('',#147,#139,#149,.T.);
#147 = VERTEX_POINT('',#148);
#148 = CARTESIAN_POINT('',(37.5,-47.,27.67));
#149 = LINE('',#150,#151);
#150 = CARTESIAN_POINT('',(37.5,-47.,27.67));
#151 = VECTOR('',#152,1.);
#152 = DIRECTION('',(0.,0.,1.));
#153 = ORIENTED_EDGE('',*,*,#154,.F.);
#154 = EDGE_CURVE('',#155,#147,#157,.T.);
#155 = VERTEX_POINT('',#156);
#156 = CARTESIAN_POINT('',(37.5,-67.,27.67));
#157 = LINE('',#158,#159);
#158 = CARTESIAN_POINT('',(37.5,-67.,27.67));
#159 = VECTOR('',#160,1.);
#160 = DIRECTION('',(0.,1.,0.));
#161 = ORIENTED_EDGE('',*,*,#162,.T.);
#162 = EDGE_CURVE('',#155,#22,#163,.T.);
#163 = LINE('',#164,#165);
#164 = CARTESIAN_POINT('',(37.5,-67.,27.67));
#165 = VECTOR('',#166,1.);
#166 = DIRECTION('',(0.,0.,1.));
#167 = PLANE('',#168);
#168 = AXIS2_PLACEMENT_3D('',#169,#170,#171);
#169 = CARTESIAN_POINT('',(37.5,-57.7159090909,35.613181818182));
#170 = DIRECTION('',(-1.,-0.,-0.));
#171 = DIRECTION('',(0.,0.,-1.));
#172 = ADVANCED_FACE('',(#173,#263),#274,.F.);
#173 = FACE_BOUND('',#174,.F.);
#174 = EDGE_LOOP('',(#175,#183,#184,#192,#200,#206,#207,#215,#223,#229,
    #230,#231,#239,#248,#257));
#175 = ORIENTED_EDGE('',*,*,#176,.F.);
#176 = EDGE_CURVE('',#40,#177,#179,.T.);
#177 = VERTEX_POINT('',#178);
#178 = CARTESIAN_POINT('',(67.5,-60.,51.67));
#179 = LINE('',#180,#181);
#180 = CARTESIAN_POINT('',(67.5,-60.,27.67));
#181 = VECTOR('',#182,1.);
#182 = DIRECTION('',(0.,0.,1.));
#183 = ORIENTED_EDGE('',*,*,#47,.T.);
#184 = ORIENTED_EDGE('',*,*,#185,.F.);
#185 = EDGE_CURVE('',#186,#48,#188,.T.);
#186 = VERTEX_POINT('',#187);
#187 = CARTESIAN_POINT('',(63.416515138991,-60.,32.67));
#188 = LINE('',#189,#190);
#189 = CARTESIAN_POINT('',(63.416515138991,-60.,26.67));
#190 = VECTOR('',#191,1.);
#191 = DIRECTION('',(-0.,-0.,-1.));
#192 = ORIENTED_EDGE('',*,*,#193,.F.);
#193 = EDGE_CURVE('',#194,#186,#196,.T.);
#194 = VERTEX_POINT('',#195);
#195 = CARTESIAN_POINT('',(61.583484861009,-60.,32.67));
#196 = LINE('',#197,#198);
#197 = CARTESIAN_POINT('',(50.,-60.,32.67));
#198 = VECTOR('',#199,1.);
#199 = DIRECTION('',(1.,0.,0.));
#200 = ORIENTED_EDGE('',*,*,#201,.T.);
#201 = EDGE_CURVE('',#194,#65,#202,.T.);
#202 = LINE('',#203,#204);
#203 = CARTESIAN_POINT('',(61.583484861009,-60.,26.67));
#204 = VECTOR('',#205,1.);
#205 = DIRECTION('',(-0.,-0.,-1.));
#206 = ORIENTED_EDGE('',*,*,#73,.T.);
#207 = ORIENTED_EDGE('',*,*,#208,.F.);
#208 = EDGE_CURVE('',#209,#74,#211,.T.);
#209 = VERTEX_POINT('',#210);
#210 = CARTESIAN_POINT('',(43.416515138991,-60.,32.67));
#211 = LINE('',#212,#213);
#212 = CARTESIAN_POINT('',(43.416515138991,-60.,26.67));
#213 = VECTOR('',#214,1.);
#214 = DIRECTION('',(-0.,-0.,-1.));
#215 = ORIENTED_EDGE('',*,*,#216,.F.);
#216 = EDGE_CURVE('',#217,#209,#219,.T.);
#217 = VERTEX_POINT('',#218);
#218 = CARTESIAN_POINT('',(41.583484861009,-60.,32.67));
#219 = LINE('',#220,#221);
#220 = CARTESIAN_POINT('',(40.,-60.,32.67));
#221 = VECTOR('',#222,1.);
#222 = DIRECTION('',(1.,0.,0.));
#223 = ORIENTED_EDGE('',*,*,#224,.T.);
#224 = EDGE_CURVE('',#217,#91,#225,.T.);
#225 = LINE('',#226,#227);
#226 = CARTESIAN_POINT('',(41.583484861009,-60.,26.67));
#227 = VECTOR('',#228,1.);
#228 = DIRECTION('',(-0.,-0.,-1.));
#229 = ORIENTED_EDGE('',*,*,#99,.T.);
#230 = ORIENTED_EDGE('',*,*,#114,.T.);
#231 = ORIENTED_EDGE('',*,*,#232,.T.);
#232 = EDGE_CURVE('',#115,#233,#235,.T.);
#233 = VERTEX_POINT('',#234);
#234 = CARTESIAN_POINT('',(59.583484861009,-60.,51.67));
#235 = LINE('',#236,#237);
#236 = CARTESIAN_POINT('',(37.5,-60.,51.67));
#237 = VECTOR('',#238,1.);
#238 = DIRECTION('',(1.,0.,0.));
#239 = ORIENTED_EDGE('',*,*,#240,.T.);
#240 = EDGE_CURVE('',#233,#241,#243,.T.);
#241 = VERTEX_POINT('',#242);
#242 = CARTESIAN_POINT('',(62.7,-60.,49.67));
#243 = CIRCLE('',#244,2.2);
#244 = AXIS2_PLACEMENT_3D('',#245,#246,#247);
#245 = CARTESIAN_POINT('',(60.5,-60.,49.67));
#246 = DIRECTION('',(0.,-1.,2.2E-16));
#247 = DIRECTION('',(1.,0.,0.));
#248 = ORIENTED_EDGE('',*,*,#249,.T.);
#249 = EDGE_CURVE('',#241,#250,#252,.T.);
#250 = VERTEX_POINT('',#251);
#251 = CARTESIAN_POINT('',(61.416515138991,-60.,51.67));
#252 = CIRCLE('',#253,2.2);
#253 = AXIS2_PLACEMENT_3D('',#254,#255,#256);
#254 = CARTESIAN_POINT('',(60.5,-60.,49.67));
#255 = DIRECTION('',(0.,-1.,2.2E-16));
#256 = DIRECTION('',(1.,0.,0.));
#257 = ORIENTED_EDGE('',*,*,#258,.T.);
#258 = EDGE_CURVE('',#250,#177,#259,.T.);
#259 = LINE('',#260,#261);
#260 = CARTESIAN_POINT('',(37.5,-60.,51.67));
#261 = VECTOR('',#262,1.);
#262 = DIRECTION('',(1.,0.,0.));
#263 = FACE_BOUND('',#264,.F.);
#264 = EDGE_LOOP('',(#265));
#265 = ORIENTED_EDGE('',*,*,#266,.T.);
#266 = EDGE_CURVE('',#267,#267,#269,.T.);
#267 = VERTEX_POINT('',#268);
#268 = CARTESIAN_POINT('',(46.7,-60.,41.67));
#269 = CIRCLE('',#270,2.2);
#270 = AXIS2_PLACEMENT_3D('',#271,#272,#273);
#271 = CARTESIAN_POINT('',(44.5,-60.,41.67));
#272 = DIRECTION('',(0.,-1.,2.2E-16));
#273 = DIRECTION('',(1.,0.,0.));
#274 = PLANE('',#275);
#275 = AXIS2_PLACEMENT_3D('',#276,#277,#278);
#276 = CARTESIAN_POINT('',(37.5,-60.,27.67));
#277 = DIRECTION('',(0.,1.,0.));
#278 = DIRECTION('',(0.,0.,1.));
#279 = ADVANCED_FACE('',(#280),#309,.F.);
#280 = FACE_BOUND('',#281,.T.);
#281 = EDGE_LOOP('',(#282,#291,#297,#298,#299,#306,#307,#308));
#282 = ORIENTED_EDGE('',*,*,#283,.T.);
#283 = EDGE_CURVE('',#284,#284,#286,.T.);
#284 = VERTEX_POINT('',#285);
#285 = CARTESIAN_POINT('',(44.7,-62.,27.67));
#286 = CIRCLE('',#287,2.2);
#287 = AXIS2_PLACEMENT_3D('',#288,#289,#290);
#288 = CARTESIAN_POINT('',(42.5,-62.,27.67));
#289 = DIRECTION('',(0.,0.,-1.));
#290 = DIRECTION('',(1.,0.,0.));
#291 = ORIENTED_EDGE('',*,*,#292,.T.);
#292 = EDGE_CURVE('',#284,#82,#293,.T.);
#293 = LINE('',#294,#295);
#294 = CARTESIAN_POINT('',(44.7,-62.,26.67));
#295 = VECTOR('',#296,1.);
#296 = DIRECTION('',(0.,0.,1.));
#297 = ORIENTED_EDGE('',*,*,#81,.F.);
#298 = ORIENTED_EDGE('',*,*,#208,.F.);
#299 = ORIENTED_EDGE('',*,*,#300,.T.);
#300 = EDGE_CURVE('',#209,#217,#301,.T.);
#301 = CIRCLE('',#302,2.2);
#302 = AXIS2_PLACEMENT_3D('',#303,#304,#305);
#303 = CARTESIAN_POINT('',(42.5,-62.,32.67));
#304 = DIRECTION('',(0.,0.,1.));
#305 = DIRECTION('',(1.,0.,0.));
#306 = ORIENTED_EDGE('',*,*,#224,.T.);
#307 = ORIENTED_EDGE('',*,*,#90,.F.);
#308 = ORIENTED_EDGE('',*,*,#292,.F.);
#309 = CYLINDRICAL_SURFACE('',#310,2.2);
#310 = AXIS2_PLACEMENT_3D('',#311,#312,#313);
#311 = CARTESIAN_POINT('',(42.5,-62.,26.67));
#312 = DIRECTION('',(-0.,-0.,-1.));
#313 = DIRECTION('',(1.,0.,0.));
#314 = ADVANCED_FACE('',(#315),#344,.F.);
#315 = FACE_BOUND('',#316,.T.);
#316 = EDGE_LOOP('',(#317,#326,#332,#333,#334,#341,#342,#343));
#317 = ORIENTED_EDGE('',*,*,#318,.T.);
#318 = EDGE_CURVE('',#319,#319,#321,.T.);
#319 = VERTEX_POINT('',#320);
#320 = CARTESIAN_POINT('',(64.7,-62.,27.67));
#321 = CIRCLE('',#322,2.2);
#322 = AXIS2_PLACEMENT_3D('',#323,#324,#325);
#323 = CARTESIAN_POINT('',(62.5,-62.,27.67));
#324 = DIRECTION('',(0.,0.,-1.));
#325 = DIRECTION('',(1.,0.,0.));
#326 = ORIENTED_EDGE('',*,*,#327,.T.);
#327 = EDGE_CURVE('',#319,#56,#328,.T.);
#328 = LINE('',#329,#330);
#329 = CARTESIAN_POINT('',(64.7,-62.,26.67));
#330 = VECTOR('',#331,1.);
#331 = DIRECTION('',(0.,0.,1.));
#332 = ORIENTED_EDGE('',*,*,#55,.F.);
#333 = ORIENTED_EDGE('',*,*,#185,.F.);
#334 = ORIENTED_EDGE('',*,*,#335,.T.);
#335 = EDGE_CURVE('',#186,#194,#336,.T.);
#336 = CIRCLE('',#337,2.2);
#337 = AXIS2_PLACEMENT_3D('',#338,#339,#340);
#338 = CARTESIAN_POINT('',(62.5,-62.,32.67));
#339 = DIRECTION('',(0.,0.,1.));
#340 = DIRECTION('',(1.,0.,0.));
#341 = ORIENTED_EDGE('',*,*,#201,.T.);
#342 = ORIENTED_EDGE('',*,*,#64,.F.);
#343 = ORIENTED_EDGE('',*,*,#327,.F.);
#344 = CYLINDRICAL_SURFACE('',#345,2.2);
#345 = AXIS2_PLACEMENT_3D('',#346,#347,#348);
#346 = CARTESIAN_POINT('',(62.5,-62.,26.67));
#347 = DIRECTION('',(-0.,-0.,-1.));
#348 = DIRECTION('',(1.,0.,0.));
#349 = ADVANCED_FACE('',(#350),#400,.T.);
#350 = FACE_BOUND('',#351,.T.);
#351 = EDGE_LOOP('',(#352,#353,#361,#369,#377,#385,#393,#399));
#352 = ORIENTED_EDGE('',*,*,#39,.F.);
#353 = ORIENTED_EDGE('',*,*,#354,.F.);
#354 = EDGE_CURVE('',#355,#32,#357,.T.);
#355 = VERTEX_POINT('',#356);
#356 = CARTESIAN_POINT('',(67.5,-67.,27.67));
#357 = LINE('',#358,#359);
#358 = CARTESIAN_POINT('',(67.5,-67.,27.67));
#359 = VECTOR('',#360,1.);
#360 = DIRECTION('',(0.,0.,1.));
#361 = ORIENTED_EDGE('',*,*,#362,.T.);
#362 = EDGE_CURVE('',#355,#363,#365,.T.);
#363 = VERTEX_POINT('',#364);
#364 = CARTESIAN_POINT('',(67.5,-47.,27.67));
#365 = LINE('',#366,#367);
#366 = CARTESIAN_POINT('',(67.5,-67.,27.67));
#367 = VECTOR('',#368,1.);
#368 = DIRECTION('',(0.,1.,0.));
#369 = ORIENTED_EDGE('',*,*,#370,.T.);
#370 = EDGE_CURVE('',#363,#371,#373,.T.);
#371 = VERTEX_POINT('',#372);
#372 = CARTESIAN_POINT('',(67.5,-47.,30.67));
#373 = LINE('',#374,#375);
#374 = CARTESIAN_POINT('',(67.5,-47.,27.67));
#375 = VECTOR('',#376,1.);
#376 = DIRECTION('',(0.,0.,1.));
#377 = ORIENTED_EDGE('',*,*,#378,.F.);
#378 = EDGE_CURVE('',#379,#371,#381,.T.);
#379 = VERTEX_POINT('',#380);
#380 = CARTESIAN_POINT('',(67.5,-57.,30.67));
#381 = LINE('',#382,#383);
#382 = CARTESIAN_POINT('',(67.5,-67.,30.67));
#383 = VECTOR('',#384,1.);
#384 = DIRECTION('',(0.,1.,0.));
#385 = ORIENTED_EDGE('',*,*,#386,.T.);
#386 = EDGE_CURVE('',#379,#387,#389,.T.);
#387 = VERTEX_POINT('',#388);
#388 = CARTESIAN_POINT('',(67.5,-57.,51.67));
#389 = LINE('',#390,#391);
#390 = CARTESIAN_POINT('',(67.5,-57.,27.67));
#391 = VECTOR('',#392,1.);
#392 = DIRECTION('',(0.,0.,1.));
#393 = ORIENTED_EDGE('',*,*,#394,.F.);
#394 = EDGE_CURVE('',#177,#387,#395,.T.);
#395 = LINE('',#396,#397);
#396 = CARTESIAN_POINT('',(67.5,-60.,51.67));
#397 = VECTOR('',#398,1.);
#398 = DIRECTION('',(0.,1.,0.));
#399 = ORIENTED_EDGE('',*,*,#176,.F.);
#400 = PLANE('',#401);
#401 = AXIS2_PLACEMENT_3D('',#402,#403,#404);
#402 = CARTESIAN_POINT('',(67.5,-57.7159090909,35.613181818182));
#403 = DIRECTION('',(1.,0.,0.));
#404 = DIRECTION('',(0.,0.,1.));
#405 = ADVANCED_FACE('',(#406),#417,.F.);
#406 = FACE_BOUND('',#407,.F.);
#407 = EDGE_LOOP('',(#408,#414,#415,#416));
#408 = ORIENTED_EDGE('',*,*,#409,.F.);
#409 = EDGE_CURVE('',#155,#355,#410,.T.);
#410 = LINE('',#411,#412);
#411 = CARTESIAN_POINT('',(37.5,-67.,27.67));
#412 = VECTOR('',#413,1.);
#413 = DIRECTION('',(1.,0.,0.));
#414 = ORIENTED_EDGE('',*,*,#162,.T.);
#415 = ORIENTED_EDGE('',*,*,#31,.T.);
#416 = ORIENTED_EDGE('',*,*,#354,.F.);
#417 = PLANE('',#418);
#418 = AXIS2_PLACEMENT_3D('',#419,#420,#421);
#419 = CARTESIAN_POINT('',(37.5,-67.,27.67));
#420 = DIRECTION('',(0.,1.,0.));
#421 = DIRECTION('',(0.,0.,1.));
#422 = ADVANCED_FACE('',(#423),#441,.T.);
#423 = FACE_BOUND('',#424,.T.);
#424 = EDGE_LOOP('',(#425,#433,#434,#435));
#425 = ORIENTED_EDGE('',*,*,#426,.F.);
#426 = EDGE_CURVE('',#123,#427,#429,.T.);
#427 = VERTEX_POINT('',#428);
#428 = CARTESIAN_POINT('',(59.583484861009,-57.,51.67));
#429 = LINE('',#430,#431);
#430 = CARTESIAN_POINT('',(37.5,-57.,51.67));
#431 = VECTOR('',#432,1.);
#432 = DIRECTION('',(1.,0.,0.));
#433 = ORIENTED_EDGE('',*,*,#122,.F.);
#434 = ORIENTED_EDGE('',*,*,#232,.T.);
#435 = ORIENTED_EDGE('',*,*,#436,.F.);
#436 = EDGE_CURVE('',#427,#233,#437,.T.);
#437 = LINE('',#438,#439);
#438 = CARTESIAN_POINT('',(59.583484861009,-60.5,51.67));
#439 = VECTOR('',#440,1.);
#440 = DIRECTION('',(0.,-1.,2.2E-16));
#441 = PLANE('',#442);
#442 = AXIS2_PLACEMENT_3D('',#443,#444,#445);
#443 = CARTESIAN_POINT('',(37.5,-60.,51.67));
#444 = DIRECTION('',(0.,0.,1.));
#445 = DIRECTION('',(1.,0.,0.));
#446 = ADVANCED_FACE('',(#447,#482),#493,.T.);
#447 = FACE_BOUND('',#448,.T.);
#448 = EDGE_LOOP('',(#449,#450,#456,#457,#458,#467,#476));
#449 = ORIENTED_EDGE('',*,*,#386,.F.);
#450 = ORIENTED_EDGE('',*,*,#451,.T.);
#451 = EDGE_CURVE('',#379,#131,#452,.T.);
#452 = LINE('',#453,#454);
#453 = CARTESIAN_POINT('',(37.5,-57.,30.67));
#454 = VECTOR('',#455,1.);
#455 = DIRECTION('',(-1.,0.,0.));
#456 = ORIENTED_EDGE('',*,*,#130,.T.);
#457 = ORIENTED_EDGE('',*,*,#426,.T.);
#458 = ORIENTED_EDGE('',*,*,#459,.T.);
#459 = EDGE_CURVE('',#427,#460,#462,.T.);
#460 = VERTEX_POINT('',#461);
#461 = CARTESIAN_POINT('',(62.7,-57.,49.67));
#462 = CIRCLE('',#463,2.2);
#463 = AXIS2_PLACEMENT_3D('',#464,#465,#466);
#464 = CARTESIAN_POINT('',(60.5,-57.,49.67));
#465 = DIRECTION('',(0.,-1.,2.2E-16));
#466 = DIRECTION('',(1.,0.,0.));
#467 = ORIENTED_EDGE('',*,*,#468,.T.);
#468 = EDGE_CURVE('',#460,#469,#471,.T.);
#469 = VERTEX_POINT('',#470);
#470 = CARTESIAN_POINT('',(61.416515138991,-57.,51.67));
#471 = CIRCLE('',#472,2.2);
#472 = AXIS2_PLACEMENT_3D('',#473,#474,#475);
#473 = CARTESIAN_POINT('',(60.5,-57.,49.67));
#474 = DIRECTION('',(0.,-1.,2.2E-16));
#475 = DIRECTION('',(1.,0.,0.));
#476 = ORIENTED_EDGE('',*,*,#477,.T.);
#477 = EDGE_CURVE('',#469,#387,#478,.T.);
#478 = LINE('',#479,#480);
#479 = CARTESIAN_POINT('',(37.5,-57.,51.67));
#480 = VECTOR('',#481,1.);
#481 = DIRECTION('',(1.,0.,0.));
#482 = FACE_BOUND('',#483,.T.);
#483 = EDGE_LOOP('',(#484));
#484 = ORIENTED_EDGE('',*,*,#485,.T.);
#485 = EDGE_CURVE('',#486,#486,#488,.T.);
#486 = VERTEX_POINT('',#487);
#487 = CARTESIAN_POINT('',(46.7,-57.,41.67));
#488 = CIRCLE('',#489,2.2);
#489 = AXIS2_PLACEMENT_3D('',#490,#491,#492);
#490 = CARTESIAN_POINT('',(44.5,-57.,41.67));
#491 = DIRECTION('',(0.,-1.,2.2E-16));
#492 = DIRECTION('',(1.,0.,0.));
#493 = PLANE('',#494);
#494 = AXIS2_PLACEMENT_3D('',#495,#496,#497);
#495 = CARTESIAN_POINT('',(37.5,-57.,27.67));
#496 = DIRECTION('',(0.,1.,0.));
#497 = DIRECTION('',(0.,0.,1.));
#498 = ADVANCED_FACE('',(#499),#510,.T.);
#499 = FACE_BOUND('',#500,.T.);
#500 = EDGE_LOOP('',(#501,#502,#503,#504));
#501 = ORIENTED_EDGE('',*,*,#138,.F.);
#502 = ORIENTED_EDGE('',*,*,#451,.F.);
#503 = ORIENTED_EDGE('',*,*,#378,.T.);
#504 = ORIENTED_EDGE('',*,*,#505,.F.);
#505 = EDGE_CURVE('',#139,#371,#506,.T.);
#506 = LINE('',#507,#508);
#507 = CARTESIAN_POINT('',(37.5,-47.,30.67));
#508 = VECTOR('',#509,1.);
#509 = DIRECTION('',(1.,0.,0.));
#510 = PLANE('',#511);
#511 = AXIS2_PLACEMENT_3D('',#512,#513,#514);
#512 = CARTESIAN_POINT('',(37.5,-67.,30.67));
#513 = DIRECTION('',(0.,0.,1.));
#514 = DIRECTION('',(1.,0.,0.));
#515 = ADVANCED_FACE('',(#516),#527,.T.);
#516 = FACE_BOUND('',#517,.T.);
#517 = EDGE_LOOP('',(#518,#524,#525,#526));
#518 = ORIENTED_EDGE('',*,*,#519,.F.);
#519 = EDGE_CURVE('',#147,#363,#520,.T.);
#520 = LINE('',#521,#522);
#521 = CARTESIAN_POINT('',(37.5,-47.,27.67));
#522 = VECTOR('',#523,1.);
#523 = DIRECTION('',(1.,0.,0.));
#524 = ORIENTED_EDGE('',*,*,#146,.T.);
#525 = ORIENTED_EDGE('',*,*,#505,.T.);
#526 = ORIENTED_EDGE('',*,*,#370,.F.);
#527 = PLANE('',#528);
#528 = AXIS2_PLACEMENT_3D('',#529,#530,#531);
#529 = CARTESIAN_POINT('',(37.5,-47.,27.67));
#530 = DIRECTION('',(0.,1.,0.));
#531 = DIRECTION('',(0.,0.,1.));
#532 = ADVANCED_FACE('',(#533,#539,#542),#545,.F.);
#533 = FACE_BOUND('',#534,.F.);
#534 = EDGE_LOOP('',(#535,#536,#537,#538));
#535 = ORIENTED_EDGE('',*,*,#154,.F.);
#536 = ORIENTED_EDGE('',*,*,#409,.T.);
#537 = ORIENTED_EDGE('',*,*,#362,.T.);
#538 = ORIENTED_EDGE('',*,*,#519,.F.);
#539 = FACE_BOUND('',#540,.F.);
#540 = EDGE_LOOP('',(#541));
#541 = ORIENTED_EDGE('',*,*,#283,.T.);
#542 = FACE_BOUND('',#543,.F.);
#543 = EDGE_LOOP('',(#544));
#544 = ORIENTED_EDGE('',*,*,#318,.T.);
#545 = PLANE('',#546);
#546 = AXIS2_PLACEMENT_3D('',#547,#548,#549);
#547 = CARTESIAN_POINT('',(37.5,-67.,27.67));
#548 = DIRECTION('',(0.,0.,1.));
#549 = DIRECTION('',(1.,0.,0.));
#550 = ADVANCED_FACE('',(#551),#562,.T.);
#551 = FACE_BOUND('',#552,.T.);
#552 = EDGE_LOOP('',(#553,#554,#560,#561));
#553 = ORIENTED_EDGE('',*,*,#477,.F.);
#554 = ORIENTED_EDGE('',*,*,#555,.T.);
#555 = EDGE_CURVE('',#469,#250,#556,.T.);
#556 = LINE('',#557,#558);
#557 = CARTESIAN_POINT('',(61.416515138991,-60.5,51.67));
#558 = VECTOR('',#559,1.);
#559 = DIRECTION('',(0.,-1.,2.2E-16));
#560 = ORIENTED_EDGE('',*,*,#258,.T.);
#561 = ORIENTED_EDGE('',*,*,#394,.T.);
#562 = PLANE('',#563);
#563 = AXIS2_PLACEMENT_3D('',#564,#565,#566);
#564 = CARTESIAN_POINT('',(37.5,-60.,51.67));
#565 = DIRECTION('',(0.,0.,1.));
#566 = DIRECTION('',(1.,0.,0.));
#567 = ADVANCED_FACE('',(#568),#572,.F.);
#568 = FACE_BOUND('',#569,.F.);
#569 = EDGE_LOOP('',(#570,#571));
#570 = ORIENTED_EDGE('',*,*,#216,.T.);
#571 = ORIENTED_EDGE('',*,*,#300,.T.);
#572 = PLANE('',#573);
#573 = AXIS2_PLACEMENT_3D('',#574,#575,#576);
#574 = CARTESIAN_POINT('',(42.5,-62.,32.67));
#575 = DIRECTION('',(0.,0.,1.));
#576 = DIRECTION('',(1.,0.,0.));
#577 = ADVANCED_FACE('',(#578),#582,.F.);
#578 = FACE_BOUND('',#579,.F.);
#579 = EDGE_LOOP('',(#580,#581));
#580 = ORIENTED_EDGE('',*,*,#193,.T.);
#581 = ORIENTED_EDGE('',*,*,#335,.T.);
#582 = PLANE('',#583);
#583 = AXIS2_PLACEMENT_3D('',#584,#585,#586);
#584 = CARTESIAN_POINT('',(62.5,-62.,32.67));
#585 = DIRECTION('',(0.,0.,1.));
#586 = DIRECTION('',(1.,0.,0.));
#587 = ADVANCED_FACE('',(#588),#599,.F.);
#588 = FACE_BOUND('',#589,.T.);
#589 = EDGE_LOOP('',(#590,#591,#597,#598));
#590 = ORIENTED_EDGE('',*,*,#266,.T.);
#591 = ORIENTED_EDGE('',*,*,#592,.T.);
#592 = EDGE_CURVE('',#267,#486,#593,.T.);
#593 = LINE('',#594,#595);
#594 = CARTESIAN_POINT('',(46.7,-60.5,41.67));
#595 = VECTOR('',#596,1.);
#596 = DIRECTION('',(0.,1.,0.));
#597 = ORIENTED_EDGE('',*,*,#485,.F.);
#598 = ORIENTED_EDGE('',*,*,#592,.F.);
#599 = CYLINDRICAL_SURFACE('',#600,2.2);
#600 = AXIS2_PLACEMENT_3D('',#601,#602,#603);
#601 = CARTESIAN_POINT('',(44.5,-60.5,41.67));
#602 = DIRECTION('',(-0.,-1.,0.));
#603 = DIRECTION('',(1.,0.,0.));
#604 = ADVANCED_FACE('',(#605),#613,.F.);
#605 = FACE_BOUND('',#606,.T.);
#606 = EDGE_LOOP('',(#607,#608,#609,#610,#611,#612));
#607 = ORIENTED_EDGE('',*,*,#459,.F.);
#608 = ORIENTED_EDGE('',*,*,#436,.T.);
#609 = ORIENTED_EDGE('',*,*,#240,.T.);
#610 = ORIENTED_EDGE('',*,*,#249,.T.);
#611 = ORIENTED_EDGE('',*,*,#555,.F.);
#612 = ORIENTED_EDGE('',*,*,#468,.F.);
#613 = CYLINDRICAL_SURFACE('',#614,2.2);
#614 = AXIS2_PLACEMENT_3D('',#615,#616,#617);
#615 = CARTESIAN_POINT('',(60.5,-60.5,49.67));
#616 = DIRECTION('',(0.,-1.,2.2E-16));
#617 = DIRECTION('',(1.,0.,0.));
#618 = ( GEOMETRIC_REPRESENTATION_CONTEXT(3) 
GLOBAL_UNCERTAINTY_ASSIGNED_CONTEXT((#622)) GLOBAL_UNIT_ASSIGNED_CONTEXT
((#619,#620,#621)) REPRESENTATION_CONTEXT('Context #1',
  '3D Context with UNIT and UNCERTAINTY') );
#619 = ( LENGTH_UNIT() NAMED_UNIT(*) SI_UNIT(.MILLI.,.METRE.) );
#620 = ( NAMED_UNIT(*) PLANE_ANGLE_UNIT() SI_UNIT($,.RADIAN.) );
#621 = ( NAMED_UNIT(*) SI_UNIT($,.STERADIAN.) SOLID_ANGLE_UNIT() );
#622 = UNCERTAINTY_MEASURE_WITH_UNIT(LENGTH_MEASURE(5.E-06),#619,
  'distance_accuracy_value','confusion accuracy');
#623 = PRODUCT_RELATED_PRODUCT_CATEGORY('part',$,(#7));
ENDSEC;
END-ISO-10303-21;
