ISO-10303-21;
HEADER;
FILE_DESCRIPTION(('FreeCAD Model'),'2;1');
FILE_NAME('Open CASCADE Shape Model','2026-09-26T16:59:00',('Author'),(
    ''),'Open CASCADE STEP processor 7.8','FreeCAD','Unknown');
FILE_SCHEMA(('AUTOMOTIVE_DESIGN { 1 0 10303 214 1 1 1 1 }'));
ENDSEC;
DATA;
#1 = APPLICATION_PROTOCOL_DEFINITION('international standard',
  'automotive_design',2000,#2);
#2 = APPLICATION_CONTEXT(
  'core data for automotive mechanical design processes');
#3 = SHAPE_DEFINITION_REPRESENTATION(#4,#10);
#4 = PRODUCT_DEFINITION_SHAPE('','',#5);
#5 = PRODUCT_DEFINITION('design','',#6,#9);
#6 = PRODUCT_DEFINITION_FORMATION('','',#7);
#7 = PRODUCT('WHEEL_HUB_FR','WHEEL_HUB_FR','',(#8));
#8 = PRODUCT_CONTEXT('',#2,'mechanical');
#9 = PRODUCT_DEFINITION_CONTEXT('part definition',#2,'design');
#10 = ADVANCED_BREP_SHAPE_REPRESENTATION('',(#11,#15),#356);
#11 = AXIS2_PLACEMENT_3D('',#12,#13,#14);
#12 = CARTESIAN_POINT('',(0.,0.,0.));
#13 = DIRECTION('',(0.,0.,1.));
#14 = DIRECTION('',(1.,0.,-0.));
#15 = MANIFOLD_SOLID_BREP('',#16);
#16 = CLOSED_SHELL('',(#17,#108,#167,#226,#251,#273,#290,#307,#327,#344)
  );
#17 = ADVANCED_FACE('',(#18,#45),#103,.T.);
#18 = FACE_BOUND('',#19,.F.);
#19 = EDGE_LOOP('',(#20,#29,#37,#44));
#20 = ORIENTED_EDGE('',*,*,#21,.F.);
#21 = EDGE_CURVE('',#22,#22,#24,.T.);
#22 = VERTEX_POINT('',#23);
#23 = CARTESIAN_POINT('',(13.,-15.05,3.E-15));
#24 = CIRCLE('',#25,13.);
#25 = AXIS2_PLACEMENT_3D('',#26,#27,#28);
#26 = CARTESIAN_POINT('',(0.,-15.05,0.));
#27 = DIRECTION('',(-0.,1.,0.));
#28 = DIRECTION('',(1.,0.,0.));
#29 = ORIENTED_EDGE('',*,*,#30,.T.);
#30 = EDGE_CURVE('',#22,#31,#33,.T.);
#31 = VERTEX_POINT('',#32);
#32 = CARTESIAN_POINT('',(13.,15.05,3.E-15));
#33 = LINE('',#34,#35);
#34 = CARTESIAN_POINT('',(13.,-15.05,3.18E-15));
#35 = VECTOR('',#36,1.);
#36 = DIRECTION('',(0.,1.,0.));
#37 = ORIENTED_EDGE('',*,*,#38,.T.);
#38 = EDGE_CURVE('',#31,#31,#39,.T.);
#39 = CIRCLE('',#40,13.);
#40 = AXIS2_PLACEMENT_3D('',#41,#42,#43);
#41 = CARTESIAN_POINT('',(0.,15.05,0.));
#42 = DIRECTION('',(-0.,1.,0.));
#43 = DIRECTION('',(1.,0.,0.));
#44 = ORIENTED_EDGE('',*,*,#30,.F.);
#45 = FACE_BOUND('',#46,.F.);
#46 = EDGE_LOOP('',(#47));
#47 = ORIENTED_EDGE('',*,*,#48,.T.);
#48 = EDGE_CURVE('',#49,#49,#51,.T.);
#49 = VERTEX_POINT('',#50);
#50 = CARTESIAN_POINT('',(1.65,0.,12.894863318392));
#51 = B_SPLINE_CURVE_WITH_KNOTS('',8,(#52,#53,#54,#55,#56,#57,#58,#59,
    #60,#61,#62,#63,#64,#65,#66,#67,#68,#69,#70,#71,#72,#73,#74,#75,#76,
    #77,#78,#79,#80,#81,#82,#83,#84,#85,#86,#87,#88,#89,#90,#91,#92,#93,
    #94,#95,#96,#97,#98,#99,#100,#101,#102),.UNSPECIFIED.,.T.,.F.,(9,7,7
    ,7,7,7,7,9),(0.,0.152594403262,0.285886039683,0.422179215903,
    0.588481154536,0.714360821139,0.838040300133,1.),.UNSPECIFIED.);
#52 = CARTESIAN_POINT('',(1.65,-2.2E-16,12.894863318392));
#53 = CARTESIAN_POINT('',(1.65,0.172821662283,12.894863318392));
#54 = CARTESIAN_POINT('',(1.629313488366,0.345582610108,12.897510201859)
  );
#55 = CARTESIAN_POINT('',(1.58796106992,0.516716444616,12.902802049866)
  );
#56 = CARTESIAN_POINT('',(1.525578090668,0.68450626068,12.910594798645)
  );
#57 = CARTESIAN_POINT('',(1.441531997818,0.84690009545,12.920594952211)
  );
#58 = CARTESIAN_POINT('',(1.335028727055,1.001311765883,12.932298425099)
  );
#59 = CARTESIAN_POINT('',(1.205273271035,1.144341010497,12.944923373814)
  );
#60 = CARTESIAN_POINT('',(0.917646213902,1.382286805766,12.968270032135)
  );
#61 = CARTESIAN_POINT('',(0.761301136672,1.484397324836,12.979363946604)
  );
#62 = CARTESIAN_POINT('',(0.585041676455,1.569445633861,12.989555920983)
  );
#63 = CARTESIAN_POINT('',(0.393108412182,1.631289521938,12.997528027753)
  );
#64 = CARTESIAN_POINT('',(0.191187292905,1.665878741265,13.002097114648)
  );
#65 = CARTESIAN_POINT('',(-1.430940827658E-02,1.671299050545,
    13.002731802905));
#66 = CARTESIAN_POINT('',(-0.216819374778,1.647849434313,12.999633698199
    ));
#67 = CARTESIAN_POINT('',(-0.608215026641,1.547356111277,12.987273336799
    ));
#68 = CARTESIAN_POINT('',(-0.790767965413,1.470639157521,12.978060786312
    ));
#69 = CARTESIAN_POINT('',(-0.955745543403,1.372878959379,12.966884293484
    ));
#70 = CARTESIAN_POINT('',(-1.101888313777,1.258308979544,12.954826873182
    ));
#71 = CARTESIAN_POINT('',(-1.228592504982,1.130713956668,12.942854800141
    ));
#72 = CARTESIAN_POINT('',(-1.335741974216,0.993525392354,12.931731979466
    ));
#73 = CARTESIAN_POINT('',(-1.423639037706,0.849860227835,12.92200147667)
  );
#74 = CARTESIAN_POINT('',(-1.577554208898,0.522773839563,12.904207598596
    ));
#75 = CARTESIAN_POINT('',(-1.635444757023,0.335542771094,12.896873312496
    ));
#76 = CARTESIAN_POINT('',(-1.667658882586,0.143880014867,12.89257243713)
  );
#77 = CARTESIAN_POINT('',(-1.674628904303,-4.984344584364E-02,
    12.891611111205));
#78 = CARTESIAN_POINT('',(-1.656344751133,-0.243327865594,
    12.894084754098));
#79 = CARTESIAN_POINT('',(-1.61248103013,-0.434067157647,12.899861568986
    ));
#80 = CARTESIAN_POINT('',(-1.542522355082,-0.619149104946,
    12.908527275528));
#81 = CARTESIAN_POINT('',(-1.372773791098,-0.92792059657,12.927525185927
    ));
#82 = CARTESIAN_POINT('',(-1.28355516634,-1.057076784508,12.937031247652
    ));
#83 = CARTESIAN_POINT('',(-1.17777839809,-1.179889658424,12.947544136061
    ));
#84 = CARTESIAN_POINT('',(-1.05532156565,-1.293697612409,12.95858019099)
  );
#85 = CARTESIAN_POINT('',(-0.916427786295,-1.395645611868,
    12.969493913601));
#86 = CARTESIAN_POINT('',(-0.76174459666,-1.482663606149,12.979505601408
    ));
#87 = CARTESIAN_POINT('',(-0.592426330127,-1.551409959529,
    12.987771947333));
#88 = CARTESIAN_POINT('',(-0.2314329227,-1.644097312937,12.999172199118)
  );
#89 = CARTESIAN_POINT('',(-4.421851894767E-02,-1.667768165445,
    13.002265738886));
#90 = CARTESIAN_POINT('',(0.14633694511,-1.666739952889,13.002197315126)
  );
#91 = CARTESIAN_POINT('',(0.334789673129,-1.64047636497,12.998736308872)
  );
#92 = CARTESIAN_POINT('',(0.515715339594,-1.590254484121,12.992241959314
    ));
#93 = CARTESIAN_POINT('',(0.684220124649,-1.519111024792,12.983561953839
    ));
#94 = CARTESIAN_POINT('',(0.836420608669,-1.431817019376,12.973754369789
    ));
#95 = CARTESIAN_POINT('',(1.144567313409,-1.207935333518,12.950701300596
    ));
#96 = CARTESIAN_POINT('',(1.292328411241,-1.06064823606,12.936940324804)
  );
#97 = CARTESIAN_POINT('',(1.413483530393,-0.899132900834,12.923916143434
    ));
#98 = CARTESIAN_POINT('',(1.508953457796,-0.72775096954,12.912668043642)
  );
#99 = CARTESIAN_POINT('',(1.579712252607,-0.549800682062,12.903858006591
    ));
#100 = CARTESIAN_POINT('',(1.626561397447,-0.367849858976,
    12.897862189648));
#101 = CARTESIAN_POINT('',(1.65,-0.183953657407,12.894863318392));
#102 = CARTESIAN_POINT('',(1.65,-2.2E-16,12.894863318392));
#103 = CYLINDRICAL_SURFACE('',#104,13.);
#104 = AXIS2_PLACEMENT_3D('',#105,#106,#107);
#105 = CARTESIAN_POINT('',(0.,-15.05,0.));
#106 = DIRECTION('',(-0.,-1.,0.));
#107 = DIRECTION('',(1.,0.,0.));
#108 = ADVANCED_FACE('',(#109,#112),#162,.F.);
#109 = FACE_BOUND('',#110,.F.);
#110 = EDGE_LOOP('',(#111));
#111 = ORIENTED_EDGE('',*,*,#21,.T.);
#112 = FACE_BOUND('',#113,.F.);
#113 = EDGE_LOOP('',(#114,#124,#132,#140,#148,#156));
#114 = ORIENTED_EDGE('',*,*,#115,.T.);
#115 = EDGE_CURVE('',#116,#118,#120,.T.);
#116 = VERTEX_POINT('',#117);
#117 = CARTESIAN_POINT('',(-2.424871130596,-15.05,-4.2));
#118 = VERTEX_POINT('',#119);
#119 = CARTESIAN_POINT('',(2.424871130596,-15.05,-4.2));
#120 = LINE('',#121,#122);
#121 = CARTESIAN_POINT('',(1.212435565298,-15.05,-4.2));
#122 = VECTOR('',#123,1.);
#123 = DIRECTION('',(1.,0.,1.8E-16));
#124 = ORIENTED_EDGE('',*,*,#125,.T.);
#125 = EDGE_CURVE('',#118,#126,#128,.T.);
#126 = VERTEX_POINT('',#127);
#127 = CARTESIAN_POINT('',(4.849742261193,-15.05,0.));
#128 = LINE('',#129,#130);
#129 = CARTESIAN_POINT('',(4.243524478544,-15.05,-1.05));
#130 = VECTOR('',#131,1.);
#131 = DIRECTION('',(0.5,1.9E-16,0.866025403784));
#132 = ORIENTED_EDGE('',*,*,#133,.T.);
#133 = EDGE_CURVE('',#126,#134,#136,.T.);
#134 = VERTEX_POINT('',#135);
#135 = CARTESIAN_POINT('',(2.424871130596,-15.05,4.2));
#136 = LINE('',#137,#138);
#137 = CARTESIAN_POINT('',(3.031088913246,-15.05,3.15));
#138 = VECTOR('',#139,1.);
#139 = DIRECTION('',(-0.5,1.9E-16,0.866025403784));
#140 = ORIENTED_EDGE('',*,*,#141,.T.);
#141 = EDGE_CURVE('',#134,#142,#144,.T.);
#142 = VERTEX_POINT('',#143);
#143 = CARTESIAN_POINT('',(-2.424871130596,-15.05,4.2));
#144 = LINE('',#145,#146);
#145 = CARTESIAN_POINT('',(-1.212435565298,-15.05,4.2));
#146 = VECTOR('',#147,1.);
#147 = DIRECTION('',(-1.,-0.,-3.7E-16));
#148 = ORIENTED_EDGE('',*,*,#149,.T.);
#149 = EDGE_CURVE('',#142,#150,#152,.T.);
#150 = VERTEX_POINT('',#151);
#151 = CARTESIAN_POINT('',(-4.849742261193,-15.05,-2.E-15));
#152 = LINE('',#153,#154);
#153 = CARTESIAN_POINT('',(-4.243524478544,-15.05,1.05));
#154 = VECTOR('',#155,1.);
#155 = DIRECTION('',(-0.5,-1.9E-16,-0.866025403784));
#156 = ORIENTED_EDGE('',*,*,#157,.T.);
#157 = EDGE_CURVE('',#150,#116,#158,.T.);
#158 = LINE('',#159,#160);
#159 = CARTESIAN_POINT('',(-3.031088913246,-15.05,-3.15));
#160 = VECTOR('',#161,1.);
#161 = DIRECTION('',(0.5,-1.9E-16,-0.866025403784));
#162 = PLANE('',#163);
#163 = AXIS2_PLACEMENT_3D('',#164,#165,#166);
#164 = CARTESIAN_POINT('',(0.,-15.05,0.));
#165 = DIRECTION('',(0.,1.,0.));
#166 = DIRECTION('',(1.,0.,0.));
#167 = ADVANCED_FACE('',(#168,#171),#221,.T.);
#168 = FACE_BOUND('',#169,.T.);
#169 = EDGE_LOOP('',(#170));
#170 = ORIENTED_EDGE('',*,*,#38,.T.);
#171 = FACE_BOUND('',#172,.T.);
#172 = EDGE_LOOP('',(#173,#183,#191,#199,#207,#215));
#173 = ORIENTED_EDGE('',*,*,#174,.T.);
#174 = EDGE_CURVE('',#175,#177,#179,.T.);
#175 = VERTEX_POINT('',#176);
#176 = CARTESIAN_POINT('',(-2.424871130596,15.05,-4.2));
#177 = VERTEX_POINT('',#178);
#178 = CARTESIAN_POINT('',(2.424871130596,15.05,-4.2));
#179 = LINE('',#180,#181);
#180 = CARTESIAN_POINT('',(1.212435565298,15.05,-4.2));
#181 = VECTOR('',#182,1.);
#182 = DIRECTION('',(1.,0.,1.8E-16));
#183 = ORIENTED_EDGE('',*,*,#184,.T.);
#184 = EDGE_CURVE('',#177,#185,#187,.T.);
#185 = VERTEX_POINT('',#186);
#186 = CARTESIAN_POINT('',(4.849742261193,15.05,-7.E-15));
#187 = LINE('',#188,#189);
#188 = CARTESIAN_POINT('',(4.243524478544,15.05,-1.05));
#189 = VECTOR('',#190,1.);
#190 = DIRECTION('',(0.5,1.9E-16,0.866025403784));
#191 = ORIENTED_EDGE('',*,*,#192,.T.);
#192 = EDGE_CURVE('',#185,#193,#195,.T.);
#193 = VERTEX_POINT('',#194);
#194 = CARTESIAN_POINT('',(2.424871130596,15.05,4.2));
#195 = LINE('',#196,#197);
#196 = CARTESIAN_POINT('',(3.031088913246,15.05,3.15));
#197 = VECTOR('',#198,1.);
#198 = DIRECTION('',(-0.5,1.9E-16,0.866025403784));
#199 = ORIENTED_EDGE('',*,*,#200,.T.);
#200 = EDGE_CURVE('',#193,#201,#203,.T.);
#201 = VERTEX_POINT('',#202);
#202 = CARTESIAN_POINT('',(-2.424871130596,15.05,4.2));
#203 = LINE('',#204,#205);
#204 = CARTESIAN_POINT('',(-1.212435565298,15.05,4.2));
#205 = VECTOR('',#206,1.);
#206 = DIRECTION('',(-1.,-0.,-3.7E-16));
#207 = ORIENTED_EDGE('',*,*,#208,.T.);
#208 = EDGE_CURVE('',#201,#209,#211,.T.);
#209 = VERTEX_POINT('',#210);
#210 = CARTESIAN_POINT('',(-4.849742261193,15.05,-9.E-15));
#211 = LINE('',#212,#213);
#212 = CARTESIAN_POINT('',(-4.243524478544,15.05,1.05));
#213 = VECTOR('',#214,1.);
#214 = DIRECTION('',(-0.5,-1.9E-16,-0.866025403784));
#215 = ORIENTED_EDGE('',*,*,#216,.T.);
#216 = EDGE_CURVE('',#209,#175,#217,.T.);
#217 = LINE('',#218,#219);
#218 = CARTESIAN_POINT('',(-3.031088913246,15.05,-3.15));
#219 = VECTOR('',#220,1.);
#220 = DIRECTION('',(0.5,-1.9E-16,-0.866025403784));
#221 = PLANE('',#222);
#222 = AXIS2_PLACEMENT_3D('',#223,#224,#225);
#223 = CARTESIAN_POINT('',(0.,15.05,0.));
#224 = DIRECTION('',(0.,1.,0.));
#225 = DIRECTION('',(1.,0.,0.));
#226 = ADVANCED_FACE('',(#227),#246,.F.);
#227 = FACE_BOUND('',#228,.T.);
#228 = EDGE_LOOP('',(#229,#237,#244,#245));
#229 = ORIENTED_EDGE('',*,*,#230,.F.);
#230 = EDGE_CURVE('',#231,#49,#233,.T.);
#231 = VERTEX_POINT('',#232);
#232 = CARTESIAN_POINT('',(1.65,0.,4.2));
#233 = LINE('',#234,#235);
#234 = CARTESIAN_POINT('',(1.65,-4.E-16,3.));
#235 = VECTOR('',#236,1.);
#236 = DIRECTION('',(0.,0.,1.));
#237 = ORIENTED_EDGE('',*,*,#238,.T.);
#238 = EDGE_CURVE('',#231,#231,#239,.T.);
#239 = CIRCLE('',#240,1.65);
#240 = AXIS2_PLACEMENT_3D('',#241,#242,#243);
#241 = CARTESIAN_POINT('',(0.,0.,4.2));
#242 = DIRECTION('',(0.,0.,-1.));
#243 = DIRECTION('',(1.,0.,0.));
#244 = ORIENTED_EDGE('',*,*,#230,.T.);
#245 = ORIENTED_EDGE('',*,*,#48,.T.);
#246 = CYLINDRICAL_SURFACE('',#247,1.65);
#247 = AXIS2_PLACEMENT_3D('',#248,#249,#250);
#248 = CARTESIAN_POINT('',(0.,0.,3.));
#249 = DIRECTION('',(-0.,-0.,-1.));
#250 = DIRECTION('',(1.,0.,0.));
#251 = ADVANCED_FACE('',(#252),#268,.T.);
#252 = FACE_BOUND('',#253,.T.);
#253 = EDGE_LOOP('',(#254,#255,#261,#262));
#254 = ORIENTED_EDGE('',*,*,#115,.T.);
#255 = ORIENTED_EDGE('',*,*,#256,.T.);
#256 = EDGE_CURVE('',#118,#177,#257,.T.);
#257 = LINE('',#258,#259);
#258 = CARTESIAN_POINT('',(2.424871130596,-16.05,-4.2));
#259 = VECTOR('',#260,1.);
#260 = DIRECTION('',(0.,1.,0.));
#261 = ORIENTED_EDGE('',*,*,#174,.F.);
#262 = ORIENTED_EDGE('',*,*,#263,.F.);
#263 = EDGE_CURVE('',#116,#175,#264,.T.);
#264 = LINE('',#265,#266);
#265 = CARTESIAN_POINT('',(-2.424871130596,-16.05,-4.2));
#266 = VECTOR('',#267,1.);
#267 = DIRECTION('',(0.,1.,0.));
#268 = PLANE('',#269);
#269 = AXIS2_PLACEMENT_3D('',#270,#271,#272);
#270 = CARTESIAN_POINT('',(2.424871130596,-16.05,-4.2));
#271 = DIRECTION('',(-1.8E-16,0.,1.));
#272 = DIRECTION('',(-1.,0.,-1.8E-16));
#273 = ADVANCED_FACE('',(#274),#285,.T.);
#274 = FACE_BOUND('',#275,.T.);
#275 = EDGE_LOOP('',(#276,#277,#278,#279));
#276 = ORIENTED_EDGE('',*,*,#157,.T.);
#277 = ORIENTED_EDGE('',*,*,#263,.T.);
#278 = ORIENTED_EDGE('',*,*,#216,.F.);
#279 = ORIENTED_EDGE('',*,*,#280,.F.);
#280 = EDGE_CURVE('',#150,#209,#281,.T.);
#281 = LINE('',#282,#283);
#282 = CARTESIAN_POINT('',(-4.849742261193,-16.05,-1.78E-15));
#283 = VECTOR('',#284,1.);
#284 = DIRECTION('',(0.,1.,0.));
#285 = PLANE('',#286);
#286 = AXIS2_PLACEMENT_3D('',#287,#288,#289);
#287 = CARTESIAN_POINT('',(-2.424871130596,-16.05,-4.2));
#288 = DIRECTION('',(0.866025403784,0.,0.5));
#289 = DIRECTION('',(-0.5,0.,0.866025403784));
#290 = ADVANCED_FACE('',(#291),#302,.T.);
#291 = FACE_BOUND('',#292,.T.);
#292 = EDGE_LOOP('',(#293,#294,#295,#296));
#293 = ORIENTED_EDGE('',*,*,#149,.T.);
#294 = ORIENTED_EDGE('',*,*,#280,.T.);
#295 = ORIENTED_EDGE('',*,*,#208,.F.);
#296 = ORIENTED_EDGE('',*,*,#297,.F.);
#297 = EDGE_CURVE('',#142,#201,#298,.T.);
#298 = LINE('',#299,#300);
#299 = CARTESIAN_POINT('',(-2.424871130596,-16.05,4.2));
#300 = VECTOR('',#301,1.);
#301 = DIRECTION('',(0.,1.,0.));
#302 = PLANE('',#303);
#303 = AXIS2_PLACEMENT_3D('',#304,#305,#306);
#304 = CARTESIAN_POINT('',(-4.849742261193,-16.05,-1.78E-15));
#305 = DIRECTION('',(0.866025403784,0.,-0.5));
#306 = DIRECTION('',(0.5,0.,0.866025403784));
#307 = ADVANCED_FACE('',(#308,#319),#322,.T.);
#308 = FACE_BOUND('',#309,.T.);
#309 = EDGE_LOOP('',(#310,#311,#312,#313));
#310 = ORIENTED_EDGE('',*,*,#141,.T.);
#311 = ORIENTED_EDGE('',*,*,#297,.T.);
#312 = ORIENTED_EDGE('',*,*,#200,.F.);
#313 = ORIENTED_EDGE('',*,*,#314,.F.);
#314 = EDGE_CURVE('',#134,#193,#315,.T.);
#315 = LINE('',#316,#317);
#316 = CARTESIAN_POINT('',(2.424871130596,-16.05,4.2));
#317 = VECTOR('',#318,1.);
#318 = DIRECTION('',(0.,1.,0.));
#319 = FACE_BOUND('',#320,.T.);
#320 = EDGE_LOOP('',(#321));
#321 = ORIENTED_EDGE('',*,*,#238,.F.);
#322 = PLANE('',#323);
#323 = AXIS2_PLACEMENT_3D('',#324,#325,#326);
#324 = CARTESIAN_POINT('',(-2.424871130596,-16.05,4.2));
#325 = DIRECTION('',(3.7E-16,0.,-1.));
#326 = DIRECTION('',(1.,0.,3.7E-16));
#327 = ADVANCED_FACE('',(#328),#339,.T.);
#328 = FACE_BOUND('',#329,.T.);
#329 = EDGE_LOOP('',(#330,#331,#332,#333));
#330 = ORIENTED_EDGE('',*,*,#133,.T.);
#331 = ORIENTED_EDGE('',*,*,#314,.T.);
#332 = ORIENTED_EDGE('',*,*,#192,.F.);
#333 = ORIENTED_EDGE('',*,*,#334,.F.);
#334 = EDGE_CURVE('',#126,#185,#335,.T.);
#335 = LINE('',#336,#337);
#336 = CARTESIAN_POINT('',(4.849742261193,-16.05,0.));
#337 = VECTOR('',#338,1.);
#338 = DIRECTION('',(0.,1.,0.));
#339 = PLANE('',#340);
#340 = AXIS2_PLACEMENT_3D('',#341,#342,#343);
#341 = CARTESIAN_POINT('',(2.424871130596,-16.05,4.2));
#342 = DIRECTION('',(-0.866025403784,0.,-0.5));
#343 = DIRECTION('',(0.5,0.,-0.866025403784));
#344 = ADVANCED_FACE('',(#345),#351,.T.);
#345 = FACE_BOUND('',#346,.T.);
#346 = EDGE_LOOP('',(#347,#348,#349,#350));
#347 = ORIENTED_EDGE('',*,*,#125,.T.);
#348 = ORIENTED_EDGE('',*,*,#334,.T.);
#349 = ORIENTED_EDGE('',*,*,#184,.F.);
#350 = ORIENTED_EDGE('',*,*,#256,.F.);
#351 = PLANE('',#352);
#352 = AXIS2_PLACEMENT_3D('',#353,#354,#355);
#353 = CARTESIAN_POINT('',(4.849742261193,-16.05,0.));
#354 = DIRECTION('',(-0.866025403784,0.,0.5));
#355 = DIRECTION('',(-0.5,0.,-0.866025403784));
#356 = ( GEOMETRIC_REPRESENTATION_CONTEXT(3) 
GLOBAL_UNCERTAINTY_ASSIGNED_CONTEXT((#360)) GLOBAL_UNIT_ASSIGNED_CONTEXT
((#357,#358,#359)) REPRESENTATION_CONTEXT('Context #1',
  '3D Context with UNIT and UNCERTAINTY') );
#357 = ( LENGTH_UNIT() NAMED_UNIT(*) SI_UNIT(.MILLI.,.METRE.) );
#358 = ( NAMED_UNIT(*) PLANE_ANGLE_UNIT() SI_UNIT($,.RADIAN.) );
#359 = ( NAMED_UNIT(*) SI_UNIT($,.STERADIAN.) SOLID_ANGLE_UNIT() );
#360 = UNCERTAINTY_MEASURE_WITH_UNIT(LENGTH_MEASURE(2.E-05),#357,
  'distance_accuracy_value','confusion accuracy');
#361 = PRODUCT_RELATED_PRODUCT_CATEGORY('part',$,(#7));
ENDSEC;
END-ISO-10303-21;
