ISO-10303-21;
HEADER;
FILE_DESCRIPTION(('FreeCAD Model'),'2;1');
FILE_NAME('Open CASCADE Shape Model','2026-09-26T13:53:20',('FreeCAD'),(
    'FreeCAD'),'Open CASCADE STEP processor 7.8','FreeCAD','Unknown');
FILE_SCHEMA(('AUTOMOTIVE_DESIGN { 1 0 10303 214 1 1 1 1 }'));
ENDSEC;
DATA;
#1 = APPLICATION_PROTOCOL_DEFINITION('international standard',
  'automotive_design',2000,#2);
#2 = APPLICATION_CONTEXT(
  'core data for automotive mechanical design processes');
#3 = SHAPE_DEFINITION_REPRESENTATION(#4,#10);
#4 = PRODUCT_DEFINITION_SHAPE('','',#5);
#5 = PRODUCT_DEFINITION('design','',#6,#9);
#6 = PRODUCT_DEFINITION_FORMATION('','',#7);
#7 = PRODUCT('Open CASCADE STEP translator 7.8 292',
  'Open CASCADE STEP translator 7.8 292','',(#8));
#8 = PRODUCT_CONTEXT('',#2,'mechanical');
#9 = PRODUCT_DEFINITION_CONTEXT('part definition',#2,'design');
#10 = ADVANCED_BREP_SHAPE_REPRESENTATION('',(#11,#15),#356);
#11 = AXIS2_PLACEMENT_3D('',#12,#13,#14);
#12 = CARTESIAN_POINT('',(0.,0.,0.));
#13 = DIRECTION('',(0.,0.,1.));
#14 = DIRECTION('',(1.,0.,-0.));
#15 = MANIFOLD_SOLID_BREP('',#16);
#16 = CLOSED_SHELL('',(#17,#108,#167,#226,#251,#273,#290,#307,#327,#344)
  );
#17 = ADVANCED_FACE('',(#18,#45),#103,.T.);
#18 = FACE_BOUND('',#19,.F.);
#19 = EDGE_LOOP('',(#20,#29,#37,#44));
#20 = ORIENTED_EDGE('',*,*,#21,.F.);
#21 = EDGE_CURVE('',#22,#22,#24,.T.);
#22 = VERTEX_POINT('',#23);
#23 = CARTESIAN_POINT('',(-114.,189.15,48.));
#24 = CIRCLE('',#25,13.);
#25 = AXIS2_PLACEMENT_3D('',#26,#27,#28);
#26 = CARTESIAN_POINT('',(-127.,189.15,48.));
#27 = DIRECTION('',(-0.,1.,0.));
#28 = DIRECTION('',(1.,0.,0.));
#29 = ORIENTED_EDGE('',*,*,#30,.T.);
#30 = EDGE_CURVE('',#22,#31,#33,.T.);
#31 = VERTEX_POINT('',#32);
#32 = CARTESIAN_POINT('',(-114.,217.25,48.));
#33 = LINE('',#34,#35);
#34 = CARTESIAN_POINT('',(-114.,189.15,48.));
#35 = VECTOR('',#36,1.);
#36 = DIRECTION('',(0.,1.,0.));
#37 = ORIENTED_EDGE('',*,*,#38,.T.);
#38 = EDGE_CURVE('',#31,#31,#39,.T.);
#39 = CIRCLE('',#40,13.);
#40 = AXIS2_PLACEMENT_3D('',#41,#42,#43);
#41 = CARTESIAN_POINT('',(-127.,217.25,48.));
#42 = DIRECTION('',(-0.,1.,0.));
#43 = DIRECTION('',(1.,0.,0.));
#44 = ORIENTED_EDGE('',*,*,#30,.F.);
#45 = FACE_BOUND('',#46,.F.);
#46 = EDGE_LOOP('',(#47));
#47 = ORIENTED_EDGE('',*,*,#48,.T.);
#48 = EDGE_CURVE('',#49,#49,#51,.T.);
#49 = VERTEX_POINT('',#50);
#50 = CARTESIAN_POINT('',(-125.35,203.2,60.894863318392));
#51 = B_SPLINE_CURVE_WITH_KNOTS('',8,(#52,#53,#54,#55,#56,#57,#58,#59,
    #60,#61,#62,#63,#64,#65,#66,#67,#68,#69,#70,#71,#72,#73,#74,#75,#76,
    #77,#78,#79,#80,#81,#82,#83,#84,#85,#86,#87,#88,#89,#90,#91,#92,#93,
    #94,#95,#96,#97,#98,#99,#100,#101,#102),.UNSPECIFIED.,.T.,.F.,(9,7,7
    ,7,7,7,7,9),(0.,0.152594403229,0.285886039621,0.422179215832,
    0.588481154485,0.714360821103,0.838040300113,1.),.UNSPECIFIED.);
#52 = CARTESIAN_POINT('',(-125.35,203.2,60.894863318392));
#53 = CARTESIAN_POINT('',(-125.35,203.37282166228,60.894863318392));
#54 = CARTESIAN_POINT('',(-125.3706865116,203.5455826101,60.897510201859
    ));
#55 = CARTESIAN_POINT('',(-125.41203893,203.71671644461,60.902802049866)
  );
#56 = CARTESIAN_POINT('',(-125.4744219093,203.88450626068,
    60.910594798645));
#57 = CARTESIAN_POINT('',(-125.5584680021,204.04690009545,
    60.920594952211));
#58 = CARTESIAN_POINT('',(-125.6649712729,204.20131176588,
    60.932298425099));
#59 = CARTESIAN_POINT('',(-125.7947267289,204.34434101049,
    60.944923373814));
#60 = CARTESIAN_POINT('',(-126.082353786,204.58228680576,60.968270032135
    ));
#61 = CARTESIAN_POINT('',(-126.2386988633,204.68439732483,
    60.979363946604));
#62 = CARTESIAN_POINT('',(-126.4149583235,204.76944563386,
    60.989555920983));
#63 = CARTESIAN_POINT('',(-126.6068915878,204.83128952193,
    60.997528027753));
#64 = CARTESIAN_POINT('',(-126.808812707,204.86587874126,61.002097114648
    ));
#65 = CARTESIAN_POINT('',(-127.0143094082,204.87129905054,
    61.002731802905));
#66 = CARTESIAN_POINT('',(-127.2168193747,204.84784943431,
    60.999633698199));
#67 = CARTESIAN_POINT('',(-127.6082150266,204.74735611127,
    60.987273336798));
#68 = CARTESIAN_POINT('',(-127.7907679654,204.6706391575,60.978060786311
    ));
#69 = CARTESIAN_POINT('',(-127.9557455433,204.57287895938,
    60.966884293485));
#70 = CARTESIAN_POINT('',(-128.1018883137,204.45830897956,
    60.954826873184));
#71 = CARTESIAN_POINT('',(-128.2285925049,204.33071395668,
    60.942854800142));
#72 = CARTESIAN_POINT('',(-128.3357419742,204.19352539235,
    60.931731979465));
#73 = CARTESIAN_POINT('',(-128.4236390377,204.0498602278,60.922001476669
    ));
#74 = CARTESIAN_POINT('',(-128.5775542088,203.72277383956,
    60.904207598596));
#75 = CARTESIAN_POINT('',(-128.635444757,203.53554277109,60.896873312496
    ));
#76 = CARTESIAN_POINT('',(-128.6676588825,203.34388001486,60.89257243713
    ));
#77 = CARTESIAN_POINT('',(-128.6746289043,203.15015655415,
    60.891611111205));
#78 = CARTESIAN_POINT('',(-128.6563447511,202.9566721344,60.894084754098
    ));
#79 = CARTESIAN_POINT('',(-128.6124810301,202.76593284235,
    60.899861568986));
#80 = CARTESIAN_POINT('',(-128.542522355,202.58085089505,60.908527275528
    ));
#81 = CARTESIAN_POINT('',(-128.372773791,202.27207940343,60.927525185927
    ));
#82 = CARTESIAN_POINT('',(-128.2835551663,202.14292321549,
    60.937031247652));
#83 = CARTESIAN_POINT('',(-128.177778398,202.02011034157,60.947544136061
    ));
#84 = CARTESIAN_POINT('',(-128.0553215656,201.90630238759,60.95858019099
    ));
#85 = CARTESIAN_POINT('',(-127.9164277862,201.80435438813,
    60.969493913601));
#86 = CARTESIAN_POINT('',(-127.7617445966,201.71733639385,
    60.979505601408));
#87 = CARTESIAN_POINT('',(-127.5924263301,201.64859004047,
    60.987771947333));
#88 = CARTESIAN_POINT('',(-127.2314329227,201.55590268706,
    60.999172199118));
#89 = CARTESIAN_POINT('',(-127.0442185189,201.53223183455,
    61.002265738886));
#90 = CARTESIAN_POINT('',(-126.8536630548,201.53326004711,
    61.002197315126));
#91 = CARTESIAN_POINT('',(-126.6652103268,201.55952363503,
    60.998736308872));
#92 = CARTESIAN_POINT('',(-126.4842846604,201.60974551587,
    60.992241959314));
#93 = CARTESIAN_POINT('',(-126.3157798753,201.6808889752,60.983561953839
    ));
#94 = CARTESIAN_POINT('',(-126.1635793913,201.76818298062,
    60.973754369789));
#95 = CARTESIAN_POINT('',(-125.8554326865,201.99206466648,
    60.950701300597));
#96 = CARTESIAN_POINT('',(-125.7076715887,202.13935176394,
    60.936940324804));
#97 = CARTESIAN_POINT('',(-125.5865164696,202.30086709916,
    60.923916143434));
#98 = CARTESIAN_POINT('',(-125.4910465422,202.47224903045,
    60.912668043642));
#99 = CARTESIAN_POINT('',(-125.4202877473,202.65019931793,
    60.903858006591));
#100 = CARTESIAN_POINT('',(-125.3734386025,202.83215014102,
    60.897862189648));
#101 = CARTESIAN_POINT('',(-125.35,203.01604634259,60.894863318392));
#102 = CARTESIAN_POINT('',(-125.35,203.2,60.894863318392));
#103 = CYLINDRICAL_SURFACE('',#104,13.);
#104 = AXIS2_PLACEMENT_3D('',#105,#106,#107);
#105 = CARTESIAN_POINT('',(-127.,189.15,48.));
#106 = DIRECTION('',(-0.,-1.,0.));
#107 = DIRECTION('',(1.,0.,0.));
#108 = ADVANCED_FACE('',(#109,#112),#162,.F.);
#109 = FACE_BOUND('',#110,.F.);
#110 = EDGE_LOOP('',(#111));
#111 = ORIENTED_EDGE('',*,*,#21,.T.);
#112 = FACE_BOUND('',#113,.F.);
#113 = EDGE_LOOP('',(#114,#124,#132,#140,#148,#156));
#114 = ORIENTED_EDGE('',*,*,#115,.T.);
#115 = EDGE_CURVE('',#116,#118,#120,.T.);
#116 = VERTEX_POINT('',#117);
#117 = CARTESIAN_POINT('',(-129.4248711305,189.15,43.8));
#118 = VERTEX_POINT('',#119);
#119 = CARTESIAN_POINT('',(-124.5751288694,189.15,43.8));
#120 = LINE('',#121,#122);
#121 = CARTESIAN_POINT('',(-125.7875644347,189.15,43.8));
#122 = VECTOR('',#123,1.);
#123 = DIRECTION('',(1.,0.,1.8E-16));
#124 = ORIENTED_EDGE('',*,*,#125,.T.);
#125 = EDGE_CURVE('',#118,#126,#128,.T.);
#126 = VERTEX_POINT('',#127);
#127 = CARTESIAN_POINT('',(-122.1502577388,189.15,48.));
#128 = LINE('',#129,#130);
#129 = CARTESIAN_POINT('',(-122.7564755214,189.15,46.95));
#130 = VECTOR('',#131,1.);
#131 = DIRECTION('',(0.5,1.9E-16,0.866025403784));
#132 = ORIENTED_EDGE('',*,*,#133,.T.);
#133 = EDGE_CURVE('',#126,#134,#136,.T.);
#134 = VERTEX_POINT('',#135);
#135 = CARTESIAN_POINT('',(-124.5751288694,189.15,52.2));
#136 = LINE('',#137,#138);
#137 = CARTESIAN_POINT('',(-123.9689110867,189.15,51.15));
#138 = VECTOR('',#139,1.);
#139 = DIRECTION('',(-0.5,1.9E-16,0.866025403784));
#140 = ORIENTED_EDGE('',*,*,#141,.T.);
#141 = EDGE_CURVE('',#134,#142,#144,.T.);
#142 = VERTEX_POINT('',#143);
#143 = CARTESIAN_POINT('',(-129.4248711305,189.15,52.2));
#144 = LINE('',#145,#146);
#145 = CARTESIAN_POINT('',(-128.2124355652,189.15,52.2));
#146 = VECTOR('',#147,1.);
#147 = DIRECTION('',(-1.,-0.,-3.7E-16));
#148 = ORIENTED_EDGE('',*,*,#149,.T.);
#149 = EDGE_CURVE('',#142,#150,#152,.T.);
#150 = VERTEX_POINT('',#151);
#151 = CARTESIAN_POINT('',(-131.8497422611,189.15,48.));
#152 = LINE('',#153,#154);
#153 = CARTESIAN_POINT('',(-131.2435244785,189.15,49.05));
#154 = VECTOR('',#155,1.);
#155 = DIRECTION('',(-0.5,-1.9E-16,-0.866025403784));
#156 = ORIENTED_EDGE('',*,*,#157,.T.);
#157 = EDGE_CURVE('',#150,#116,#158,.T.);
#158 = LINE('',#159,#160);
#159 = CARTESIAN_POINT('',(-130.0310889132,189.15,44.85));
#160 = VECTOR('',#161,1.);
#161 = DIRECTION('',(0.5,-1.9E-16,-0.866025403784));
#162 = PLANE('',#163);
#163 = AXIS2_PLACEMENT_3D('',#164,#165,#166);
#164 = CARTESIAN_POINT('',(-127.,189.15,48.));
#165 = DIRECTION('',(0.,1.,0.));
#166 = DIRECTION('',(1.,0.,0.));
#167 = ADVANCED_FACE('',(#168,#171),#221,.T.);
#168 = FACE_BOUND('',#169,.T.);
#169 = EDGE_LOOP('',(#170));
#170 = ORIENTED_EDGE('',*,*,#38,.T.);
#171 = FACE_BOUND('',#172,.T.);
#172 = EDGE_LOOP('',(#173,#183,#191,#199,#207,#215));
#173 = ORIENTED_EDGE('',*,*,#174,.T.);
#174 = EDGE_CURVE('',#175,#177,#179,.T.);
#175 = VERTEX_POINT('',#176);
#176 = CARTESIAN_POINT('',(-129.4248711305,217.25,43.8));
#177 = VERTEX_POINT('',#178);
#178 = CARTESIAN_POINT('',(-124.5751288694,217.25,43.8));
#179 = LINE('',#180,#181);
#180 = CARTESIAN_POINT('',(-125.7875644347,217.25,43.8));
#181 = VECTOR('',#182,1.);
#182 = DIRECTION('',(1.,0.,1.8E-16));
#183 = ORIENTED_EDGE('',*,*,#184,.T.);
#184 = EDGE_CURVE('',#177,#185,#187,.T.);
#185 = VERTEX_POINT('',#186);
#186 = CARTESIAN_POINT('',(-122.1502577388,217.25,48.));
#187 = LINE('',#188,#189);
#188 = CARTESIAN_POINT('',(-122.7564755214,217.25,46.95));
#189 = VECTOR('',#190,1.);
#190 = DIRECTION('',(0.5,1.9E-16,0.866025403784));
#191 = ORIENTED_EDGE('',*,*,#192,.T.);
#192 = EDGE_CURVE('',#185,#193,#195,.T.);
#193 = VERTEX_POINT('',#194);
#194 = CARTESIAN_POINT('',(-124.5751288694,217.25,52.2));
#195 = LINE('',#196,#197);
#196 = CARTESIAN_POINT('',(-123.9689110867,217.25,51.15));
#197 = VECTOR('',#198,1.);
#198 = DIRECTION('',(-0.5,1.9E-16,0.866025403784));
#199 = ORIENTED_EDGE('',*,*,#200,.T.);
#200 = EDGE_CURVE('',#193,#201,#203,.T.);
#201 = VERTEX_POINT('',#202);
#202 = CARTESIAN_POINT('',(-129.4248711305,217.25,52.2));
#203 = LINE('',#204,#205);
#204 = CARTESIAN_POINT('',(-128.2124355652,217.25,52.2));
#205 = VECTOR('',#206,1.);
#206 = DIRECTION('',(-1.,-0.,-3.7E-16));
#207 = ORIENTED_EDGE('',*,*,#208,.T.);
#208 = EDGE_CURVE('',#201,#209,#211,.T.);
#209 = VERTEX_POINT('',#210);
#210 = CARTESIAN_POINT('',(-131.8497422611,217.25,48.));
#211 = LINE('',#212,#213);
#212 = CARTESIAN_POINT('',(-131.2435244785,217.25,49.05));
#213 = VECTOR('',#214,1.);
#214 = DIRECTION('',(-0.5,-1.9E-16,-0.866025403784));
#215 = ORIENTED_EDGE('',*,*,#216,.T.);
#216 = EDGE_CURVE('',#209,#175,#217,.T.);
#217 = LINE('',#218,#219);
#218 = CARTESIAN_POINT('',(-130.0310889132,217.25,44.85));
#219 = VECTOR('',#220,1.);
#220 = DIRECTION('',(0.5,-1.9E-16,-0.866025403784));
#221 = PLANE('',#222);
#222 = AXIS2_PLACEMENT_3D('',#223,#224,#225);
#223 = CARTESIAN_POINT('',(-127.,217.25,48.));
#224 = DIRECTION('',(0.,1.,0.));
#225 = DIRECTION('',(1.,0.,0.));
#226 = ADVANCED_FACE('',(#227),#246,.F.);
#227 = FACE_BOUND('',#228,.T.);
#228 = EDGE_LOOP('',(#229,#237,#244,#245));
#229 = ORIENTED_EDGE('',*,*,#230,.F.);
#230 = EDGE_CURVE('',#231,#49,#233,.T.);
#231 = VERTEX_POINT('',#232);
#232 = CARTESIAN_POINT('',(-125.35,203.2,52.2));
#233 = LINE('',#234,#235);
#234 = CARTESIAN_POINT('',(-125.35,203.2,51.));
#235 = VECTOR('',#236,1.);
#236 = DIRECTION('',(0.,0.,1.));
#237 = ORIENTED_EDGE('',*,*,#238,.T.);
#238 = EDGE_CURVE('',#231,#231,#239,.T.);
#239 = CIRCLE('',#240,1.65);
#240 = AXIS2_PLACEMENT_3D('',#241,#242,#243);
#241 = CARTESIAN_POINT('',(-127.,203.2,52.2));
#242 = DIRECTION('',(0.,0.,-1.));
#243 = DIRECTION('',(1.,0.,0.));
#244 = ORIENTED_EDGE('',*,*,#230,.T.);
#245 = ORIENTED_EDGE('',*,*,#48,.T.);
#246 = CYLINDRICAL_SURFACE('',#247,1.65);
#247 = AXIS2_PLACEMENT_3D('',#248,#249,#250);
#248 = CARTESIAN_POINT('',(-127.,203.2,51.));
#249 = DIRECTION('',(-0.,-0.,-1.));
#250 = DIRECTION('',(1.,0.,0.));
#251 = ADVANCED_FACE('',(#252),#268,.T.);
#252 = FACE_BOUND('',#253,.T.);
#253 = EDGE_LOOP('',(#254,#255,#261,#262));
#254 = ORIENTED_EDGE('',*,*,#115,.T.);
#255 = ORIENTED_EDGE('',*,*,#256,.T.);
#256 = EDGE_CURVE('',#118,#177,#257,.T.);
#257 = LINE('',#258,#259);
#258 = CARTESIAN_POINT('',(-124.5751288694,188.15,43.8));
#259 = VECTOR('',#260,1.);
#260 = DIRECTION('',(0.,1.,0.));
#261 = ORIENTED_EDGE('',*,*,#174,.F.);
#262 = ORIENTED_EDGE('',*,*,#263,.F.);
#263 = EDGE_CURVE('',#116,#175,#264,.T.);
#264 = LINE('',#265,#266);
#265 = CARTESIAN_POINT('',(-129.4248711305,188.15,43.8));
#266 = VECTOR('',#267,1.);
#267 = DIRECTION('',(0.,1.,0.));
#268 = PLANE('',#269);
#269 = AXIS2_PLACEMENT_3D('',#270,#271,#272);
#270 = CARTESIAN_POINT('',(-124.5751288694,188.15,43.8));
#271 = DIRECTION('',(-1.8E-16,0.,1.));
#272 = DIRECTION('',(-1.,0.,-1.8E-16));
#273 = ADVANCED_FACE('',(#274),#285,.T.);
#274 = FACE_BOUND('',#275,.T.);
#275 = EDGE_LOOP('',(#276,#277,#278,#279));
#276 = ORIENTED_EDGE('',*,*,#157,.T.);
#277 = ORIENTED_EDGE('',*,*,#263,.T.);
#278 = ORIENTED_EDGE('',*,*,#216,.F.);
#279 = ORIENTED_EDGE('',*,*,#280,.F.);
#280 = EDGE_CURVE('',#150,#209,#281,.T.);
#281 = LINE('',#282,#283);
#282 = CARTESIAN_POINT('',(-131.8497422611,188.15,48.));
#283 = VECTOR('',#284,1.);
#284 = DIRECTION('',(0.,1.,0.));
#285 = PLANE('',#286);
#286 = AXIS2_PLACEMENT_3D('',#287,#288,#289);
#287 = CARTESIAN_POINT('',(-129.4248711305,188.15,43.8));
#288 = DIRECTION('',(0.866025403784,0.,0.5));
#289 = DIRECTION('',(-0.5,0.,0.866025403784));
#290 = ADVANCED_FACE('',(#291),#302,.T.);
#291 = FACE_BOUND('',#292,.T.);
#292 = EDGE_LOOP('',(#293,#294,#295,#296));
#293 = ORIENTED_EDGE('',*,*,#149,.T.);
#294 = ORIENTED_EDGE('',*,*,#280,.T.);
#295 = ORIENTED_EDGE('',*,*,#208,.F.);
#296 = ORIENTED_EDGE('',*,*,#297,.F.);
#297 = EDGE_CURVE('',#142,#201,#298,.T.);
#298 = LINE('',#299,#300);
#299 = CARTESIAN_POINT('',(-129.4248711305,188.15,52.2));
#300 = VECTOR('',#301,1.);
#301 = DIRECTION('',(0.,1.,0.));
#302 = PLANE('',#303);
#303 = AXIS2_PLACEMENT_3D('',#304,#305,#306);
#304 = CARTESIAN_POINT('',(-131.8497422611,188.15,48.));
#305 = DIRECTION('',(0.866025403784,0.,-0.5));
#306 = DIRECTION('',(0.5,0.,0.866025403784));
#307 = ADVANCED_FACE('',(#308,#319),#322,.T.);
#308 = FACE_BOUND('',#309,.T.);
#309 = EDGE_LOOP('',(#310,#311,#312,#313));
#310 = ORIENTED_EDGE('',*,*,#141,.T.);
#311 = ORIENTED_EDGE('',*,*,#297,.T.);
#312 = ORIENTED_EDGE('',*,*,#200,.F.);
#313 = ORIENTED_EDGE('',*,*,#314,.F.);
#314 = EDGE_CURVE('',#134,#193,#315,.T.);
#315 = LINE('',#316,#317);
#316 = CARTESIAN_POINT('',(-124.5751288694,188.15,52.2));
#317 = VECTOR('',#318,1.);
#318 = DIRECTION('',(0.,1.,0.));
#319 = FACE_BOUND('',#320,.T.);
#320 = EDGE_LOOP('',(#321));
#321 = ORIENTED_EDGE('',*,*,#238,.F.);
#322 = PLANE('',#323);
#323 = AXIS2_PLACEMENT_3D('',#324,#325,#326);
#324 = CARTESIAN_POINT('',(-129.4248711305,188.15,52.2));
#325 = DIRECTION('',(3.7E-16,0.,-1.));
#326 = DIRECTION('',(1.,0.,3.7E-16));
#327 = ADVANCED_FACE('',(#328),#339,.T.);
#328 = FACE_BOUND('',#329,.T.);
#329 = EDGE_LOOP('',(#330,#331,#332,#333));
#330 = ORIENTED_EDGE('',*,*,#133,.T.);
#331 = ORIENTED_EDGE('',*,*,#314,.T.);
#332 = ORIENTED_EDGE('',*,*,#192,.F.);
#333 = ORIENTED_EDGE('',*,*,#334,.F.);
#334 = EDGE_CURVE('',#126,#185,#335,.T.);
#335 = LINE('',#336,#337);
#336 = CARTESIAN_POINT('',(-122.1502577388,188.15,48.));
#337 = VECTOR('',#338,1.);
#338 = DIRECTION('',(0.,1.,0.));
#339 = PLANE('',#340);
#340 = AXIS2_PLACEMENT_3D('',#341,#342,#343);
#341 = CARTESIAN_POINT('',(-124.5751288694,188.15,52.2));
#342 = DIRECTION('',(-0.866025403784,0.,-0.5));
#343 = DIRECTION('',(0.5,0.,-0.866025403784));
#344 = ADVANCED_FACE('',(#345),#351,.T.);
#345 = FACE_BOUND('',#346,.T.);
#346 = EDGE_LOOP('',(#347,#348,#349,#350));
#347 = ORIENTED_EDGE('',*,*,#125,.T.);
#348 = ORIENTED_EDGE('',*,*,#334,.T.);
#349 = ORIENTED_EDGE('',*,*,#184,.F.);
#350 = ORIENTED_EDGE('',*,*,#256,.F.);
#351 = PLANE('',#352);
#352 = AXIS2_PLACEMENT_3D('',#353,#354,#355);
#353 = CARTESIAN_POINT('',(-122.1502577388,188.15,48.));
#354 = DIRECTION('',(-0.866025403784,0.,0.5));
#355 = DIRECTION('',(-0.5,0.,-0.866025403784));
#356 = ( GEOMETRIC_REPRESENTATION_CONTEXT(3) 
GLOBAL_UNCERTAINTY_ASSIGNED_CONTEXT((#360)) GLOBAL_UNIT_ASSIGNED_CONTEXT
((#357,#358,#359)) REPRESENTATION_CONTEXT('Context #1',
  '3D Context with UNIT and UNCERTAINTY') );
#357 = ( LENGTH_UNIT() NAMED_UNIT(*) SI_UNIT(.MILLI.,.METRE.) );
#358 = ( NAMED_UNIT(*) PLANE_ANGLE_UNIT() SI_UNIT($,.RADIAN.) );
#359 = ( NAMED_UNIT(*) SI_UNIT($,.STERADIAN.) SOLID_ANGLE_UNIT() );
#360 = UNCERTAINTY_MEASURE_WITH_UNIT(LENGTH_MEASURE(2.E-05),#357,
  'distance_accuracy_value','confusion accuracy');
#361 = PRODUCT_RELATED_PRODUCT_CATEGORY('part',$,(#7));
ENDSEC;
END-ISO-10303-21;
