ISO-10303-21;
HEADER;
FILE_DESCRIPTION(('FreeCAD Model'),'2;1');
FILE_NAME('Open CASCADE Shape Model','2026-09-30T03:00:20',('Author'),(
    ''),'Open CASCADE STEP processor 7.8','FreeCAD','Unknown');
FILE_SCHEMA(('AUTOMOTIVE_DESIGN { 1 0 10303 214 1 1 1 1 }'));
ENDSEC;
DATA;
#1 = APPLICATION_PROTOCOL_DEFINITION('international standard',
  'automotive_design',2000,#2);
#2 = APPLICATION_CONTEXT(
  'core data for automotive mechanical design processes');
#3 = SHAPE_DEFINITION_REPRESENTATION(#4,#10);
#4 = PRODUCT_DEFINITION_SHAPE('','',#5);
#5 = PRODUCT_DEFINITION('design','',#6,#9);
#6 = PRODUCT_DEFINITION_FORMATION('','',#7);
#7 = PRODUCT('master_robot','master_robot','',(#8));
#8 = PRODUCT_CONTEXT('',#2,'mechanical');
#9 = PRODUCT_DEFINITION_CONTEXT('part definition',#2,'design');
#10 = SHAPE_REPRESENTATION('',(#11,#15,#19,#23,#27),#31);
#11 = AXIS2_PLACEMENT_3D('',#12,#13,#14);
#12 = CARTESIAN_POINT('',(0.,0.,0.));
#13 = DIRECTION('',(0.,0.,1.));
#14 = DIRECTION('',(1.,0.,-0.));
#15 = AXIS2_PLACEMENT_3D('',#16,#17,#18);
#16 = CARTESIAN_POINT('',(0.,0.,0.));
#17 = DIRECTION('',(0.,0.,1.));
#18 = DIRECTION('',(1.,0.,0.));
#19 = AXIS2_PLACEMENT_3D('',#20,#21,#22);
#20 = CARTESIAN_POINT('',(-30.,-130.,42.));
#21 = DIRECTION('',(0.640184399664,-0.768221279597,-1.665334536938E-16)
  );
#22 = DIRECTION('',(0.590163934426,0.491803278689,-0.640184399664));
#23 = AXIS2_PLACEMENT_3D('',#24,#25,#26);
#24 = CARTESIAN_POINT('',(-5.,-160.,42.));
#25 = DIRECTION('',(0.374765844498,-0.899438026795,0.224859506699));
#26 = DIRECTION('',(0.885334246553,0.275197808273,-0.374765844498));
#27 = AXIS2_PLACEMENT_3D('',#28,#29,#30);
#28 = CARTESIAN_POINT('',(0.,-172.,45.));
#29 = DIRECTION('',(0.,-1.,2.22044604925E-16));
#30 = DIRECTION('',(1.,0.,0.));
#31 = ( GEOMETRIC_REPRESENTATION_CONTEXT(3) 
GLOBAL_UNCERTAINTY_ASSIGNED_CONTEXT((#35)) GLOBAL_UNIT_ASSIGNED_CONTEXT(
(#32,#33,#34)) REPRESENTATION_CONTEXT('Context #1',
  '3D Context with UNIT and UNCERTAINTY') );
#32 = ( LENGTH_UNIT() NAMED_UNIT(*) SI_UNIT(.MILLI.,.METRE.) );
#33 = ( NAMED_UNIT(*) PLANE_ANGLE_UNIT() SI_UNIT($,.RADIAN.) );
#34 = ( NAMED_UNIT(*) SI_UNIT($,.STERADIAN.) SOLID_ANGLE_UNIT() );
#35 = UNCERTAINTY_MEASURE_WITH_UNIT(LENGTH_MEASURE(1.E-05),#32,
  'distance_accuracy_value','confusion accuracy');
#36 = PRODUCT_RELATED_PRODUCT_CATEGORY('part',$,(#7));
#37 = SHAPE_DEFINITION_REPRESENTATION(#38,#44);
#38 = PRODUCT_DEFINITION_SHAPE('','',#39);
#39 = PRODUCT_DEFINITION('design','',#40,#43);
#40 = PRODUCT_DEFINITION_FORMATION('','',#41);
#41 = PRODUCT('WIRE_HUB_RS485_0','WIRE_HUB_RS485_0','',(#42));
#42 = PRODUCT_CONTEXT('',#2,'mechanical');
#43 = PRODUCT_DEFINITION_CONTEXT('part definition',#2,'design');
#44 = ADVANCED_BREP_SHAPE_REPRESENTATION('',(#11,#45),#194);
#45 = MANIFOLD_SOLID_BREP('',#46);
#46 = CLOSED_SHELL('',(#47,#116,#125,#160,#175,#185));
#47 = ADVANCED_FACE('',(#48),#111,.T.);
#48 = FACE_BOUND('',#49,.F.);
#49 = EDGE_LOOP('',(#50,#59,#67,#76,#85,#94,#103,#110));
#50 = ORIENTED_EDGE('',*,*,#51,.F.);
#51 = EDGE_CURVE('',#52,#52,#54,.T.);
#52 = VERTEX_POINT('',#53);
#53 = CARTESIAN_POINT('',(-48.52591749594,-40.20733996756,
    50.184637236469));
#54 = CIRCLE('',#55,1.5);
#55 = AXIS2_PLACEMENT_3D('',#56,#57,#58);
#56 = CARTESIAN_POINT('',(-50.,-40.,50.));
#57 = DIRECTION('',(-0.123091490979,-0.984731927835,-0.123091490979));
#58 = DIRECTION('',(0.98272166937,-0.138226645044,0.123091490979));
#59 = ORIENTED_EDGE('',*,*,#60,.T.);
#60 = EDGE_CURVE('',#52,#61,#63,.T.);
#61 = VERTEX_POINT('',#62);
#62 = CARTESIAN_POINT('',(-53.46988352604,-79.75906820837,
    45.240671206368));
#63 = LINE('',#64,#65);
#64 = CARTESIAN_POINT('',(-48.52591749594,-40.20733996756,
    50.184637236469));
#65 = VECTOR('',#66,1.);
#66 = DIRECTION('',(-0.123091490979,-0.984731927835,-0.123091490979));
#67 = ORIENTED_EDGE('',*,*,#68,.F.);
#68 = EDGE_CURVE('',#69,#61,#71,.T.);
#69 = VERTEX_POINT('',#70);
#70 = CARTESIAN_POINT('',(-55.15420923385,-80.1660714826,46.48278109472)
  );
#71 = ELLIPSE('',#72,1.567640068337,1.5);
#72 = AXIS2_PLACEMENT_3D('',#73,#74,#75);
#73 = CARTESIAN_POINT('',(-55.,-80.,45.));
#74 = DIRECTION('',(-0.169033144246,0.981276799594,9.232355455292E-02));
#75 = DIRECTION('',(0.980233997806,0.15760133737,0.119595685557));
#76 = ORIENTED_EDGE('',*,*,#77,.T.);
#77 = EDGE_CURVE('',#69,#78,#80,.T.);
#78 = VERTEX_POINT('',#79);
#79 = CARTESIAN_POINT('',(-54.84579076614,-79.83392851739,43.51721890528
    ));
#80 = CIRCLE('',#81,1.5);
#81 = AXIS2_PLACEMENT_3D('',#82,#83,#84);
#82 = CARTESIAN_POINT('',(-55.,-80.,45.));
#83 = DIRECTION('',(-0.123091490979,-0.984731927835,-0.123091490979));
#84 = DIRECTION('',(0.98272166937,-0.138226645044,0.123091490979));
#85 = ORIENTED_EDGE('',*,*,#86,.F.);
#86 = EDGE_CURVE('',#87,#78,#89,.T.);
#87 = VERTEX_POINT('',#88);
#88 = CARTESIAN_POINT('',(-53.64883097515,-79.70233804968,44.31007403691
    ));
#89 = ELLIPSE('',#90,1.567640068337,1.5);
#90 = AXIS2_PLACEMENT_3D('',#91,#92,#93);
#91 = CARTESIAN_POINT('',(-55.,-80.,45.));
#92 = DIRECTION('',(-0.169033144246,0.981276799594,9.232355455292E-02));
#93 = DIRECTION('',(0.980233997806,0.15760133737,0.119595685557));
#94 = ORIENTED_EDGE('',*,*,#95,.F.);
#95 = EDGE_CURVE('',#96,#87,#98,.T.);
#96 = VERTEX_POINT('',#97);
#97 = CARTESIAN_POINT('',(-53.46334590869,-79.75293782871,45.18748298868
    ));
#98 = ELLIPSE('',#99,1.567640068337,1.5);
#99 = AXIS2_PLACEMENT_3D('',#100,#101,#102);
#100 = CARTESIAN_POINT('',(-55.,-80.,45.));
#101 = DIRECTION('',(-0.169033144246,0.981276799594,9.232355455292E-02)
  );
#102 = DIRECTION('',(0.980233997806,0.15760133737,0.119595685557));
#103 = ORIENTED_EDGE('',*,*,#104,.F.);
#104 = EDGE_CURVE('',#61,#96,#105,.T.);
#105 = ELLIPSE('',#106,1.567640068337,1.5);
#106 = AXIS2_PLACEMENT_3D('',#107,#108,#109);
#107 = CARTESIAN_POINT('',(-55.,-80.,45.));
#108 = DIRECTION('',(-0.169033144246,0.981276799594,9.232355455292E-02)
  );
#109 = DIRECTION('',(0.980233997806,0.15760133737,0.119595685557));
#110 = ORIENTED_EDGE('',*,*,#60,.F.);
#111 = CYLINDRICAL_SURFACE('',#112,1.5);
#112 = AXIS2_PLACEMENT_3D('',#113,#114,#115);
#113 = CARTESIAN_POINT('',(-50.,-40.,50.));
#114 = DIRECTION('',(0.123091490979,0.984731927835,0.123091490979));
#115 = DIRECTION('',(0.98272166937,-0.138226645044,0.123091490979));
#116 = ADVANCED_FACE('',(#117),#120,.F.);
#117 = FACE_BOUND('',#118,.T.);
#118 = EDGE_LOOP('',(#119));
#119 = ORIENTED_EDGE('',*,*,#51,.F.);
#120 = PLANE('',#121);
#121 = AXIS2_PLACEMENT_3D('',#122,#123,#124);
#122 = CARTESIAN_POINT('',(-50.,-40.,50.));
#123 = DIRECTION('',(-0.123091490979,-0.984731927835,-0.123091490979));
#124 = DIRECTION('',(0.98272166937,-0.138226645044,0.123091490979));
#125 = ADVANCED_FACE('',(#126),#155,.T.);
#126 = FACE_BOUND('',#127,.F.);
#127 = EDGE_LOOP('',(#128,#129,#137,#144,#145,#146,#153,#154));
#128 = ORIENTED_EDGE('',*,*,#95,.T.);
#129 = ORIENTED_EDGE('',*,*,#130,.T.);
#130 = EDGE_CURVE('',#87,#131,#133,.T.);
#131 = VERTEX_POINT('',#132);
#132 = CARTESIAN_POINT('',(-28.81607655584,-129.3678468883,
    41.330143506592));
#133 = LINE('',#134,#135);
#134 = CARTESIAN_POINT('',(-53.81607655584,-79.36784688831,
    44.330143506592));
#135 = VECTOR('',#136,1.);
#136 = DIRECTION('',(0.446570995606,-0.893141991211,-5.358851947267E-02)
  );
#137 = ORIENTED_EDGE('',*,*,#138,.T.);
#138 = EDGE_CURVE('',#131,#131,#139,.T.);
#139 = CIRCLE('',#140,1.5);
#140 = AXIS2_PLACEMENT_3D('',#141,#142,#143);
#141 = CARTESIAN_POINT('',(-30.,-130.,42.));
#142 = DIRECTION('',(0.446570995606,-0.893141991211,-5.358851947267E-02)
  );
#143 = DIRECTION('',(0.789282296105,0.421435407789,-0.446570995606));
#144 = ORIENTED_EDGE('',*,*,#130,.F.);
#145 = ORIENTED_EDGE('',*,*,#86,.T.);
#146 = ORIENTED_EDGE('',*,*,#147,.F.);
#147 = EDGE_CURVE('',#69,#78,#148,.T.);
#148 = CIRCLE('',#149,1.5);
#149 = AXIS2_PLACEMENT_3D('',#150,#151,#152);
#150 = CARTESIAN_POINT('',(-55.,-80.,45.));
#151 = DIRECTION('',(0.446570995606,-0.893141991211,-5.358851947267E-02)
  );
#152 = DIRECTION('',(0.789282296105,0.421435407789,-0.446570995606));
#153 = ORIENTED_EDGE('',*,*,#68,.T.);
#154 = ORIENTED_EDGE('',*,*,#104,.T.);
#155 = CYLINDRICAL_SURFACE('',#156,1.5);
#156 = AXIS2_PLACEMENT_3D('',#157,#158,#159);
#157 = CARTESIAN_POINT('',(-55.,-80.,45.));
#158 = DIRECTION('',(-0.446570995606,0.893141991211,5.358851947267E-02)
  );
#159 = DIRECTION('',(0.789282296105,0.421435407789,-0.446570995606));
#160 = ADVANCED_FACE('',(#161),#170,.T.);
#161 = FACE_BOUND('',#162,.T.);
#162 = EDGE_LOOP('',(#163,#169));
#163 = ORIENTED_EDGE('',*,*,#164,.T.);
#164 = EDGE_CURVE('',#78,#69,#165,.T.);
#165 = LINE('',#166,#167);
#166 = CARTESIAN_POINT('',(-55.,-80.,45.));
#167 = VECTOR('',#168,1.);
#168 = DIRECTION('',(-0.102806155901,-0.110714321739,0.988520729813));
#169 = ORIENTED_EDGE('',*,*,#77,.T.);
#170 = PLANE('',#171);
#171 = AXIS2_PLACEMENT_3D('',#172,#173,#174);
#172 = CARTESIAN_POINT('',(-55.,-80.,45.));
#173 = DIRECTION('',(-0.123091490979,-0.984731927835,-0.123091490979));
#174 = DIRECTION('',(0.98272166937,-0.138226645044,0.123091490979));
#175 = ADVANCED_FACE('',(#176),#180,.F.);
#176 = FACE_BOUND('',#177,.F.);
#177 = EDGE_LOOP('',(#178,#179));
#178 = ORIENTED_EDGE('',*,*,#164,.T.);
#179 = ORIENTED_EDGE('',*,*,#147,.T.);
#180 = PLANE('',#181);
#181 = AXIS2_PLACEMENT_3D('',#182,#183,#184);
#182 = CARTESIAN_POINT('',(-55.,-80.,45.));
#183 = DIRECTION('',(0.446570995606,-0.893141991211,-5.358851947267E-02)
  );
#184 = DIRECTION('',(0.789282296105,0.421435407789,-0.446570995606));
#185 = ADVANCED_FACE('',(#186),#189,.T.);
#186 = FACE_BOUND('',#187,.F.);
#187 = EDGE_LOOP('',(#188));
#188 = ORIENTED_EDGE('',*,*,#138,.F.);
#189 = PLANE('',#190);
#190 = AXIS2_PLACEMENT_3D('',#191,#192,#193);
#191 = CARTESIAN_POINT('',(-30.,-130.,42.));
#192 = DIRECTION('',(0.446570995606,-0.893141991211,-5.358851947267E-02)
  );
#193 = DIRECTION('',(0.789282296105,0.421435407789,-0.446570995606));
#194 = ( GEOMETRIC_REPRESENTATION_CONTEXT(3) 
GLOBAL_UNCERTAINTY_ASSIGNED_CONTEXT((#198)) GLOBAL_UNIT_ASSIGNED_CONTEXT
((#195,#196,#197)) REPRESENTATION_CONTEXT('Context #1',
  '3D Context with UNIT and UNCERTAINTY') );
#195 = ( LENGTH_UNIT() NAMED_UNIT(*) SI_UNIT(.MILLI.,.METRE.) );
#196 = ( NAMED_UNIT(*) PLANE_ANGLE_UNIT() SI_UNIT($,.RADIAN.) );
#197 = ( NAMED_UNIT(*) SI_UNIT($,.STERADIAN.) SOLID_ANGLE_UNIT() );
#198 = UNCERTAINTY_MEASURE_WITH_UNIT(LENGTH_MEASURE(2.E-05),#195,
  'distance_accuracy_value','confusion accuracy');
#199 = CONTEXT_DEPENDENT_SHAPE_REPRESENTATION(#200,#202);
#200 = ( REPRESENTATION_RELATIONSHIP('','',#44,#10) 
REPRESENTATION_RELATIONSHIP_WITH_TRANSFORMATION(#201) 
SHAPE_REPRESENTATION_RELATIONSHIP() );
#201 = ITEM_DEFINED_TRANSFORMATION('','',#11,#15);
#202 = PRODUCT_DEFINITION_SHAPE('Placement','Placement of an item',#203
  );
#203 = NEXT_ASSEMBLY_USAGE_OCCURRENCE('18','WIRE_HUB_RS485_0','',#5,#39,
  $);
#204 = PRODUCT_RELATED_PRODUCT_CATEGORY('part',$,(#41));
#205 = SHAPE_DEFINITION_REPRESENTATION(#206,#212);
#206 = PRODUCT_DEFINITION_SHAPE('','',#207);
#207 = PRODUCT_DEFINITION('design','',#208,#211);
#208 = PRODUCT_DEFINITION_FORMATION('','',#209);
#209 = PRODUCT('WIRE_HUB_RS485_1','WIRE_HUB_RS485_1','',(#210));
#210 = PRODUCT_CONTEXT('',#2,'mechanical');
#211 = PRODUCT_DEFINITION_CONTEXT('part definition',#2,'design');
#212 = ADVANCED_BREP_SHAPE_REPRESENTATION('',(#11,#213),#266);
#213 = MANIFOLD_SOLID_BREP('',#214);
#214 = CLOSED_SHELL('',(#215,#248,#257));
#215 = ADVANCED_FACE('',(#216),#243,.T.);
#216 = FACE_BOUND('',#217,.F.);
#217 = EDGE_LOOP('',(#218,#228,#235,#236));
#218 = ORIENTED_EDGE('',*,*,#219,.T.);
#219 = EDGE_CURVE('',#220,#222,#224,.T.);
#220 = VERTEX_POINT('',#221);
#221 = CARTESIAN_POINT('',(1.5,7.105427357601E-15,0.));
#222 = VERTEX_POINT('',#223);
#223 = CARTESIAN_POINT('',(1.5,-7.105427357601E-15,39.051248379533));
#224 = LINE('',#225,#226);
#225 = CARTESIAN_POINT('',(1.5,-3.7E-16,0.));
#226 = VECTOR('',#227,1.);
#227 = DIRECTION('',(0.,0.,1.));
#228 = ORIENTED_EDGE('',*,*,#229,.T.);
#229 = EDGE_CURVE('',#222,#222,#230,.T.);
#230 = CIRCLE('',#231,1.5);
#231 = AXIS2_PLACEMENT_3D('',#232,#233,#234);
#232 = CARTESIAN_POINT('',(0.,0.,39.051248379533));
#233 = DIRECTION('',(0.,0.,1.));
#234 = DIRECTION('',(1.,0.,0.));
#235 = ORIENTED_EDGE('',*,*,#219,.F.);
#236 = ORIENTED_EDGE('',*,*,#237,.F.);
#237 = EDGE_CURVE('',#220,#220,#238,.T.);
#238 = CIRCLE('',#239,1.5);
#239 = AXIS2_PLACEMENT_3D('',#240,#241,#242);
#240 = CARTESIAN_POINT('',(0.,0.,0.));
#241 = DIRECTION('',(0.,0.,1.));
#242 = DIRECTION('',(1.,0.,-0.));
#243 = CYLINDRICAL_SURFACE('',#244,1.5);
#244 = AXIS2_PLACEMENT_3D('',#245,#246,#247);
#245 = CARTESIAN_POINT('',(0.,0.,0.));
#246 = DIRECTION('',(-0.,-0.,-1.));
#247 = DIRECTION('',(1.,0.,-0.));
#248 = ADVANCED_FACE('',(#249),#252,.F.);
#249 = FACE_BOUND('',#250,.T.);
#250 = EDGE_LOOP('',(#251));
#251 = ORIENTED_EDGE('',*,*,#237,.F.);
#252 = PLANE('',#253);
#253 = AXIS2_PLACEMENT_3D('',#254,#255,#256);
#254 = CARTESIAN_POINT('',(0.,0.,0.));
#255 = DIRECTION('',(0.,0.,1.));
#256 = DIRECTION('',(1.,0.,-0.));
#257 = ADVANCED_FACE('',(#258),#261,.T.);
#258 = FACE_BOUND('',#259,.F.);
#259 = EDGE_LOOP('',(#260));
#260 = ORIENTED_EDGE('',*,*,#229,.F.);
#261 = PLANE('',#262);
#262 = AXIS2_PLACEMENT_3D('',#263,#264,#265);
#263 = CARTESIAN_POINT('',(0.,0.,39.051248379533));
#264 = DIRECTION('',(0.,0.,1.));
#265 = DIRECTION('',(1.,0.,0.));
#266 = ( GEOMETRIC_REPRESENTATION_CONTEXT(3) 
GLOBAL_UNCERTAINTY_ASSIGNED_CONTEXT((#270)) GLOBAL_UNIT_ASSIGNED_CONTEXT
((#267,#268,#269)) REPRESENTATION_CONTEXT('Context #1',
  '3D Context with UNIT and UNCERTAINTY') );
#267 = ( LENGTH_UNIT() NAMED_UNIT(*) SI_UNIT(.MILLI.,.METRE.) );
#268 = ( NAMED_UNIT(*) PLANE_ANGLE_UNIT() SI_UNIT($,.RADIAN.) );
#269 = ( NAMED_UNIT(*) SI_UNIT($,.STERADIAN.) SOLID_ANGLE_UNIT() );
#270 = UNCERTAINTY_MEASURE_WITH_UNIT(LENGTH_MEASURE(1.E-07),#267,
  'distance_accuracy_value','confusion accuracy');
#271 = CONTEXT_DEPENDENT_SHAPE_REPRESENTATION(#272,#274);
#272 = ( REPRESENTATION_RELATIONSHIP('','',#212,#10) 
REPRESENTATION_RELATIONSHIP_WITH_TRANSFORMATION(#273) 
SHAPE_REPRESENTATION_RELATIONSHIP() );
#273 = ITEM_DEFINED_TRANSFORMATION('','',#11,#19);
#274 = PRODUCT_DEFINITION_SHAPE('Placement','Placement of an item',#275
  );
#275 = NEXT_ASSEMBLY_USAGE_OCCURRENCE('19','WIRE_HUB_RS485_1','',#5,#207
  ,$);
#276 = PRODUCT_RELATED_PRODUCT_CATEGORY('part',$,(#209));
#277 = SHAPE_DEFINITION_REPRESENTATION(#278,#284);
#278 = PRODUCT_DEFINITION_SHAPE('','',#279);
#279 = PRODUCT_DEFINITION('design','',#280,#283);
#280 = PRODUCT_DEFINITION_FORMATION('','',#281);
#281 = PRODUCT('WIRE_HUB_RS485_2','WIRE_HUB_RS485_2','',(#282));
#282 = PRODUCT_CONTEXT('',#2,'mechanical');
#283 = PRODUCT_DEFINITION_CONTEXT('part definition',#2,'design');
#284 = ADVANCED_BREP_SHAPE_REPRESENTATION('',(#11,#285),#338);
#285 = MANIFOLD_SOLID_BREP('',#286);
#286 = CLOSED_SHELL('',(#287,#320,#329));
#287 = ADVANCED_FACE('',(#288),#315,.T.);
#288 = FACE_BOUND('',#289,.F.);
#289 = EDGE_LOOP('',(#290,#300,#307,#308));
#290 = ORIENTED_EDGE('',*,*,#291,.T.);
#291 = EDGE_CURVE('',#292,#294,#296,.T.);
#292 = VERTEX_POINT('',#293);
#293 = CARTESIAN_POINT('',(1.5,7.105427357601E-15,0.));
#294 = VERTEX_POINT('',#295);
#295 = CARTESIAN_POINT('',(1.5,0.,13.341664064126));
#296 = LINE('',#297,#298);
#297 = CARTESIAN_POINT('',(1.5,-3.7E-16,0.));
#298 = VECTOR('',#299,1.);
#299 = DIRECTION('',(0.,0.,1.));
#300 = ORIENTED_EDGE('',*,*,#301,.T.);
#301 = EDGE_CURVE('',#294,#294,#302,.T.);
#302 = CIRCLE('',#303,1.5);
#303 = AXIS2_PLACEMENT_3D('',#304,#305,#306);
#304 = CARTESIAN_POINT('',(0.,0.,13.341664064126));
#305 = DIRECTION('',(0.,0.,1.));
#306 = DIRECTION('',(1.,0.,0.));
#307 = ORIENTED_EDGE('',*,*,#291,.F.);
#308 = ORIENTED_EDGE('',*,*,#309,.F.);
#309 = EDGE_CURVE('',#292,#292,#310,.T.);
#310 = CIRCLE('',#311,1.5);
#311 = AXIS2_PLACEMENT_3D('',#312,#313,#314);
#312 = CARTESIAN_POINT('',(0.,0.,0.));
#313 = DIRECTION('',(0.,0.,1.));
#314 = DIRECTION('',(1.,0.,-0.));
#315 = CYLINDRICAL_SURFACE('',#316,1.5);
#316 = AXIS2_PLACEMENT_3D('',#317,#318,#319);
#317 = CARTESIAN_POINT('',(0.,0.,0.));
#318 = DIRECTION('',(-0.,-0.,-1.));
#319 = DIRECTION('',(1.,0.,-0.));
#320 = ADVANCED_FACE('',(#321),#324,.F.);
#321 = FACE_BOUND('',#322,.T.);
#322 = EDGE_LOOP('',(#323));
#323 = ORIENTED_EDGE('',*,*,#309,.F.);
#324 = PLANE('',#325);
#325 = AXIS2_PLACEMENT_3D('',#326,#327,#328);
#326 = CARTESIAN_POINT('',(0.,0.,0.));
#327 = DIRECTION('',(0.,0.,1.));
#328 = DIRECTION('',(1.,0.,-0.));
#329 = ADVANCED_FACE('',(#330),#333,.T.);
#330 = FACE_BOUND('',#331,.F.);
#331 = EDGE_LOOP('',(#332));
#332 = ORIENTED_EDGE('',*,*,#301,.F.);
#333 = PLANE('',#334);
#334 = AXIS2_PLACEMENT_3D('',#335,#336,#337);
#335 = CARTESIAN_POINT('',(0.,0.,13.341664064126));
#336 = DIRECTION('',(0.,0.,1.));
#337 = DIRECTION('',(1.,0.,0.));
#338 = ( GEOMETRIC_REPRESENTATION_CONTEXT(3) 
GLOBAL_UNCERTAINTY_ASSIGNED_CONTEXT((#342)) GLOBAL_UNIT_ASSIGNED_CONTEXT
((#339,#340,#341)) REPRESENTATION_CONTEXT('Context #1',
  '3D Context with UNIT and UNCERTAINTY') );
#339 = ( LENGTH_UNIT() NAMED_UNIT(*) SI_UNIT(.MILLI.,.METRE.) );
#340 = ( NAMED_UNIT(*) PLANE_ANGLE_UNIT() SI_UNIT($,.RADIAN.) );
#341 = ( NAMED_UNIT(*) SI_UNIT($,.STERADIAN.) SOLID_ANGLE_UNIT() );
#342 = UNCERTAINTY_MEASURE_WITH_UNIT(LENGTH_MEASURE(1.E-07),#339,
  'distance_accuracy_value','confusion accuracy');
#343 = CONTEXT_DEPENDENT_SHAPE_REPRESENTATION(#344,#346);
#344 = ( REPRESENTATION_RELATIONSHIP('','',#284,#10) 
REPRESENTATION_RELATIONSHIP_WITH_TRANSFORMATION(#345) 
SHAPE_REPRESENTATION_RELATIONSHIP() );
#345 = ITEM_DEFINED_TRANSFORMATION('','',#11,#23);
#346 = PRODUCT_DEFINITION_SHAPE('Placement','Placement of an item',#347
  );
#347 = NEXT_ASSEMBLY_USAGE_OCCURRENCE('20','WIRE_HUB_RS485_2','',#5,#279
  ,$);
#348 = PRODUCT_RELATED_PRODUCT_CATEGORY('part',$,(#281));
#349 = SHAPE_DEFINITION_REPRESENTATION(#350,#356);
#350 = PRODUCT_DEFINITION_SHAPE('','',#351);
#351 = PRODUCT_DEFINITION('design','',#352,#355);
#352 = PRODUCT_DEFINITION_FORMATION('','',#353);
#353 = PRODUCT('WIRE_HUB_RS485_3','WIRE_HUB_RS485_3','',(#354));
#354 = PRODUCT_CONTEXT('',#2,'mechanical');
#355 = PRODUCT_DEFINITION_CONTEXT('part definition',#2,'design');
#356 = ADVANCED_BREP_SHAPE_REPRESENTATION('',(#11,#357),#410);
#357 = MANIFOLD_SOLID_BREP('',#358);
#358 = CLOSED_SHELL('',(#359,#392,#401));
#359 = ADVANCED_FACE('',(#360),#387,.T.);
#360 = FACE_BOUND('',#361,.F.);
#361 = EDGE_LOOP('',(#362,#372,#379,#380));
#362 = ORIENTED_EDGE('',*,*,#363,.T.);
#363 = EDGE_CURVE('',#364,#366,#368,.T.);
#364 = VERTEX_POINT('',#365);
#365 = CARTESIAN_POINT('',(1.5,0.,0.));
#366 = VERTEX_POINT('',#367);
#367 = CARTESIAN_POINT('',(1.5,0.,18.));
#368 = LINE('',#369,#370);
#369 = CARTESIAN_POINT('',(1.5,-3.7E-16,0.));
#370 = VECTOR('',#371,1.);
#371 = DIRECTION('',(0.,0.,1.));
#372 = ORIENTED_EDGE('',*,*,#373,.T.);
#373 = EDGE_CURVE('',#366,#366,#374,.T.);
#374 = CIRCLE('',#375,1.5);
#375 = AXIS2_PLACEMENT_3D('',#376,#377,#378);
#376 = CARTESIAN_POINT('',(0.,0.,18.));
#377 = DIRECTION('',(0.,0.,1.));
#378 = DIRECTION('',(1.,0.,0.));
#379 = ORIENTED_EDGE('',*,*,#363,.F.);
#380 = ORIENTED_EDGE('',*,*,#381,.F.);
#381 = EDGE_CURVE('',#364,#364,#382,.T.);
#382 = CIRCLE('',#383,1.5);
#383 = AXIS2_PLACEMENT_3D('',#384,#385,#386);
#384 = CARTESIAN_POINT('',(0.,0.,0.));
#385 = DIRECTION('',(0.,0.,1.));
#386 = DIRECTION('',(1.,0.,-0.));
#387 = CYLINDRICAL_SURFACE('',#388,1.5);
#388 = AXIS2_PLACEMENT_3D('',#389,#390,#391);
#389 = CARTESIAN_POINT('',(0.,0.,0.));
#390 = DIRECTION('',(-0.,-0.,-1.));
#391 = DIRECTION('',(1.,0.,-0.));
#392 = ADVANCED_FACE('',(#393),#396,.F.);
#393 = FACE_BOUND('',#394,.T.);
#394 = EDGE_LOOP('',(#395));
#395 = ORIENTED_EDGE('',*,*,#381,.F.);
#396 = PLANE('',#397);
#397 = AXIS2_PLACEMENT_3D('',#398,#399,#400);
#398 = CARTESIAN_POINT('',(0.,0.,0.));
#399 = DIRECTION('',(0.,0.,1.));
#400 = DIRECTION('',(1.,0.,-0.));
#401 = ADVANCED_FACE('',(#402),#405,.T.);
#402 = FACE_BOUND('',#403,.F.);
#403 = EDGE_LOOP('',(#404));
#404 = ORIENTED_EDGE('',*,*,#373,.F.);
#405 = PLANE('',#406);
#406 = AXIS2_PLACEMENT_3D('',#407,#408,#409);
#407 = CARTESIAN_POINT('',(0.,0.,18.));
#408 = DIRECTION('',(0.,0.,1.));
#409 = DIRECTION('',(1.,0.,0.));
#410 = ( GEOMETRIC_REPRESENTATION_CONTEXT(3) 
GLOBAL_UNCERTAINTY_ASSIGNED_CONTEXT((#414)) GLOBAL_UNIT_ASSIGNED_CONTEXT
((#411,#412,#413)) REPRESENTATION_CONTEXT('Context #1',
  '3D Context with UNIT and UNCERTAINTY') );
#411 = ( LENGTH_UNIT() NAMED_UNIT(*) SI_UNIT(.MILLI.,.METRE.) );
#412 = ( NAMED_UNIT(*) PLANE_ANGLE_UNIT() SI_UNIT($,.RADIAN.) );
#413 = ( NAMED_UNIT(*) SI_UNIT($,.STERADIAN.) SOLID_ANGLE_UNIT() );
#414 = UNCERTAINTY_MEASURE_WITH_UNIT(LENGTH_MEASURE(1.E-07),#411,
  'distance_accuracy_value','confusion accuracy');
#415 = CONTEXT_DEPENDENT_SHAPE_REPRESENTATION(#416,#418);
#416 = ( REPRESENTATION_RELATIONSHIP('','',#356,#10) 
REPRESENTATION_RELATIONSHIP_WITH_TRANSFORMATION(#417) 
SHAPE_REPRESENTATION_RELATIONSHIP() );
#417 = ITEM_DEFINED_TRANSFORMATION('','',#11,#27);
#418 = PRODUCT_DEFINITION_SHAPE('Placement','Placement of an item',#419
  );
#419 = NEXT_ASSEMBLY_USAGE_OCCURRENCE('21','WIRE_HUB_RS485_3','',#5,#351
  ,$);
#420 = PRODUCT_RELATED_PRODUCT_CATEGORY('part',$,(#353));
ENDSEC;
END-ISO-10303-21;
