ISO-10303-21;
HEADER;
FILE_DESCRIPTION(('FreeCAD Model'),'2;1');
FILE_NAME('Open CASCADE Shape Model','2026-09-26T16:59:08',('Author'),(
    ''),'Open CASCADE STEP processor 7.8','FreeCAD','Unknown');
FILE_SCHEMA(('AUTOMOTIVE_DESIGN { 1 0 10303 214 1 1 1 1 }'));
ENDSEC;
DATA;
#1 = APPLICATION_PROTOCOL_DEFINITION('international standard',
  'automotive_design',2000,#2);
#2 = APPLICATION_CONTEXT(
  'core data for automotive mechanical design processes');
#3 = SHAPE_DEFINITION_REPRESENTATION(#4,#10);
#4 = PRODUCT_DEFINITION_SHAPE('','',#5);
#5 = PRODUCT_DEFINITION('design','',#6,#9);
#6 = PRODUCT_DEFINITION_FORMATION('','',#7);
#7 = PRODUCT('WIRE_MTR_FL','WIRE_MTR_FL','',(#8));
#8 = PRODUCT_CONTEXT('',#2,'mechanical');
#9 = PRODUCT_DEFINITION_CONTEXT('part definition',#2,'design');
#10 = SHAPE_REPRESENTATION('',(#11,#15,#164,#217),#270);
#11 = AXIS2_PLACEMENT_3D('',#12,#13,#14);
#12 = CARTESIAN_POINT('',(0.,0.,0.));
#13 = DIRECTION('',(0.,0.,1.));
#14 = DIRECTION('',(1.,0.,-0.));
#15 = MANIFOLD_SOLID_BREP('',#16);
#16 = CLOSED_SHELL('',(#17,#86,#95,#130,#145,#155));
#17 = ADVANCED_FACE('',(#18),#81,.T.);
#18 = FACE_BOUND('',#19,.F.);
#19 = EDGE_LOOP('',(#20,#29,#37,#46,#55,#64,#73,#80));
#20 = ORIENTED_EDGE('',*,*,#21,.F.);
#21 = EDGE_CURVE('',#22,#22,#24,.T.);
#22 = VERTEX_POINT('',#23);
#23 = CARTESIAN_POINT('',(110.27974266305,113.95957950471,
    48.805453016355));
#24 = CIRCLE('',#25,1.5);
#25 = AXIS2_PLACEMENT_3D('',#26,#27,#28);
#26 = CARTESIAN_POINT('',(111.,115.,48.));
#27 = DIRECTION('',(-0.53696867757,-0.251625434663,-0.80520139092));
#28 = DIRECTION('',(-0.480171557965,-0.693613663526,0.53696867757));
#29 = ORIENTED_EDGE('',*,*,#30,.T.);
#30 = EDGE_CURVE('',#22,#31,#33,.T.);
#31 = VERTEX_POINT('',#32);
#32 = CARTESIAN_POINT('',(100.30606447942,109.28587838773,
    33.849609442025));
#33 = LINE('',#34,#35);
#34 = CARTESIAN_POINT('',(110.27974266305,113.95957950471,
    48.805453016355));
#35 = VECTOR('',#36,1.);
#36 = DIRECTION('',(-0.53696867757,-0.251625434663,-0.80520139092));
#37 = ORIENTED_EDGE('',*,*,#38,.F.);
#38 = EDGE_CURVE('',#39,#31,#41,.T.);
#39 = VERTEX_POINT('',#40);
#40 = CARTESIAN_POINT('',(100.2772119994,109.31505318071,33.860377523635
    ));
#41 = ELLIPSE('',#42,1.983164957511,1.5);
#42 = AXIS2_PLACEMENT_3D('',#43,#44,#45);
#43 = CARTESIAN_POINT('',(100.33,110.,32.));
#44 = DIRECTION('',(0.732952413291,0.631380806889,0.253256858825));
#45 = DIRECTION('',(-2.661805836995E-02,-0.345380658673,0.938085113187)
  );
#46 = ORIENTED_EDGE('',*,*,#47,.F.);
#47 = EDGE_CURVE('',#48,#39,#50,.T.);
#48 = VERTEX_POINT('',#49);
#49 = CARTESIAN_POINT('',(99.310361565386,111.04146943015,
    32.354512184161));
#50 = ELLIPSE('',#51,1.983164957511,1.5);
#51 = AXIS2_PLACEMENT_3D('',#52,#53,#54);
#52 = CARTESIAN_POINT('',(100.33,110.,32.));
#53 = DIRECTION('',(0.732952413291,0.631380806889,0.253256858825));
#54 = DIRECTION('',(-2.661805836995E-02,-0.345380658673,0.938085113187)
  );
#55 = ORIENTED_EDGE('',*,*,#56,.T.);
#56 = EDGE_CURVE('',#48,#57,#59,.T.);
#57 = VERTEX_POINT('',#58);
#58 = CARTESIAN_POINT('',(101.34963843461,108.95853056984,
    31.645487815839));
#59 = CIRCLE('',#60,1.5);
#60 = AXIS2_PLACEMENT_3D('',#61,#62,#63);
#61 = CARTESIAN_POINT('',(100.33,110.,32.));
#62 = DIRECTION('',(-0.53696867757,-0.251625434663,-0.80520139092));
#63 = DIRECTION('',(-0.480171557965,-0.693613663526,0.53696867757));
#64 = ORIENTED_EDGE('',*,*,#65,.F.);
#65 = EDGE_CURVE('',#66,#57,#68,.T.);
#66 = VERTEX_POINT('',#67);
#67 = CARTESIAN_POINT('',(100.8833911697,108.83537299422,33.301894633116
    ));
#68 = ELLIPSE('',#69,1.983164957511,1.5);
#69 = AXIS2_PLACEMENT_3D('',#70,#71,#72);
#70 = CARTESIAN_POINT('',(100.33,110.,32.));
#71 = DIRECTION('',(0.732952413291,0.631380806889,0.253256858825));
#72 = DIRECTION('',(-2.661805836995E-02,-0.345380658673,0.938085113187)
  );
#73 = ORIENTED_EDGE('',*,*,#74,.F.);
#74 = EDGE_CURVE('',#31,#66,#75,.T.);
#75 = ELLIPSE('',#76,1.983164957511,1.5);
#76 = AXIS2_PLACEMENT_3D('',#77,#78,#79);
#77 = CARTESIAN_POINT('',(100.33,110.,32.));
#78 = DIRECTION('',(0.732952413291,0.631380806889,0.253256858825));
#79 = DIRECTION('',(-2.661805836995E-02,-0.345380658673,0.938085113187)
  );
#80 = ORIENTED_EDGE('',*,*,#30,.F.);
#81 = CYLINDRICAL_SURFACE('',#82,1.5);
#82 = AXIS2_PLACEMENT_3D('',#83,#84,#85);
#83 = CARTESIAN_POINT('',(111.,115.,48.));
#84 = DIRECTION('',(0.53696867757,0.251625434663,0.80520139092));
#85 = DIRECTION('',(-0.480171557965,-0.693613663526,0.53696867757));
#86 = ADVANCED_FACE('',(#87),#90,.F.);
#87 = FACE_BOUND('',#88,.T.);
#88 = EDGE_LOOP('',(#89));
#89 = ORIENTED_EDGE('',*,*,#21,.F.);
#90 = PLANE('',#91);
#91 = AXIS2_PLACEMENT_3D('',#92,#93,#94);
#92 = CARTESIAN_POINT('',(111.,115.,48.));
#93 = DIRECTION('',(-0.53696867757,-0.251625434663,-0.80520139092));
#94 = DIRECTION('',(-0.480171557965,-0.693613663526,0.53696867757));
#95 = ADVANCED_FACE('',(#96),#125,.T.);
#96 = FACE_BOUND('',#97,.F.);
#97 = EDGE_LOOP('',(#98,#99,#107,#114,#115,#116,#123,#124));
#98 = ORIENTED_EDGE('',*,*,#74,.T.);
#99 = ORIENTED_EDGE('',*,*,#100,.T.);
#100 = EDGE_CURVE('',#66,#101,#103,.T.);
#101 = VERTEX_POINT('',#102);
#102 = CARTESIAN_POINT('',(60.845141123619,59.575714965082,
    62.857689450599));
#103 = LINE('',#104,#105);
#104 = CARTESIAN_POINT('',(101.48514112361,109.57571496508,
    32.857689450599));
#105 = VECTOR('',#106,1.);
#106 = DIRECTION('',(-0.571792967066,-0.703485441765,0.422091265059));
#107 = ORIENTED_EDGE('',*,*,#108,.T.);
#108 = EDGE_CURVE('',#101,#101,#109,.T.);
#109 = CIRCLE('',#110,1.5);
#110 = AXIS2_PLACEMENT_3D('',#111,#112,#113);
#111 = CARTESIAN_POINT('',(59.69,60.,62.));
#112 = DIRECTION('',(-0.571792967066,-0.703485441765,0.422091265059));
#113 = DIRECTION('',(0.770094082413,-0.282856689945,0.571792967066));
#114 = ORIENTED_EDGE('',*,*,#100,.F.);
#115 = ORIENTED_EDGE('',*,*,#65,.T.);
#116 = ORIENTED_EDGE('',*,*,#117,.F.);
#117 = EDGE_CURVE('',#48,#57,#118,.T.);
#118 = CIRCLE('',#119,1.5);
#119 = AXIS2_PLACEMENT_3D('',#120,#121,#122);
#120 = CARTESIAN_POINT('',(100.33,110.,32.));
#121 = DIRECTION('',(-0.571792967066,-0.703485441765,0.422091265059));
#122 = DIRECTION('',(0.770094082413,-0.282856689945,0.571792967066));
#123 = ORIENTED_EDGE('',*,*,#47,.T.);
#124 = ORIENTED_EDGE('',*,*,#38,.T.);
#125 = CYLINDRICAL_SURFACE('',#126,1.5);
#126 = AXIS2_PLACEMENT_3D('',#127,#128,#129);
#127 = CARTESIAN_POINT('',(100.33,110.,32.));
#128 = DIRECTION('',(0.571792967066,0.703485441765,-0.422091265059));
#129 = DIRECTION('',(0.770094082413,-0.282856689945,0.571792967066));
#130 = ADVANCED_FACE('',(#131),#140,.T.);
#131 = FACE_BOUND('',#132,.T.);
#132 = EDGE_LOOP('',(#133,#139));
#133 = ORIENTED_EDGE('',*,*,#134,.T.);
#134 = EDGE_CURVE('',#57,#48,#135,.T.);
#135 = LINE('',#136,#137);
#136 = CARTESIAN_POINT('',(100.33,110.,32.));
#137 = VECTOR('',#138,1.);
#138 = DIRECTION('',(-0.679758956409,0.694312953434,0.236341456107));
#139 = ORIENTED_EDGE('',*,*,#56,.T.);
#140 = PLANE('',#141);
#141 = AXIS2_PLACEMENT_3D('',#142,#143,#144);
#142 = CARTESIAN_POINT('',(100.33,110.,32.));
#143 = DIRECTION('',(-0.53696867757,-0.251625434663,-0.80520139092));
#144 = DIRECTION('',(-0.480171557965,-0.693613663526,0.53696867757));
#145 = ADVANCED_FACE('',(#146),#150,.F.);
#146 = FACE_BOUND('',#147,.F.);
#147 = EDGE_LOOP('',(#148,#149));
#148 = ORIENTED_EDGE('',*,*,#134,.T.);
#149 = ORIENTED_EDGE('',*,*,#117,.T.);
#150 = PLANE('',#151);
#151 = AXIS2_PLACEMENT_3D('',#152,#153,#154);
#152 = CARTESIAN_POINT('',(100.33,110.,32.));
#153 = DIRECTION('',(-0.571792967066,-0.703485441765,0.422091265059));
#154 = DIRECTION('',(0.770094082413,-0.282856689945,0.571792967066));
#155 = ADVANCED_FACE('',(#156),#159,.T.);
#156 = FACE_BOUND('',#157,.F.);
#157 = EDGE_LOOP('',(#158));
#158 = ORIENTED_EDGE('',*,*,#108,.F.);
#159 = PLANE('',#160);
#160 = AXIS2_PLACEMENT_3D('',#161,#162,#163);
#161 = CARTESIAN_POINT('',(59.69,60.,62.));
#162 = DIRECTION('',(-0.571792967066,-0.703485441765,0.422091265059));
#163 = DIRECTION('',(0.770094082413,-0.282856689945,0.571792967066));
#164 = MANIFOLD_SOLID_BREP('',#165);
#165 = CLOSED_SHELL('',(#166,#199,#208));
#166 = ADVANCED_FACE('',(#167),#194,.T.);
#167 = FACE_BOUND('',#168,.F.);
#168 = EDGE_LOOP('',(#169,#179,#186,#187));
#169 = ORIENTED_EDGE('',*,*,#170,.T.);
#170 = EDGE_CURVE('',#171,#173,#175,.T.);
#171 = VERTEX_POINT('',#172);
#172 = CARTESIAN_POINT('',(59.867442677054,60.094888601158,
    63.486442144764));
#173 = VERTEX_POINT('',#174);
#174 = CARTESIAN_POINT('',(-9.822557322946,65.094888601158,
    71.486442144764));
#175 = LINE('',#176,#177);
#176 = CARTESIAN_POINT('',(59.867442677054,60.094888601158,
    63.486442144764));
#177 = VECTOR('',#178,1.);
#178 = DIRECTION('',(-0.990961429843,7.109782105342E-02,0.113756513685)
  );
#179 = ORIENTED_EDGE('',*,*,#180,.T.);
#180 = EDGE_CURVE('',#173,#173,#181,.T.);
#181 = CIRCLE('',#182,1.5);
#182 = AXIS2_PLACEMENT_3D('',#183,#184,#185);
#183 = CARTESIAN_POINT('',(-10.,65.,70.));
#184 = DIRECTION('',(-0.990961429843,7.109782105342E-02,0.113756513685)
  );
#185 = DIRECTION('',(0.118295118036,6.325906743894E-02,0.990961429843));
#186 = ORIENTED_EDGE('',*,*,#170,.F.);
#187 = ORIENTED_EDGE('',*,*,#188,.F.);
#188 = EDGE_CURVE('',#171,#171,#189,.T.);
#189 = CIRCLE('',#190,1.5);
#190 = AXIS2_PLACEMENT_3D('',#191,#192,#193);
#191 = CARTESIAN_POINT('',(59.69,60.,62.));
#192 = DIRECTION('',(-0.990961429843,7.109782105342E-02,0.113756513685)
  );
#193 = DIRECTION('',(0.118295118036,6.325906743894E-02,0.990961429843));
#194 = CYLINDRICAL_SURFACE('',#195,1.5);
#195 = AXIS2_PLACEMENT_3D('',#196,#197,#198);
#196 = CARTESIAN_POINT('',(59.69,60.,62.));
#197 = DIRECTION('',(0.990961429843,-7.109782105342E-02,-0.113756513685)
  );
#198 = DIRECTION('',(0.118295118036,6.325906743894E-02,0.990961429843));
#199 = ADVANCED_FACE('',(#200),#203,.F.);
#200 = FACE_BOUND('',#201,.T.);
#201 = EDGE_LOOP('',(#202));
#202 = ORIENTED_EDGE('',*,*,#188,.F.);
#203 = PLANE('',#204);
#204 = AXIS2_PLACEMENT_3D('',#205,#206,#207);
#205 = CARTESIAN_POINT('',(59.69,60.,62.));
#206 = DIRECTION('',(-0.990961429843,7.109782105342E-02,0.113756513685)
  );
#207 = DIRECTION('',(0.118295118036,6.325906743894E-02,0.990961429843));
#208 = ADVANCED_FACE('',(#209),#212,.T.);
#209 = FACE_BOUND('',#210,.F.);
#210 = EDGE_LOOP('',(#211));
#211 = ORIENTED_EDGE('',*,*,#180,.F.);
#212 = PLANE('',#213);
#213 = AXIS2_PLACEMENT_3D('',#214,#215,#216);
#214 = CARTESIAN_POINT('',(-10.,65.,70.));
#215 = DIRECTION('',(-0.990961429843,7.109782105342E-02,0.113756513685)
  );
#216 = DIRECTION('',(0.118295118036,6.325906743894E-02,0.990961429843));
#217 = MANIFOLD_SOLID_BREP('',#218);
#218 = CLOSED_SHELL('',(#219,#252,#261));
#219 = ADVANCED_FACE('',(#220),#247,.T.);
#220 = FACE_BOUND('',#221,.F.);
#221 = EDGE_LOOP('',(#222,#232,#239,#240));
#222 = ORIENTED_EDGE('',*,*,#223,.T.);
#223 = EDGE_CURVE('',#224,#226,#228,.T.);
#224 = VERTEX_POINT('',#225);
#225 = CARTESIAN_POINT('',(-8.5,65.,70.));
#226 = VERTEX_POINT('',#227);
#227 = CARTESIAN_POINT('',(-8.5,73.,45.));
#228 = LINE('',#229,#230);
#229 = CARTESIAN_POINT('',(-8.5,65.,70.));
#230 = VECTOR('',#231,1.);
#231 = DIRECTION('',(0.,0.304775727104,-0.952424147199));
#232 = ORIENTED_EDGE('',*,*,#233,.T.);
#233 = EDGE_CURVE('',#226,#226,#234,.T.);
#234 = CIRCLE('',#235,1.5);
#235 = AXIS2_PLACEMENT_3D('',#236,#237,#238);
#236 = CARTESIAN_POINT('',(-10.,73.,45.));
#237 = DIRECTION('',(0.,0.304775727104,-0.952424147199));
#238 = DIRECTION('',(1.,0.,0.));
#239 = ORIENTED_EDGE('',*,*,#223,.F.);
#240 = ORIENTED_EDGE('',*,*,#241,.F.);
#241 = EDGE_CURVE('',#224,#224,#242,.T.);
#242 = CIRCLE('',#243,1.5);
#243 = AXIS2_PLACEMENT_3D('',#244,#245,#246);
#244 = CARTESIAN_POINT('',(-10.,65.,70.));
#245 = DIRECTION('',(0.,0.304775727104,-0.952424147199));
#246 = DIRECTION('',(1.,0.,0.));
#247 = CYLINDRICAL_SURFACE('',#248,1.5);
#248 = AXIS2_PLACEMENT_3D('',#249,#250,#251);
#249 = CARTESIAN_POINT('',(-10.,65.,70.));
#250 = DIRECTION('',(-0.,-0.304775727104,0.952424147199));
#251 = DIRECTION('',(1.,0.,0.));
#252 = ADVANCED_FACE('',(#253),#256,.F.);
#253 = FACE_BOUND('',#254,.T.);
#254 = EDGE_LOOP('',(#255));
#255 = ORIENTED_EDGE('',*,*,#241,.F.);
#256 = PLANE('',#257);
#257 = AXIS2_PLACEMENT_3D('',#258,#259,#260);
#258 = CARTESIAN_POINT('',(-10.,65.,70.));
#259 = DIRECTION('',(0.,0.304775727104,-0.952424147199));
#260 = DIRECTION('',(1.,0.,0.));
#261 = ADVANCED_FACE('',(#262),#265,.T.);
#262 = FACE_BOUND('',#263,.F.);
#263 = EDGE_LOOP('',(#264));
#264 = ORIENTED_EDGE('',*,*,#233,.F.);
#265 = PLANE('',#266);
#266 = AXIS2_PLACEMENT_3D('',#267,#268,#269);
#267 = CARTESIAN_POINT('',(-10.,73.,45.));
#268 = DIRECTION('',(0.,0.304775727104,-0.952424147199));
#269 = DIRECTION('',(1.,0.,0.));
#270 = ( GEOMETRIC_REPRESENTATION_CONTEXT(3) 
GLOBAL_UNCERTAINTY_ASSIGNED_CONTEXT((#274)) GLOBAL_UNIT_ASSIGNED_CONTEXT
((#271,#272,#273)) REPRESENTATION_CONTEXT('Context #1',
  '3D Context with UNIT and UNCERTAINTY') );
#271 = ( LENGTH_UNIT() NAMED_UNIT(*) SI_UNIT(.MILLI.,.METRE.) );
#272 = ( NAMED_UNIT(*) PLANE_ANGLE_UNIT() SI_UNIT($,.RADIAN.) );
#273 = ( NAMED_UNIT(*) SI_UNIT($,.STERADIAN.) SOLID_ANGLE_UNIT() );
#274 = UNCERTAINTY_MEASURE_WITH_UNIT(LENGTH_MEASURE(1.E-05),#271,
  'distance_accuracy_value','confusion accuracy');
#275 = PRODUCT_RELATED_PRODUCT_CATEGORY('part',$,(#7));
ENDSEC;
END-ISO-10303-21;
