ISO-10303-21;
HEADER;
FILE_DESCRIPTION(('FreeCAD Model'),'2;1');
FILE_NAME('Open CASCADE Shape Model','2026-09-29T03:47:07',('Author'),(
    ''),'Open CASCADE STEP processor 7.8','FreeCAD','Unknown');
FILE_SCHEMA(('AUTOMOTIVE_DESIGN { 1 0 10303 214 1 1 1 1 }'));
ENDSEC;
DATA;
#1 = APPLICATION_PROTOCOL_DEFINITION('international standard',
  'automotive_design',2000,#2);
#2 = APPLICATION_CONTEXT(
  'core data for automotive mechanical design processes');
#3 = SHAPE_DEFINITION_REPRESENTATION(#4,#10);
#4 = PRODUCT_DEFINITION_SHAPE('','',#5);
#5 = PRODUCT_DEFINITION('design','',#6,#9);
#6 = PRODUCT_DEFINITION_FORMATION('','',#7);
#7 = PRODUCT('master_robot','master_robot','',(#8));
#8 = PRODUCT_CONTEXT('',#2,'mechanical');
#9 = PRODUCT_DEFINITION_CONTEXT('part definition',#2,'design');
#10 = SHAPE_REPRESENTATION('',(#11,#15,#19,#23,#27,#31),#35);
#11 = AXIS2_PLACEMENT_3D('',#12,#13,#14);
#12 = CARTESIAN_POINT('',(0.,0.,0.));
#13 = DIRECTION('',(0.,0.,1.));
#14 = DIRECTION('',(1.,0.,-0.));
#15 = AXIS2_PLACEMENT_3D('',#16,#17,#18);
#16 = CARTESIAN_POINT('',(0.,0.,0.));
#17 = DIRECTION('',(0.,0.,1.));
#18 = DIRECTION('',(1.,0.,0.));
#19 = AXIS2_PLACEMENT_3D('',#20,#21,#22);
#20 = CARTESIAN_POINT('',(-170.,170.,300.));
#21 = DIRECTION('',(-0.315597201549,-6.311944030978E-02,0.946791604647)
  );
#22 = DIRECTION('',(0.948838081391,-1.023238372179E-02,0.315597201549));
#23 = AXIS2_PLACEMENT_3D('',#24,#25,#26);
#24 = CARTESIAN_POINT('',(-180.,168.,330.));
#25 = DIRECTION('',(7.954062720036E-02,-7.158656448033E-02,
    -0.994257840005));
#26 = DIRECTION('',(-0.101799911605,0.991619920444,-7.954062720036E-02)
  );
#27 = AXIS2_PLACEMENT_3D('',#28,#29,#30);
#28 = CARTESIAN_POINT('',(-160.,150.,80.));
#29 = DIRECTION('',(0.624695047554,-0.624695047554,-0.468521285666));
#30 = DIRECTION('',(0.265739357167,0.734260642833,-0.624695047554));
#31 = AXIS2_PLACEMENT_3D('',#32,#33,#34);
#32 = CARTESIAN_POINT('',(-120.,110.,50.));
#33 = DIRECTION('',(0.635000635001,-0.762000762001,-0.127000127));
#34 = DIRECTION('',(0.538114702049,0.554262357541,-0.635000635001));
#35 = ( GEOMETRIC_REPRESENTATION_CONTEXT(3) 
GLOBAL_UNCERTAINTY_ASSIGNED_CONTEXT((#39)) GLOBAL_UNIT_ASSIGNED_CONTEXT(
(#36,#37,#38)) REPRESENTATION_CONTEXT('Context #1',
  '3D Context with UNIT and UNCERTAINTY') );
#36 = ( LENGTH_UNIT() NAMED_UNIT(*) SI_UNIT(.MILLI.,.METRE.) );
#37 = ( NAMED_UNIT(*) PLANE_ANGLE_UNIT() SI_UNIT($,.RADIAN.) );
#38 = ( NAMED_UNIT(*) SI_UNIT($,.STERADIAN.) SOLID_ANGLE_UNIT() );
#39 = UNCERTAINTY_MEASURE_WITH_UNIT(LENGTH_MEASURE(2.E-05),#36,
  'distance_accuracy_value','confusion accuracy');
#40 = PRODUCT_RELATED_PRODUCT_CATEGORY('part',$,(#7));
#41 = SHAPE_DEFINITION_REPRESENTATION(#42,#48);
#42 = PRODUCT_DEFINITION_SHAPE('','',#43);
#43 = PRODUCT_DEFINITION('design','',#44,#47);
#44 = PRODUCT_DEFINITION_FORMATION('','',#45);
#45 = PRODUCT('WIRE_TILT_SV_0','WIRE_TILT_SV_0','',(#46));
#46 = PRODUCT_CONTEXT('',#2,'mechanical');
#47 = PRODUCT_DEFINITION_CONTEXT('part definition',#2,'design');
#48 = ADVANCED_BREP_SHAPE_REPRESENTATION('',(#11,#49),#198);
#49 = MANIFOLD_SOLID_BREP('',#50);
#50 = CLOSED_SHELL('',(#51,#111,#120,#136,#178,#189));
#51 = ADVANCED_FACE('',(#52),#106,.T.);
#52 = FACE_BOUND('',#53,.F.);
#53 = EDGE_LOOP('',(#54,#63,#71,#80,#89,#98,#105));
#54 = ORIENTED_EDGE('',*,*,#55,.F.);
#55 = EDGE_CURVE('',#56,#56,#58,.T.);
#56 = VERTEX_POINT('',#57);
#57 = CARTESIAN_POINT('',(-105.0846633751,176.99615166476,
    190.40267114821));
#58 = CIRCLE('',#59,1.);
#59 = AXIS2_PLACEMENT_3D('',#60,#61,#62);
#60 = CARTESIAN_POINT('',(-106.,177.,190.));
#61 = DIRECTION('',(-0.402671148211,-1.830323400958E-02,0.915161700479)
  );
#62 = DIRECTION('',(0.915336624808,-3.848335236008E-03,0.402671148211));
#63 = ORIENTED_EDGE('',*,*,#64,.T.);
#64 = EDGE_CURVE('',#56,#65,#67,.T.);
#65 = VERTEX_POINT('',#66);
#66 = CARTESIAN_POINT('',(-127.0846633751,175.99615166476,
    240.40267114821));
#67 = LINE('',#68,#69);
#68 = CARTESIAN_POINT('',(-105.0846633751,176.99615166476,
    190.40267114821));
#69 = VECTOR('',#70,1.);
#70 = DIRECTION('',(-0.402671148211,-1.830323400958E-02,0.915161700479)
  );
#71 = ORIENTED_EDGE('',*,*,#72,.T.);
#72 = EDGE_CURVE('',#65,#73,#75,.T.);
#73 = VERTEX_POINT('',#74);
#74 = CARTESIAN_POINT('',(-128.292313638,176.95001932381,239.89038238571
    ));
#75 = CIRCLE('',#76,1.);
#76 = AXIS2_PLACEMENT_3D('',#77,#78,#79);
#77 = CARTESIAN_POINT('',(-128.,176.,240.));
#78 = DIRECTION('',(-0.402671148211,-1.830323400958E-02,0.915161700479)
  );
#79 = DIRECTION('',(0.915336624808,-3.848335236008E-03,0.402671148211));
#80 = ORIENTED_EDGE('',*,*,#81,.F.);
#81 = EDGE_CURVE('',#82,#73,#84,.T.);
#82 = VERTEX_POINT('',#83);
#83 = CARTESIAN_POINT('',(-128.8258021262,175.69023739494,
    239.51752975953));
#84 = ELLIPSE('',#85,1.00532559707,1.);
#85 = AXIS2_PLACEMENT_3D('',#86,#87,#88);
#86 = CARTESIAN_POINT('',(-128.,176.,240.));
#87 = DIRECTION('',(0.489703525703,5.024260046583E-02,-0.870440197838));
#88 = DIRECTION('',(-0.821427534172,-0.308121673171,-0.479914409688));
#89 = ORIENTED_EDGE('',*,*,#90,.F.);
#90 = EDGE_CURVE('',#91,#82,#93,.T.);
#91 = VERTEX_POINT('',#92);
#92 = CARTESIAN_POINT('',(-127.7076863619,175.04998067618,
    240.10961761428));
#93 = ELLIPSE('',#94,1.00532559707,1.);
#94 = AXIS2_PLACEMENT_3D('',#95,#96,#97);
#95 = CARTESIAN_POINT('',(-128.,176.,240.));
#96 = DIRECTION('',(0.489703525703,5.024260046583E-02,-0.870440197838));
#97 = DIRECTION('',(-0.821427534172,-0.308121673171,-0.479914409688));
#98 = ORIENTED_EDGE('',*,*,#99,.T.);
#99 = EDGE_CURVE('',#91,#65,#100,.T.);
#100 = CIRCLE('',#101,1.);
#101 = AXIS2_PLACEMENT_3D('',#102,#103,#104);
#102 = CARTESIAN_POINT('',(-128.,176.,240.));
#103 = DIRECTION('',(-0.402671148211,-1.830323400958E-02,0.915161700479)
  );
#104 = DIRECTION('',(0.915336624808,-3.848335236008E-03,0.402671148211)
  );
#105 = ORIENTED_EDGE('',*,*,#64,.F.);
#106 = CYLINDRICAL_SURFACE('',#107,1.);
#107 = AXIS2_PLACEMENT_3D('',#108,#109,#110);
#108 = CARTESIAN_POINT('',(-106.,177.,190.));
#109 = DIRECTION('',(0.402671148211,1.830323400958E-02,-0.915161700479)
  );
#110 = DIRECTION('',(0.915336624808,-3.848335236008E-03,0.402671148211)
  );
#111 = ADVANCED_FACE('',(#112),#115,.F.);
#112 = FACE_BOUND('',#113,.T.);
#113 = EDGE_LOOP('',(#114));
#114 = ORIENTED_EDGE('',*,*,#55,.F.);
#115 = PLANE('',#116);
#116 = AXIS2_PLACEMENT_3D('',#117,#118,#119);
#117 = CARTESIAN_POINT('',(-106.,177.,190.));
#118 = DIRECTION('',(-0.402671148211,-1.830323400958E-02,0.915161700479)
  );
#119 = DIRECTION('',(0.915336624808,-3.848335236008E-03,0.402671148211)
  );
#120 = ADVANCED_FACE('',(#121),#131,.T.);
#121 = FACE_BOUND('',#122,.T.);
#122 = EDGE_LOOP('',(#123,#124,#125));
#123 = ORIENTED_EDGE('',*,*,#99,.T.);
#124 = ORIENTED_EDGE('',*,*,#72,.T.);
#125 = ORIENTED_EDGE('',*,*,#126,.T.);
#126 = EDGE_CURVE('',#73,#91,#127,.T.);
#127 = LINE('',#128,#129);
#128 = CARTESIAN_POINT('',(-128.,176.,240.));
#129 = VECTOR('',#130,1.);
#130 = DIRECTION('',(0.292313638097,-0.950019323814,0.109617614286));
#131 = PLANE('',#132);
#132 = AXIS2_PLACEMENT_3D('',#133,#134,#135);
#133 = CARTESIAN_POINT('',(-128.,176.,240.));
#134 = DIRECTION('',(-0.402671148211,-1.830323400958E-02,0.915161700479)
  );
#135 = DIRECTION('',(0.915336624808,-3.848335236008E-03,0.402671148211)
  );
#136 = ADVANCED_FACE('',(#137),#173,.T.);
#137 = FACE_BOUND('',#138,.F.);
#138 = EDGE_LOOP('',(#139,#148,#156,#163,#164,#171,#172));
#139 = ORIENTED_EDGE('',*,*,#140,.F.);
#140 = EDGE_CURVE('',#141,#73,#143,.T.);
#141 = VERTEX_POINT('',#142);
#142 = CARTESIAN_POINT('',(-127.1798333506,175.97430952133,
    240.57154760664));
#143 = CIRCLE('',#144,1.);
#144 = AXIS2_PLACEMENT_3D('',#145,#146,#147);
#145 = CARTESIAN_POINT('',(-128.,176.,240.));
#146 = DIRECTION('',(-0.571547606649,-8.164965809277E-02,0.816496580928)
  );
#147 = DIRECTION('',(0.820166649309,-2.569047867012E-02,0.571547606649)
  );
#148 = ORIENTED_EDGE('',*,*,#149,.T.);
#149 = EDGE_CURVE('',#141,#150,#152,.T.);
#150 = VERTEX_POINT('',#151);
#151 = CARTESIAN_POINT('',(-169.1798333506,169.97430952133,
    300.57154760664));
#152 = LINE('',#153,#154);
#153 = CARTESIAN_POINT('',(-127.1798333506,175.97430952133,
    240.57154760664));
#154 = VECTOR('',#155,1.);
#155 = DIRECTION('',(-0.571547606649,-8.164965809277E-02,0.816496580928)
  );
#156 = ORIENTED_EDGE('',*,*,#157,.T.);
#157 = EDGE_CURVE('',#150,#150,#158,.T.);
#158 = CIRCLE('',#159,1.);
#159 = AXIS2_PLACEMENT_3D('',#160,#161,#162);
#160 = CARTESIAN_POINT('',(-170.,170.,300.));
#161 = DIRECTION('',(-0.571547606649,-8.164965809277E-02,0.816496580928)
  );
#162 = DIRECTION('',(0.820166649309,-2.569047867012E-02,0.571547606649)
  );
#163 = ORIENTED_EDGE('',*,*,#149,.F.);
#164 = ORIENTED_EDGE('',*,*,#165,.F.);
#165 = EDGE_CURVE('',#91,#141,#166,.T.);
#166 = CIRCLE('',#167,1.);
#167 = AXIS2_PLACEMENT_3D('',#168,#169,#170);
#168 = CARTESIAN_POINT('',(-128.,176.,240.));
#169 = DIRECTION('',(-0.571547606649,-8.164965809277E-02,0.816496580928)
  );
#170 = DIRECTION('',(0.820166649309,-2.569047867012E-02,0.571547606649)
  );
#171 = ORIENTED_EDGE('',*,*,#90,.T.);
#172 = ORIENTED_EDGE('',*,*,#81,.T.);
#173 = CYLINDRICAL_SURFACE('',#174,1.);
#174 = AXIS2_PLACEMENT_3D('',#175,#176,#177);
#175 = CARTESIAN_POINT('',(-128.,176.,240.));
#176 = DIRECTION('',(0.571547606649,8.164965809277E-02,-0.816496580928)
  );
#177 = DIRECTION('',(0.820166649309,-2.569047867012E-02,0.571547606649)
  );
#178 = ADVANCED_FACE('',(#179),#184,.F.);
#179 = FACE_BOUND('',#180,.F.);
#180 = EDGE_LOOP('',(#181,#182,#183));
#181 = ORIENTED_EDGE('',*,*,#165,.T.);
#182 = ORIENTED_EDGE('',*,*,#140,.T.);
#183 = ORIENTED_EDGE('',*,*,#126,.T.);
#184 = PLANE('',#185);
#185 = AXIS2_PLACEMENT_3D('',#186,#187,#188);
#186 = CARTESIAN_POINT('',(-128.,176.,240.));
#187 = DIRECTION('',(-0.571547606649,-8.164965809277E-02,0.816496580928)
  );
#188 = DIRECTION('',(0.820166649309,-2.569047867012E-02,0.571547606649)
  );
#189 = ADVANCED_FACE('',(#190),#193,.T.);
#190 = FACE_BOUND('',#191,.F.);
#191 = EDGE_LOOP('',(#192));
#192 = ORIENTED_EDGE('',*,*,#157,.F.);
#193 = PLANE('',#194);
#194 = AXIS2_PLACEMENT_3D('',#195,#196,#197);
#195 = CARTESIAN_POINT('',(-170.,170.,300.));
#196 = DIRECTION('',(-0.571547606649,-8.164965809277E-02,0.816496580928)
  );
#197 = DIRECTION('',(0.820166649309,-2.569047867012E-02,0.571547606649)
  );
#198 = ( GEOMETRIC_REPRESENTATION_CONTEXT(3) 
GLOBAL_UNCERTAINTY_ASSIGNED_CONTEXT((#202)) GLOBAL_UNIT_ASSIGNED_CONTEXT
((#199,#200,#201)) REPRESENTATION_CONTEXT('Context #1',
  '3D Context with UNIT and UNCERTAINTY') );
#199 = ( LENGTH_UNIT() NAMED_UNIT(*) SI_UNIT(.MILLI.,.METRE.) );
#200 = ( NAMED_UNIT(*) PLANE_ANGLE_UNIT() SI_UNIT($,.RADIAN.) );
#201 = ( NAMED_UNIT(*) SI_UNIT($,.STERADIAN.) SOLID_ANGLE_UNIT() );
#202 = UNCERTAINTY_MEASURE_WITH_UNIT(LENGTH_MEASURE(5.E-05),#199,
  'distance_accuracy_value','confusion accuracy');
#203 = CONTEXT_DEPENDENT_SHAPE_REPRESENTATION(#204,#206);
#204 = ( REPRESENTATION_RELATIONSHIP('','',#48,#10) 
REPRESENTATION_RELATIONSHIP_WITH_TRANSFORMATION(#205) 
SHAPE_REPRESENTATION_RELATIONSHIP() );
#205 = ITEM_DEFINED_TRANSFORMATION('','',#11,#15);
#206 = PRODUCT_DEFINITION_SHAPE('Placement','Placement of an item',#207
  );
#207 = NEXT_ASSEMBLY_USAGE_OCCURRENCE('135','WIRE_TILT_SV_0','',#5,#43,$
  );
#208 = PRODUCT_RELATED_PRODUCT_CATEGORY('part',$,(#45));
#209 = SHAPE_DEFINITION_REPRESENTATION(#210,#216);
#210 = PRODUCT_DEFINITION_SHAPE('','',#211);
#211 = PRODUCT_DEFINITION('design','',#212,#215);
#212 = PRODUCT_DEFINITION_FORMATION('','',#213);
#213 = PRODUCT('WIRE_TILT_SV_1','WIRE_TILT_SV_1','',(#214));
#214 = PRODUCT_CONTEXT('',#2,'mechanical');
#215 = PRODUCT_DEFINITION_CONTEXT('part definition',#2,'design');
#216 = ADVANCED_BREP_SHAPE_REPRESENTATION('',(#11,#217),#270);
#217 = MANIFOLD_SOLID_BREP('',#218);
#218 = CLOSED_SHELL('',(#219,#252,#261));
#219 = ADVANCED_FACE('',(#220),#247,.T.);
#220 = FACE_BOUND('',#221,.F.);
#221 = EDGE_LOOP('',(#222,#232,#239,#240));
#222 = ORIENTED_EDGE('',*,*,#223,.T.);
#223 = EDGE_CURVE('',#224,#226,#228,.T.);
#224 = VERTEX_POINT('',#225);
#225 = CARTESIAN_POINT('',(1.,0.,0.));
#226 = VERTEX_POINT('',#227);
#227 = CARTESIAN_POINT('',(1.,0.,31.68595903551));
#228 = LINE('',#229,#230);
#229 = CARTESIAN_POINT('',(1.,-2.4E-16,0.));
#230 = VECTOR('',#231,1.);
#231 = DIRECTION('',(0.,0.,1.));
#232 = ORIENTED_EDGE('',*,*,#233,.T.);
#233 = EDGE_CURVE('',#226,#226,#234,.T.);
#234 = CIRCLE('',#235,1.);
#235 = AXIS2_PLACEMENT_3D('',#236,#237,#238);
#236 = CARTESIAN_POINT('',(0.,0.,31.68595903551));
#237 = DIRECTION('',(0.,0.,1.));
#238 = DIRECTION('',(1.,0.,0.));
#239 = ORIENTED_EDGE('',*,*,#223,.F.);
#240 = ORIENTED_EDGE('',*,*,#241,.F.);
#241 = EDGE_CURVE('',#224,#224,#242,.T.);
#242 = CIRCLE('',#243,1.);
#243 = AXIS2_PLACEMENT_3D('',#244,#245,#246);
#244 = CARTESIAN_POINT('',(0.,0.,0.));
#245 = DIRECTION('',(0.,0.,1.));
#246 = DIRECTION('',(1.,0.,-0.));
#247 = CYLINDRICAL_SURFACE('',#248,1.);
#248 = AXIS2_PLACEMENT_3D('',#249,#250,#251);
#249 = CARTESIAN_POINT('',(0.,0.,0.));
#250 = DIRECTION('',(-0.,-0.,-1.));
#251 = DIRECTION('',(1.,0.,-0.));
#252 = ADVANCED_FACE('',(#253),#256,.F.);
#253 = FACE_BOUND('',#254,.T.);
#254 = EDGE_LOOP('',(#255));
#255 = ORIENTED_EDGE('',*,*,#241,.F.);
#256 = PLANE('',#257);
#257 = AXIS2_PLACEMENT_3D('',#258,#259,#260);
#258 = CARTESIAN_POINT('',(0.,0.,0.));
#259 = DIRECTION('',(0.,0.,1.));
#260 = DIRECTION('',(1.,0.,-0.));
#261 = ADVANCED_FACE('',(#262),#265,.T.);
#262 = FACE_BOUND('',#263,.F.);
#263 = EDGE_LOOP('',(#264));
#264 = ORIENTED_EDGE('',*,*,#233,.F.);
#265 = PLANE('',#266);
#266 = AXIS2_PLACEMENT_3D('',#267,#268,#269);
#267 = CARTESIAN_POINT('',(0.,0.,31.68595903551));
#268 = DIRECTION('',(0.,0.,1.));
#269 = DIRECTION('',(1.,0.,0.));
#270 = ( GEOMETRIC_REPRESENTATION_CONTEXT(3) 
GLOBAL_UNCERTAINTY_ASSIGNED_CONTEXT((#274)) GLOBAL_UNIT_ASSIGNED_CONTEXT
((#271,#272,#273)) REPRESENTATION_CONTEXT('Context #1',
  '3D Context with UNIT and UNCERTAINTY') );
#271 = ( LENGTH_UNIT() NAMED_UNIT(*) SI_UNIT(.MILLI.,.METRE.) );
#272 = ( NAMED_UNIT(*) PLANE_ANGLE_UNIT() SI_UNIT($,.RADIAN.) );
#273 = ( NAMED_UNIT(*) SI_UNIT($,.STERADIAN.) SOLID_ANGLE_UNIT() );
#274 = UNCERTAINTY_MEASURE_WITH_UNIT(LENGTH_MEASURE(1.E-07),#271,
  'distance_accuracy_value','confusion accuracy');
#275 = CONTEXT_DEPENDENT_SHAPE_REPRESENTATION(#276,#278);
#276 = ( REPRESENTATION_RELATIONSHIP('','',#216,#10) 
REPRESENTATION_RELATIONSHIP_WITH_TRANSFORMATION(#277) 
SHAPE_REPRESENTATION_RELATIONSHIP() );
#277 = ITEM_DEFINED_TRANSFORMATION('','',#11,#19);
#278 = PRODUCT_DEFINITION_SHAPE('Placement','Placement of an item',#279
  );
#279 = NEXT_ASSEMBLY_USAGE_OCCURRENCE('136','WIRE_TILT_SV_1','',#5,#211,
  $);
#280 = PRODUCT_RELATED_PRODUCT_CATEGORY('part',$,(#213));
#281 = SHAPE_DEFINITION_REPRESENTATION(#282,#288);
#282 = PRODUCT_DEFINITION_SHAPE('','',#283);
#283 = PRODUCT_DEFINITION('design','',#284,#287);
#284 = PRODUCT_DEFINITION_FORMATION('','',#285);
#285 = PRODUCT('WIRE_TILT_SV_2','WIRE_TILT_SV_2','',(#286));
#286 = PRODUCT_CONTEXT('',#2,'mechanical');
#287 = PRODUCT_DEFINITION_CONTEXT('part definition',#2,'design');
#288 = ADVANCED_BREP_SHAPE_REPRESENTATION('',(#11,#289),#342);
#289 = MANIFOLD_SOLID_BREP('',#290);
#290 = CLOSED_SHELL('',(#291,#324,#333));
#291 = ADVANCED_FACE('',(#292),#319,.T.);
#292 = FACE_BOUND('',#293,.F.);
#293 = EDGE_LOOP('',(#294,#304,#311,#312));
#294 = ORIENTED_EDGE('',*,*,#295,.T.);
#295 = EDGE_CURVE('',#296,#298,#300,.T.);
#296 = VERTEX_POINT('',#297);
#297 = CARTESIAN_POINT('',(1.,2.84217094304E-14,-5.684341886081E-14));
#298 = VERTEX_POINT('',#299);
#299 = CARTESIAN_POINT('',(1.,0.,251.44383070578));
#300 = LINE('',#301,#302);
#301 = CARTESIAN_POINT('',(1.,-2.4E-16,0.));
#302 = VECTOR('',#303,1.);
#303 = DIRECTION('',(0.,0.,1.));
#304 = ORIENTED_EDGE('',*,*,#305,.T.);
#305 = EDGE_CURVE('',#298,#298,#306,.T.);
#306 = CIRCLE('',#307,1.);
#307 = AXIS2_PLACEMENT_3D('',#308,#309,#310);
#308 = CARTESIAN_POINT('',(0.,0.,251.44383070578));
#309 = DIRECTION('',(0.,0.,1.));
#310 = DIRECTION('',(1.,0.,0.));
#311 = ORIENTED_EDGE('',*,*,#295,.F.);
#312 = ORIENTED_EDGE('',*,*,#313,.F.);
#313 = EDGE_CURVE('',#296,#296,#314,.T.);
#314 = CIRCLE('',#315,1.);
#315 = AXIS2_PLACEMENT_3D('',#316,#317,#318);
#316 = CARTESIAN_POINT('',(0.,0.,0.));
#317 = DIRECTION('',(0.,0.,1.));
#318 = DIRECTION('',(1.,0.,-0.));
#319 = CYLINDRICAL_SURFACE('',#320,1.);
#320 = AXIS2_PLACEMENT_3D('',#321,#322,#323);
#321 = CARTESIAN_POINT('',(0.,0.,0.));
#322 = DIRECTION('',(-0.,-0.,-1.));
#323 = DIRECTION('',(1.,0.,-0.));
#324 = ADVANCED_FACE('',(#325),#328,.F.);
#325 = FACE_BOUND('',#326,.T.);
#326 = EDGE_LOOP('',(#327));
#327 = ORIENTED_EDGE('',*,*,#313,.F.);
#328 = PLANE('',#329);
#329 = AXIS2_PLACEMENT_3D('',#330,#331,#332);
#330 = CARTESIAN_POINT('',(0.,0.,0.));
#331 = DIRECTION('',(0.,0.,1.));
#332 = DIRECTION('',(1.,0.,-0.));
#333 = ADVANCED_FACE('',(#334),#337,.T.);
#334 = FACE_BOUND('',#335,.F.);
#335 = EDGE_LOOP('',(#336));
#336 = ORIENTED_EDGE('',*,*,#305,.F.);
#337 = PLANE('',#338);
#338 = AXIS2_PLACEMENT_3D('',#339,#340,#341);
#339 = CARTESIAN_POINT('',(0.,0.,251.44383070578));
#340 = DIRECTION('',(0.,0.,1.));
#341 = DIRECTION('',(1.,0.,0.));
#342 = ( GEOMETRIC_REPRESENTATION_CONTEXT(3) 
GLOBAL_UNCERTAINTY_ASSIGNED_CONTEXT((#346)) GLOBAL_UNIT_ASSIGNED_CONTEXT
((#343,#344,#345)) REPRESENTATION_CONTEXT('Context #1',
  '3D Context with UNIT and UNCERTAINTY') );
#343 = ( LENGTH_UNIT() NAMED_UNIT(*) SI_UNIT(.MILLI.,.METRE.) );
#344 = ( NAMED_UNIT(*) PLANE_ANGLE_UNIT() SI_UNIT($,.RADIAN.) );
#345 = ( NAMED_UNIT(*) SI_UNIT($,.STERADIAN.) SOLID_ANGLE_UNIT() );
#346 = UNCERTAINTY_MEASURE_WITH_UNIT(LENGTH_MEASURE(1.E-07),#343,
  'distance_accuracy_value','confusion accuracy');
#347 = CONTEXT_DEPENDENT_SHAPE_REPRESENTATION(#348,#350);
#348 = ( REPRESENTATION_RELATIONSHIP('','',#288,#10) 
REPRESENTATION_RELATIONSHIP_WITH_TRANSFORMATION(#349) 
SHAPE_REPRESENTATION_RELATIONSHIP() );
#349 = ITEM_DEFINED_TRANSFORMATION('','',#11,#23);
#350 = PRODUCT_DEFINITION_SHAPE('Placement','Placement of an item',#351
  );
#351 = NEXT_ASSEMBLY_USAGE_OCCURRENCE('137','WIRE_TILT_SV_2','',#5,#283,
  $);
#352 = PRODUCT_RELATED_PRODUCT_CATEGORY('part',$,(#285));
#353 = SHAPE_DEFINITION_REPRESENTATION(#354,#360);
#354 = PRODUCT_DEFINITION_SHAPE('','',#355);
#355 = PRODUCT_DEFINITION('design','',#356,#359);
#356 = PRODUCT_DEFINITION_FORMATION('','',#357);
#357 = PRODUCT('WIRE_TILT_SV_3','WIRE_TILT_SV_3','',(#358));
#358 = PRODUCT_CONTEXT('',#2,'mechanical');
#359 = PRODUCT_DEFINITION_CONTEXT('part definition',#2,'design');
#360 = ADVANCED_BREP_SHAPE_REPRESENTATION('',(#11,#361),#414);
#361 = MANIFOLD_SOLID_BREP('',#362);
#362 = CLOSED_SHELL('',(#363,#396,#405));
#363 = ADVANCED_FACE('',(#364),#391,.T.);
#364 = FACE_BOUND('',#365,.F.);
#365 = EDGE_LOOP('',(#366,#376,#383,#384));
#366 = ORIENTED_EDGE('',*,*,#367,.T.);
#367 = EDGE_CURVE('',#368,#370,#372,.T.);
#368 = VERTEX_POINT('',#369);
#369 = CARTESIAN_POINT('',(1.,0.,0.));
#370 = VERTEX_POINT('',#371);
#371 = CARTESIAN_POINT('',(1.,-3.552713678801E-15,64.031242374329));
#372 = LINE('',#373,#374);
#373 = CARTESIAN_POINT('',(1.,-2.4E-16,0.));
#374 = VECTOR('',#375,1.);
#375 = DIRECTION('',(0.,0.,1.));
#376 = ORIENTED_EDGE('',*,*,#377,.T.);
#377 = EDGE_CURVE('',#370,#370,#378,.T.);
#378 = CIRCLE('',#379,1.);
#379 = AXIS2_PLACEMENT_3D('',#380,#381,#382);
#380 = CARTESIAN_POINT('',(0.,0.,64.031242374328));
#381 = DIRECTION('',(0.,0.,1.));
#382 = DIRECTION('',(1.,0.,0.));
#383 = ORIENTED_EDGE('',*,*,#367,.F.);
#384 = ORIENTED_EDGE('',*,*,#385,.F.);
#385 = EDGE_CURVE('',#368,#368,#386,.T.);
#386 = CIRCLE('',#387,1.);
#387 = AXIS2_PLACEMENT_3D('',#388,#389,#390);
#388 = CARTESIAN_POINT('',(0.,0.,0.));
#389 = DIRECTION('',(0.,0.,1.));
#390 = DIRECTION('',(1.,0.,-0.));
#391 = CYLINDRICAL_SURFACE('',#392,1.);
#392 = AXIS2_PLACEMENT_3D('',#393,#394,#395);
#393 = CARTESIAN_POINT('',(0.,0.,0.));
#394 = DIRECTION('',(-0.,-0.,-1.));
#395 = DIRECTION('',(1.,0.,-0.));
#396 = ADVANCED_FACE('',(#397),#400,.F.);
#397 = FACE_BOUND('',#398,.T.);
#398 = EDGE_LOOP('',(#399));
#399 = ORIENTED_EDGE('',*,*,#385,.F.);
#400 = PLANE('',#401);
#401 = AXIS2_PLACEMENT_3D('',#402,#403,#404);
#402 = CARTESIAN_POINT('',(0.,0.,0.));
#403 = DIRECTION('',(0.,0.,1.));
#404 = DIRECTION('',(1.,0.,-0.));
#405 = ADVANCED_FACE('',(#406),#409,.T.);
#406 = FACE_BOUND('',#407,.F.);
#407 = EDGE_LOOP('',(#408));
#408 = ORIENTED_EDGE('',*,*,#377,.F.);
#409 = PLANE('',#410);
#410 = AXIS2_PLACEMENT_3D('',#411,#412,#413);
#411 = CARTESIAN_POINT('',(0.,0.,64.031242374328));
#412 = DIRECTION('',(0.,0.,1.));
#413 = DIRECTION('',(1.,0.,0.));
#414 = ( GEOMETRIC_REPRESENTATION_CONTEXT(3) 
GLOBAL_UNCERTAINTY_ASSIGNED_CONTEXT((#418)) GLOBAL_UNIT_ASSIGNED_CONTEXT
((#415,#416,#417)) REPRESENTATION_CONTEXT('Context #1',
  '3D Context with UNIT and UNCERTAINTY') );
#415 = ( LENGTH_UNIT() NAMED_UNIT(*) SI_UNIT(.MILLI.,.METRE.) );
#416 = ( NAMED_UNIT(*) PLANE_ANGLE_UNIT() SI_UNIT($,.RADIAN.) );
#417 = ( NAMED_UNIT(*) SI_UNIT($,.STERADIAN.) SOLID_ANGLE_UNIT() );
#418 = UNCERTAINTY_MEASURE_WITH_UNIT(LENGTH_MEASURE(1.E-07),#415,
  'distance_accuracy_value','confusion accuracy');
#419 = CONTEXT_DEPENDENT_SHAPE_REPRESENTATION(#420,#422);
#420 = ( REPRESENTATION_RELATIONSHIP('','',#360,#10) 
REPRESENTATION_RELATIONSHIP_WITH_TRANSFORMATION(#421) 
SHAPE_REPRESENTATION_RELATIONSHIP() );
#421 = ITEM_DEFINED_TRANSFORMATION('','',#11,#27);
#422 = PRODUCT_DEFINITION_SHAPE('Placement','Placement of an item',#423
  );
#423 = NEXT_ASSEMBLY_USAGE_OCCURRENCE('138','WIRE_TILT_SV_3','',#5,#355,
  $);
#424 = PRODUCT_RELATED_PRODUCT_CATEGORY('part',$,(#357));
#425 = SHAPE_DEFINITION_REPRESENTATION(#426,#432);
#426 = PRODUCT_DEFINITION_SHAPE('','',#427);
#427 = PRODUCT_DEFINITION('design','',#428,#431);
#428 = PRODUCT_DEFINITION_FORMATION('','',#429);
#429 = PRODUCT('WIRE_TILT_SV_4','WIRE_TILT_SV_4','',(#430));
#430 = PRODUCT_CONTEXT('',#2,'mechanical');
#431 = PRODUCT_DEFINITION_CONTEXT('part definition',#2,'design');
#432 = ADVANCED_BREP_SHAPE_REPRESENTATION('',(#11,#433),#486);
#433 = MANIFOLD_SOLID_BREP('',#434);
#434 = CLOSED_SHELL('',(#435,#468,#477));
#435 = ADVANCED_FACE('',(#436),#463,.T.);
#436 = FACE_BOUND('',#437,.F.);
#437 = EDGE_LOOP('',(#438,#448,#455,#456));
#438 = ORIENTED_EDGE('',*,*,#439,.T.);
#439 = EDGE_CURVE('',#440,#442,#444,.T.);
#440 = VERTEX_POINT('',#441);
#441 = CARTESIAN_POINT('',(1.,7.105427357601E-15,2.84217094304E-14));
#442 = VERTEX_POINT('',#443);
#443 = CARTESIAN_POINT('',(1.,7.105427357601E-15,31.496031496047));
#444 = LINE('',#445,#446);
#445 = CARTESIAN_POINT('',(1.,-2.4E-16,0.));
#446 = VECTOR('',#447,1.);
#447 = DIRECTION('',(0.,0.,1.));
#448 = ORIENTED_EDGE('',*,*,#449,.T.);
#449 = EDGE_CURVE('',#442,#442,#450,.T.);
#450 = CIRCLE('',#451,1.);
#451 = AXIS2_PLACEMENT_3D('',#452,#453,#454);
#452 = CARTESIAN_POINT('',(0.,0.,31.496031496047));
#453 = DIRECTION('',(0.,0.,1.));
#454 = DIRECTION('',(1.,0.,0.));
#455 = ORIENTED_EDGE('',*,*,#439,.F.);
#456 = ORIENTED_EDGE('',*,*,#457,.F.);
#457 = EDGE_CURVE('',#440,#440,#458,.T.);
#458 = CIRCLE('',#459,1.);
#459 = AXIS2_PLACEMENT_3D('',#460,#461,#462);
#460 = CARTESIAN_POINT('',(0.,0.,0.));
#461 = DIRECTION('',(0.,0.,1.));
#462 = DIRECTION('',(1.,0.,-0.));
#463 = CYLINDRICAL_SURFACE('',#464,1.);
#464 = AXIS2_PLACEMENT_3D('',#465,#466,#467);
#465 = CARTESIAN_POINT('',(0.,0.,0.));
#466 = DIRECTION('',(-0.,-0.,-1.));
#467 = DIRECTION('',(1.,0.,-0.));
#468 = ADVANCED_FACE('',(#469),#472,.F.);
#469 = FACE_BOUND('',#470,.T.);
#470 = EDGE_LOOP('',(#471));
#471 = ORIENTED_EDGE('',*,*,#457,.F.);
#472 = PLANE('',#473);
#473 = AXIS2_PLACEMENT_3D('',#474,#475,#476);
#474 = CARTESIAN_POINT('',(0.,0.,0.));
#475 = DIRECTION('',(0.,0.,1.));
#476 = DIRECTION('',(1.,0.,-0.));
#477 = ADVANCED_FACE('',(#478),#481,.T.);
#478 = FACE_BOUND('',#479,.F.);
#479 = EDGE_LOOP('',(#480));
#480 = ORIENTED_EDGE('',*,*,#449,.F.);
#481 = PLANE('',#482);
#482 = AXIS2_PLACEMENT_3D('',#483,#484,#485);
#483 = CARTESIAN_POINT('',(0.,0.,31.496031496047));
#484 = DIRECTION('',(0.,0.,1.));
#485 = DIRECTION('',(1.,0.,0.));
#486 = ( GEOMETRIC_REPRESENTATION_CONTEXT(3) 
GLOBAL_UNCERTAINTY_ASSIGNED_CONTEXT((#490)) GLOBAL_UNIT_ASSIGNED_CONTEXT
((#487,#488,#489)) REPRESENTATION_CONTEXT('Context #1',
  '3D Context with UNIT and UNCERTAINTY') );
#487 = ( LENGTH_UNIT() NAMED_UNIT(*) SI_UNIT(.MILLI.,.METRE.) );
#488 = ( NAMED_UNIT(*) PLANE_ANGLE_UNIT() SI_UNIT($,.RADIAN.) );
#489 = ( NAMED_UNIT(*) SI_UNIT($,.STERADIAN.) SOLID_ANGLE_UNIT() );
#490 = UNCERTAINTY_MEASURE_WITH_UNIT(LENGTH_MEASURE(1.E-07),#487,
  'distance_accuracy_value','confusion accuracy');
#491 = CONTEXT_DEPENDENT_SHAPE_REPRESENTATION(#492,#494);
#492 = ( REPRESENTATION_RELATIONSHIP('','',#432,#10) 
REPRESENTATION_RELATIONSHIP_WITH_TRANSFORMATION(#493) 
SHAPE_REPRESENTATION_RELATIONSHIP() );
#493 = ITEM_DEFINED_TRANSFORMATION('','',#11,#31);
#494 = PRODUCT_DEFINITION_SHAPE('Placement','Placement of an item',#495
  );
#495 = NEXT_ASSEMBLY_USAGE_OCCURRENCE('139','WIRE_TILT_SV_4','',#5,#427,
  $);
#496 = PRODUCT_RELATED_PRODUCT_CATEGORY('part',$,(#429));
ENDSEC;
END-ISO-10303-21;
