ISO-10303-21;
HEADER;
FILE_DESCRIPTION(('FreeCAD Model'),'2;1');
FILE_NAME('Open CASCADE Shape Model','2026-09-29T03:47:07',('Author'),(
    ''),'Open CASCADE STEP processor 7.8','FreeCAD','Unknown');
FILE_SCHEMA(('AUTOMOTIVE_DESIGN { 1 0 10303 214 1 1 1 1 }'));
ENDSEC;
DATA;
#1 = APPLICATION_PROTOCOL_DEFINITION('international standard',
  'automotive_design',2000,#2);
#2 = APPLICATION_CONTEXT(
  'core data for automotive mechanical design processes');
#3 = SHAPE_DEFINITION_REPRESENTATION(#4,#10);
#4 = PRODUCT_DEFINITION_SHAPE('','',#5);
#5 = PRODUCT_DEFINITION('design','',#6,#9);
#6 = PRODUCT_DEFINITION_FORMATION('','',#7);
#7 = PRODUCT('master_robot','master_robot','',(#8));
#8 = PRODUCT_CONTEXT('',#2,'mechanical');
#9 = PRODUCT_DEFINITION_CONTEXT('part definition',#2,'design');
#10 = SHAPE_REPRESENTATION('',(#11,#15,#19,#23,#27,#31),#35);
#11 = AXIS2_PLACEMENT_3D('',#12,#13,#14);
#12 = CARTESIAN_POINT('',(0.,0.,0.));
#13 = DIRECTION('',(0.,0.,1.));
#14 = DIRECTION('',(1.,0.,-0.));
#15 = AXIS2_PLACEMENT_3D('',#16,#17,#18);
#16 = CARTESIAN_POINT('',(0.,0.,0.));
#17 = DIRECTION('',(0.,0.,1.));
#18 = DIRECTION('',(1.,0.,0.));
#19 = AXIS2_PLACEMENT_3D('',#20,#21,#22);
#20 = CARTESIAN_POINT('',(-112.,-62.,150.));
#21 = DIRECTION('',(-0.371134809513,3.711348095126E-02,-0.927837023782)
  );
#22 = DIRECTION('',(-0.908749528497,0.19087495285,0.371134809513));
#23 = AXIS2_PLACEMENT_3D('',#24,#25,#26);
#24 = CARTESIAN_POINT('',(-132.,-60.,100.));
#25 = DIRECTION('',(0.186907725406,-0.420542382164,-0.88781169568));
#26 = DIRECTION('',(0.688608380094,0.700631144789,-0.186907725406));
#27 = AXIS2_PLACEMENT_3D('',#28,#29,#30);
#28 = CARTESIAN_POINT('',(-124.,-78.,62.));
#29 = DIRECTION('',(0.76028592127,-0.228085776381,-0.608228737016));
#30 = DIRECTION('',(-0.475439208271,0.442631762481,-0.76028592127));
#31 = AXIS2_PLACEMENT_3D('',#32,#33,#34);
#32 = CARTESIAN_POINT('',(-104.,-84.,46.));
#33 = DIRECTION('',(0.942809041582,-0.235702260396,-0.235702260396));
#34 = DIRECTION('',(-0.163013892137,0.290753473034,-0.942809041582));
#35 = ( GEOMETRIC_REPRESENTATION_CONTEXT(3) 
GLOBAL_UNCERTAINTY_ASSIGNED_CONTEXT((#39)) GLOBAL_UNIT_ASSIGNED_CONTEXT(
(#36,#37,#38)) REPRESENTATION_CONTEXT('Context #1',
  '3D Context with UNIT and UNCERTAINTY') );
#36 = ( LENGTH_UNIT() NAMED_UNIT(*) SI_UNIT(.MILLI.,.METRE.) );
#37 = ( NAMED_UNIT(*) PLANE_ANGLE_UNIT() SI_UNIT($,.RADIAN.) );
#38 = ( NAMED_UNIT(*) SI_UNIT($,.STERADIAN.) SOLID_ANGLE_UNIT() );
#39 = UNCERTAINTY_MEASURE_WITH_UNIT(LENGTH_MEASURE(1.E-05),#36,
  'distance_accuracy_value','confusion accuracy');
#40 = PRODUCT_RELATED_PRODUCT_CATEGORY('part',$,(#7));
#41 = SHAPE_DEFINITION_REPRESENTATION(#42,#48);
#42 = PRODUCT_DEFINITION_SHAPE('','',#43);
#43 = PRODUCT_DEFINITION('design','',#44,#47);
#44 = PRODUCT_DEFINITION_FORMATION('','',#45);
#45 = PRODUCT('WIRE_YAW_SV_0','WIRE_YAW_SV_0','',(#46));
#46 = PRODUCT_CONTEXT('',#2,'mechanical');
#47 = PRODUCT_DEFINITION_CONTEXT('part definition',#2,'design');
#48 = ADVANCED_BREP_SHAPE_REPRESENTATION('',(#11,#49),#198);
#49 = MANIFOLD_SOLID_BREP('',#50);
#50 = CLOSED_SHELL('',(#51,#120,#129,#164,#179,#189));
#51 = ADVANCED_FACE('',(#52),#115,.T.);
#52 = FACE_BOUND('',#53,.F.);
#53 = EDGE_LOOP('',(#54,#63,#71,#80,#89,#98,#107,#114));
#54 = ORIENTED_EDGE('',*,*,#55,.F.);
#55 = EDGE_CURVE('',#56,#56,#58,.T.);
#56 = VERTEX_POINT('',#57);
#57 = CARTESIAN_POINT('',(-66.55760262496,-79.30773216668,214.4580879387
    ));
#58 = CIRCLE('',#59,1.);
#59 = AXIS2_PLACEMENT_3D('',#60,#61,#62);
#60 = CARTESIAN_POINT('',(-66.,-80.,214.));
#61 = DIRECTION('',(-0.458087938703,0.203594639424,-0.865277217551));
#62 = DIRECTION('',(-0.557602624965,0.692267833318,0.458087938703));
#63 = ORIENTED_EDGE('',*,*,#64,.T.);
#64 = EDGE_CURVE('',#56,#65,#67,.T.);
#65 = VERTEX_POINT('',#66);
#66 = CARTESIAN_POINT('',(-84.5091073511,-71.32928562173,180.54969012265
    ));
#67 = LINE('',#68,#69);
#68 = CARTESIAN_POINT('',(-66.55760262496,-79.30773216668,214.4580879387
    ));
#69 = VECTOR('',#70,1.);
#70 = DIRECTION('',(-0.458087938703,0.203594639424,-0.865277217551));
#71 = ORIENTED_EDGE('',*,*,#72,.F.);
#72 = EDGE_CURVE('',#73,#65,#75,.T.);
#73 = VERTEX_POINT('',#74);
#74 = CARTESIAN_POINT('',(-83.76539004328,-71.03340697831,
    180.10322838095));
#75 = ELLIPSE('',#76,1.008492296608,1.);
#76 = AXIS2_PLACEMENT_3D('',#77,#78,#79);
#77 = CARTESIAN_POINT('',(-84.,-72.,180.));
#78 = DIRECTION('',(0.565263538636,-0.222045548445,0.794463911266));
#79 = DIRECTION('',(-0.790844675076,0.12803790393,0.59847388837));
#80 = ORIENTED_EDGE('',*,*,#81,.T.);
#81 = EDGE_CURVE('',#73,#82,#84,.T.);
#82 = VERTEX_POINT('',#83);
#83 = CARTESIAN_POINT('',(-84.23460995672,-72.96659302168,
    179.89677161904));
#84 = CIRCLE('',#85,1.);
#85 = AXIS2_PLACEMENT_3D('',#86,#87,#88);
#86 = CARTESIAN_POINT('',(-84.,-72.,180.));
#87 = DIRECTION('',(-0.458087938703,0.203594639424,-0.865277217551));
#88 = DIRECTION('',(-0.557602624965,0.692267833318,0.458087938703));
#89 = ORIENTED_EDGE('',*,*,#90,.F.);
#90 = EDGE_CURVE('',#91,#82,#93,.T.);
#91 = VERTEX_POINT('',#92);
#92 = CARTESIAN_POINT('',(-84.79756076262,-71.87087476021,
    180.60355630614));
#93 = ELLIPSE('',#94,1.008492296608,1.);
#94 = AXIS2_PLACEMENT_3D('',#95,#96,#97);
#95 = CARTESIAN_POINT('',(-84.,-72.,180.));
#96 = DIRECTION('',(0.565263538636,-0.222045548445,0.794463911266));
#97 = DIRECTION('',(-0.790844675076,0.12803790393,0.59847388837));
#98 = ORIENTED_EDGE('',*,*,#99,.F.);
#99 = EDGE_CURVE('',#100,#91,#102,.T.);
#100 = VERTEX_POINT('',#101);
#101 = CARTESIAN_POINT('',(-84.59318362146,-71.43100584947,
    180.58108075723));
#102 = ELLIPSE('',#103,1.008492296608,1.);
#103 = AXIS2_PLACEMENT_3D('',#104,#105,#106);
#104 = CARTESIAN_POINT('',(-84.,-72.,180.));
#105 = DIRECTION('',(0.565263538636,-0.222045548445,0.794463911266));
#106 = DIRECTION('',(-0.790844675076,0.12803790393,0.59847388837));
#107 = ORIENTED_EDGE('',*,*,#108,.F.);
#108 = EDGE_CURVE('',#65,#100,#109,.T.);
#109 = ELLIPSE('',#110,1.008492296608,1.);
#110 = AXIS2_PLACEMENT_3D('',#111,#112,#113);
#111 = CARTESIAN_POINT('',(-84.,-72.,180.));
#112 = DIRECTION('',(0.565263538636,-0.222045548445,0.794463911266));
#113 = DIRECTION('',(-0.790844675076,0.12803790393,0.59847388837));
#114 = ORIENTED_EDGE('',*,*,#64,.F.);
#115 = CYLINDRICAL_SURFACE('',#116,1.);
#116 = AXIS2_PLACEMENT_3D('',#117,#118,#119);
#117 = CARTESIAN_POINT('',(-66.,-80.,214.));
#118 = DIRECTION('',(0.458087938703,-0.203594639424,0.865277217551));
#119 = DIRECTION('',(-0.557602624965,0.692267833318,0.458087938703));
#120 = ADVANCED_FACE('',(#121),#124,.F.);
#121 = FACE_BOUND('',#122,.T.);
#122 = EDGE_LOOP('',(#123));
#123 = ORIENTED_EDGE('',*,*,#55,.F.);
#124 = PLANE('',#125);
#125 = AXIS2_PLACEMENT_3D('',#126,#127,#128);
#126 = CARTESIAN_POINT('',(-66.,-80.,214.));
#127 = DIRECTION('',(-0.458087938703,0.203594639424,-0.865277217551));
#128 = DIRECTION('',(-0.557602624965,0.692267833318,0.458087938703));
#129 = ADVANCED_FACE('',(#130),#159,.T.);
#130 = FACE_BOUND('',#131,.F.);
#131 = EDGE_LOOP('',(#132,#133,#141,#148,#149,#150,#151,#158));
#132 = ORIENTED_EDGE('',*,*,#108,.T.);
#133 = ORIENTED_EDGE('',*,*,#134,.T.);
#134 = EDGE_CURVE('',#100,#135,#137,.T.);
#135 = VERTEX_POINT('',#136);
#136 = CARTESIAN_POINT('',(-112.5168010624,-61.45828533484,
    150.66291921333));
#137 = LINE('',#138,#139);
#138 = CARTESIAN_POINT('',(-84.51680106244,-71.45828533484,
    180.66291921333));
#139 = VECTOR('',#140,1.);
#140 = DIRECTION('',(-0.662919213335,0.236756861905,-0.710270585716));
#141 = ORIENTED_EDGE('',*,*,#142,.T.);
#142 = EDGE_CURVE('',#135,#135,#143,.T.);
#143 = CIRCLE('',#144,1.);
#144 = AXIS2_PLACEMENT_3D('',#145,#146,#147);
#145 = CARTESIAN_POINT('',(-112.,-62.,150.));
#146 = DIRECTION('',(-0.662919213335,0.236756861905,-0.710270585716));
#147 = DIRECTION('',(-0.516801062445,0.541714665159,0.662919213335));
#148 = ORIENTED_EDGE('',*,*,#134,.F.);
#149 = ORIENTED_EDGE('',*,*,#99,.T.);
#150 = ORIENTED_EDGE('',*,*,#90,.T.);
#151 = ORIENTED_EDGE('',*,*,#152,.F.);
#152 = EDGE_CURVE('',#73,#82,#153,.T.);
#153 = CIRCLE('',#154,1.);
#154 = AXIS2_PLACEMENT_3D('',#155,#156,#157);
#155 = CARTESIAN_POINT('',(-84.,-72.,180.));
#156 = DIRECTION('',(-0.662919213335,0.236756861905,-0.710270585716));
#157 = DIRECTION('',(-0.516801062445,0.541714665159,0.662919213335));
#158 = ORIENTED_EDGE('',*,*,#72,.T.);
#159 = CYLINDRICAL_SURFACE('',#160,1.);
#160 = AXIS2_PLACEMENT_3D('',#161,#162,#163);
#161 = CARTESIAN_POINT('',(-84.,-72.,180.));
#162 = DIRECTION('',(0.662919213335,-0.236756861905,0.710270585716));
#163 = DIRECTION('',(-0.516801062445,0.541714665159,0.662919213335));
#164 = ADVANCED_FACE('',(#165),#174,.T.);
#165 = FACE_BOUND('',#166,.T.);
#166 = EDGE_LOOP('',(#167,#173));
#167 = ORIENTED_EDGE('',*,*,#168,.T.);
#168 = EDGE_CURVE('',#82,#73,#169,.T.);
#169 = LINE('',#170,#171);
#170 = CARTESIAN_POINT('',(-84.,-72.,180.));
#171 = VECTOR('',#172,1.);
#172 = DIRECTION('',(0.23460995672,0.966593021686,0.103228380957));
#173 = ORIENTED_EDGE('',*,*,#81,.T.);
#174 = PLANE('',#175);
#175 = AXIS2_PLACEMENT_3D('',#176,#177,#178);
#176 = CARTESIAN_POINT('',(-84.,-72.,180.));
#177 = DIRECTION('',(-0.458087938703,0.203594639424,-0.865277217551));
#178 = DIRECTION('',(-0.557602624965,0.692267833318,0.458087938703));
#179 = ADVANCED_FACE('',(#180),#184,.F.);
#180 = FACE_BOUND('',#181,.F.);
#181 = EDGE_LOOP('',(#182,#183));
#182 = ORIENTED_EDGE('',*,*,#168,.T.);
#183 = ORIENTED_EDGE('',*,*,#152,.T.);
#184 = PLANE('',#185);
#185 = AXIS2_PLACEMENT_3D('',#186,#187,#188);
#186 = CARTESIAN_POINT('',(-84.,-72.,180.));
#187 = DIRECTION('',(-0.662919213335,0.236756861905,-0.710270585716));
#188 = DIRECTION('',(-0.516801062445,0.541714665159,0.662919213335));
#189 = ADVANCED_FACE('',(#190),#193,.T.);
#190 = FACE_BOUND('',#191,.F.);
#191 = EDGE_LOOP('',(#192));
#192 = ORIENTED_EDGE('',*,*,#142,.F.);
#193 = PLANE('',#194);
#194 = AXIS2_PLACEMENT_3D('',#195,#196,#197);
#195 = CARTESIAN_POINT('',(-112.,-62.,150.));
#196 = DIRECTION('',(-0.662919213335,0.236756861905,-0.710270585716));
#197 = DIRECTION('',(-0.516801062445,0.541714665159,0.662919213335));
#198 = ( GEOMETRIC_REPRESENTATION_CONTEXT(3) 
GLOBAL_UNCERTAINTY_ASSIGNED_CONTEXT((#202)) GLOBAL_UNIT_ASSIGNED_CONTEXT
((#199,#200,#201)) REPRESENTATION_CONTEXT('Context #1',
  '3D Context with UNIT and UNCERTAINTY') );
#199 = ( LENGTH_UNIT() NAMED_UNIT(*) SI_UNIT(.MILLI.,.METRE.) );
#200 = ( NAMED_UNIT(*) PLANE_ANGLE_UNIT() SI_UNIT($,.RADIAN.) );
#201 = ( NAMED_UNIT(*) SI_UNIT($,.STERADIAN.) SOLID_ANGLE_UNIT() );
#202 = UNCERTAINTY_MEASURE_WITH_UNIT(LENGTH_MEASURE(2.E-05),#199,
  'distance_accuracy_value','confusion accuracy');
#203 = CONTEXT_DEPENDENT_SHAPE_REPRESENTATION(#204,#206);
#204 = ( REPRESENTATION_RELATIONSHIP('','',#48,#10) 
REPRESENTATION_RELATIONSHIP_WITH_TRANSFORMATION(#205) 
SHAPE_REPRESENTATION_RELATIONSHIP() );
#205 = ITEM_DEFINED_TRANSFORMATION('','',#11,#15);
#206 = PRODUCT_DEFINITION_SHAPE('Placement','Placement of an item',#207
  );
#207 = NEXT_ASSEMBLY_USAGE_OCCURRENCE('140','WIRE_YAW_SV_0','',#5,#43,$
  );
#208 = PRODUCT_RELATED_PRODUCT_CATEGORY('part',$,(#45));
#209 = SHAPE_DEFINITION_REPRESENTATION(#210,#216);
#210 = PRODUCT_DEFINITION_SHAPE('','',#211);
#211 = PRODUCT_DEFINITION('design','',#212,#215);
#212 = PRODUCT_DEFINITION_FORMATION('','',#213);
#213 = PRODUCT('WIRE_YAW_SV_1','WIRE_YAW_SV_1','',(#214));
#214 = PRODUCT_CONTEXT('',#2,'mechanical');
#215 = PRODUCT_DEFINITION_CONTEXT('part definition',#2,'design');
#216 = ADVANCED_BREP_SHAPE_REPRESENTATION('',(#11,#217),#270);
#217 = MANIFOLD_SOLID_BREP('',#218);
#218 = CLOSED_SHELL('',(#219,#252,#261));
#219 = ADVANCED_FACE('',(#220),#247,.T.);
#220 = FACE_BOUND('',#221,.F.);
#221 = EDGE_LOOP('',(#222,#232,#239,#240));
#222 = ORIENTED_EDGE('',*,*,#223,.T.);
#223 = EDGE_CURVE('',#224,#226,#228,.T.);
#224 = VERTEX_POINT('',#225);
#225 = CARTESIAN_POINT('',(1.,0.,2.84217094304E-14));
#226 = VERTEX_POINT('',#227);
#227 = CARTESIAN_POINT('',(1.,0.,53.88877434123));
#228 = LINE('',#229,#230);
#229 = CARTESIAN_POINT('',(1.,-2.4E-16,0.));
#230 = VECTOR('',#231,1.);
#231 = DIRECTION('',(0.,0.,1.));
#232 = ORIENTED_EDGE('',*,*,#233,.T.);
#233 = EDGE_CURVE('',#226,#226,#234,.T.);
#234 = CIRCLE('',#235,1.);
#235 = AXIS2_PLACEMENT_3D('',#236,#237,#238);
#236 = CARTESIAN_POINT('',(0.,0.,53.88877434123));
#237 = DIRECTION('',(0.,0.,1.));
#238 = DIRECTION('',(1.,0.,0.));
#239 = ORIENTED_EDGE('',*,*,#223,.F.);
#240 = ORIENTED_EDGE('',*,*,#241,.F.);
#241 = EDGE_CURVE('',#224,#224,#242,.T.);
#242 = CIRCLE('',#243,1.);
#243 = AXIS2_PLACEMENT_3D('',#244,#245,#246);
#244 = CARTESIAN_POINT('',(0.,0.,0.));
#245 = DIRECTION('',(0.,0.,1.));
#246 = DIRECTION('',(1.,0.,-0.));
#247 = CYLINDRICAL_SURFACE('',#248,1.);
#248 = AXIS2_PLACEMENT_3D('',#249,#250,#251);
#249 = CARTESIAN_POINT('',(0.,0.,0.));
#250 = DIRECTION('',(-0.,-0.,-1.));
#251 = DIRECTION('',(1.,0.,-0.));
#252 = ADVANCED_FACE('',(#253),#256,.F.);
#253 = FACE_BOUND('',#254,.T.);
#254 = EDGE_LOOP('',(#255));
#255 = ORIENTED_EDGE('',*,*,#241,.F.);
#256 = PLANE('',#257);
#257 = AXIS2_PLACEMENT_3D('',#258,#259,#260);
#258 = CARTESIAN_POINT('',(0.,0.,0.));
#259 = DIRECTION('',(0.,0.,1.));
#260 = DIRECTION('',(1.,0.,-0.));
#261 = ADVANCED_FACE('',(#262),#265,.T.);
#262 = FACE_BOUND('',#263,.F.);
#263 = EDGE_LOOP('',(#264));
#264 = ORIENTED_EDGE('',*,*,#233,.F.);
#265 = PLANE('',#266);
#266 = AXIS2_PLACEMENT_3D('',#267,#268,#269);
#267 = CARTESIAN_POINT('',(0.,0.,53.88877434123));
#268 = DIRECTION('',(0.,0.,1.));
#269 = DIRECTION('',(1.,0.,0.));
#270 = ( GEOMETRIC_REPRESENTATION_CONTEXT(3) 
GLOBAL_UNCERTAINTY_ASSIGNED_CONTEXT((#274)) GLOBAL_UNIT_ASSIGNED_CONTEXT
((#271,#272,#273)) REPRESENTATION_CONTEXT('Context #1',
  '3D Context with UNIT and UNCERTAINTY') );
#271 = ( LENGTH_UNIT() NAMED_UNIT(*) SI_UNIT(.MILLI.,.METRE.) );
#272 = ( NAMED_UNIT(*) PLANE_ANGLE_UNIT() SI_UNIT($,.RADIAN.) );
#273 = ( NAMED_UNIT(*) SI_UNIT($,.STERADIAN.) SOLID_ANGLE_UNIT() );
#274 = UNCERTAINTY_MEASURE_WITH_UNIT(LENGTH_MEASURE(1.E-07),#271,
  'distance_accuracy_value','confusion accuracy');
#275 = CONTEXT_DEPENDENT_SHAPE_REPRESENTATION(#276,#278);
#276 = ( REPRESENTATION_RELATIONSHIP('','',#216,#10) 
REPRESENTATION_RELATIONSHIP_WITH_TRANSFORMATION(#277) 
SHAPE_REPRESENTATION_RELATIONSHIP() );
#277 = ITEM_DEFINED_TRANSFORMATION('','',#11,#19);
#278 = PRODUCT_DEFINITION_SHAPE('Placement','Placement of an item',#279
  );
#279 = NEXT_ASSEMBLY_USAGE_OCCURRENCE('141','WIRE_YAW_SV_1','',#5,#211,$
  );
#280 = PRODUCT_RELATED_PRODUCT_CATEGORY('part',$,(#213));
#281 = SHAPE_DEFINITION_REPRESENTATION(#282,#288);
#282 = PRODUCT_DEFINITION_SHAPE('','',#283);
#283 = PRODUCT_DEFINITION('design','',#284,#287);
#284 = PRODUCT_DEFINITION_FORMATION('','',#285);
#285 = PRODUCT('WIRE_YAW_SV_2','WIRE_YAW_SV_2','',(#286));
#286 = PRODUCT_CONTEXT('',#2,'mechanical');
#287 = PRODUCT_DEFINITION_CONTEXT('part definition',#2,'design');
#288 = ADVANCED_BREP_SHAPE_REPRESENTATION('',(#11,#289),#342);
#289 = MANIFOLD_SOLID_BREP('',#290);
#290 = CLOSED_SHELL('',(#291,#324,#333));
#291 = ADVANCED_FACE('',(#292),#319,.T.);
#292 = FACE_BOUND('',#293,.F.);
#293 = EDGE_LOOP('',(#294,#304,#311,#312));
#294 = ORIENTED_EDGE('',*,*,#295,.T.);
#295 = EDGE_CURVE('',#296,#298,#300,.T.);
#296 = VERTEX_POINT('',#297);
#297 = CARTESIAN_POINT('',(1.,7.105427357601E-15,1.42108547152E-14));
#298 = VERTEX_POINT('',#299);
#299 = CARTESIAN_POINT('',(1.,0.,42.801869118065));
#300 = LINE('',#301,#302);
#301 = CARTESIAN_POINT('',(1.,-2.4E-16,0.));
#302 = VECTOR('',#303,1.);
#303 = DIRECTION('',(0.,0.,1.));
#304 = ORIENTED_EDGE('',*,*,#305,.T.);
#305 = EDGE_CURVE('',#298,#298,#306,.T.);
#306 = CIRCLE('',#307,1.);
#307 = AXIS2_PLACEMENT_3D('',#308,#309,#310);
#308 = CARTESIAN_POINT('',(0.,0.,42.801869118065));
#309 = DIRECTION('',(0.,0.,1.));
#310 = DIRECTION('',(1.,0.,0.));
#311 = ORIENTED_EDGE('',*,*,#295,.F.);
#312 = ORIENTED_EDGE('',*,*,#313,.F.);
#313 = EDGE_CURVE('',#296,#296,#314,.T.);
#314 = CIRCLE('',#315,1.);
#315 = AXIS2_PLACEMENT_3D('',#316,#317,#318);
#316 = CARTESIAN_POINT('',(0.,0.,0.));
#317 = DIRECTION('',(0.,0.,1.));
#318 = DIRECTION('',(1.,0.,-0.));
#319 = CYLINDRICAL_SURFACE('',#320,1.);
#320 = AXIS2_PLACEMENT_3D('',#321,#322,#323);
#321 = CARTESIAN_POINT('',(0.,0.,0.));
#322 = DIRECTION('',(-0.,-0.,-1.));
#323 = DIRECTION('',(1.,0.,-0.));
#324 = ADVANCED_FACE('',(#325),#328,.F.);
#325 = FACE_BOUND('',#326,.T.);
#326 = EDGE_LOOP('',(#327));
#327 = ORIENTED_EDGE('',*,*,#313,.F.);
#328 = PLANE('',#329);
#329 = AXIS2_PLACEMENT_3D('',#330,#331,#332);
#330 = CARTESIAN_POINT('',(0.,0.,0.));
#331 = DIRECTION('',(0.,0.,1.));
#332 = DIRECTION('',(1.,0.,-0.));
#333 = ADVANCED_FACE('',(#334),#337,.T.);
#334 = FACE_BOUND('',#335,.F.);
#335 = EDGE_LOOP('',(#336));
#336 = ORIENTED_EDGE('',*,*,#305,.F.);
#337 = PLANE('',#338);
#338 = AXIS2_PLACEMENT_3D('',#339,#340,#341);
#339 = CARTESIAN_POINT('',(0.,0.,42.801869118065));
#340 = DIRECTION('',(0.,0.,1.));
#341 = DIRECTION('',(1.,0.,0.));
#342 = ( GEOMETRIC_REPRESENTATION_CONTEXT(3) 
GLOBAL_UNCERTAINTY_ASSIGNED_CONTEXT((#346)) GLOBAL_UNIT_ASSIGNED_CONTEXT
((#343,#344,#345)) REPRESENTATION_CONTEXT('Context #1',
  '3D Context with UNIT and UNCERTAINTY') );
#343 = ( LENGTH_UNIT() NAMED_UNIT(*) SI_UNIT(.MILLI.,.METRE.) );
#344 = ( NAMED_UNIT(*) PLANE_ANGLE_UNIT() SI_UNIT($,.RADIAN.) );
#345 = ( NAMED_UNIT(*) SI_UNIT($,.STERADIAN.) SOLID_ANGLE_UNIT() );
#346 = UNCERTAINTY_MEASURE_WITH_UNIT(LENGTH_MEASURE(1.E-07),#343,
  'distance_accuracy_value','confusion accuracy');
#347 = CONTEXT_DEPENDENT_SHAPE_REPRESENTATION(#348,#350);
#348 = ( REPRESENTATION_RELATIONSHIP('','',#288,#10) 
REPRESENTATION_RELATIONSHIP_WITH_TRANSFORMATION(#349) 
SHAPE_REPRESENTATION_RELATIONSHIP() );
#349 = ITEM_DEFINED_TRANSFORMATION('','',#11,#23);
#350 = PRODUCT_DEFINITION_SHAPE('Placement','Placement of an item',#351
  );
#351 = NEXT_ASSEMBLY_USAGE_OCCURRENCE('142','WIRE_YAW_SV_2','',#5,#283,$
  );
#352 = PRODUCT_RELATED_PRODUCT_CATEGORY('part',$,(#285));
#353 = SHAPE_DEFINITION_REPRESENTATION(#354,#360);
#354 = PRODUCT_DEFINITION_SHAPE('','',#355);
#355 = PRODUCT_DEFINITION('design','',#356,#359);
#356 = PRODUCT_DEFINITION_FORMATION('','',#357);
#357 = PRODUCT('WIRE_YAW_SV_3','WIRE_YAW_SV_3','',(#358));
#358 = PRODUCT_CONTEXT('',#2,'mechanical');
#359 = PRODUCT_DEFINITION_CONTEXT('part definition',#2,'design');
#360 = ADVANCED_BREP_SHAPE_REPRESENTATION('',(#11,#361),#414);
#361 = MANIFOLD_SOLID_BREP('',#362);
#362 = CLOSED_SHELL('',(#363,#396,#405));
#363 = ADVANCED_FACE('',(#364),#391,.T.);
#364 = FACE_BOUND('',#365,.F.);
#365 = EDGE_LOOP('',(#366,#376,#383,#384));
#366 = ORIENTED_EDGE('',*,*,#367,.T.);
#367 = EDGE_CURVE('',#368,#370,#372,.T.);
#368 = VERTEX_POINT('',#369);
#369 = CARTESIAN_POINT('',(1.,0.,2.84217094304E-14));
#370 = VERTEX_POINT('',#371);
#371 = CARTESIAN_POINT('',(1.,0.,26.305892875932));
#372 = LINE('',#373,#374);
#373 = CARTESIAN_POINT('',(1.,-2.4E-16,0.));
#374 = VECTOR('',#375,1.);
#375 = DIRECTION('',(0.,0.,1.));
#376 = ORIENTED_EDGE('',*,*,#377,.T.);
#377 = EDGE_CURVE('',#370,#370,#378,.T.);
#378 = CIRCLE('',#379,1.);
#379 = AXIS2_PLACEMENT_3D('',#380,#381,#382);
#380 = CARTESIAN_POINT('',(0.,0.,26.305892875932));
#381 = DIRECTION('',(0.,0.,1.));
#382 = DIRECTION('',(1.,0.,0.));
#383 = ORIENTED_EDGE('',*,*,#367,.F.);
#384 = ORIENTED_EDGE('',*,*,#385,.F.);
#385 = EDGE_CURVE('',#368,#368,#386,.T.);
#386 = CIRCLE('',#387,1.);
#387 = AXIS2_PLACEMENT_3D('',#388,#389,#390);
#388 = CARTESIAN_POINT('',(0.,0.,0.));
#389 = DIRECTION('',(0.,0.,1.));
#390 = DIRECTION('',(1.,0.,-0.));
#391 = CYLINDRICAL_SURFACE('',#392,1.);
#392 = AXIS2_PLACEMENT_3D('',#393,#394,#395);
#393 = CARTESIAN_POINT('',(0.,0.,0.));
#394 = DIRECTION('',(-0.,-0.,-1.));
#395 = DIRECTION('',(1.,0.,-0.));
#396 = ADVANCED_FACE('',(#397),#400,.F.);
#397 = FACE_BOUND('',#398,.T.);
#398 = EDGE_LOOP('',(#399));
#399 = ORIENTED_EDGE('',*,*,#385,.F.);
#400 = PLANE('',#401);
#401 = AXIS2_PLACEMENT_3D('',#402,#403,#404);
#402 = CARTESIAN_POINT('',(0.,0.,0.));
#403 = DIRECTION('',(0.,0.,1.));
#404 = DIRECTION('',(1.,0.,-0.));
#405 = ADVANCED_FACE('',(#406),#409,.T.);
#406 = FACE_BOUND('',#407,.F.);
#407 = EDGE_LOOP('',(#408));
#408 = ORIENTED_EDGE('',*,*,#377,.F.);
#409 = PLANE('',#410);
#410 = AXIS2_PLACEMENT_3D('',#411,#412,#413);
#411 = CARTESIAN_POINT('',(0.,0.,26.305892875932));
#412 = DIRECTION('',(0.,0.,1.));
#413 = DIRECTION('',(1.,0.,0.));
#414 = ( GEOMETRIC_REPRESENTATION_CONTEXT(3) 
GLOBAL_UNCERTAINTY_ASSIGNED_CONTEXT((#418)) GLOBAL_UNIT_ASSIGNED_CONTEXT
((#415,#416,#417)) REPRESENTATION_CONTEXT('Context #1',
  '3D Context with UNIT and UNCERTAINTY') );
#415 = ( LENGTH_UNIT() NAMED_UNIT(*) SI_UNIT(.MILLI.,.METRE.) );
#416 = ( NAMED_UNIT(*) PLANE_ANGLE_UNIT() SI_UNIT($,.RADIAN.) );
#417 = ( NAMED_UNIT(*) SI_UNIT($,.STERADIAN.) SOLID_ANGLE_UNIT() );
#418 = UNCERTAINTY_MEASURE_WITH_UNIT(LENGTH_MEASURE(1.E-07),#415,
  'distance_accuracy_value','confusion accuracy');
#419 = CONTEXT_DEPENDENT_SHAPE_REPRESENTATION(#420,#422);
#420 = ( REPRESENTATION_RELATIONSHIP('','',#360,#10) 
REPRESENTATION_RELATIONSHIP_WITH_TRANSFORMATION(#421) 
SHAPE_REPRESENTATION_RELATIONSHIP() );
#421 = ITEM_DEFINED_TRANSFORMATION('','',#11,#27);
#422 = PRODUCT_DEFINITION_SHAPE('Placement','Placement of an item',#423
  );
#423 = NEXT_ASSEMBLY_USAGE_OCCURRENCE('143','WIRE_YAW_SV_3','',#5,#355,$
  );
#424 = PRODUCT_RELATED_PRODUCT_CATEGORY('part',$,(#357));
#425 = SHAPE_DEFINITION_REPRESENTATION(#426,#432);
#426 = PRODUCT_DEFINITION_SHAPE('','',#427);
#427 = PRODUCT_DEFINITION('design','',#428,#431);
#428 = PRODUCT_DEFINITION_FORMATION('','',#429);
#429 = PRODUCT('WIRE_YAW_SV_4','WIRE_YAW_SV_4','',(#430));
#430 = PRODUCT_CONTEXT('',#2,'mechanical');
#431 = PRODUCT_DEFINITION_CONTEXT('part definition',#2,'design');
#432 = ADVANCED_BREP_SHAPE_REPRESENTATION('',(#11,#433),#486);
#433 = MANIFOLD_SOLID_BREP('',#434);
#434 = CLOSED_SHELL('',(#435,#468,#477));
#435 = ADVANCED_FACE('',(#436),#463,.T.);
#436 = FACE_BOUND('',#437,.F.);
#437 = EDGE_LOOP('',(#438,#448,#455,#456));
#438 = ORIENTED_EDGE('',*,*,#439,.T.);
#439 = EDGE_CURVE('',#440,#442,#444,.T.);
#440 = VERTEX_POINT('',#441);
#441 = CARTESIAN_POINT('',(1.,1.42108547152E-14,0.));
#442 = VERTEX_POINT('',#443);
#443 = CARTESIAN_POINT('',(1.,0.,8.485281374239));
#444 = LINE('',#445,#446);
#445 = CARTESIAN_POINT('',(1.,-2.4E-16,0.));
#446 = VECTOR('',#447,1.);
#447 = DIRECTION('',(0.,0.,1.));
#448 = ORIENTED_EDGE('',*,*,#449,.T.);
#449 = EDGE_CURVE('',#442,#442,#450,.T.);
#450 = CIRCLE('',#451,1.);
#451 = AXIS2_PLACEMENT_3D('',#452,#453,#454);
#452 = CARTESIAN_POINT('',(0.,0.,8.485281374239));
#453 = DIRECTION('',(0.,0.,1.));
#454 = DIRECTION('',(1.,0.,0.));
#455 = ORIENTED_EDGE('',*,*,#439,.F.);
#456 = ORIENTED_EDGE('',*,*,#457,.F.);
#457 = EDGE_CURVE('',#440,#440,#458,.T.);
#458 = CIRCLE('',#459,1.);
#459 = AXIS2_PLACEMENT_3D('',#460,#461,#462);
#460 = CARTESIAN_POINT('',(0.,0.,0.));
#461 = DIRECTION('',(0.,0.,1.));
#462 = DIRECTION('',(1.,0.,-0.));
#463 = CYLINDRICAL_SURFACE('',#464,1.);
#464 = AXIS2_PLACEMENT_3D('',#465,#466,#467);
#465 = CARTESIAN_POINT('',(0.,0.,0.));
#466 = DIRECTION('',(-0.,-0.,-1.));
#467 = DIRECTION('',(1.,0.,-0.));
#468 = ADVANCED_FACE('',(#469),#472,.F.);
#469 = FACE_BOUND('',#470,.T.);
#470 = EDGE_LOOP('',(#471));
#471 = ORIENTED_EDGE('',*,*,#457,.F.);
#472 = PLANE('',#473);
#473 = AXIS2_PLACEMENT_3D('',#474,#475,#476);
#474 = CARTESIAN_POINT('',(0.,0.,0.));
#475 = DIRECTION('',(0.,0.,1.));
#476 = DIRECTION('',(1.,0.,-0.));
#477 = ADVANCED_FACE('',(#478),#481,.T.);
#478 = FACE_BOUND('',#479,.F.);
#479 = EDGE_LOOP('',(#480));
#480 = ORIENTED_EDGE('',*,*,#449,.F.);
#481 = PLANE('',#482);
#482 = AXIS2_PLACEMENT_3D('',#483,#484,#485);
#483 = CARTESIAN_POINT('',(0.,0.,8.485281374239));
#484 = DIRECTION('',(0.,0.,1.));
#485 = DIRECTION('',(1.,0.,0.));
#486 = ( GEOMETRIC_REPRESENTATION_CONTEXT(3) 
GLOBAL_UNCERTAINTY_ASSIGNED_CONTEXT((#490)) GLOBAL_UNIT_ASSIGNED_CONTEXT
((#487,#488,#489)) REPRESENTATION_CONTEXT('Context #1',
  '3D Context with UNIT and UNCERTAINTY') );
#487 = ( LENGTH_UNIT() NAMED_UNIT(*) SI_UNIT(.MILLI.,.METRE.) );
#488 = ( NAMED_UNIT(*) PLANE_ANGLE_UNIT() SI_UNIT($,.RADIAN.) );
#489 = ( NAMED_UNIT(*) SI_UNIT($,.STERADIAN.) SOLID_ANGLE_UNIT() );
#490 = UNCERTAINTY_MEASURE_WITH_UNIT(LENGTH_MEASURE(1.E-07),#487,
  'distance_accuracy_value','confusion accuracy');
#491 = CONTEXT_DEPENDENT_SHAPE_REPRESENTATION(#492,#494);
#492 = ( REPRESENTATION_RELATIONSHIP('','',#432,#10) 
REPRESENTATION_RELATIONSHIP_WITH_TRANSFORMATION(#493) 
SHAPE_REPRESENTATION_RELATIONSHIP() );
#493 = ITEM_DEFINED_TRANSFORMATION('','',#11,#31);
#494 = PRODUCT_DEFINITION_SHAPE('Placement','Placement of an item',#495
  );
#495 = NEXT_ASSEMBLY_USAGE_OCCURRENCE('144','WIRE_YAW_SV_4','',#5,#427,$
  );
#496 = PRODUCT_RELATED_PRODUCT_CATEGORY('part',$,(#429));
ENDSEC;
END-ISO-10303-21;
