ISO-10303-21;
HEADER;
FILE_DESCRIPTION(('FreeCAD Model'),'2;1');
FILE_NAME('Open CASCADE Shape Model','2026-09-26T16:59:08',('Author'),(
    ''),'Open CASCADE STEP processor 7.8','FreeCAD','Unknown');
FILE_SCHEMA(('AUTOMOTIVE_DESIGN { 1 0 10303 214 1 1 1 1 }'));
ENDSEC;
DATA;
#1 = APPLICATION_PROTOCOL_DEFINITION('international standard',
  'automotive_design',2000,#2);
#2 = APPLICATION_CONTEXT(
  'core data for automotive mechanical design processes');
#3 = SHAPE_DEFINITION_REPRESENTATION(#4,#10);
#4 = PRODUCT_DEFINITION_SHAPE('','',#5);
#5 = PRODUCT_DEFINITION('design','',#6,#9);
#6 = PRODUCT_DEFINITION_FORMATION('','',#7);
#7 = PRODUCT('WIRE_MTR_RL','WIRE_MTR_RL','',(#8));
#8 = PRODUCT_CONTEXT('',#2,'mechanical');
#9 = PRODUCT_DEFINITION_CONTEXT('part definition',#2,'design');
#10 = SHAPE_REPRESENTATION('',(#11,#15,#164,#217),#270);
#11 = AXIS2_PLACEMENT_3D('',#12,#13,#14);
#12 = CARTESIAN_POINT('',(0.,0.,0.));
#13 = DIRECTION('',(0.,0.,1.));
#14 = DIRECTION('',(1.,0.,-0.));
#15 = MANIFOLD_SOLID_BREP('',#16);
#16 = CLOSED_SHELL('',(#17,#77,#86,#102,#144,#155));
#17 = ADVANCED_FACE('',(#18),#72,.T.);
#18 = FACE_BOUND('',#19,.F.);
#19 = EDGE_LOOP('',(#20,#29,#37,#46,#55,#64,#71));
#20 = ORIENTED_EDGE('',*,*,#21,.F.);
#21 = EDGE_CURVE('',#22,#22,#24,.T.);
#22 = VERTEX_POINT('',#23);
#23 = CARTESIAN_POINT('',(-111.7202573369,116.04042049528,
    47.194546983645));
#24 = CIRCLE('',#25,1.5);
#25 = AXIS2_PLACEMENT_3D('',#26,#27,#28);
#26 = CARTESIAN_POINT('',(-111.,115.,48.));
#27 = DIRECTION('',(0.53696867757,-0.251625434663,-0.80520139092));
#28 = DIRECTION('',(-0.480171557965,0.693613663526,-0.53696867757));
#29 = ORIENTED_EDGE('',*,*,#30,.T.);
#30 = EDGE_CURVE('',#22,#31,#33,.T.);
#31 = VERTEX_POINT('',#32);
#32 = CARTESIAN_POINT('',(-101.0502573369,111.04042049528,
    31.194546983645));
#33 = LINE('',#34,#35);
#34 = CARTESIAN_POINT('',(-111.7202573369,116.04042049528,
    47.194546983645));
#35 = VECTOR('',#36,1.);
#36 = DIRECTION('',(0.53696867757,-0.251625434663,-0.80520139092));
#37 = ORIENTED_EDGE('',*,*,#38,.T.);
#38 = EDGE_CURVE('',#31,#39,#41,.T.);
#39 = VERTEX_POINT('',#40);
#40 = CARTESIAN_POINT('',(-99.31036156538,111.04146943015,
    32.354512184161));
#41 = CIRCLE('',#42,1.5);
#42 = AXIS2_PLACEMENT_3D('',#43,#44,#45);
#43 = CARTESIAN_POINT('',(-100.33,110.,32.));
#44 = DIRECTION('',(0.53696867757,-0.251625434663,-0.80520139092));
#45 = DIRECTION('',(-0.480171557965,0.693613663526,-0.53696867757));
#46 = ORIENTED_EDGE('',*,*,#47,.F.);
#47 = EDGE_CURVE('',#48,#39,#50,.T.);
#48 = VERTEX_POINT('',#49);
#49 = CARTESIAN_POINT('',(-100.2772119994,109.31505318071,
    33.860377523635));
#50 = ELLIPSE('',#51,1.983164957511,1.5);
#51 = AXIS2_PLACEMENT_3D('',#52,#53,#54);
#52 = CARTESIAN_POINT('',(-100.33,110.,32.));
#53 = DIRECTION('',(-0.732952413291,0.631380806889,0.253256858825));
#54 = DIRECTION('',(2.661805836995E-02,-0.345380658673,0.938085113187));
#55 = ORIENTED_EDGE('',*,*,#56,.F.);
#56 = EDGE_CURVE('',#57,#48,#59,.T.);
#57 = VERTEX_POINT('',#58);
#58 = CARTESIAN_POINT('',(-101.3496384346,108.95853056984,
    31.645487815839));
#59 = ELLIPSE('',#60,1.983164957511,1.5);
#60 = AXIS2_PLACEMENT_3D('',#61,#62,#63);
#61 = CARTESIAN_POINT('',(-100.33,110.,32.));
#62 = DIRECTION('',(-0.732952413291,0.631380806889,0.253256858825));
#63 = DIRECTION('',(2.661805836995E-02,-0.345380658673,0.938085113187));
#64 = ORIENTED_EDGE('',*,*,#65,.T.);
#65 = EDGE_CURVE('',#57,#31,#66,.T.);
#66 = CIRCLE('',#67,1.5);
#67 = AXIS2_PLACEMENT_3D('',#68,#69,#70);
#68 = CARTESIAN_POINT('',(-100.33,110.,32.));
#69 = DIRECTION('',(0.53696867757,-0.251625434663,-0.80520139092));
#70 = DIRECTION('',(-0.480171557965,0.693613663526,-0.53696867757));
#71 = ORIENTED_EDGE('',*,*,#30,.F.);
#72 = CYLINDRICAL_SURFACE('',#73,1.5);
#73 = AXIS2_PLACEMENT_3D('',#74,#75,#76);
#74 = CARTESIAN_POINT('',(-111.,115.,48.));
#75 = DIRECTION('',(-0.53696867757,0.251625434663,0.80520139092));
#76 = DIRECTION('',(-0.480171557965,0.693613663526,-0.53696867757));
#77 = ADVANCED_FACE('',(#78),#81,.F.);
#78 = FACE_BOUND('',#79,.T.);
#79 = EDGE_LOOP('',(#80));
#80 = ORIENTED_EDGE('',*,*,#21,.F.);
#81 = PLANE('',#82);
#82 = AXIS2_PLACEMENT_3D('',#83,#84,#85);
#83 = CARTESIAN_POINT('',(-111.,115.,48.));
#84 = DIRECTION('',(0.53696867757,-0.251625434663,-0.80520139092));
#85 = DIRECTION('',(-0.480171557965,0.693613663526,-0.53696867757));
#86 = ADVANCED_FACE('',(#87),#97,.T.);
#87 = FACE_BOUND('',#88,.T.);
#88 = EDGE_LOOP('',(#89,#90,#91));
#89 = ORIENTED_EDGE('',*,*,#65,.T.);
#90 = ORIENTED_EDGE('',*,*,#38,.T.);
#91 = ORIENTED_EDGE('',*,*,#92,.T.);
#92 = EDGE_CURVE('',#39,#57,#93,.T.);
#93 = LINE('',#94,#95);
#94 = CARTESIAN_POINT('',(-100.33,110.,32.));
#95 = VECTOR('',#96,1.);
#96 = DIRECTION('',(-0.679758956409,-0.694312953434,-0.236341456107));
#97 = PLANE('',#98);
#98 = AXIS2_PLACEMENT_3D('',#99,#100,#101);
#99 = CARTESIAN_POINT('',(-100.33,110.,32.));
#100 = DIRECTION('',(0.53696867757,-0.251625434663,-0.80520139092));
#101 = DIRECTION('',(-0.480171557965,0.693613663526,-0.53696867757));
#102 = ADVANCED_FACE('',(#103),#139,.T.);
#103 = FACE_BOUND('',#104,.F.);
#104 = EDGE_LOOP('',(#105,#114,#122,#129,#130,#137,#138));
#105 = ORIENTED_EDGE('',*,*,#106,.F.);
#106 = EDGE_CURVE('',#107,#39,#109,.T.);
#107 = VERTEX_POINT('',#108);
#108 = CARTESIAN_POINT('',(-99.17485887638,110.42428503491,
    31.142310549401));
#109 = CIRCLE('',#110,1.5);
#110 = AXIS2_PLACEMENT_3D('',#111,#112,#113);
#111 = CARTESIAN_POINT('',(-100.33,110.,32.));
#112 = DIRECTION('',(0.571792967066,-0.703485441765,0.422091265059));
#113 = DIRECTION('',(0.770094082413,0.282856689945,-0.571792967066));
#114 = ORIENTED_EDGE('',*,*,#115,.T.);
#115 = EDGE_CURVE('',#107,#116,#118,.T.);
#116 = VERTEX_POINT('',#117);
#117 = CARTESIAN_POINT('',(-58.53485887638,60.424285034918,
    61.142310549401));
#118 = LINE('',#119,#120);
#119 = CARTESIAN_POINT('',(-99.17485887638,110.42428503491,
    31.142310549401));
#120 = VECTOR('',#121,1.);
#121 = DIRECTION('',(0.571792967066,-0.703485441765,0.422091265059));
#122 = ORIENTED_EDGE('',*,*,#123,.T.);
#123 = EDGE_CURVE('',#116,#116,#124,.T.);
#124 = CIRCLE('',#125,1.5);
#125 = AXIS2_PLACEMENT_3D('',#126,#127,#128);
#126 = CARTESIAN_POINT('',(-59.69,60.,62.));
#127 = DIRECTION('',(0.571792967066,-0.703485441765,0.422091265059));
#128 = DIRECTION('',(0.770094082413,0.282856689945,-0.571792967066));
#129 = ORIENTED_EDGE('',*,*,#115,.F.);
#130 = ORIENTED_EDGE('',*,*,#131,.F.);
#131 = EDGE_CURVE('',#57,#107,#132,.T.);
#132 = CIRCLE('',#133,1.5);
#133 = AXIS2_PLACEMENT_3D('',#134,#135,#136);
#134 = CARTESIAN_POINT('',(-100.33,110.,32.));
#135 = DIRECTION('',(0.571792967066,-0.703485441765,0.422091265059));
#136 = DIRECTION('',(0.770094082413,0.282856689945,-0.571792967066));
#137 = ORIENTED_EDGE('',*,*,#56,.T.);
#138 = ORIENTED_EDGE('',*,*,#47,.T.);
#139 = CYLINDRICAL_SURFACE('',#140,1.5);
#140 = AXIS2_PLACEMENT_3D('',#141,#142,#143);
#141 = CARTESIAN_POINT('',(-100.33,110.,32.));
#142 = DIRECTION('',(-0.571792967066,0.703485441765,-0.422091265059));
#143 = DIRECTION('',(0.770094082413,0.282856689945,-0.571792967066));
#144 = ADVANCED_FACE('',(#145),#150,.F.);
#145 = FACE_BOUND('',#146,.F.);
#146 = EDGE_LOOP('',(#147,#148,#149));
#147 = ORIENTED_EDGE('',*,*,#131,.T.);
#148 = ORIENTED_EDGE('',*,*,#106,.T.);
#149 = ORIENTED_EDGE('',*,*,#92,.T.);
#150 = PLANE('',#151);
#151 = AXIS2_PLACEMENT_3D('',#152,#153,#154);
#152 = CARTESIAN_POINT('',(-100.33,110.,32.));
#153 = DIRECTION('',(0.571792967066,-0.703485441765,0.422091265059));
#154 = DIRECTION('',(0.770094082413,0.282856689945,-0.571792967066));
#155 = ADVANCED_FACE('',(#156),#159,.T.);
#156 = FACE_BOUND('',#157,.F.);
#157 = EDGE_LOOP('',(#158));
#158 = ORIENTED_EDGE('',*,*,#123,.F.);
#159 = PLANE('',#160);
#160 = AXIS2_PLACEMENT_3D('',#161,#162,#163);
#161 = CARTESIAN_POINT('',(-59.69,60.,62.));
#162 = DIRECTION('',(0.571792967066,-0.703485441765,0.422091265059));
#163 = DIRECTION('',(0.770094082413,0.282856689945,-0.571792967066));
#164 = MANIFOLD_SOLID_BREP('',#165);
#165 = CLOSED_SHELL('',(#166,#199,#208));
#166 = ADVANCED_FACE('',(#167),#194,.T.);
#167 = FACE_BOUND('',#168,.F.);
#168 = EDGE_LOOP('',(#169,#179,#186,#187));
#169 = ORIENTED_EDGE('',*,*,#170,.T.);
#170 = EDGE_CURVE('',#171,#173,#175,.T.);
#171 = VERTEX_POINT('',#172);
#172 = CARTESIAN_POINT('',(-59.08281105547,59.773283124562,
    60.647254257432));
#173 = VERTEX_POINT('',#174);
#174 = CARTESIAN_POINT('',(-39.39281105547,64.773283124562,
    68.647254257432));
#175 = LINE('',#176,#177);
#176 = CARTESIAN_POINT('',(-59.08281105547,59.773283124562,
    60.647254257432));
#177 = VECTOR('',#178,1.);
#178 = DIRECTION('',(0.901830495045,0.229007235918,0.366411577469));
#179 = ORIENTED_EDGE('',*,*,#180,.T.);
#180 = EDGE_CURVE('',#173,#173,#181,.T.);
#181 = CIRCLE('',#182,1.5);
#182 = AXIS2_PLACEMENT_3D('',#183,#184,#185);
#183 = CARTESIAN_POINT('',(-40.,65.,70.));
#184 = DIRECTION('',(0.901830495045,0.229007235918,0.366411577469));
#185 = DIRECTION('',(0.404792629685,-0.151144583625,-0.901830495045));
#186 = ORIENTED_EDGE('',*,*,#170,.F.);
#187 = ORIENTED_EDGE('',*,*,#188,.F.);
#188 = EDGE_CURVE('',#171,#171,#189,.T.);
#189 = CIRCLE('',#190,1.5);
#190 = AXIS2_PLACEMENT_3D('',#191,#192,#193);
#191 = CARTESIAN_POINT('',(-59.69,60.,62.));
#192 = DIRECTION('',(0.901830495045,0.229007235918,0.366411577469));
#193 = DIRECTION('',(0.404792629685,-0.151144583625,-0.901830495045));
#194 = CYLINDRICAL_SURFACE('',#195,1.5);
#195 = AXIS2_PLACEMENT_3D('',#196,#197,#198);
#196 = CARTESIAN_POINT('',(-59.69,60.,62.));
#197 = DIRECTION('',(-0.901830495045,-0.229007235918,-0.366411577469));
#198 = DIRECTION('',(0.404792629685,-0.151144583625,-0.901830495045));
#199 = ADVANCED_FACE('',(#200),#203,.F.);
#200 = FACE_BOUND('',#201,.T.);
#201 = EDGE_LOOP('',(#202));
#202 = ORIENTED_EDGE('',*,*,#188,.F.);
#203 = PLANE('',#204);
#204 = AXIS2_PLACEMENT_3D('',#205,#206,#207);
#205 = CARTESIAN_POINT('',(-59.69,60.,62.));
#206 = DIRECTION('',(0.901830495045,0.229007235918,0.366411577469));
#207 = DIRECTION('',(0.404792629685,-0.151144583625,-0.901830495045));
#208 = ADVANCED_FACE('',(#209),#212,.T.);
#209 = FACE_BOUND('',#210,.F.);
#210 = EDGE_LOOP('',(#211));
#211 = ORIENTED_EDGE('',*,*,#180,.F.);
#212 = PLANE('',#213);
#213 = AXIS2_PLACEMENT_3D('',#214,#215,#216);
#214 = CARTESIAN_POINT('',(-40.,65.,70.));
#215 = DIRECTION('',(0.901830495045,0.229007235918,0.366411577469));
#216 = DIRECTION('',(0.404792629685,-0.151144583625,-0.901830495045));
#217 = MANIFOLD_SOLID_BREP('',#218);
#218 = CLOSED_SHELL('',(#219,#252,#261));
#219 = ADVANCED_FACE('',(#220),#247,.T.);
#220 = FACE_BOUND('',#221,.F.);
#221 = EDGE_LOOP('',(#222,#232,#239,#240));
#222 = ORIENTED_EDGE('',*,*,#223,.T.);
#223 = EDGE_CURVE('',#224,#226,#228,.T.);
#224 = VERTEX_POINT('',#225);
#225 = CARTESIAN_POINT('',(-38.5,65.,70.));
#226 = VERTEX_POINT('',#227);
#227 = CARTESIAN_POINT('',(-38.5,73.,45.));
#228 = LINE('',#229,#230);
#229 = CARTESIAN_POINT('',(-38.5,65.,70.));
#230 = VECTOR('',#231,1.);
#231 = DIRECTION('',(0.,0.304775727104,-0.952424147199));
#232 = ORIENTED_EDGE('',*,*,#233,.T.);
#233 = EDGE_CURVE('',#226,#226,#234,.T.);
#234 = CIRCLE('',#235,1.5);
#235 = AXIS2_PLACEMENT_3D('',#236,#237,#238);
#236 = CARTESIAN_POINT('',(-40.,73.,45.));
#237 = DIRECTION('',(0.,0.304775727104,-0.952424147199));
#238 = DIRECTION('',(1.,0.,0.));
#239 = ORIENTED_EDGE('',*,*,#223,.F.);
#240 = ORIENTED_EDGE('',*,*,#241,.F.);
#241 = EDGE_CURVE('',#224,#224,#242,.T.);
#242 = CIRCLE('',#243,1.5);
#243 = AXIS2_PLACEMENT_3D('',#244,#245,#246);
#244 = CARTESIAN_POINT('',(-40.,65.,70.));
#245 = DIRECTION('',(0.,0.304775727104,-0.952424147199));
#246 = DIRECTION('',(1.,0.,0.));
#247 = CYLINDRICAL_SURFACE('',#248,1.5);
#248 = AXIS2_PLACEMENT_3D('',#249,#250,#251);
#249 = CARTESIAN_POINT('',(-40.,65.,70.));
#250 = DIRECTION('',(-0.,-0.304775727104,0.952424147199));
#251 = DIRECTION('',(1.,0.,0.));
#252 = ADVANCED_FACE('',(#253),#256,.F.);
#253 = FACE_BOUND('',#254,.T.);
#254 = EDGE_LOOP('',(#255));
#255 = ORIENTED_EDGE('',*,*,#241,.F.);
#256 = PLANE('',#257);
#257 = AXIS2_PLACEMENT_3D('',#258,#259,#260);
#258 = CARTESIAN_POINT('',(-40.,65.,70.));
#259 = DIRECTION('',(0.,0.304775727104,-0.952424147199));
#260 = DIRECTION('',(1.,0.,0.));
#261 = ADVANCED_FACE('',(#262),#265,.T.);
#262 = FACE_BOUND('',#263,.F.);
#263 = EDGE_LOOP('',(#264));
#264 = ORIENTED_EDGE('',*,*,#233,.F.);
#265 = PLANE('',#266);
#266 = AXIS2_PLACEMENT_3D('',#267,#268,#269);
#267 = CARTESIAN_POINT('',(-40.,73.,45.));
#268 = DIRECTION('',(0.,0.304775727104,-0.952424147199));
#269 = DIRECTION('',(1.,0.,0.));
#270 = ( GEOMETRIC_REPRESENTATION_CONTEXT(3) 
GLOBAL_UNCERTAINTY_ASSIGNED_CONTEXT((#274)) GLOBAL_UNIT_ASSIGNED_CONTEXT
((#271,#272,#273)) REPRESENTATION_CONTEXT('Context #1',
  '3D Context with UNIT and UNCERTAINTY') );
#271 = ( LENGTH_UNIT() NAMED_UNIT(*) SI_UNIT(.MILLI.,.METRE.) );
#272 = ( NAMED_UNIT(*) PLANE_ANGLE_UNIT() SI_UNIT($,.RADIAN.) );
#273 = ( NAMED_UNIT(*) SI_UNIT($,.STERADIAN.) SOLID_ANGLE_UNIT() );
#274 = UNCERTAINTY_MEASURE_WITH_UNIT(LENGTH_MEASURE(1.E-05),#271,
  'distance_accuracy_value','confusion accuracy');
#275 = PRODUCT_RELATED_PRODUCT_CATEGORY('part',$,(#7));
ENDSEC;
END-ISO-10303-21;
