ISO-10303-21;
HEADER;
FILE_DESCRIPTION(('FreeCAD Model'),'2;1');
FILE_NAME('Open CASCADE Shape Model','2026-09-28T13:05:56',('Author'),(
    ''),'Open CASCADE STEP processor 7.8','FreeCAD','Unknown');
FILE_SCHEMA(('AUTOMOTIVE_DESIGN { 1 0 10303 214 1 1 1 1 }'));
ENDSEC;
DATA;
#1 = APPLICATION_PROTOCOL_DEFINITION('international standard',
  'automotive_design',2000,#2);
#2 = APPLICATION_CONTEXT(
  'core data for automotive mechanical design processes');
#3 = SHAPE_DEFINITION_REPRESENTATION(#4,#10);
#4 = PRODUCT_DEFINITION_SHAPE('','',#5);
#5 = PRODUCT_DEFINITION('design','',#6,#9);
#6 = PRODUCT_DEFINITION_FORMATION('','',#7);
#7 = PRODUCT('master_robot','master_robot','',(#8));
#8 = PRODUCT_CONTEXT('',#2,'mechanical');
#9 = PRODUCT_DEFINITION_CONTEXT('part definition',#2,'design');
#10 = SHAPE_REPRESENTATION('',(#11,#15,#19,#23,#27,#31,#35,#39,#43),#47
  );
#11 = AXIS2_PLACEMENT_3D('',#12,#13,#14);
#12 = CARTESIAN_POINT('',(0.,0.,0.));
#13 = DIRECTION('',(0.,0.,1.));
#14 = DIRECTION('',(1.,0.,-0.));
#15 = AXIS2_PLACEMENT_3D('',#16,#17,#18);
#16 = CARTESIAN_POINT('',(0.,0.,0.));
#17 = DIRECTION('',(0.,0.,1.));
#18 = DIRECTION('',(1.,0.,0.));
#19 = AXIS2_PLACEMENT_3D('',#20,#21,#22);
#20 = CARTESIAN_POINT('',(101.6,-75.,42.));
#21 = DIRECTION('',(-0.748891082866,0.659051902476,-6.937388447115E-02)
  );
#22 = DIRECTION('',(0.39735427081,0.530350572238,0.748891082866));
#23 = AXIS2_PLACEMENT_3D('',#24,#25,#26);
#24 = CARTESIAN_POINT('',(80.01,-56.,40.));
#25 = DIRECTION('',(-0.920840049537,0.378297863555,-9.457446588878E-02)
  );
#26 = DIRECTION('',(6.348300894359E-02,0.384738236654,0.920840049537));
#27 = AXIS2_PLACEMENT_3D('',#28,#29,#30);
#28 = CARTESIAN_POINT('',(50.8,-44.,37.));
#29 = DIRECTION('',(-0.989068385109,-0.145451233104,-2.424187218404E-02)
  );
#30 = DIRECTION('',(-2.560206811809E-03,-0.147435324531,0.989068385109)
  );
#31 = AXIS2_PLACEMENT_3D('',#32,#33,#34);
#32 = CARTESIAN_POINT('',(10.,-50.,36.));
#33 = DIRECTION('',(-0.948683298051,0.316227766017,1.387778780781E-17));
#34 = DIRECTION('',(1.E-01,0.3,0.948683298051));
#35 = AXIS2_PLACEMENT_3D('',#36,#37,#38);
#36 = CARTESIAN_POINT('',(-20.,-40.,36.));
#37 = DIRECTION('',(-0.99380799,4.96903995E-02,9.938079899999E-02));
#38 = DIRECTION('',(0.10162673217,4.491866339152E-02,0.99380799));
#39 = AXIS2_PLACEMENT_3D('',#40,#41,#42);
#40 = CARTESIAN_POINT('',(-60.,-38.,40.));
#41 = DIRECTION('',(-0.999001497504,1.998002995009E-02,
    3.996005990017E-02));
#42 = DIRECTION('',(4.034392233124E-02,1.919312155337E-02,0.999001497504
    ));
#43 = AXIS2_PLACEMENT_3D('',#44,#45,#46);
#44 = CARTESIAN_POINT('',(-110.,-37.,42.));
#45 = DIRECTION('',(0.97849210958,-6.523280730534E-02,0.195698421916));
#46 = DIRECTION('',(0.199257278456,5.338284810292E-02,-0.97849210958));
#47 = ( GEOMETRIC_REPRESENTATION_CONTEXT(3) 
GLOBAL_UNCERTAINTY_ASSIGNED_CONTEXT((#51)) GLOBAL_UNIT_ASSIGNED_CONTEXT(
(#48,#49,#50)) REPRESENTATION_CONTEXT('Context #1',
  '3D Context with UNIT and UNCERTAINTY') );
#48 = ( LENGTH_UNIT() NAMED_UNIT(*) SI_UNIT(.MILLI.,.METRE.) );
#49 = ( NAMED_UNIT(*) PLANE_ANGLE_UNIT() SI_UNIT($,.RADIAN.) );
#50 = ( NAMED_UNIT(*) SI_UNIT($,.STERADIAN.) SOLID_ANGLE_UNIT() );
#51 = UNCERTAINTY_MEASURE_WITH_UNIT(LENGTH_MEASURE(1.E-05),#48,
  'distance_accuracy_value','confusion accuracy');
#52 = PRODUCT_RELATED_PRODUCT_CATEGORY('part',$,(#7));
#53 = SHAPE_DEFINITION_REPRESENTATION(#54,#60);
#54 = PRODUCT_DEFINITION_SHAPE('','',#55);
#55 = PRODUCT_DEFINITION('design','',#56,#59);
#56 = PRODUCT_DEFINITION_FORMATION('','',#57);
#57 = PRODUCT('WIRE_MTR_FR_0','WIRE_MTR_FR_0','',(#58));
#58 = PRODUCT_CONTEXT('',#2,'mechanical');
#59 = PRODUCT_DEFINITION_CONTEXT('part definition',#2,'design');
#60 = ADVANCED_BREP_SHAPE_REPRESENTATION('',(#11,#61),#210);
#61 = MANIFOLD_SOLID_BREP('',#62);
#62 = CLOSED_SHELL('',(#63,#123,#132,#148,#190,#201));
#63 = ADVANCED_FACE('',(#64),#118,.T.);
#64 = FACE_BOUND('',#65,.F.);
#65 = EDGE_LOOP('',(#66,#75,#83,#92,#101,#110,#117));
#66 = ORIENTED_EDGE('',*,*,#67,.F.);
#67 = EDGE_CURVE('',#68,#68,#70,.T.);
#68 = VERTEX_POINT('',#69);
#69 = CARTESIAN_POINT('',(112.42899145109,-109.6507776283,
    48.293303883074));
#70 = CIRCLE('',#71,1.5);
#71 = AXIS2_PLACEMENT_3D('',#72,#73,#74);
#72 = CARTESIAN_POINT('',(111.,-110.,48.));
#73 = DIRECTION('',(-0.195535922049,0.961652075651,-0.19233041513));
#74 = DIRECTION('',(0.952660967396,0.232814914447,0.195535922049));
#75 = ORIENTED_EDGE('',*,*,#76,.T.);
#76 = EDGE_CURVE('',#68,#77,#79,.T.);
#77 = VERTEX_POINT('',#78);
#78 = CARTESIAN_POINT('',(109.37899145109,-94.65077762833,
    45.293303883074));
#79 = LINE('',#80,#81);
#80 = CARTESIAN_POINT('',(112.42899145109,-109.6507776283,
    48.293303883074));
#81 = VECTOR('',#82,1.);
#82 = DIRECTION('',(-0.195535922049,0.961652075651,-0.19233041513));
#83 = ORIENTED_EDGE('',*,*,#84,.T.);
#84 = EDGE_CURVE('',#77,#85,#87,.T.);
#85 = VERTEX_POINT('',#86);
#86 = CARTESIAN_POINT('',(107.36829044415,-95.38392830685,
    43.671763180818));
#87 = CIRCLE('',#88,1.5);
#88 = AXIS2_PLACEMENT_3D('',#89,#90,#91);
#89 = CARTESIAN_POINT('',(107.95,-95.,45.));
#90 = DIRECTION('',(-0.195535922049,0.961652075651,-0.19233041513));
#91 = DIRECTION('',(0.952660967396,0.232814914447,0.195535922049));
#92 = ORIENTED_EDGE('',*,*,#93,.F.);
#93 = EDGE_CURVE('',#94,#85,#96,.T.);
#94 = VERTEX_POINT('',#95);
#95 = CARTESIAN_POINT('',(106.61607214647,-95.23250116702,
    45.651406696538));
#96 = ELLIPSE('',#97,1.502581443839,1.5);
#97 = AXIS2_PLACEMENT_3D('',#98,#99,#100);
#98 = CARTESIAN_POINT('',(107.95,-95.,45.));
#99 = DIRECTION('',(0.247977719906,-0.954225187202,0.167216454152));
#100 = DIRECTION('',(-0.887757438369,-0.154734485761,0.433525050644));
#101 = ORIENTED_EDGE('',*,*,#102,.F.);
#102 = EDGE_CURVE('',#103,#94,#105,.T.);
#103 = VERTEX_POINT('',#104);
#104 = CARTESIAN_POINT('',(108.53170955584,-94.61607169314,
    46.328236819182));
#105 = ELLIPSE('',#106,1.502581443839,1.5);
#106 = AXIS2_PLACEMENT_3D('',#107,#108,#109);
#107 = CARTESIAN_POINT('',(107.95,-95.,45.));
#108 = DIRECTION('',(0.247977719906,-0.954225187202,0.167216454152));
#109 = DIRECTION('',(-0.887757438369,-0.154734485761,0.433525050644));
#110 = ORIENTED_EDGE('',*,*,#111,.T.);
#111 = EDGE_CURVE('',#103,#77,#112,.T.);
#112 = CIRCLE('',#113,1.5);
#113 = AXIS2_PLACEMENT_3D('',#114,#115,#116);
#114 = CARTESIAN_POINT('',(107.95,-95.,45.));
#115 = DIRECTION('',(-0.195535922049,0.961652075651,-0.19233041513));
#116 = DIRECTION('',(0.952660967396,0.232814914447,0.195535922049));
#117 = ORIENTED_EDGE('',*,*,#76,.F.);
#118 = CYLINDRICAL_SURFACE('',#119,1.5);
#119 = AXIS2_PLACEMENT_3D('',#120,#121,#122);
#120 = CARTESIAN_POINT('',(111.,-110.,48.));
#121 = DIRECTION('',(0.195535922049,-0.961652075651,0.19233041513));
#122 = DIRECTION('',(0.952660967396,0.232814914447,0.195535922049));
#123 = ADVANCED_FACE('',(#124),#127,.F.);
#124 = FACE_BOUND('',#125,.T.);
#125 = EDGE_LOOP('',(#126));
#126 = ORIENTED_EDGE('',*,*,#67,.F.);
#127 = PLANE('',#128);
#128 = AXIS2_PLACEMENT_3D('',#129,#130,#131);
#129 = CARTESIAN_POINT('',(111.,-110.,48.));
#130 = DIRECTION('',(-0.195535922049,0.961652075651,-0.19233041513));
#131 = DIRECTION('',(0.952660967396,0.232814914447,0.195535922049));
#132 = ADVANCED_FACE('',(#133),#143,.T.);
#133 = FACE_BOUND('',#134,.T.);
#134 = EDGE_LOOP('',(#135,#136,#137));
#135 = ORIENTED_EDGE('',*,*,#111,.T.);
#136 = ORIENTED_EDGE('',*,*,#84,.T.);
#137 = ORIENTED_EDGE('',*,*,#138,.T.);
#138 = EDGE_CURVE('',#85,#103,#139,.T.);
#139 = LINE('',#140,#141);
#140 = CARTESIAN_POINT('',(107.95,-95.,45.));
#141 = VECTOR('',#142,1.);
#142 = DIRECTION('',(0.387806370564,0.255952204572,0.885491212788));
#143 = PLANE('',#144);
#144 = AXIS2_PLACEMENT_3D('',#145,#146,#147);
#145 = CARTESIAN_POINT('',(107.95,-95.,45.));
#146 = DIRECTION('',(-0.195535922049,0.961652075651,-0.19233041513));
#147 = DIRECTION('',(0.952660967396,0.232814914447,0.195535922049));
#148 = ADVANCED_FACE('',(#149),#185,.T.);
#149 = FACE_BOUND('',#150,.F.);
#150 = EDGE_LOOP('',(#151,#160,#168,#175,#176,#183,#184));
#151 = ORIENTED_EDGE('',*,*,#152,.F.);
#152 = EDGE_CURVE('',#153,#85,#155,.T.);
#153 = VERTEX_POINT('',#154);
#154 = CARTESIAN_POINT('',(109.29319699705,-94.50613227417,
    45.449351195061));
#155 = CIRCLE('',#156,1.5);
#156 = AXIS2_PLACEMENT_3D('',#157,#158,#159);
#157 = CARTESIAN_POINT('',(107.95,-95.,45.));
#158 = DIRECTION('',(-0.299567463374,0.943519569683,-0.141527935452));
#159 = DIRECTION('',(0.895464664701,0.329245150549,0.299567463374));
#160 = ORIENTED_EDGE('',*,*,#161,.T.);
#161 = EDGE_CURVE('',#153,#162,#164,.T.);
#162 = VERTEX_POINT('',#163);
#163 = CARTESIAN_POINT('',(102.94319699705,-74.50613227417,
    42.449351195061));
#164 = LINE('',#165,#166);
#165 = CARTESIAN_POINT('',(109.29319699705,-94.50613227417,
    45.449351195061));
#166 = VECTOR('',#167,1.);
#167 = DIRECTION('',(-0.299567463374,0.943519569683,-0.141527935452));
#168 = ORIENTED_EDGE('',*,*,#169,.T.);
#169 = EDGE_CURVE('',#162,#162,#170,.T.);
#170 = CIRCLE('',#171,1.5);
#171 = AXIS2_PLACEMENT_3D('',#172,#173,#174);
#172 = CARTESIAN_POINT('',(101.6,-75.,42.));
#173 = DIRECTION('',(-0.299567463374,0.943519569683,-0.141527935452));
#174 = DIRECTION('',(0.895464664701,0.329245150549,0.299567463374));
#175 = ORIENTED_EDGE('',*,*,#161,.F.);
#176 = ORIENTED_EDGE('',*,*,#177,.F.);
#177 = EDGE_CURVE('',#103,#153,#178,.T.);
#178 = CIRCLE('',#179,1.5);
#179 = AXIS2_PLACEMENT_3D('',#180,#181,#182);
#180 = CARTESIAN_POINT('',(107.95,-95.,45.));
#181 = DIRECTION('',(-0.299567463374,0.943519569683,-0.141527935452));
#182 = DIRECTION('',(0.895464664701,0.329245150549,0.299567463374));
#183 = ORIENTED_EDGE('',*,*,#102,.T.);
#184 = ORIENTED_EDGE('',*,*,#93,.T.);
#185 = CYLINDRICAL_SURFACE('',#186,1.5);
#186 = AXIS2_PLACEMENT_3D('',#187,#188,#189);
#187 = CARTESIAN_POINT('',(107.95,-95.,45.));
#188 = DIRECTION('',(0.299567463374,-0.943519569683,0.141527935452));
#189 = DIRECTION('',(0.895464664701,0.329245150549,0.299567463374));
#190 = ADVANCED_FACE('',(#191),#196,.F.);
#191 = FACE_BOUND('',#192,.F.);
#192 = EDGE_LOOP('',(#193,#194,#195));
#193 = ORIENTED_EDGE('',*,*,#177,.T.);
#194 = ORIENTED_EDGE('',*,*,#152,.T.);
#195 = ORIENTED_EDGE('',*,*,#138,.T.);
#196 = PLANE('',#197);
#197 = AXIS2_PLACEMENT_3D('',#198,#199,#200);
#198 = CARTESIAN_POINT('',(107.95,-95.,45.));
#199 = DIRECTION('',(-0.299567463374,0.943519569683,-0.141527935452));
#200 = DIRECTION('',(0.895464664701,0.329245150549,0.299567463374));
#201 = ADVANCED_FACE('',(#202),#205,.T.);
#202 = FACE_BOUND('',#203,.F.);
#203 = EDGE_LOOP('',(#204));
#204 = ORIENTED_EDGE('',*,*,#169,.F.);
#205 = PLANE('',#206);
#206 = AXIS2_PLACEMENT_3D('',#207,#208,#209);
#207 = CARTESIAN_POINT('',(101.6,-75.,42.));
#208 = DIRECTION('',(-0.299567463374,0.943519569683,-0.141527935452));
#209 = DIRECTION('',(0.895464664701,0.329245150549,0.299567463374));
#210 = ( GEOMETRIC_REPRESENTATION_CONTEXT(3) 
GLOBAL_UNCERTAINTY_ASSIGNED_CONTEXT((#214)) GLOBAL_UNIT_ASSIGNED_CONTEXT
((#211,#212,#213)) REPRESENTATION_CONTEXT('Context #1',
  '3D Context with UNIT and UNCERTAINTY') );
#211 = ( LENGTH_UNIT() NAMED_UNIT(*) SI_UNIT(.MILLI.,.METRE.) );
#212 = ( NAMED_UNIT(*) PLANE_ANGLE_UNIT() SI_UNIT($,.RADIAN.) );
#213 = ( NAMED_UNIT(*) SI_UNIT($,.STERADIAN.) SOLID_ANGLE_UNIT() );
#214 = UNCERTAINTY_MEASURE_WITH_UNIT(LENGTH_MEASURE(2.E-05),#211,
  'distance_accuracy_value','confusion accuracy');
#215 = CONTEXT_DEPENDENT_SHAPE_REPRESENTATION(#216,#218);
#216 = ( REPRESENTATION_RELATIONSHIP('','',#60,#10) 
REPRESENTATION_RELATIONSHIP_WITH_TRANSFORMATION(#217) 
SHAPE_REPRESENTATION_RELATIONSHIP() );
#217 = ITEM_DEFINED_TRANSFORMATION('','',#11,#15);
#218 = PRODUCT_DEFINITION_SHAPE('Placement','Placement of an item',#219
  );
#219 = NEXT_ASSEMBLY_USAGE_OCCURRENCE('38','WIRE_MTR_FR_0','',#5,#55,$);
#220 = PRODUCT_RELATED_PRODUCT_CATEGORY('part',$,(#57));
#221 = SHAPE_DEFINITION_REPRESENTATION(#222,#228);
#222 = PRODUCT_DEFINITION_SHAPE('','',#223);
#223 = PRODUCT_DEFINITION('design','',#224,#227);
#224 = PRODUCT_DEFINITION_FORMATION('','',#225);
#225 = PRODUCT('WIRE_MTR_FR_1','WIRE_MTR_FR_1','',(#226));
#226 = PRODUCT_CONTEXT('',#2,'mechanical');
#227 = PRODUCT_DEFINITION_CONTEXT('part definition',#2,'design');
#228 = ADVANCED_BREP_SHAPE_REPRESENTATION('',(#11,#229),#282);
#229 = MANIFOLD_SOLID_BREP('',#230);
#230 = CLOSED_SHELL('',(#231,#264,#273));
#231 = ADVANCED_FACE('',(#232),#259,.T.);
#232 = FACE_BOUND('',#233,.F.);
#233 = EDGE_LOOP('',(#234,#244,#251,#252));
#234 = ORIENTED_EDGE('',*,*,#235,.T.);
#235 = EDGE_CURVE('',#236,#238,#240,.T.);
#236 = VERTEX_POINT('',#237);
#237 = CARTESIAN_POINT('',(1.5,7.105427357601E-15,0.));
#238 = VERTEX_POINT('',#239);
#239 = CARTESIAN_POINT('',(1.5,0.,28.829292395062));
#240 = LINE('',#241,#242);
#241 = CARTESIAN_POINT('',(1.5,-3.7E-16,0.));
#242 = VECTOR('',#243,1.);
#243 = DIRECTION('',(0.,0.,1.));
#244 = ORIENTED_EDGE('',*,*,#245,.T.);
#245 = EDGE_CURVE('',#238,#238,#246,.T.);
#246 = CIRCLE('',#247,1.5);
#247 = AXIS2_PLACEMENT_3D('',#248,#249,#250);
#248 = CARTESIAN_POINT('',(0.,0.,28.829292395062));
#249 = DIRECTION('',(0.,0.,1.));
#250 = DIRECTION('',(1.,0.,0.));
#251 = ORIENTED_EDGE('',*,*,#235,.F.);
#252 = ORIENTED_EDGE('',*,*,#253,.F.);
#253 = EDGE_CURVE('',#236,#236,#254,.T.);
#254 = CIRCLE('',#255,1.5);
#255 = AXIS2_PLACEMENT_3D('',#256,#257,#258);
#256 = CARTESIAN_POINT('',(0.,0.,0.));
#257 = DIRECTION('',(0.,0.,1.));
#258 = DIRECTION('',(1.,0.,-0.));
#259 = CYLINDRICAL_SURFACE('',#260,1.5);
#260 = AXIS2_PLACEMENT_3D('',#261,#262,#263);
#261 = CARTESIAN_POINT('',(0.,0.,0.));
#262 = DIRECTION('',(-0.,-0.,-1.));
#263 = DIRECTION('',(1.,0.,-0.));
#264 = ADVANCED_FACE('',(#265),#268,.F.);
#265 = FACE_BOUND('',#266,.T.);
#266 = EDGE_LOOP('',(#267));
#267 = ORIENTED_EDGE('',*,*,#253,.F.);
#268 = PLANE('',#269);
#269 = AXIS2_PLACEMENT_3D('',#270,#271,#272);
#270 = CARTESIAN_POINT('',(0.,0.,0.));
#271 = DIRECTION('',(0.,0.,1.));
#272 = DIRECTION('',(1.,0.,-0.));
#273 = ADVANCED_FACE('',(#274),#277,.T.);
#274 = FACE_BOUND('',#275,.F.);
#275 = EDGE_LOOP('',(#276));
#276 = ORIENTED_EDGE('',*,*,#245,.F.);
#277 = PLANE('',#278);
#278 = AXIS2_PLACEMENT_3D('',#279,#280,#281);
#279 = CARTESIAN_POINT('',(0.,0.,28.829292395062));
#280 = DIRECTION('',(0.,0.,1.));
#281 = DIRECTION('',(1.,0.,0.));
#282 = ( GEOMETRIC_REPRESENTATION_CONTEXT(3) 
GLOBAL_UNCERTAINTY_ASSIGNED_CONTEXT((#286)) GLOBAL_UNIT_ASSIGNED_CONTEXT
((#283,#284,#285)) REPRESENTATION_CONTEXT('Context #1',
  '3D Context with UNIT and UNCERTAINTY') );
#283 = ( LENGTH_UNIT() NAMED_UNIT(*) SI_UNIT(.MILLI.,.METRE.) );
#284 = ( NAMED_UNIT(*) PLANE_ANGLE_UNIT() SI_UNIT($,.RADIAN.) );
#285 = ( NAMED_UNIT(*) SI_UNIT($,.STERADIAN.) SOLID_ANGLE_UNIT() );
#286 = UNCERTAINTY_MEASURE_WITH_UNIT(LENGTH_MEASURE(1.E-07),#283,
  'distance_accuracy_value','confusion accuracy');
#287 = CONTEXT_DEPENDENT_SHAPE_REPRESENTATION(#288,#290);
#288 = ( REPRESENTATION_RELATIONSHIP('','',#228,#10) 
REPRESENTATION_RELATIONSHIP_WITH_TRANSFORMATION(#289) 
SHAPE_REPRESENTATION_RELATIONSHIP() );
#289 = ITEM_DEFINED_TRANSFORMATION('','',#11,#19);
#290 = PRODUCT_DEFINITION_SHAPE('Placement','Placement of an item',#291
  );
#291 = NEXT_ASSEMBLY_USAGE_OCCURRENCE('39','WIRE_MTR_FR_1','',#5,#223,$
  );
#292 = PRODUCT_RELATED_PRODUCT_CATEGORY('part',$,(#225));
#293 = SHAPE_DEFINITION_REPRESENTATION(#294,#300);
#294 = PRODUCT_DEFINITION_SHAPE('','',#295);
#295 = PRODUCT_DEFINITION('design','',#296,#299);
#296 = PRODUCT_DEFINITION_FORMATION('','',#297);
#297 = PRODUCT('WIRE_MTR_FR_2','WIRE_MTR_FR_2','',(#298));
#298 = PRODUCT_CONTEXT('',#2,'mechanical');
#299 = PRODUCT_DEFINITION_CONTEXT('part definition',#2,'design');
#300 = ADVANCED_BREP_SHAPE_REPRESENTATION('',(#11,#301),#354);
#301 = MANIFOLD_SOLID_BREP('',#302);
#302 = CLOSED_SHELL('',(#303,#336,#345));
#303 = ADVANCED_FACE('',(#304),#331,.T.);
#304 = FACE_BOUND('',#305,.F.);
#305 = EDGE_LOOP('',(#306,#316,#323,#324));
#306 = ORIENTED_EDGE('',*,*,#307,.T.);
#307 = EDGE_CURVE('',#308,#310,#312,.T.);
#308 = VERTEX_POINT('',#309);
#309 = CARTESIAN_POINT('',(1.5,0.,-1.42108547152E-14));
#310 = VERTEX_POINT('',#311);
#311 = CARTESIAN_POINT('',(1.5,1.06581410364E-14,31.721035607306));
#312 = LINE('',#313,#314);
#313 = CARTESIAN_POINT('',(1.5,-3.7E-16,0.));
#314 = VECTOR('',#315,1.);
#315 = DIRECTION('',(0.,0.,1.));
#316 = ORIENTED_EDGE('',*,*,#317,.T.);
#317 = EDGE_CURVE('',#310,#310,#318,.T.);
#318 = CIRCLE('',#319,1.5);
#319 = AXIS2_PLACEMENT_3D('',#320,#321,#322);
#320 = CARTESIAN_POINT('',(0.,0.,31.721035607306));
#321 = DIRECTION('',(0.,0.,1.));
#322 = DIRECTION('',(1.,0.,0.));
#323 = ORIENTED_EDGE('',*,*,#307,.F.);
#324 = ORIENTED_EDGE('',*,*,#325,.F.);
#325 = EDGE_CURVE('',#308,#308,#326,.T.);
#326 = CIRCLE('',#327,1.5);
#327 = AXIS2_PLACEMENT_3D('',#328,#329,#330);
#328 = CARTESIAN_POINT('',(0.,0.,0.));
#329 = DIRECTION('',(0.,0.,1.));
#330 = DIRECTION('',(1.,0.,-0.));
#331 = CYLINDRICAL_SURFACE('',#332,1.5);
#332 = AXIS2_PLACEMENT_3D('',#333,#334,#335);
#333 = CARTESIAN_POINT('',(0.,0.,0.));
#334 = DIRECTION('',(-0.,-0.,-1.));
#335 = DIRECTION('',(1.,0.,-0.));
#336 = ADVANCED_FACE('',(#337),#340,.F.);
#337 = FACE_BOUND('',#338,.T.);
#338 = EDGE_LOOP('',(#339));
#339 = ORIENTED_EDGE('',*,*,#325,.F.);
#340 = PLANE('',#341);
#341 = AXIS2_PLACEMENT_3D('',#342,#343,#344);
#342 = CARTESIAN_POINT('',(0.,0.,0.));
#343 = DIRECTION('',(0.,0.,1.));
#344 = DIRECTION('',(1.,0.,-0.));
#345 = ADVANCED_FACE('',(#346),#349,.T.);
#346 = FACE_BOUND('',#347,.F.);
#347 = EDGE_LOOP('',(#348));
#348 = ORIENTED_EDGE('',*,*,#317,.F.);
#349 = PLANE('',#350);
#350 = AXIS2_PLACEMENT_3D('',#351,#352,#353);
#351 = CARTESIAN_POINT('',(0.,0.,31.721035607306));
#352 = DIRECTION('',(0.,0.,1.));
#353 = DIRECTION('',(1.,0.,0.));
#354 = ( GEOMETRIC_REPRESENTATION_CONTEXT(3) 
GLOBAL_UNCERTAINTY_ASSIGNED_CONTEXT((#358)) GLOBAL_UNIT_ASSIGNED_CONTEXT
((#355,#356,#357)) REPRESENTATION_CONTEXT('Context #1',
  '3D Context with UNIT and UNCERTAINTY') );
#355 = ( LENGTH_UNIT() NAMED_UNIT(*) SI_UNIT(.MILLI.,.METRE.) );
#356 = ( NAMED_UNIT(*) PLANE_ANGLE_UNIT() SI_UNIT($,.RADIAN.) );
#357 = ( NAMED_UNIT(*) SI_UNIT($,.STERADIAN.) SOLID_ANGLE_UNIT() );
#358 = UNCERTAINTY_MEASURE_WITH_UNIT(LENGTH_MEASURE(1.E-07),#355,
  'distance_accuracy_value','confusion accuracy');
#359 = CONTEXT_DEPENDENT_SHAPE_REPRESENTATION(#360,#362);
#360 = ( REPRESENTATION_RELATIONSHIP('','',#300,#10) 
REPRESENTATION_RELATIONSHIP_WITH_TRANSFORMATION(#361) 
SHAPE_REPRESENTATION_RELATIONSHIP() );
#361 = ITEM_DEFINED_TRANSFORMATION('','',#11,#23);
#362 = PRODUCT_DEFINITION_SHAPE('Placement','Placement of an item',#363
  );
#363 = NEXT_ASSEMBLY_USAGE_OCCURRENCE('40','WIRE_MTR_FR_2','',#5,#295,$
  );
#364 = PRODUCT_RELATED_PRODUCT_CATEGORY('part',$,(#297));
#365 = SHAPE_DEFINITION_REPRESENTATION(#366,#372);
#366 = PRODUCT_DEFINITION_SHAPE('','',#367);
#367 = PRODUCT_DEFINITION('design','',#368,#371);
#368 = PRODUCT_DEFINITION_FORMATION('','',#369);
#369 = PRODUCT('WIRE_MTR_FR_3','WIRE_MTR_FR_3','',(#370));
#370 = PRODUCT_CONTEXT('',#2,'mechanical');
#371 = PRODUCT_DEFINITION_CONTEXT('part definition',#2,'design');
#372 = ADVANCED_BREP_SHAPE_REPRESENTATION('',(#11,#373),#426);
#373 = MANIFOLD_SOLID_BREP('',#374);
#374 = CLOSED_SHELL('',(#375,#408,#417));
#375 = ADVANCED_FACE('',(#376),#403,.T.);
#376 = FACE_BOUND('',#377,.F.);
#377 = EDGE_LOOP('',(#378,#388,#395,#396));
#378 = ORIENTED_EDGE('',*,*,#379,.T.);
#379 = EDGE_CURVE('',#380,#382,#384,.T.);
#380 = VERTEX_POINT('',#381);
#381 = CARTESIAN_POINT('',(1.5,0.,0.));
#382 = VERTEX_POINT('',#383);
#383 = CARTESIAN_POINT('',(1.5,-7.105427357601E-15,41.250939383243));
#384 = LINE('',#385,#386);
#385 = CARTESIAN_POINT('',(1.5,-3.7E-16,0.));
#386 = VECTOR('',#387,1.);
#387 = DIRECTION('',(0.,0.,1.));
#388 = ORIENTED_EDGE('',*,*,#389,.T.);
#389 = EDGE_CURVE('',#382,#382,#390,.T.);
#390 = CIRCLE('',#391,1.5);
#391 = AXIS2_PLACEMENT_3D('',#392,#393,#394);
#392 = CARTESIAN_POINT('',(0.,0.,41.250939383243));
#393 = DIRECTION('',(0.,0.,1.));
#394 = DIRECTION('',(1.,0.,0.));
#395 = ORIENTED_EDGE('',*,*,#379,.F.);
#396 = ORIENTED_EDGE('',*,*,#397,.F.);
#397 = EDGE_CURVE('',#380,#380,#398,.T.);
#398 = CIRCLE('',#399,1.5);
#399 = AXIS2_PLACEMENT_3D('',#400,#401,#402);
#400 = CARTESIAN_POINT('',(0.,0.,0.));
#401 = DIRECTION('',(0.,0.,1.));
#402 = DIRECTION('',(1.,0.,-0.));
#403 = CYLINDRICAL_SURFACE('',#404,1.5);
#404 = AXIS2_PLACEMENT_3D('',#405,#406,#407);
#405 = CARTESIAN_POINT('',(0.,0.,0.));
#406 = DIRECTION('',(-0.,-0.,-1.));
#407 = DIRECTION('',(1.,0.,-0.));
#408 = ADVANCED_FACE('',(#409),#412,.F.);
#409 = FACE_BOUND('',#410,.T.);
#410 = EDGE_LOOP('',(#411));
#411 = ORIENTED_EDGE('',*,*,#397,.F.);
#412 = PLANE('',#413);
#413 = AXIS2_PLACEMENT_3D('',#414,#415,#416);
#414 = CARTESIAN_POINT('',(0.,0.,0.));
#415 = DIRECTION('',(0.,0.,1.));
#416 = DIRECTION('',(1.,0.,-0.));
#417 = ADVANCED_FACE('',(#418),#421,.T.);
#418 = FACE_BOUND('',#419,.F.);
#419 = EDGE_LOOP('',(#420));
#420 = ORIENTED_EDGE('',*,*,#389,.F.);
#421 = PLANE('',#422);
#422 = AXIS2_PLACEMENT_3D('',#423,#424,#425);
#423 = CARTESIAN_POINT('',(0.,0.,41.250939383243));
#424 = DIRECTION('',(0.,0.,1.));
#425 = DIRECTION('',(1.,0.,0.));
#426 = ( GEOMETRIC_REPRESENTATION_CONTEXT(3) 
GLOBAL_UNCERTAINTY_ASSIGNED_CONTEXT((#430)) GLOBAL_UNIT_ASSIGNED_CONTEXT
((#427,#428,#429)) REPRESENTATION_CONTEXT('Context #1',
  '3D Context with UNIT and UNCERTAINTY') );
#427 = ( LENGTH_UNIT() NAMED_UNIT(*) SI_UNIT(.MILLI.,.METRE.) );
#428 = ( NAMED_UNIT(*) PLANE_ANGLE_UNIT() SI_UNIT($,.RADIAN.) );
#429 = ( NAMED_UNIT(*) SI_UNIT($,.STERADIAN.) SOLID_ANGLE_UNIT() );
#430 = UNCERTAINTY_MEASURE_WITH_UNIT(LENGTH_MEASURE(1.E-07),#427,
  'distance_accuracy_value','confusion accuracy');
#431 = CONTEXT_DEPENDENT_SHAPE_REPRESENTATION(#432,#434);
#432 = ( REPRESENTATION_RELATIONSHIP('','',#372,#10) 
REPRESENTATION_RELATIONSHIP_WITH_TRANSFORMATION(#433) 
SHAPE_REPRESENTATION_RELATIONSHIP() );
#433 = ITEM_DEFINED_TRANSFORMATION('','',#11,#27);
#434 = PRODUCT_DEFINITION_SHAPE('Placement','Placement of an item',#435
  );
#435 = NEXT_ASSEMBLY_USAGE_OCCURRENCE('41','WIRE_MTR_FR_3','',#5,#367,$
  );
#436 = PRODUCT_RELATED_PRODUCT_CATEGORY('part',$,(#369));
#437 = SHAPE_DEFINITION_REPRESENTATION(#438,#444);
#438 = PRODUCT_DEFINITION_SHAPE('','',#439);
#439 = PRODUCT_DEFINITION('design','',#440,#443);
#440 = PRODUCT_DEFINITION_FORMATION('','',#441);
#441 = PRODUCT('WIRE_MTR_FR_4','WIRE_MTR_FR_4','',(#442));
#442 = PRODUCT_CONTEXT('',#2,'mechanical');
#443 = PRODUCT_DEFINITION_CONTEXT('part definition',#2,'design');
#444 = ADVANCED_BREP_SHAPE_REPRESENTATION('',(#11,#445),#498);
#445 = MANIFOLD_SOLID_BREP('',#446);
#446 = CLOSED_SHELL('',(#447,#480,#489));
#447 = ADVANCED_FACE('',(#448),#475,.T.);
#448 = FACE_BOUND('',#449,.F.);
#449 = EDGE_LOOP('',(#450,#460,#467,#468));
#450 = ORIENTED_EDGE('',*,*,#451,.T.);
#451 = EDGE_CURVE('',#452,#454,#456,.T.);
#452 = VERTEX_POINT('',#453);
#453 = CARTESIAN_POINT('',(1.5,0.,-3.552713678801E-15));
#454 = VERTEX_POINT('',#455);
#455 = CARTESIAN_POINT('',(1.5,-7.105427357601E-15,31.622776601684));
#456 = LINE('',#457,#458);
#457 = CARTESIAN_POINT('',(1.5,-3.7E-16,0.));
#458 = VECTOR('',#459,1.);
#459 = DIRECTION('',(0.,0.,1.));
#460 = ORIENTED_EDGE('',*,*,#461,.T.);
#461 = EDGE_CURVE('',#454,#454,#462,.T.);
#462 = CIRCLE('',#463,1.5);
#463 = AXIS2_PLACEMENT_3D('',#464,#465,#466);
#464 = CARTESIAN_POINT('',(0.,0.,31.622776601684));
#465 = DIRECTION('',(0.,0.,1.));
#466 = DIRECTION('',(1.,0.,0.));
#467 = ORIENTED_EDGE('',*,*,#451,.F.);
#468 = ORIENTED_EDGE('',*,*,#469,.F.);
#469 = EDGE_CURVE('',#452,#452,#470,.T.);
#470 = CIRCLE('',#471,1.5);
#471 = AXIS2_PLACEMENT_3D('',#472,#473,#474);
#472 = CARTESIAN_POINT('',(0.,0.,0.));
#473 = DIRECTION('',(0.,0.,1.));
#474 = DIRECTION('',(1.,0.,-0.));
#475 = CYLINDRICAL_SURFACE('',#476,1.5);
#476 = AXIS2_PLACEMENT_3D('',#477,#478,#479);
#477 = CARTESIAN_POINT('',(0.,0.,0.));
#478 = DIRECTION('',(-0.,-0.,-1.));
#479 = DIRECTION('',(1.,0.,-0.));
#480 = ADVANCED_FACE('',(#481),#484,.F.);
#481 = FACE_BOUND('',#482,.T.);
#482 = EDGE_LOOP('',(#483));
#483 = ORIENTED_EDGE('',*,*,#469,.F.);
#484 = PLANE('',#485);
#485 = AXIS2_PLACEMENT_3D('',#486,#487,#488);
#486 = CARTESIAN_POINT('',(0.,0.,0.));
#487 = DIRECTION('',(0.,0.,1.));
#488 = DIRECTION('',(1.,0.,-0.));
#489 = ADVANCED_FACE('',(#490),#493,.T.);
#490 = FACE_BOUND('',#491,.F.);
#491 = EDGE_LOOP('',(#492));
#492 = ORIENTED_EDGE('',*,*,#461,.F.);
#493 = PLANE('',#494);
#494 = AXIS2_PLACEMENT_3D('',#495,#496,#497);
#495 = CARTESIAN_POINT('',(0.,0.,31.622776601684));
#496 = DIRECTION('',(0.,0.,1.));
#497 = DIRECTION('',(1.,0.,0.));
#498 = ( GEOMETRIC_REPRESENTATION_CONTEXT(3) 
GLOBAL_UNCERTAINTY_ASSIGNED_CONTEXT((#502)) GLOBAL_UNIT_ASSIGNED_CONTEXT
((#499,#500,#501)) REPRESENTATION_CONTEXT('Context #1',
  '3D Context with UNIT and UNCERTAINTY') );
#499 = ( LENGTH_UNIT() NAMED_UNIT(*) SI_UNIT(.MILLI.,.METRE.) );
#500 = ( NAMED_UNIT(*) PLANE_ANGLE_UNIT() SI_UNIT($,.RADIAN.) );
#501 = ( NAMED_UNIT(*) SI_UNIT($,.STERADIAN.) SOLID_ANGLE_UNIT() );
#502 = UNCERTAINTY_MEASURE_WITH_UNIT(LENGTH_MEASURE(1.E-07),#499,
  'distance_accuracy_value','confusion accuracy');
#503 = CONTEXT_DEPENDENT_SHAPE_REPRESENTATION(#504,#506);
#504 = ( REPRESENTATION_RELATIONSHIP('','',#444,#10) 
REPRESENTATION_RELATIONSHIP_WITH_TRANSFORMATION(#505) 
SHAPE_REPRESENTATION_RELATIONSHIP() );
#505 = ITEM_DEFINED_TRANSFORMATION('','',#11,#31);
#506 = PRODUCT_DEFINITION_SHAPE('Placement','Placement of an item',#507
  );
#507 = NEXT_ASSEMBLY_USAGE_OCCURRENCE('42','WIRE_MTR_FR_4','',#5,#439,$
  );
#508 = PRODUCT_RELATED_PRODUCT_CATEGORY('part',$,(#441));
#509 = SHAPE_DEFINITION_REPRESENTATION(#510,#516);
#510 = PRODUCT_DEFINITION_SHAPE('','',#511);
#511 = PRODUCT_DEFINITION('design','',#512,#515);
#512 = PRODUCT_DEFINITION_FORMATION('','',#513);
#513 = PRODUCT('WIRE_MTR_FR_5','WIRE_MTR_FR_5','',(#514));
#514 = PRODUCT_CONTEXT('',#2,'mechanical');
#515 = PRODUCT_DEFINITION_CONTEXT('part definition',#2,'design');
#516 = ADVANCED_BREP_SHAPE_REPRESENTATION('',(#11,#517),#570);
#517 = MANIFOLD_SOLID_BREP('',#518);
#518 = CLOSED_SHELL('',(#519,#552,#561));
#519 = ADVANCED_FACE('',(#520),#547,.T.);
#520 = FACE_BOUND('',#521,.F.);
#521 = EDGE_LOOP('',(#522,#532,#539,#540));
#522 = ORIENTED_EDGE('',*,*,#523,.T.);
#523 = EDGE_CURVE('',#524,#526,#528,.T.);
#524 = VERTEX_POINT('',#525);
#525 = CARTESIAN_POINT('',(1.5,7.105427357601E-15,0.));
#526 = VERTEX_POINT('',#527);
#527 = CARTESIAN_POINT('',(1.5,1.42108547152E-14,40.249223594996));
#528 = LINE('',#529,#530);
#529 = CARTESIAN_POINT('',(1.5,-3.7E-16,0.));
#530 = VECTOR('',#531,1.);
#531 = DIRECTION('',(0.,0.,1.));
#532 = ORIENTED_EDGE('',*,*,#533,.T.);
#533 = EDGE_CURVE('',#526,#526,#534,.T.);
#534 = CIRCLE('',#535,1.5);
#535 = AXIS2_PLACEMENT_3D('',#536,#537,#538);
#536 = CARTESIAN_POINT('',(0.,0.,40.249223594996));
#537 = DIRECTION('',(0.,0.,1.));
#538 = DIRECTION('',(1.,0.,0.));
#539 = ORIENTED_EDGE('',*,*,#523,.F.);
#540 = ORIENTED_EDGE('',*,*,#541,.F.);
#541 = EDGE_CURVE('',#524,#524,#542,.T.);
#542 = CIRCLE('',#543,1.5);
#543 = AXIS2_PLACEMENT_3D('',#544,#545,#546);
#544 = CARTESIAN_POINT('',(0.,0.,0.));
#545 = DIRECTION('',(0.,0.,1.));
#546 = DIRECTION('',(1.,0.,-0.));
#547 = CYLINDRICAL_SURFACE('',#548,1.5);
#548 = AXIS2_PLACEMENT_3D('',#549,#550,#551);
#549 = CARTESIAN_POINT('',(0.,0.,0.));
#550 = DIRECTION('',(-0.,-0.,-1.));
#551 = DIRECTION('',(1.,0.,-0.));
#552 = ADVANCED_FACE('',(#553),#556,.F.);
#553 = FACE_BOUND('',#554,.T.);
#554 = EDGE_LOOP('',(#555));
#555 = ORIENTED_EDGE('',*,*,#541,.F.);
#556 = PLANE('',#557);
#557 = AXIS2_PLACEMENT_3D('',#558,#559,#560);
#558 = CARTESIAN_POINT('',(0.,0.,0.));
#559 = DIRECTION('',(0.,0.,1.));
#560 = DIRECTION('',(1.,0.,-0.));
#561 = ADVANCED_FACE('',(#562),#565,.T.);
#562 = FACE_BOUND('',#563,.F.);
#563 = EDGE_LOOP('',(#564));
#564 = ORIENTED_EDGE('',*,*,#533,.F.);
#565 = PLANE('',#566);
#566 = AXIS2_PLACEMENT_3D('',#567,#568,#569);
#567 = CARTESIAN_POINT('',(0.,0.,40.249223594996));
#568 = DIRECTION('',(0.,0.,1.));
#569 = DIRECTION('',(1.,0.,0.));
#570 = ( GEOMETRIC_REPRESENTATION_CONTEXT(3) 
GLOBAL_UNCERTAINTY_ASSIGNED_CONTEXT((#574)) GLOBAL_UNIT_ASSIGNED_CONTEXT
((#571,#572,#573)) REPRESENTATION_CONTEXT('Context #1',
  '3D Context with UNIT and UNCERTAINTY') );
#571 = ( LENGTH_UNIT() NAMED_UNIT(*) SI_UNIT(.MILLI.,.METRE.) );
#572 = ( NAMED_UNIT(*) PLANE_ANGLE_UNIT() SI_UNIT($,.RADIAN.) );
#573 = ( NAMED_UNIT(*) SI_UNIT($,.STERADIAN.) SOLID_ANGLE_UNIT() );
#574 = UNCERTAINTY_MEASURE_WITH_UNIT(LENGTH_MEASURE(1.E-07),#571,
  'distance_accuracy_value','confusion accuracy');
#575 = CONTEXT_DEPENDENT_SHAPE_REPRESENTATION(#576,#578);
#576 = ( REPRESENTATION_RELATIONSHIP('','',#516,#10) 
REPRESENTATION_RELATIONSHIP_WITH_TRANSFORMATION(#577) 
SHAPE_REPRESENTATION_RELATIONSHIP() );
#577 = ITEM_DEFINED_TRANSFORMATION('','',#11,#35);
#578 = PRODUCT_DEFINITION_SHAPE('Placement','Placement of an item',#579
  );
#579 = NEXT_ASSEMBLY_USAGE_OCCURRENCE('43','WIRE_MTR_FR_5','',#5,#511,$
  );
#580 = PRODUCT_RELATED_PRODUCT_CATEGORY('part',$,(#513));
#581 = SHAPE_DEFINITION_REPRESENTATION(#582,#588);
#582 = PRODUCT_DEFINITION_SHAPE('','',#583);
#583 = PRODUCT_DEFINITION('design','',#584,#587);
#584 = PRODUCT_DEFINITION_FORMATION('','',#585);
#585 = PRODUCT('WIRE_MTR_FR_6','WIRE_MTR_FR_6','',(#586));
#586 = PRODUCT_CONTEXT('',#2,'mechanical');
#587 = PRODUCT_DEFINITION_CONTEXT('part definition',#2,'design');
#588 = ADVANCED_BREP_SHAPE_REPRESENTATION('',(#11,#589),#642);
#589 = MANIFOLD_SOLID_BREP('',#590);
#590 = CLOSED_SHELL('',(#591,#624,#633));
#591 = ADVANCED_FACE('',(#592),#619,.T.);
#592 = FACE_BOUND('',#593,.F.);
#593 = EDGE_LOOP('',(#594,#604,#611,#612));
#594 = ORIENTED_EDGE('',*,*,#595,.T.);
#595 = EDGE_CURVE('',#596,#598,#600,.T.);
#596 = VERTEX_POINT('',#597);
#597 = CARTESIAN_POINT('',(1.5,7.105427357601E-15,-7.105427357601E-15));
#598 = VERTEX_POINT('',#599);
#599 = CARTESIAN_POINT('',(1.5,7.105427357601E-15,50.049975024969));
#600 = LINE('',#601,#602);
#601 = CARTESIAN_POINT('',(1.5,-3.7E-16,0.));
#602 = VECTOR('',#603,1.);
#603 = DIRECTION('',(0.,0.,1.));
#604 = ORIENTED_EDGE('',*,*,#605,.T.);
#605 = EDGE_CURVE('',#598,#598,#606,.T.);
#606 = CIRCLE('',#607,1.5);
#607 = AXIS2_PLACEMENT_3D('',#608,#609,#610);
#608 = CARTESIAN_POINT('',(0.,0.,50.049975024969));
#609 = DIRECTION('',(0.,0.,1.));
#610 = DIRECTION('',(1.,0.,0.));
#611 = ORIENTED_EDGE('',*,*,#595,.F.);
#612 = ORIENTED_EDGE('',*,*,#613,.F.);
#613 = EDGE_CURVE('',#596,#596,#614,.T.);
#614 = CIRCLE('',#615,1.5);
#615 = AXIS2_PLACEMENT_3D('',#616,#617,#618);
#616 = CARTESIAN_POINT('',(0.,0.,0.));
#617 = DIRECTION('',(0.,0.,1.));
#618 = DIRECTION('',(1.,0.,-0.));
#619 = CYLINDRICAL_SURFACE('',#620,1.5);
#620 = AXIS2_PLACEMENT_3D('',#621,#622,#623);
#621 = CARTESIAN_POINT('',(0.,0.,0.));
#622 = DIRECTION('',(-0.,-0.,-1.));
#623 = DIRECTION('',(1.,0.,-0.));
#624 = ADVANCED_FACE('',(#625),#628,.F.);
#625 = FACE_BOUND('',#626,.T.);
#626 = EDGE_LOOP('',(#627));
#627 = ORIENTED_EDGE('',*,*,#613,.F.);
#628 = PLANE('',#629);
#629 = AXIS2_PLACEMENT_3D('',#630,#631,#632);
#630 = CARTESIAN_POINT('',(0.,0.,0.));
#631 = DIRECTION('',(0.,0.,1.));
#632 = DIRECTION('',(1.,0.,-0.));
#633 = ADVANCED_FACE('',(#634),#637,.T.);
#634 = FACE_BOUND('',#635,.F.);
#635 = EDGE_LOOP('',(#636));
#636 = ORIENTED_EDGE('',*,*,#605,.F.);
#637 = PLANE('',#638);
#638 = AXIS2_PLACEMENT_3D('',#639,#640,#641);
#639 = CARTESIAN_POINT('',(0.,0.,50.049975024969));
#640 = DIRECTION('',(0.,0.,1.));
#641 = DIRECTION('',(1.,0.,0.));
#642 = ( GEOMETRIC_REPRESENTATION_CONTEXT(3) 
GLOBAL_UNCERTAINTY_ASSIGNED_CONTEXT((#646)) GLOBAL_UNIT_ASSIGNED_CONTEXT
((#643,#644,#645)) REPRESENTATION_CONTEXT('Context #1',
  '3D Context with UNIT and UNCERTAINTY') );
#643 = ( LENGTH_UNIT() NAMED_UNIT(*) SI_UNIT(.MILLI.,.METRE.) );
#644 = ( NAMED_UNIT(*) PLANE_ANGLE_UNIT() SI_UNIT($,.RADIAN.) );
#645 = ( NAMED_UNIT(*) SI_UNIT($,.STERADIAN.) SOLID_ANGLE_UNIT() );
#646 = UNCERTAINTY_MEASURE_WITH_UNIT(LENGTH_MEASURE(1.E-07),#643,
  'distance_accuracy_value','confusion accuracy');
#647 = CONTEXT_DEPENDENT_SHAPE_REPRESENTATION(#648,#650);
#648 = ( REPRESENTATION_RELATIONSHIP('','',#588,#10) 
REPRESENTATION_RELATIONSHIP_WITH_TRANSFORMATION(#649) 
SHAPE_REPRESENTATION_RELATIONSHIP() );
#649 = ITEM_DEFINED_TRANSFORMATION('','',#11,#39);
#650 = PRODUCT_DEFINITION_SHAPE('Placement','Placement of an item',#651
  );
#651 = NEXT_ASSEMBLY_USAGE_OCCURRENCE('44','WIRE_MTR_FR_6','',#5,#583,$
  );
#652 = PRODUCT_RELATED_PRODUCT_CATEGORY('part',$,(#585));
#653 = SHAPE_DEFINITION_REPRESENTATION(#654,#660);
#654 = PRODUCT_DEFINITION_SHAPE('','',#655);
#655 = PRODUCT_DEFINITION('design','',#656,#659);
#656 = PRODUCT_DEFINITION_FORMATION('','',#657);
#657 = PRODUCT('WIRE_MTR_FR_7','WIRE_MTR_FR_7','',(#658));
#658 = PRODUCT_CONTEXT('',#2,'mechanical');
#659 = PRODUCT_DEFINITION_CONTEXT('part definition',#2,'design');
#660 = ADVANCED_BREP_SHAPE_REPRESENTATION('',(#11,#661),#714);
#661 = MANIFOLD_SOLID_BREP('',#662);
#662 = CLOSED_SHELL('',(#663,#696,#705));
#663 = ADVANCED_FACE('',(#664),#691,.T.);
#664 = FACE_BOUND('',#665,.F.);
#665 = EDGE_LOOP('',(#666,#676,#683,#684));
#666 = ORIENTED_EDGE('',*,*,#667,.T.);
#667 = EDGE_CURVE('',#668,#670,#672,.T.);
#668 = VERTEX_POINT('',#669);
#669 = CARTESIAN_POINT('',(1.5,0.,0.));
#670 = VERTEX_POINT('',#671);
#671 = CARTESIAN_POINT('',(1.5,0.,15.329709716756));
#672 = LINE('',#673,#674);
#673 = CARTESIAN_POINT('',(1.5,-3.7E-16,0.));
#674 = VECTOR('',#675,1.);
#675 = DIRECTION('',(0.,0.,1.));
#676 = ORIENTED_EDGE('',*,*,#677,.T.);
#677 = EDGE_CURVE('',#670,#670,#678,.T.);
#678 = CIRCLE('',#679,1.5);
#679 = AXIS2_PLACEMENT_3D('',#680,#681,#682);
#680 = CARTESIAN_POINT('',(0.,0.,15.329709716756));
#681 = DIRECTION('',(0.,0.,1.));
#682 = DIRECTION('',(1.,0.,0.));
#683 = ORIENTED_EDGE('',*,*,#667,.F.);
#684 = ORIENTED_EDGE('',*,*,#685,.F.);
#685 = EDGE_CURVE('',#668,#668,#686,.T.);
#686 = CIRCLE('',#687,1.5);
#687 = AXIS2_PLACEMENT_3D('',#688,#689,#690);
#688 = CARTESIAN_POINT('',(0.,0.,0.));
#689 = DIRECTION('',(0.,0.,1.));
#690 = DIRECTION('',(1.,0.,-0.));
#691 = CYLINDRICAL_SURFACE('',#692,1.5);
#692 = AXIS2_PLACEMENT_3D('',#693,#694,#695);
#693 = CARTESIAN_POINT('',(0.,0.,0.));
#694 = DIRECTION('',(-0.,-0.,-1.));
#695 = DIRECTION('',(1.,0.,-0.));
#696 = ADVANCED_FACE('',(#697),#700,.F.);
#697 = FACE_BOUND('',#698,.T.);
#698 = EDGE_LOOP('',(#699));
#699 = ORIENTED_EDGE('',*,*,#685,.F.);
#700 = PLANE('',#701);
#701 = AXIS2_PLACEMENT_3D('',#702,#703,#704);
#702 = CARTESIAN_POINT('',(0.,0.,0.));
#703 = DIRECTION('',(0.,0.,1.));
#704 = DIRECTION('',(1.,0.,-0.));
#705 = ADVANCED_FACE('',(#706),#709,.T.);
#706 = FACE_BOUND('',#707,.F.);
#707 = EDGE_LOOP('',(#708));
#708 = ORIENTED_EDGE('',*,*,#677,.F.);
#709 = PLANE('',#710);
#710 = AXIS2_PLACEMENT_3D('',#711,#712,#713);
#711 = CARTESIAN_POINT('',(0.,0.,15.329709716756));
#712 = DIRECTION('',(0.,0.,1.));
#713 = DIRECTION('',(1.,0.,0.));
#714 = ( GEOMETRIC_REPRESENTATION_CONTEXT(3) 
GLOBAL_UNCERTAINTY_ASSIGNED_CONTEXT((#718)) GLOBAL_UNIT_ASSIGNED_CONTEXT
((#715,#716,#717)) REPRESENTATION_CONTEXT('Context #1',
  '3D Context with UNIT and UNCERTAINTY') );
#715 = ( LENGTH_UNIT() NAMED_UNIT(*) SI_UNIT(.MILLI.,.METRE.) );
#716 = ( NAMED_UNIT(*) PLANE_ANGLE_UNIT() SI_UNIT($,.RADIAN.) );
#717 = ( NAMED_UNIT(*) SI_UNIT($,.STERADIAN.) SOLID_ANGLE_UNIT() );
#718 = UNCERTAINTY_MEASURE_WITH_UNIT(LENGTH_MEASURE(1.E-07),#715,
  'distance_accuracy_value','confusion accuracy');
#719 = CONTEXT_DEPENDENT_SHAPE_REPRESENTATION(#720,#722);
#720 = ( REPRESENTATION_RELATIONSHIP('','',#660,#10) 
REPRESENTATION_RELATIONSHIP_WITH_TRANSFORMATION(#721) 
SHAPE_REPRESENTATION_RELATIONSHIP() );
#721 = ITEM_DEFINED_TRANSFORMATION('','',#11,#43);
#722 = PRODUCT_DEFINITION_SHAPE('Placement','Placement of an item',#723
  );
#723 = NEXT_ASSEMBLY_USAGE_OCCURRENCE('45','WIRE_MTR_FR_7','',#5,#655,$
  );
#724 = PRODUCT_RELATED_PRODUCT_CATEGORY('part',$,(#657));
ENDSEC;
END-ISO-10303-21;
