ISO-10303-21;
HEADER;
FILE_DESCRIPTION(('FreeCAD Model'),'2;1');
FILE_NAME('Open CASCADE Shape Model','2026-09-26T19:22:59',('Author'),(
    ''),'Open CASCADE STEP processor 7.8','FreeCAD','Unknown');
FILE_SCHEMA(('AUTOMOTIVE_DESIGN { 1 0 10303 214 1 1 1 1 }'));
ENDSEC;
DATA;
#1 = APPLICATION_PROTOCOL_DEFINITION('international standard',
  'automotive_design',2000,#2);
#2 = APPLICATION_CONTEXT(
  'core data for automotive mechanical design processes');
#3 = SHAPE_DEFINITION_REPRESENTATION(#4,#10);
#4 = PRODUCT_DEFINITION_SHAPE('','',#5);
#5 = PRODUCT_DEFINITION('design','',#6,#9);
#6 = PRODUCT_DEFINITION_FORMATION('','',#7);
#7 = PRODUCT('master_robot','master_robot','',(#8));
#8 = PRODUCT_CONTEXT('',#2,'mechanical');
#9 = PRODUCT_DEFINITION_CONTEXT('part definition',#2,'design');
#10 = SHAPE_REPRESENTATION('',(#11,#15,#19,#23,#27),#31);
#11 = AXIS2_PLACEMENT_3D('',#12,#13,#14);
#12 = CARTESIAN_POINT('',(0.,0.,0.));
#13 = DIRECTION('',(0.,0.,1.));
#14 = DIRECTION('',(1.,0.,-0.));
#15 = AXIS2_PLACEMENT_3D('',#16,#17,#18);
#16 = CARTESIAN_POINT('',(0.,0.,0.));
#17 = DIRECTION('',(0.,0.,1.));
#18 = DIRECTION('',(1.,0.,0.));
#19 = AXIS2_PLACEMENT_3D('',#20,#21,#22);
#20 = CARTESIAN_POINT('',(-8.,80.,60.));
#21 = DIRECTION('',(-1.,0.,2.22044604925E-16));
#22 = DIRECTION('',(2.22044604925E-16,0.,1.));
#23 = AXIS2_PLACEMENT_3D('',#24,#25,#26);
#24 = CARTESIAN_POINT('',(-100.,80.,60.));
#25 = DIRECTION('',(-0.176090181265,-0.440225453163,-0.880450906326));
#26 = DIRECTION('',(0.740627461196,-0.648431347009,0.176090181265));
#27 = AXIS2_PLACEMENT_3D('',#28,#29,#30);
#28 = CARTESIAN_POINT('',(-104.,70.,40.));
#29 = DIRECTION('',(-0.110263569284,-0.992372123556,-5.5131784642E-02));
#30 = DIRECTION('',(0.987132539212,-0.115807147095,0.110263569284));
#31 = ( GEOMETRIC_REPRESENTATION_CONTEXT(3) 
GLOBAL_UNCERTAINTY_ASSIGNED_CONTEXT((#35)) GLOBAL_UNIT_ASSIGNED_CONTEXT(
(#32,#33,#34)) REPRESENTATION_CONTEXT('Context #1',
  '3D Context with UNIT and UNCERTAINTY') );
#32 = ( LENGTH_UNIT() NAMED_UNIT(*) SI_UNIT(.MILLI.,.METRE.) );
#33 = ( NAMED_UNIT(*) PLANE_ANGLE_UNIT() SI_UNIT($,.RADIAN.) );
#34 = ( NAMED_UNIT(*) SI_UNIT($,.STERADIAN.) SOLID_ANGLE_UNIT() );
#35 = UNCERTAINTY_MEASURE_WITH_UNIT(LENGTH_MEASURE(1.E-05),#32,
  'distance_accuracy_value','confusion accuracy');
#36 = PRODUCT_RELATED_PRODUCT_CATEGORY('part',$,(#7));
#37 = SHAPE_DEFINITION_REPRESENTATION(#38,#44);
#38 = PRODUCT_DEFINITION_SHAPE('','',#39);
#39 = PRODUCT_DEFINITION('design','',#40,#43);
#40 = PRODUCT_DEFINITION_FORMATION('','',#41);
#41 = PRODUCT('WIRE_BATT_SW_0','WIRE_BATT_SW_0','',(#42));
#42 = PRODUCT_CONTEXT('',#2,'mechanical');
#43 = PRODUCT_DEFINITION_CONTEXT('part definition',#2,'design');
#44 = ADVANCED_BREP_SHAPE_REPRESENTATION('',(#11,#45),#194);
#45 = MANIFOLD_SOLID_BREP('',#46);
#46 = CLOSED_SHELL('',(#47,#116,#125,#141,#175,#185));
#47 = ADVANCED_FACE('',(#48),#111,.T.);
#48 = FACE_BOUND('',#49,.F.);
#49 = EDGE_LOOP('',(#50,#59,#67,#76,#85,#94,#103,#110));
#50 = ORIENTED_EDGE('',*,*,#51,.F.);
#51 = EDGE_CURVE('',#52,#52,#54,.T.);
#52 = VERTEX_POINT('',#53);
#53 = CARTESIAN_POINT('',(40.541491153837,10.,70.425301880308));
#54 = CIRCLE('',#55,2.);
#55 = AXIS2_PLACEMENT_3D('',#56,#57,#58);
#56 = CARTESIAN_POINT('',(40.,10.,68.5));
#57 = DIRECTION('',(-0.962650940154,0.,0.270745576918));
#58 = DIRECTION('',(0.270745576918,0.,0.962650940154));
#59 = ORIENTED_EDGE('',*,*,#60,.T.);
#60 = EDGE_CURVE('',#52,#61,#63,.T.);
#61 = VERTEX_POINT('',#62);
#62 = CARTESIAN_POINT('',(-7.458508846163,10.,83.925301880308));
#63 = LINE('',#64,#65);
#64 = CARTESIAN_POINT('',(40.541491153837,10.,70.425301880308));
#65 = VECTOR('',#66,1.);
#66 = DIRECTION('',(-0.962650940154,0.,0.270745576918));
#67 = ORIENTED_EDGE('',*,*,#68,.T.);
#68 = EDGE_CURVE('',#61,#69,#71,.T.);
#69 = VERTEX_POINT('',#70);
#70 = CARTESIAN_POINT('',(-7.481710342437,10.579168125276,
    83.842807671334));
#71 = CIRCLE('',#72,2.);
#72 = AXIS2_PLACEMENT_3D('',#73,#74,#75);
#73 = CARTESIAN_POINT('',(-8.,10.,82.));
#74 = DIRECTION('',(-0.962650940154,0.,0.270745576918));
#75 = DIRECTION('',(0.270745576918,0.,0.962650940154));
#76 = ORIENTED_EDGE('',*,*,#77,.F.);
#77 = EDGE_CURVE('',#78,#69,#80,.T.);
#78 = VERTEX_POINT('',#79);
#79 = CARTESIAN_POINT('',(-6.,11.998998008373,81.371743483083));
#80 = ELLIPSE('',#81,2.950726788697,2.);
#81 = AXIS2_PLACEMENT_3D('',#82,#83,#84);
#82 = CARTESIAN_POINT('',(-8.,10.,82.));
#83 = DIRECTION('',(0.710129979319,-0.703743704177,2.145253605793E-02));
#84 = DIRECTION('',(0.654644460901,0.648757172983,-0.388013866137));
#85 = ORIENTED_EDGE('',*,*,#86,.F.);
#86 = EDGE_CURVE('',#87,#78,#89,.T.);
#87 = VERTEX_POINT('',#88);
#88 = CARTESIAN_POINT('',(-6.068323052148,11.91430516968,80.855077090803
    ));
#89 = ELLIPSE('',#90,2.950726788697,2.);
#90 = AXIS2_PLACEMENT_3D('',#91,#92,#93);
#91 = CARTESIAN_POINT('',(-8.,10.,82.));
#92 = DIRECTION('',(0.710129979319,-0.703743704177,2.145253605793E-02));
#93 = DIRECTION('',(0.654644460901,0.648757172983,-0.388013866137));
#94 = ORIENTED_EDGE('',*,*,#95,.F.);
#95 = EDGE_CURVE('',#96,#87,#98,.T.);
#96 = VERTEX_POINT('',#97);
#97 = CARTESIAN_POINT('',(-8.518289657563,9.420831874724,80.157192328666
    ));
#98 = ELLIPSE('',#99,2.950726788697,2.);
#99 = AXIS2_PLACEMENT_3D('',#100,#101,#102);
#100 = CARTESIAN_POINT('',(-8.,10.,82.));
#101 = DIRECTION('',(0.710129979319,-0.703743704177,2.145253605793E-02)
  );
#102 = DIRECTION('',(0.654644460901,0.648757172983,-0.388013866137));
#103 = ORIENTED_EDGE('',*,*,#104,.T.);
#104 = EDGE_CURVE('',#96,#61,#105,.T.);
#105 = CIRCLE('',#106,2.);
#106 = AXIS2_PLACEMENT_3D('',#107,#108,#109);
#107 = CARTESIAN_POINT('',(-8.,10.,82.));
#108 = DIRECTION('',(-0.962650940154,0.,0.270745576918));
#109 = DIRECTION('',(0.270745576918,0.,0.962650940154));
#110 = ORIENTED_EDGE('',*,*,#60,.F.);
#111 = CYLINDRICAL_SURFACE('',#112,2.);
#112 = AXIS2_PLACEMENT_3D('',#113,#114,#115);
#113 = CARTESIAN_POINT('',(40.,10.,68.5));
#114 = DIRECTION('',(0.962650940154,-0.,-0.270745576918));
#115 = DIRECTION('',(0.270745576918,0.,0.962650940154));
#116 = ADVANCED_FACE('',(#117),#120,.F.);
#117 = FACE_BOUND('',#118,.T.);
#118 = EDGE_LOOP('',(#119));
#119 = ORIENTED_EDGE('',*,*,#51,.F.);
#120 = PLANE('',#121);
#121 = AXIS2_PLACEMENT_3D('',#122,#123,#124);
#122 = CARTESIAN_POINT('',(40.,10.,68.5));
#123 = DIRECTION('',(-0.962650940154,0.,0.270745576918));
#124 = DIRECTION('',(0.270745576918,0.,0.962650940154));
#125 = ADVANCED_FACE('',(#126),#136,.T.);
#126 = FACE_BOUND('',#127,.T.);
#127 = EDGE_LOOP('',(#128,#129,#130));
#128 = ORIENTED_EDGE('',*,*,#104,.T.);
#129 = ORIENTED_EDGE('',*,*,#68,.T.);
#130 = ORIENTED_EDGE('',*,*,#131,.T.);
#131 = EDGE_CURVE('',#69,#96,#132,.T.);
#132 = LINE('',#133,#134);
#133 = CARTESIAN_POINT('',(-8.,10.,82.));
#134 = VECTOR('',#135,1.);
#135 = DIRECTION('',(-0.259144828781,-0.289584062638,-0.921403835667));
#136 = PLANE('',#137);
#137 = AXIS2_PLACEMENT_3D('',#138,#139,#140);
#138 = CARTESIAN_POINT('',(-8.,10.,82.));
#139 = DIRECTION('',(-0.962650940154,0.,0.270745576918));
#140 = DIRECTION('',(0.270745576918,0.,0.962650940154));
#141 = ADVANCED_FACE('',(#142),#170,.T.);
#142 = FACE_BOUND('',#143,.F.);
#143 = EDGE_LOOP('',(#144,#145,#153,#160,#161,#162,#169));
#144 = ORIENTED_EDGE('',*,*,#86,.T.);
#145 = ORIENTED_EDGE('',*,*,#146,.T.);
#146 = EDGE_CURVE('',#78,#147,#149,.T.);
#147 = VERTEX_POINT('',#148);
#148 = CARTESIAN_POINT('',(-6.,80.,60.));
#149 = LINE('',#150,#151);
#150 = CARTESIAN_POINT('',(-6.,10.,82.));
#151 = VECTOR('',#152,1.);
#152 = DIRECTION('',(0.,0.953993716901,-0.29982659674));
#153 = ORIENTED_EDGE('',*,*,#154,.T.);
#154 = EDGE_CURVE('',#147,#147,#155,.T.);
#155 = CIRCLE('',#156,2.);
#156 = AXIS2_PLACEMENT_3D('',#157,#158,#159);
#157 = CARTESIAN_POINT('',(-8.,80.,60.));
#158 = DIRECTION('',(0.,0.953993716901,-0.29982659674));
#159 = DIRECTION('',(1.,0.,0.));
#160 = ORIENTED_EDGE('',*,*,#146,.F.);
#161 = ORIENTED_EDGE('',*,*,#77,.T.);
#162 = ORIENTED_EDGE('',*,*,#163,.F.);
#163 = EDGE_CURVE('',#96,#69,#164,.T.);
#164 = CIRCLE('',#165,2.);
#165 = AXIS2_PLACEMENT_3D('',#166,#167,#168);
#166 = CARTESIAN_POINT('',(-8.,10.,82.));
#167 = DIRECTION('',(0.,0.953993716901,-0.29982659674));
#168 = DIRECTION('',(1.,0.,0.));
#169 = ORIENTED_EDGE('',*,*,#95,.T.);
#170 = CYLINDRICAL_SURFACE('',#171,2.);
#171 = AXIS2_PLACEMENT_3D('',#172,#173,#174);
#172 = CARTESIAN_POINT('',(-8.,10.,82.));
#173 = DIRECTION('',(-0.,-0.953993716901,0.29982659674));
#174 = DIRECTION('',(1.,0.,0.));
#175 = ADVANCED_FACE('',(#176),#180,.F.);
#176 = FACE_BOUND('',#177,.F.);
#177 = EDGE_LOOP('',(#178,#179));
#178 = ORIENTED_EDGE('',*,*,#131,.T.);
#179 = ORIENTED_EDGE('',*,*,#163,.T.);
#180 = PLANE('',#181);
#181 = AXIS2_PLACEMENT_3D('',#182,#183,#184);
#182 = CARTESIAN_POINT('',(-8.,10.,82.));
#183 = DIRECTION('',(0.,0.953993716901,-0.29982659674));
#184 = DIRECTION('',(1.,0.,0.));
#185 = ADVANCED_FACE('',(#186),#189,.T.);
#186 = FACE_BOUND('',#187,.F.);
#187 = EDGE_LOOP('',(#188));
#188 = ORIENTED_EDGE('',*,*,#154,.F.);
#189 = PLANE('',#190);
#190 = AXIS2_PLACEMENT_3D('',#191,#192,#193);
#191 = CARTESIAN_POINT('',(-8.,80.,60.));
#192 = DIRECTION('',(0.,0.953993716901,-0.29982659674));
#193 = DIRECTION('',(1.,0.,0.));
#194 = ( GEOMETRIC_REPRESENTATION_CONTEXT(3) 
GLOBAL_UNCERTAINTY_ASSIGNED_CONTEXT((#198)) GLOBAL_UNIT_ASSIGNED_CONTEXT
((#195,#196,#197)) REPRESENTATION_CONTEXT('Context #1',
  '3D Context with UNIT and UNCERTAINTY') );
#195 = ( LENGTH_UNIT() NAMED_UNIT(*) SI_UNIT(.MILLI.,.METRE.) );
#196 = ( NAMED_UNIT(*) PLANE_ANGLE_UNIT() SI_UNIT($,.RADIAN.) );
#197 = ( NAMED_UNIT(*) SI_UNIT($,.STERADIAN.) SOLID_ANGLE_UNIT() );
#198 = UNCERTAINTY_MEASURE_WITH_UNIT(LENGTH_MEASURE(2.E-05),#195,
  'distance_accuracy_value','confusion accuracy');
#199 = CONTEXT_DEPENDENT_SHAPE_REPRESENTATION(#200,#202);
#200 = ( REPRESENTATION_RELATIONSHIP('','',#44,#10) 
REPRESENTATION_RELATIONSHIP_WITH_TRANSFORMATION(#201) 
SHAPE_REPRESENTATION_RELATIONSHIP() );
#201 = ITEM_DEFINED_TRANSFORMATION('','',#11,#15);
#202 = PRODUCT_DEFINITION_SHAPE('Placement','Placement of an item',#203
  );
#203 = NEXT_ASSEMBLY_USAGE_OCCURRENCE('10','WIRE_BATT_SW_0','',#5,#39,$
  );
#204 = PRODUCT_RELATED_PRODUCT_CATEGORY('part',$,(#41));
#205 = SHAPE_DEFINITION_REPRESENTATION(#206,#212);
#206 = PRODUCT_DEFINITION_SHAPE('','',#207);
#207 = PRODUCT_DEFINITION('design','',#208,#211);
#208 = PRODUCT_DEFINITION_FORMATION('','',#209);
#209 = PRODUCT('WIRE_BATT_SW_1','WIRE_BATT_SW_1','',(#210));
#210 = PRODUCT_CONTEXT('',#2,'mechanical');
#211 = PRODUCT_DEFINITION_CONTEXT('part definition',#2,'design');
#212 = ADVANCED_BREP_SHAPE_REPRESENTATION('',(#11,#213),#266);
#213 = MANIFOLD_SOLID_BREP('',#214);
#214 = CLOSED_SHELL('',(#215,#248,#257));
#215 = ADVANCED_FACE('',(#216),#243,.T.);
#216 = FACE_BOUND('',#217,.F.);
#217 = EDGE_LOOP('',(#218,#228,#235,#236));
#218 = ORIENTED_EDGE('',*,*,#219,.T.);
#219 = EDGE_CURVE('',#220,#222,#224,.T.);
#220 = VERTEX_POINT('',#221);
#221 = CARTESIAN_POINT('',(2.,0.,0.));
#222 = VERTEX_POINT('',#223);
#223 = CARTESIAN_POINT('',(2.,0.,92.));
#224 = LINE('',#225,#226);
#225 = CARTESIAN_POINT('',(2.,-4.9E-16,0.));
#226 = VECTOR('',#227,1.);
#227 = DIRECTION('',(0.,0.,1.));
#228 = ORIENTED_EDGE('',*,*,#229,.T.);
#229 = EDGE_CURVE('',#222,#222,#230,.T.);
#230 = CIRCLE('',#231,2.);
#231 = AXIS2_PLACEMENT_3D('',#232,#233,#234);
#232 = CARTESIAN_POINT('',(0.,0.,92.));
#233 = DIRECTION('',(0.,0.,1.));
#234 = DIRECTION('',(1.,0.,0.));
#235 = ORIENTED_EDGE('',*,*,#219,.F.);
#236 = ORIENTED_EDGE('',*,*,#237,.F.);
#237 = EDGE_CURVE('',#220,#220,#238,.T.);
#238 = CIRCLE('',#239,2.);
#239 = AXIS2_PLACEMENT_3D('',#240,#241,#242);
#240 = CARTESIAN_POINT('',(0.,0.,0.));
#241 = DIRECTION('',(0.,0.,1.));
#242 = DIRECTION('',(1.,0.,-0.));
#243 = CYLINDRICAL_SURFACE('',#244,2.);
#244 = AXIS2_PLACEMENT_3D('',#245,#246,#247);
#245 = CARTESIAN_POINT('',(0.,0.,0.));
#246 = DIRECTION('',(-0.,-0.,-1.));
#247 = DIRECTION('',(1.,0.,-0.));
#248 = ADVANCED_FACE('',(#249),#252,.F.);
#249 = FACE_BOUND('',#250,.T.);
#250 = EDGE_LOOP('',(#251));
#251 = ORIENTED_EDGE('',*,*,#237,.F.);
#252 = PLANE('',#253);
#253 = AXIS2_PLACEMENT_3D('',#254,#255,#256);
#254 = CARTESIAN_POINT('',(0.,0.,0.));
#255 = DIRECTION('',(0.,0.,1.));
#256 = DIRECTION('',(1.,0.,-0.));
#257 = ADVANCED_FACE('',(#258),#261,.T.);
#258 = FACE_BOUND('',#259,.F.);
#259 = EDGE_LOOP('',(#260));
#260 = ORIENTED_EDGE('',*,*,#229,.F.);
#261 = PLANE('',#262);
#262 = AXIS2_PLACEMENT_3D('',#263,#264,#265);
#263 = CARTESIAN_POINT('',(0.,0.,92.));
#264 = DIRECTION('',(0.,0.,1.));
#265 = DIRECTION('',(1.,0.,0.));
#266 = ( GEOMETRIC_REPRESENTATION_CONTEXT(3) 
GLOBAL_UNCERTAINTY_ASSIGNED_CONTEXT((#270)) GLOBAL_UNIT_ASSIGNED_CONTEXT
((#267,#268,#269)) REPRESENTATION_CONTEXT('Context #1',
  '3D Context with UNIT and UNCERTAINTY') );
#267 = ( LENGTH_UNIT() NAMED_UNIT(*) SI_UNIT(.MILLI.,.METRE.) );
#268 = ( NAMED_UNIT(*) PLANE_ANGLE_UNIT() SI_UNIT($,.RADIAN.) );
#269 = ( NAMED_UNIT(*) SI_UNIT($,.STERADIAN.) SOLID_ANGLE_UNIT() );
#270 = UNCERTAINTY_MEASURE_WITH_UNIT(LENGTH_MEASURE(1.E-07),#267,
  'distance_accuracy_value','confusion accuracy');
#271 = CONTEXT_DEPENDENT_SHAPE_REPRESENTATION(#272,#274);
#272 = ( REPRESENTATION_RELATIONSHIP('','',#212,#10) 
REPRESENTATION_RELATIONSHIP_WITH_TRANSFORMATION(#273) 
SHAPE_REPRESENTATION_RELATIONSHIP() );
#273 = ITEM_DEFINED_TRANSFORMATION('','',#11,#19);
#274 = PRODUCT_DEFINITION_SHAPE('Placement','Placement of an item',#275
  );
#275 = NEXT_ASSEMBLY_USAGE_OCCURRENCE('11','WIRE_BATT_SW_1','',#5,#207,$
  );
#276 = PRODUCT_RELATED_PRODUCT_CATEGORY('part',$,(#209));
#277 = SHAPE_DEFINITION_REPRESENTATION(#278,#284);
#278 = PRODUCT_DEFINITION_SHAPE('','',#279);
#279 = PRODUCT_DEFINITION('design','',#280,#283);
#280 = PRODUCT_DEFINITION_FORMATION('','',#281);
#281 = PRODUCT('WIRE_BATT_SW_2','WIRE_BATT_SW_2','',(#282));
#282 = PRODUCT_CONTEXT('',#2,'mechanical');
#283 = PRODUCT_DEFINITION_CONTEXT('part definition',#2,'design');
#284 = ADVANCED_BREP_SHAPE_REPRESENTATION('',(#11,#285),#338);
#285 = MANIFOLD_SOLID_BREP('',#286);
#286 = CLOSED_SHELL('',(#287,#320,#329));
#287 = ADVANCED_FACE('',(#288),#315,.T.);
#288 = FACE_BOUND('',#289,.F.);
#289 = EDGE_LOOP('',(#290,#300,#307,#308));
#290 = ORIENTED_EDGE('',*,*,#291,.T.);
#291 = EDGE_CURVE('',#292,#294,#296,.T.);
#292 = VERTEX_POINT('',#293);
#293 = CARTESIAN_POINT('',(2.,7.105427357601E-15,0.));
#294 = VERTEX_POINT('',#295);
#295 = CARTESIAN_POINT('',(2.,0.,22.715633383201));
#296 = LINE('',#297,#298);
#297 = CARTESIAN_POINT('',(2.,-4.9E-16,0.));
#298 = VECTOR('',#299,1.);
#299 = DIRECTION('',(0.,0.,1.));
#300 = ORIENTED_EDGE('',*,*,#301,.T.);
#301 = EDGE_CURVE('',#294,#294,#302,.T.);
#302 = CIRCLE('',#303,2.);
#303 = AXIS2_PLACEMENT_3D('',#304,#305,#306);
#304 = CARTESIAN_POINT('',(0.,0.,22.715633383201));
#305 = DIRECTION('',(0.,0.,1.));
#306 = DIRECTION('',(1.,0.,0.));
#307 = ORIENTED_EDGE('',*,*,#291,.F.);
#308 = ORIENTED_EDGE('',*,*,#309,.F.);
#309 = EDGE_CURVE('',#292,#292,#310,.T.);
#310 = CIRCLE('',#311,2.);
#311 = AXIS2_PLACEMENT_3D('',#312,#313,#314);
#312 = CARTESIAN_POINT('',(0.,0.,0.));
#313 = DIRECTION('',(0.,0.,1.));
#314 = DIRECTION('',(1.,0.,-0.));
#315 = CYLINDRICAL_SURFACE('',#316,2.);
#316 = AXIS2_PLACEMENT_3D('',#317,#318,#319);
#317 = CARTESIAN_POINT('',(0.,0.,0.));
#318 = DIRECTION('',(-0.,-0.,-1.));
#319 = DIRECTION('',(1.,0.,-0.));
#320 = ADVANCED_FACE('',(#321),#324,.F.);
#321 = FACE_BOUND('',#322,.T.);
#322 = EDGE_LOOP('',(#323));
#323 = ORIENTED_EDGE('',*,*,#309,.F.);
#324 = PLANE('',#325);
#325 = AXIS2_PLACEMENT_3D('',#326,#327,#328);
#326 = CARTESIAN_POINT('',(0.,0.,0.));
#327 = DIRECTION('',(0.,0.,1.));
#328 = DIRECTION('',(1.,0.,-0.));
#329 = ADVANCED_FACE('',(#330),#333,.T.);
#330 = FACE_BOUND('',#331,.F.);
#331 = EDGE_LOOP('',(#332));
#332 = ORIENTED_EDGE('',*,*,#301,.F.);
#333 = PLANE('',#334);
#334 = AXIS2_PLACEMENT_3D('',#335,#336,#337);
#335 = CARTESIAN_POINT('',(0.,0.,22.715633383201));
#336 = DIRECTION('',(0.,0.,1.));
#337 = DIRECTION('',(1.,0.,0.));
#338 = ( GEOMETRIC_REPRESENTATION_CONTEXT(3) 
GLOBAL_UNCERTAINTY_ASSIGNED_CONTEXT((#342)) GLOBAL_UNIT_ASSIGNED_CONTEXT
((#339,#340,#341)) REPRESENTATION_CONTEXT('Context #1',
  '3D Context with UNIT and UNCERTAINTY') );
#339 = ( LENGTH_UNIT() NAMED_UNIT(*) SI_UNIT(.MILLI.,.METRE.) );
#340 = ( NAMED_UNIT(*) PLANE_ANGLE_UNIT() SI_UNIT($,.RADIAN.) );
#341 = ( NAMED_UNIT(*) SI_UNIT($,.STERADIAN.) SOLID_ANGLE_UNIT() );
#342 = UNCERTAINTY_MEASURE_WITH_UNIT(LENGTH_MEASURE(1.E-07),#339,
  'distance_accuracy_value','confusion accuracy');
#343 = CONTEXT_DEPENDENT_SHAPE_REPRESENTATION(#344,#346);
#344 = ( REPRESENTATION_RELATIONSHIP('','',#284,#10) 
REPRESENTATION_RELATIONSHIP_WITH_TRANSFORMATION(#345) 
SHAPE_REPRESENTATION_RELATIONSHIP() );
#345 = ITEM_DEFINED_TRANSFORMATION('','',#11,#23);
#346 = PRODUCT_DEFINITION_SHAPE('Placement','Placement of an item',#347
  );
#347 = NEXT_ASSEMBLY_USAGE_OCCURRENCE('12','WIRE_BATT_SW_2','',#5,#279,$
  );
#348 = PRODUCT_RELATED_PRODUCT_CATEGORY('part',$,(#281));
#349 = SHAPE_DEFINITION_REPRESENTATION(#350,#356);
#350 = PRODUCT_DEFINITION_SHAPE('','',#351);
#351 = PRODUCT_DEFINITION('design','',#352,#355);
#352 = PRODUCT_DEFINITION_FORMATION('','',#353);
#353 = PRODUCT('WIRE_BATT_SW_3','WIRE_BATT_SW_3','',(#354));
#354 = PRODUCT_CONTEXT('',#2,'mechanical');
#355 = PRODUCT_DEFINITION_CONTEXT('part definition',#2,'design');
#356 = ADVANCED_BREP_SHAPE_REPRESENTATION('',(#11,#357),#410);
#357 = MANIFOLD_SOLID_BREP('',#358);
#358 = CLOSED_SHELL('',(#359,#392,#401));
#359 = ADVANCED_FACE('',(#360),#387,.T.);
#360 = FACE_BOUND('',#361,.F.);
#361 = EDGE_LOOP('',(#362,#372,#379,#380));
#362 = ORIENTED_EDGE('',*,*,#363,.T.);
#363 = EDGE_CURVE('',#364,#366,#368,.T.);
#364 = VERTEX_POINT('',#365);
#365 = CARTESIAN_POINT('',(2.,0.,7.105427357601E-15));
#366 = VERTEX_POINT('',#367);
#367 = CARTESIAN_POINT('',(2.,0.,72.553428588868));
#368 = LINE('',#369,#370);
#369 = CARTESIAN_POINT('',(2.,-4.9E-16,0.));
#370 = VECTOR('',#371,1.);
#371 = DIRECTION('',(0.,0.,1.));
#372 = ORIENTED_EDGE('',*,*,#373,.T.);
#373 = EDGE_CURVE('',#366,#366,#374,.T.);
#374 = CIRCLE('',#375,2.);
#375 = AXIS2_PLACEMENT_3D('',#376,#377,#378);
#376 = CARTESIAN_POINT('',(0.,0.,72.553428588868));
#377 = DIRECTION('',(0.,0.,1.));
#378 = DIRECTION('',(1.,0.,0.));
#379 = ORIENTED_EDGE('',*,*,#363,.F.);
#380 = ORIENTED_EDGE('',*,*,#381,.F.);
#381 = EDGE_CURVE('',#364,#364,#382,.T.);
#382 = CIRCLE('',#383,2.);
#383 = AXIS2_PLACEMENT_3D('',#384,#385,#386);
#384 = CARTESIAN_POINT('',(0.,0.,0.));
#385 = DIRECTION('',(0.,0.,1.));
#386 = DIRECTION('',(1.,0.,-0.));
#387 = CYLINDRICAL_SURFACE('',#388,2.);
#388 = AXIS2_PLACEMENT_3D('',#389,#390,#391);
#389 = CARTESIAN_POINT('',(0.,0.,0.));
#390 = DIRECTION('',(-0.,-0.,-1.));
#391 = DIRECTION('',(1.,0.,-0.));
#392 = ADVANCED_FACE('',(#393),#396,.F.);
#393 = FACE_BOUND('',#394,.T.);
#394 = EDGE_LOOP('',(#395));
#395 = ORIENTED_EDGE('',*,*,#381,.F.);
#396 = PLANE('',#397);
#397 = AXIS2_PLACEMENT_3D('',#398,#399,#400);
#398 = CARTESIAN_POINT('',(0.,0.,0.));
#399 = DIRECTION('',(0.,0.,1.));
#400 = DIRECTION('',(1.,0.,-0.));
#401 = ADVANCED_FACE('',(#402),#405,.T.);
#402 = FACE_BOUND('',#403,.F.);
#403 = EDGE_LOOP('',(#404));
#404 = ORIENTED_EDGE('',*,*,#373,.F.);
#405 = PLANE('',#406);
#406 = AXIS2_PLACEMENT_3D('',#407,#408,#409);
#407 = CARTESIAN_POINT('',(0.,0.,72.553428588868));
#408 = DIRECTION('',(0.,0.,1.));
#409 = DIRECTION('',(1.,0.,0.));
#410 = ( GEOMETRIC_REPRESENTATION_CONTEXT(3) 
GLOBAL_UNCERTAINTY_ASSIGNED_CONTEXT((#414)) GLOBAL_UNIT_ASSIGNED_CONTEXT
((#411,#412,#413)) REPRESENTATION_CONTEXT('Context #1',
  '3D Context with UNIT and UNCERTAINTY') );
#411 = ( LENGTH_UNIT() NAMED_UNIT(*) SI_UNIT(.MILLI.,.METRE.) );
#412 = ( NAMED_UNIT(*) PLANE_ANGLE_UNIT() SI_UNIT($,.RADIAN.) );
#413 = ( NAMED_UNIT(*) SI_UNIT($,.STERADIAN.) SOLID_ANGLE_UNIT() );
#414 = UNCERTAINTY_MEASURE_WITH_UNIT(LENGTH_MEASURE(1.E-07),#411,
  'distance_accuracy_value','confusion accuracy');
#415 = CONTEXT_DEPENDENT_SHAPE_REPRESENTATION(#416,#418);
#416 = ( REPRESENTATION_RELATIONSHIP('','',#356,#10) 
REPRESENTATION_RELATIONSHIP_WITH_TRANSFORMATION(#417) 
SHAPE_REPRESENTATION_RELATIONSHIP() );
#417 = ITEM_DEFINED_TRANSFORMATION('','',#11,#27);
#418 = PRODUCT_DEFINITION_SHAPE('Placement','Placement of an item',#419
  );
#419 = NEXT_ASSEMBLY_USAGE_OCCURRENCE('13','WIRE_BATT_SW_3','',#5,#351,$
  );
#420 = PRODUCT_RELATED_PRODUCT_CATEGORY('part',$,(#353));
ENDSEC;
END-ISO-10303-21;
