ISO-10303-21;
HEADER;
FILE_DESCRIPTION(('FreeCAD Model'),'2;1');
FILE_NAME('Open CASCADE Shape Model','2026-09-26T19:22:59',('Author'),(
    ''),'Open CASCADE STEP processor 7.8','FreeCAD','Unknown');
FILE_SCHEMA(('AUTOMOTIVE_DESIGN { 1 0 10303 214 1 1 1 1 }'));
ENDSEC;
DATA;
#1 = APPLICATION_PROTOCOL_DEFINITION('international standard',
  'automotive_design',2000,#2);
#2 = APPLICATION_CONTEXT(
  'core data for automotive mechanical design processes');
#3 = SHAPE_DEFINITION_REPRESENTATION(#4,#10);
#4 = PRODUCT_DEFINITION_SHAPE('','',#5);
#5 = PRODUCT_DEFINITION('design','',#6,#9);
#6 = PRODUCT_DEFINITION_FORMATION('','',#7);
#7 = PRODUCT('master_robot','master_robot','',(#8));
#8 = PRODUCT_CONTEXT('',#2,'mechanical');
#9 = PRODUCT_DEFINITION_CONTEXT('part definition',#2,'design');
#10 = SHAPE_REPRESENTATION('',(#11,#15,#19),#23);
#11 = AXIS2_PLACEMENT_3D('',#12,#13,#14);
#12 = CARTESIAN_POINT('',(0.,0.,0.));
#13 = DIRECTION('',(0.,0.,1.));
#14 = DIRECTION('',(1.,0.,-0.));
#15 = AXIS2_PLACEMENT_3D('',#16,#17,#18);
#16 = CARTESIAN_POINT('',(0.,0.,0.));
#17 = DIRECTION('',(0.,0.,1.));
#18 = DIRECTION('',(1.,0.,0.));
#19 = AXIS2_PLACEMENT_3D('',#20,#21,#22);
#20 = CARTESIAN_POINT('',(-30.,-85.,36.));
#21 = DIRECTION('',(-0.,0.948683298051,0.316227766017));
#22 = DIRECTION('',(1.,0.,0.));
#23 = ( GEOMETRIC_REPRESENTATION_CONTEXT(3) 
GLOBAL_UNCERTAINTY_ASSIGNED_CONTEXT((#27)) GLOBAL_UNIT_ASSIGNED_CONTEXT(
(#24,#25,#26)) REPRESENTATION_CONTEXT('Context #1',
  '3D Context with UNIT and UNCERTAINTY') );
#24 = ( LENGTH_UNIT() NAMED_UNIT(*) SI_UNIT(.MILLI.,.METRE.) );
#25 = ( NAMED_UNIT(*) PLANE_ANGLE_UNIT() SI_UNIT($,.RADIAN.) );
#26 = ( NAMED_UNIT(*) SI_UNIT($,.STERADIAN.) SOLID_ANGLE_UNIT() );
#27 = UNCERTAINTY_MEASURE_WITH_UNIT(LENGTH_MEASURE(1.E-03),#24,
  'distance_accuracy_value','confusion accuracy');
#28 = PRODUCT_RELATED_PRODUCT_CATEGORY('part',$,(#7));
#29 = SHAPE_DEFINITION_REPRESENTATION(#30,#36);
#30 = PRODUCT_DEFINITION_SHAPE('','',#31);
#31 = PRODUCT_DEFINITION('design','',#32,#35);
#32 = PRODUCT_DEFINITION_FORMATION('','',#33);
#33 = PRODUCT('WIRE_SW_CTRL_0','WIRE_SW_CTRL_0','',(#34));
#34 = PRODUCT_CONTEXT('',#2,'mechanical');
#35 = PRODUCT_DEFINITION_CONTEXT('part definition',#2,'design');
#36 = ADVANCED_BREP_SHAPE_REPRESENTATION('',(#11,#37),#176);
#37 = MANIFOLD_SOLID_BREP('',#38);
#38 = CLOSED_SHELL('',(#39,#99,#108,#142,#157,#167));
#39 = ADVANCED_FACE('',(#40),#94,.T.);
#40 = FACE_BOUND('',#41,.F.);
#41 = EDGE_LOOP('',(#42,#51,#59,#68,#77,#86,#93));
#42 = ORIENTED_EDGE('',*,*,#43,.F.);
#43 = EDGE_CURVE('',#44,#44,#46,.T.);
#44 = VERTEX_POINT('',#45);
#45 = CARTESIAN_POINT('',(-110.0485836183,-1.684206480864,
    35.696275521868));
#46 = CIRCLE('',#47,2.);
#47 = AXIS2_PLACEMENT_3D('',#48,#49,#50);
#48 = CARTESIAN_POINT('',(-112.,-2.,36.));
#49 = DIRECTION('',(0.151862239066,-0.987104553927,-5.062074635526E-02)
  );
#50 = DIRECTION('',(0.975708190836,0.157896759568,-0.151862239066));
#51 = ORIENTED_EDGE('',*,*,#52,.T.);
#52 = EDGE_CURVE('',#44,#53,#55,.T.);
#53 = VERTEX_POINT('',#54);
#54 = CARTESIAN_POINT('',(-98.28581223221,-78.1422204906,31.775351726497
    ));
#55 = LINE('',#56,#57);
#56 = CARTESIAN_POINT('',(-110.0485836183,-1.684206480864,
    35.696275521868));
#57 = VECTOR('',#58,1.);
#58 = DIRECTION('',(0.151862239066,-0.987104553927,-5.062074635526E-02)
  );
#59 = ORIENTED_EDGE('',*,*,#60,.F.);
#60 = EDGE_CURVE('',#61,#53,#63,.T.);
#61 = VERTEX_POINT('',#62);
#62 = CARTESIAN_POINT('',(-98.27021784114,-78.12266478754,32.22038030119
    ));
#63 = ELLIPSE('',#64,2.562245361823,2.);
#64 = AXIS2_PLACEMENT_3D('',#65,#66,#67);
#65 = CARTESIAN_POINT('',(-100.,-80.,32.));
#66 = DIRECTION('',(-0.735175221713,0.677865169255,-4.025629276512E-03)
  );
#67 = DIRECTION('',(0.6751040258,0.732691427774,8.601061571764E-02));
#68 = ORIENTED_EDGE('',*,*,#69,.F.);
#69 = EDGE_CURVE('',#70,#61,#72,.T.);
#70 = VERTEX_POINT('',#71);
#71 = CARTESIAN_POINT('',(-100.1225062892,-80.12103030989,
    33.992572175147));
#72 = ELLIPSE('',#73,2.562245361823,2.);
#73 = AXIS2_PLACEMENT_3D('',#74,#75,#76);
#74 = CARTESIAN_POINT('',(-100.,-80.,32.));
#75 = DIRECTION('',(-0.735175221713,0.677865169255,-4.025629276512E-03)
  );
#76 = DIRECTION('',(0.6751040258,0.732691427774,8.601061571764E-02));
#77 = ORIENTED_EDGE('',*,*,#78,.T.);
#78 = EDGE_CURVE('',#70,#79,#81,.T.);
#79 = VERTEX_POINT('',#80);
#80 = CARTESIAN_POINT('',(-99.87425089811,-79.86973183801,
    30.008219369625));
#81 = CIRCLE('',#82,2.);
#82 = AXIS2_PLACEMENT_3D('',#83,#84,#85);
#83 = CARTESIAN_POINT('',(-100.,-80.,32.));
#84 = DIRECTION('',(0.151862239066,-0.987104553927,-5.062074635526E-02)
  );
#85 = DIRECTION('',(0.975708190836,0.157896759568,-0.151862239066));
#86 = ORIENTED_EDGE('',*,*,#87,.F.);
#87 = EDGE_CURVE('',#53,#79,#88,.T.);
#88 = ELLIPSE('',#89,2.562245361823,2.);
#89 = AXIS2_PLACEMENT_3D('',#90,#91,#92);
#90 = CARTESIAN_POINT('',(-100.,-80.,32.));
#91 = DIRECTION('',(-0.735175221713,0.677865169255,-4.025629276512E-03)
  );
#92 = DIRECTION('',(0.6751040258,0.732691427774,8.601061571764E-02));
#93 = ORIENTED_EDGE('',*,*,#52,.F.);
#94 = CYLINDRICAL_SURFACE('',#95,2.);
#95 = AXIS2_PLACEMENT_3D('',#96,#97,#98);
#96 = CARTESIAN_POINT('',(-112.,-2.,36.));
#97 = DIRECTION('',(-0.151862239066,0.987104553927,5.062074635526E-02));
#98 = DIRECTION('',(0.975708190836,0.157896759568,-0.151862239066));
#99 = ADVANCED_FACE('',(#100),#103,.F.);
#100 = FACE_BOUND('',#101,.T.);
#101 = EDGE_LOOP('',(#102));
#102 = ORIENTED_EDGE('',*,*,#43,.F.);
#103 = PLANE('',#104);
#104 = AXIS2_PLACEMENT_3D('',#105,#106,#107);
#105 = CARTESIAN_POINT('',(-112.,-2.,36.));
#106 = DIRECTION('',(0.151862239066,-0.987104553927,-5.062074635526E-02)
  );
#107 = DIRECTION('',(0.975708190836,0.157896759568,-0.151862239066));
#108 = ADVANCED_FACE('',(#109),#137,.T.);
#109 = FACE_BOUND('',#110,.F.);
#110 = EDGE_LOOP('',(#111,#112,#120,#127,#128,#135,#136));
#111 = ORIENTED_EDGE('',*,*,#87,.T.);
#112 = ORIENTED_EDGE('',*,*,#113,.T.);
#113 = EDGE_CURVE('',#79,#114,#116,.T.);
#114 = VERTEX_POINT('',#115);
#115 = CARTESIAN_POINT('',(-29.87661487437,-84.8659560804,
    34.008315201044));
#116 = LINE('',#117,#118);
#117 = CARTESIAN_POINT('',(-99.87661487437,-79.8659560804,
    30.008315201044));
#118 = VECTOR('',#119,1.);
#119 = DIRECTION('',(0.995842399478,-7.113159996272E-02,
    5.690527997018E-02));
#120 = ORIENTED_EDGE('',*,*,#121,.T.);
#121 = EDGE_CURVE('',#114,#114,#122,.T.);
#122 = CIRCLE('',#123,2.);
#123 = AXIS2_PLACEMENT_3D('',#124,#125,#126);
#124 = CARTESIAN_POINT('',(-30.,-85.,36.));
#125 = DIRECTION('',(0.995842399478,-7.113159996272E-02,
    5.690527997018E-02));
#126 = DIRECTION('',(6.169256281297E-02,6.702195979907E-02,
    -0.995842399478));
#127 = ORIENTED_EDGE('',*,*,#113,.F.);
#128 = ORIENTED_EDGE('',*,*,#129,.F.);
#129 = EDGE_CURVE('',#70,#79,#130,.T.);
#130 = CIRCLE('',#131,2.);
#131 = AXIS2_PLACEMENT_3D('',#132,#133,#134);
#132 = CARTESIAN_POINT('',(-100.,-80.,32.));
#133 = DIRECTION('',(0.995842399478,-7.113159996272E-02,
    5.690527997018E-02));
#134 = DIRECTION('',(6.169256281297E-02,6.702195979907E-02,
    -0.995842399478));
#135 = ORIENTED_EDGE('',*,*,#69,.T.);
#136 = ORIENTED_EDGE('',*,*,#60,.T.);
#137 = CYLINDRICAL_SURFACE('',#138,2.);
#138 = AXIS2_PLACEMENT_3D('',#139,#140,#141);
#139 = CARTESIAN_POINT('',(-100.,-80.,32.));
#140 = DIRECTION('',(-0.995842399478,7.113159996272E-02,
    -5.690527997018E-02));
#141 = DIRECTION('',(6.169256281297E-02,6.702195979907E-02,
    -0.995842399478));
#142 = ADVANCED_FACE('',(#143),#152,.T.);
#143 = FACE_BOUND('',#144,.T.);
#144 = EDGE_LOOP('',(#145,#151));
#145 = ORIENTED_EDGE('',*,*,#146,.T.);
#146 = EDGE_CURVE('',#79,#70,#147,.T.);
#147 = LINE('',#148,#149);
#148 = CARTESIAN_POINT('',(-100.,-80.,32.));
#149 = VECTOR('',#150,1.);
#150 = DIRECTION('',(-6.125314464342E-02,-6.051515494892E-02,
    0.996286087574));
#151 = ORIENTED_EDGE('',*,*,#78,.T.);
#152 = PLANE('',#153);
#153 = AXIS2_PLACEMENT_3D('',#154,#155,#156);
#154 = CARTESIAN_POINT('',(-100.,-80.,32.));
#155 = DIRECTION('',(0.151862239066,-0.987104553927,-5.062074635526E-02)
  );
#156 = DIRECTION('',(0.975708190836,0.157896759568,-0.151862239066));
#157 = ADVANCED_FACE('',(#158),#162,.F.);
#158 = FACE_BOUND('',#159,.F.);
#159 = EDGE_LOOP('',(#160,#161));
#160 = ORIENTED_EDGE('',*,*,#129,.T.);
#161 = ORIENTED_EDGE('',*,*,#146,.T.);
#162 = PLANE('',#163);
#163 = AXIS2_PLACEMENT_3D('',#164,#165,#166);
#164 = CARTESIAN_POINT('',(-100.,-80.,32.));
#165 = DIRECTION('',(0.995842399478,-7.113159996272E-02,
    5.690527997018E-02));
#166 = DIRECTION('',(6.169256281297E-02,6.702195979907E-02,
    -0.995842399478));
#167 = ADVANCED_FACE('',(#168),#171,.T.);
#168 = FACE_BOUND('',#169,.F.);
#169 = EDGE_LOOP('',(#170));
#170 = ORIENTED_EDGE('',*,*,#121,.F.);
#171 = PLANE('',#172);
#172 = AXIS2_PLACEMENT_3D('',#173,#174,#175);
#173 = CARTESIAN_POINT('',(-30.,-85.,36.));
#174 = DIRECTION('',(0.995842399478,-7.113159996272E-02,
    5.690527997018E-02));
#175 = DIRECTION('',(6.169256281297E-02,6.702195979907E-02,
    -0.995842399478));
#176 = ( GEOMETRIC_REPRESENTATION_CONTEXT(3) 
GLOBAL_UNCERTAINTY_ASSIGNED_CONTEXT((#180)) GLOBAL_UNIT_ASSIGNED_CONTEXT
((#177,#178,#179)) REPRESENTATION_CONTEXT('Context #1',
  '3D Context with UNIT and UNCERTAINTY') );
#177 = ( LENGTH_UNIT() NAMED_UNIT(*) SI_UNIT(.MILLI.,.METRE.) );
#178 = ( NAMED_UNIT(*) PLANE_ANGLE_UNIT() SI_UNIT($,.RADIAN.) );
#179 = ( NAMED_UNIT(*) SI_UNIT($,.STERADIAN.) SOLID_ANGLE_UNIT() );
#180 = UNCERTAINTY_MEASURE_WITH_UNIT(LENGTH_MEASURE(2.E-03),#177,
  'distance_accuracy_value','confusion accuracy');
#181 = CONTEXT_DEPENDENT_SHAPE_REPRESENTATION(#182,#184);
#182 = ( REPRESENTATION_RELATIONSHIP('','',#36,#10) 
REPRESENTATION_RELATIONSHIP_WITH_TRANSFORMATION(#183) 
SHAPE_REPRESENTATION_RELATIONSHIP() );
#183 = ITEM_DEFINED_TRANSFORMATION('','',#11,#15);
#184 = PRODUCT_DEFINITION_SHAPE('Placement','Placement of an item',#185
  );
#185 = NEXT_ASSEMBLY_USAGE_OCCURRENCE('14','WIRE_SW_CTRL_0','',#5,#31,$
  );
#186 = PRODUCT_RELATED_PRODUCT_CATEGORY('part',$,(#33));
#187 = SHAPE_DEFINITION_REPRESENTATION(#188,#194);
#188 = PRODUCT_DEFINITION_SHAPE('','',#189);
#189 = PRODUCT_DEFINITION('design','',#190,#193);
#190 = PRODUCT_DEFINITION_FORMATION('','',#191);
#191 = PRODUCT('WIRE_SW_CTRL_1','WIRE_SW_CTRL_1','',(#192));
#192 = PRODUCT_CONTEXT('',#2,'mechanical');
#193 = PRODUCT_DEFINITION_CONTEXT('part definition',#2,'design');
#194 = ADVANCED_BREP_SHAPE_REPRESENTATION('',(#11,#195),#248);
#195 = MANIFOLD_SOLID_BREP('',#196);
#196 = CLOSED_SHELL('',(#197,#230,#239));
#197 = ADVANCED_FACE('',(#198),#225,.T.);
#198 = FACE_BOUND('',#199,.F.);
#199 = EDGE_LOOP('',(#200,#210,#217,#218));
#200 = ORIENTED_EDGE('',*,*,#201,.T.);
#201 = EDGE_CURVE('',#202,#204,#206,.T.);
#202 = VERTEX_POINT('',#203);
#203 = CARTESIAN_POINT('',(2.,0.,0.));
#204 = VERTEX_POINT('',#205);
#205 = CARTESIAN_POINT('',(2.,7.105427357601E-15,12.649110640674));
#206 = LINE('',#207,#208);
#207 = CARTESIAN_POINT('',(2.,-4.9E-16,0.));
#208 = VECTOR('',#209,1.);
#209 = DIRECTION('',(0.,0.,1.));
#210 = ORIENTED_EDGE('',*,*,#211,.T.);
#211 = EDGE_CURVE('',#204,#204,#212,.T.);
#212 = CIRCLE('',#213,2.);
#213 = AXIS2_PLACEMENT_3D('',#214,#215,#216);
#214 = CARTESIAN_POINT('',(0.,0.,12.649110640674));
#215 = DIRECTION('',(0.,0.,1.));
#216 = DIRECTION('',(1.,0.,0.));
#217 = ORIENTED_EDGE('',*,*,#201,.F.);
#218 = ORIENTED_EDGE('',*,*,#219,.F.);
#219 = EDGE_CURVE('',#202,#202,#220,.T.);
#220 = CIRCLE('',#221,2.);
#221 = AXIS2_PLACEMENT_3D('',#222,#223,#224);
#222 = CARTESIAN_POINT('',(0.,0.,0.));
#223 = DIRECTION('',(0.,0.,1.));
#224 = DIRECTION('',(1.,0.,-0.));
#225 = CYLINDRICAL_SURFACE('',#226,2.);
#226 = AXIS2_PLACEMENT_3D('',#227,#228,#229);
#227 = CARTESIAN_POINT('',(0.,0.,0.));
#228 = DIRECTION('',(-0.,-0.,-1.));
#229 = DIRECTION('',(1.,0.,-0.));
#230 = ADVANCED_FACE('',(#231),#234,.F.);
#231 = FACE_BOUND('',#232,.T.);
#232 = EDGE_LOOP('',(#233));
#233 = ORIENTED_EDGE('',*,*,#219,.F.);
#234 = PLANE('',#235);
#235 = AXIS2_PLACEMENT_3D('',#236,#237,#238);
#236 = CARTESIAN_POINT('',(0.,0.,0.));
#237 = DIRECTION('',(0.,0.,1.));
#238 = DIRECTION('',(1.,0.,-0.));
#239 = ADVANCED_FACE('',(#240),#243,.T.);
#240 = FACE_BOUND('',#241,.F.);
#241 = EDGE_LOOP('',(#242));
#242 = ORIENTED_EDGE('',*,*,#211,.F.);
#243 = PLANE('',#244);
#244 = AXIS2_PLACEMENT_3D('',#245,#246,#247);
#245 = CARTESIAN_POINT('',(0.,0.,12.649110640674));
#246 = DIRECTION('',(0.,0.,1.));
#247 = DIRECTION('',(1.,0.,0.));
#248 = ( GEOMETRIC_REPRESENTATION_CONTEXT(3) 
GLOBAL_UNCERTAINTY_ASSIGNED_CONTEXT((#252)) GLOBAL_UNIT_ASSIGNED_CONTEXT
((#249,#250,#251)) REPRESENTATION_CONTEXT('Context #1',
  '3D Context with UNIT and UNCERTAINTY') );
#249 = ( LENGTH_UNIT() NAMED_UNIT(*) SI_UNIT(.MILLI.,.METRE.) );
#250 = ( NAMED_UNIT(*) PLANE_ANGLE_UNIT() SI_UNIT($,.RADIAN.) );
#251 = ( NAMED_UNIT(*) SI_UNIT($,.STERADIAN.) SOLID_ANGLE_UNIT() );
#252 = UNCERTAINTY_MEASURE_WITH_UNIT(LENGTH_MEASURE(1.E-07),#249,
  'distance_accuracy_value','confusion accuracy');
#253 = CONTEXT_DEPENDENT_SHAPE_REPRESENTATION(#254,#256);
#254 = ( REPRESENTATION_RELATIONSHIP('','',#194,#10) 
REPRESENTATION_RELATIONSHIP_WITH_TRANSFORMATION(#255) 
SHAPE_REPRESENTATION_RELATIONSHIP() );
#255 = ITEM_DEFINED_TRANSFORMATION('','',#11,#19);
#256 = PRODUCT_DEFINITION_SHAPE('Placement','Placement of an item',#257
  );
#257 = NEXT_ASSEMBLY_USAGE_OCCURRENCE('15','WIRE_SW_CTRL_1','',#5,#189,$
  );
#258 = PRODUCT_RELATED_PRODUCT_CATEGORY('part',$,(#191));
ENDSEC;
END-ISO-10303-21;
