ISO-10303-21;
HEADER;
FILE_DESCRIPTION(('FreeCAD Model'),'2;1');
FILE_NAME('Open CASCADE Shape Model','2026-10-02T02:50:35',('Author'),(
    ''),'Open CASCADE STEP processor 7.8','FreeCAD','Unknown');
FILE_SCHEMA(('AUTOMOTIVE_DESIGN { 1 0 10303 214 1 1 1 1 }'));
ENDSEC;
DATA;
#1 = APPLICATION_PROTOCOL_DEFINITION('international standard',
  'automotive_design',2000,#2);
#2 = APPLICATION_CONTEXT(
  'core data for automotive mechanical design processes');
#3 = SHAPE_DEFINITION_REPRESENTATION(#4,#10);
#4 = PRODUCT_DEFINITION_SHAPE('','',#5);
#5 = PRODUCT_DEFINITION('design','',#6,#9);
#6 = PRODUCT_DEFINITION_FORMATION('','',#7);
#7 = PRODUCT('master_robot','master_robot','',(#8));
#8 = PRODUCT_CONTEXT('',#2,'mechanical');
#9 = PRODUCT_DEFINITION_CONTEXT('part definition',#2,'design');
#10 = SHAPE_REPRESENTATION('',(#11,#15,#19,#23,#27,#31,#35,#39),#43);
#11 = AXIS2_PLACEMENT_3D('',#12,#13,#14);
#12 = CARTESIAN_POINT('',(0.,0.,0.));
#13 = DIRECTION('',(0.,0.,1.));
#14 = DIRECTION('',(1.,0.,-0.));
#15 = AXIS2_PLACEMENT_3D('',#16,#17,#18);
#16 = CARTESIAN_POINT('',(0.,0.,0.));
#17 = DIRECTION('',(0.,0.,1.));
#18 = DIRECTION('',(1.,0.,0.));
#19 = AXIS2_PLACEMENT_3D('',#20,#21,#22);
#20 = CARTESIAN_POINT('',(-98.,-59.,274.));
#21 = DIRECTION('',(-0.991227900683,0.,-0.132163720091));
#22 = DIRECTION('',(-0.132163720091,0.,0.991227900683));
#23 = AXIS2_PLACEMENT_3D('',#24,#25,#26);
#24 = CARTESIAN_POINT('',(-113.,-59.,272.));
#25 = DIRECTION('',(-7.387168551531E-02,0.997267754457,
    3.556183125752E-17));
#26 = DIRECTION('',(0.994542974079,7.366984993179E-02,7.387168551531E-02
    ));
#27 = AXIS2_PLACEMENT_3D('',#28,#29,#30);
#28 = CARTESIAN_POINT('',(-115.,-32.,272.));
#29 = DIRECTION('',(9.9503719021E-02,-0.99503719021,2.116362640692E-16)
  );
#30 = DIRECTION('',(0.990099009901,9.90099009901E-02,-9.9503719021E-02)
  );
#31 = AXIS2_PLACEMENT_3D('',#32,#33,#34);
#32 = CARTESIAN_POINT('',(-113.,-52.,272.));
#33 = DIRECTION('',(0.,0.,-1.));
#34 = DIRECTION('',(-1.,0.,0.));
#35 = AXIS2_PLACEMENT_3D('',#36,#37,#38);
#36 = CARTESIAN_POINT('',(-113.,-52.,255.));
#37 = DIRECTION('',(0.738271660735,-0.671156055214,-6.71156055214E-02));
#38 = DIRECTION('',(0.415742134534,0.53114351406,-0.738271660735));
#39 = AXIS2_PLACEMENT_3D('',#40,#41,#42);
#40 = CARTESIAN_POINT('',(-102.,-62.,254.));
#41 = DIRECTION('',(0.549442255795,-0.824163383692,-0.137360563949));
#42 = DIRECTION('',(0.6500429034,0.524935644899,-0.549442255795));
#43 = ( GEOMETRIC_REPRESENTATION_CONTEXT(3) 
GLOBAL_UNCERTAINTY_ASSIGNED_CONTEXT((#47)) GLOBAL_UNIT_ASSIGNED_CONTEXT(
(#44,#45,#46)) REPRESENTATION_CONTEXT('Context #1',
  '3D Context with UNIT and UNCERTAINTY') );
#44 = ( LENGTH_UNIT() NAMED_UNIT(*) SI_UNIT(.MILLI.,.METRE.) );
#45 = ( NAMED_UNIT(*) PLANE_ANGLE_UNIT() SI_UNIT($,.RADIAN.) );
#46 = ( NAMED_UNIT(*) SI_UNIT($,.STERADIAN.) SOLID_ANGLE_UNIT() );
#47 = UNCERTAINTY_MEASURE_WITH_UNIT(LENGTH_MEASURE(5.E-06),#44,
  'distance_accuracy_value','confusion accuracy');
#48 = PRODUCT_RELATED_PRODUCT_CATEGORY('part',$,(#7));
#49 = SHAPE_DEFINITION_REPRESENTATION(#50,#56);
#50 = PRODUCT_DEFINITION_SHAPE('','',#51);
#51 = PRODUCT_DEFINITION('design','',#52,#55);
#52 = PRODUCT_DEFINITION_FORMATION('','',#53);
#53 = PRODUCT('WIRE_HOOD_SV_0','WIRE_HOOD_SV_0','',(#54));
#54 = PRODUCT_CONTEXT('',#2,'mechanical');
#55 = PRODUCT_DEFINITION_CONTEXT('part definition',#2,'design');
#56 = ADVANCED_BREP_SHAPE_REPRESENTATION('',(#11,#57),#206);
#57 = MANIFOLD_SOLID_BREP('',#58);
#58 = CLOSED_SHELL('',(#59,#119,#128,#144,#186,#197));
#59 = ADVANCED_FACE('',(#60),#114,.T.);
#60 = FACE_BOUND('',#61,.F.);
#61 = EDGE_LOOP('',(#62,#71,#79,#88,#97,#106,#113));
#62 = ORIENTED_EDGE('',*,*,#63,.F.);
#63 = EDGE_CURVE('',#64,#64,#66,.T.);
#64 = VERTEX_POINT('',#65);
#65 = CARTESIAN_POINT('',(-83.37177950029,-79.25644099941,
    330.22903933372));
#66 = CIRCLE('',#67,1.);
#67 = AXIS2_PLACEMENT_3D('',#68,#69,#70);
#68 = CARTESIAN_POINT('',(-84.,-80.,330.));
#69 = DIRECTION('',(-0.229039333726,0.458078667451,-0.858897501471));
#70 = DIRECTION('',(0.628220499706,0.743559000588,0.229039333726));
#71 = ORIENTED_EDGE('',*,*,#72,.T.);
#72 = EDGE_CURVE('',#64,#73,#75,.T.);
#73 = VERTEX_POINT('',#74);
#74 = CARTESIAN_POINT('',(-91.37177950029,-63.25644099941,
    300.22903933372));
#75 = LINE('',#76,#77);
#76 = CARTESIAN_POINT('',(-83.37177950029,-79.25644099941,
    330.22903933372));
#77 = VECTOR('',#78,1.);
#78 = DIRECTION('',(-0.229039333726,0.458078667451,-0.858897501471));
#79 = ORIENTED_EDGE('',*,*,#80,.T.);
#80 = EDGE_CURVE('',#73,#81,#83,.T.);
#81 = VERTEX_POINT('',#82);
#82 = CARTESIAN_POINT('',(-91.0266005128,-63.89753689608,299.79507379216
    ));
#83 = CIRCLE('',#84,1.);
#84 = AXIS2_PLACEMENT_3D('',#85,#86,#87);
#85 = CARTESIAN_POINT('',(-92.,-64.,300.));
#86 = DIRECTION('',(-0.229039333726,0.458078667451,-0.858897501471));
#87 = DIRECTION('',(0.628220499706,0.743559000588,0.229039333726));
#88 = ORIENTED_EDGE('',*,*,#89,.F.);
#89 = EDGE_CURVE('',#90,#81,#92,.T.);
#90 = VERTEX_POINT('',#91);
#91 = CARTESIAN_POINT('',(-91.9721484754,-64.95042363931,299.65708292218
    ));
#92 = ELLIPSE('',#93,1.010778375239,1.);
#93 = AXIS2_PLACEMENT_3D('',#94,#95,#96);
#94 = CARTESIAN_POINT('',(-92.,-64.,300.));
#95 = DIRECTION('',(0.227451502771,-0.324589255581,0.918100010374));
#96 = DIRECTION('',(2.75545315188E-02,-0.940288853224,-0.339260401898));
#97 = ORIENTED_EDGE('',*,*,#98,.F.);
#98 = EDGE_CURVE('',#99,#90,#101,.T.);
#99 = VERTEX_POINT('',#100);
#100 = CARTESIAN_POINT('',(-92.97339948719,-64.10246310391,
    300.20492620783));
#101 = ELLIPSE('',#102,1.010778375239,1.);
#102 = AXIS2_PLACEMENT_3D('',#103,#104,#105);
#103 = CARTESIAN_POINT('',(-92.,-64.,300.));
#104 = DIRECTION('',(0.227451502771,-0.324589255581,0.918100010374));
#105 = DIRECTION('',(2.75545315188E-02,-0.940288853224,-0.339260401898)
  );
#106 = ORIENTED_EDGE('',*,*,#107,.T.);
#107 = EDGE_CURVE('',#99,#73,#108,.T.);
#108 = CIRCLE('',#109,1.);
#109 = AXIS2_PLACEMENT_3D('',#110,#111,#112);
#110 = CARTESIAN_POINT('',(-92.,-64.,300.));
#111 = DIRECTION('',(-0.229039333726,0.458078667451,-0.858897501471));
#112 = DIRECTION('',(0.628220499706,0.743559000588,0.229039333726));
#113 = ORIENTED_EDGE('',*,*,#72,.F.);
#114 = CYLINDRICAL_SURFACE('',#115,1.);
#115 = AXIS2_PLACEMENT_3D('',#116,#117,#118);
#116 = CARTESIAN_POINT('',(-84.,-80.,330.));
#117 = DIRECTION('',(0.229039333726,-0.458078667451,0.858897501471));
#118 = DIRECTION('',(0.628220499706,0.743559000588,0.229039333726));
#119 = ADVANCED_FACE('',(#120),#123,.F.);
#120 = FACE_BOUND('',#121,.T.);
#121 = EDGE_LOOP('',(#122));
#122 = ORIENTED_EDGE('',*,*,#63,.F.);
#123 = PLANE('',#124);
#124 = AXIS2_PLACEMENT_3D('',#125,#126,#127);
#125 = CARTESIAN_POINT('',(-84.,-80.,330.));
#126 = DIRECTION('',(-0.229039333726,0.458078667451,-0.858897501471));
#127 = DIRECTION('',(0.628220499706,0.743559000588,0.229039333726));
#128 = ADVANCED_FACE('',(#129),#139,.T.);
#129 = FACE_BOUND('',#130,.T.);
#130 = EDGE_LOOP('',(#131,#132,#133));
#131 = ORIENTED_EDGE('',*,*,#107,.T.);
#132 = ORIENTED_EDGE('',*,*,#80,.T.);
#133 = ORIENTED_EDGE('',*,*,#134,.T.);
#134 = EDGE_CURVE('',#81,#99,#135,.T.);
#135 = LINE('',#136,#137);
#136 = CARTESIAN_POINT('',(-92.,-64.,300.));
#137 = VECTOR('',#138,1.);
#138 = DIRECTION('',(-0.973399487199,-0.102463103916,0.204926207831));
#139 = PLANE('',#140);
#140 = AXIS2_PLACEMENT_3D('',#141,#142,#143);
#141 = CARTESIAN_POINT('',(-92.,-64.,300.));
#142 = DIRECTION('',(-0.229039333726,0.458078667451,-0.858897501471));
#143 = DIRECTION('',(0.628220499706,0.743559000588,0.229039333726));
#144 = ADVANCED_FACE('',(#145),#181,.T.);
#145 = FACE_BOUND('',#146,.F.);
#146 = EDGE_LOOP('',(#147,#156,#164,#171,#172,#179,#180));
#147 = ORIENTED_EDGE('',*,*,#148,.F.);
#148 = EDGE_CURVE('',#149,#81,#151,.T.);
#149 = VERTEX_POINT('',#150);
#150 = CARTESIAN_POINT('',(-92.15537710056,-63.03718574953,
    300.2210128406));
#151 = CIRCLE('',#152,1.);
#152 = AXIS2_PLACEMENT_3D('',#153,#154,#155);
#153 = CARTESIAN_POINT('',(-92.,-64.,300.));
#154 = DIRECTION('',(-0.221012840605,0.184177367171,-0.957722309289));
#155 = DIRECTION('',(-0.155377100564,0.96281425047,0.221012840605));
#156 = ORIENTED_EDGE('',*,*,#157,.T.);
#157 = EDGE_CURVE('',#149,#158,#160,.T.);
#158 = VERTEX_POINT('',#159);
#159 = CARTESIAN_POINT('',(-98.15537710056,-58.03718574953,
    274.2210128406));
#160 = LINE('',#161,#162);
#161 = CARTESIAN_POINT('',(-92.15537710056,-63.03718574953,
    300.2210128406));
#162 = VECTOR('',#163,1.);
#163 = DIRECTION('',(-0.221012840605,0.184177367171,-0.957722309289));
#164 = ORIENTED_EDGE('',*,*,#165,.T.);
#165 = EDGE_CURVE('',#158,#158,#166,.T.);
#166 = CIRCLE('',#167,1.);
#167 = AXIS2_PLACEMENT_3D('',#168,#169,#170);
#168 = CARTESIAN_POINT('',(-98.,-59.,274.));
#169 = DIRECTION('',(-0.221012840605,0.184177367171,-0.957722309289));
#170 = DIRECTION('',(-0.155377100564,0.96281425047,0.221012840605));
#171 = ORIENTED_EDGE('',*,*,#157,.F.);
#172 = ORIENTED_EDGE('',*,*,#173,.F.);
#173 = EDGE_CURVE('',#99,#149,#174,.T.);
#174 = CIRCLE('',#175,1.);
#175 = AXIS2_PLACEMENT_3D('',#176,#177,#178);
#176 = CARTESIAN_POINT('',(-92.,-64.,300.));
#177 = DIRECTION('',(-0.221012840605,0.184177367171,-0.957722309289));
#178 = DIRECTION('',(-0.155377100564,0.96281425047,0.221012840605));
#179 = ORIENTED_EDGE('',*,*,#98,.T.);
#180 = ORIENTED_EDGE('',*,*,#89,.T.);
#181 = CYLINDRICAL_SURFACE('',#182,1.);
#182 = AXIS2_PLACEMENT_3D('',#183,#184,#185);
#183 = CARTESIAN_POINT('',(-92.,-64.,300.));
#184 = DIRECTION('',(0.221012840605,-0.184177367171,0.957722309289));
#185 = DIRECTION('',(-0.155377100564,0.96281425047,0.221012840605));
#186 = ADVANCED_FACE('',(#187),#192,.F.);
#187 = FACE_BOUND('',#188,.F.);
#188 = EDGE_LOOP('',(#189,#190,#191));
#189 = ORIENTED_EDGE('',*,*,#173,.T.);
#190 = ORIENTED_EDGE('',*,*,#148,.T.);
#191 = ORIENTED_EDGE('',*,*,#134,.T.);
#192 = PLANE('',#193);
#193 = AXIS2_PLACEMENT_3D('',#194,#195,#196);
#194 = CARTESIAN_POINT('',(-92.,-64.,300.));
#195 = DIRECTION('',(-0.221012840605,0.184177367171,-0.957722309289));
#196 = DIRECTION('',(-0.155377100564,0.96281425047,0.221012840605));
#197 = ADVANCED_FACE('',(#198),#201,.T.);
#198 = FACE_BOUND('',#199,.F.);
#199 = EDGE_LOOP('',(#200));
#200 = ORIENTED_EDGE('',*,*,#165,.F.);
#201 = PLANE('',#202);
#202 = AXIS2_PLACEMENT_3D('',#203,#204,#205);
#203 = CARTESIAN_POINT('',(-98.,-59.,274.));
#204 = DIRECTION('',(-0.221012840605,0.184177367171,-0.957722309289));
#205 = DIRECTION('',(-0.155377100564,0.96281425047,0.221012840605));
#206 = ( GEOMETRIC_REPRESENTATION_CONTEXT(3) 
GLOBAL_UNCERTAINTY_ASSIGNED_CONTEXT((#210)) GLOBAL_UNIT_ASSIGNED_CONTEXT
((#207,#208,#209)) REPRESENTATION_CONTEXT('Context #1',
  '3D Context with UNIT and UNCERTAINTY') );
#207 = ( LENGTH_UNIT() NAMED_UNIT(*) SI_UNIT(.MILLI.,.METRE.) );
#208 = ( NAMED_UNIT(*) PLANE_ANGLE_UNIT() SI_UNIT($,.RADIAN.) );
#209 = ( NAMED_UNIT(*) SI_UNIT($,.STERADIAN.) SOLID_ANGLE_UNIT() );
#210 = UNCERTAINTY_MEASURE_WITH_UNIT(LENGTH_MEASURE(1.E-05),#207,
  'distance_accuracy_value','confusion accuracy');
#211 = CONTEXT_DEPENDENT_SHAPE_REPRESENTATION(#212,#214);
#212 = ( REPRESENTATION_RELATIONSHIP('','',#56,#10) 
REPRESENTATION_RELATIONSHIP_WITH_TRANSFORMATION(#213) 
SHAPE_REPRESENTATION_RELATIONSHIP() );
#213 = ITEM_DEFINED_TRANSFORMATION('','',#11,#15);
#214 = PRODUCT_DEFINITION_SHAPE('Placement','Placement of an item',#215
  );
#215 = NEXT_ASSEMBLY_USAGE_OCCURRENCE('116','WIRE_HOOD_SV_0','',#5,#51,$
  );
#216 = PRODUCT_RELATED_PRODUCT_CATEGORY('part',$,(#53));
#217 = SHAPE_DEFINITION_REPRESENTATION(#218,#224);
#218 = PRODUCT_DEFINITION_SHAPE('','',#219);
#219 = PRODUCT_DEFINITION('design','',#220,#223);
#220 = PRODUCT_DEFINITION_FORMATION('','',#221);
#221 = PRODUCT('WIRE_HOOD_SV_1','WIRE_HOOD_SV_1','',(#222));
#222 = PRODUCT_CONTEXT('',#2,'mechanical');
#223 = PRODUCT_DEFINITION_CONTEXT('part definition',#2,'design');
#224 = ADVANCED_BREP_SHAPE_REPRESENTATION('',(#11,#225),#278);
#225 = MANIFOLD_SOLID_BREP('',#226);
#226 = CLOSED_SHELL('',(#227,#260,#269));
#227 = ADVANCED_FACE('',(#228),#255,.T.);
#228 = FACE_BOUND('',#229,.F.);
#229 = EDGE_LOOP('',(#230,#240,#247,#248));
#230 = ORIENTED_EDGE('',*,*,#231,.T.);
#231 = EDGE_CURVE('',#232,#234,#236,.T.);
#232 = VERTEX_POINT('',#233);
#233 = CARTESIAN_POINT('',(1.,0.,-7.105427357601E-15));
#234 = VERTEX_POINT('',#235);
#235 = CARTESIAN_POINT('',(1.,0.,15.132745950422));
#236 = LINE('',#237,#238);
#237 = CARTESIAN_POINT('',(1.,-2.4E-16,0.));
#238 = VECTOR('',#239,1.);
#239 = DIRECTION('',(0.,0.,1.));
#240 = ORIENTED_EDGE('',*,*,#241,.T.);
#241 = EDGE_CURVE('',#234,#234,#242,.T.);
#242 = CIRCLE('',#243,1.);
#243 = AXIS2_PLACEMENT_3D('',#244,#245,#246);
#244 = CARTESIAN_POINT('',(0.,0.,15.132745950422));
#245 = DIRECTION('',(0.,0.,1.));
#246 = DIRECTION('',(1.,0.,0.));
#247 = ORIENTED_EDGE('',*,*,#231,.F.);
#248 = ORIENTED_EDGE('',*,*,#249,.F.);
#249 = EDGE_CURVE('',#232,#232,#250,.T.);
#250 = CIRCLE('',#251,1.);
#251 = AXIS2_PLACEMENT_3D('',#252,#253,#254);
#252 = CARTESIAN_POINT('',(0.,0.,0.));
#253 = DIRECTION('',(0.,0.,1.));
#254 = DIRECTION('',(1.,0.,-0.));
#255 = CYLINDRICAL_SURFACE('',#256,1.);
#256 = AXIS2_PLACEMENT_3D('',#257,#258,#259);
#257 = CARTESIAN_POINT('',(0.,0.,0.));
#258 = DIRECTION('',(-0.,-0.,-1.));
#259 = DIRECTION('',(1.,0.,-0.));
#260 = ADVANCED_FACE('',(#261),#264,.F.);
#261 = FACE_BOUND('',#262,.T.);
#262 = EDGE_LOOP('',(#263));
#263 = ORIENTED_EDGE('',*,*,#249,.F.);
#264 = PLANE('',#265);
#265 = AXIS2_PLACEMENT_3D('',#266,#267,#268);
#266 = CARTESIAN_POINT('',(0.,0.,0.));
#267 = DIRECTION('',(0.,0.,1.));
#268 = DIRECTION('',(1.,0.,-0.));
#269 = ADVANCED_FACE('',(#270),#273,.T.);
#270 = FACE_BOUND('',#271,.F.);
#271 = EDGE_LOOP('',(#272));
#272 = ORIENTED_EDGE('',*,*,#241,.F.);
#273 = PLANE('',#274);
#274 = AXIS2_PLACEMENT_3D('',#275,#276,#277);
#275 = CARTESIAN_POINT('',(0.,0.,15.132745950422));
#276 = DIRECTION('',(0.,0.,1.));
#277 = DIRECTION('',(1.,0.,0.));
#278 = ( GEOMETRIC_REPRESENTATION_CONTEXT(3) 
GLOBAL_UNCERTAINTY_ASSIGNED_CONTEXT((#282)) GLOBAL_UNIT_ASSIGNED_CONTEXT
((#279,#280,#281)) REPRESENTATION_CONTEXT('Context #1',
  '3D Context with UNIT and UNCERTAINTY') );
#279 = ( LENGTH_UNIT() NAMED_UNIT(*) SI_UNIT(.MILLI.,.METRE.) );
#280 = ( NAMED_UNIT(*) PLANE_ANGLE_UNIT() SI_UNIT($,.RADIAN.) );
#281 = ( NAMED_UNIT(*) SI_UNIT($,.STERADIAN.) SOLID_ANGLE_UNIT() );
#282 = UNCERTAINTY_MEASURE_WITH_UNIT(LENGTH_MEASURE(1.E-07),#279,
  'distance_accuracy_value','confusion accuracy');
#283 = CONTEXT_DEPENDENT_SHAPE_REPRESENTATION(#284,#286);
#284 = ( REPRESENTATION_RELATIONSHIP('','',#224,#10) 
REPRESENTATION_RELATIONSHIP_WITH_TRANSFORMATION(#285) 
SHAPE_REPRESENTATION_RELATIONSHIP() );
#285 = ITEM_DEFINED_TRANSFORMATION('','',#11,#19);
#286 = PRODUCT_DEFINITION_SHAPE('Placement','Placement of an item',#287
  );
#287 = NEXT_ASSEMBLY_USAGE_OCCURRENCE('117','WIRE_HOOD_SV_1','',#5,#219,
  $);
#288 = PRODUCT_RELATED_PRODUCT_CATEGORY('part',$,(#221));
#289 = SHAPE_DEFINITION_REPRESENTATION(#290,#296);
#290 = PRODUCT_DEFINITION_SHAPE('','',#291);
#291 = PRODUCT_DEFINITION('design','',#292,#295);
#292 = PRODUCT_DEFINITION_FORMATION('','',#293);
#293 = PRODUCT('WIRE_HOOD_SV_2','WIRE_HOOD_SV_2','',(#294));
#294 = PRODUCT_CONTEXT('',#2,'mechanical');
#295 = PRODUCT_DEFINITION_CONTEXT('part definition',#2,'design');
#296 = ADVANCED_BREP_SHAPE_REPRESENTATION('',(#11,#297),#350);
#297 = MANIFOLD_SOLID_BREP('',#298);
#298 = CLOSED_SHELL('',(#299,#332,#341));
#299 = ADVANCED_FACE('',(#300),#327,.T.);
#300 = FACE_BOUND('',#301,.F.);
#301 = EDGE_LOOP('',(#302,#312,#319,#320));
#302 = ORIENTED_EDGE('',*,*,#303,.T.);
#303 = EDGE_CURVE('',#304,#306,#308,.T.);
#304 = VERTEX_POINT('',#305);
#305 = CARTESIAN_POINT('',(1.,0.,0.));
#306 = VERTEX_POINT('',#307);
#307 = CARTESIAN_POINT('',(1.,0.,27.073972741362));
#308 = LINE('',#309,#310);
#309 = CARTESIAN_POINT('',(1.,-2.4E-16,0.));
#310 = VECTOR('',#311,1.);
#311 = DIRECTION('',(0.,0.,1.));
#312 = ORIENTED_EDGE('',*,*,#313,.T.);
#313 = EDGE_CURVE('',#306,#306,#314,.T.);
#314 = CIRCLE('',#315,1.);
#315 = AXIS2_PLACEMENT_3D('',#316,#317,#318);
#316 = CARTESIAN_POINT('',(0.,0.,27.073972741362));
#317 = DIRECTION('',(0.,0.,1.));
#318 = DIRECTION('',(1.,0.,0.));
#319 = ORIENTED_EDGE('',*,*,#303,.F.);
#320 = ORIENTED_EDGE('',*,*,#321,.F.);
#321 = EDGE_CURVE('',#304,#304,#322,.T.);
#322 = CIRCLE('',#323,1.);
#323 = AXIS2_PLACEMENT_3D('',#324,#325,#326);
#324 = CARTESIAN_POINT('',(0.,0.,0.));
#325 = DIRECTION('',(0.,0.,1.));
#326 = DIRECTION('',(1.,0.,-0.));
#327 = CYLINDRICAL_SURFACE('',#328,1.);
#328 = AXIS2_PLACEMENT_3D('',#329,#330,#331);
#329 = CARTESIAN_POINT('',(0.,0.,0.));
#330 = DIRECTION('',(-0.,-0.,-1.));
#331 = DIRECTION('',(1.,0.,-0.));
#332 = ADVANCED_FACE('',(#333),#336,.F.);
#333 = FACE_BOUND('',#334,.T.);
#334 = EDGE_LOOP('',(#335));
#335 = ORIENTED_EDGE('',*,*,#321,.F.);
#336 = PLANE('',#337);
#337 = AXIS2_PLACEMENT_3D('',#338,#339,#340);
#338 = CARTESIAN_POINT('',(0.,0.,0.));
#339 = DIRECTION('',(0.,0.,1.));
#340 = DIRECTION('',(1.,0.,-0.));
#341 = ADVANCED_FACE('',(#342),#345,.T.);
#342 = FACE_BOUND('',#343,.F.);
#343 = EDGE_LOOP('',(#344));
#344 = ORIENTED_EDGE('',*,*,#313,.F.);
#345 = PLANE('',#346);
#346 = AXIS2_PLACEMENT_3D('',#347,#348,#349);
#347 = CARTESIAN_POINT('',(0.,0.,27.073972741362));
#348 = DIRECTION('',(0.,0.,1.));
#349 = DIRECTION('',(1.,0.,0.));
#350 = ( GEOMETRIC_REPRESENTATION_CONTEXT(3) 
GLOBAL_UNCERTAINTY_ASSIGNED_CONTEXT((#354)) GLOBAL_UNIT_ASSIGNED_CONTEXT
((#351,#352,#353)) REPRESENTATION_CONTEXT('Context #1',
  '3D Context with UNIT and UNCERTAINTY') );
#351 = ( LENGTH_UNIT() NAMED_UNIT(*) SI_UNIT(.MILLI.,.METRE.) );
#352 = ( NAMED_UNIT(*) PLANE_ANGLE_UNIT() SI_UNIT($,.RADIAN.) );
#353 = ( NAMED_UNIT(*) SI_UNIT($,.STERADIAN.) SOLID_ANGLE_UNIT() );
#354 = UNCERTAINTY_MEASURE_WITH_UNIT(LENGTH_MEASURE(1.E-07),#351,
  'distance_accuracy_value','confusion accuracy');
#355 = CONTEXT_DEPENDENT_SHAPE_REPRESENTATION(#356,#358);
#356 = ( REPRESENTATION_RELATIONSHIP('','',#296,#10) 
REPRESENTATION_RELATIONSHIP_WITH_TRANSFORMATION(#357) 
SHAPE_REPRESENTATION_RELATIONSHIP() );
#357 = ITEM_DEFINED_TRANSFORMATION('','',#11,#23);
#358 = PRODUCT_DEFINITION_SHAPE('Placement','Placement of an item',#359
  );
#359 = NEXT_ASSEMBLY_USAGE_OCCURRENCE('118','WIRE_HOOD_SV_2','',#5,#291,
  $);
#360 = PRODUCT_RELATED_PRODUCT_CATEGORY('part',$,(#293));
#361 = SHAPE_DEFINITION_REPRESENTATION(#362,#368);
#362 = PRODUCT_DEFINITION_SHAPE('','',#363);
#363 = PRODUCT_DEFINITION('design','',#364,#367);
#364 = PRODUCT_DEFINITION_FORMATION('','',#365);
#365 = PRODUCT('WIRE_HOOD_SV_3','WIRE_HOOD_SV_3','',(#366));
#366 = PRODUCT_CONTEXT('',#2,'mechanical');
#367 = PRODUCT_DEFINITION_CONTEXT('part definition',#2,'design');
#368 = ADVANCED_BREP_SHAPE_REPRESENTATION('',(#11,#369),#422);
#369 = MANIFOLD_SOLID_BREP('',#370);
#370 = CLOSED_SHELL('',(#371,#404,#413));
#371 = ADVANCED_FACE('',(#372),#399,.T.);
#372 = FACE_BOUND('',#373,.F.);
#373 = EDGE_LOOP('',(#374,#384,#391,#392));
#374 = ORIENTED_EDGE('',*,*,#375,.T.);
#375 = EDGE_CURVE('',#376,#378,#380,.T.);
#376 = VERTEX_POINT('',#377);
#377 = CARTESIAN_POINT('',(1.,0.,0.));
#378 = VERTEX_POINT('',#379);
#379 = CARTESIAN_POINT('',(1.,0.,20.099751242242));
#380 = LINE('',#381,#382);
#381 = CARTESIAN_POINT('',(1.,-2.4E-16,0.));
#382 = VECTOR('',#383,1.);
#383 = DIRECTION('',(0.,0.,1.));
#384 = ORIENTED_EDGE('',*,*,#385,.T.);
#385 = EDGE_CURVE('',#378,#378,#386,.T.);
#386 = CIRCLE('',#387,1.);
#387 = AXIS2_PLACEMENT_3D('',#388,#389,#390);
#388 = CARTESIAN_POINT('',(0.,0.,20.099751242242));
#389 = DIRECTION('',(0.,0.,1.));
#390 = DIRECTION('',(1.,0.,0.));
#391 = ORIENTED_EDGE('',*,*,#375,.F.);
#392 = ORIENTED_EDGE('',*,*,#393,.F.);
#393 = EDGE_CURVE('',#376,#376,#394,.T.);
#394 = CIRCLE('',#395,1.);
#395 = AXIS2_PLACEMENT_3D('',#396,#397,#398);
#396 = CARTESIAN_POINT('',(0.,0.,0.));
#397 = DIRECTION('',(0.,0.,1.));
#398 = DIRECTION('',(1.,0.,-0.));
#399 = CYLINDRICAL_SURFACE('',#400,1.);
#400 = AXIS2_PLACEMENT_3D('',#401,#402,#403);
#401 = CARTESIAN_POINT('',(0.,0.,0.));
#402 = DIRECTION('',(-0.,-0.,-1.));
#403 = DIRECTION('',(1.,0.,-0.));
#404 = ADVANCED_FACE('',(#405),#408,.F.);
#405 = FACE_BOUND('',#406,.T.);
#406 = EDGE_LOOP('',(#407));
#407 = ORIENTED_EDGE('',*,*,#393,.F.);
#408 = PLANE('',#409);
#409 = AXIS2_PLACEMENT_3D('',#410,#411,#412);
#410 = CARTESIAN_POINT('',(0.,0.,0.));
#411 = DIRECTION('',(0.,0.,1.));
#412 = DIRECTION('',(1.,0.,-0.));
#413 = ADVANCED_FACE('',(#414),#417,.T.);
#414 = FACE_BOUND('',#415,.F.);
#415 = EDGE_LOOP('',(#416));
#416 = ORIENTED_EDGE('',*,*,#385,.F.);
#417 = PLANE('',#418);
#418 = AXIS2_PLACEMENT_3D('',#419,#420,#421);
#419 = CARTESIAN_POINT('',(0.,0.,20.099751242242));
#420 = DIRECTION('',(0.,0.,1.));
#421 = DIRECTION('',(1.,0.,0.));
#422 = ( GEOMETRIC_REPRESENTATION_CONTEXT(3) 
GLOBAL_UNCERTAINTY_ASSIGNED_CONTEXT((#426)) GLOBAL_UNIT_ASSIGNED_CONTEXT
((#423,#424,#425)) REPRESENTATION_CONTEXT('Context #1',
  '3D Context with UNIT and UNCERTAINTY') );
#423 = ( LENGTH_UNIT() NAMED_UNIT(*) SI_UNIT(.MILLI.,.METRE.) );
#424 = ( NAMED_UNIT(*) PLANE_ANGLE_UNIT() SI_UNIT($,.RADIAN.) );
#425 = ( NAMED_UNIT(*) SI_UNIT($,.STERADIAN.) SOLID_ANGLE_UNIT() );
#426 = UNCERTAINTY_MEASURE_WITH_UNIT(LENGTH_MEASURE(1.E-07),#423,
  'distance_accuracy_value','confusion accuracy');
#427 = CONTEXT_DEPENDENT_SHAPE_REPRESENTATION(#428,#430);
#428 = ( REPRESENTATION_RELATIONSHIP('','',#368,#10) 
REPRESENTATION_RELATIONSHIP_WITH_TRANSFORMATION(#429) 
SHAPE_REPRESENTATION_RELATIONSHIP() );
#429 = ITEM_DEFINED_TRANSFORMATION('','',#11,#27);
#430 = PRODUCT_DEFINITION_SHAPE('Placement','Placement of an item',#431
  );
#431 = NEXT_ASSEMBLY_USAGE_OCCURRENCE('119','WIRE_HOOD_SV_3','',#5,#363,
  $);
#432 = PRODUCT_RELATED_PRODUCT_CATEGORY('part',$,(#365));
#433 = SHAPE_DEFINITION_REPRESENTATION(#434,#440);
#434 = PRODUCT_DEFINITION_SHAPE('','',#435);
#435 = PRODUCT_DEFINITION('design','',#436,#439);
#436 = PRODUCT_DEFINITION_FORMATION('','',#437);
#437 = PRODUCT('WIRE_HOOD_SV_4','WIRE_HOOD_SV_4','',(#438));
#438 = PRODUCT_CONTEXT('',#2,'mechanical');
#439 = PRODUCT_DEFINITION_CONTEXT('part definition',#2,'design');
#440 = ADVANCED_BREP_SHAPE_REPRESENTATION('',(#11,#441),#494);
#441 = MANIFOLD_SOLID_BREP('',#442);
#442 = CLOSED_SHELL('',(#443,#476,#485));
#443 = ADVANCED_FACE('',(#444),#471,.T.);
#444 = FACE_BOUND('',#445,.F.);
#445 = EDGE_LOOP('',(#446,#456,#463,#464));
#446 = ORIENTED_EDGE('',*,*,#447,.T.);
#447 = EDGE_CURVE('',#448,#450,#452,.T.);
#448 = VERTEX_POINT('',#449);
#449 = CARTESIAN_POINT('',(1.,0.,0.));
#450 = VERTEX_POINT('',#451);
#451 = CARTESIAN_POINT('',(1.,0.,17.));
#452 = LINE('',#453,#454);
#453 = CARTESIAN_POINT('',(1.,-2.4E-16,0.));
#454 = VECTOR('',#455,1.);
#455 = DIRECTION('',(0.,0.,1.));
#456 = ORIENTED_EDGE('',*,*,#457,.T.);
#457 = EDGE_CURVE('',#450,#450,#458,.T.);
#458 = CIRCLE('',#459,1.);
#459 = AXIS2_PLACEMENT_3D('',#460,#461,#462);
#460 = CARTESIAN_POINT('',(0.,0.,17.));
#461 = DIRECTION('',(0.,0.,1.));
#462 = DIRECTION('',(1.,0.,0.));
#463 = ORIENTED_EDGE('',*,*,#447,.F.);
#464 = ORIENTED_EDGE('',*,*,#465,.F.);
#465 = EDGE_CURVE('',#448,#448,#466,.T.);
#466 = CIRCLE('',#467,1.);
#467 = AXIS2_PLACEMENT_3D('',#468,#469,#470);
#468 = CARTESIAN_POINT('',(0.,0.,0.));
#469 = DIRECTION('',(0.,0.,1.));
#470 = DIRECTION('',(1.,0.,-0.));
#471 = CYLINDRICAL_SURFACE('',#472,1.);
#472 = AXIS2_PLACEMENT_3D('',#473,#474,#475);
#473 = CARTESIAN_POINT('',(0.,0.,0.));
#474 = DIRECTION('',(-0.,-0.,-1.));
#475 = DIRECTION('',(1.,0.,-0.));
#476 = ADVANCED_FACE('',(#477),#480,.F.);
#477 = FACE_BOUND('',#478,.T.);
#478 = EDGE_LOOP('',(#479));
#479 = ORIENTED_EDGE('',*,*,#465,.F.);
#480 = PLANE('',#481);
#481 = AXIS2_PLACEMENT_3D('',#482,#483,#484);
#482 = CARTESIAN_POINT('',(0.,0.,0.));
#483 = DIRECTION('',(0.,0.,1.));
#484 = DIRECTION('',(1.,0.,-0.));
#485 = ADVANCED_FACE('',(#486),#489,.T.);
#486 = FACE_BOUND('',#487,.F.);
#487 = EDGE_LOOP('',(#488));
#488 = ORIENTED_EDGE('',*,*,#457,.F.);
#489 = PLANE('',#490);
#490 = AXIS2_PLACEMENT_3D('',#491,#492,#493);
#491 = CARTESIAN_POINT('',(0.,0.,17.));
#492 = DIRECTION('',(0.,0.,1.));
#493 = DIRECTION('',(1.,0.,0.));
#494 = ( GEOMETRIC_REPRESENTATION_CONTEXT(3) 
GLOBAL_UNCERTAINTY_ASSIGNED_CONTEXT((#498)) GLOBAL_UNIT_ASSIGNED_CONTEXT
((#495,#496,#497)) REPRESENTATION_CONTEXT('Context #1',
  '3D Context with UNIT and UNCERTAINTY') );
#495 = ( LENGTH_UNIT() NAMED_UNIT(*) SI_UNIT(.MILLI.,.METRE.) );
#496 = ( NAMED_UNIT(*) PLANE_ANGLE_UNIT() SI_UNIT($,.RADIAN.) );
#497 = ( NAMED_UNIT(*) SI_UNIT($,.STERADIAN.) SOLID_ANGLE_UNIT() );
#498 = UNCERTAINTY_MEASURE_WITH_UNIT(LENGTH_MEASURE(1.E-07),#495,
  'distance_accuracy_value','confusion accuracy');
#499 = CONTEXT_DEPENDENT_SHAPE_REPRESENTATION(#500,#502);
#500 = ( REPRESENTATION_RELATIONSHIP('','',#440,#10) 
REPRESENTATION_RELATIONSHIP_WITH_TRANSFORMATION(#501) 
SHAPE_REPRESENTATION_RELATIONSHIP() );
#501 = ITEM_DEFINED_TRANSFORMATION('','',#11,#31);
#502 = PRODUCT_DEFINITION_SHAPE('Placement','Placement of an item',#503
  );
#503 = NEXT_ASSEMBLY_USAGE_OCCURRENCE('120','WIRE_HOOD_SV_4','',#5,#435,
  $);
#504 = PRODUCT_RELATED_PRODUCT_CATEGORY('part',$,(#437));
#505 = SHAPE_DEFINITION_REPRESENTATION(#506,#512);
#506 = PRODUCT_DEFINITION_SHAPE('','',#507);
#507 = PRODUCT_DEFINITION('design','',#508,#511);
#508 = PRODUCT_DEFINITION_FORMATION('','',#509);
#509 = PRODUCT('WIRE_HOOD_SV_5','WIRE_HOOD_SV_5','',(#510));
#510 = PRODUCT_CONTEXT('',#2,'mechanical');
#511 = PRODUCT_DEFINITION_CONTEXT('part definition',#2,'design');
#512 = ADVANCED_BREP_SHAPE_REPRESENTATION('',(#11,#513),#566);
#513 = MANIFOLD_SOLID_BREP('',#514);
#514 = CLOSED_SHELL('',(#515,#548,#557));
#515 = ADVANCED_FACE('',(#516),#543,.T.);
#516 = FACE_BOUND('',#517,.F.);
#517 = EDGE_LOOP('',(#518,#528,#535,#536));
#518 = ORIENTED_EDGE('',*,*,#519,.T.);
#519 = EDGE_CURVE('',#520,#522,#524,.T.);
#520 = VERTEX_POINT('',#521);
#521 = CARTESIAN_POINT('',(1.,1.42108547152E-14,0.));
#522 = VERTEX_POINT('',#523);
#523 = CARTESIAN_POINT('',(1.,1.42108547152E-14,14.899664425751));
#524 = LINE('',#525,#526);
#525 = CARTESIAN_POINT('',(1.,-2.4E-16,0.));
#526 = VECTOR('',#527,1.);
#527 = DIRECTION('',(0.,0.,1.));
#528 = ORIENTED_EDGE('',*,*,#529,.T.);
#529 = EDGE_CURVE('',#522,#522,#530,.T.);
#530 = CIRCLE('',#531,1.);
#531 = AXIS2_PLACEMENT_3D('',#532,#533,#534);
#532 = CARTESIAN_POINT('',(0.,0.,14.899664425751));
#533 = DIRECTION('',(0.,0.,1.));
#534 = DIRECTION('',(1.,0.,0.));
#535 = ORIENTED_EDGE('',*,*,#519,.F.);
#536 = ORIENTED_EDGE('',*,*,#537,.F.);
#537 = EDGE_CURVE('',#520,#520,#538,.T.);
#538 = CIRCLE('',#539,1.);
#539 = AXIS2_PLACEMENT_3D('',#540,#541,#542);
#540 = CARTESIAN_POINT('',(0.,0.,0.));
#541 = DIRECTION('',(0.,0.,1.));
#542 = DIRECTION('',(1.,0.,-0.));
#543 = CYLINDRICAL_SURFACE('',#544,1.);
#544 = AXIS2_PLACEMENT_3D('',#545,#546,#547);
#545 = CARTESIAN_POINT('',(0.,0.,0.));
#546 = DIRECTION('',(-0.,-0.,-1.));
#547 = DIRECTION('',(1.,0.,-0.));
#548 = ADVANCED_FACE('',(#549),#552,.F.);
#549 = FACE_BOUND('',#550,.T.);
#550 = EDGE_LOOP('',(#551));
#551 = ORIENTED_EDGE('',*,*,#537,.F.);
#552 = PLANE('',#553);
#553 = AXIS2_PLACEMENT_3D('',#554,#555,#556);
#554 = CARTESIAN_POINT('',(0.,0.,0.));
#555 = DIRECTION('',(0.,0.,1.));
#556 = DIRECTION('',(1.,0.,-0.));
#557 = ADVANCED_FACE('',(#558),#561,.T.);
#558 = FACE_BOUND('',#559,.F.);
#559 = EDGE_LOOP('',(#560));
#560 = ORIENTED_EDGE('',*,*,#529,.F.);
#561 = PLANE('',#562);
#562 = AXIS2_PLACEMENT_3D('',#563,#564,#565);
#563 = CARTESIAN_POINT('',(0.,0.,14.899664425751));
#564 = DIRECTION('',(0.,0.,1.));
#565 = DIRECTION('',(1.,0.,0.));
#566 = ( GEOMETRIC_REPRESENTATION_CONTEXT(3) 
GLOBAL_UNCERTAINTY_ASSIGNED_CONTEXT((#570)) GLOBAL_UNIT_ASSIGNED_CONTEXT
((#567,#568,#569)) REPRESENTATION_CONTEXT('Context #1',
  '3D Context with UNIT and UNCERTAINTY') );
#567 = ( LENGTH_UNIT() NAMED_UNIT(*) SI_UNIT(.MILLI.,.METRE.) );
#568 = ( NAMED_UNIT(*) PLANE_ANGLE_UNIT() SI_UNIT($,.RADIAN.) );
#569 = ( NAMED_UNIT(*) SI_UNIT($,.STERADIAN.) SOLID_ANGLE_UNIT() );
#570 = UNCERTAINTY_MEASURE_WITH_UNIT(LENGTH_MEASURE(1.E-07),#567,
  'distance_accuracy_value','confusion accuracy');
#571 = CONTEXT_DEPENDENT_SHAPE_REPRESENTATION(#572,#574);
#572 = ( REPRESENTATION_RELATIONSHIP('','',#512,#10) 
REPRESENTATION_RELATIONSHIP_WITH_TRANSFORMATION(#573) 
SHAPE_REPRESENTATION_RELATIONSHIP() );
#573 = ITEM_DEFINED_TRANSFORMATION('','',#11,#35);
#574 = PRODUCT_DEFINITION_SHAPE('Placement','Placement of an item',#575
  );
#575 = NEXT_ASSEMBLY_USAGE_OCCURRENCE('121','WIRE_HOOD_SV_5','',#5,#507,
  $);
#576 = PRODUCT_RELATED_PRODUCT_CATEGORY('part',$,(#509));
#577 = SHAPE_DEFINITION_REPRESENTATION(#578,#584);
#578 = PRODUCT_DEFINITION_SHAPE('','',#579);
#579 = PRODUCT_DEFINITION('design','',#580,#583);
#580 = PRODUCT_DEFINITION_FORMATION('','',#581);
#581 = PRODUCT('WIRE_HOOD_SV_6','WIRE_HOOD_SV_6','',(#582));
#582 = PRODUCT_CONTEXT('',#2,'mechanical');
#583 = PRODUCT_DEFINITION_CONTEXT('part definition',#2,'design');
#584 = ADVANCED_BREP_SHAPE_REPRESENTATION('',(#11,#585),#638);
#585 = MANIFOLD_SOLID_BREP('',#586);
#586 = CLOSED_SHELL('',(#587,#620,#629));
#587 = ADVANCED_FACE('',(#588),#615,.T.);
#588 = FACE_BOUND('',#589,.F.);
#589 = EDGE_LOOP('',(#590,#600,#607,#608));
#590 = ORIENTED_EDGE('',*,*,#591,.T.);
#591 = EDGE_CURVE('',#592,#594,#596,.T.);
#592 = VERTEX_POINT('',#593);
#593 = CARTESIAN_POINT('',(1.,0.,0.));
#594 = VERTEX_POINT('',#595);
#595 = CARTESIAN_POINT('',(1.,0.,7.280109889281));
#596 = LINE('',#597,#598);
#597 = CARTESIAN_POINT('',(1.,-2.4E-16,0.));
#598 = VECTOR('',#599,1.);
#599 = DIRECTION('',(0.,0.,1.));
#600 = ORIENTED_EDGE('',*,*,#601,.T.);
#601 = EDGE_CURVE('',#594,#594,#602,.T.);
#602 = CIRCLE('',#603,1.);
#603 = AXIS2_PLACEMENT_3D('',#604,#605,#606);
#604 = CARTESIAN_POINT('',(0.,0.,7.280109889281));
#605 = DIRECTION('',(0.,0.,1.));
#606 = DIRECTION('',(1.,0.,0.));
#607 = ORIENTED_EDGE('',*,*,#591,.F.);
#608 = ORIENTED_EDGE('',*,*,#609,.F.);
#609 = EDGE_CURVE('',#592,#592,#610,.T.);
#610 = CIRCLE('',#611,1.);
#611 = AXIS2_PLACEMENT_3D('',#612,#613,#614);
#612 = CARTESIAN_POINT('',(0.,0.,0.));
#613 = DIRECTION('',(0.,0.,1.));
#614 = DIRECTION('',(1.,0.,-0.));
#615 = CYLINDRICAL_SURFACE('',#616,1.);
#616 = AXIS2_PLACEMENT_3D('',#617,#618,#619);
#617 = CARTESIAN_POINT('',(0.,0.,0.));
#618 = DIRECTION('',(-0.,-0.,-1.));
#619 = DIRECTION('',(1.,0.,-0.));
#620 = ADVANCED_FACE('',(#621),#624,.F.);
#621 = FACE_BOUND('',#622,.T.);
#622 = EDGE_LOOP('',(#623));
#623 = ORIENTED_EDGE('',*,*,#609,.F.);
#624 = PLANE('',#625);
#625 = AXIS2_PLACEMENT_3D('',#626,#627,#628);
#626 = CARTESIAN_POINT('',(0.,0.,0.));
#627 = DIRECTION('',(0.,0.,1.));
#628 = DIRECTION('',(1.,0.,-0.));
#629 = ADVANCED_FACE('',(#630),#633,.T.);
#630 = FACE_BOUND('',#631,.F.);
#631 = EDGE_LOOP('',(#632));
#632 = ORIENTED_EDGE('',*,*,#601,.F.);
#633 = PLANE('',#634);
#634 = AXIS2_PLACEMENT_3D('',#635,#636,#637);
#635 = CARTESIAN_POINT('',(0.,0.,7.280109889281));
#636 = DIRECTION('',(0.,0.,1.));
#637 = DIRECTION('',(1.,0.,0.));
#638 = ( GEOMETRIC_REPRESENTATION_CONTEXT(3) 
GLOBAL_UNCERTAINTY_ASSIGNED_CONTEXT((#642)) GLOBAL_UNIT_ASSIGNED_CONTEXT
((#639,#640,#641)) REPRESENTATION_CONTEXT('Context #1',
  '3D Context with UNIT and UNCERTAINTY') );
#639 = ( LENGTH_UNIT() NAMED_UNIT(*) SI_UNIT(.MILLI.,.METRE.) );
#640 = ( NAMED_UNIT(*) PLANE_ANGLE_UNIT() SI_UNIT($,.RADIAN.) );
#641 = ( NAMED_UNIT(*) SI_UNIT($,.STERADIAN.) SOLID_ANGLE_UNIT() );
#642 = UNCERTAINTY_MEASURE_WITH_UNIT(LENGTH_MEASURE(1.E-07),#639,
  'distance_accuracy_value','confusion accuracy');
#643 = CONTEXT_DEPENDENT_SHAPE_REPRESENTATION(#644,#646);
#644 = ( REPRESENTATION_RELATIONSHIP('','',#584,#10) 
REPRESENTATION_RELATIONSHIP_WITH_TRANSFORMATION(#645) 
SHAPE_REPRESENTATION_RELATIONSHIP() );
#645 = ITEM_DEFINED_TRANSFORMATION('','',#11,#39);
#646 = PRODUCT_DEFINITION_SHAPE('Placement','Placement of an item',#647
  );
#647 = NEXT_ASSEMBLY_USAGE_OCCURRENCE('122','WIRE_HOOD_SV_6','',#5,#579,
  $);
#648 = PRODUCT_RELATED_PRODUCT_CATEGORY('part',$,(#581));
ENDSEC;
END-ISO-10303-21;
