ISO-10303-21;
HEADER;
FILE_DESCRIPTION(('FreeCAD Model'),'2;1');
FILE_NAME('Open CASCADE Shape Model','2026-09-30T03:00:36',('Author'),(
    ''),'Open CASCADE STEP processor 7.8','FreeCAD','Unknown');
FILE_SCHEMA(('AUTOMOTIVE_DESIGN { 1 0 10303 214 1 1 1 1 }'));
ENDSEC;
DATA;
#1 = APPLICATION_PROTOCOL_DEFINITION('international standard',
  'automotive_design',2000,#2);
#2 = APPLICATION_CONTEXT(
  'core data for automotive mechanical design processes');
#3 = SHAPE_DEFINITION_REPRESENTATION(#4,#10);
#4 = PRODUCT_DEFINITION_SHAPE('','',#5);
#5 = PRODUCT_DEFINITION('design','',#6,#9);
#6 = PRODUCT_DEFINITION_FORMATION('','',#7);
#7 = PRODUCT('master_robot','master_robot','',(#8));
#8 = PRODUCT_CONTEXT('',#2,'mechanical');
#9 = PRODUCT_DEFINITION_CONTEXT('part definition',#2,'design');
#10 = SHAPE_REPRESENTATION('',(#11,#15,#19,#23),#27);
#11 = AXIS2_PLACEMENT_3D('',#12,#13,#14);
#12 = CARTESIAN_POINT('',(0.,0.,0.));
#13 = DIRECTION('',(0.,0.,1.));
#14 = DIRECTION('',(1.,0.,-0.));
#15 = AXIS2_PLACEMENT_3D('',#16,#17,#18);
#16 = CARTESIAN_POINT('',(0.,0.,0.));
#17 = DIRECTION('',(0.,0.,1.));
#18 = DIRECTION('',(1.,0.,0.));
#19 = AXIS2_PLACEMENT_3D('',#20,#21,#22);
#20 = CARTESIAN_POINT('',(-90.,136.,70.));
#21 = DIRECTION('',(3.711348095126E-02,-0.927837023782,-0.371134809513)
  );
#22 = DIRECTION('',(0.997809688803,5.475777993261E-02,
    -3.711348095126E-02));
#23 = AXIS2_PLACEMENT_3D('',#24,#25,#26);
#24 = CARTESIAN_POINT('',(-88.,86.,50.));
#25 = DIRECTION('',(-0.937042571332,-0.156173761889,-0.312347523777));
#26 = DIRECTION('',(-0.276878671783,-0.212813111964,0.937042571332));
#27 = ( GEOMETRIC_REPRESENTATION_CONTEXT(3) 
GLOBAL_UNCERTAINTY_ASSIGNED_CONTEXT((#31)) GLOBAL_UNIT_ASSIGNED_CONTEXT(
(#28,#29,#30)) REPRESENTATION_CONTEXT('Context #1',
  '3D Context with UNIT and UNCERTAINTY') );
#28 = ( LENGTH_UNIT() NAMED_UNIT(*) SI_UNIT(.MILLI.,.METRE.) );
#29 = ( NAMED_UNIT(*) PLANE_ANGLE_UNIT() SI_UNIT($,.RADIAN.) );
#30 = ( NAMED_UNIT(*) SI_UNIT($,.STERADIAN.) SOLID_ANGLE_UNIT() );
#31 = UNCERTAINTY_MEASURE_WITH_UNIT(LENGTH_MEASURE(1.E-05),#28,
  'distance_accuracy_value','confusion accuracy');
#32 = PRODUCT_RELATED_PRODUCT_CATEGORY('part',$,(#7));
#33 = SHAPE_DEFINITION_REPRESENTATION(#34,#40);
#34 = PRODUCT_DEFINITION_SHAPE('','',#35);
#35 = PRODUCT_DEFINITION('design','',#36,#39);
#36 = PRODUCT_DEFINITION_FORMATION('','',#37);
#37 = PRODUCT('WIRE_WINCH_0','WIRE_WINCH_0','',(#38));
#38 = PRODUCT_CONTEXT('',#2,'mechanical');
#39 = PRODUCT_DEFINITION_CONTEXT('part definition',#2,'design');
#40 = ADVANCED_BREP_SHAPE_REPRESENTATION('',(#11,#41),#190);
#41 = MANIFOLD_SOLID_BREP('',#42);
#42 = CLOSED_SHELL('',(#43,#103,#112,#155,#170,#181));
#43 = ADVANCED_FACE('',(#44),#98,.T.);
#44 = FACE_BOUND('',#45,.F.);
#45 = EDGE_LOOP('',(#46,#55,#63,#72,#81,#90,#97));
#46 = ORIENTED_EDGE('',*,*,#47,.F.);
#47 = EDGE_CURVE('',#48,#48,#50,.T.);
#48 = VERTEX_POINT('',#49);
#49 = CARTESIAN_POINT('',(-146.1054390528,159.62041940963,
    84.235964589092));
#50 = CIRCLE('',#51,1.);
#51 = AXIS2_PLACEMENT_3D('',#52,#53,#54);
#52 = CARTESIAN_POINT('',(-147.,160.,84.));
#53 = DIRECTION('',(-0.235964589092,-0.849472520729,-0.471929178183));
#54 = DIRECTION('',(0.894560947122,-0.379580590362,0.235964589092));
#55 = ORIENTED_EDGE('',*,*,#56,.T.);
#56 = EDGE_CURVE('',#48,#57,#59,.T.);
#57 = VERTEX_POINT('',#58);
#58 = CARTESIAN_POINT('',(-150.8607561777,142.50127775995,
    74.725330339268));
#59 = LINE('',#60,#61);
#60 = CARTESIAN_POINT('',(-146.1054390528,159.62041940963,
    84.235964589092));
#61 = VECTOR('',#62,1.);
#62 = DIRECTION('',(-0.235964589092,-0.849472520729,-0.471929178183));
#63 = ORIENTED_EDGE('',*,*,#64,.F.);
#64 = EDGE_CURVE('',#65,#57,#67,.T.);
#65 = VERTEX_POINT('',#66);
#66 = CARTESIAN_POINT('',(-151.9908582141,141.51243808554,
    74.873040553078));
#67 = ELLIPSE('',#68,1.509689678736,1.);
#68 = AXIS2_PLACEMENT_3D('',#69,#70,#71);
#69 = CARTESIAN_POINT('',(-152.,142.,74.));
#70 = DIRECTION('',(-0.571673799548,0.71378031477,0.40460688224));
#71 = DIRECTION('',(0.820430066892,0.502793239628,0.272201145339));
#72 = ORIENTED_EDGE('',*,*,#73,.T.);
#73 = EDGE_CURVE('',#65,#74,#76,.T.);
#74 = VERTEX_POINT('',#75);
#75 = CARTESIAN_POINT('',(-152.0091417858,142.48756191445,
    73.126959446922));
#76 = CIRCLE('',#77,1.);
#77 = AXIS2_PLACEMENT_3D('',#78,#79,#80);
#78 = CARTESIAN_POINT('',(-152.,142.,74.));
#79 = DIRECTION('',(-0.235964589092,-0.849472520729,-0.471929178183));
#80 = DIRECTION('',(0.894560947122,-0.379580590362,0.235964589092));
#81 = ORIENTED_EDGE('',*,*,#82,.F.);
#82 = EDGE_CURVE('',#83,#74,#85,.T.);
#83 = VERTEX_POINT('',#84);
#84 = CARTESIAN_POINT('',(-150.7614051958,142.7590617644,74.410939259659
    ));
#85 = ELLIPSE('',#86,1.509689678736,1.);
#86 = AXIS2_PLACEMENT_3D('',#87,#88,#89);
#87 = CARTESIAN_POINT('',(-152.,142.,74.));
#88 = DIRECTION('',(-0.571673799548,0.71378031477,0.40460688224));
#89 = DIRECTION('',(0.820430066892,0.502793239628,0.272201145339));
#90 = ORIENTED_EDGE('',*,*,#91,.F.);
#91 = EDGE_CURVE('',#57,#83,#92,.T.);
#92 = ELLIPSE('',#93,1.509689678736,1.);
#93 = AXIS2_PLACEMENT_3D('',#94,#95,#96);
#94 = CARTESIAN_POINT('',(-152.,142.,74.));
#95 = DIRECTION('',(-0.571673799548,0.71378031477,0.40460688224));
#96 = DIRECTION('',(0.820430066892,0.502793239628,0.272201145339));
#97 = ORIENTED_EDGE('',*,*,#56,.F.);
#98 = CYLINDRICAL_SURFACE('',#99,1.);
#99 = AXIS2_PLACEMENT_3D('',#100,#101,#102);
#100 = CARTESIAN_POINT('',(-147.,160.,84.));
#101 = DIRECTION('',(0.235964589092,0.849472520729,0.471929178183));
#102 = DIRECTION('',(0.894560947122,-0.379580590362,0.235964589092));
#103 = ADVANCED_FACE('',(#104),#107,.F.);
#104 = FACE_BOUND('',#105,.T.);
#105 = EDGE_LOOP('',(#106));
#106 = ORIENTED_EDGE('',*,*,#47,.F.);
#107 = PLANE('',#108);
#108 = AXIS2_PLACEMENT_3D('',#109,#110,#111);
#109 = CARTESIAN_POINT('',(-147.,160.,84.));
#110 = DIRECTION('',(-0.235964589092,-0.849472520729,-0.471929178183));
#111 = DIRECTION('',(0.894560947122,-0.379580590362,0.235964589092));
#112 = ADVANCED_FACE('',(#113),#150,.T.);
#113 = FACE_BOUND('',#114,.F.);
#114 = EDGE_LOOP('',(#115,#124,#132,#139,#140,#147,#148,#149));
#115 = ORIENTED_EDGE('',*,*,#116,.F.);
#116 = EDGE_CURVE('',#117,#74,#119,.T.);
#117 = VERTEX_POINT('',#118);
#118 = CARTESIAN_POINT('',(-152.054211188,142.10202043755,
    73.006695929026));
#119 = CIRCLE('',#120,1.);
#120 = AXIS2_PLACEMENT_3D('',#121,#122,#123);
#121 = CARTESIAN_POINT('',(-152.,142.,74.));
#122 = DIRECTION('',(0.993304070974,-9.61262004168E-02,
    -6.40841336112E-02));
#123 = DIRECTION('',(-5.421118804161E-02,0.102020437552,-0.993304070974)
  );
#124 = ORIENTED_EDGE('',*,*,#125,.T.);
#125 = EDGE_CURVE('',#117,#126,#128,.T.);
#126 = VERTEX_POINT('',#127);
#127 = CARTESIAN_POINT('',(-90.05421118804,136.10202043755,
    69.006695929026));
#128 = LINE('',#129,#130);
#129 = CARTESIAN_POINT('',(-152.054211188,142.10202043755,
    73.006695929026));
#130 = VECTOR('',#131,1.);
#131 = DIRECTION('',(0.993304070974,-9.61262004168E-02,
    -6.40841336112E-02));
#132 = ORIENTED_EDGE('',*,*,#133,.T.);
#133 = EDGE_CURVE('',#126,#126,#134,.T.);
#134 = CIRCLE('',#135,1.);
#135 = AXIS2_PLACEMENT_3D('',#136,#137,#138);
#136 = CARTESIAN_POINT('',(-90.,136.,70.));
#137 = DIRECTION('',(0.993304070974,-9.61262004168E-02,
    -6.40841336112E-02));
#138 = DIRECTION('',(-5.421118804161E-02,0.102020437552,-0.993304070974)
  );
#139 = ORIENTED_EDGE('',*,*,#125,.F.);
#140 = ORIENTED_EDGE('',*,*,#141,.F.);
#141 = EDGE_CURVE('',#65,#117,#142,.T.);
#142 = CIRCLE('',#143,1.);
#143 = AXIS2_PLACEMENT_3D('',#144,#145,#146);
#144 = CARTESIAN_POINT('',(-152.,142.,74.));
#145 = DIRECTION('',(0.993304070974,-9.61262004168E-02,
    -6.40841336112E-02));
#146 = DIRECTION('',(-5.421118804161E-02,0.102020437552,-0.993304070974)
  );
#147 = ORIENTED_EDGE('',*,*,#64,.T.);
#148 = ORIENTED_EDGE('',*,*,#91,.T.);
#149 = ORIENTED_EDGE('',*,*,#82,.T.);
#150 = CYLINDRICAL_SURFACE('',#151,1.);
#151 = AXIS2_PLACEMENT_3D('',#152,#153,#154);
#152 = CARTESIAN_POINT('',(-152.,142.,74.));
#153 = DIRECTION('',(-0.993304070974,9.61262004168E-02,6.40841336112E-02
    ));
#154 = DIRECTION('',(-5.421118804161E-02,0.102020437552,-0.993304070974)
  );
#155 = ADVANCED_FACE('',(#156),#165,.T.);
#156 = FACE_BOUND('',#157,.T.);
#157 = EDGE_LOOP('',(#158,#164));
#158 = ORIENTED_EDGE('',*,*,#159,.T.);
#159 = EDGE_CURVE('',#74,#65,#160,.T.);
#160 = LINE('',#161,#162);
#161 = CARTESIAN_POINT('',(-152.,142.,74.));
#162 = VECTOR('',#163,1.);
#163 = DIRECTION('',(9.141785896109E-03,-0.487561914459,0.873040553078)
  );
#164 = ORIENTED_EDGE('',*,*,#73,.T.);
#165 = PLANE('',#166);
#166 = AXIS2_PLACEMENT_3D('',#167,#168,#169);
#167 = CARTESIAN_POINT('',(-152.,142.,74.));
#168 = DIRECTION('',(-0.235964589092,-0.849472520729,-0.471929178183));
#169 = DIRECTION('',(0.894560947122,-0.379580590362,0.235964589092));
#170 = ADVANCED_FACE('',(#171),#176,.F.);
#171 = FACE_BOUND('',#172,.F.);
#172 = EDGE_LOOP('',(#173,#174,#175));
#173 = ORIENTED_EDGE('',*,*,#141,.T.);
#174 = ORIENTED_EDGE('',*,*,#116,.T.);
#175 = ORIENTED_EDGE('',*,*,#159,.T.);
#176 = PLANE('',#177);
#177 = AXIS2_PLACEMENT_3D('',#178,#179,#180);
#178 = CARTESIAN_POINT('',(-152.,142.,74.));
#179 = DIRECTION('',(0.993304070974,-9.61262004168E-02,
    -6.40841336112E-02));
#180 = DIRECTION('',(-5.421118804161E-02,0.102020437552,-0.993304070974)
  );
#181 = ADVANCED_FACE('',(#182),#185,.T.);
#182 = FACE_BOUND('',#183,.F.);
#183 = EDGE_LOOP('',(#184));
#184 = ORIENTED_EDGE('',*,*,#133,.F.);
#185 = PLANE('',#186);
#186 = AXIS2_PLACEMENT_3D('',#187,#188,#189);
#187 = CARTESIAN_POINT('',(-90.,136.,70.));
#188 = DIRECTION('',(0.993304070974,-9.61262004168E-02,
    -6.40841336112E-02));
#189 = DIRECTION('',(-5.421118804161E-02,0.102020437552,-0.993304070974)
  );
#190 = ( GEOMETRIC_REPRESENTATION_CONTEXT(3) 
GLOBAL_UNCERTAINTY_ASSIGNED_CONTEXT((#194)) GLOBAL_UNIT_ASSIGNED_CONTEXT
((#191,#192,#193)) REPRESENTATION_CONTEXT('Context #1',
  '3D Context with UNIT and UNCERTAINTY') );
#191 = ( LENGTH_UNIT() NAMED_UNIT(*) SI_UNIT(.MILLI.,.METRE.) );
#192 = ( NAMED_UNIT(*) PLANE_ANGLE_UNIT() SI_UNIT($,.RADIAN.) );
#193 = ( NAMED_UNIT(*) SI_UNIT($,.STERADIAN.) SOLID_ANGLE_UNIT() );
#194 = UNCERTAINTY_MEASURE_WITH_UNIT(LENGTH_MEASURE(2.E-05),#191,
  'distance_accuracy_value','confusion accuracy');
#195 = CONTEXT_DEPENDENT_SHAPE_REPRESENTATION(#196,#198);
#196 = ( REPRESENTATION_RELATIONSHIP('','',#40,#10) 
REPRESENTATION_RELATIONSHIP_WITH_TRANSFORMATION(#197) 
SHAPE_REPRESENTATION_RELATIONSHIP() );
#197 = ITEM_DEFINED_TRANSFORMATION('','',#11,#15);
#198 = PRODUCT_DEFINITION_SHAPE('Placement','Placement of an item',#199
  );
#199 = NEXT_ASSEMBLY_USAGE_OCCURRENCE('149','WIRE_WINCH_0','',#5,#35,$);
#200 = PRODUCT_RELATED_PRODUCT_CATEGORY('part',$,(#37));
#201 = SHAPE_DEFINITION_REPRESENTATION(#202,#208);
#202 = PRODUCT_DEFINITION_SHAPE('','',#203);
#203 = PRODUCT_DEFINITION('design','',#204,#207);
#204 = PRODUCT_DEFINITION_FORMATION('','',#205);
#205 = PRODUCT('WIRE_WINCH_1','WIRE_WINCH_1','',(#206));
#206 = PRODUCT_CONTEXT('',#2,'mechanical');
#207 = PRODUCT_DEFINITION_CONTEXT('part definition',#2,'design');
#208 = ADVANCED_BREP_SHAPE_REPRESENTATION('',(#11,#209),#262);
#209 = MANIFOLD_SOLID_BREP('',#210);
#210 = CLOSED_SHELL('',(#211,#244,#253));
#211 = ADVANCED_FACE('',(#212),#239,.T.);
#212 = FACE_BOUND('',#213,.F.);
#213 = EDGE_LOOP('',(#214,#224,#231,#232));
#214 = ORIENTED_EDGE('',*,*,#215,.T.);
#215 = EDGE_CURVE('',#216,#218,#220,.T.);
#216 = VERTEX_POINT('',#217);
#217 = CARTESIAN_POINT('',(1.,1.42108547152E-14,2.84217094304E-14));
#218 = VERTEX_POINT('',#219);
#219 = CARTESIAN_POINT('',(1.,0.,53.88877434123));
#220 = LINE('',#221,#222);
#221 = CARTESIAN_POINT('',(1.,-2.4E-16,0.));
#222 = VECTOR('',#223,1.);
#223 = DIRECTION('',(0.,0.,1.));
#224 = ORIENTED_EDGE('',*,*,#225,.T.);
#225 = EDGE_CURVE('',#218,#218,#226,.T.);
#226 = CIRCLE('',#227,1.);
#227 = AXIS2_PLACEMENT_3D('',#228,#229,#230);
#228 = CARTESIAN_POINT('',(0.,0.,53.88877434123));
#229 = DIRECTION('',(0.,0.,1.));
#230 = DIRECTION('',(1.,0.,0.));
#231 = ORIENTED_EDGE('',*,*,#215,.F.);
#232 = ORIENTED_EDGE('',*,*,#233,.F.);
#233 = EDGE_CURVE('',#216,#216,#234,.T.);
#234 = CIRCLE('',#235,1.);
#235 = AXIS2_PLACEMENT_3D('',#236,#237,#238);
#236 = CARTESIAN_POINT('',(0.,0.,0.));
#237 = DIRECTION('',(0.,0.,1.));
#238 = DIRECTION('',(1.,0.,-0.));
#239 = CYLINDRICAL_SURFACE('',#240,1.);
#240 = AXIS2_PLACEMENT_3D('',#241,#242,#243);
#241 = CARTESIAN_POINT('',(0.,0.,0.));
#242 = DIRECTION('',(-0.,-0.,-1.));
#243 = DIRECTION('',(1.,0.,-0.));
#244 = ADVANCED_FACE('',(#245),#248,.F.);
#245 = FACE_BOUND('',#246,.T.);
#246 = EDGE_LOOP('',(#247));
#247 = ORIENTED_EDGE('',*,*,#233,.F.);
#248 = PLANE('',#249);
#249 = AXIS2_PLACEMENT_3D('',#250,#251,#252);
#250 = CARTESIAN_POINT('',(0.,0.,0.));
#251 = DIRECTION('',(0.,0.,1.));
#252 = DIRECTION('',(1.,0.,-0.));
#253 = ADVANCED_FACE('',(#254),#257,.T.);
#254 = FACE_BOUND('',#255,.F.);
#255 = EDGE_LOOP('',(#256));
#256 = ORIENTED_EDGE('',*,*,#225,.F.);
#257 = PLANE('',#258);
#258 = AXIS2_PLACEMENT_3D('',#259,#260,#261);
#259 = CARTESIAN_POINT('',(0.,0.,53.88877434123));
#260 = DIRECTION('',(0.,0.,1.));
#261 = DIRECTION('',(1.,0.,0.));
#262 = ( GEOMETRIC_REPRESENTATION_CONTEXT(3) 
GLOBAL_UNCERTAINTY_ASSIGNED_CONTEXT((#266)) GLOBAL_UNIT_ASSIGNED_CONTEXT
((#263,#264,#265)) REPRESENTATION_CONTEXT('Context #1',
  '3D Context with UNIT and UNCERTAINTY') );
#263 = ( LENGTH_UNIT() NAMED_UNIT(*) SI_UNIT(.MILLI.,.METRE.) );
#264 = ( NAMED_UNIT(*) PLANE_ANGLE_UNIT() SI_UNIT($,.RADIAN.) );
#265 = ( NAMED_UNIT(*) SI_UNIT($,.STERADIAN.) SOLID_ANGLE_UNIT() );
#266 = UNCERTAINTY_MEASURE_WITH_UNIT(LENGTH_MEASURE(1.E-07),#263,
  'distance_accuracy_value','confusion accuracy');
#267 = CONTEXT_DEPENDENT_SHAPE_REPRESENTATION(#268,#270);
#268 = ( REPRESENTATION_RELATIONSHIP('','',#208,#10) 
REPRESENTATION_RELATIONSHIP_WITH_TRANSFORMATION(#269) 
SHAPE_REPRESENTATION_RELATIONSHIP() );
#269 = ITEM_DEFINED_TRANSFORMATION('','',#11,#19);
#270 = PRODUCT_DEFINITION_SHAPE('Placement','Placement of an item',#271
  );
#271 = NEXT_ASSEMBLY_USAGE_OCCURRENCE('150','WIRE_WINCH_1','',#5,#203,$
  );
#272 = PRODUCT_RELATED_PRODUCT_CATEGORY('part',$,(#205));
#273 = SHAPE_DEFINITION_REPRESENTATION(#274,#280);
#274 = PRODUCT_DEFINITION_SHAPE('','',#275);
#275 = PRODUCT_DEFINITION('design','',#276,#279);
#276 = PRODUCT_DEFINITION_FORMATION('','',#277);
#277 = PRODUCT('WIRE_WINCH_2','WIRE_WINCH_2','',(#278));
#278 = PRODUCT_CONTEXT('',#2,'mechanical');
#279 = PRODUCT_DEFINITION_CONTEXT('part definition',#2,'design');
#280 = ADVANCED_BREP_SHAPE_REPRESENTATION('',(#11,#281),#334);
#281 = MANIFOLD_SOLID_BREP('',#282);
#282 = CLOSED_SHELL('',(#283,#316,#325));
#283 = ADVANCED_FACE('',(#284),#311,.T.);
#284 = FACE_BOUND('',#285,.F.);
#285 = EDGE_LOOP('',(#286,#296,#303,#304));
#286 = ORIENTED_EDGE('',*,*,#287,.T.);
#287 = EDGE_CURVE('',#288,#290,#292,.T.);
#288 = VERTEX_POINT('',#289);
#289 = CARTESIAN_POINT('',(1.,0.,7.105427357601E-15));
#290 = VERTEX_POINT('',#291);
#291 = CARTESIAN_POINT('',(1.,0.,12.806248474866));
#292 = LINE('',#293,#294);
#293 = CARTESIAN_POINT('',(1.,-2.4E-16,0.));
#294 = VECTOR('',#295,1.);
#295 = DIRECTION('',(0.,0.,1.));
#296 = ORIENTED_EDGE('',*,*,#297,.T.);
#297 = EDGE_CURVE('',#290,#290,#298,.T.);
#298 = CIRCLE('',#299,1.);
#299 = AXIS2_PLACEMENT_3D('',#300,#301,#302);
#300 = CARTESIAN_POINT('',(0.,0.,12.806248474866));
#301 = DIRECTION('',(0.,0.,1.));
#302 = DIRECTION('',(1.,0.,0.));
#303 = ORIENTED_EDGE('',*,*,#287,.F.);
#304 = ORIENTED_EDGE('',*,*,#305,.F.);
#305 = EDGE_CURVE('',#288,#288,#306,.T.);
#306 = CIRCLE('',#307,1.);
#307 = AXIS2_PLACEMENT_3D('',#308,#309,#310);
#308 = CARTESIAN_POINT('',(0.,0.,0.));
#309 = DIRECTION('',(0.,0.,1.));
#310 = DIRECTION('',(1.,0.,-0.));
#311 = CYLINDRICAL_SURFACE('',#312,1.);
#312 = AXIS2_PLACEMENT_3D('',#313,#314,#315);
#313 = CARTESIAN_POINT('',(0.,0.,0.));
#314 = DIRECTION('',(-0.,-0.,-1.));
#315 = DIRECTION('',(1.,0.,-0.));
#316 = ADVANCED_FACE('',(#317),#320,.F.);
#317 = FACE_BOUND('',#318,.T.);
#318 = EDGE_LOOP('',(#319));
#319 = ORIENTED_EDGE('',*,*,#305,.F.);
#320 = PLANE('',#321);
#321 = AXIS2_PLACEMENT_3D('',#322,#323,#324);
#322 = CARTESIAN_POINT('',(0.,0.,0.));
#323 = DIRECTION('',(0.,0.,1.));
#324 = DIRECTION('',(1.,0.,-0.));
#325 = ADVANCED_FACE('',(#326),#329,.T.);
#326 = FACE_BOUND('',#327,.F.);
#327 = EDGE_LOOP('',(#328));
#328 = ORIENTED_EDGE('',*,*,#297,.F.);
#329 = PLANE('',#330);
#330 = AXIS2_PLACEMENT_3D('',#331,#332,#333);
#331 = CARTESIAN_POINT('',(0.,0.,12.806248474866));
#332 = DIRECTION('',(0.,0.,1.));
#333 = DIRECTION('',(1.,0.,0.));
#334 = ( GEOMETRIC_REPRESENTATION_CONTEXT(3) 
GLOBAL_UNCERTAINTY_ASSIGNED_CONTEXT((#338)) GLOBAL_UNIT_ASSIGNED_CONTEXT
((#335,#336,#337)) REPRESENTATION_CONTEXT('Context #1',
  '3D Context with UNIT and UNCERTAINTY') );
#335 = ( LENGTH_UNIT() NAMED_UNIT(*) SI_UNIT(.MILLI.,.METRE.) );
#336 = ( NAMED_UNIT(*) PLANE_ANGLE_UNIT() SI_UNIT($,.RADIAN.) );
#337 = ( NAMED_UNIT(*) SI_UNIT($,.STERADIAN.) SOLID_ANGLE_UNIT() );
#338 = UNCERTAINTY_MEASURE_WITH_UNIT(LENGTH_MEASURE(1.E-07),#335,
  'distance_accuracy_value','confusion accuracy');
#339 = CONTEXT_DEPENDENT_SHAPE_REPRESENTATION(#340,#342);
#340 = ( REPRESENTATION_RELATIONSHIP('','',#280,#10) 
REPRESENTATION_RELATIONSHIP_WITH_TRANSFORMATION(#341) 
SHAPE_REPRESENTATION_RELATIONSHIP() );
#341 = ITEM_DEFINED_TRANSFORMATION('','',#11,#23);
#342 = PRODUCT_DEFINITION_SHAPE('Placement','Placement of an item',#343
  );
#343 = NEXT_ASSEMBLY_USAGE_OCCURRENCE('151','WIRE_WINCH_2','',#5,#275,$
  );
#344 = PRODUCT_RELATED_PRODUCT_CATEGORY('part',$,(#277));
ENDSEC;
END-ISO-10303-21;
