ISO-10303-21;
HEADER;
FILE_DESCRIPTION(('FreeCAD Model'),'2;1');
FILE_NAME('Open CASCADE Shape Model','2026-09-30T03:00:33',('Author'),(
    ''),'Open CASCADE STEP processor 7.8','FreeCAD','Unknown');
FILE_SCHEMA(('AUTOMOTIVE_DESIGN { 1 0 10303 214 1 1 1 1 }'));
ENDSEC;
DATA;
#1 = APPLICATION_PROTOCOL_DEFINITION('international standard',
  'automotive_design',2000,#2);
#2 = APPLICATION_CONTEXT(
  'core data for automotive mechanical design processes');
#3 = SHAPE_DEFINITION_REPRESENTATION(#4,#10);
#4 = PRODUCT_DEFINITION_SHAPE('','',#5);
#5 = PRODUCT_DEFINITION('design','',#6,#9);
#6 = PRODUCT_DEFINITION_FORMATION('','',#7);
#7 = PRODUCT('master_robot','master_robot','',(#8));
#8 = PRODUCT_CONTEXT('',#2,'mechanical');
#9 = PRODUCT_DEFINITION_CONTEXT('part definition',#2,'design');
#10 = SHAPE_REPRESENTATION('',(#11,#15,#19,#23,#27,#31,#35),#39);
#11 = AXIS2_PLACEMENT_3D('',#12,#13,#14);
#12 = CARTESIAN_POINT('',(0.,0.,0.));
#13 = DIRECTION('',(0.,0.,1.));
#14 = DIRECTION('',(1.,0.,-0.));
#15 = AXIS2_PLACEMENT_3D('',#16,#17,#18);
#16 = CARTESIAN_POINT('',(0.,0.,0.));
#17 = DIRECTION('',(0.,0.,1.));
#18 = DIRECTION('',(1.,0.,0.));
#19 = AXIS2_PLACEMENT_3D('',#20,#21,#22);
#20 = CARTESIAN_POINT('',(0.,0.,0.));
#21 = DIRECTION('',(0.,0.,1.));
#22 = DIRECTION('',(1.,0.,0.));
#23 = AXIS2_PLACEMENT_3D('',#24,#25,#26);
#24 = CARTESIAN_POINT('',(-90.,-58.,276.));
#25 = DIRECTION('',(-0.986185714031,-2.054553570897E-02,-0.164364285672)
  );
#26 = DIRECTION('',(-0.163859138476,-2.424706538492E-02,0.986185714031)
  );
#27 = AXIS2_PLACEMENT_3D('',#28,#29,#30);
#28 = CARTESIAN_POINT('',(-115.,-51.,272.));
#29 = DIRECTION('',(0.,0.,-1.));
#30 = DIRECTION('',(-1.,0.,0.));
#31 = AXIS2_PLACEMENT_3D('',#32,#33,#34);
#32 = CARTESIAN_POINT('',(-115.,-51.,255.));
#33 = DIRECTION('',(0.75473190814,-0.654100987055,-5.031546054266E-02));
#34 = DIRECTION('',(0.400200561873,0.51982617971,-0.75473190814));
#35 = AXIS2_PLACEMENT_3D('',#36,#37,#38);
#36 = CARTESIAN_POINT('',(-100.,-64.,254.));
#37 = DIRECTION('',(0.635000635001,-0.762000762001,-0.127000127));
#38 = DIRECTION('',(0.538114702049,0.554262357541,-0.635000635001));
#39 = ( GEOMETRIC_REPRESENTATION_CONTEXT(3) 
GLOBAL_UNCERTAINTY_ASSIGNED_CONTEXT((#43)) GLOBAL_UNIT_ASSIGNED_CONTEXT(
(#40,#41,#42)) REPRESENTATION_CONTEXT('Context #1',
  '3D Context with UNIT and UNCERTAINTY') );
#40 = ( LENGTH_UNIT() NAMED_UNIT(*) SI_UNIT(.MILLI.,.METRE.) );
#41 = ( NAMED_UNIT(*) PLANE_ANGLE_UNIT() SI_UNIT($,.RADIAN.) );
#42 = ( NAMED_UNIT(*) SI_UNIT($,.STERADIAN.) SOLID_ANGLE_UNIT() );
#43 = UNCERTAINTY_MEASURE_WITH_UNIT(LENGTH_MEASURE(5.E-06),#40,
  'distance_accuracy_value','confusion accuracy');
#44 = PRODUCT_RELATED_PRODUCT_CATEGORY('part',$,(#7));
#45 = SHAPE_DEFINITION_REPRESENTATION(#46,#52);
#46 = PRODUCT_DEFINITION_SHAPE('','',#47);
#47 = PRODUCT_DEFINITION('design','',#48,#51);
#48 = PRODUCT_DEFINITION_FORMATION('','',#49);
#49 = PRODUCT('WIRE_FLY_R_0','WIRE_FLY_R_0','',(#50));
#50 = PRODUCT_CONTEXT('',#2,'mechanical');
#51 = PRODUCT_DEFINITION_CONTEXT('part definition',#2,'design');
#52 = ADVANCED_BREP_SHAPE_REPRESENTATION('',(#11,#53),#202);
#53 = MANIFOLD_SOLID_BREP('',#54);
#54 = CLOSED_SHELL('',(#55,#115,#124,#140,#182,#193));
#55 = ADVANCED_FACE('',(#56),#110,.T.);
#56 = FACE_BOUND('',#57,.F.);
#57 = EDGE_LOOP('',(#58,#67,#75,#84,#93,#102,#109));
#58 = ORIENTED_EDGE('',*,*,#59,.F.);
#59 = EDGE_CURVE('',#60,#60,#62,.T.);
#60 = VERTEX_POINT('',#61);
#61 = CARTESIAN_POINT('',(-78.76245232836,-102.8567982238,
    302.10231818863));
#62 = CIRCLE('',#63,1.25);
#63 = AXIS2_PLACEMENT_3D('',#64,#65,#66);
#64 = CARTESIAN_POINT('',(-80.,-103.,302.));
#65 = DIRECTION('',(-8.185455090701E-02,0.941327335431,-0.327418203628)
  );
#66 = DIRECTION('',(0.990038137309,0.114561420951,8.185455090701E-02));
#67 = ORIENTED_EDGE('',*,*,#68,.T.);
#68 = EDGE_CURVE('',#60,#69,#71,.T.);
#69 = VERTEX_POINT('',#70);
#70 = CARTESIAN_POINT('',(-80.76245232836,-79.85679822381,
    294.10231818863));
#71 = LINE('',#72,#73);
#72 = CARTESIAN_POINT('',(-78.76245232836,-102.8567982238,
    302.10231818863));
#73 = VECTOR('',#74,1.);
#74 = DIRECTION('',(-8.185455090701E-02,0.941327335431,-0.327418203628)
  );
#75 = ORIENTED_EDGE('',*,*,#76,.T.);
#76 = EDGE_CURVE('',#69,#77,#79,.T.);
#77 = VERTEX_POINT('',#78);
#78 = CARTESIAN_POINT('',(-80.92807929635,-80.12610831807,
    293.36945840961));
#79 = CIRCLE('',#80,1.25);
#80 = AXIS2_PLACEMENT_3D('',#81,#82,#83);
#81 = CARTESIAN_POINT('',(-82.,-80.,294.));
#82 = DIRECTION('',(-8.185455090701E-02,0.941327335431,-0.327418203628)
  );
#83 = DIRECTION('',(0.990038137309,0.114561420951,8.185455090701E-02));
#84 = ORIENTED_EDGE('',*,*,#85,.F.);
#85 = EDGE_CURVE('',#86,#77,#88,.T.);
#86 = VERTEX_POINT('',#87);
#87 = CARTESIAN_POINT('',(-82.614369889,-80.63794155876,293.08315950044)
  );
#88 = ELLIPSE('',#89,1.274761269624,1.25);
#89 = AXIS2_PLACEMENT_3D('',#90,#91,#92);
#90 = CARTESIAN_POINT('',(-82.,-80.,294.));
#91 = DIRECTION('',(0.179878368459,-0.859873052598,0.4777678369));
#92 = DIRECTION('',(-0.481948976363,-0.500440022747,-0.719225255268));
#93 = ORIENTED_EDGE('',*,*,#94,.F.);
#94 = EDGE_CURVE('',#95,#86,#97,.T.);
#95 = VERTEX_POINT('',#96);
#96 = CARTESIAN_POINT('',(-83.07192070364,-79.87389168192,
    294.63054159038));
#97 = ELLIPSE('',#98,1.274761269624,1.25);
#98 = AXIS2_PLACEMENT_3D('',#99,#100,#101);
#99 = CARTESIAN_POINT('',(-82.,-80.,294.));
#100 = DIRECTION('',(0.179878368459,-0.859873052598,0.4777678369));
#101 = DIRECTION('',(-0.481948976363,-0.500440022747,-0.719225255268));
#102 = ORIENTED_EDGE('',*,*,#103,.T.);
#103 = EDGE_CURVE('',#95,#69,#104,.T.);
#104 = CIRCLE('',#105,1.25);
#105 = AXIS2_PLACEMENT_3D('',#106,#107,#108);
#106 = CARTESIAN_POINT('',(-82.,-80.,294.));
#107 = DIRECTION('',(-8.185455090701E-02,0.941327335431,-0.327418203628)
  );
#108 = DIRECTION('',(0.990038137309,0.114561420951,8.185455090701E-02));
#109 = ORIENTED_EDGE('',*,*,#68,.F.);
#110 = CYLINDRICAL_SURFACE('',#111,1.25);
#111 = AXIS2_PLACEMENT_3D('',#112,#113,#114);
#112 = CARTESIAN_POINT('',(-80.,-103.,302.));
#113 = DIRECTION('',(8.185455090701E-02,-0.941327335431,0.327418203628)
  );
#114 = DIRECTION('',(0.990038137309,0.114561420951,8.185455090701E-02));
#115 = ADVANCED_FACE('',(#116),#119,.F.);
#116 = FACE_BOUND('',#117,.T.);
#117 = EDGE_LOOP('',(#118));
#118 = ORIENTED_EDGE('',*,*,#59,.F.);
#119 = PLANE('',#120);
#120 = AXIS2_PLACEMENT_3D('',#121,#122,#123);
#121 = CARTESIAN_POINT('',(-80.,-103.,302.));
#122 = DIRECTION('',(-8.185455090701E-02,0.941327335431,-0.327418203628)
  );
#123 = DIRECTION('',(0.990038137309,0.114561420951,8.185455090701E-02));
#124 = ADVANCED_FACE('',(#125),#135,.T.);
#125 = FACE_BOUND('',#126,.T.);
#126 = EDGE_LOOP('',(#127,#128,#129));
#127 = ORIENTED_EDGE('',*,*,#103,.T.);
#128 = ORIENTED_EDGE('',*,*,#76,.T.);
#129 = ORIENTED_EDGE('',*,*,#130,.T.);
#130 = EDGE_CURVE('',#77,#95,#131,.T.);
#131 = LINE('',#132,#133);
#132 = CARTESIAN_POINT('',(-82.,-80.,294.));
#133 = VECTOR('',#134,1.);
#134 = DIRECTION('',(-0.857536562919,0.100886654461,0.504433272305));
#135 = PLANE('',#136);
#136 = AXIS2_PLACEMENT_3D('',#137,#138,#139);
#137 = CARTESIAN_POINT('',(-82.,-80.,294.));
#138 = DIRECTION('',(-8.185455090701E-02,0.941327335431,-0.327418203628)
  );
#139 = DIRECTION('',(0.990038137309,0.114561420951,8.185455090701E-02));
#140 = ADVANCED_FACE('',(#141),#177,.T.);
#141 = FACE_BOUND('',#142,.F.);
#142 = EDGE_LOOP('',(#143,#152,#160,#167,#168,#175,#176));
#143 = ORIENTED_EDGE('',*,*,#144,.F.);
#144 = EDGE_CURVE('',#145,#77,#147,.T.);
#145 = VERTEX_POINT('',#146);
#146 = CARTESIAN_POINT('',(-80.98497181245,-79.35382751574,
    294.33864273073));
#147 = CIRCLE('',#148,1.25);
#148 = AXIS2_PLACEMENT_3D('',#149,#150,#151);
#149 = CARTESIAN_POINT('',(-82.,-80.,294.));
#150 = DIRECTION('',(-0.270914184591,0.745014007626,-0.609556915331));
#151 = DIRECTION('',(0.812022550034,0.516937987405,0.270914184591));
#152 = ORIENTED_EDGE('',*,*,#153,.T.);
#153 = EDGE_CURVE('',#145,#154,#156,.T.);
#154 = VERTEX_POINT('',#155);
#155 = CARTESIAN_POINT('',(-88.98497181245,-57.35382751574,
    276.33864273073));
#156 = LINE('',#157,#158);
#157 = CARTESIAN_POINT('',(-80.98497181245,-79.35382751574,
    294.33864273073));
#158 = VECTOR('',#159,1.);
#159 = DIRECTION('',(-0.270914184591,0.745014007626,-0.609556915331));
#160 = ORIENTED_EDGE('',*,*,#161,.T.);
#161 = EDGE_CURVE('',#154,#154,#162,.T.);
#162 = CIRCLE('',#163,1.25);
#163 = AXIS2_PLACEMENT_3D('',#164,#165,#166);
#164 = CARTESIAN_POINT('',(-90.,-58.,276.));
#165 = DIRECTION('',(-0.270914184591,0.745014007626,-0.609556915331));
#166 = DIRECTION('',(0.812022550034,0.516937987405,0.270914184591));
#167 = ORIENTED_EDGE('',*,*,#153,.F.);
#168 = ORIENTED_EDGE('',*,*,#169,.F.);
#169 = EDGE_CURVE('',#95,#145,#170,.T.);
#170 = CIRCLE('',#171,1.25);
#171 = AXIS2_PLACEMENT_3D('',#172,#173,#174);
#172 = CARTESIAN_POINT('',(-82.,-80.,294.));
#173 = DIRECTION('',(-0.270914184591,0.745014007626,-0.609556915331));
#174 = DIRECTION('',(0.812022550034,0.516937987405,0.270914184591));
#175 = ORIENTED_EDGE('',*,*,#94,.T.);
#176 = ORIENTED_EDGE('',*,*,#85,.T.);
#177 = CYLINDRICAL_SURFACE('',#178,1.25);
#178 = AXIS2_PLACEMENT_3D('',#179,#180,#181);
#179 = CARTESIAN_POINT('',(-82.,-80.,294.));
#180 = DIRECTION('',(0.270914184591,-0.745014007626,0.609556915331));
#181 = DIRECTION('',(0.812022550034,0.516937987405,0.270914184591));
#182 = ADVANCED_FACE('',(#183),#188,.F.);
#183 = FACE_BOUND('',#184,.F.);
#184 = EDGE_LOOP('',(#185,#186,#187));
#185 = ORIENTED_EDGE('',*,*,#169,.T.);
#186 = ORIENTED_EDGE('',*,*,#144,.T.);
#187 = ORIENTED_EDGE('',*,*,#130,.T.);
#188 = PLANE('',#189);
#189 = AXIS2_PLACEMENT_3D('',#190,#191,#192);
#190 = CARTESIAN_POINT('',(-82.,-80.,294.));
#191 = DIRECTION('',(-0.270914184591,0.745014007626,-0.609556915331));
#192 = DIRECTION('',(0.812022550034,0.516937987405,0.270914184591));
#193 = ADVANCED_FACE('',(#194),#197,.T.);
#194 = FACE_BOUND('',#195,.F.);
#195 = EDGE_LOOP('',(#196));
#196 = ORIENTED_EDGE('',*,*,#161,.F.);
#197 = PLANE('',#198);
#198 = AXIS2_PLACEMENT_3D('',#199,#200,#201);
#199 = CARTESIAN_POINT('',(-90.,-58.,276.));
#200 = DIRECTION('',(-0.270914184591,0.745014007626,-0.609556915331));
#201 = DIRECTION('',(0.812022550034,0.516937987405,0.270914184591));
#202 = ( GEOMETRIC_REPRESENTATION_CONTEXT(3) 
GLOBAL_UNCERTAINTY_ASSIGNED_CONTEXT((#206)) GLOBAL_UNIT_ASSIGNED_CONTEXT
((#203,#204,#205)) REPRESENTATION_CONTEXT('Context #1',
  '3D Context with UNIT and UNCERTAINTY') );
#203 = ( LENGTH_UNIT() NAMED_UNIT(*) SI_UNIT(.MILLI.,.METRE.) );
#204 = ( NAMED_UNIT(*) PLANE_ANGLE_UNIT() SI_UNIT($,.RADIAN.) );
#205 = ( NAMED_UNIT(*) SI_UNIT($,.STERADIAN.) SOLID_ANGLE_UNIT() );
#206 = UNCERTAINTY_MEASURE_WITH_UNIT(LENGTH_MEASURE(1.E-05),#203,
  'distance_accuracy_value','confusion accuracy');
#207 = CONTEXT_DEPENDENT_SHAPE_REPRESENTATION(#208,#210);
#208 = ( REPRESENTATION_RELATIONSHIP('','',#52,#10) 
REPRESENTATION_RELATIONSHIP_WITH_TRANSFORMATION(#209) 
SHAPE_REPRESENTATION_RELATIONSHIP() );
#209 = ITEM_DEFINED_TRANSFORMATION('','',#11,#15);
#210 = PRODUCT_DEFINITION_SHAPE('Placement','Placement of an item',#211
  );
#211 = NEXT_ASSEMBLY_USAGE_OCCURRENCE('108','WIRE_FLY_R_0','',#5,#47,$);
#212 = PRODUCT_RELATED_PRODUCT_CATEGORY('part',$,(#49));
#213 = SHAPE_DEFINITION_REPRESENTATION(#214,#220);
#214 = PRODUCT_DEFINITION_SHAPE('','',#215);
#215 = PRODUCT_DEFINITION('design','',#216,#219);
#216 = PRODUCT_DEFINITION_FORMATION('','',#217);
#217 = PRODUCT('WIRE_FLY_R_1','WIRE_FLY_R_1','',(#218));
#218 = PRODUCT_CONTEXT('',#2,'mechanical');
#219 = PRODUCT_DEFINITION_CONTEXT('part definition',#2,'design');
#220 = ADVANCED_BREP_SHAPE_REPRESENTATION('',(#11,#221),#274);
#221 = MANIFOLD_SOLID_BREP('',#222);
#222 = CLOSED_SHELL('',(#223,#256,#265));
#223 = ADVANCED_FACE('',(#224),#251,.T.);
#224 = FACE_BOUND('',#225,.F.);
#225 = EDGE_LOOP('',(#226,#236,#243,#244));
#226 = ORIENTED_EDGE('',*,*,#227,.T.);
#227 = EDGE_CURVE('',#228,#230,#232,.T.);
#228 = VERTEX_POINT('',#229);
#229 = CARTESIAN_POINT('',(-112.7553518865,-58.41838373026,
    272.0817915532));
#230 = VERTEX_POINT('',#231);
#231 = CARTESIAN_POINT('',(-114.7553518865,-27.91838373026,
    272.0817915532));
#232 = LINE('',#233,#234);
#233 = CARTESIAN_POINT('',(-112.7553518865,-58.41838373026,
    272.0817915532));
#234 = VECTOR('',#235,1.);
#235 = DIRECTION('',(-6.543324256068E-02,0.99785694905,
    -2.398294451495E-16));
#236 = ORIENTED_EDGE('',*,*,#237,.T.);
#237 = EDGE_CURVE('',#230,#230,#238,.T.);
#238 = CIRCLE('',#239,1.25);
#239 = AXIS2_PLACEMENT_3D('',#240,#241,#242);
#240 = CARTESIAN_POINT('',(-116.,-28.,272.));
#241 = DIRECTION('',(-6.543324256068E-02,0.99785694905,
    -2.393918396848E-16));
#242 = DIRECTION('',(0.995718490768,6.529301578806E-02,
    6.543324256068E-02));
#243 = ORIENTED_EDGE('',*,*,#227,.F.);
#244 = ORIENTED_EDGE('',*,*,#245,.F.);
#245 = EDGE_CURVE('',#228,#228,#246,.T.);
#246 = CIRCLE('',#247,1.25);
#247 = AXIS2_PLACEMENT_3D('',#248,#249,#250);
#248 = CARTESIAN_POINT('',(-114.,-58.5,272.));
#249 = DIRECTION('',(-6.543324256068E-02,0.99785694905,
    -2.393918396848E-16));
#250 = DIRECTION('',(0.995718490768,6.529301578806E-02,
    6.543324256068E-02));
#251 = CYLINDRICAL_SURFACE('',#252,1.25);
#252 = AXIS2_PLACEMENT_3D('',#253,#254,#255);
#253 = CARTESIAN_POINT('',(-114.,-58.5,272.));
#254 = DIRECTION('',(6.543324256068E-02,-0.99785694905,
    2.398294451495E-16));
#255 = DIRECTION('',(0.995718490768,6.529301578806E-02,
    6.543324256068E-02));
#256 = ADVANCED_FACE('',(#257),#260,.F.);
#257 = FACE_BOUND('',#258,.T.);
#258 = EDGE_LOOP('',(#259));
#259 = ORIENTED_EDGE('',*,*,#245,.F.);
#260 = PLANE('',#261);
#261 = AXIS2_PLACEMENT_3D('',#262,#263,#264);
#262 = CARTESIAN_POINT('',(-114.,-58.5,272.));
#263 = DIRECTION('',(-6.543324256068E-02,0.99785694905,
    -2.398294451495E-16));
#264 = DIRECTION('',(0.995718490768,6.529301578806E-02,
    6.543324256068E-02));
#265 = ADVANCED_FACE('',(#266),#269,.T.);
#266 = FACE_BOUND('',#267,.F.);
#267 = EDGE_LOOP('',(#268));
#268 = ORIENTED_EDGE('',*,*,#237,.F.);
#269 = PLANE('',#270);
#270 = AXIS2_PLACEMENT_3D('',#271,#272,#273);
#271 = CARTESIAN_POINT('',(-116.,-28.,272.));
#272 = DIRECTION('',(-6.543324256068E-02,0.99785694905,
    -2.398294451495E-16));
#273 = DIRECTION('',(0.995718490768,6.529301578806E-02,
    6.543324256068E-02));
#274 = ( GEOMETRIC_REPRESENTATION_CONTEXT(3) 
GLOBAL_UNCERTAINTY_ASSIGNED_CONTEXT((#278)) GLOBAL_UNIT_ASSIGNED_CONTEXT
((#275,#276,#277)) REPRESENTATION_CONTEXT('Context #1',
  '3D Context with UNIT and UNCERTAINTY') );
#275 = ( LENGTH_UNIT() NAMED_UNIT(*) SI_UNIT(.MILLI.,.METRE.) );
#276 = ( NAMED_UNIT(*) PLANE_ANGLE_UNIT() SI_UNIT($,.RADIAN.) );
#277 = ( NAMED_UNIT(*) SI_UNIT($,.STERADIAN.) SOLID_ANGLE_UNIT() );
#278 = UNCERTAINTY_MEASURE_WITH_UNIT(LENGTH_MEASURE(1.E-07),#275,
  'distance_accuracy_value','confusion accuracy');
#279 = CONTEXT_DEPENDENT_SHAPE_REPRESENTATION(#280,#282);
#280 = ( REPRESENTATION_RELATIONSHIP('','',#220,#10) 
REPRESENTATION_RELATIONSHIP_WITH_TRANSFORMATION(#281) 
SHAPE_REPRESENTATION_RELATIONSHIP() );
#281 = ITEM_DEFINED_TRANSFORMATION('','',#11,#19);
#282 = PRODUCT_DEFINITION_SHAPE('Placement','Placement of an item',#283
  );
#283 = NEXT_ASSEMBLY_USAGE_OCCURRENCE('109','WIRE_FLY_R_1','',#5,#215,$
  );
#284 = PRODUCT_RELATED_PRODUCT_CATEGORY('part',$,(#217));
#285 = SHAPE_DEFINITION_REPRESENTATION(#286,#292);
#286 = PRODUCT_DEFINITION_SHAPE('','',#287);
#287 = PRODUCT_DEFINITION('design','',#288,#291);
#288 = PRODUCT_DEFINITION_FORMATION('','',#289);
#289 = PRODUCT('WIRE_FLY_R_2','WIRE_FLY_R_2','',(#290));
#290 = PRODUCT_CONTEXT('',#2,'mechanical');
#291 = PRODUCT_DEFINITION_CONTEXT('part definition',#2,'design');
#292 = ADVANCED_BREP_SHAPE_REPRESENTATION('',(#11,#293),#346);
#293 = MANIFOLD_SOLID_BREP('',#294);
#294 = CLOSED_SHELL('',(#295,#328,#337));
#295 = ADVANCED_FACE('',(#296),#323,.T.);
#296 = FACE_BOUND('',#297,.F.);
#297 = EDGE_LOOP('',(#298,#308,#315,#316));
#298 = ORIENTED_EDGE('',*,*,#299,.T.);
#299 = EDGE_CURVE('',#300,#302,#304,.T.);
#300 = VERTEX_POINT('',#301);
#301 = CARTESIAN_POINT('',(1.25,0.,0.));
#302 = VERTEX_POINT('',#303);
#303 = CARTESIAN_POINT('',(1.25,-7.105427357601E-15,24.336187047276));
#304 = LINE('',#305,#306);
#305 = CARTESIAN_POINT('',(1.25,-3.1E-16,0.));
#306 = VECTOR('',#307,1.);
#307 = DIRECTION('',(0.,0.,1.));
#308 = ORIENTED_EDGE('',*,*,#309,.T.);
#309 = EDGE_CURVE('',#302,#302,#310,.T.);
#310 = CIRCLE('',#311,1.25);
#311 = AXIS2_PLACEMENT_3D('',#312,#313,#314);
#312 = CARTESIAN_POINT('',(0.,0.,24.336187047276));
#313 = DIRECTION('',(0.,0.,1.));
#314 = DIRECTION('',(1.,0.,0.));
#315 = ORIENTED_EDGE('',*,*,#299,.F.);
#316 = ORIENTED_EDGE('',*,*,#317,.F.);
#317 = EDGE_CURVE('',#300,#300,#318,.T.);
#318 = CIRCLE('',#319,1.25);
#319 = AXIS2_PLACEMENT_3D('',#320,#321,#322);
#320 = CARTESIAN_POINT('',(0.,0.,0.));
#321 = DIRECTION('',(0.,0.,1.));
#322 = DIRECTION('',(1.,0.,-0.));
#323 = CYLINDRICAL_SURFACE('',#324,1.25);
#324 = AXIS2_PLACEMENT_3D('',#325,#326,#327);
#325 = CARTESIAN_POINT('',(0.,0.,0.));
#326 = DIRECTION('',(-0.,-0.,-1.));
#327 = DIRECTION('',(1.,0.,-0.));
#328 = ADVANCED_FACE('',(#329),#332,.F.);
#329 = FACE_BOUND('',#330,.T.);
#330 = EDGE_LOOP('',(#331));
#331 = ORIENTED_EDGE('',*,*,#317,.F.);
#332 = PLANE('',#333);
#333 = AXIS2_PLACEMENT_3D('',#334,#335,#336);
#334 = CARTESIAN_POINT('',(0.,0.,0.));
#335 = DIRECTION('',(0.,0.,1.));
#336 = DIRECTION('',(1.,0.,-0.));
#337 = ADVANCED_FACE('',(#338),#341,.T.);
#338 = FACE_BOUND('',#339,.F.);
#339 = EDGE_LOOP('',(#340));
#340 = ORIENTED_EDGE('',*,*,#309,.F.);
#341 = PLANE('',#342);
#342 = AXIS2_PLACEMENT_3D('',#343,#344,#345);
#343 = CARTESIAN_POINT('',(0.,0.,24.336187047276));
#344 = DIRECTION('',(0.,0.,1.));
#345 = DIRECTION('',(1.,0.,0.));
#346 = ( GEOMETRIC_REPRESENTATION_CONTEXT(3) 
GLOBAL_UNCERTAINTY_ASSIGNED_CONTEXT((#350)) GLOBAL_UNIT_ASSIGNED_CONTEXT
((#347,#348,#349)) REPRESENTATION_CONTEXT('Context #1',
  '3D Context with UNIT and UNCERTAINTY') );
#347 = ( LENGTH_UNIT() NAMED_UNIT(*) SI_UNIT(.MILLI.,.METRE.) );
#348 = ( NAMED_UNIT(*) PLANE_ANGLE_UNIT() SI_UNIT($,.RADIAN.) );
#349 = ( NAMED_UNIT(*) SI_UNIT($,.STERADIAN.) SOLID_ANGLE_UNIT() );
#350 = UNCERTAINTY_MEASURE_WITH_UNIT(LENGTH_MEASURE(1.E-07),#347,
  'distance_accuracy_value','confusion accuracy');
#351 = CONTEXT_DEPENDENT_SHAPE_REPRESENTATION(#352,#354);
#352 = ( REPRESENTATION_RELATIONSHIP('','',#292,#10) 
REPRESENTATION_RELATIONSHIP_WITH_TRANSFORMATION(#353) 
SHAPE_REPRESENTATION_RELATIONSHIP() );
#353 = ITEM_DEFINED_TRANSFORMATION('','',#11,#23);
#354 = PRODUCT_DEFINITION_SHAPE('Placement','Placement of an item',#355
  );
#355 = NEXT_ASSEMBLY_USAGE_OCCURRENCE('110','WIRE_FLY_R_2','',#5,#287,$
  );
#356 = PRODUCT_RELATED_PRODUCT_CATEGORY('part',$,(#289));
#357 = SHAPE_DEFINITION_REPRESENTATION(#358,#364);
#358 = PRODUCT_DEFINITION_SHAPE('','',#359);
#359 = PRODUCT_DEFINITION('design','',#360,#363);
#360 = PRODUCT_DEFINITION_FORMATION('','',#361);
#361 = PRODUCT('WIRE_FLY_R_3','WIRE_FLY_R_3','',(#362));
#362 = PRODUCT_CONTEXT('',#2,'mechanical');
#363 = PRODUCT_DEFINITION_CONTEXT('part definition',#2,'design');
#364 = ADVANCED_BREP_SHAPE_REPRESENTATION('',(#11,#365),#418);
#365 = MANIFOLD_SOLID_BREP('',#366);
#366 = CLOSED_SHELL('',(#367,#400,#409));
#367 = ADVANCED_FACE('',(#368),#395,.T.);
#368 = FACE_BOUND('',#369,.F.);
#369 = EDGE_LOOP('',(#370,#380,#387,#388));
#370 = ORIENTED_EDGE('',*,*,#371,.T.);
#371 = EDGE_CURVE('',#372,#374,#376,.T.);
#372 = VERTEX_POINT('',#373);
#373 = CARTESIAN_POINT('',(1.25,0.,0.));
#374 = VERTEX_POINT('',#375);
#375 = CARTESIAN_POINT('',(1.25,0.,17.));
#376 = LINE('',#377,#378);
#377 = CARTESIAN_POINT('',(1.25,-3.1E-16,0.));
#378 = VECTOR('',#379,1.);
#379 = DIRECTION('',(0.,0.,1.));
#380 = ORIENTED_EDGE('',*,*,#381,.T.);
#381 = EDGE_CURVE('',#374,#374,#382,.T.);
#382 = CIRCLE('',#383,1.25);
#383 = AXIS2_PLACEMENT_3D('',#384,#385,#386);
#384 = CARTESIAN_POINT('',(0.,0.,17.));
#385 = DIRECTION('',(0.,0.,1.));
#386 = DIRECTION('',(1.,0.,0.));
#387 = ORIENTED_EDGE('',*,*,#371,.F.);
#388 = ORIENTED_EDGE('',*,*,#389,.F.);
#389 = EDGE_CURVE('',#372,#372,#390,.T.);
#390 = CIRCLE('',#391,1.25);
#391 = AXIS2_PLACEMENT_3D('',#392,#393,#394);
#392 = CARTESIAN_POINT('',(0.,0.,0.));
#393 = DIRECTION('',(0.,0.,1.));
#394 = DIRECTION('',(1.,0.,-0.));
#395 = CYLINDRICAL_SURFACE('',#396,1.25);
#396 = AXIS2_PLACEMENT_3D('',#397,#398,#399);
#397 = CARTESIAN_POINT('',(0.,0.,0.));
#398 = DIRECTION('',(-0.,-0.,-1.));
#399 = DIRECTION('',(1.,0.,-0.));
#400 = ADVANCED_FACE('',(#401),#404,.F.);
#401 = FACE_BOUND('',#402,.T.);
#402 = EDGE_LOOP('',(#403));
#403 = ORIENTED_EDGE('',*,*,#389,.F.);
#404 = PLANE('',#405);
#405 = AXIS2_PLACEMENT_3D('',#406,#407,#408);
#406 = CARTESIAN_POINT('',(0.,0.,0.));
#407 = DIRECTION('',(0.,0.,1.));
#408 = DIRECTION('',(1.,0.,-0.));
#409 = ADVANCED_FACE('',(#410),#413,.T.);
#410 = FACE_BOUND('',#411,.F.);
#411 = EDGE_LOOP('',(#412));
#412 = ORIENTED_EDGE('',*,*,#381,.F.);
#413 = PLANE('',#414);
#414 = AXIS2_PLACEMENT_3D('',#415,#416,#417);
#415 = CARTESIAN_POINT('',(0.,0.,17.));
#416 = DIRECTION('',(0.,0.,1.));
#417 = DIRECTION('',(1.,0.,0.));
#418 = ( GEOMETRIC_REPRESENTATION_CONTEXT(3) 
GLOBAL_UNCERTAINTY_ASSIGNED_CONTEXT((#422)) GLOBAL_UNIT_ASSIGNED_CONTEXT
((#419,#420,#421)) REPRESENTATION_CONTEXT('Context #1',
  '3D Context with UNIT and UNCERTAINTY') );
#419 = ( LENGTH_UNIT() NAMED_UNIT(*) SI_UNIT(.MILLI.,.METRE.) );
#420 = ( NAMED_UNIT(*) PLANE_ANGLE_UNIT() SI_UNIT($,.RADIAN.) );
#421 = ( NAMED_UNIT(*) SI_UNIT($,.STERADIAN.) SOLID_ANGLE_UNIT() );
#422 = UNCERTAINTY_MEASURE_WITH_UNIT(LENGTH_MEASURE(1.E-07),#419,
  'distance_accuracy_value','confusion accuracy');
#423 = CONTEXT_DEPENDENT_SHAPE_REPRESENTATION(#424,#426);
#424 = ( REPRESENTATION_RELATIONSHIP('','',#364,#10) 
REPRESENTATION_RELATIONSHIP_WITH_TRANSFORMATION(#425) 
SHAPE_REPRESENTATION_RELATIONSHIP() );
#425 = ITEM_DEFINED_TRANSFORMATION('','',#11,#27);
#426 = PRODUCT_DEFINITION_SHAPE('Placement','Placement of an item',#427
  );
#427 = NEXT_ASSEMBLY_USAGE_OCCURRENCE('111','WIRE_FLY_R_3','',#5,#359,$
  );
#428 = PRODUCT_RELATED_PRODUCT_CATEGORY('part',$,(#361));
#429 = SHAPE_DEFINITION_REPRESENTATION(#430,#436);
#430 = PRODUCT_DEFINITION_SHAPE('','',#431);
#431 = PRODUCT_DEFINITION('design','',#432,#435);
#432 = PRODUCT_DEFINITION_FORMATION('','',#433);
#433 = PRODUCT('WIRE_FLY_R_4','WIRE_FLY_R_4','',(#434));
#434 = PRODUCT_CONTEXT('',#2,'mechanical');
#435 = PRODUCT_DEFINITION_CONTEXT('part definition',#2,'design');
#436 = ADVANCED_BREP_SHAPE_REPRESENTATION('',(#11,#437),#490);
#437 = MANIFOLD_SOLID_BREP('',#438);
#438 = CLOSED_SHELL('',(#439,#472,#481));
#439 = ADVANCED_FACE('',(#440),#467,.T.);
#440 = FACE_BOUND('',#441,.F.);
#441 = EDGE_LOOP('',(#442,#452,#459,#460));
#442 = ORIENTED_EDGE('',*,*,#443,.T.);
#443 = EDGE_CURVE('',#444,#446,#448,.T.);
#444 = VERTEX_POINT('',#445);
#445 = CARTESIAN_POINT('',(1.25,2.84217094304E-14,0.));
#446 = VERTEX_POINT('',#447);
#447 = CARTESIAN_POINT('',(1.25,2.84217094304E-14,19.874606914352));
#448 = LINE('',#449,#450);
#449 = CARTESIAN_POINT('',(1.25,-3.1E-16,0.));
#450 = VECTOR('',#451,1.);
#451 = DIRECTION('',(0.,0.,1.));
#452 = ORIENTED_EDGE('',*,*,#453,.T.);
#453 = EDGE_CURVE('',#446,#446,#454,.T.);
#454 = CIRCLE('',#455,1.25);
#455 = AXIS2_PLACEMENT_3D('',#456,#457,#458);
#456 = CARTESIAN_POINT('',(0.,0.,19.874606914352));
#457 = DIRECTION('',(0.,0.,1.));
#458 = DIRECTION('',(1.,0.,0.));
#459 = ORIENTED_EDGE('',*,*,#443,.F.);
#460 = ORIENTED_EDGE('',*,*,#461,.F.);
#461 = EDGE_CURVE('',#444,#444,#462,.T.);
#462 = CIRCLE('',#463,1.25);
#463 = AXIS2_PLACEMENT_3D('',#464,#465,#466);
#464 = CARTESIAN_POINT('',(0.,0.,0.));
#465 = DIRECTION('',(0.,0.,1.));
#466 = DIRECTION('',(1.,0.,-0.));
#467 = CYLINDRICAL_SURFACE('',#468,1.25);
#468 = AXIS2_PLACEMENT_3D('',#469,#470,#471);
#469 = CARTESIAN_POINT('',(0.,0.,0.));
#470 = DIRECTION('',(-0.,-0.,-1.));
#471 = DIRECTION('',(1.,0.,-0.));
#472 = ADVANCED_FACE('',(#473),#476,.F.);
#473 = FACE_BOUND('',#474,.T.);
#474 = EDGE_LOOP('',(#475));
#475 = ORIENTED_EDGE('',*,*,#461,.F.);
#476 = PLANE('',#477);
#477 = AXIS2_PLACEMENT_3D('',#478,#479,#480);
#478 = CARTESIAN_POINT('',(0.,0.,0.));
#479 = DIRECTION('',(0.,0.,1.));
#480 = DIRECTION('',(1.,0.,-0.));
#481 = ADVANCED_FACE('',(#482),#485,.T.);
#482 = FACE_BOUND('',#483,.F.);
#483 = EDGE_LOOP('',(#484));
#484 = ORIENTED_EDGE('',*,*,#453,.F.);
#485 = PLANE('',#486);
#486 = AXIS2_PLACEMENT_3D('',#487,#488,#489);
#487 = CARTESIAN_POINT('',(0.,0.,19.874606914352));
#488 = DIRECTION('',(0.,0.,1.));
#489 = DIRECTION('',(1.,0.,0.));
#490 = ( GEOMETRIC_REPRESENTATION_CONTEXT(3) 
GLOBAL_UNCERTAINTY_ASSIGNED_CONTEXT((#494)) GLOBAL_UNIT_ASSIGNED_CONTEXT
((#491,#492,#493)) REPRESENTATION_CONTEXT('Context #1',
  '3D Context with UNIT and UNCERTAINTY') );
#491 = ( LENGTH_UNIT() NAMED_UNIT(*) SI_UNIT(.MILLI.,.METRE.) );
#492 = ( NAMED_UNIT(*) PLANE_ANGLE_UNIT() SI_UNIT($,.RADIAN.) );
#493 = ( NAMED_UNIT(*) SI_UNIT($,.STERADIAN.) SOLID_ANGLE_UNIT() );
#494 = UNCERTAINTY_MEASURE_WITH_UNIT(LENGTH_MEASURE(1.E-07),#491,
  'distance_accuracy_value','confusion accuracy');
#495 = CONTEXT_DEPENDENT_SHAPE_REPRESENTATION(#496,#498);
#496 = ( REPRESENTATION_RELATIONSHIP('','',#436,#10) 
REPRESENTATION_RELATIONSHIP_WITH_TRANSFORMATION(#497) 
SHAPE_REPRESENTATION_RELATIONSHIP() );
#497 = ITEM_DEFINED_TRANSFORMATION('','',#11,#31);
#498 = PRODUCT_DEFINITION_SHAPE('Placement','Placement of an item',#499
  );
#499 = NEXT_ASSEMBLY_USAGE_OCCURRENCE('112','WIRE_FLY_R_4','',#5,#431,$
  );
#500 = PRODUCT_RELATED_PRODUCT_CATEGORY('part',$,(#433));
#501 = SHAPE_DEFINITION_REPRESENTATION(#502,#508);
#502 = PRODUCT_DEFINITION_SHAPE('','',#503);
#503 = PRODUCT_DEFINITION('design','',#504,#507);
#504 = PRODUCT_DEFINITION_FORMATION('','',#505);
#505 = PRODUCT('WIRE_FLY_R_5','WIRE_FLY_R_5','',(#506));
#506 = PRODUCT_CONTEXT('',#2,'mechanical');
#507 = PRODUCT_DEFINITION_CONTEXT('part definition',#2,'design');
#508 = ADVANCED_BREP_SHAPE_REPRESENTATION('',(#11,#509),#562);
#509 = MANIFOLD_SOLID_BREP('',#510);
#510 = CLOSED_SHELL('',(#511,#544,#553));
#511 = ADVANCED_FACE('',(#512),#539,.T.);
#512 = FACE_BOUND('',#513,.F.);
#513 = EDGE_LOOP('',(#514,#524,#531,#532));
#514 = ORIENTED_EDGE('',*,*,#515,.T.);
#515 = EDGE_CURVE('',#516,#518,#520,.T.);
#516 = VERTEX_POINT('',#517);
#517 = CARTESIAN_POINT('',(1.25,-2.84217094304E-14,0.));
#518 = VERTEX_POINT('',#519);
#519 = CARTESIAN_POINT('',(1.25,-2.84217094304E-14,7.874007874012));
#520 = LINE('',#521,#522);
#521 = CARTESIAN_POINT('',(1.25,-3.1E-16,0.));
#522 = VECTOR('',#523,1.);
#523 = DIRECTION('',(0.,0.,1.));
#524 = ORIENTED_EDGE('',*,*,#525,.T.);
#525 = EDGE_CURVE('',#518,#518,#526,.T.);
#526 = CIRCLE('',#527,1.25);
#527 = AXIS2_PLACEMENT_3D('',#528,#529,#530);
#528 = CARTESIAN_POINT('',(0.,0.,7.874007874012));
#529 = DIRECTION('',(0.,0.,1.));
#530 = DIRECTION('',(1.,0.,0.));
#531 = ORIENTED_EDGE('',*,*,#515,.F.);
#532 = ORIENTED_EDGE('',*,*,#533,.F.);
#533 = EDGE_CURVE('',#516,#516,#534,.T.);
#534 = CIRCLE('',#535,1.25);
#535 = AXIS2_PLACEMENT_3D('',#536,#537,#538);
#536 = CARTESIAN_POINT('',(0.,0.,0.));
#537 = DIRECTION('',(0.,0.,1.));
#538 = DIRECTION('',(1.,0.,-0.));
#539 = CYLINDRICAL_SURFACE('',#540,1.25);
#540 = AXIS2_PLACEMENT_3D('',#541,#542,#543);
#541 = CARTESIAN_POINT('',(0.,0.,0.));
#542 = DIRECTION('',(-0.,-0.,-1.));
#543 = DIRECTION('',(1.,0.,-0.));
#544 = ADVANCED_FACE('',(#545),#548,.F.);
#545 = FACE_BOUND('',#546,.T.);
#546 = EDGE_LOOP('',(#547));
#547 = ORIENTED_EDGE('',*,*,#533,.F.);
#548 = PLANE('',#549);
#549 = AXIS2_PLACEMENT_3D('',#550,#551,#552);
#550 = CARTESIAN_POINT('',(0.,0.,0.));
#551 = DIRECTION('',(0.,0.,1.));
#552 = DIRECTION('',(1.,0.,-0.));
#553 = ADVANCED_FACE('',(#554),#557,.T.);
#554 = FACE_BOUND('',#555,.F.);
#555 = EDGE_LOOP('',(#556));
#556 = ORIENTED_EDGE('',*,*,#525,.F.);
#557 = PLANE('',#558);
#558 = AXIS2_PLACEMENT_3D('',#559,#560,#561);
#559 = CARTESIAN_POINT('',(0.,0.,7.874007874012));
#560 = DIRECTION('',(0.,0.,1.));
#561 = DIRECTION('',(1.,0.,0.));
#562 = ( GEOMETRIC_REPRESENTATION_CONTEXT(3) 
GLOBAL_UNCERTAINTY_ASSIGNED_CONTEXT((#566)) GLOBAL_UNIT_ASSIGNED_CONTEXT
((#563,#564,#565)) REPRESENTATION_CONTEXT('Context #1',
  '3D Context with UNIT and UNCERTAINTY') );
#563 = ( LENGTH_UNIT() NAMED_UNIT(*) SI_UNIT(.MILLI.,.METRE.) );
#564 = ( NAMED_UNIT(*) PLANE_ANGLE_UNIT() SI_UNIT($,.RADIAN.) );
#565 = ( NAMED_UNIT(*) SI_UNIT($,.STERADIAN.) SOLID_ANGLE_UNIT() );
#566 = UNCERTAINTY_MEASURE_WITH_UNIT(LENGTH_MEASURE(1.E-07),#563,
  'distance_accuracy_value','confusion accuracy');
#567 = CONTEXT_DEPENDENT_SHAPE_REPRESENTATION(#568,#570);
#568 = ( REPRESENTATION_RELATIONSHIP('','',#508,#10) 
REPRESENTATION_RELATIONSHIP_WITH_TRANSFORMATION(#569) 
SHAPE_REPRESENTATION_RELATIONSHIP() );
#569 = ITEM_DEFINED_TRANSFORMATION('','',#11,#35);
#570 = PRODUCT_DEFINITION_SHAPE('Placement','Placement of an item',#571
  );
#571 = NEXT_ASSEMBLY_USAGE_OCCURRENCE('113','WIRE_FLY_R_5','',#5,#503,$
  );
#572 = PRODUCT_RELATED_PRODUCT_CATEGORY('part',$,(#505));
ENDSEC;
END-ISO-10303-21;
