ISO-10303-21;
HEADER;
FILE_DESCRIPTION(('FreeCAD Model'),'2;1');
FILE_NAME('Open CASCADE Shape Model','2026-09-30T03:00:20',('Author'),(
    ''),'Open CASCADE STEP processor 7.8','FreeCAD','Unknown');
FILE_SCHEMA(('AUTOMOTIVE_DESIGN { 1 0 10303 214 1 1 1 1 }'));
ENDSEC;
DATA;
#1 = APPLICATION_PROTOCOL_DEFINITION('international standard',
  'automotive_design',2000,#2);
#2 = APPLICATION_CONTEXT(
  'core data for automotive mechanical design processes');
#3 = SHAPE_DEFINITION_REPRESENTATION(#4,#10);
#4 = PRODUCT_DEFINITION_SHAPE('','',#5);
#5 = PRODUCT_DEFINITION('design','',#6,#9);
#6 = PRODUCT_DEFINITION_FORMATION('','',#7);
#7 = PRODUCT('master_robot','master_robot','',(#8));
#8 = PRODUCT_CONTEXT('',#2,'mechanical');
#9 = PRODUCT_DEFINITION_CONTEXT('part definition',#2,'design');
#10 = SHAPE_REPRESENTATION('',(#11,#15,#19,#23,#27,#31,#35,#39,#43),#47
  );
#11 = AXIS2_PLACEMENT_3D('',#12,#13,#14);
#12 = CARTESIAN_POINT('',(0.,0.,0.));
#13 = DIRECTION('',(0.,0.,1.));
#14 = DIRECTION('',(1.,0.,-0.));
#15 = AXIS2_PLACEMENT_3D('',#16,#17,#18);
#16 = CARTESIAN_POINT('',(0.,0.,0.));
#17 = DIRECTION('',(0.,0.,1.));
#18 = DIRECTION('',(1.,0.,0.));
#19 = AXIS2_PLACEMENT_3D('',#20,#21,#22);
#20 = CARTESIAN_POINT('',(60.,105.,60.));
#21 = DIRECTION('',(0.529812942826,-0.662266178533,0.529812942826));
#22 = DIRECTION('',(0.816512367932,0.229359540085,-0.529812942826));
#23 = AXIS2_PLACEMENT_3D('',#24,#25,#26);
#24 = CARTESIAN_POINT('',(80.,80.,80.));
#25 = DIRECTION('',(-0.301511344578,-0.904534033733,-0.301511344578));
#26 = DIRECTION('',(0.869848865542,-0.390453403373,0.301511344578));
#27 = AXIS2_PLACEMENT_3D('',#28,#29,#30);
#28 = CARTESIAN_POINT('',(60.,20.,60.));
#29 = DIRECTION('',(-0.240771706172,-0.963086824686,-0.120385853086));
#30 = DIRECTION('',(0.934094949818,-0.263620200726,0.240771706172));
#31 = AXIS2_PLACEMENT_3D('',#32,#33,#34);
#32 = CARTESIAN_POINT('',(40.,-60.,50.));
#33 = DIRECTION('',(-0.259259259259,-0.962962962963,7.407407407407E-02)
  );
#34 = DIRECTION('',(0.937420178799,-0.232439335888,0.259259259259));
#35 = AXIS2_PLACEMENT_3D('',#36,#37,#38);
#36 = CARTESIAN_POINT('',(26.,-112.,54.));
#37 = DIRECTION('',(-0.199888981396,-0.932815246514,-0.299833472094));
#38 = DIRECTION('',(0.94293414025,-0.266307345502,0.199888981396));
#39 = AXIS2_PLACEMENT_3D('',#40,#41,#42);
#40 = CARTESIAN_POINT('',(20.,-140.,45.));
#41 = DIRECTION('',(-0.424264068712,-0.905096679919,-2.828427124746E-02)
  );
#42 = DIRECTION('',(0.814760639687,-0.395177302001,0.424264068712));
#43 = AXIS2_PLACEMENT_3D('',#44,#45,#46);
#44 = CARTESIAN_POINT('',(5.,-172.,44.));
#45 = DIRECTION('',(-0.267261241912,-0.962140470885,5.345224838249E-02)
  );
#46 = DIRECTION('',(0.932195719798,-0.244095408727,0.267261241912));
#47 = ( GEOMETRIC_REPRESENTATION_CONTEXT(3) 
GLOBAL_UNCERTAINTY_ASSIGNED_CONTEXT((#51)) GLOBAL_UNIT_ASSIGNED_CONTEXT(
(#48,#49,#50)) REPRESENTATION_CONTEXT('Context #1',
  '3D Context with UNIT and UNCERTAINTY') );
#48 = ( LENGTH_UNIT() NAMED_UNIT(*) SI_UNIT(.MILLI.,.METRE.) );
#49 = ( NAMED_UNIT(*) PLANE_ANGLE_UNIT() SI_UNIT($,.RADIAN.) );
#50 = ( NAMED_UNIT(*) SI_UNIT($,.STERADIAN.) SOLID_ANGLE_UNIT() );
#51 = UNCERTAINTY_MEASURE_WITH_UNIT(LENGTH_MEASURE(2.E-05),#48,
  'distance_accuracy_value','confusion accuracy');
#52 = PRODUCT_RELATED_PRODUCT_CATEGORY('part',$,(#7));
#53 = SHAPE_DEFINITION_REPRESENTATION(#54,#60);
#54 = PRODUCT_DEFINITION_SHAPE('','',#55);
#55 = PRODUCT_DEFINITION('design','',#56,#59);
#56 = PRODUCT_DEFINITION_FORMATION('','',#57);
#57 = PRODUCT('WIRE_ENC_LAT_L_0','WIRE_ENC_LAT_L_0','',(#58));
#58 = PRODUCT_CONTEXT('',#2,'mechanical');
#59 = PRODUCT_DEFINITION_CONTEXT('part definition',#2,'design');
#60 = ADVANCED_BREP_SHAPE_REPRESENTATION('',(#11,#61),#200);
#61 = MANIFOLD_SOLID_BREP('',#62);
#62 = CLOSED_SHELL('',(#63,#123,#132,#166,#181,#191));
#63 = ADVANCED_FACE('',(#64),#118,.T.);
#64 = FACE_BOUND('',#65,.F.);
#65 = EDGE_LOOP('',(#66,#75,#83,#92,#101,#110,#117));
#66 = ORIENTED_EDGE('',*,*,#67,.F.);
#67 = EDGE_CURVE('',#68,#68,#70,.T.);
#68 = VERTEX_POINT('',#69);
#69 = CARTESIAN_POINT('',(42.75,107.6,20.));
#70 = CIRCLE('',#71,0.75);
#71 = AXIS2_PLACEMENT_3D('',#72,#73,#74);
#72 = CARTESIAN_POINT('',(42.,107.6,20.));
#73 = DIRECTION('',(0.,0.,1.));
#74 = DIRECTION('',(1.,0.,0.));
#75 = ORIENTED_EDGE('',*,*,#76,.T.);
#76 = EDGE_CURVE('',#68,#77,#79,.T.);
#77 = VERTEX_POINT('',#78);
#78 = CARTESIAN_POINT('',(42.75,107.6,31.780087391592));
#79 = LINE('',#80,#81);
#80 = CARTESIAN_POINT('',(42.75,107.6,20.));
#81 = VECTOR('',#82,1.);
#82 = DIRECTION('',(0.,0.,1.));
#83 = ORIENTED_EDGE('',*,*,#84,.F.);
#84 = EDGE_CURVE('',#85,#77,#87,.T.);
#85 = VERTEX_POINT('',#86);
#86 = CARTESIAN_POINT('',(42.107220571991,108.34229626763,32.));
#87 = ELLIPSE('',#88,0.78222156732,0.75);
#88 = AXIS2_PLACEMENT_3D('',#89,#90,#91);
#89 = CARTESIAN_POINT('',(42.,107.6,32.));
#90 = DIRECTION('',(-0.281138513173,4.060889634725E-02,-0.958807620927)
  );
#91 = DIRECTION('',(0.94895909119,-0.137071868727,-0.284056237481));
#92 = ORIENTED_EDGE('',*,*,#93,.T.);
#93 = EDGE_CURVE('',#85,#94,#96,.T.);
#94 = VERTEX_POINT('',#95);
#95 = CARTESIAN_POINT('',(41.892779428009,106.85770373236,32.));
#96 = CIRCLE('',#97,0.75);
#97 = AXIS2_PLACEMENT_3D('',#98,#99,#100);
#98 = CARTESIAN_POINT('',(42.,107.6,32.));
#99 = DIRECTION('',(0.,0.,1.));
#100 = DIRECTION('',(1.,0.,0.));
#101 = ORIENTED_EDGE('',*,*,#102,.F.);
#102 = EDGE_CURVE('',#103,#94,#105,.T.);
#103 = VERTEX_POINT('',#104);
#104 = CARTESIAN_POINT('',(42.742296267633,107.492779428,31.777805084711
    ));
#105 = ELLIPSE('',#106,0.78222156732,0.75);
#106 = AXIS2_PLACEMENT_3D('',#107,#108,#109);
#107 = CARTESIAN_POINT('',(42.,107.6,32.));
#108 = DIRECTION('',(-0.281138513173,4.060889634725E-02,-0.958807620927)
  );
#109 = DIRECTION('',(0.94895909119,-0.137071868727,-0.284056237481));
#110 = ORIENTED_EDGE('',*,*,#111,.F.);
#111 = EDGE_CURVE('',#77,#103,#112,.T.);
#112 = ELLIPSE('',#113,0.78222156732,0.75);
#113 = AXIS2_PLACEMENT_3D('',#114,#115,#116);
#114 = CARTESIAN_POINT('',(42.,107.6,32.));
#115 = DIRECTION('',(-0.281138513173,4.060889634725E-02,-0.958807620927)
  );
#116 = DIRECTION('',(0.94895909119,-0.137071868727,-0.284056237481));
#117 = ORIENTED_EDGE('',*,*,#76,.F.);
#118 = CYLINDRICAL_SURFACE('',#119,0.75);
#119 = AXIS2_PLACEMENT_3D('',#120,#121,#122);
#120 = CARTESIAN_POINT('',(42.,107.6,20.));
#121 = DIRECTION('',(-0.,-0.,-1.));
#122 = DIRECTION('',(1.,0.,0.));
#123 = ADVANCED_FACE('',(#124),#127,.F.);
#124 = FACE_BOUND('',#125,.T.);
#125 = EDGE_LOOP('',(#126));
#126 = ORIENTED_EDGE('',*,*,#67,.F.);
#127 = PLANE('',#128);
#128 = AXIS2_PLACEMENT_3D('',#129,#130,#131);
#129 = CARTESIAN_POINT('',(42.,107.6,20.));
#130 = DIRECTION('',(0.,0.,1.));
#131 = DIRECTION('',(1.,0.,0.));
#132 = ADVANCED_FACE('',(#133),#161,.T.);
#133 = FACE_BOUND('',#134,.F.);
#134 = EDGE_LOOP('',(#135,#136,#144,#151,#152,#153,#154));
#135 = ORIENTED_EDGE('',*,*,#84,.T.);
#136 = ORIENTED_EDGE('',*,*,#137,.T.);
#137 = EDGE_CURVE('',#77,#138,#140,.T.);
#138 = VERTEX_POINT('',#139);
#139 = CARTESIAN_POINT('',(60.631441704616,105.01712508711,
    59.59566337655));
#140 = LINE('',#141,#142);
#141 = CARTESIAN_POINT('',(42.631441704616,107.61712508711,
    31.59566337655));
#142 = VECTOR('',#143,1.);
#143 = DIRECTION('',(0.539115497933,-7.787223859038E-02,0.838624107896)
  );
#144 = ORIENTED_EDGE('',*,*,#145,.T.);
#145 = EDGE_CURVE('',#138,#138,#146,.T.);
#146 = CIRCLE('',#147,0.75);
#147 = AXIS2_PLACEMENT_3D('',#148,#149,#150);
#148 = CARTESIAN_POINT('',(60.,105.,60.));
#149 = DIRECTION('',(0.539115497933,-7.787223859038E-02,0.838624107896)
  );
#150 = DIRECTION('',(0.841922272821,2.283344948135E-02,-0.539115497933)
  );
#151 = ORIENTED_EDGE('',*,*,#137,.F.);
#152 = ORIENTED_EDGE('',*,*,#111,.T.);
#153 = ORIENTED_EDGE('',*,*,#102,.T.);
#154 = ORIENTED_EDGE('',*,*,#155,.F.);
#155 = EDGE_CURVE('',#85,#94,#156,.T.);
#156 = CIRCLE('',#157,0.75);
#157 = AXIS2_PLACEMENT_3D('',#158,#159,#160);
#158 = CARTESIAN_POINT('',(42.,107.6,32.));
#159 = DIRECTION('',(0.539115497933,-7.787223859038E-02,0.838624107896)
  );
#160 = DIRECTION('',(0.841922272821,2.283344948135E-02,-0.539115497933)
  );
#161 = CYLINDRICAL_SURFACE('',#162,0.75);
#162 = AXIS2_PLACEMENT_3D('',#163,#164,#165);
#163 = CARTESIAN_POINT('',(42.,107.6,32.));
#164 = DIRECTION('',(-0.539115497933,7.787223859038E-02,-0.838624107896)
  );
#165 = DIRECTION('',(0.841922272821,2.283344948135E-02,-0.539115497933)
  );
#166 = ADVANCED_FACE('',(#167),#176,.T.);
#167 = FACE_BOUND('',#168,.T.);
#168 = EDGE_LOOP('',(#169,#175));
#169 = ORIENTED_EDGE('',*,*,#170,.T.);
#170 = EDGE_CURVE('',#94,#85,#171,.T.);
#171 = LINE('',#172,#173);
#172 = CARTESIAN_POINT('',(42.,107.6,32.));
#173 = VECTOR('',#174,1.);
#174 = DIRECTION('',(0.142960762655,0.989728356844,-0.));
#175 = ORIENTED_EDGE('',*,*,#93,.T.);
#176 = PLANE('',#177);
#177 = AXIS2_PLACEMENT_3D('',#178,#179,#180);
#178 = CARTESIAN_POINT('',(42.,107.6,32.));
#179 = DIRECTION('',(0.,0.,1.));
#180 = DIRECTION('',(1.,0.,0.));
#181 = ADVANCED_FACE('',(#182),#186,.F.);
#182 = FACE_BOUND('',#183,.F.);
#183 = EDGE_LOOP('',(#184,#185));
#184 = ORIENTED_EDGE('',*,*,#170,.T.);
#185 = ORIENTED_EDGE('',*,*,#155,.T.);
#186 = PLANE('',#187);
#187 = AXIS2_PLACEMENT_3D('',#188,#189,#190);
#188 = CARTESIAN_POINT('',(42.,107.6,32.));
#189 = DIRECTION('',(0.539115497933,-7.787223859038E-02,0.838624107896)
  );
#190 = DIRECTION('',(0.841922272821,2.283344948135E-02,-0.539115497933)
  );
#191 = ADVANCED_FACE('',(#192),#195,.T.);
#192 = FACE_BOUND('',#193,.F.);
#193 = EDGE_LOOP('',(#194));
#194 = ORIENTED_EDGE('',*,*,#145,.F.);
#195 = PLANE('',#196);
#196 = AXIS2_PLACEMENT_3D('',#197,#198,#199);
#197 = CARTESIAN_POINT('',(60.,105.,60.));
#198 = DIRECTION('',(0.539115497933,-7.787223859038E-02,0.838624107896)
  );
#199 = DIRECTION('',(0.841922272821,2.283344948135E-02,-0.539115497933)
  );
#200 = ( GEOMETRIC_REPRESENTATION_CONTEXT(3) 
GLOBAL_UNCERTAINTY_ASSIGNED_CONTEXT((#204)) GLOBAL_UNIT_ASSIGNED_CONTEXT
((#201,#202,#203)) REPRESENTATION_CONTEXT('Context #1',
  '3D Context with UNIT and UNCERTAINTY') );
#201 = ( LENGTH_UNIT() NAMED_UNIT(*) SI_UNIT(.MILLI.,.METRE.) );
#202 = ( NAMED_UNIT(*) PLANE_ANGLE_UNIT() SI_UNIT($,.RADIAN.) );
#203 = ( NAMED_UNIT(*) SI_UNIT($,.STERADIAN.) SOLID_ANGLE_UNIT() );
#204 = UNCERTAINTY_MEASURE_WITH_UNIT(LENGTH_MEASURE(5.E-05),#201,
  'distance_accuracy_value','confusion accuracy');
#205 = CONTEXT_DEPENDENT_SHAPE_REPRESENTATION(#206,#208);
#206 = ( REPRESENTATION_RELATIONSHIP('','',#60,#10) 
REPRESENTATION_RELATIONSHIP_WITH_TRANSFORMATION(#207) 
SHAPE_REPRESENTATION_RELATIONSHIP() );
#207 = ITEM_DEFINED_TRANSFORMATION('','',#11,#15);
#208 = PRODUCT_DEFINITION_SHAPE('Placement','Placement of an item',#209
  );
#209 = NEXT_ASSEMBLY_USAGE_OCCURRENCE('56','WIRE_ENC_LAT_L_0','',#5,#55,
  $);
#210 = PRODUCT_RELATED_PRODUCT_CATEGORY('part',$,(#57));
#211 = SHAPE_DEFINITION_REPRESENTATION(#212,#218);
#212 = PRODUCT_DEFINITION_SHAPE('','',#213);
#213 = PRODUCT_DEFINITION('design','',#214,#217);
#214 = PRODUCT_DEFINITION_FORMATION('','',#215);
#215 = PRODUCT('WIRE_ENC_LAT_L_1','WIRE_ENC_LAT_L_1','',(#216));
#216 = PRODUCT_CONTEXT('',#2,'mechanical');
#217 = PRODUCT_DEFINITION_CONTEXT('part definition',#2,'design');
#218 = ADVANCED_BREP_SHAPE_REPRESENTATION('',(#11,#219),#272);
#219 = MANIFOLD_SOLID_BREP('',#220);
#220 = CLOSED_SHELL('',(#221,#254,#263));
#221 = ADVANCED_FACE('',(#222),#249,.T.);
#222 = FACE_BOUND('',#223,.F.);
#223 = EDGE_LOOP('',(#224,#234,#241,#242));
#224 = ORIENTED_EDGE('',*,*,#225,.T.);
#225 = EDGE_CURVE('',#226,#228,#230,.T.);
#226 = VERTEX_POINT('',#227);
#227 = CARTESIAN_POINT('',(0.75,-2.84217094304E-14,7.105427357601E-15));
#228 = VERTEX_POINT('',#229);
#229 = CARTESIAN_POINT('',(0.75,-2.84217094304E-14,37.749172176354));
#230 = LINE('',#231,#232);
#231 = CARTESIAN_POINT('',(0.75,-1.8E-16,0.));
#232 = VECTOR('',#233,1.);
#233 = DIRECTION('',(0.,0.,1.));
#234 = ORIENTED_EDGE('',*,*,#235,.T.);
#235 = EDGE_CURVE('',#228,#228,#236,.T.);
#236 = CIRCLE('',#237,0.75);
#237 = AXIS2_PLACEMENT_3D('',#238,#239,#240);
#238 = CARTESIAN_POINT('',(0.,0.,37.749172176354));
#239 = DIRECTION('',(0.,0.,1.));
#240 = DIRECTION('',(1.,0.,0.));
#241 = ORIENTED_EDGE('',*,*,#225,.F.);
#242 = ORIENTED_EDGE('',*,*,#243,.F.);
#243 = EDGE_CURVE('',#226,#226,#244,.T.);
#244 = CIRCLE('',#245,0.75);
#245 = AXIS2_PLACEMENT_3D('',#246,#247,#248);
#246 = CARTESIAN_POINT('',(0.,0.,0.));
#247 = DIRECTION('',(0.,0.,1.));
#248 = DIRECTION('',(1.,0.,-0.));
#249 = CYLINDRICAL_SURFACE('',#250,0.75);
#250 = AXIS2_PLACEMENT_3D('',#251,#252,#253);
#251 = CARTESIAN_POINT('',(0.,0.,0.));
#252 = DIRECTION('',(-0.,-0.,-1.));
#253 = DIRECTION('',(1.,0.,-0.));
#254 = ADVANCED_FACE('',(#255),#258,.F.);
#255 = FACE_BOUND('',#256,.T.);
#256 = EDGE_LOOP('',(#257));
#257 = ORIENTED_EDGE('',*,*,#243,.F.);
#258 = PLANE('',#259);
#259 = AXIS2_PLACEMENT_3D('',#260,#261,#262);
#260 = CARTESIAN_POINT('',(0.,0.,0.));
#261 = DIRECTION('',(0.,0.,1.));
#262 = DIRECTION('',(1.,0.,-0.));
#263 = ADVANCED_FACE('',(#264),#267,.T.);
#264 = FACE_BOUND('',#265,.F.);
#265 = EDGE_LOOP('',(#266));
#266 = ORIENTED_EDGE('',*,*,#235,.F.);
#267 = PLANE('',#268);
#268 = AXIS2_PLACEMENT_3D('',#269,#270,#271);
#269 = CARTESIAN_POINT('',(0.,0.,37.749172176354));
#270 = DIRECTION('',(0.,0.,1.));
#271 = DIRECTION('',(1.,0.,0.));
#272 = ( GEOMETRIC_REPRESENTATION_CONTEXT(3) 
GLOBAL_UNCERTAINTY_ASSIGNED_CONTEXT((#276)) GLOBAL_UNIT_ASSIGNED_CONTEXT
((#273,#274,#275)) REPRESENTATION_CONTEXT('Context #1',
  '3D Context with UNIT and UNCERTAINTY') );
#273 = ( LENGTH_UNIT() NAMED_UNIT(*) SI_UNIT(.MILLI.,.METRE.) );
#274 = ( NAMED_UNIT(*) PLANE_ANGLE_UNIT() SI_UNIT($,.RADIAN.) );
#275 = ( NAMED_UNIT(*) SI_UNIT($,.STERADIAN.) SOLID_ANGLE_UNIT() );
#276 = UNCERTAINTY_MEASURE_WITH_UNIT(LENGTH_MEASURE(1.E-07),#273,
  'distance_accuracy_value','confusion accuracy');
#277 = CONTEXT_DEPENDENT_SHAPE_REPRESENTATION(#278,#280);
#278 = ( REPRESENTATION_RELATIONSHIP('','',#218,#10) 
REPRESENTATION_RELATIONSHIP_WITH_TRANSFORMATION(#279) 
SHAPE_REPRESENTATION_RELATIONSHIP() );
#279 = ITEM_DEFINED_TRANSFORMATION('','',#11,#19);
#280 = PRODUCT_DEFINITION_SHAPE('Placement','Placement of an item',#281
  );
#281 = NEXT_ASSEMBLY_USAGE_OCCURRENCE('57','WIRE_ENC_LAT_L_1','',#5,#213
  ,$);
#282 = PRODUCT_RELATED_PRODUCT_CATEGORY('part',$,(#215));
#283 = SHAPE_DEFINITION_REPRESENTATION(#284,#290);
#284 = PRODUCT_DEFINITION_SHAPE('','',#285);
#285 = PRODUCT_DEFINITION('design','',#286,#289);
#286 = PRODUCT_DEFINITION_FORMATION('','',#287);
#287 = PRODUCT('WIRE_ENC_LAT_L_2','WIRE_ENC_LAT_L_2','',(#288));
#288 = PRODUCT_CONTEXT('',#2,'mechanical');
#289 = PRODUCT_DEFINITION_CONTEXT('part definition',#2,'design');
#290 = ADVANCED_BREP_SHAPE_REPRESENTATION('',(#11,#291),#344);
#291 = MANIFOLD_SOLID_BREP('',#292);
#292 = CLOSED_SHELL('',(#293,#326,#335));
#293 = ADVANCED_FACE('',(#294),#321,.T.);
#294 = FACE_BOUND('',#295,.F.);
#295 = EDGE_LOOP('',(#296,#306,#313,#314));
#296 = ORIENTED_EDGE('',*,*,#297,.T.);
#297 = EDGE_CURVE('',#298,#300,#302,.T.);
#298 = VERTEX_POINT('',#299);
#299 = CARTESIAN_POINT('',(0.75,0.,0.));
#300 = VERTEX_POINT('',#301);
#301 = CARTESIAN_POINT('',(0.75,-7.105427357601E-15,66.332495807108));
#302 = LINE('',#303,#304);
#303 = CARTESIAN_POINT('',(0.75,-1.8E-16,0.));
#304 = VECTOR('',#305,1.);
#305 = DIRECTION('',(0.,0.,1.));
#306 = ORIENTED_EDGE('',*,*,#307,.T.);
#307 = EDGE_CURVE('',#300,#300,#308,.T.);
#308 = CIRCLE('',#309,0.75);
#309 = AXIS2_PLACEMENT_3D('',#310,#311,#312);
#310 = CARTESIAN_POINT('',(0.,0.,66.332495807108));
#311 = DIRECTION('',(0.,0.,1.));
#312 = DIRECTION('',(1.,0.,0.));
#313 = ORIENTED_EDGE('',*,*,#297,.F.);
#314 = ORIENTED_EDGE('',*,*,#315,.F.);
#315 = EDGE_CURVE('',#298,#298,#316,.T.);
#316 = CIRCLE('',#317,0.75);
#317 = AXIS2_PLACEMENT_3D('',#318,#319,#320);
#318 = CARTESIAN_POINT('',(0.,0.,0.));
#319 = DIRECTION('',(0.,0.,1.));
#320 = DIRECTION('',(1.,0.,-0.));
#321 = CYLINDRICAL_SURFACE('',#322,0.75);
#322 = AXIS2_PLACEMENT_3D('',#323,#324,#325);
#323 = CARTESIAN_POINT('',(0.,0.,0.));
#324 = DIRECTION('',(-0.,-0.,-1.));
#325 = DIRECTION('',(1.,0.,-0.));
#326 = ADVANCED_FACE('',(#327),#330,.F.);
#327 = FACE_BOUND('',#328,.T.);
#328 = EDGE_LOOP('',(#329));
#329 = ORIENTED_EDGE('',*,*,#315,.F.);
#330 = PLANE('',#331);
#331 = AXIS2_PLACEMENT_3D('',#332,#333,#334);
#332 = CARTESIAN_POINT('',(0.,0.,0.));
#333 = DIRECTION('',(0.,0.,1.));
#334 = DIRECTION('',(1.,0.,-0.));
#335 = ADVANCED_FACE('',(#336),#339,.T.);
#336 = FACE_BOUND('',#337,.F.);
#337 = EDGE_LOOP('',(#338));
#338 = ORIENTED_EDGE('',*,*,#307,.F.);
#339 = PLANE('',#340);
#340 = AXIS2_PLACEMENT_3D('',#341,#342,#343);
#341 = CARTESIAN_POINT('',(0.,0.,66.332495807108));
#342 = DIRECTION('',(0.,0.,1.));
#343 = DIRECTION('',(1.,0.,0.));
#344 = ( GEOMETRIC_REPRESENTATION_CONTEXT(3) 
GLOBAL_UNCERTAINTY_ASSIGNED_CONTEXT((#348)) GLOBAL_UNIT_ASSIGNED_CONTEXT
((#345,#346,#347)) REPRESENTATION_CONTEXT('Context #1',
  '3D Context with UNIT and UNCERTAINTY') );
#345 = ( LENGTH_UNIT() NAMED_UNIT(*) SI_UNIT(.MILLI.,.METRE.) );
#346 = ( NAMED_UNIT(*) PLANE_ANGLE_UNIT() SI_UNIT($,.RADIAN.) );
#347 = ( NAMED_UNIT(*) SI_UNIT($,.STERADIAN.) SOLID_ANGLE_UNIT() );
#348 = UNCERTAINTY_MEASURE_WITH_UNIT(LENGTH_MEASURE(1.E-07),#345,
  'distance_accuracy_value','confusion accuracy');
#349 = CONTEXT_DEPENDENT_SHAPE_REPRESENTATION(#350,#352);
#350 = ( REPRESENTATION_RELATIONSHIP('','',#290,#10) 
REPRESENTATION_RELATIONSHIP_WITH_TRANSFORMATION(#351) 
SHAPE_REPRESENTATION_RELATIONSHIP() );
#351 = ITEM_DEFINED_TRANSFORMATION('','',#11,#23);
#352 = PRODUCT_DEFINITION_SHAPE('Placement','Placement of an item',#353
  );
#353 = NEXT_ASSEMBLY_USAGE_OCCURRENCE('58','WIRE_ENC_LAT_L_2','',#5,#285
  ,$);
#354 = PRODUCT_RELATED_PRODUCT_CATEGORY('part',$,(#287));
#355 = SHAPE_DEFINITION_REPRESENTATION(#356,#362);
#356 = PRODUCT_DEFINITION_SHAPE('','',#357);
#357 = PRODUCT_DEFINITION('design','',#358,#361);
#358 = PRODUCT_DEFINITION_FORMATION('','',#359);
#359 = PRODUCT('WIRE_ENC_LAT_L_3','WIRE_ENC_LAT_L_3','',(#360));
#360 = PRODUCT_CONTEXT('',#2,'mechanical');
#361 = PRODUCT_DEFINITION_CONTEXT('part definition',#2,'design');
#362 = ADVANCED_BREP_SHAPE_REPRESENTATION('',(#11,#363),#416);
#363 = MANIFOLD_SOLID_BREP('',#364);
#364 = CLOSED_SHELL('',(#365,#398,#407));
#365 = ADVANCED_FACE('',(#366),#393,.T.);
#366 = FACE_BOUND('',#367,.F.);
#367 = EDGE_LOOP('',(#368,#378,#385,#386));
#368 = ORIENTED_EDGE('',*,*,#369,.T.);
#369 = EDGE_CURVE('',#370,#372,#374,.T.);
#370 = VERTEX_POINT('',#371);
#371 = CARTESIAN_POINT('',(0.75,0.,0.));
#372 = VERTEX_POINT('',#373);
#373 = CARTESIAN_POINT('',(0.75,0.,83.066238629181));
#374 = LINE('',#375,#376);
#375 = CARTESIAN_POINT('',(0.75,-1.8E-16,0.));
#376 = VECTOR('',#377,1.);
#377 = DIRECTION('',(0.,0.,1.));
#378 = ORIENTED_EDGE('',*,*,#379,.T.);
#379 = EDGE_CURVE('',#372,#372,#380,.T.);
#380 = CIRCLE('',#381,0.75);
#381 = AXIS2_PLACEMENT_3D('',#382,#383,#384);
#382 = CARTESIAN_POINT('',(0.,0.,83.066238629181));
#383 = DIRECTION('',(0.,0.,1.));
#384 = DIRECTION('',(1.,0.,0.));
#385 = ORIENTED_EDGE('',*,*,#369,.F.);
#386 = ORIENTED_EDGE('',*,*,#387,.F.);
#387 = EDGE_CURVE('',#370,#370,#388,.T.);
#388 = CIRCLE('',#389,0.75);
#389 = AXIS2_PLACEMENT_3D('',#390,#391,#392);
#390 = CARTESIAN_POINT('',(0.,0.,0.));
#391 = DIRECTION('',(0.,0.,1.));
#392 = DIRECTION('',(1.,0.,-0.));
#393 = CYLINDRICAL_SURFACE('',#394,0.75);
#394 = AXIS2_PLACEMENT_3D('',#395,#396,#397);
#395 = CARTESIAN_POINT('',(0.,0.,0.));
#396 = DIRECTION('',(-0.,-0.,-1.));
#397 = DIRECTION('',(1.,0.,-0.));
#398 = ADVANCED_FACE('',(#399),#402,.F.);
#399 = FACE_BOUND('',#400,.T.);
#400 = EDGE_LOOP('',(#401));
#401 = ORIENTED_EDGE('',*,*,#387,.F.);
#402 = PLANE('',#403);
#403 = AXIS2_PLACEMENT_3D('',#404,#405,#406);
#404 = CARTESIAN_POINT('',(0.,0.,0.));
#405 = DIRECTION('',(0.,0.,1.));
#406 = DIRECTION('',(1.,0.,-0.));
#407 = ADVANCED_FACE('',(#408),#411,.T.);
#408 = FACE_BOUND('',#409,.F.);
#409 = EDGE_LOOP('',(#410));
#410 = ORIENTED_EDGE('',*,*,#379,.F.);
#411 = PLANE('',#412);
#412 = AXIS2_PLACEMENT_3D('',#413,#414,#415);
#413 = CARTESIAN_POINT('',(0.,0.,83.066238629181));
#414 = DIRECTION('',(0.,0.,1.));
#415 = DIRECTION('',(1.,0.,0.));
#416 = ( GEOMETRIC_REPRESENTATION_CONTEXT(3) 
GLOBAL_UNCERTAINTY_ASSIGNED_CONTEXT((#420)) GLOBAL_UNIT_ASSIGNED_CONTEXT
((#417,#418,#419)) REPRESENTATION_CONTEXT('Context #1',
  '3D Context with UNIT and UNCERTAINTY') );
#417 = ( LENGTH_UNIT() NAMED_UNIT(*) SI_UNIT(.MILLI.,.METRE.) );
#418 = ( NAMED_UNIT(*) PLANE_ANGLE_UNIT() SI_UNIT($,.RADIAN.) );
#419 = ( NAMED_UNIT(*) SI_UNIT($,.STERADIAN.) SOLID_ANGLE_UNIT() );
#420 = UNCERTAINTY_MEASURE_WITH_UNIT(LENGTH_MEASURE(1.E-07),#417,
  'distance_accuracy_value','confusion accuracy');
#421 = CONTEXT_DEPENDENT_SHAPE_REPRESENTATION(#422,#424);
#422 = ( REPRESENTATION_RELATIONSHIP('','',#362,#10) 
REPRESENTATION_RELATIONSHIP_WITH_TRANSFORMATION(#423) 
SHAPE_REPRESENTATION_RELATIONSHIP() );
#423 = ITEM_DEFINED_TRANSFORMATION('','',#11,#27);
#424 = PRODUCT_DEFINITION_SHAPE('Placement','Placement of an item',#425
  );
#425 = NEXT_ASSEMBLY_USAGE_OCCURRENCE('59','WIRE_ENC_LAT_L_3','',#5,#357
  ,$);
#426 = PRODUCT_RELATED_PRODUCT_CATEGORY('part',$,(#359));
#427 = SHAPE_DEFINITION_REPRESENTATION(#428,#434);
#428 = PRODUCT_DEFINITION_SHAPE('','',#429);
#429 = PRODUCT_DEFINITION('design','',#430,#433);
#430 = PRODUCT_DEFINITION_FORMATION('','',#431);
#431 = PRODUCT('WIRE_ENC_LAT_L_4','WIRE_ENC_LAT_L_4','',(#432));
#432 = PRODUCT_CONTEXT('',#2,'mechanical');
#433 = PRODUCT_DEFINITION_CONTEXT('part definition',#2,'design');
#434 = ADVANCED_BREP_SHAPE_REPRESENTATION('',(#11,#435),#488);
#435 = MANIFOLD_SOLID_BREP('',#436);
#436 = CLOSED_SHELL('',(#437,#470,#479));
#437 = ADVANCED_FACE('',(#438),#465,.T.);
#438 = FACE_BOUND('',#439,.F.);
#439 = EDGE_LOOP('',(#440,#450,#457,#458));
#440 = ORIENTED_EDGE('',*,*,#441,.T.);
#441 = EDGE_CURVE('',#442,#444,#446,.T.);
#442 = VERTEX_POINT('',#443);
#443 = CARTESIAN_POINT('',(0.75,0.,-7.105427357601E-15));
#444 = VERTEX_POINT('',#445);
#445 = CARTESIAN_POINT('',(0.75,-7.105427357601E-15,54.));
#446 = LINE('',#447,#448);
#447 = CARTESIAN_POINT('',(0.75,-1.8E-16,0.));
#448 = VECTOR('',#449,1.);
#449 = DIRECTION('',(0.,0.,1.));
#450 = ORIENTED_EDGE('',*,*,#451,.T.);
#451 = EDGE_CURVE('',#444,#444,#452,.T.);
#452 = CIRCLE('',#453,0.75);
#453 = AXIS2_PLACEMENT_3D('',#454,#455,#456);
#454 = CARTESIAN_POINT('',(0.,0.,54.));
#455 = DIRECTION('',(0.,0.,1.));
#456 = DIRECTION('',(1.,0.,0.));
#457 = ORIENTED_EDGE('',*,*,#441,.F.);
#458 = ORIENTED_EDGE('',*,*,#459,.F.);
#459 = EDGE_CURVE('',#442,#442,#460,.T.);
#460 = CIRCLE('',#461,0.75);
#461 = AXIS2_PLACEMENT_3D('',#462,#463,#464);
#462 = CARTESIAN_POINT('',(0.,0.,0.));
#463 = DIRECTION('',(0.,0.,1.));
#464 = DIRECTION('',(1.,0.,-0.));
#465 = CYLINDRICAL_SURFACE('',#466,0.75);
#466 = AXIS2_PLACEMENT_3D('',#467,#468,#469);
#467 = CARTESIAN_POINT('',(0.,0.,0.));
#468 = DIRECTION('',(-0.,-0.,-1.));
#469 = DIRECTION('',(1.,0.,-0.));
#470 = ADVANCED_FACE('',(#471),#474,.F.);
#471 = FACE_BOUND('',#472,.T.);
#472 = EDGE_LOOP('',(#473));
#473 = ORIENTED_EDGE('',*,*,#459,.F.);
#474 = PLANE('',#475);
#475 = AXIS2_PLACEMENT_3D('',#476,#477,#478);
#476 = CARTESIAN_POINT('',(0.,0.,0.));
#477 = DIRECTION('',(0.,0.,1.));
#478 = DIRECTION('',(1.,0.,-0.));
#479 = ADVANCED_FACE('',(#480),#483,.T.);
#480 = FACE_BOUND('',#481,.F.);
#481 = EDGE_LOOP('',(#482));
#482 = ORIENTED_EDGE('',*,*,#451,.F.);
#483 = PLANE('',#484);
#484 = AXIS2_PLACEMENT_3D('',#485,#486,#487);
#485 = CARTESIAN_POINT('',(0.,0.,54.));
#486 = DIRECTION('',(0.,0.,1.));
#487 = DIRECTION('',(1.,0.,0.));
#488 = ( GEOMETRIC_REPRESENTATION_CONTEXT(3) 
GLOBAL_UNCERTAINTY_ASSIGNED_CONTEXT((#492)) GLOBAL_UNIT_ASSIGNED_CONTEXT
((#489,#490,#491)) REPRESENTATION_CONTEXT('Context #1',
  '3D Context with UNIT and UNCERTAINTY') );
#489 = ( LENGTH_UNIT() NAMED_UNIT(*) SI_UNIT(.MILLI.,.METRE.) );
#490 = ( NAMED_UNIT(*) PLANE_ANGLE_UNIT() SI_UNIT($,.RADIAN.) );
#491 = ( NAMED_UNIT(*) SI_UNIT($,.STERADIAN.) SOLID_ANGLE_UNIT() );
#492 = UNCERTAINTY_MEASURE_WITH_UNIT(LENGTH_MEASURE(1.E-07),#489,
  'distance_accuracy_value','confusion accuracy');
#493 = CONTEXT_DEPENDENT_SHAPE_REPRESENTATION(#494,#496);
#494 = ( REPRESENTATION_RELATIONSHIP('','',#434,#10) 
REPRESENTATION_RELATIONSHIP_WITH_TRANSFORMATION(#495) 
SHAPE_REPRESENTATION_RELATIONSHIP() );
#495 = ITEM_DEFINED_TRANSFORMATION('','',#11,#31);
#496 = PRODUCT_DEFINITION_SHAPE('Placement','Placement of an item',#497
  );
#497 = NEXT_ASSEMBLY_USAGE_OCCURRENCE('60','WIRE_ENC_LAT_L_4','',#5,#429
  ,$);
#498 = PRODUCT_RELATED_PRODUCT_CATEGORY('part',$,(#431));
#499 = SHAPE_DEFINITION_REPRESENTATION(#500,#506);
#500 = PRODUCT_DEFINITION_SHAPE('','',#501);
#501 = PRODUCT_DEFINITION('design','',#502,#505);
#502 = PRODUCT_DEFINITION_FORMATION('','',#503);
#503 = PRODUCT('WIRE_ENC_LAT_L_5','WIRE_ENC_LAT_L_5','',(#504));
#504 = PRODUCT_CONTEXT('',#2,'mechanical');
#505 = PRODUCT_DEFINITION_CONTEXT('part definition',#2,'design');
#506 = ADVANCED_BREP_SHAPE_REPRESENTATION('',(#11,#507),#560);
#507 = MANIFOLD_SOLID_BREP('',#508);
#508 = CLOSED_SHELL('',(#509,#542,#551));
#509 = ADVANCED_FACE('',(#510),#537,.T.);
#510 = FACE_BOUND('',#511,.F.);
#511 = EDGE_LOOP('',(#512,#522,#529,#530));
#512 = ORIENTED_EDGE('',*,*,#513,.T.);
#513 = EDGE_CURVE('',#514,#516,#518,.T.);
#514 = VERTEX_POINT('',#515);
#515 = CARTESIAN_POINT('',(0.75,-1.42108547152E-14,0.));
#516 = VERTEX_POINT('',#517);
#517 = CARTESIAN_POINT('',(0.75,0.,30.016662039607));
#518 = LINE('',#519,#520);
#519 = CARTESIAN_POINT('',(0.75,-1.8E-16,0.));
#520 = VECTOR('',#521,1.);
#521 = DIRECTION('',(0.,0.,1.));
#522 = ORIENTED_EDGE('',*,*,#523,.T.);
#523 = EDGE_CURVE('',#516,#516,#524,.T.);
#524 = CIRCLE('',#525,0.75);
#525 = AXIS2_PLACEMENT_3D('',#526,#527,#528);
#526 = CARTESIAN_POINT('',(0.,0.,30.016662039607));
#527 = DIRECTION('',(0.,0.,1.));
#528 = DIRECTION('',(1.,0.,0.));
#529 = ORIENTED_EDGE('',*,*,#513,.F.);
#530 = ORIENTED_EDGE('',*,*,#531,.F.);
#531 = EDGE_CURVE('',#514,#514,#532,.T.);
#532 = CIRCLE('',#533,0.75);
#533 = AXIS2_PLACEMENT_3D('',#534,#535,#536);
#534 = CARTESIAN_POINT('',(0.,0.,0.));
#535 = DIRECTION('',(0.,0.,1.));
#536 = DIRECTION('',(1.,0.,-0.));
#537 = CYLINDRICAL_SURFACE('',#538,0.75);
#538 = AXIS2_PLACEMENT_3D('',#539,#540,#541);
#539 = CARTESIAN_POINT('',(0.,0.,0.));
#540 = DIRECTION('',(-0.,-0.,-1.));
#541 = DIRECTION('',(1.,0.,-0.));
#542 = ADVANCED_FACE('',(#543),#546,.F.);
#543 = FACE_BOUND('',#544,.T.);
#544 = EDGE_LOOP('',(#545));
#545 = ORIENTED_EDGE('',*,*,#531,.F.);
#546 = PLANE('',#547);
#547 = AXIS2_PLACEMENT_3D('',#548,#549,#550);
#548 = CARTESIAN_POINT('',(0.,0.,0.));
#549 = DIRECTION('',(0.,0.,1.));
#550 = DIRECTION('',(1.,0.,-0.));
#551 = ADVANCED_FACE('',(#552),#555,.T.);
#552 = FACE_BOUND('',#553,.F.);
#553 = EDGE_LOOP('',(#554));
#554 = ORIENTED_EDGE('',*,*,#523,.F.);
#555 = PLANE('',#556);
#556 = AXIS2_PLACEMENT_3D('',#557,#558,#559);
#557 = CARTESIAN_POINT('',(0.,0.,30.016662039607));
#558 = DIRECTION('',(0.,0.,1.));
#559 = DIRECTION('',(1.,0.,0.));
#560 = ( GEOMETRIC_REPRESENTATION_CONTEXT(3) 
GLOBAL_UNCERTAINTY_ASSIGNED_CONTEXT((#564)) GLOBAL_UNIT_ASSIGNED_CONTEXT
((#561,#562,#563)) REPRESENTATION_CONTEXT('Context #1',
  '3D Context with UNIT and UNCERTAINTY') );
#561 = ( LENGTH_UNIT() NAMED_UNIT(*) SI_UNIT(.MILLI.,.METRE.) );
#562 = ( NAMED_UNIT(*) PLANE_ANGLE_UNIT() SI_UNIT($,.RADIAN.) );
#563 = ( NAMED_UNIT(*) SI_UNIT($,.STERADIAN.) SOLID_ANGLE_UNIT() );
#564 = UNCERTAINTY_MEASURE_WITH_UNIT(LENGTH_MEASURE(1.E-07),#561,
  'distance_accuracy_value','confusion accuracy');
#565 = CONTEXT_DEPENDENT_SHAPE_REPRESENTATION(#566,#568);
#566 = ( REPRESENTATION_RELATIONSHIP('','',#506,#10) 
REPRESENTATION_RELATIONSHIP_WITH_TRANSFORMATION(#567) 
SHAPE_REPRESENTATION_RELATIONSHIP() );
#567 = ITEM_DEFINED_TRANSFORMATION('','',#11,#35);
#568 = PRODUCT_DEFINITION_SHAPE('Placement','Placement of an item',#569
  );
#569 = NEXT_ASSEMBLY_USAGE_OCCURRENCE('61','WIRE_ENC_LAT_L_5','',#5,#501
  ,$);
#570 = PRODUCT_RELATED_PRODUCT_CATEGORY('part',$,(#503));
#571 = SHAPE_DEFINITION_REPRESENTATION(#572,#578);
#572 = PRODUCT_DEFINITION_SHAPE('','',#573);
#573 = PRODUCT_DEFINITION('design','',#574,#577);
#574 = PRODUCT_DEFINITION_FORMATION('','',#575);
#575 = PRODUCT('WIRE_ENC_LAT_L_6','WIRE_ENC_LAT_L_6','',(#576));
#576 = PRODUCT_CONTEXT('',#2,'mechanical');
#577 = PRODUCT_DEFINITION_CONTEXT('part definition',#2,'design');
#578 = ADVANCED_BREP_SHAPE_REPRESENTATION('',(#11,#579),#632);
#579 = MANIFOLD_SOLID_BREP('',#580);
#580 = CLOSED_SHELL('',(#581,#614,#623));
#581 = ADVANCED_FACE('',(#582),#609,.T.);
#582 = FACE_BOUND('',#583,.F.);
#583 = EDGE_LOOP('',(#584,#594,#601,#602));
#584 = ORIENTED_EDGE('',*,*,#585,.T.);
#585 = EDGE_CURVE('',#586,#588,#590,.T.);
#586 = VERTEX_POINT('',#587);
#587 = CARTESIAN_POINT('',(0.75,-3.552713678801E-15,0.));
#588 = VERTEX_POINT('',#589);
#589 = CARTESIAN_POINT('',(0.75,3.552713678801E-15,35.355339059327));
#590 = LINE('',#591,#592);
#591 = CARTESIAN_POINT('',(0.75,-1.8E-16,0.));
#592 = VECTOR('',#593,1.);
#593 = DIRECTION('',(0.,0.,1.));
#594 = ORIENTED_EDGE('',*,*,#595,.T.);
#595 = EDGE_CURVE('',#588,#588,#596,.T.);
#596 = CIRCLE('',#597,0.75);
#597 = AXIS2_PLACEMENT_3D('',#598,#599,#600);
#598 = CARTESIAN_POINT('',(0.,0.,35.355339059327));
#599 = DIRECTION('',(0.,0.,1.));
#600 = DIRECTION('',(1.,0.,0.));
#601 = ORIENTED_EDGE('',*,*,#585,.F.);
#602 = ORIENTED_EDGE('',*,*,#603,.F.);
#603 = EDGE_CURVE('',#586,#586,#604,.T.);
#604 = CIRCLE('',#605,0.75);
#605 = AXIS2_PLACEMENT_3D('',#606,#607,#608);
#606 = CARTESIAN_POINT('',(0.,0.,0.));
#607 = DIRECTION('',(0.,0.,1.));
#608 = DIRECTION('',(1.,0.,-0.));
#609 = CYLINDRICAL_SURFACE('',#610,0.75);
#610 = AXIS2_PLACEMENT_3D('',#611,#612,#613);
#611 = CARTESIAN_POINT('',(0.,0.,0.));
#612 = DIRECTION('',(-0.,-0.,-1.));
#613 = DIRECTION('',(1.,0.,-0.));
#614 = ADVANCED_FACE('',(#615),#618,.F.);
#615 = FACE_BOUND('',#616,.T.);
#616 = EDGE_LOOP('',(#617));
#617 = ORIENTED_EDGE('',*,*,#603,.F.);
#618 = PLANE('',#619);
#619 = AXIS2_PLACEMENT_3D('',#620,#621,#622);
#620 = CARTESIAN_POINT('',(0.,0.,0.));
#621 = DIRECTION('',(0.,0.,1.));
#622 = DIRECTION('',(1.,0.,-0.));
#623 = ADVANCED_FACE('',(#624),#627,.T.);
#624 = FACE_BOUND('',#625,.F.);
#625 = EDGE_LOOP('',(#626));
#626 = ORIENTED_EDGE('',*,*,#595,.F.);
#627 = PLANE('',#628);
#628 = AXIS2_PLACEMENT_3D('',#629,#630,#631);
#629 = CARTESIAN_POINT('',(0.,0.,35.355339059327));
#630 = DIRECTION('',(0.,0.,1.));
#631 = DIRECTION('',(1.,0.,0.));
#632 = ( GEOMETRIC_REPRESENTATION_CONTEXT(3) 
GLOBAL_UNCERTAINTY_ASSIGNED_CONTEXT((#636)) GLOBAL_UNIT_ASSIGNED_CONTEXT
((#633,#634,#635)) REPRESENTATION_CONTEXT('Context #1',
  '3D Context with UNIT and UNCERTAINTY') );
#633 = ( LENGTH_UNIT() NAMED_UNIT(*) SI_UNIT(.MILLI.,.METRE.) );
#634 = ( NAMED_UNIT(*) PLANE_ANGLE_UNIT() SI_UNIT($,.RADIAN.) );
#635 = ( NAMED_UNIT(*) SI_UNIT($,.STERADIAN.) SOLID_ANGLE_UNIT() );
#636 = UNCERTAINTY_MEASURE_WITH_UNIT(LENGTH_MEASURE(1.E-07),#633,
  'distance_accuracy_value','confusion accuracy');
#637 = CONTEXT_DEPENDENT_SHAPE_REPRESENTATION(#638,#640);
#638 = ( REPRESENTATION_RELATIONSHIP('','',#578,#10) 
REPRESENTATION_RELATIONSHIP_WITH_TRANSFORMATION(#639) 
SHAPE_REPRESENTATION_RELATIONSHIP() );
#639 = ITEM_DEFINED_TRANSFORMATION('','',#11,#39);
#640 = PRODUCT_DEFINITION_SHAPE('Placement','Placement of an item',#641
  );
#641 = NEXT_ASSEMBLY_USAGE_OCCURRENCE('62','WIRE_ENC_LAT_L_6','',#5,#573
  ,$);
#642 = PRODUCT_RELATED_PRODUCT_CATEGORY('part',$,(#575));
#643 = SHAPE_DEFINITION_REPRESENTATION(#644,#650);
#644 = PRODUCT_DEFINITION_SHAPE('','',#645);
#645 = PRODUCT_DEFINITION('design','',#646,#649);
#646 = PRODUCT_DEFINITION_FORMATION('','',#647);
#647 = PRODUCT('WIRE_ENC_LAT_L_7','WIRE_ENC_LAT_L_7','',(#648));
#648 = PRODUCT_CONTEXT('',#2,'mechanical');
#649 = PRODUCT_DEFINITION_CONTEXT('part definition',#2,'design');
#650 = ADVANCED_BREP_SHAPE_REPRESENTATION('',(#11,#651),#704);
#651 = MANIFOLD_SOLID_BREP('',#652);
#652 = CLOSED_SHELL('',(#653,#686,#695));
#653 = ADVANCED_FACE('',(#654),#681,.T.);
#654 = FACE_BOUND('',#655,.F.);
#655 = EDGE_LOOP('',(#656,#666,#673,#674));
#656 = ORIENTED_EDGE('',*,*,#657,.T.);
#657 = EDGE_CURVE('',#658,#660,#662,.T.);
#658 = VERTEX_POINT('',#659);
#659 = CARTESIAN_POINT('',(0.75,0.,2.84217094304E-14));
#660 = VERTEX_POINT('',#661);
#661 = CARTESIAN_POINT('',(0.75,3.552713678801E-15,18.70828693387));
#662 = LINE('',#663,#664);
#663 = CARTESIAN_POINT('',(0.75,-1.8E-16,0.));
#664 = VECTOR('',#665,1.);
#665 = DIRECTION('',(0.,0.,1.));
#666 = ORIENTED_EDGE('',*,*,#667,.T.);
#667 = EDGE_CURVE('',#660,#660,#668,.T.);
#668 = CIRCLE('',#669,0.75);
#669 = AXIS2_PLACEMENT_3D('',#670,#671,#672);
#670 = CARTESIAN_POINT('',(0.,0.,18.70828693387));
#671 = DIRECTION('',(0.,0.,1.));
#672 = DIRECTION('',(1.,0.,0.));
#673 = ORIENTED_EDGE('',*,*,#657,.F.);
#674 = ORIENTED_EDGE('',*,*,#675,.F.);
#675 = EDGE_CURVE('',#658,#658,#676,.T.);
#676 = CIRCLE('',#677,0.75);
#677 = AXIS2_PLACEMENT_3D('',#678,#679,#680);
#678 = CARTESIAN_POINT('',(0.,0.,0.));
#679 = DIRECTION('',(0.,0.,1.));
#680 = DIRECTION('',(1.,0.,-0.));
#681 = CYLINDRICAL_SURFACE('',#682,0.75);
#682 = AXIS2_PLACEMENT_3D('',#683,#684,#685);
#683 = CARTESIAN_POINT('',(0.,0.,0.));
#684 = DIRECTION('',(-0.,-0.,-1.));
#685 = DIRECTION('',(1.,0.,-0.));
#686 = ADVANCED_FACE('',(#687),#690,.F.);
#687 = FACE_BOUND('',#688,.T.);
#688 = EDGE_LOOP('',(#689));
#689 = ORIENTED_EDGE('',*,*,#675,.F.);
#690 = PLANE('',#691);
#691 = AXIS2_PLACEMENT_3D('',#692,#693,#694);
#692 = CARTESIAN_POINT('',(0.,0.,0.));
#693 = DIRECTION('',(0.,0.,1.));
#694 = DIRECTION('',(1.,0.,-0.));
#695 = ADVANCED_FACE('',(#696),#699,.T.);
#696 = FACE_BOUND('',#697,.F.);
#697 = EDGE_LOOP('',(#698));
#698 = ORIENTED_EDGE('',*,*,#667,.F.);
#699 = PLANE('',#700);
#700 = AXIS2_PLACEMENT_3D('',#701,#702,#703);
#701 = CARTESIAN_POINT('',(0.,0.,18.70828693387));
#702 = DIRECTION('',(0.,0.,1.));
#703 = DIRECTION('',(1.,0.,0.));
#704 = ( GEOMETRIC_REPRESENTATION_CONTEXT(3) 
GLOBAL_UNCERTAINTY_ASSIGNED_CONTEXT((#708)) GLOBAL_UNIT_ASSIGNED_CONTEXT
((#705,#706,#707)) REPRESENTATION_CONTEXT('Context #1',
  '3D Context with UNIT and UNCERTAINTY') );
#705 = ( LENGTH_UNIT() NAMED_UNIT(*) SI_UNIT(.MILLI.,.METRE.) );
#706 = ( NAMED_UNIT(*) PLANE_ANGLE_UNIT() SI_UNIT($,.RADIAN.) );
#707 = ( NAMED_UNIT(*) SI_UNIT($,.STERADIAN.) SOLID_ANGLE_UNIT() );
#708 = UNCERTAINTY_MEASURE_WITH_UNIT(LENGTH_MEASURE(1.E-07),#705,
  'distance_accuracy_value','confusion accuracy');
#709 = CONTEXT_DEPENDENT_SHAPE_REPRESENTATION(#710,#712);
#710 = ( REPRESENTATION_RELATIONSHIP('','',#650,#10) 
REPRESENTATION_RELATIONSHIP_WITH_TRANSFORMATION(#711) 
SHAPE_REPRESENTATION_RELATIONSHIP() );
#711 = ITEM_DEFINED_TRANSFORMATION('','',#11,#43);
#712 = PRODUCT_DEFINITION_SHAPE('Placement','Placement of an item',#713
  );
#713 = NEXT_ASSEMBLY_USAGE_OCCURRENCE('63','WIRE_ENC_LAT_L_7','',#5,#645
  ,$);
#714 = PRODUCT_RELATED_PRODUCT_CATEGORY('part',$,(#647));
ENDSEC;
END-ISO-10303-21;
