<?xml version="1.0" encoding="UTF-8"?><svg xmlns="http://www.w3.org/2000/svg" width="297mm" height="210mm" viewBox="0 0 297 210"><rect x="0" y="0" width="297" height="210" fill="#ffffff"/><rect x="6" y="6" width="285" height="198" fill="none" stroke="#000" stroke-width="0.5"/><g transform="translate(92.50 123.00) scale(0.4000 -0.4000)"><g fill="none" stroke="#000000" stroke-opacity="1" stroke-width="0.7" stroke-linecap="butt" stroke-linejoin="miter" stroke-miterlimit="4">
<path id= "1" d=" M -82.5 55 L -82.5 38 " />
<path id= "2" d=" M -82.5 55 L -51.1775 55 " />
<path d="M-41.3 53.9 A5 5 0 1 0 -51.1775 55" /><path d="M-41.4225 55 A5 5 0 0 0 -41.3 53.9" /><path id= "5" d=" M -41.4225 55 L -6.41652 55 " />
<path d="M-3.3 53 A2.2 2.2 0 1 0 -6.41652 55" /><path d="M-4.58348 55 A2.2 2.2 0 0 0 -3.3 53" /><path id= "8" d=" M -4.58348 55 L 8.54041 55 " />
<path d="M12.7 54 A2.2 2.2 0 1 0 8.54041 55" /><path d="M12.4596 55 A2.2 2.2 0 0 0 12.7 54" /><path id= "11" d=" M 12.4596 55 L 69.5835 55 " />
<path d="M72.7 53 A2.2 2.2 0 1 0 69.5835 55" /><path d="M71.4165 55 A2.2 2.2 0 0 0 72.7 53" /><path id= "14" d=" M 71.4165 55 L 82.5 55 " />
<path id= "15" d=" M 82.5 55 L 82.5 -55 " />
<path id= "16" d=" M -19.3 -55 L 82.5 -55 " />
<path d="M-23.7 -55 A2.2 2.2 0 0 0 -19.3 -55" /><path id= "18" d=" M -53.3 -55 L -23.7 -55 " />
<path d="M-57.7 -55 A2.2 2.2 0 0 0 -53.3 -55" /><path id= "20" d=" M -82.5 -55 L -57.7 -55 " />
<path id= "21" d=" M -82.5 31 L -82.5 -55 " />
<path id= "22" d=" M -82.5 31 L 9.5 31 " />
<path id= "23" d=" M 9.5 31 L 9.5 38 " />
<path id= "24" d=" M -82.5 38 L 9.5 38 " />
<circle cx ="-51.5" cy ="3.2" r ="1.7" /><circle cx ="-35.5" cy ="3.2" r ="1.7" /><circle cx ="-5.5" cy ="45" r ="2.2" /><circle cx ="-51.5" cy ="-14.8" r ="1.7" /><circle cx ="-46.3" cy ="-5.8" r ="8.5" /><circle cx ="-35.5" cy ="-14.8" r ="1.7" /><circle cx ="-55.5" cy ="-43" r ="2.2" /><circle cx ="-39.5" cy ="-49" r ="4.5" /><circle cx ="-21.5" cy ="-43" r ="2.2" /><circle cx ="50.5" cy ="38" r ="2.2" /><circle cx ="70.5" cy ="45" r ="2.2" /><circle cx ="47.5" cy ="19.4" r ="2.2" /><circle cx ="47.5" cy ="-0.6" r ="2.2" /><circle cx ="65.5" cy ="19.4" r ="2.2" /><circle cx ="56.5" cy ="9.4" r ="8" /><circle cx ="65.5" cy ="-0.6" r ="2.2" /></g>
<g fill="none" stroke="#000000" stroke-opacity="1" stroke-width="0.35" stroke-dasharray="2.4 1.2" stroke-linecap="butt" stroke-linejoin="miter" stroke-miterlimit="4">
<path id= "1" d=" M -82.5 55 L -82.5 38 " />
<path id= "2" d=" M -82.5 38 L 9.5 38 " />
<path id= "3" d=" M -82.5 55 L -51.1775 55 " />
<path d="M-51.1775 55 A5 5 0 1 1 -41.3 53.9" /><path d="M-41.3 53.9 A5 5 0 0 1 -41.4225 55" /><path id= "6" d=" M -41.4225 55 L -6.41652 55 " />
<path d="M-6.41652 55 A2.2 2.2 0 1 1 -3.3 53" /><path d="M-3.3 53 A2.2 2.2 0 0 1 -4.58348 55" /><path id= "9" d=" M -4.58348 55 L 8.54041 55 " />
<path d="M8.54041 55 A2.2 2.2 0 1 1 12.7 54" /><path d="M12.7 54 A2.2 2.2 0 0 1 12.4596 55" /><path id= "12" d=" M 12.4596 55 L 69.5835 55 " />
<path d="M69.5835 55 A2.2 2.2 0 1 1 72.7 53" /><path d="M72.7 53 A2.2 2.2 0 0 1 71.4165 55" /><path id= "15" d=" M 71.4165 55 L 82.5 55 " />
<path id= "16" d=" M 82.5 55 L 82.5 -55 " />
<path id= "17" d=" M -19.3 -55 L 82.5 -55 " />
<path d="M-19.3 -55 A2.2 2.2 0 0 1 -23.7 -55" /><path id= "19" d=" M -53.3 -55 L -23.7 -55 " />
<path d="M-53.3 -55 A2.2 2.2 0 0 1 -57.7 -55" /><path id= "21" d=" M -82.5 -55 L -57.7 -55 " />
<path id= "22" d=" M -82.5 31 L -82.5 -55 " />
<path id= "23" d=" M -82.5 31 L 9.5 31 " />
<path id= "24" d=" M 9.5 31 L 9.5 38 " />
<circle cx ="-51.5" cy ="3.2" r ="1.7" /><circle cx ="-35.5" cy ="3.2" r ="1.7" /><circle cx ="-5.5" cy ="45" r ="2.2" /><circle cx ="-51.5" cy ="-14.8" r ="1.7" /><circle cx ="-46.3" cy ="-5.8" r ="8.5" /><circle cx ="-35.5" cy ="-14.8" r ="1.7" /><circle cx ="-55.5" cy ="-43" r ="2.2" /><circle cx ="-39.5" cy ="-49" r ="4.5" /><circle cx ="-21.5" cy ="-43" r ="2.2" /><circle cx ="50.5" cy ="38" r ="2.2" /><circle cx ="70.5" cy ="45" r ="2.2" /><circle cx ="47.5" cy ="19.4" r ="2.2" /><circle cx ="47.5" cy ="-0.6" r ="2.2" /><circle cx ="65.5" cy ="19.4" r ="2.2" /><circle cx ="56.5" cy ="9.4" r ="8" /><circle cx ="65.5" cy ="-0.6" r ="2.2" /></g>
</g><line x1="59.50" y1="152.20" x2="125.50" y2="152.20" stroke="#1a5276" stroke-width="0.25"/><path d="M 59.50 152.20 L 61.10 151.65 L 61.10 152.75 z" fill="#1a5276"/><path d="M 125.50 152.20 L 123.90 151.65 L 123.90 152.75 z" fill="#1a5276"/><text x="92.50" y="151.30" font-size="3.2" fill="#1a5276" text-anchor="middle" font-family="sans-serif">165</text><line x1="51.30" y1="101.00" x2="51.30" y2="145.00" stroke="#1a5276" stroke-width="0.25"/><path d="M 51.30 101.00 L 50.75 102.60 L 51.85 102.60 z" fill="#1a5276"/><path d="M 51.30 145.00 L 50.75 143.40 L 51.85 143.40 z" fill="#1a5276"/><text x="50.40" y="123.00" font-size="3.2" fill="#1a5276" text-anchor="middle" font-family="sans-serif" transform="rotate(-90 50.40 123.00)">110</text><text x="92.5" y="157.4" font-size="3.4" font-family="sans-serif" fill="#000" text-anchor="middle">FRONT</text><g transform="translate(92.50 47.00) scale(0.4000 -0.4000)"><g fill="none" stroke="#000000" stroke-opacity="1" stroke-width="0.7" stroke-linecap="butt" stroke-linejoin="miter" stroke-miterlimit="4">
<path id= "1" d=" M -19.3 1.5 L 82.5 1.5 " />
<path d="M-23.7, 1.5 L-23.6448, 1.5  L-23.4821, 1.5  L-23.22, 1.5  L-22.8717, 1.5  L-22.4545, 1.5  L-21.9895, 1.5  L-21.5, 1.5  L-21.0105, 1.5  L-20.5455, 1.5  L-20.1283, 1.5  L-19.78, 1.5  L-19.5179, 1.5  L-19.3552, 1.5  L-19.3, 1.5 " /><path id= "3" d=" M -53.3 1.5 L -23.7 1.5 " />
<path d="M-57.7, 1.5 L-57.6448, 1.5  L-57.4821, 1.5  L-57.22, 1.5  L-56.8717, 1.5  L-56.4545, 1.5  L-55.9895, 1.5  L-55.5, 1.5  L-55.0105, 1.5  L-54.5455, 1.5  L-54.1283, 1.5  L-53.78, 1.5  L-53.5179, 1.5  L-53.3552, 1.5  L-53.3, 1.5 " /><path id= "5" d=" M -82.5 1.5 L -57.7 1.5 " />
<path id= "6" d=" M -19.3 -1.5 L 82.5 -1.5 " />
<path d="M-19.3, -1.5 L-19.3552, -1.5  L-19.5179, -1.5  L-19.78, -1.5  L-20.1283, -1.5  L-20.5455, -1.5  L-21.0105, -1.5  L-21.5, -1.5  L-21.9895, -1.5  L-22.4545, -1.5  L-22.8717, -1.5  L-23.22, -1.5  L-23.4821, -1.5  L-23.6448, -1.5  L-23.7, -1.5 " /><path id= "8" d=" M -53.3 -1.5 L -23.7 -1.5 " />
<path d="M-53.3, -1.5 L-53.3552, -1.5  L-53.5179, -1.5  L-53.78, -1.5  L-54.1283, -1.5  L-54.5455, -1.5  L-55.0105, -1.5  L-55.5, -1.5  L-55.9895, -1.5  L-56.4545, -1.5  L-56.8717, -1.5  L-57.22, -1.5  L-57.4821, -1.5  L-57.6448, -1.5  L-57.7, -1.5 " /><path id= "10" d=" M -82.5 -1.5 L -57.7 -1.5 " />
<path id= "11" d=" M 82.5 1.5 L 82.5 -1.5 " />
<path id= "12" d=" M -19.3 1.5 L -19.3 -1.5 " />
<path id= "13" d=" M -23.7 -1.5 L -23.7 1.5 " />
<path id= "14" d=" M -53.3 1.5 L -53.3 -1.5 " />
<path id= "15" d=" M -57.7 -1.5 L -57.7 1.5 " />
<path id= "16" d=" M -82.5 1.5 L -82.5 -1.5 " />
</g>
<g fill="none" stroke="#000000" stroke-opacity="1" stroke-width="0.35" stroke-dasharray="2.4 1.2" stroke-linecap="butt" stroke-linejoin="miter" stroke-miterlimit="4">
<path id= "1" d=" M -82.5 1.5 L -82.5 -1.5 " />
<path id= "2" d=" M -82.5 1.5 L -82.5 -1.5 " />
<path id= "3" d=" M -82.5 1.5 L -51.1775 1.5 " />
<path d="M-41.3, 1.5 L-41.4254, 1.5  L-41.7952, 1.5  L-42.3908, 1.5  L-43.1826, 1.5  L-44.1306, 1.5  L-45.1874, 1.5  L-46.3, 1.5  L-47.4126, 1.5  L-48.4694, 1.5  L-49.4174, 1.5  L-50.2092, 1.5  L-50.8048, 1.5  L-51.1746, 1.5  L-51.3, 1.5 " /><path d="M-51.3, 1.5 Q-51.2995, 1.5 -51.1775, 1.5 " /><path d="M-41.4225, 1.5 Q-41.3005, 1.5 -41.3, 1.5 " /><path id= "7" d=" M -41.4225 1.5 L -6.41652 1.5 " />
<path d="M-3.3, 1.5 L-3.35516, 1.5  L-3.51787, 1.5  L-3.77997, 1.5  L-4.12832, 1.5  L-4.54546, 1.5  L-5.01045, 1.5  L-5.5, 1.5  L-5.98955, 1.5  L-8.77954, 1.5 " /><path d="M-7.7, 1.5 Q-7.69635, 1.5 -7.6927, 1.5  Q-7.68177, 1.5 -7.67083, 1.5  Q-7.6527, 1.5 -7.63456, 1.5  Q-7.60933, 1.5 -7.58411, 1.5  Q-7.55197, 1.5 -7.51982, 1.5  Q-7.48097, 1.5 -7.44212, 1.5  Q-7.39683, 1.5 -7.35153, 1.5  Q-7.30009, 1.5 -7.24864, 1.5  Q-7.1914, 1.5 -7.13415, 1.5  Q-7.07147, 1.5 -7.0088, 1.5  Q-6.94112, 1.5 -6.87343, 1.5  Q-6.80119, 1.5 -6.72895, 1.5  Q-6.57831, 1.5 -6.41652, 1.5 " /><path d="M-4.58348, 1.5 Q-4.42169, 1.5 -4.27105, 1.5  Q-4.19881, 1.5 -4.12657, 1.5  Q-4.05888, 1.5 -3.9912, 1.5  Q-3.92853, 1.5 -3.86585, 1.5  Q-3.8086, 1.5 -3.75136, 1.5  Q-3.69991, 1.5 -3.64847, 1.5  Q-3.60317, 1.5 -3.55788, 1.5  Q-3.51903, 1.5 -3.48018, 1.5  Q-3.44803, 1.5 -3.41589, 1.5  Q-3.39067, 1.5 -3.36544, 1.5  Q-3.3473, 1.5 -3.32917, 1.5  Q-3.31823, 1.5 -3.3073, 1.5  Q-3.30365, 1.5 -3.3, 1.5 " /><path id= "11" d=" M -4.58348 1.5 L 8.54041 1.5 " />
<path d="M12.7, 1.5 L12.6448, 1.5  L12.4821, 1.5  L12.22, 1.5  L11.8717, 1.5  L11.4545, 1.5  L10.9895, 1.5  L10.5, 1.5  L10.0105, 1.5  L9.54546, 1.5  L9.12832, 1.5  L8.77997, 1.5  L7.99366, 1.5 " /><path d="M8.3, 1.5 Q8.30229, 1.5 8.54041, 1.5 " /><path d="M12.4596, 1.5 Q12.6977, 1.5 12.7, 1.5 " /><path id= "15" d=" M 12.4596 1.5 L 69.5835 1.5 " />
<path d="M72.7, 1.5 L72.6448, 1.5  L72.4821, 1.5  L72.22, 1.5  L71.8717, 1.5  L71.4545, 1.5  L70.9895, 1.5  L70.5, 1.5  L70.0105, 1.5  L67.2205, 1.5 " /><path d="M68.3, 1.5 L68.3073, 1.5  L68.3292, 1.5  L68.3654, 1.5  L68.4159, 1.5  L68.4802, 1.5  L68.5579, 1.5  L68.6485, 1.5  L68.7514, 1.5  L68.8659, 1.5  L68.9912, 1.5  L69.1266, 1.5  L69.271, 1.5  L69.4237, 1.5  L69.5835, 1.5 " /><path d="M71.4165, 1.5 Q71.5783, 1.5 71.729, 1.5  Q71.8012, 1.5 71.8734, 1.5  Q71.9411, 1.5 72.0088, 1.5  Q72.0715, 1.5 72.1341, 1.5  Q72.1914, 1.5 72.2486, 1.5  Q72.3001, 1.5 72.3515, 1.5  Q72.3968, 1.5 72.4421, 1.5  Q72.481, 1.5 72.5198, 1.5  Q72.552, 1.5 72.5841, 1.5  Q72.6093, 1.5 72.6346, 1.5  Q72.6527, 1.5 72.6708, 1.5  Q72.6818, 1.5 72.6927, 1.5  Q72.6963, 1.5 72.7, 1.5 " /><path id= "19" d=" M 71.4165 1.5 L 82.5 1.5 " />
<path id= "20" d=" M -82.5 1.5 L 9.5 1.5 " />
<path id= "21" d=" M -82.5 1.5 L 9.5 1.5 " />
<path d="M-49.8, 1.5 L-49.8426, 1.5  L-49.9684, 1.5  L-50.1709, 1.5  L-50.4401, 1.5  L-50.7624, 1.5  L-51.1217, 1.5  L-51.5, 1.5  L-51.8783, 1.5  L-52.2376, 1.5  L-52.5599, 1.5  L-52.8291, 1.5  L-53.0316, 1.5  L-53.1574, 1.5  L-53.2, 1.5 " /><path d="M-53.2, 1.5 L-53.1574, 1.5  L-53.0316, 1.5  L-52.8291, 1.5  L-52.5599, 1.5  L-52.2376, 1.5  L-51.8783, 1.5  L-51.5, 1.5  L-51.1217, 1.5  L-50.7624, 1.5  L-50.4401, 1.5  L-50.1709, 1.5  L-49.9684, 1.5  L-49.8426, 1.5  L-49.8, 1.5 " /><path d="M-33.8, 1.5 L-33.8426, 1.5  L-33.9684, 1.5  L-34.1709, 1.5  L-34.4401, 1.5  L-34.7624, 1.5  L-35.1217, 1.5  L-35.5, 1.5  L-35.8783, 1.5  L-36.2376, 1.5  L-36.5599, 1.5  L-36.8291, 1.5  L-37.0316, 1.5  L-37.1574, 1.5  L-37.2, 1.5 " /><path d="M-37.2, 1.5 L-37.1574, 1.5  L-37.0316, 1.5  L-36.8291, 1.5  L-36.5599, 1.5  L-36.2376, 1.5  L-35.8783, 1.5  L-35.5, 1.5  L-35.1217, 1.5  L-34.7624, 1.5  L-34.4401, 1.5  L-34.1709, 1.5  L-33.9684, 1.5  L-33.8426, 1.5  L-33.8, 1.5 " /><path d="M-3.3, 1.5 L-3.35516, 1.5  L-3.51787, 1.5  L-3.77997, 1.5  L-4.12832, 1.5  L-4.54546, 1.5  L-5.01045, 1.5  L-5.5, 1.5  L-5.98955, 1.5  L-6.45454, 1.5  L-6.87168, 1.5  L-7.22003, 1.5  L-7.48213, 1.5  L-7.64484, 1.5  L-7.7, 1.5 " /><path d="M-7.7, 1.5 L-7.64484, 1.5  L-7.48213, 1.5  L-7.22003, 1.5  L-6.87168, 1.5  L-6.45454, 1.5  L-5.98955, 1.5  L-5.5, 1.5  L-5.01045, 1.5  L-4.54546, 1.5  L-4.12832, 1.5  L-3.77997, 1.5  L-3.51787, 1.5  L-3.35516, 1.5  L-3.3, 1.5 " /><path d="M-49.8, 1.5 L-49.8426, 1.5  L-49.9684, 1.5  L-50.1709, 1.5  L-50.4401, 1.5  L-50.7624, 1.5  L-51.1217, 1.5  L-51.5, 1.5  L-51.8783, 1.5  L-52.2376, 1.5  L-52.5599, 1.5  L-52.8291, 1.5  L-53.0316, 1.5  L-53.1574, 1.5  L-53.2, 1.5 " /><path d="M-53.2, 1.5 L-53.1574, 1.5  L-53.0316, 1.5  L-52.8291, 1.5  L-52.5599, 1.5  L-52.2376, 1.5  L-51.8783, 1.5  L-51.5, 1.5  L-51.1217, 1.5  L-50.7624, 1.5  L-50.4401, 1.5  L-50.1709, 1.5  L-49.9684, 1.5  L-49.8426, 1.5  L-49.8, 1.5 " /><path d="M-37.8, 1.5 L-38.0131, 1.5  L-38.6418, 1.5  L-39.6544, 1.5  L-41.0003, 1.5  L-42.612, 1.5  L-44.4086, 1.5  L-46.3, 1.5  L-48.1914, 1.5  L-49.988, 1.5  L-51.5997, 1.5  L-52.9456, 1.5  L-53.9582, 1.5  L-54.5869, 1.5  L-54.8, 1.5 " /><path d="M-54.8, 1.5 L-54.5869, 1.5  L-53.9582, 1.5  L-52.9456, 1.5  L-51.5997, 1.5  L-49.988, 1.5  L-48.1914, 1.5  L-46.3, 1.5  L-44.4086, 1.5  L-42.612, 1.5  L-41.0003, 1.5  L-39.6544, 1.5  L-38.6418, 1.5  L-38.0131, 1.5  L-37.8, 1.5 " /><path d="M-33.8, 1.5 L-33.8426, 1.5  L-33.9684, 1.5  L-34.1709, 1.5  L-34.4401, 1.5  L-34.7624, 1.5  L-35.1217, 1.5  L-35.5, 1.5  L-35.8783, 1.5  L-36.2376, 1.5  L-36.5599, 1.5  L-36.8291, 1.5  L-37.0316, 1.5  L-37.1574, 1.5  L-37.2, 1.5 " /><path d="M-37.2, 1.5 L-37.1574, 1.5  L-37.0316, 1.5  L-36.8291, 1.5  L-36.5599, 1.5  L-36.2376, 1.5  L-35.8783, 1.5  L-35.5, 1.5  L-35.1217, 1.5  L-34.7624, 1.5  L-34.4401, 1.5  L-34.1709, 1.5  L-33.9684, 1.5  L-33.8426, 1.5  L-33.8, 1.5 " /><path d="M-53.3, 1.5 L-53.3552, 1.5  L-53.5179, 1.5  L-53.78, 1.5  L-54.1283, 1.5  L-54.5455, 1.5  L-55.0105, 1.5  L-55.5, 1.5  L-55.9895, 1.5  L-56.4545, 1.5  L-56.8717, 1.5  L-57.22, 1.5  L-57.4821, 1.5  L-57.6448, 1.5  L-57.7, 1.5 " /><path d="M-57.7, 1.5 L-57.6448, 1.5  L-57.4821, 1.5  L-57.22, 1.5  L-56.8717, 1.5  L-56.4545, 1.5  L-55.9895, 1.5  L-55.5, 1.5  L-55.0105, 1.5  L-54.5455, 1.5  L-54.1283, 1.5  L-53.78, 1.5  L-53.5179, 1.5  L-53.3552, 1.5  L-53.3, 1.5 " /><path d="M-35, 1.5 L-35.1128, 1.5  L-35.4456, 1.5  L-35.9818, 1.5  L-36.6943, 1.5  L-37.5475, 1.5  L-38.4987, 1.5  L-39.5, 1.5  L-40.5013, 1.5  L-41.4525, 1.5  L-42.3057, 1.5  L-43.0182, 1.5  L-43.5544, 1.5  L-43.8872, 1.5  L-44, 1.5 " /><path d="M-44, 1.5 L-43.8872, 1.5  L-43.5544, 1.5  L-43.0182, 1.5  L-42.3057, 1.5  L-41.4525, 1.5  L-40.5013, 1.5  L-39.5, 1.5  L-38.4987, 1.5  L-37.5475, 1.5  L-36.6943, 1.5  L-35.9818, 1.5  L-35.4456, 1.5  L-35.1128, 1.5  L-35, 1.5 " /><path d="M-19.3, 1.5 L-19.3552, 1.5  L-19.5179, 1.5  L-19.78, 1.5  L-20.1283, 1.5  L-20.5455, 1.5  L-21.0105, 1.5  L-21.5, 1.5  L-21.9895, 1.5  L-22.4545, 1.5  L-22.8717, 1.5  L-23.22, 1.5  L-23.4821, 1.5  L-23.6448, 1.5  L-23.7, 1.5 " /><path d="M-23.7, 1.5 L-23.6448, 1.5  L-23.4821, 1.5  L-23.22, 1.5  L-22.8717, 1.5  L-22.4545, 1.5  L-21.9895, 1.5  L-21.5, 1.5  L-21.0105, 1.5  L-20.5455, 1.5  L-20.1283, 1.5  L-19.78, 1.5  L-19.5179, 1.5  L-19.3552, 1.5  L-19.3, 1.5 " /><path d="M52.7, 1.5 L52.6448, 1.5  L52.4821, 1.5  L52.22, 1.5  L51.8717, 1.5  L51.4545, 1.5  L50.9895, 1.5  L50.5, 1.5  L50.0105, 1.5  L47.2205, 1.5 " /><path d="M48.3, 1.5 L48.3552, 1.5  L48.5179, 1.5  L48.78, 1.5  L49.1283, 1.5  L49.5455, 1.5  L50.0105, 1.5  L50.5, 1.5  L50.9895, 1.5  L51.4545, 1.5  L51.8717, 1.5  L52.22, 1.5  L52.4821, 1.5  L52.6448, 1.5  L52.7, 1.5 " /><path d="M73.7795, 1.5 L70.9895, 1.5  L70.5, 1.5  L70.0105, 1.5  L69.5455, 1.5  L69.1283, 1.5  L68.78, 1.5  L68.5179, 1.5  L68.3552, 1.5  L68.3, 1.5 " /><path d="M68.3, 1.5 L68.3552, 1.5  L68.5179, 1.5  L68.78, 1.5  L69.1283, 1.5  L69.5455, 1.5  L70.0105, 1.5  L70.5, 1.5  L70.9895, 1.5  L71.4545, 1.5  L71.8717, 1.5  L72.22, 1.5  L72.4821, 1.5  L72.6448, 1.5  L72.7, 1.5 " /><path d="M50.7795, 1.5 L47.9895, 1.5  L47.5, 1.5  L47.0105, 1.5  L46.5455, 1.5  L46.1283, 1.5  L45.78, 1.5  L45.5179, 1.5  L45.3552, 1.5  L45.3, 1.5 " /><path d="M45.3, 1.5 L45.3552, 1.5  L45.5179, 1.5  L45.78, 1.5  L46.1283, 1.5  L46.5455, 1.5  L47.0105, 1.5  L47.5, 1.5  L47.9895, 1.5  L48.4545, 1.5  L50.5402, 1.5 " /><path d="M49.7, 1.5 L49.6448, 1.5  L49.4821, 1.5  L49.22, 1.5  L48.8717, 1.5  L48.4545, 1.5  L47.9895, 1.5  L47.5, 1.5  L47.0105, 1.5  L46.5455, 1.5  L46.1283, 1.5  L45.78, 1.5  L45.5179, 1.5  L45.3552, 1.5  L45.3, 1.5 " /><path d="M45.3, 1.5 L45.3552, 1.5  L45.5179, 1.5  L45.78, 1.5  L46.1283, 1.5  L46.5455, 1.5  L47.0105, 1.5  L47.5, 1.5  L47.9895, 1.5  L48.4545, 1.5  L48.8717, 1.5  L49.22, 1.5  L49.4821, 1.5  L49.6448, 1.5  L49.7, 1.5 " /><path d="M67.7, 1.5 L67.6448, 1.5  L67.4821, 1.5  L67.22, 1.5  L66.8717, 1.5  L66.4545, 1.5  L65.9895, 1.5  L65.5, 1.5  L65.0105, 1.5  L64.5455, 1.5  L62.4598, 1.5 " /><path d="M63.3, 1.5 L63.3552, 1.5  L63.5179, 1.5  L63.78, 1.5  L64.1283, 1.5  L64.5455, 1.5  L65.0105, 1.5  L65.5, 1.5  L65.9895, 1.5  L66.4545, 1.5  L66.8717, 1.5  L67.22, 1.5  L67.4821, 1.5  L67.6448, 1.5  L67.7, 1.5 " /><path d="M64.5, 1.5 L64.2994, 1.5  L63.7078, 1.5  L62.7547, 1.5  L61.4879, 1.5  L59.9711, 1.5  L58.2802, 1.5  L56.5, 1.5  L54.7198, 1.5  L53.0289, 1.5  L51.5121, 1.5  L50.2453, 1.5  L47.3861, 1.5 " /><path d="M48.5, 1.5 L48.7006, 1.5  L49.2922, 1.5  L50.2453, 1.5  L51.5121, 1.5  L53.0289, 1.5  L54.7198, 1.5  L56.5, 1.5  L58.2802, 1.5  L59.9711, 1.5  L61.4879, 1.5  L62.7547, 1.5  L65.6139, 1.5 " /><path d="M67.7, 1.5 L67.6448, 1.5  L67.4821, 1.5  L67.22, 1.5  L66.8717, 1.5  L66.4545, 1.5  L65.9895, 1.5  L65.5, 1.5  L65.0105, 1.5  L64.5455, 1.5  L64.1283, 1.5  L63.78, 1.5  L63.5179, 1.5  L63.3552, 1.5  L63.3, 1.5 " /><path d="M63.3, 1.5 L63.3552, 1.5  L63.5179, 1.5  L63.78, 1.5  L64.1283, 1.5  L64.5455, 1.5  L65.0105, 1.5  L65.5, 1.5  L65.9895, 1.5  L66.4545, 1.5  L66.8717, 1.5  L67.22, 1.5  L67.4821, 1.5  L67.6448, 1.5  L67.7, 1.5 " /><path id= "54" d=" M -82.5 -1.5 L 9.5 -1.5 " />
<path id= "55" d=" M 9.5 1.5 L 9.5 -1.5 " />
<path id= "56" d=" M -82.5 -1.5 L -51.1775 -1.5 " />
<path d="M-51.1775, -1.5 Q-51.2995, -1.5 -51.3, -1.5 " /><path d="M-51.3, -1.5 L-51.1746, -1.5  L-50.8048, -1.5  L-50.2092, -1.5  L-49.4174, -1.5  L-48.4694, -1.5  L-47.4126, -1.5  L-46.3, -1.5  L-45.1874, -1.5  L-44.1306, -1.5  L-43.1826, -1.5  L-42.3908, -1.5  L-41.7952, -1.5  L-41.4254, -1.5  L-41.3, -1.5 " /><path d="M-41.3, -1.5 Q-41.3005, -1.5 -41.4225, -1.5 " /><path id= "60" d=" M -41.4225 -1.5 L -6.41652 -1.5 " />
<path d="M-6.41652, -1.5 Q-6.57831, -1.5 -6.72895, -1.5  Q-6.80119, -1.5 -6.87343, -1.5  Q-6.94112, -1.5 -7.0088, -1.5  Q-7.07147, -1.5 -7.13415, -1.5  Q-7.1914, -1.5 -7.24864, -1.5  Q-7.30009, -1.5 -7.35153, -1.5  Q-7.39683, -1.5 -7.44212, -1.5  Q-7.48097, -1.5 -7.51982, -1.5  Q-7.55197, -1.5 -7.58411, -1.5  Q-7.60933, -1.5 -7.63456, -1.5  Q-7.6527, -1.5 -7.67083, -1.5  Q-7.68177, -1.5 -7.6927, -1.5  Q-7.69635, -1.5 -7.7, -1.5 " /><path d="M-7.7, -1.5 L-7.64484, -1.5  L-7.48213, -1.5  L-7.22003, -1.5  L-6.87168, -1.5  L-6.45454, -1.5  L-5.98955, -1.5  L-5.5, -1.5  L-5.01045, -1.5  L-4.54546, -1.5  L-4.12832, -1.5  L-3.77997, -1.5  L-3.51787, -1.5  L-3.35516, -1.5  L-3.3, -1.5 " /><path d="M-3.3, -1.5 Q-3.30365, -1.5 -3.3073, -1.5  Q-3.31823, -1.5 -3.32917, -1.5  Q-3.3473, -1.5 -3.36544, -1.5  Q-3.39067, -1.5 -3.41589, -1.5  Q-3.44803, -1.5 -3.48018, -1.5  Q-3.51903, -1.5 -3.55788, -1.5  Q-3.60317, -1.5 -3.64847, -1.5  Q-3.69991, -1.5 -3.75136, -1.5  Q-3.8086, -1.5 -3.86585, -1.5  Q-3.92853, -1.5 -3.9912, -1.5  Q-4.05888, -1.5 -4.12657, -1.5  Q-4.19881, -1.5 -4.27105, -1.5  Q-4.42169, -1.5 -4.58348, -1.5 " /><path id= "64" d=" M -4.58348 -1.5 L 8.54041 -1.5 " />
<path d="M8.54041, -1.5 Q8.30229, -1.5 8.3, -1.5 " /><path d="M7.45979, -1.5 L9.54546, -1.5  L10.0105, -1.5  L10.5, -1.5  L10.9895, -1.5  L11.4545, -1.5  L11.8717, -1.5  L12.22, -1.5  L12.4821, -1.5  L12.6448, -1.5  L12.7, -1.5 " /><path d="M12.7, -1.5 Q12.6977, -1.5 12.4596, -1.5 " /><path id= "68" d=" M 12.4596 -1.5 L 69.5835 -1.5 " />
<path d="M69.5835, -1.5 Q69.4217, -1.5 69.271, -1.5  Q69.1988, -1.5 69.1266, -1.5  Q69.0589, -1.5 68.9912, -1.5  Q68.9285, -1.5 68.8659, -1.5  Q68.8086, -1.5 68.7514, -1.5  Q68.6999, -1.5 68.6485, -1.5  Q68.6032, -1.5 68.5579, -1.5  Q68.519, -1.5 68.4802, -1.5  Q68.448, -1.5 68.4159, -1.5  Q68.3907, -1.5 68.3654, -1.5  Q68.3473, -1.5 68.3292, -1.5  Q68.3182, -1.5 68.3073, -1.5  Q68.3037, -1.5 68.3, -1.5 " /><path d="M67.2205, -1.5 L70.0105, -1.5  L70.5, -1.5  L70.9895, -1.5  L71.4545, -1.5  L71.8717, -1.5  L72.22, -1.5  L72.4821, -1.5  L72.6448, -1.5  L72.7, -1.5 " /><path d="M72.7, -1.5 L72.6927, -1.5  L72.6708, -1.5  L72.6346, -1.5  L72.5841, -1.5  L72.5198, -1.5  L72.4421, -1.5  L72.3515, -1.5  L72.2486, -1.5  L72.1341, -1.5  L72.0088, -1.5  L71.8734, -1.5  L71.729, -1.5  L71.5763, -1.5  L71.4165, -1.5 " /><path id= "72" d=" M 71.4165 -1.5 L 82.5 -1.5 " />
<path id= "73" d=" M -82.5 -1.5 L 9.5 -1.5 " />
<path d="M-49.8, -1.5 L-49.8426, -1.5  L-49.9684, -1.5  L-50.1709, -1.5  L-50.4401, -1.5  L-50.7624, -1.5  L-51.1217, -1.5  L-51.5, -1.5  L-51.8783, -1.5  L-52.2376, -1.5  L-52.5599, -1.5  L-52.8291, -1.5  L-53.0316, -1.5  L-53.1574, -1.5  L-53.2, -1.5 " /><path d="M-53.2, -1.5 L-53.1574, -1.5  L-53.0316, -1.5  L-52.8291, -1.5  L-52.5599, -1.5  L-52.2376, -1.5  L-51.8783, -1.5  L-51.5, -1.5  L-51.1217, -1.5  L-50.7624, -1.5  L-50.4401, -1.5  L-50.1709, -1.5  L-49.9684, -1.5  L-49.8426, -1.5  L-49.8, -1.5 " /><path d="M-33.8, -1.5 L-33.8426, -1.5  L-33.9684, -1.5  L-34.1709, -1.5  L-34.4401, -1.5  L-34.7624, -1.5  L-35.1217, -1.5  L-35.5, -1.5  L-35.8783, -1.5  L-36.2376, -1.5  L-36.5599, -1.5  L-36.8291, -1.5  L-37.0316, -1.5  L-37.1574, -1.5  L-37.2, -1.5 " /><path d="M-37.2, -1.5 L-37.1574, -1.5  L-37.0316, -1.5  L-36.8291, -1.5  L-36.5599, -1.5  L-36.2376, -1.5  L-35.8783, -1.5  L-35.5, -1.5  L-35.1217, -1.5  L-34.7624, -1.5  L-34.4401, -1.5  L-34.1709, -1.5  L-33.9684, -1.5  L-33.8426, -1.5  L-33.8, -1.5 " /><path d="M-3.3, -1.5 L-3.35516, -1.5  L-3.51787, -1.5  L-3.77997, -1.5  L-4.12832, -1.5  L-4.54546, -1.5  L-5.01045, -1.5  L-5.5, -1.5  L-5.98955, -1.5  L-6.45454, -1.5  L-6.87168, -1.5  L-7.22003, -1.5  L-7.48213, -1.5  L-7.64484, -1.5  L-7.7, -1.5 " /><path d="M-7.7, -1.5 L-7.64484, -1.5  L-7.48213, -1.5  L-7.22003, -1.5  L-6.87168, -1.5  L-6.45454, -1.5  L-5.98955, -1.5  L-5.5, -1.5  L-5.01045, -1.5  L-4.54546, -1.5  L-4.12832, -1.5  L-3.77997, -1.5  L-3.51787, -1.5  L-3.35516, -1.5  L-3.3, -1.5 " /><path d="M-49.8, -1.5 L-49.8426, -1.5  L-49.9684, -1.5  L-50.1709, -1.5  L-50.4401, -1.5  L-50.7624, -1.5  L-51.1217, -1.5  L-51.5, -1.5  L-51.8783, -1.5  L-52.2376, -1.5  L-52.5599, -1.5  L-52.8291, -1.5  L-53.0316, -1.5  L-53.1574, -1.5  L-53.2, -1.5 " /><path d="M-53.2, -1.5 L-53.1574, -1.5  L-53.0316, -1.5  L-52.8291, -1.5  L-52.5599, -1.5  L-52.2376, -1.5  L-51.8783, -1.5  L-51.5, -1.5  L-51.1217, -1.5  L-50.7624, -1.5  L-50.4401, -1.5  L-50.1709, -1.5  L-49.9684, -1.5  L-49.8426, -1.5  L-49.8, -1.5 " /><path d="M-37.8, -1.5 L-38.0131, -1.5  L-38.6418, -1.5  L-39.6544, -1.5  L-41.0003, -1.5  L-42.612, -1.5  L-44.4086, -1.5  L-46.3, -1.5  L-48.1914, -1.5  L-49.988, -1.5  L-51.5997, -1.5  L-52.9456, -1.5  L-53.9582, -1.5  L-54.5869, -1.5  L-54.8, -1.5 " /><path d="M-54.8, -1.5 L-54.5869, -1.5  L-53.9582, -1.5  L-52.9456, -1.5  L-51.5997, -1.5  L-49.988, -1.5  L-48.1914, -1.5  L-46.3, -1.5  L-44.4086, -1.5  L-42.612, -1.5  L-41.0003, -1.5  L-39.6544, -1.5  L-38.6418, -1.5  L-38.0131, -1.5  L-37.8, -1.5 " /><path d="M-33.8, -1.5 L-33.8426, -1.5  L-33.9684, -1.5  L-34.1709, -1.5  L-34.4401, -1.5  L-34.7624, -1.5  L-35.1217, -1.5  L-35.5, -1.5  L-35.8783, -1.5  L-36.2376, -1.5  L-36.5599, -1.5  L-36.8291, -1.5  L-37.0316, -1.5  L-37.1574, -1.5  L-37.2, -1.5 " /><path d="M-37.2, -1.5 L-37.1574, -1.5  L-37.0316, -1.5  L-36.8291, -1.5  L-36.5599, -1.5  L-36.2376, -1.5  L-35.8783, -1.5  L-35.5, -1.5  L-35.1217, -1.5  L-34.7624, -1.5  L-34.4401, -1.5  L-34.1709, -1.5  L-33.9684, -1.5  L-33.8426, -1.5  L-33.8, -1.5 " /><path d="M-53.3, -1.5 L-53.3552, -1.5  L-53.5179, -1.5  L-53.78, -1.5  L-54.1283, -1.5  L-54.5455, -1.5  L-55.0105, -1.5  L-55.5, -1.5  L-55.9895, -1.5  L-56.4545, -1.5  L-56.8717, -1.5  L-57.22, -1.5  L-57.4821, -1.5  L-57.6448, -1.5  L-57.7, -1.5 " /><path d="M-57.7, -1.5 L-57.6448, -1.5  L-57.4821, -1.5  L-57.22, -1.5  L-56.8717, -1.5  L-56.4545, -1.5  L-55.9895, -1.5  L-55.5, -1.5  L-55.0105, -1.5  L-54.5455, -1.5  L-54.1283, -1.5  L-53.78, -1.5  L-53.5179, -1.5  L-53.3552, -1.5  L-53.3, -1.5 " /><path d="M-35, -1.5 L-35.1128, -1.5  L-35.4456, -1.5  L-35.9818, -1.5  L-36.6943, -1.5  L-37.5475, -1.5  L-38.4987, -1.5  L-39.5, -1.5  L-40.5013, -1.5  L-41.4525, -1.5  L-42.3057, -1.5  L-43.0182, -1.5  L-43.5544, -1.5  L-43.8872, -1.5  L-44, -1.5 " /><path d="M-44, -1.5 L-43.8872, -1.5  L-43.5544, -1.5  L-43.0182, -1.5  L-42.3057, -1.5  L-41.4525, -1.5  L-40.5013, -1.5  L-39.5, -1.5  L-38.4987, -1.5  L-37.5475, -1.5  L-36.6943, -1.5  L-35.9818, -1.5  L-35.4456, -1.5  L-35.1128, -1.5  L-35, -1.5 " /><path d="M-19.3, -1.5 L-19.3552, -1.5  L-19.5179, -1.5  L-19.78, -1.5  L-20.1283, -1.5  L-20.5455, -1.5  L-21.0105, -1.5  L-21.5, -1.5  L-21.9895, -1.5  L-22.4545, -1.5  L-22.8717, -1.5  L-23.22, -1.5  L-23.4821, -1.5  L-23.6448, -1.5  L-23.7, -1.5 " /><path d="M-23.7, -1.5 L-23.6448, -1.5  L-23.4821, -1.5  L-23.22, -1.5  L-22.8717, -1.5  L-22.4545, -1.5  L-21.9895, -1.5  L-21.5, -1.5  L-21.0105, -1.5  L-20.5455, -1.5  L-20.1283, -1.5  L-19.78, -1.5  L-19.5179, -1.5  L-19.3552, -1.5  L-19.3, -1.5 " /><path d="M52.7, -1.5 L52.6448, -1.5  L52.4821, -1.5  L52.22, -1.5  L51.8717, -1.5  L51.4545, -1.5  L50.9895, -1.5  L50.5, -1.5  L50.0105, -1.5  L47.2205, -1.5 " /><path d="M48.3, -1.5 L48.3552, -1.5  L48.5179, -1.5  L48.78, -1.5  L49.1283, -1.5  L49.5455, -1.5  L50.0105, -1.5  L50.5, -1.5  L50.9895, -1.5  L51.4545, -1.5  L51.8717, -1.5  L52.22, -1.5  L52.4821, -1.5  L52.6448, -1.5  L52.7, -1.5 " /><path d="M73.7795, -1.5 L70.9895, -1.5  L70.5, -1.5  L70.0105, -1.5  L69.5455, -1.5  L69.1283, -1.5  L68.78, -1.5  L68.5179, -1.5  L68.3552, -1.5  L68.3, -1.5 " /><path d="M68.3, -1.5 L68.3552, -1.5  L68.5179, -1.5  L68.78, -1.5  L69.1283, -1.5  L69.5455, -1.5  L70.0105, -1.5  L70.5, -1.5  L70.9895, -1.5  L71.4545, -1.5  L71.8717, -1.5  L72.22, -1.5  L72.4821, -1.5  L72.6448, -1.5  L72.7, -1.5 " /><path d="M50.7795, -1.5 L47.9895, -1.5  L47.5, -1.5  L47.0105, -1.5  L46.5455, -1.5  L46.1283, -1.5  L45.78, -1.5  L45.5179, -1.5  L45.3552, -1.5  L45.3, -1.5 " /><path d="M45.3, -1.5 L45.3552, -1.5  L45.5179, -1.5  L45.78, -1.5  L46.1283, -1.5  L46.5455, -1.5  L47.0105, -1.5  L47.5, -1.5  L47.9895, -1.5  L48.4545, -1.5  L50.5402, -1.5 " /><path d="M49.7, -1.5 L49.6448, -1.5  L49.4821, -1.5  L49.22, -1.5  L48.8717, -1.5  L48.4545, -1.5  L47.9895, -1.5  L47.5, -1.5  L47.0105, -1.5  L46.5455, -1.5  L46.1283, -1.5  L45.78, -1.5  L45.5179, -1.5  L45.3552, -1.5  L45.3, -1.5 " /><path d="M45.3, -1.5 L45.3552, -1.5  L45.5179, -1.5  L45.78, -1.5  L46.1283, -1.5  L46.5455, -1.5  L47.0105, -1.5  L47.5, -1.5  L47.9895, -1.5  L48.4545, -1.5  L48.8717, -1.5  L49.22, -1.5  L49.4821, -1.5  L49.6448, -1.5  L49.7, -1.5 " /><path d="M67.7, -1.5 L67.6448, -1.5  L67.4821, -1.5  L67.22, -1.5  L66.8717, -1.5  L66.4545, -1.5  L65.9895, -1.5  L65.5, -1.5  L65.0105, -1.5  L64.5455, -1.5  L62.4598, -1.5 " /><path d="M63.3, -1.5 L63.3552, -1.5  L63.5179, -1.5  L63.78, -1.5  L64.1283, -1.5  L64.5455, -1.5  L65.0105, -1.5  L65.5, -1.5  L65.9895, -1.5  L66.4545, -1.5  L66.8717, -1.5  L67.22, -1.5  L67.4821, -1.5  L67.6448, -1.5  L67.7, -1.5 " /><path d="M64.5, -1.5 L64.2994, -1.5  L63.7078, -1.5  L62.7547, -1.5  L61.4879, -1.5  L59.9711, -1.5  L58.2802, -1.5  L56.5, -1.5  L54.7198, -1.5  L53.0289, -1.5  L51.5121, -1.5  L50.2453, -1.5  L47.3861, -1.5 " /><path d="M48.5, -1.5 L48.7006, -1.5  L49.2922, -1.5  L50.2453, -1.5  L51.5121, -1.5  L53.0289, -1.5  L54.7198, -1.5  L56.5, -1.5  L58.2802, -1.5  L59.9711, -1.5  L61.4879, -1.5  L62.7547, -1.5  L65.6139, -1.5 " /><path d="M67.7, -1.5 L67.6448, -1.5  L67.4821, -1.5  L67.22, -1.5  L66.8717, -1.5  L66.4545, -1.5  L65.9895, -1.5  L65.5, -1.5  L65.0105, -1.5  L64.5455, -1.5  L64.1283, -1.5  L63.78, -1.5  L63.5179, -1.5  L63.3552, -1.5  L63.3, -1.5 " /><path d="M63.3, -1.5 L63.3552, -1.5  L63.5179, -1.5  L63.78, -1.5  L64.1283, -1.5  L64.5455, -1.5  L65.0105, -1.5  L65.5, -1.5  L65.9895, -1.5  L66.4545, -1.5  L66.8717, -1.5  L67.22, -1.5  L67.4821, -1.5  L67.6448, -1.5  L67.7, -1.5 " /><path id= "106" d=" M -51.1775 -1.5 L -51.1775 1.5 " />
<path id= "107" d=" M -6.41652 -1.5 L -6.41652 1.5 " />
<path id= "108" d=" M -41.4225 -1.5 L -41.4225 1.5 " />
<path id= "109" d=" M 8.54041 -1.5 L 8.54041 1.5 " />
<path id= "110" d=" M -4.58348 -1.5 L -4.58348 1.5 " />
<path id= "111" d=" M 69.5835 -1.5 L 69.5835 1.5 " />
<path id= "112" d=" M 12.4596 -1.5 L 12.4596 1.5 " />
<path id= "113" d=" M 82.5 1.5 L 82.5 -1.5 " />
<path id= "114" d=" M 71.4165 -1.5 L 71.4165 1.5 " />
<path id= "115" d=" M -82.5 1.5 L -82.5 -1.5 " />
<path id= "116" d=" M 9.5 1.5 L 9.5 -1.5 " />
<path id= "117" d=" M -49.8 1.5 L -49.8 -1.5 " />
<path id= "118" d=" M -33.8 1.5 L -33.8 -1.5 " />
<path id= "119" d=" M -3.3 1.5 L -3.3 -1.5 " />
<path id= "120" d=" M -49.8 1.5 L -49.8 -1.5 " />
<path id= "121" d=" M -37.8 1.5 L -37.8 -1.5 " />
<path id= "122" d=" M -33.8 1.5 L -33.8 -1.5 " />
<path id= "123" d=" M -53.3 1.5 L -53.3 -1.5 " />
<path id= "124" d=" M -35 1.5 L -35 -1.5 " />
<path id= "125" d=" M -19.3 1.5 L -19.3 -1.5 " />
<path id= "126" d=" M 52.7 1.5 L 52.7 -1.5 " />
<path id= "127" d=" M 72.7 1.5 L 72.7 -1.5 " />
<path id= "128" d=" M 49.7 1.5 L 49.7 -1.5 " />
<path id= "129" d=" M 49.7 1.5 L 49.7 -1.5 " />
<path id= "130" d=" M 67.7 1.5 L 67.7 -1.5 " />
<path id= "131" d=" M 64.5 1.5 L 64.5 -1.5 " />
<path id= "132" d=" M 67.7 1.5 L 67.7 -1.5 " />
<path id= "1" d=" M -53.2 -1.5 L -53.2 1.5 " />
<path id= "2" d=" M -37.2 -1.5 L -37.2 1.5 " />
<path id= "3" d=" M -7.7 -1.5 L -7.7 1.5 " />
<path id= "4" d=" M -53.2 -1.5 L -53.2 1.5 " />
<path id= "5" d=" M -54.8 -1.5 L -54.8 1.5 " />
<path id= "6" d=" M -37.2 -1.5 L -37.2 1.5 " />
<path id= "7" d=" M -57.7 -1.5 L -57.7 1.5 " />
<path id= "8" d=" M -44 -1.5 L -44 1.5 " />
<path id= "9" d=" M -23.7 -1.5 L -23.7 1.5 " />
<path id= "10" d=" M 48.3 -1.5 L 48.3 1.5 " />
<path id= "11" d=" M 68.3 -1.5 L 68.3 1.5 " />
<path id= "12" d=" M 45.3 -1.5 L 45.3 1.5 " />
<path id= "13" d=" M 45.3 -1.5 L 45.3 1.5 " />
<path id= "14" d=" M 63.3 -1.5 L 63.3 1.5 " />
<path id= "15" d=" M 48.5 -1.5 L 48.5 1.5 " />
<path id= "16" d=" M 63.3 -1.5 L 63.3 1.5 " />
<path id= "17" d=" M -51.3 -1.5 L -51.3 1.5 " />
<path id= "18" d=" M -41.3 -1.5 L -41.3 1.5 " />
<path id= "19" d=" M -7.7 -1.5 L -7.7 1.5 " />
<path id= "20" d=" M -3.3 -1.5 L -3.3 1.5 " />
<path id= "21" d=" M 8.3 -1.5 L 8.3 1.5 " />
<path id= "22" d=" M 12.7 -1.5 L 12.7 1.5 " />
<path id= "23" d=" M 68.3 -1.5 L 68.3 1.5 " />
<path id= "24" d=" M 72.7 -1.5 L 72.7 1.5 " />
</g>
</g><line x1="59.50" y1="54.80" x2="125.50" y2="54.80" stroke="#1a5276" stroke-width="0.25"/><path d="M 59.50 54.80 L 61.10 54.25 L 61.10 55.35 z" fill="#1a5276"/><path d="M 125.50 54.80 L 123.90 54.25 L 123.90 55.35 z" fill="#1a5276"/><text x="92.50" y="53.90" font-size="3.2" fill="#1a5276" text-anchor="middle" font-family="sans-serif">165</text><line x1="51.30" y1="46.40" x2="51.30" y2="47.60" stroke="#1a5276" stroke-width="0.25"/><path d="M 51.30 46.40 L 50.75 48.00 L 51.85 48.00 z" fill="#1a5276"/><path d="M 51.30 47.60 L 50.75 46.00 L 51.85 46.00 z" fill="#1a5276"/><text x="50.40" y="47.00" font-size="3.2" fill="#1a5276" text-anchor="middle" font-family="sans-serif" transform="rotate(-90 50.40 47.00)">3</text><text x="92.5" y="79.4" font-size="3.4" font-family="sans-serif" fill="#000" text-anchor="middle">TOP</text><g transform="translate(233.50 123.00) scale(0.4000 -0.4000)"><g fill="none" stroke="#000000" stroke-opacity="1" stroke-width="0.7" stroke-linecap="butt" stroke-linejoin="miter" stroke-miterlimit="4">
<path id= "1" d=" M -1.5 55 L -1.5 -55 " />
<path id= "2" d=" M 1.5 55 L 1.5 -55 " />
<path id= "3" d=" M -1.5 55 L 1.5 55 " />
<path id= "4" d=" M -1.5 -55 L 1.5 -55 " />
</g>
<g fill="none" stroke="#000000" stroke-opacity="1" stroke-width="0.35" stroke-dasharray="2.4 1.2" stroke-linecap="butt" stroke-linejoin="miter" stroke-miterlimit="4">
<path id= "1" d=" M -1.5 55 L -1.5 38 " />
<path id= "2" d=" M -1.5 38 L 1.5 38 " />
<path id= "3" d=" M 1.5 55 L 1.5 38 " />
<path id= "4" d=" M -1.5 55 L 1.5 55 " />
<path d="M-1.5, 53.9 L-1.5, 53.3402  L-1.5, 52.7874  L-1.5, 52.2486  L-1.5, 51.7306  L-1.5, 51.2398  L-1.5, 50.7826  L-1.5, 50.3645  L-1.5, 49.9908  L-1.5, 49.6664  L-1.5, 49.3952  L-1.5, 49.1806  L-1.5, 49.0254  L-1.5, 48.9314  L-1.5, 48.9 " /><path d="M-1.5, 48.9 Q-1.5, 48.9205 -1.5, 48.9409  Q-1.5, 49.002 -1.5, 49.0631  Q-1.5, 49.1637 -1.5, 49.2644  Q-1.5, 49.403 -1.5, 49.5416  Q-1.5, 49.7159 -1.5, 49.8902  Q-1.5, 50.0973 -1.5, 50.3044  Q-1.5, 50.541 -1.5, 50.7775  Q-1.5, 51.0396 -1.5, 51.3017  Q-1.5, 51.5851 -1.5, 51.8685  Q-1.5, 52.1685 -1.5, 52.4685  Q-1.5, 52.7802 -1.5, 53.092  Q-1.5, 53.4103 -1.5, 53.7287  Q-1.5, 54.3703 -1.5, 55 " /><path d="M-1.5, 55 Q-1.5, 54.4568 -1.5, 53.9 " /><path d="M-1.5, 53 Q-1.5, 52.7528 -1.5, 52.5105  Q-1.5, 52.3919 -1.5, 52.2734  Q-1.5, 52.1594 -1.5, 52.0455  Q-1.5, 51.9375 -1.5, 51.8295  Q-1.5, 51.7289 -1.5, 51.6283  Q-1.5, 51.5363 -1.5, 51.4444  Q-1.5, 51.3622 -1.5, 51.28  Q-1.5, 51.2086 -1.5, 51.1372  Q-1.5, 51.0775 -1.5, 51.0179  Q-1.5, 50.9707 -1.5, 50.9235  Q-1.5, 50.8893 -1.5, 50.8552  Q-1.5, 50.8345 -1.5, 50.8138  Q-1.5, 50.8069 -1.5, 50.8 " /><path d="M-1.5, 50.8 L-1.5, 50.8411  L-1.5, 50.963  L-1.5, 51.1611  L-1.5, 51.428  L-1.5, 51.7537  L-1.5, 52.126  L-1.5, 52.531  L-1.5, 52.9535  L-1.5, 53.3778  L-1.5, 53.7879  L-1.5, 54.1686  L-1.5, 54.5055  L-1.5, 54.7862  L-1.5, 55 " /><path d="M-1.5, 55 C-1.5, 54.9729 -1.5, 54.9458 -1.5, 54.9187  C-1.5, 54.8874 -1.5, 54.8561 -1.5, 54.8247  C-1.5, 54.7894 -1.5, 54.754 -1.5, 54.7186  C-1.5, 54.6795 -1.5, 54.6403 -1.5, 54.6011  C-1.5, 54.5584 -1.5, 54.5157 -1.5, 54.4729  C-1.5, 54.427 -1.5, 54.381 -1.5, 54.335  C-1.5, 54.2861 -1.5, 54.2371 -1.5, 54.1882  C-1.5, 53.835 -1.5, 53.4188 -1.5, 53 " /><path d="M-1.5, 54 Q-1.5, 53.8768 -1.5, 53.7537  Q-1.5, 53.5087 -1.5, 53.2734  Q-1.5, 53.1594 -1.5, 53.0455  Q-1.5, 52.9375 -1.5, 52.8295  Q-1.5, 52.7289 -1.5, 52.6283  Q-1.5, 52.5363 -1.5, 52.4444  Q-1.5, 52.3622 -1.5, 52.28  Q-1.5, 52.2086 -1.5, 52.1372  Q-1.5, 52.0775 -1.5, 52.0179  Q-1.5, 51.9707 -1.5, 51.9235  Q-1.5, 51.8893 -1.5, 51.8552  Q-1.5, 51.8345 -1.5, 51.8138  Q-1.5, 51.8069 -1.5, 51.8 " /><path d="M-1.5, 51.8 Q-1.5, 51.8117 -1.5, 51.8234  Q-1.5, 51.8582 -1.5, 51.893  Q-1.5, 51.9502 -1.5, 52.0074  Q-1.5, 52.0858 -1.5, 52.1642  Q-1.5, 52.262 -1.5, 52.3599  Q-1.5, 52.4752 -1.5, 52.5905  Q-1.5, 52.7208 -1.5, 52.8511  Q-1.5, 52.9936 -1.5, 53.1361  Q-1.5, 53.2877 -1.5, 53.4394  Q-1.5, 53.7532 -1.5, 54.0751  Q-1.5, 54.2345 -1.5, 54.394  Q-1.5, 54.5492 -1.5, 54.7045  Q-1.5, 54.8522 -1.5, 55 " /><path d="M-1.5, 55 C-1.5, 54.6917 -1.5, 54.3461 -1.5, 54 " /><path d="M-1.5, 53 Q-1.5, 52.8768 -1.5, 52.7537  Q-1.5, 52.5087 -1.5, 52.2734  Q-1.5, 52.1594 -1.5, 52.0455  Q-1.5, 51.9375 -1.5, 51.8295  Q-1.5, 51.7289 -1.5, 51.6283  Q-1.5, 51.5363 -1.5, 51.4444  Q-1.5, 51.3622 -1.5, 51.28  Q-1.5, 51.2086 -1.5, 51.1372  Q-1.5, 51.0775 -1.5, 51.0179  Q-1.5, 50.9707 -1.5, 50.9235  Q-1.5, 50.8893 -1.5, 50.8552  Q-1.5, 50.8345 -1.5, 50.8138  Q-1.5, 50.8069 -1.5, 50.8 " /><path d="M-1.5, 50.8 L-1.5, 50.8411  L-1.5, 50.963  L-1.5, 51.1611  L-1.5, 51.428  L-1.5, 51.7537  L-1.5, 52.126  L-1.5, 52.531  L-1.5, 53.3778  L-1.5, 53.7879  L-1.5, 54.1686  L-1.5, 54.5055  L-1.5, 54.7862  L-1.5, 55 " /><path d="M-1.5, 55 C-1.5, 54.9729 -1.5, 54.9458 -1.5, 54.9187  C-1.5, 54.8874 -1.5, 54.8561 -1.5, 54.8247  C-1.5, 54.7894 -1.5, 54.754 -1.5, 54.7186  C-1.5, 54.6795 -1.5, 54.6403 -1.5, 54.6011  C-1.5, 54.5584 -1.5, 54.5157 -1.5, 54.4729  C-1.5, 54.427 -1.5, 54.381 -1.5, 54.335  C-1.5, 54.2861 -1.5, 54.2371 -1.5, 54.1882  C-1.5, 53.835 -1.5, 53.4188 -1.5, 53 " /><path d="M-1.5, -55 Q-1.5, -54.8768 -1.5, -54.7537  Q-1.5, -54.5087 -1.5, -54.2734  Q-1.5, -54.1594 -1.5, -54.0455  Q-1.5, -53.9375 -1.5, -53.8295  Q-1.5, -53.7289 -1.5, -53.6283  Q-1.5, -53.5363 -1.5, -53.4444  Q-1.5, -53.3622 -1.5, -53.28  Q-1.5, -53.2086 -1.5, -53.1372  Q-1.5, -53.0775 -1.5, -53.0179  Q-1.5, -52.9707 -1.5, -52.9235  Q-1.5, -52.8893 -1.5, -52.8552  Q-1.5, -52.8345 -1.5, -52.8138  Q-1.5, -52.8069 -1.5, -52.8 " /><path d="M-1.5, -52.8 Q-1.5, -52.8069 -1.5, -52.8138  Q-1.5, -52.8345 -1.5, -52.8552  Q-1.5, -52.8893 -1.5, -52.9235  Q-1.5, -52.9707 -1.5, -53.0179  Q-1.5, -53.0775 -1.5, -53.1372  Q-1.5, -53.2086 -1.5, -53.28  Q-1.5, -53.3622 -1.5, -53.4444  Q-1.5, -53.5363 -1.5, -53.6283  Q-1.5, -53.7289 -1.5, -53.8295  Q-1.5, -53.9375 -1.5, -54.0455  Q-1.5, -54.1594 -1.5, -54.2734  Q-1.5, -54.3919 -1.5, -54.5105  Q-1.5, -54.7528 -1.5, -55 " /><path d="M-1.5, -55 Q-1.5, -54.8768 -1.5, -54.7537  Q-1.5, -54.5087 -1.5, -54.2734  Q-1.5, -54.1594 -1.5, -54.0455  Q-1.5, -53.9375 -1.5, -53.8295  Q-1.5, -53.7289 -1.5, -53.6283  Q-1.5, -53.5363 -1.5, -53.4444  Q-1.5, -53.3622 -1.5, -53.28  Q-1.5, -53.2086 -1.5, -53.1372  Q-1.5, -53.0775 -1.5, -53.0179  Q-1.5, -52.9707 -1.5, -52.9235  Q-1.5, -52.8893 -1.5, -52.8552  Q-1.5, -52.8345 -1.5, -52.8138  Q-1.5, -52.8069 -1.5, -52.8 " /><path d="M-1.5, -52.8 Q-1.5, -52.8069 -1.5, -52.8138  Q-1.5, -52.8345 -1.5, -52.8552  Q-1.5, -52.8893 -1.5, -52.9235  Q-1.5, -52.9707 -1.5, -53.0179  Q-1.5, -53.0775 -1.5, -53.1372  Q-1.5, -53.2086 -1.5, -53.28  Q-1.5, -53.3622 -1.5, -53.4444  Q-1.5, -53.5363 -1.5, -53.6283  Q-1.5, -53.7289 -1.5, -53.8295  Q-1.5, -53.9375 -1.5, -54.0455  Q-1.5, -54.1594 -1.5, -54.2734  Q-1.5, -54.3919 -1.5, -54.5105  Q-1.5, -54.7528 -1.5, -55 " /><path id= "21" d=" M -1.5 31 L -1.5 -55 " />
<path id= "22" d=" M -1.5 31 L -1.5 38 " />
<path d="M-1.5, 3.2 C-1.5, 3.00901 -1.5, 2.81981 -1.5, 2.63853  C-1.5, 2.57982 -1.5, 2.52111 -1.5, 2.4624  C-1.5, 2.40678 -1.5, 2.35116 -1.5, 2.29555  C-1.5, 2.24372 -1.5, 2.19189 -1.5, 2.14007  C-1.5, 2.09268 -1.5, 2.0453 -1.5, 1.99792  C-1.5, 1.95557 -1.5, 1.91323 -1.5, 1.87089  C-1.5, 1.83411 -1.5, 1.79734 -1.5, 1.76057  C-1.5, 1.72983 -1.5, 1.69909 -1.5, 1.66835  C-1.5, 1.64403 -1.5, 1.61972 -1.5, 1.5954  C-1.5, 1.57781 -1.5, 1.56021 -1.5, 1.54262  C-1.5, 1.53198 -1.5, 1.52133 -1.5, 1.51069  C-1.5, 1.50713 -1.5, 1.50356 -1.5, 1.5 " /><path d="M-1.5, 1.5 L-1.5, 1.54262  L-1.5, 1.66835  L-1.5, 1.87089  L-1.5, 2.14007  L-1.5, 2.4624  L-1.5, 2.82171  L-1.5, 3.2  L-1.5, 3.57829  L-1.5, 3.9376  L-1.5, 4.25993  L-1.5, 4.52911  L-1.5, 4.73165  L-1.5, 4.85738  L-1.5, 4.9 " /><path d="M-1.5, 4.9 Q-1.5, 4.89466 -1.5, 4.88931  Q-1.5, 4.87334 -1.5, 4.85738  Q-1.5, 4.83099 -1.5, 4.8046  Q-1.5, 4.76812 -1.5, 4.73165  Q-1.5, 4.68554 -1.5, 4.63943  Q-1.5, 4.58427 -1.5, 4.52911  Q-1.5, 4.4656 -1.5, 4.40208  Q-1.5, 4.33101 -1.5, 4.25993  Q-1.5, 4.18219 -1.5, 4.10445  Q-1.5, 4.02103 -1.5, 3.9376  Q-1.5, 3.76345 -1.5, 3.57829  Q-1.5, 3.39101 -1.5, 3.2 " /><path d="M-1.5, 3.2 C-1.5, 3.00901 -1.5, 2.81981 -1.5, 2.63853  C-1.5, 2.57982 -1.5, 2.52111 -1.5, 2.4624  C-1.5, 2.40678 -1.5, 2.35116 -1.5, 2.29555  C-1.5, 2.24372 -1.5, 2.19189 -1.5, 2.14007  C-1.5, 2.09268 -1.5, 2.0453 -1.5, 1.99792  C-1.5, 1.95557 -1.5, 1.91323 -1.5, 1.87089  C-1.5, 1.83411 -1.5, 1.79734 -1.5, 1.76057  C-1.5, 1.72983 -1.5, 1.69909 -1.5, 1.66835  C-1.5, 1.64403 -1.5, 1.61972 -1.5, 1.5954  C-1.5, 1.57781 -1.5, 1.56021 -1.5, 1.54262  C-1.5, 1.53198 -1.5, 1.52133 -1.5, 1.51069  C-1.5, 1.50713 -1.5, 1.50356 -1.5, 1.5 " /><path d="M-1.5, 1.5 L-1.5, 1.54262  L-1.5, 1.66835  L-1.5, 1.87089  L-1.5, 2.14007  L-1.5, 2.4624  L-1.5, 2.82171  L-1.5, 3.2  L-1.5, 3.57829  L-1.5, 3.9376  L-1.5, 4.25993  L-1.5, 4.52911  L-1.5, 4.73165  L-1.5, 4.85738  L-1.5, 4.9 " /><path d="M-1.5, 4.9 Q-1.5, 4.89466 -1.5, 4.88931  Q-1.5, 4.87334 -1.5, 4.85738  Q-1.5, 4.83099 -1.5, 4.8046  Q-1.5, 4.76812 -1.5, 4.73165  Q-1.5, 4.68554 -1.5, 4.63943  Q-1.5, 4.58427 -1.5, 4.52911  Q-1.5, 4.4656 -1.5, 4.40208  Q-1.5, 4.33101 -1.5, 4.25993  Q-1.5, 4.18219 -1.5, 4.10445  Q-1.5, 4.02103 -1.5, 3.9376  Q-1.5, 3.76345 -1.5, 3.57829  Q-1.5, 3.39101 -1.5, 3.2 " /><path d="M-1.5, 45 Q-1.5, 44.8768 -1.5, 44.7537  Q-1.5, 44.5087 -1.5, 44.2734  Q-1.5, 44.1594 -1.5, 44.0455  Q-1.5, 43.9375 -1.5, 43.8295  Q-1.5, 43.7289 -1.5, 43.6283  Q-1.5, 43.5363 -1.5, 43.4444  Q-1.5, 43.3622 -1.5, 43.28  Q-1.5, 43.2086 -1.5, 43.1372  Q-1.5, 43.0775 -1.5, 43.0179  Q-1.5, 42.9707 -1.5, 42.9235  Q-1.5, 42.8893 -1.5, 42.8552  Q-1.5, 42.8345 -1.5, 42.8138  Q-1.5, 42.8069 -1.5, 42.8 " /><path d="M-1.5, 42.8 L-1.5, 42.8552  L-1.5, 43.0179  L-1.5, 43.28  L-1.5, 43.6283  L-1.5, 44.0455  L-1.5, 44.5105  L-1.5, 45  L-1.5, 45.4895  L-1.5, 45.9545  L-1.5, 46.3717  L-1.5, 46.72  L-1.5, 46.9821  L-1.5, 47.1448  L-1.5, 47.2 " /><path d="M-1.5, 47.2 Q-1.5, 47.1931 -1.5, 47.1862  Q-1.5, 47.1655 -1.5, 47.1448  Q-1.5, 47.1107 -1.5, 47.0765  Q-1.5, 47.0293 -1.5, 46.9821  Q-1.5, 46.9225 -1.5, 46.8628  Q-1.5, 46.7914 -1.5, 46.72  Q-1.5, 46.6378 -1.5, 46.5556  Q-1.5, 46.4637 -1.5, 46.3717  Q-1.5, 46.2711 -1.5, 46.1705  Q-1.5, 46.0625 -1.5, 45.9545  Q-1.5, 45.8406 -1.5, 45.7266  Q-1.5, 45.6081 -1.5, 45.4895  Q-1.5, 45.2472 -1.5, 45 " /><path d="M-1.5, -14.8 C-1.5, -14.991 -1.5, -15.1802 -1.5, -15.3615  C-1.5, -15.4202 -1.5, -15.4789 -1.5, -15.5376  C-1.5, -15.5932 -1.5, -15.6488 -1.5, -15.7045  C-1.5, -15.7563 -1.5, -15.8081 -1.5, -15.8599  C-1.5, -15.9073 -1.5, -15.9547 -1.5, -16.0021  C-1.5, -16.0444 -1.5, -16.0868 -1.5, -16.1291  C-1.5, -16.1659 -1.5, -16.2027 -1.5, -16.2394  C-1.5, -16.2702 -1.5, -16.3009 -1.5, -16.3316  C-1.5, -16.356 -1.5, -16.3803 -1.5, -16.4046  C-1.5, -16.4222 -1.5, -16.4398 -1.5, -16.4574  C-1.5, -16.468 -1.5, -16.4787 -1.5, -16.4893  C-1.5, -16.4929 -1.5, -16.4964 -1.5, -16.5 " /><path d="M-1.5, -16.5 L-1.5, -16.4574  L-1.5, -16.3316  L-1.5, -16.1291  L-1.5, -15.8599  L-1.5, -15.5376  L-1.5, -15.1783  L-1.5, -14.8  L-1.5, -14.4217  L-1.5, -14.0624  L-1.5, -13.7401  L-1.5, -13.4709  L-1.5, -13.2684  L-1.5, -13.1426  L-1.5, -13.1 " /><path d="M-1.5, -13.1 Q-1.5, -13.1053 -1.5, -13.1107  Q-1.5, -13.1267 -1.5, -13.1426  Q-1.5, -13.169 -1.5, -13.1954  Q-1.5, -13.2319 -1.5, -13.2684  Q-1.5, -13.3145 -1.5, -13.3606  Q-1.5, -13.4157 -1.5, -13.4709  Q-1.5, -13.5344 -1.5, -13.5979  Q-1.5, -13.669 -1.5, -13.7401  Q-1.5, -13.8178 -1.5, -13.8955  Q-1.5, -13.979 -1.5, -14.0624  Q-1.5, -14.2365 -1.5, -14.4217  Q-1.5, -14.609 -1.5, -14.8 " /><path d="M-1.5, -5.8 L-1.5, -6.7517  L-1.5, -7.69143  L-1.5, -8.60737  L-1.5, -9.48801  L-1.5, -10.3223  L-1.5, -11.0997  L-1.5, -11.8104  L-1.5, -12.4456  L-1.5, -12.9972  L-1.5, -13.4582  L-1.5, -13.823  L-1.5, -14.0869  L-1.5, -14.2466  L-1.5, -14.3 " /><path d="M-1.5, -14.3 L-1.5, -14.0869  L-1.5, -13.4582  L-1.5, -12.4456  L-1.5, -11.0997  L-1.5, -9.48801  L-1.5, -7.69143  L-1.5, -5.8  L-1.5, -3.90857  L-1.5, -2.11199  L-1.5, -0.500337  L-1.5, 0.845568  L-1.5, 1.85824  L-1.5, 2.48689  L-1.5, 2.7 " /><path d="M-1.5, 2.7 L-1.5, 2.64655  L-1.5, 2.48689  L-1.5, 2.22301  L-1.5, 1.85824  L-1.5, 1.39716  L-1.5, 0.845568  L-1.5, 0.210408  L-1.5, -0.500337  L-1.5, -1.27773  L-1.5, -2.11199  L-1.5, -2.99263  L-1.5, -3.90857  L-1.5, -4.8483  L-1.5, -5.8 " /><path d="M-1.5, -14.8 C-1.5, -14.991 -1.5, -15.1802 -1.5, -15.3615  C-1.5, -15.4202 -1.5, -15.4789 -1.5, -15.5376  C-1.5, -15.5932 -1.5, -15.6488 -1.5, -15.7045  C-1.5, -15.7563 -1.5, -15.8081 -1.5, -15.8599  C-1.5, -15.9073 -1.5, -15.9547 -1.5, -16.0021  C-1.5, -16.0444 -1.5, -16.0868 -1.5, -16.1291  C-1.5, -16.1659 -1.5, -16.2027 -1.5, -16.2394  C-1.5, -16.2702 -1.5, -16.3009 -1.5, -16.3316  C-1.5, -16.356 -1.5, -16.3803 -1.5, -16.4046  C-1.5, -16.4222 -1.5, -16.4398 -1.5, -16.4574  C-1.5, -16.468 -1.5, -16.4787 -1.5, -16.4893  C-1.5, -16.4929 -1.5, -16.4964 -1.5, -16.5 " /><path d="M-1.5, -16.5 L-1.5, -16.4574  L-1.5, -16.3316  L-1.5, -16.1291  L-1.5, -15.8599  L-1.5, -15.5376  L-1.5, -15.1783  L-1.5, -14.8  L-1.5, -14.4217  L-1.5, -14.0624  L-1.5, -13.7401  L-1.5, -13.4709  L-1.5, -13.2684  L-1.5, -13.1426  L-1.5, -13.1 " /><path d="M-1.5, -13.1 Q-1.5, -13.1053 -1.5, -13.1107  Q-1.5, -13.1267 -1.5, -13.1426  Q-1.5, -13.169 -1.5, -13.1954  Q-1.5, -13.2319 -1.5, -13.2684  Q-1.5, -13.3145 -1.5, -13.3606  Q-1.5, -13.4157 -1.5, -13.4709  Q-1.5, -13.5344 -1.5, -13.5979  Q-1.5, -13.669 -1.5, -13.7401  Q-1.5, -13.8178 -1.5, -13.8955  Q-1.5, -13.979 -1.5, -14.0624  Q-1.5, -14.2365 -1.5, -14.4217  Q-1.5, -14.609 -1.5, -14.8 " /><path d="M-1.5, -43 Q-1.5, -43.1232 -1.5, -43.2463  Q-1.5, -43.4913 -1.5, -43.7266  Q-1.5, -43.8406 -1.5, -43.9545  Q-1.5, -44.0625 -1.5, -44.1705  Q-1.5, -44.2711 -1.5, -44.3717  Q-1.5, -44.4637 -1.5, -44.5556  Q-1.5, -44.6378 -1.5, -44.72  Q-1.5, -44.7914 -1.5, -44.8628  Q-1.5, -44.9225 -1.5, -44.9821  Q-1.5, -45.0293 -1.5, -45.0765  Q-1.5, -45.1107 -1.5, -45.1448  Q-1.5, -45.1655 -1.5, -45.1862  Q-1.5, -45.1931 -1.5, -45.2 " /><path d="M-1.5, -45.2 L-1.5, -45.1448  L-1.5, -44.9821  L-1.5, -44.72  L-1.5, -44.3717  L-1.5, -43.9545  L-1.5, -43.4895  L-1.5, -43  L-1.5, -42.5105  L-1.5, -42.0455  L-1.5, -41.6283  L-1.5, -41.28  L-1.5, -41.0179  L-1.5, -40.8552  L-1.5, -40.8 " /><path d="M-1.5, -40.8 Q-1.5, -40.8069 -1.5, -40.8138  Q-1.5, -40.8345 -1.5, -40.8552  Q-1.5, -40.8893 -1.5, -40.9235  Q-1.5, -40.9707 -1.5, -41.0179  Q-1.5, -41.0775 -1.5, -41.1372  Q-1.5, -41.2086 -1.5, -41.28  Q-1.5, -41.3622 -1.5, -41.4444  Q-1.5, -41.5363 -1.5, -41.6283  Q-1.5, -41.7289 -1.5, -41.8295  Q-1.5, -41.9375 -1.5, -42.0455  Q-1.5, -42.1594 -1.5, -42.2734  Q-1.5, -42.3919 -1.5, -42.5105  Q-1.5, -42.7528 -1.5, -43 " /><path d="M-1.5, -49 L-1.5, -49.5038  L-1.5, -50.0013  L-1.5, -50.4863  L-1.5, -50.9525  L-1.5, -51.3941  L-1.5, -51.8057  L-1.5, -52.182  L-1.5, -52.5182  L-1.5, -52.8103  L-1.5, -53.0544  L-1.5, -53.2475  L-1.5, -53.3872  L-1.5, -53.4717  L-1.5, -53.5 " /><path d="M-1.5, -53.5 L-1.5, -53.3872  L-1.5, -53.0544  L-1.5, -52.5182  L-1.5, -51.8057  L-1.5, -50.9525  L-1.5, -50.0013  L-1.5, -49  L-1.5, -47.9987  L-1.5, -47.0475  L-1.5, -46.1943  L-1.5, -45.4818  L-1.5, -44.9456  L-1.5, -44.6128  L-1.5, -44.5 " /><path d="M-1.5, -44.5 Q-1.5, -44.5141 -1.5, -44.5283  Q-1.5, -44.5706 -1.5, -44.6128  Q-1.5, -44.6827 -1.5, -44.7525  Q-1.5, -44.8491 -1.5, -44.9456  Q-1.5, -45.0677 -1.5, -45.1897  Q-1.5, -45.3357 -1.5, -45.4818  Q-1.5, -45.6499 -1.5, -45.818  Q-1.5, -46.0062 -1.5, -46.1943  Q-1.5, -46.4001 -1.5, -46.6059  Q-1.5, -46.8267 -1.5, -47.0475  Q-1.5, -47.2806 -1.5, -47.5137  Q-1.5, -47.7562 -1.5, -47.9987  Q-1.5, -48.4944 -1.5, -49 " /><path d="M-1.5, -43 Q-1.5, -43.1232 -1.5, -43.2463  Q-1.5, -43.4913 -1.5, -43.7266  Q-1.5, -43.8406 -1.5, -43.9545  Q-1.5, -44.0625 -1.5, -44.1705  Q-1.5, -44.2711 -1.5, -44.3717  Q-1.5, -44.4637 -1.5, -44.5556  Q-1.5, -44.6378 -1.5, -44.72  Q-1.5, -44.7914 -1.5, -44.8628  Q-1.5, -44.9225 -1.5, -44.9821  Q-1.5, -45.0293 -1.5, -45.0765  Q-1.5, -45.1107 -1.5, -45.1448  Q-1.5, -45.1655 -1.5, -45.1862  Q-1.5, -45.1931 -1.5, -45.2 " /><path d="M-1.5, -45.2 L-1.5, -45.1448  L-1.5, -44.9821  L-1.5, -44.72  L-1.5, -44.3717  L-1.5, -43.9545  L-1.5, -43.4895  L-1.5, -43  L-1.5, -42.5105  L-1.5, -42.0455  L-1.5, -41.6283  L-1.5, -41.28  L-1.5, -41.0179  L-1.5, -40.8552  L-1.5, -40.8 " /><path d="M-1.5, -40.8 Q-1.5, -40.8069 -1.5, -40.8138  Q-1.5, -40.8345 -1.5, -40.8552  Q-1.5, -40.8893 -1.5, -40.9235  Q-1.5, -40.9707 -1.5, -41.0179  Q-1.5, -41.0775 -1.5, -41.1372  Q-1.5, -41.2086 -1.5, -41.28  Q-1.5, -41.3622 -1.5, -41.4444  Q-1.5, -41.5363 -1.5, -41.6283  Q-1.5, -41.7289 -1.5, -41.8295  Q-1.5, -41.9375 -1.5, -42.0455  Q-1.5, -42.1594 -1.5, -42.2734  Q-1.5, -42.3919 -1.5, -42.5105  Q-1.5, -42.7528 -1.5, -43 " /><path d="M-1.5, 38 Q-1.5, 37.8768 -1.5, 37.7537  Q-1.5, 37.5087 -1.5, 37.2734  Q-1.5, 37.1594 -1.5, 37.0455  Q-1.5, 36.9375 -1.5, 36.8295  Q-1.5, 36.7289 -1.5, 36.6283  Q-1.5, 36.5363 -1.5, 36.4444  Q-1.5, 36.3622 -1.5, 36.28  Q-1.5, 36.2086 -1.5, 36.1372  Q-1.5, 36.0775 -1.5, 36.0179  Q-1.5, 35.9707 -1.5, 35.9235  Q-1.5, 35.8893 -1.5, 35.8552  Q-1.5, 35.8345 -1.5, 35.8138  Q-1.5, 35.8069 -1.5, 35.8 " /><path d="M-1.5, 35.8 L-1.5, 35.8552  L-1.5, 36.0179  L-1.5, 36.28  L-1.5, 36.6283  L-1.5, 37.0455  L-1.5, 37.5105  L-1.5, 41.4268 " /><path d="M-1.5, 40.2 Q-1.5, 40.1931 -1.5, 40.1862  Q-1.5, 40.1655 -1.5, 40.1448  Q-1.5, 40.1107 -1.5, 40.0765  Q-1.5, 40.0293 -1.5, 39.9821  Q-1.5, 39.9225 -1.5, 39.8628  Q-1.5, 39.7914 -1.5, 39.72  Q-1.5, 39.6378 -1.5, 39.5556  Q-1.5, 39.4637 -1.5, 39.3717  Q-1.5, 39.2711 -1.5, 39.1705  Q-1.5, 39.0625 -1.5, 38.9545  Q-1.5, 38.8406 -1.5, 38.7266  Q-1.5, 38.6081 -1.5, 38.4895  Q-1.5, 38.2472 -1.5, 38 " /><path d="M-1.5, 45 Q-1.5, 44.8768 -1.5, 44.7537  Q-1.5, 44.5087 -1.5, 44.2734  Q-1.5, 44.1594 -1.5, 44.0455  Q-1.5, 43.9375 -1.5, 43.8295  Q-1.5, 43.7289 -1.5, 43.6283  Q-1.5, 43.5363 -1.5, 43.4444  Q-1.5, 43.3622 -1.5, 43.28  Q-1.5, 43.2086 -1.5, 43.1372  Q-1.5, 43.0775 -1.5, 43.0179  Q-1.5, 42.9707 -1.5, 42.9235  Q-1.5, 42.8893 -1.5, 42.8552  Q-1.5, 42.8345 -1.5, 42.8138  Q-1.5, 42.8069 -1.5, 42.8 " /><path d="M-1.5, 42.8 L-1.5, 42.8552  L-1.5, 43.0179  L-1.5, 43.28  L-1.5, 43.6283  L-1.5, 44.0455  L-1.5, 44.5105  L-1.5, 45  L-1.5, 45.4895  L-1.5, 45.9545  L-1.5, 46.3717  L-1.5, 46.72  L-1.5, 46.9821  L-1.5, 47.1448  L-1.5, 47.2 " /><path d="M-1.5, 47.2 Q-1.5, 47.1931 -1.5, 47.1862  Q-1.5, 47.1655 -1.5, 47.1448  Q-1.5, 47.1107 -1.5, 47.0765  Q-1.5, 47.0293 -1.5, 46.9821  Q-1.5, 46.9225 -1.5, 46.8628  Q-1.5, 46.7914 -1.5, 46.72  Q-1.5, 46.6378 -1.5, 46.5556  Q-1.5, 46.4637 -1.5, 46.3717  Q-1.5, 46.2711 -1.5, 46.1705  Q-1.5, 46.0625 -1.5, 45.9545  Q-1.5, 45.8406 -1.5, 45.7266  Q-1.5, 45.6081 -1.5, 45.4895  Q-1.5, 45.2472 -1.5, 45 " /><path d="M-1.5, 19.4 Q-1.5, 19.2768 -1.5, 19.1537  Q-1.5, 18.9087 -1.5, 18.6734  Q-1.5, 18.5594 -1.5, 18.4455  Q-1.5, 18.3375 -1.5, 18.2295  Q-1.5, 18.1289 -1.5, 18.0283  Q-1.5, 17.9363 -1.5, 17.8444  Q-1.5, 17.7622 -1.5, 17.68  Q-1.5, 17.6086 -1.5, 17.5372  Q-1.5, 17.4775 -1.5, 17.4179  Q-1.5, 17.3707 -1.5, 17.3235  Q-1.5, 17.2893 -1.5, 17.2552  Q-1.5, 17.2345 -1.5, 17.2138  Q-1.5, 17.2069 -1.5, 17.2 " /><path d="M-1.5, 17.2 L-1.5, 17.2552  L-1.5, 17.4179  L-1.5, 17.68  L-1.5, 18.0283  L-1.5, 18.4455  L-1.5, 18.9105  L-1.5, 19.4  L-1.5, 19.8895  L-1.5, 20.3545  L-1.5, 20.7717  L-1.5, 21.12  L-1.5, 21.3821  L-1.5, 21.5448  L-1.5, 21.6 " /><path d="M-1.5, 21.6 Q-1.5, 21.5931 -1.5, 21.5862  Q-1.5, 21.5655 -1.5, 21.5448  Q-1.5, 21.5107 -1.5, 21.4765  Q-1.5, 21.4293 -1.5, 21.3821  Q-1.5, 21.3225 -1.5, 21.2628  Q-1.5, 21.1914 -1.5, 21.12  Q-1.5, 21.0378 -1.5, 20.9556  Q-1.5, 20.8637 -1.5, 20.7717  Q-1.5, 20.6711 -1.5, 20.5705  Q-1.5, 20.4625 -1.5, 20.3545  Q-1.5, 20.2406 -1.5, 20.1266  Q-1.5, 20.0081 -1.5, 19.8895  Q-1.5, 19.6472 -1.5, 19.4 " /><path d="M-1.5, -0.6 Q-1.5, -0.723161 -1.5, -0.846322  Q-1.5, -1.09127 -1.5, -1.32661  Q-1.5, -1.44058 -1.5, -1.55454  Q-1.5, -1.66251 -1.5, -1.77047  Q-1.5, -1.87107 -1.5, -1.97168  Q-1.5, -2.06366 -1.5, -2.15563  Q-1.5, -2.23783 -1.5, -2.32003  Q-1.5, -2.39141 -1.5, -2.46279  Q-1.5, -2.52246 -1.5, -2.58213  Q-1.5, -2.62934 -1.5, -2.67654  Q-1.5, -2.71069 -1.5, -2.74484  Q-1.5, -2.7655 -1.5, -2.78617  Q-1.5, -2.79308 -1.5, -2.8 " /><path d="M-1.5, -2.8 L-1.5, -2.74484  L-1.5, -2.58213  L-1.5, -2.32003  L-1.5, -1.97168  L-1.5, -1.55454  L-1.5, -1.08955  L-1.5, -0.6  L-1.5, -0.110454  L-1.5, 0.354544  L-1.5, 0.771678  L-1.5, 1.12003  L-1.5, 1.38213  L-1.5, 1.54484  L-1.5, 1.6 " /><path d="M-1.5, 1.6 Q-1.5, 1.59308 -1.5, 1.58617  Q-1.5, 1.5655 -1.5, 1.54484  Q-1.5, 1.51069 -1.5, 1.47654  Q-1.5, 1.42934 -1.5, 1.38213  Q-1.5, 1.32246 -1.5, 1.26279  Q-1.5, 1.19141 -1.5, 1.12003  Q-1.5, 1.03783 -1.5, 0.955635  Q-1.5, 0.863656 -1.5, 0.771678  Q-1.5, 0.671074 -1.5, 0.570471  Q-1.5, 0.462507 -1.5, 0.354544  Q-1.5, 0.240579 -1.5, 0.126614  Q-1.5, 0.00808 -1.5, -0.110454  Q-1.5, -0.35281 -1.5, -0.6 " /><path d="M-1.5, 19.4 Q-1.5, 19.2768 -1.5, 19.1537  Q-1.5, 18.9087 -1.5, 18.6734  Q-1.5, 18.5594 -1.5, 18.4455  Q-1.5, 18.3375 -1.5, 18.2295  Q-1.5, 18.1289 -1.5, 18.0283  Q-1.5, 17.9363 -1.5, 17.8444  Q-1.5, 17.7622 -1.5, 17.68  Q-1.5, 17.6086 -1.5, 17.5372  Q-1.5, 17.4775 -1.5, 17.4179  Q-1.5, 17.3707 -1.5, 17.3235  Q-1.5, 17.2893 -1.5, 17.2552  Q-1.5, 17.2345 -1.5, 17.2138  Q-1.5, 17.2069 -1.5, 17.2 " /><path d="M-1.5, 17.2 L-1.5, 17.2552  L-1.5, 17.4179  L-1.5, 17.68  L-1.5, 18.0283  L-1.5, 18.4455  L-1.5, 18.9105  L-1.5, 19.4  L-1.5, 19.8895  L-1.5, 20.3545  L-1.5, 20.7717  L-1.5, 21.12  L-1.5, 21.3821  L-1.5, 21.5448  L-1.5, 21.6 " /><path d="M-1.5, 21.6 Q-1.5, 21.5931 -1.5, 21.5862  Q-1.5, 21.5655 -1.5, 21.5448  Q-1.5, 21.5107 -1.5, 21.4765  Q-1.5, 21.4293 -1.5, 21.3821  Q-1.5, 21.3225 -1.5, 21.2628  Q-1.5, 21.1914 -1.5, 21.12  Q-1.5, 21.0378 -1.5, 20.9556  Q-1.5, 20.8637 -1.5, 20.7717  Q-1.5, 20.6711 -1.5, 20.5705  Q-1.5, 20.4625 -1.5, 20.3545  Q-1.5, 20.2406 -1.5, 20.1266  Q-1.5, 20.0081 -1.5, 19.8895  Q-1.5, 19.6472 -1.5, 19.4 " /><path d="M-1.5, 9.4 L-1.5, 8.50428  L-1.5, 7.61983  L-1.5, 6.75777  L-1.5, 5.92893  L-1.5, 5.14374  L-1.5, 4.41208  L-1.5, 3.74315  L-1.5, 3.14535  L-1.5, 2.62621  L-1.5, 2.19225  L-1.5, 1.84893  L-1.5, 1.60058  L-1.5, 1.4503  L-1.5, 1.4 " /><path d="M-1.5, 1.4 L-1.5, 1.60058  L-1.5, 2.19225  L-1.5, 3.14535  L-1.5, 4.41208  L-1.5, 5.92893  L-1.5, 7.61983  L-1.5, 9.4  L-1.5, 11.1802  L-1.5, 12.8711  L-1.5, 14.3879  L-1.5, 15.6547  L-1.5, 16.6078  L-1.5, 17.1994  L-1.5, 17.4 " /><path d="M-1.5, 17.4 L-1.5, 17.3497  L-1.5, 17.1994  L-1.5, 16.9511  L-1.5, 16.6078  L-1.5, 16.1738  L-1.5, 15.6547  L-1.5, 15.0569  L-1.5, 14.3879  L-1.5, 13.6563  L-1.5, 12.8711  L-1.5, 12.0422  L-1.5, 11.1802  L-1.5, 10.2957  L-1.5, 9.4 " /><path d="M-1.5, -0.6 Q-1.5, -0.723161 -1.5, -0.846322  Q-1.5, -1.09127 -1.5, -1.32661  Q-1.5, -1.44058 -1.5, -1.55454  Q-1.5, -1.66251 -1.5, -1.77047  Q-1.5, -1.87107 -1.5, -1.97168  Q-1.5, -2.06366 -1.5, -2.15563  Q-1.5, -2.23783 -1.5, -2.32003  Q-1.5, -2.39141 -1.5, -2.46279  Q-1.5, -2.52246 -1.5, -2.58213  Q-1.5, -2.62934 -1.5, -2.67654  Q-1.5, -2.71069 -1.5, -2.74484  Q-1.5, -2.7655 -1.5, -2.78617  Q-1.5, -2.79308 -1.5, -2.8 " /><path d="M-1.5, -2.8 L-1.5, -2.74484  L-1.5, -2.58213  L-1.5, -2.32003  L-1.5, -1.97168  L-1.5, -1.55454  L-1.5, -1.08955  L-1.5, -0.6  L-1.5, -0.110454  L-1.5, 0.354544  L-1.5, 0.771678  L-1.5, 1.12003  L-1.5, 1.38213  L-1.5, 1.54484  L-1.5, 1.6 " /><path d="M-1.5, 1.6 Q-1.5, 1.59308 -1.5, 1.58617  Q-1.5, 1.5655 -1.5, 1.54484  Q-1.5, 1.51069 -1.5, 1.47654  Q-1.5, 1.42934 -1.5, 1.38213  Q-1.5, 1.32246 -1.5, 1.26279  Q-1.5, 1.19141 -1.5, 1.12003  Q-1.5, 1.03783 -1.5, 0.955635  Q-1.5, 0.863656 -1.5, 0.771678  Q-1.5, 0.671074 -1.5, 0.570471  Q-1.5, 0.462507 -1.5, 0.354544  Q-1.5, 0.240579 -1.5, 0.126614  Q-1.5, 0.00808 -1.5, -0.110454  Q-1.5, -0.35281 -1.5, -0.6 " /><path id= "71" d=" M -1.5 38 L 1.5 38 " />
<path d="M1.5, 55 Q1.5, 54.6841 1.5, 54.3682  Q1.5, 53.7279 1.5, 53.092  Q1.5, 52.7802 1.5, 52.4685  Q1.5, 52.1685 1.5, 51.8685  Q1.5, 51.5851 1.5, 51.3017  Q1.5, 51.0396 1.5, 50.7775  Q1.5, 50.541 1.5, 50.3044  Q1.5, 50.0973 1.5, 49.8902  Q1.5, 49.7159 1.5, 49.5416  Q1.5, 49.403 1.5, 49.2644  Q1.5, 49.1637 1.5, 49.0631  Q1.5, 49.002 1.5, 48.9409  Q1.5, 48.9205 1.5, 48.9 " /><path d="M1.5, 48.9 Q1.5, 48.9157 1.5, 48.9314  Q1.5, 48.9784 1.5, 49.0254  Q1.5, 49.103 1.5, 49.1806  Q1.5, 49.2879 1.5, 49.3952  Q1.5, 49.5308 1.5, 49.6664  Q1.5, 49.8286 1.5, 49.9908  Q1.5, 50.1777 1.5, 50.3645  Q1.5, 50.5735 1.5, 50.7826  Q1.5, 51.0112 1.5, 51.2398  Q1.5, 51.4852 1.5, 51.7306  Q1.5, 51.9896 1.5, 52.2486  Q1.5, 52.518 1.5, 52.7874  Q1.5, 53.3382 1.5, 53.9 " /><path d="M1.5, 53.9 Q1.5, 54.4568 1.5, 55 " /><path d="M1.5, 55 L1.5, 54.7862  L1.5, 54.5055  L1.5, 54.1686  L1.5, 53.7879  L1.5, 53.3778  L1.5, 52.531  L1.5, 52.126  L1.5, 51.7537  L1.5, 51.428  L1.5, 51.1611  L1.5, 50.963  L1.5, 50.8411  L1.5, 50.8 " /><path d="M1.5, 50.8 Q1.5, 50.8069 1.5, 50.8138  Q1.5, 50.8345 1.5, 50.8552  Q1.5, 50.8893 1.5, 50.9235  Q1.5, 50.9707 1.5, 51.0179  Q1.5, 51.0775 1.5, 51.1372  Q1.5, 51.2086 1.5, 51.28  Q1.5, 51.3622 1.5, 51.4444  Q1.5, 51.5363 1.5, 51.6283  Q1.5, 51.7289 1.5, 51.8295  Q1.5, 51.9375 1.5, 52.0455  Q1.5, 52.1594 1.5, 52.2734  Q1.5, 52.3919 1.5, 52.5105  Q1.5, 52.7528 1.5, 53 " /><path d="M1.5, 53 C1.5, 53.4188 1.5, 53.835 1.5, 54.1882  C1.5, 54.2371 1.5, 54.2861 1.5, 54.335  C1.5, 54.381 1.5, 54.427 1.5, 54.4729  C1.5, 54.5157 1.5, 54.5584 1.5, 54.6011  C1.5, 54.6403 1.5, 54.6795 1.5, 54.7186  C1.5, 54.754 1.5, 54.7894 1.5, 54.8247  C1.5, 54.8561 1.5, 54.8874 1.5, 54.9187  C1.5, 54.9458 1.5, 54.9729 1.5, 55 " /><path d="M1.5, 55 Q1.5, 54.8522 1.5, 54.7045  Q1.5, 54.5492 1.5, 54.394  Q1.5, 54.2345 1.5, 54.0751  Q1.5, 53.7532 1.5, 53.4394  Q1.5, 53.2877 1.5, 53.1361  Q1.5, 52.9936 1.5, 52.8511  Q1.5, 52.7208 1.5, 52.5905  Q1.5, 52.4752 1.5, 52.3599  Q1.5, 52.262 1.5, 52.1642  Q1.5, 52.0858 1.5, 52.0074  Q1.5, 51.9502 1.5, 51.893  Q1.5, 51.8582 1.5, 51.8234  Q1.5, 51.8117 1.5, 51.8 " /><path d="M1.5, 51.8 Q1.5, 51.8069 1.5, 51.8138  Q1.5, 51.8345 1.5, 51.8552  Q1.5, 51.8893 1.5, 51.9235  Q1.5, 51.9707 1.5, 52.0179  Q1.5, 52.0775 1.5, 52.1372  Q1.5, 52.2086 1.5, 52.28  Q1.5, 52.3622 1.5, 52.4444  Q1.5, 52.5363 1.5, 52.6283  Q1.5, 52.7289 1.5, 52.8295  Q1.5, 52.9375 1.5, 53.0455  Q1.5, 53.1594 1.5, 53.2734  Q1.5, 53.3919 1.5, 53.5105  Q1.5, 53.7528 1.5, 54 " /><path d="M1.5, 54 C1.5, 54.3461 1.5, 54.6917 1.5, 55 " /><path d="M1.5, 55 L1.5, 54.7862  L1.5, 54.5055  L1.5, 54.1686  L1.5, 53.7879  L1.5, 53.3778  L1.5, 52.531  L1.5, 52.126  L1.5, 51.7537  L1.5, 51.428  L1.5, 51.1611  L1.5, 50.963  L1.5, 50.8411  L1.5, 50.8 " /><path d="M1.5, 50.8 Q1.5, 50.8069 1.5, 50.8138  Q1.5, 50.8345 1.5, 50.8552  Q1.5, 50.8893 1.5, 50.9235  Q1.5, 50.9707 1.5, 51.0179  Q1.5, 51.0775 1.5, 51.1372  Q1.5, 51.2086 1.5, 51.28  Q1.5, 51.3622 1.5, 51.4444  Q1.5, 51.5363 1.5, 51.6283  Q1.5, 51.7289 1.5, 51.8295  Q1.5, 51.9375 1.5, 52.0455  Q1.5, 52.1594 1.5, 52.2734  Q1.5, 52.3919 1.5, 52.5105  Q1.5, 52.7528 1.5, 53 " /><path d="M1.5, 53 C1.5, 53.4188 1.5, 53.835 1.5, 54.1882  C1.5, 54.2371 1.5, 54.2861 1.5, 54.335  C1.5, 54.381 1.5, 54.427 1.5, 54.4729  C1.5, 54.5157 1.5, 54.5584 1.5, 54.6011  C1.5, 54.6403 1.5, 54.6795 1.5, 54.7186  C1.5, 54.754 1.5, 54.7894 1.5, 54.8247  C1.5, 54.8561 1.5, 54.8874 1.5, 54.9187  C1.5, 54.9458 1.5, 54.9729 1.5, 55 " /><path d="M1.5, -55 Q1.5, -54.8768 1.5, -54.7537  Q1.5, -54.5087 1.5, -54.2734  Q1.5, -54.1594 1.5, -54.0455  Q1.5, -53.9375 1.5, -53.8295  Q1.5, -53.7289 1.5, -53.6283  Q1.5, -53.5363 1.5, -53.4444  Q1.5, -53.3622 1.5, -53.28  Q1.5, -53.2086 1.5, -53.1372  Q1.5, -53.0775 1.5, -53.0179  Q1.5, -52.9707 1.5, -52.9235  Q1.5, -52.8893 1.5, -52.8552  Q1.5, -52.8345 1.5, -52.8138  Q1.5, -52.8069 1.5, -52.8 " /><path d="M1.5, -52.8 Q1.5, -52.8069 1.5, -52.8138  Q1.5, -52.8345 1.5, -52.8552  Q1.5, -52.8893 1.5, -52.9235  Q1.5, -52.9707 1.5, -53.0179  Q1.5, -53.0775 1.5, -53.1372  Q1.5, -53.2086 1.5, -53.28  Q1.5, -53.3622 1.5, -53.4444  Q1.5, -53.5363 1.5, -53.6283  Q1.5, -53.7289 1.5, -53.8295  Q1.5, -53.9375 1.5, -54.0455  Q1.5, -54.1594 1.5, -54.2734  Q1.5, -54.3919 1.5, -54.5105  Q1.5, -54.7528 1.5, -55 " /><path d="M1.5, -55 Q1.5, -54.8768 1.5, -54.7537  Q1.5, -54.5087 1.5, -54.2734  Q1.5, -54.1594 1.5, -54.0455  Q1.5, -53.9375 1.5, -53.8295  Q1.5, -53.7289 1.5, -53.6283  Q1.5, -53.5363 1.5, -53.4444  Q1.5, -53.3622 1.5, -53.28  Q1.5, -53.2086 1.5, -53.1372  Q1.5, -53.0775 1.5, -53.0179  Q1.5, -52.9707 1.5, -52.9235  Q1.5, -52.8893 1.5, -52.8552  Q1.5, -52.8345 1.5, -52.8138  Q1.5, -52.8069 1.5, -52.8 " /><path d="M1.5, -52.8 Q1.5, -52.8069 1.5, -52.8138  Q1.5, -52.8345 1.5, -52.8552  Q1.5, -52.8893 1.5, -52.9235  Q1.5, -52.9707 1.5, -53.0179  Q1.5, -53.0775 1.5, -53.1372  Q1.5, -53.2086 1.5, -53.28  Q1.5, -53.3622 1.5, -53.4444  Q1.5, -53.5363 1.5, -53.6283  Q1.5, -53.7289 1.5, -53.8295  Q1.5, -53.9375 1.5, -54.0455  Q1.5, -54.1594 1.5, -54.2734  Q1.5, -54.3919 1.5, -54.5105  Q1.5, -54.7528 1.5, -55 " /><path id= "88" d=" M 1.5 31 L 1.5 -55 " />
<path id= "89" d=" M 1.5 31 L 1.5 38 " />
<path d="M1.5, 3.2 C1.5, 3.39099 1.5, 3.58019 1.5, 3.76147  C1.5, 3.82018 1.5, 3.87889 1.5, 3.9376  C1.5, 3.99322 1.5, 4.04884 1.5, 4.10445  C1.5, 4.15628 1.5, 4.20811 1.5, 4.25993  C1.5, 4.30732 1.5, 4.3547 1.5, 4.40208  C1.5, 4.44443 1.5, 4.48677 1.5, 4.52911  C1.5, 4.56589 1.5, 4.60266 1.5, 4.63943  C1.5, 4.67017 1.5, 4.70091 1.5, 4.73165  C1.5, 4.75597 1.5, 4.78028 1.5, 4.8046  C1.5, 4.82219 1.5, 4.83979 1.5, 4.85738  C1.5, 4.86802 1.5, 4.87867 1.5, 4.88931  C1.5, 4.89287 1.5, 4.89644 1.5, 4.9 " /><path d="M1.5, 4.9 L1.5, 4.85738  L1.5, 4.73165  L1.5, 4.52911  L1.5, 4.25993  L1.5, 3.9376  L1.5, 3.57829  L1.5, 3.2  L1.5, 2.82171  L1.5, 2.4624  L1.5, 2.14007  L1.5, 1.87089  L1.5, 1.66835  L1.5, 1.54262  L1.5, 1.5 " /><path d="M1.5, 1.5 Q1.5, 1.50534 1.5, 1.51069  Q1.5, 1.52666 1.5, 1.54262  Q1.5, 1.56901 1.5, 1.5954  Q1.5, 1.63188 1.5, 1.66835  Q1.5, 1.71446 1.5, 1.76057  Q1.5, 1.81573 1.5, 1.87089  Q1.5, 1.9344 1.5, 1.99792  Q1.5, 2.06899 1.5, 2.14007  Q1.5, 2.21781 1.5, 2.29555  Q1.5, 2.37897 1.5, 2.4624  Q1.5, 2.63655 1.5, 2.82171  Q1.5, 3.00899 1.5, 3.2 " /><path d="M1.5, 3.2 C1.5, 3.39099 1.5, 3.58019 1.5, 3.76147  C1.5, 3.82018 1.5, 3.87889 1.5, 3.9376  C1.5, 3.99322 1.5, 4.04884 1.5, 4.10445  C1.5, 4.15628 1.5, 4.20811 1.5, 4.25993  C1.5, 4.30732 1.5, 4.3547 1.5, 4.40208  C1.5, 4.44443 1.5, 4.48677 1.5, 4.52911  C1.5, 4.56589 1.5, 4.60266 1.5, 4.63943  C1.5, 4.67017 1.5, 4.70091 1.5, 4.73165  C1.5, 4.75597 1.5, 4.78028 1.5, 4.8046  C1.5, 4.82219 1.5, 4.83979 1.5, 4.85738  C1.5, 4.86802 1.5, 4.87867 1.5, 4.88931  C1.5, 4.89287 1.5, 4.89644 1.5, 4.9 " /><path d="M1.5, 4.9 L1.5, 4.85738  L1.5, 4.73165  L1.5, 4.52911  L1.5, 4.25993  L1.5, 3.9376  L1.5, 3.57829  L1.5, 3.2  L1.5, 2.82171  L1.5, 2.4624  L1.5, 2.14007  L1.5, 1.87089  L1.5, 1.66835  L1.5, 1.54262  L1.5, 1.5 " /><path d="M1.5, 1.5 Q1.5, 1.50534 1.5, 1.51069  Q1.5, 1.52666 1.5, 1.54262  Q1.5, 1.56901 1.5, 1.5954  Q1.5, 1.63188 1.5, 1.66835  Q1.5, 1.71446 1.5, 1.76057  Q1.5, 1.81573 1.5, 1.87089  Q1.5, 1.9344 1.5, 1.99792  Q1.5, 2.06899 1.5, 2.14007  Q1.5, 2.21781 1.5, 2.29555  Q1.5, 2.37897 1.5, 2.4624  Q1.5, 2.63655 1.5, 2.82171  Q1.5, 3.00899 1.5, 3.2 " /><path d="M1.5, 45 Q1.5, 45.1232 1.5, 45.2463  Q1.5, 45.4913 1.5, 45.7266  Q1.5, 45.8406 1.5, 45.9545  Q1.5, 46.0625 1.5, 46.1705  Q1.5, 46.2711 1.5, 46.3717  Q1.5, 46.4637 1.5, 46.5556  Q1.5, 46.6378 1.5, 46.72  Q1.5, 46.7914 1.5, 46.8628  Q1.5, 46.9225 1.5, 46.9821  Q1.5, 47.0293 1.5, 47.0765  Q1.5, 47.1107 1.5, 47.1448  Q1.5, 47.1655 1.5, 47.1862  Q1.5, 47.1931 1.5, 47.2 " /><path d="M1.5, 47.2 L1.5, 47.1448  L1.5, 46.9821  L1.5, 46.72  L1.5, 46.3717  L1.5, 45.9545  L1.5, 45.4895  L1.5, 45  L1.5, 44.5105  L1.5, 44.0455  L1.5, 43.6283  L1.5, 43.28  L1.5, 43.0179  L1.5, 42.8552  L1.5, 42.8 " /><path d="M1.5, 42.8 Q1.5, 42.8069 1.5, 42.8138  Q1.5, 42.8345 1.5, 42.8552  Q1.5, 42.8893 1.5, 42.9235  Q1.5, 42.9707 1.5, 43.0179  Q1.5, 43.0775 1.5, 43.1372  Q1.5, 43.2086 1.5, 43.28  Q1.5, 43.3622 1.5, 43.4444  Q1.5, 43.5363 1.5, 43.6283  Q1.5, 43.7289 1.5, 43.8295  Q1.5, 43.9375 1.5, 44.0455  Q1.5, 44.1594 1.5, 44.2734  Q1.5, 44.3919 1.5, 44.5105  Q1.5, 44.7528 1.5, 45 " /><path d="M1.5, -14.8 C1.5, -14.609 1.5, -14.4198 1.5, -14.2385  C1.5, -14.1798 1.5, -14.1211 1.5, -14.0624  C1.5, -14.0068 1.5, -13.9512 1.5, -13.8955  C1.5, -13.8437 1.5, -13.7919 1.5, -13.7401  C1.5, -13.6927 1.5, -13.6453 1.5, -13.5979  C1.5, -13.5556 1.5, -13.5132 1.5, -13.4709  C1.5, -13.4341 1.5, -13.3973 1.5, -13.3606  C1.5, -13.3298 1.5, -13.2991 1.5, -13.2684  C1.5, -13.244 1.5, -13.2197 1.5, -13.1954  C1.5, -13.1778 1.5, -13.1602 1.5, -13.1426  C1.5, -13.132 1.5, -13.1213 1.5, -13.1107  C1.5, -13.1071 1.5, -13.1036 1.5, -13.1 " /><path d="M1.5, -13.1 L1.5, -13.1426  L1.5, -13.2684  L1.5, -13.4709  L1.5, -13.7401  L1.5, -14.0624  L1.5, -14.4217  L1.5, -14.8  L1.5, -15.1783  L1.5, -15.5376  L1.5, -15.8599  L1.5, -16.1291  L1.5, -16.3316  L1.5, -16.4574  L1.5, -16.5 " /><path d="M1.5, -16.5 Q1.5, -16.4947 1.5, -16.4893  Q1.5, -16.4733 1.5, -16.4574  Q1.5, -16.431 1.5, -16.4046  Q1.5, -16.3681 1.5, -16.3316  Q1.5, -16.2855 1.5, -16.2394  Q1.5, -16.1843 1.5, -16.1291  Q1.5, -16.0656 1.5, -16.0021  Q1.5, -15.931 1.5, -15.8599  Q1.5, -15.7822 1.5, -15.7045  Q1.5, -15.621 1.5, -15.5376  Q1.5, -15.3635 1.5, -15.1783  Q1.5, -14.991 1.5, -14.8 " /><path d="M1.5, -5.8 L1.5, -4.8483  L1.5, -3.90857  L1.5, -2.99263  L1.5, -2.11199  L1.5, -1.27773  L1.5, -0.500337  L1.5, 0.210408  L1.5, 0.845568  L1.5, 1.39716  L1.5, 1.85824  L1.5, 2.22301  L1.5, 2.48689  L1.5, 2.64655  L1.5, 2.7 " /><path d="M1.5, 2.7 L1.5, 2.48689  L1.5, 1.85824  L1.5, 0.845568  L1.5, -0.500337  L1.5, -2.11199  L1.5, -3.90857  L1.5, -5.8  L1.5, -7.69143  L1.5, -9.48801  L1.5, -11.0997  L1.5, -12.4456  L1.5, -13.4582  L1.5, -14.0869  L1.5, -14.3 " /><path d="M1.5, -14.3 L1.5, -14.2466  L1.5, -14.0869  L1.5, -13.823  L1.5, -13.4582  L1.5, -12.9972  L1.5, -12.4456  L1.5, -11.8104  L1.5, -11.0997  L1.5, -10.3223  L1.5, -9.48801  L1.5, -8.60737  L1.5, -7.69143  L1.5, -6.7517  L1.5, -5.8 " /><path d="M1.5, -14.8 C1.5, -14.609 1.5, -14.4198 1.5, -14.2385  C1.5, -14.1798 1.5, -14.1211 1.5, -14.0624  C1.5, -14.0068 1.5, -13.9512 1.5, -13.8955  C1.5, -13.8437 1.5, -13.7919 1.5, -13.7401  C1.5, -13.6927 1.5, -13.6453 1.5, -13.5979  C1.5, -13.5556 1.5, -13.5132 1.5, -13.4709  C1.5, -13.4341 1.5, -13.3973 1.5, -13.3606  C1.5, -13.3298 1.5, -13.2991 1.5, -13.2684  C1.5, -13.244 1.5, -13.2197 1.5, -13.1954  C1.5, -13.1778 1.5, -13.1602 1.5, -13.1426  C1.5, -13.132 1.5, -13.1213 1.5, -13.1107  C1.5, -13.1071 1.5, -13.1036 1.5, -13.1 " /><path d="M1.5, -13.1 L1.5, -13.1426  L1.5, -13.2684  L1.5, -13.4709  L1.5, -13.7401  L1.5, -14.0624  L1.5, -14.4217  L1.5, -14.8  L1.5, -15.1783  L1.5, -15.5376  L1.5, -15.8599  L1.5, -16.1291  L1.5, -16.3316  L1.5, -16.4574  L1.5, -16.5 " /><path d="M1.5, -16.5 Q1.5, -16.4947 1.5, -16.4893  Q1.5, -16.4733 1.5, -16.4574  Q1.5, -16.431 1.5, -16.4046  Q1.5, -16.3681 1.5, -16.3316  Q1.5, -16.2855 1.5, -16.2394  Q1.5, -16.1843 1.5, -16.1291  Q1.5, -16.0656 1.5, -16.0021  Q1.5, -15.931 1.5, -15.8599  Q1.5, -15.7822 1.5, -15.7045  Q1.5, -15.621 1.5, -15.5376  Q1.5, -15.3635 1.5, -15.1783  Q1.5, -14.991 1.5, -14.8 " /><path d="M1.5, -43 Q1.5, -42.8768 1.5, -42.7537  Q1.5, -42.5087 1.5, -42.2734  Q1.5, -42.1594 1.5, -42.0455  Q1.5, -41.9375 1.5, -41.8295  Q1.5, -41.7289 1.5, -41.6283  Q1.5, -41.5363 1.5, -41.4444  Q1.5, -41.3622 1.5, -41.28  Q1.5, -41.2086 1.5, -41.1372  Q1.5, -41.0775 1.5, -41.0179  Q1.5, -40.9707 1.5, -40.9235  Q1.5, -40.8893 1.5, -40.8552  Q1.5, -40.8345 1.5, -40.8138  Q1.5, -40.8069 1.5, -40.8 " /><path d="M1.5, -40.8 L1.5, -40.8552  L1.5, -41.0179  L1.5, -41.28  L1.5, -41.6283  L1.5, -42.0455  L1.5, -42.5105  L1.5, -43  L1.5, -43.4895  L1.5, -43.9545  L1.5, -44.3717  L1.5, -44.72  L1.5, -44.9821  L1.5, -45.1448  L1.5, -45.2 " /><path d="M1.5, -45.2 Q1.5, -45.1931 1.5, -45.1862  Q1.5, -45.1655 1.5, -45.1448  Q1.5, -45.1107 1.5, -45.0765  Q1.5, -45.0293 1.5, -44.9821  Q1.5, -44.9225 1.5, -44.8628  Q1.5, -44.7914 1.5, -44.72  Q1.5, -44.6378 1.5, -44.5556  Q1.5, -44.4637 1.5, -44.3717  Q1.5, -44.2711 1.5, -44.1705  Q1.5, -44.0625 1.5, -43.9545  Q1.5, -43.8406 1.5, -43.7266  Q1.5, -43.6081 1.5, -43.4895  Q1.5, -43.2472 1.5, -43 " /><path d="M1.5, -49 L1.5, -48.4962  L1.5, -47.9987  L1.5, -47.5137  L1.5, -47.0475  L1.5, -46.6059  L1.5, -46.1943  L1.5, -45.818  L1.5, -45.4818  L1.5, -45.1897  L1.5, -44.9456  L1.5, -44.7525  L1.5, -44.6128  L1.5, -44.5283  L1.5, -44.5 " /><path d="M1.5, -44.5 L1.5, -44.6128  L1.5, -44.9456  L1.5, -45.4818  L1.5, -46.1943  L1.5, -47.0475  L1.5, -47.9987  L1.5, -49  L1.5, -50.0013  L1.5, -50.9525  L1.5, -51.8057  L1.5, -52.5182  L1.5, -53.0544  L1.5, -53.3872  L1.5, -53.5 " /><path d="M1.5, -53.5 Q1.5, -53.4859 1.5, -53.4717  Q1.5, -53.4294 1.5, -53.3872  Q1.5, -53.3173 1.5, -53.2475  Q1.5, -53.1509 1.5, -53.0544  Q1.5, -52.9323 1.5, -52.8103  Q1.5, -52.6643 1.5, -52.5182  Q1.5, -52.3501 1.5, -52.182  Q1.5, -51.9938 1.5, -51.8057  Q1.5, -51.5999 1.5, -51.3941  Q1.5, -51.1733 1.5, -50.9525  Q1.5, -50.7194 1.5, -50.4863  Q1.5, -50.2438 1.5, -50.0013  Q1.5, -49.5056 1.5, -49 " /><path d="M1.5, -43 Q1.5, -42.8768 1.5, -42.7537  Q1.5, -42.5087 1.5, -42.2734  Q1.5, -42.1594 1.5, -42.0455  Q1.5, -41.9375 1.5, -41.8295  Q1.5, -41.7289 1.5, -41.6283  Q1.5, -41.5363 1.5, -41.4444  Q1.5, -41.3622 1.5, -41.28  Q1.5, -41.2086 1.5, -41.1372  Q1.5, -41.0775 1.5, -41.0179  Q1.5, -40.9707 1.5, -40.9235  Q1.5, -40.8893 1.5, -40.8552  Q1.5, -40.8345 1.5, -40.8138  Q1.5, -40.8069 1.5, -40.8 " /><path d="M1.5, -40.8 L1.5, -40.8552  L1.5, -41.0179  L1.5, -41.28  L1.5, -41.6283  L1.5, -42.0455  L1.5, -42.5105  L1.5, -43  L1.5, -43.4895  L1.5, -43.9545  L1.5, -44.3717  L1.5, -44.72  L1.5, -44.9821  L1.5, -45.1448  L1.5, -45.2 " /><path d="M1.5, -45.2 Q1.5, -45.1931 1.5, -45.1862  Q1.5, -45.1655 1.5, -45.1448  Q1.5, -45.1107 1.5, -45.0765  Q1.5, -45.0293 1.5, -44.9821  Q1.5, -44.9225 1.5, -44.8628  Q1.5, -44.7914 1.5, -44.72  Q1.5, -44.6378 1.5, -44.5556  Q1.5, -44.4637 1.5, -44.3717  Q1.5, -44.2711 1.5, -44.1705  Q1.5, -44.0625 1.5, -43.9545  Q1.5, -43.8406 1.5, -43.7266  Q1.5, -43.6081 1.5, -43.4895  Q1.5, -43.2472 1.5, -43 " /><path d="M1.5, 38 Q1.5, 38.1232 1.5, 38.2463  Q1.5, 38.4913 1.5, 38.7266  Q1.5, 38.8406 1.5, 38.9545  Q1.5, 39.0625 1.5, 39.1705  Q1.5, 39.2711 1.5, 39.3717  Q1.5, 39.4637 1.5, 39.5556  Q1.5, 39.6378 1.5, 39.72  Q1.5, 39.7914 1.5, 39.8628  Q1.5, 39.9225 1.5, 39.9821  Q1.5, 40.0293 1.5, 40.0765  Q1.5, 40.1107 1.5, 40.1448  Q1.5, 40.1655 1.5, 40.1862  Q1.5, 40.1931 1.5, 40.2 " /><path d="M1.5, 41.4268 L1.5, 37.5105  L1.5, 37.0455  L1.5, 36.6283  L1.5, 36.28  L1.5, 36.0179  L1.5, 35.8552  L1.5, 35.8 " /><path d="M1.5, 35.8 Q1.5, 35.8069 1.5, 35.8138  Q1.5, 35.8345 1.5, 35.8552  Q1.5, 35.8893 1.5, 35.9235  Q1.5, 35.9707 1.5, 36.0179  Q1.5, 36.0775 1.5, 36.1372  Q1.5, 36.2086 1.5, 36.28  Q1.5, 36.3622 1.5, 36.4444  Q1.5, 36.5363 1.5, 36.6283  Q1.5, 36.7289 1.5, 36.8295  Q1.5, 36.9375 1.5, 37.0455  Q1.5, 37.1594 1.5, 37.2734  Q1.5, 37.3919 1.5, 37.5105  Q1.5, 37.7528 1.5, 38 " /><path d="M1.5, 45 Q1.5, 45.1232 1.5, 45.2463  Q1.5, 45.4913 1.5, 45.7266  Q1.5, 45.8406 1.5, 45.9545  Q1.5, 46.0625 1.5, 46.1705  Q1.5, 46.2711 1.5, 46.3717  Q1.5, 46.4637 1.5, 46.5556  Q1.5, 46.6378 1.5, 46.72  Q1.5, 46.7914 1.5, 46.8628  Q1.5, 46.9225 1.5, 46.9821  Q1.5, 47.0293 1.5, 47.0765  Q1.5, 47.1107 1.5, 47.1448  Q1.5, 47.1655 1.5, 47.1862  Q1.5, 47.1931 1.5, 47.2 " /><path d="M1.5, 47.2 L1.5, 47.1448  L1.5, 46.9821  L1.5, 46.72  L1.5, 46.3717  L1.5, 45.9545  L1.5, 45.4895  L1.5, 45  L1.5, 44.5105  L1.5, 44.0455  L1.5, 43.6283  L1.5, 43.28  L1.5, 43.0179  L1.5, 42.8552  L1.5, 42.8 " /><path d="M1.5, 42.8 Q1.5, 42.8069 1.5, 42.8138  Q1.5, 42.8345 1.5, 42.8552  Q1.5, 42.8893 1.5, 42.9235  Q1.5, 42.9707 1.5, 43.0179  Q1.5, 43.0775 1.5, 43.1372  Q1.5, 43.2086 1.5, 43.28  Q1.5, 43.3622 1.5, 43.4444  Q1.5, 43.5363 1.5, 43.6283  Q1.5, 43.7289 1.5, 43.8295  Q1.5, 43.9375 1.5, 44.0455  Q1.5, 44.1594 1.5, 44.2734  Q1.5, 44.3919 1.5, 44.5105  Q1.5, 44.7528 1.5, 45 " /><path d="M1.5, 19.4 Q1.5, 19.5232 1.5, 19.6463  Q1.5, 19.8913 1.5, 20.1266  Q1.5, 20.2406 1.5, 20.3545  Q1.5, 20.4625 1.5, 20.5705  Q1.5, 20.6711 1.5, 20.7717  Q1.5, 20.8637 1.5, 20.9556  Q1.5, 21.0378 1.5, 21.12  Q1.5, 21.1914 1.5, 21.2628  Q1.5, 21.3225 1.5, 21.3821  Q1.5, 21.4293 1.5, 21.4765  Q1.5, 21.5107 1.5, 21.5448  Q1.5, 21.5655 1.5, 21.5862  Q1.5, 21.5931 1.5, 21.6 " /><path d="M1.5, 21.6 L1.5, 21.5448  L1.5, 21.3821  L1.5, 21.12  L1.5, 20.7717  L1.5, 20.3545  L1.5, 19.8895  L1.5, 19.4  L1.5, 18.9105  L1.5, 18.4455  L1.5, 18.0283  L1.5, 17.68  L1.5, 17.4179  L1.5, 17.2552  L1.5, 17.2 " /><path d="M1.5, 17.2 Q1.5, 17.2069 1.5, 17.2138  Q1.5, 17.2345 1.5, 17.2552  Q1.5, 17.2893 1.5, 17.3235  Q1.5, 17.3707 1.5, 17.4179  Q1.5, 17.4775 1.5, 17.5372  Q1.5, 17.6086 1.5, 17.68  Q1.5, 17.7622 1.5, 17.8444  Q1.5, 17.9363 1.5, 18.0283  Q1.5, 18.1289 1.5, 18.2295  Q1.5, 18.3375 1.5, 18.4455  Q1.5, 18.5594 1.5, 18.6734  Q1.5, 18.7919 1.5, 18.9105  Q1.5, 19.1528 1.5, 19.4 " /><path d="M1.5, -0.6 Q1.5, -0.476839 1.5, -0.353678  Q1.5, -0.108728 1.5, 0.126614  Q1.5, 0.240579 1.5, 0.354544  Q1.5, 0.462507 1.5, 0.570471  Q1.5, 0.671074 1.5, 0.771678  Q1.5, 0.863656 1.5, 0.955635  Q1.5, 1.03783 1.5, 1.12003  Q1.5, 1.19141 1.5, 1.26279  Q1.5, 1.32246 1.5, 1.38213  Q1.5, 1.42934 1.5, 1.47654  Q1.5, 1.51069 1.5, 1.54484  Q1.5, 1.5655 1.5, 1.58617  Q1.5, 1.59308 1.5, 1.6 " /><path d="M1.5, 1.6 L1.5, 1.54484  L1.5, 1.38213  L1.5, 1.12003  L1.5, 0.771678  L1.5, 0.354544  L1.5, -0.110454  L1.5, -0.6  L1.5, -1.08955  L1.5, -1.55454  L1.5, -1.97168  L1.5, -2.32003  L1.5, -2.58213  L1.5, -2.74484  L1.5, -2.8 " /><path d="M1.5, -2.8 Q1.5, -2.79308 1.5, -2.78617  Q1.5, -2.7655 1.5, -2.74484  Q1.5, -2.71069 1.5, -2.67654  Q1.5, -2.62934 1.5, -2.58213  Q1.5, -2.52246 1.5, -2.46279  Q1.5, -2.39141 1.5, -2.32003  Q1.5, -2.23783 1.5, -2.15563  Q1.5, -2.06366 1.5, -1.97168  Q1.5, -1.87107 1.5, -1.77047  Q1.5, -1.66251 1.5, -1.55454  Q1.5, -1.44058 1.5, -1.32661  Q1.5, -1.20808 1.5, -1.08955  Q1.5, -0.84719 1.5, -0.6 " /><path d="M1.5, 19.4 Q1.5, 19.5232 1.5, 19.6463  Q1.5, 19.8913 1.5, 20.1266  Q1.5, 20.2406 1.5, 20.3545  Q1.5, 20.4625 1.5, 20.5705  Q1.5, 20.6711 1.5, 20.7717  Q1.5, 20.8637 1.5, 20.9556  Q1.5, 21.0378 1.5, 21.12  Q1.5, 21.1914 1.5, 21.2628  Q1.5, 21.3225 1.5, 21.3821  Q1.5, 21.4293 1.5, 21.4765  Q1.5, 21.5107 1.5, 21.5448  Q1.5, 21.5655 1.5, 21.5862  Q1.5, 21.5931 1.5, 21.6 " /><path d="M1.5, 21.6 L1.5, 21.5448  L1.5, 21.3821  L1.5, 21.12  L1.5, 20.7717  L1.5, 20.3545  L1.5, 19.8895  L1.5, 19.4  L1.5, 18.9105  L1.5, 18.4455  L1.5, 18.0283  L1.5, 17.68  L1.5, 17.4179  L1.5, 17.2552  L1.5, 17.2 " /><path d="M1.5, 17.2 Q1.5, 17.2069 1.5, 17.2138  Q1.5, 17.2345 1.5, 17.2552  Q1.5, 17.2893 1.5, 17.3235  Q1.5, 17.3707 1.5, 17.4179  Q1.5, 17.4775 1.5, 17.5372  Q1.5, 17.6086 1.5, 17.68  Q1.5, 17.7622 1.5, 17.8444  Q1.5, 17.9363 1.5, 18.0283  Q1.5, 18.1289 1.5, 18.2295  Q1.5, 18.3375 1.5, 18.4455  Q1.5, 18.5594 1.5, 18.6734  Q1.5, 18.7919 1.5, 18.9105  Q1.5, 19.1528 1.5, 19.4 " /><path d="M1.5, 9.4 L1.5, 10.2957  L1.5, 11.1802  L1.5, 12.0422  L1.5, 12.8711  L1.5, 13.6563  L1.5, 14.3879  L1.5, 15.0569  L1.5, 15.6547  L1.5, 16.1738  L1.5, 16.6078  L1.5, 16.9511  L1.5, 17.1994  L1.5, 17.3497  L1.5, 17.4 " /><path d="M1.5, 17.4 L1.5, 17.1994  L1.5, 16.6078  L1.5, 15.6547  L1.5, 14.3879  L1.5, 12.8711  L1.5, 11.1802  L1.5, 9.4  L1.5, 7.61983  L1.5, 5.92893  L1.5, 4.41208  L1.5, 3.14535  L1.5, 2.19225  L1.5, 1.60058  L1.5, 1.4 " /><path d="M1.5, 1.4 L1.5, 1.4503  L1.5, 1.60058  L1.5, 1.84893  L1.5, 2.19225  L1.5, 2.62621  L1.5, 3.14535  L1.5, 3.74315  L1.5, 4.41208  L1.5, 5.14374  L1.5, 5.92893  L1.5, 6.75777  L1.5, 7.61983  L1.5, 8.50428  L1.5, 9.4 " /><path d="M1.5, -0.6 Q1.5, -0.476839 1.5, -0.353678  Q1.5, -0.108728 1.5, 0.126614  Q1.5, 0.240579 1.5, 0.354544  Q1.5, 0.462507 1.5, 0.570471  Q1.5, 0.671074 1.5, 0.771678  Q1.5, 0.863656 1.5, 0.955635  Q1.5, 1.03783 1.5, 1.12003  Q1.5, 1.19141 1.5, 1.26279  Q1.5, 1.32246 1.5, 1.38213  Q1.5, 1.42934 1.5, 1.47654  Q1.5, 1.51069 1.5, 1.54484  Q1.5, 1.5655 1.5, 1.58617  Q1.5, 1.59308 1.5, 1.6 " /><path d="M1.5, 1.6 L1.5, 1.54484  L1.5, 1.38213  L1.5, 1.12003  L1.5, 0.771678  L1.5, 0.354544  L1.5, -0.110454  L1.5, -0.6  L1.5, -1.08955  L1.5, -1.55454  L1.5, -1.97168  L1.5, -2.32003  L1.5, -2.58213  L1.5, -2.74484  L1.5, -2.8 " /><path d="M1.5, -2.8 Q1.5, -2.79308 1.5, -2.78617  Q1.5, -2.7655 1.5, -2.74484  Q1.5, -2.71069 1.5, -2.67654  Q1.5, -2.62934 1.5, -2.58213  Q1.5, -2.52246 1.5, -2.46279  Q1.5, -2.39141 1.5, -2.32003  Q1.5, -2.23783 1.5, -2.15563  Q1.5, -2.06366 1.5, -1.97168  Q1.5, -1.87107 1.5, -1.77047  Q1.5, -1.66251 1.5, -1.55454  Q1.5, -1.44058 1.5, -1.32661  Q1.5, -1.20808 1.5, -1.08955  Q1.5, -0.84719 1.5, -0.6 " /><path id= "138" d=" M 1.5 55 L -1.5 55 " />
<path id= "139" d=" M 1.5 55 L -1.5 55 " />
<path id= "140" d=" M 1.5 55 L -1.5 55 " />
<path id= "141" d=" M 1.5 55 L -1.5 55 " />
<path id= "142" d=" M 1.5 55 L -1.5 55 " />
<path id= "143" d=" M 1.5 55 L -1.5 55 " />
<path id= "144" d=" M 1.5 55 L -1.5 55 " />
<path id= "145" d=" M 1.5 55 L -1.5 55 " />
<path id= "146" d=" M -1.5 -55 L 1.5 -55 " />
<path id= "147" d=" M 1.5 -55 L -1.5 -55 " />
<path id= "148" d=" M -1.5 -55 L 1.5 -55 " />
<path id= "149" d=" M 1.5 -55 L -1.5 -55 " />
<path id= "150" d=" M -1.5 -55 L 1.5 -55 " />
<path id= "151" d=" M -1.5 31 L 1.5 31 " />
<path id= "152" d=" M -1.5 31 L 1.5 31 " />
<path id= "1" d=" M 1.5 -52.8 L -1.5 -52.8 " />
<path id= "2" d=" M 1.5 -52.8 L -1.5 -52.8 " />
<path id= "3" d=" M 1.5 1.5 L -1.5 1.5 " />
<path id= "4" d=" M 1.5 4.9 L -1.5 4.9 " />
<path id= "5" d=" M 1.5 1.5 L -1.5 1.5 " />
<path id= "6" d=" M 1.5 4.9 L -1.5 4.9 " />
<path id= "7" d=" M 1.5 42.8 L -1.5 42.8 " />
<path id= "8" d=" M 1.5 47.2 L -1.5 47.2 " />
<path id= "9" d=" M 1.5 -16.5 L -1.5 -16.5 " />
<path id= "10" d=" M 1.5 -13.1 L -1.5 -13.1 " />
<path id= "11" d=" M 1.5 -14.3 L -1.5 -14.3 " />
<path id= "12" d=" M 1.5 2.7 L -1.5 2.7 " />
<path id= "13" d=" M 1.5 -16.5 L -1.5 -16.5 " />
<path id= "14" d=" M 1.5 -13.1 L -1.5 -13.1 " />
<path id= "15" d=" M 1.5 -45.2 L -1.5 -45.2 " />
<path id= "16" d=" M 1.5 -40.8 L -1.5 -40.8 " />
<path id= "17" d=" M 1.5 -53.5 L -1.5 -53.5 " />
<path id= "18" d=" M 1.5 -44.5 L -1.5 -44.5 " />
<path id= "19" d=" M 1.5 -45.2 L -1.5 -45.2 " />
<path id= "20" d=" M 1.5 -40.8 L -1.5 -40.8 " />
<path id= "21" d=" M 1.5 35.8 L -1.5 35.8 " />
<path id= "22" d=" M 1.5 40.2 L -1.5 40.2 " />
<path id= "23" d=" M 1.5 42.8 L -1.5 42.8 " />
<path id= "24" d=" M 1.5 47.2 L -1.5 47.2 " />
<path id= "25" d=" M 1.5 17.2 L -1.5 17.2 " />
<path id= "26" d=" M 1.5 21.6 L -1.5 21.6 " />
<path id= "27" d=" M 1.5 -2.8 L -1.5 -2.8 " />
<path id= "28" d=" M 1.5 1.6 L -1.5 1.6 " />
<path id= "29" d=" M 1.5 17.2 L -1.5 17.2 " />
<path id= "30" d=" M 1.5 21.6 L -1.5 21.6 " />
<path id= "31" d=" M 1.5 1.4 L -1.5 1.4 " />
<path id= "32" d=" M 1.5 17.4 L -1.5 17.4 " />
<path id= "33" d=" M 1.5 -2.8 L -1.5 -2.8 " />
<path id= "34" d=" M 1.5 1.6 L -1.5 1.6 " />
<path id= "35" d=" M 1.5 48.9 L -1.5 48.9 " />
<path id= "36" d=" M 1.5 50.8 L -1.5 50.8 " />
<path id= "37" d=" M 1.5 51.8 L -1.5 51.8 " />
<path id= "38" d=" M 1.5 50.8 L -1.5 50.8 " />
</g>
</g><line x1="232.90" y1="152.20" x2="234.10" y2="152.20" stroke="#1a5276" stroke-width="0.25"/><path d="M 232.90 152.20 L 234.50 151.65 L 234.50 152.75 z" fill="#1a5276"/><path d="M 234.10 152.20 L 232.50 151.65 L 232.50 152.75 z" fill="#1a5276"/><text x="233.50" y="151.30" font-size="3.2" fill="#1a5276" text-anchor="middle" font-family="sans-serif">3</text><line x1="224.70" y1="101.00" x2="224.70" y2="145.00" stroke="#1a5276" stroke-width="0.25"/><path d="M 224.70 101.00 L 224.15 102.60 L 225.25 102.60 z" fill="#1a5276"/><path d="M 224.70 145.00 L 224.15 143.40 L 225.25 143.40 z" fill="#1a5276"/><text x="223.80" y="123.00" font-size="3.2" fill="#1a5276" text-anchor="middle" font-family="sans-serif" transform="rotate(-90 223.80 123.00)">110</text><text x="233.5" y="157.4" font-size="3.4" font-family="sans-serif" fill="#000" text-anchor="middle">RIGHT SIDE</text><text x="10" y="196.0" font-size="2.8" font-family="sans-serif" fill="#333">ALL DIMENSIONS IN MILLIMETERS  |  THIRD-ANGLE PROJECTION  |  views carry overall extent callouts</text><text x="10" y="200.2" font-size="2.8" font-family="sans-serif" fill="#8a2b2b">PROTOTYPE / VERIFY BEFORE MANUFACTURING</text><rect x="195.0" y="160.0" width="96.0" height="44.0" fill="none" stroke="#000" stroke-width="0.5"/><line x1="195.0" y1="174.0" x2="291.0" y2="174.0" stroke="#000" stroke-width="0.3"/><line x1="195.0" y1="182.0" x2="291.0" y2="182.0" stroke="#000" stroke-width="0.3"/><line x1="195.0" y1="190.0" x2="291.0" y2="190.0" stroke="#000" stroke-width="0.3"/><text x="197.0" y="164.0" font-size="2.0" fill="#555" font-family="sans-serif" text-anchor="start">PART</text><text x="197.0" y="171.0" font-size="4.2" fill="#000" font-family="sans-serif" text-anchor="start" font-weight="bold">HOP_WALL_R</text><text x="197.0" y="179.5" font-size="2.8" fill="#000" font-family="sans-serif" text-anchor="start">MATERIAL: polycarb   SPEC: 165x110x3</text><text x="197.0" y="187.5" font-size="2.8" fill="#000" font-family="sans-serif" text-anchor="start">QTY 1</text><text x="219.0" y="187.5" font-size="2.8" fill="#000" font-family="sans-serif" text-anchor="start">REV A</text><text x="237.0" y="187.5" font-size="2.8" fill="#000" font-family="sans-serif" text-anchor="start">SCALE 1:2</text><text x="197.0" y="195.0" font-size="2.6" fill="#000" font-family="sans-serif" text-anchor="start">BIOBUZZ FTC  |  hopper  |  SHEET 30/68  |  UNVERIFIED - 3mm polycar</text></svg>