<?xml version="1.0" encoding="UTF-8"?><svg xmlns="http://www.w3.org/2000/svg" width="297mm" height="210mm" viewBox="0 0 297 210"><rect x="0" y="0" width="297" height="210" fill="#ffffff"/><rect x="6" y="6" width="285" height="198" fill="none" stroke="#000" stroke-width="0.5"/><g transform="translate(92.50 123.00) scale(0.2000 -0.2000)"><g fill="none" stroke="#000000" stroke-opacity="1" stroke-width="0.7" stroke-linecap="butt" stroke-linejoin="miter" stroke-miterlimit="4">
<path id= "1" d=" M -3.95 109 L -3.95 -109 " />
<path id= "2" d=" M 3.95 109 L 3.95 -109 " />
<path id= "3" d=" M -3.95 109 L 3.95 109 " />
<path id= "4" d=" M -3.95 -109 L 3.95 -109 " />
</g>
<g fill="none" stroke="#000000" stroke-opacity="1" stroke-width="0.35" stroke-dasharray="2.4 1.2" stroke-linecap="butt" stroke-linejoin="miter" stroke-miterlimit="4">
<path id= "1" d=" M -3.95 109 L -3.95 -109 " />
<path id= "2" d=" M 3.95 109 L 3.95 -109 " />
<path id= "3" d=" M -3.95 109 L 3.95 109 " />
<path id= "4" d=" M -3.95 -109 L 3.95 -109 " />
</g>
</g><line x1="91.71" y1="152.00" x2="93.29" y2="152.00" stroke="#1a5276" stroke-width="0.25"/><path d="M 91.71 152.00 L 93.31 151.45 L 93.31 152.55 z" fill="#1a5276"/><path d="M 93.29 152.00 L 91.69 151.45 L 91.69 152.55 z" fill="#1a5276"/><text x="92.50" y="151.10" font-size="3.2" fill="#1a5276" text-anchor="middle" font-family="sans-serif">7.9</text><line x1="83.51" y1="101.20" x2="83.51" y2="144.80" stroke="#1a5276" stroke-width="0.25"/><path d="M 83.51 101.20 L 82.96 102.80 L 84.06 102.80 z" fill="#1a5276"/><path d="M 83.51 144.80 L 82.96 143.20 L 84.06 143.20 z" fill="#1a5276"/><text x="82.61" y="123.00" font-size="3.2" fill="#1a5276" text-anchor="middle" font-family="sans-serif" transform="rotate(-90 82.61 123.00)">218</text><text x="92.5" y="157.4" font-size="3.4" font-family="sans-serif" fill="#000" text-anchor="middle">FRONT</text><g transform="translate(92.50 47.00) scale(0.2000 -0.2000)"><g fill="none" stroke="#000000" stroke-opacity="1" stroke-width="0.7" stroke-linecap="butt" stroke-linejoin="miter" stroke-miterlimit="4">
<path id= "1" d=" M -3.95 8 L -3.95 -8 " />
<path id= "2" d=" M 3.95 8 L 3.95 -8 " />
<path id= "3" d=" M -3.95 8 L 3.95 8 " />
<path id= "4" d=" M -3.95 -8 L 3.95 -8 " />
</g>
<g fill="none" stroke="#000000" stroke-opacity="1" stroke-width="0.35" stroke-dasharray="2.4 1.2" stroke-linecap="butt" stroke-linejoin="miter" stroke-miterlimit="4">
<path id= "1" d=" M -3.95 8 L -3.95 -8 " />
<path id= "2" d=" M 3.95 8 L 3.95 -8 " />
<path id= "3" d=" M -3.95 8 L 3.95 8 " />
<path id= "4" d=" M -3.95 -8 L 3.95 -8 " />
</g>
</g><line x1="91.71" y1="55.80" x2="93.29" y2="55.80" stroke="#1a5276" stroke-width="0.25"/><path d="M 91.71 55.80 L 93.31 55.25 L 93.31 56.35 z" fill="#1a5276"/><path d="M 93.29 55.80 L 91.69 55.25 L 91.69 56.35 z" fill="#1a5276"/><text x="92.50" y="54.90" font-size="3.2" fill="#1a5276" text-anchor="middle" font-family="sans-serif">7.9</text><line x1="83.51" y1="45.40" x2="83.51" y2="48.60" stroke="#1a5276" stroke-width="0.25"/><path d="M 83.51 45.40 L 82.96 47.00 L 84.06 47.00 z" fill="#1a5276"/><path d="M 83.51 48.60 L 82.96 47.00 L 84.06 47.00 z" fill="#1a5276"/><text x="82.61" y="47.00" font-size="3.2" fill="#1a5276" text-anchor="middle" font-family="sans-serif" transform="rotate(-90 82.61 47.00)">16</text><text x="92.5" y="79.4" font-size="3.4" font-family="sans-serif" fill="#000" text-anchor="middle">TOP</text><g transform="translate(233.50 123.00) scale(0.2000 -0.2000)"><g fill="none" stroke="#000000" stroke-opacity="1" stroke-width="0.7" stroke-linecap="butt" stroke-linejoin="miter" stroke-miterlimit="4">
<path id= "1" d=" M -8 109 L -8 -109 " />
<path id= "2" d=" M -8 -109 L 8 -109 " />
<path id= "3" d=" M 8 109 L 8 -109 " />
<path id= "4" d=" M -8 109 L 8 109 " />
</g>
<g fill="none" stroke="#000000" stroke-opacity="1" stroke-width="0.35" stroke-dasharray="2.4 1.2" stroke-linecap="butt" stroke-linejoin="miter" stroke-miterlimit="4">
<path id= "1" d=" M -8 109 L -8 -109 " />
<path id= "2" d=" M -8 -109 L 8 -109 " />
<path id= "3" d=" M 8 109 L 8 -109 " />
<path id= "4" d=" M -8 109 L 8 109 " />
</g>
</g><line x1="231.90" y1="152.00" x2="235.10" y2="152.00" stroke="#1a5276" stroke-width="0.25"/><path d="M 231.90 152.00 L 233.50 151.45 L 233.50 152.55 z" fill="#1a5276"/><path d="M 235.10 152.00 L 233.50 151.45 L 233.50 152.55 z" fill="#1a5276"/><text x="233.50" y="151.10" font-size="3.2" fill="#1a5276" text-anchor="middle" font-family="sans-serif">16</text><line x1="223.70" y1="101.20" x2="223.70" y2="144.80" stroke="#1a5276" stroke-width="0.25"/><path d="M 223.70 101.20 L 223.15 102.80 L 224.25 102.80 z" fill="#1a5276"/><path d="M 223.70 144.80 L 223.15 143.20 L 224.25 143.20 z" fill="#1a5276"/><text x="222.80" y="123.00" font-size="3.2" fill="#1a5276" text-anchor="middle" font-family="sans-serif" transform="rotate(-90 222.80 123.00)">218</text><text x="233.5" y="157.4" font-size="3.4" font-family="sans-serif" fill="#000" text-anchor="middle">RIGHT SIDE</text><text x="10" y="196.0" font-size="2.8" font-family="sans-serif" fill="#333">ALL DIMENSIONS IN MILLIMETERS  |  THIRD-ANGLE PROJECTION  |  views carry overall extent callouts</text><text x="10" y="200.2" font-size="2.8" font-family="sans-serif" fill="#8a2b2b">PROTOTYPE / VERIFY BEFORE MANUFACTURING</text><rect x="195.0" y="160.0" width="96.0" height="44.0" fill="none" stroke="#000" stroke-width="0.5"/><line x1="195.0" y1="174.0" x2="291.0" y2="174.0" stroke="#000" stroke-width="0.3"/><line x1="195.0" y1="182.0" x2="291.0" y2="182.0" stroke="#000" stroke-width="0.3"/><line x1="195.0" y1="190.0" x2="291.0" y2="190.0" stroke="#000" stroke-width="0.3"/><text x="197.0" y="164.0" font-size="2.0" fill="#555" font-family="sans-serif" text-anchor="start">PART</text><text x="197.0" y="171.0" font-size="4.2" fill="#000" font-family="sans-serif" text-anchor="start" font-weight="bold">LIFT_S2_BAR</text><text x="197.0" y="179.5" font-size="2.8" fill="#000" font-family="sans-serif" text-anchor="start">MATERIAL: aluminum   SPEC: 7.9x16x218</text><text x="197.0" y="187.5" font-size="2.8" fill="#000" font-family="sans-serif" text-anchor="start">QTY 1</text><text x="219.0" y="187.5" font-size="2.8" fill="#000" font-family="sans-serif" text-anchor="start">REV A</text><text x="237.0" y="187.5" font-size="2.8" fill="#000" font-family="sans-serif" text-anchor="start">SCALE 1:5</text><text x="197.0" y="195.0" font-size="2.6" fill="#000" font-family="sans-serif" text-anchor="start">BIOBUZZ FTC  |  lift  |  SHEET 45/68  |  UNVERIFIED - stage-2 sli</text></svg>