<?xml version="1.0" encoding="UTF-8"?><svg xmlns="http://www.w3.org/2000/svg" width="297mm" height="210mm" viewBox="0 0 297 210"><rect x="0" y="0" width="297" height="210" fill="#ffffff"/><rect x="6" y="6" width="285" height="198" fill="none" stroke="#000" stroke-width="0.5"/><g transform="translate(92.50 123.00) scale(1.0000 -1.0000)"><g fill="none" stroke="#000000" stroke-opacity="1" stroke-width="0.7" stroke-linecap="butt" stroke-linejoin="miter" stroke-miterlimit="4">
<circle cx ="0" cy ="0" r ="1.6" /><circle cx ="0" cy ="0" r ="2.75" /></g>
<g fill="none" stroke="#000000" stroke-opacity="1" stroke-width="0.35" stroke-dasharray="2.4 1.2" stroke-linecap="butt" stroke-linejoin="miter" stroke-miterlimit="4">
<circle cx ="0" cy ="0" r ="1.6" /><circle cx ="0" cy ="0" r ="2.75" /></g>
</g><line x1="89.75" y1="132.95" x2="95.25" y2="132.95" stroke="#1a5276" stroke-width="0.25"/><path d="M 89.75 132.95 L 91.35 132.40 L 91.35 133.50 z" fill="#1a5276"/><path d="M 95.25 132.95 L 93.65 132.40 L 93.65 133.50 z" fill="#1a5276"/><text x="92.50" y="132.05" font-size="3.2" fill="#1a5276" text-anchor="middle" font-family="sans-serif">5.5</text><line x1="81.55" y1="120.25" x2="81.55" y2="125.75" stroke="#1a5276" stroke-width="0.25"/><path d="M 81.55 120.25 L 81.00 121.85 L 82.10 121.85 z" fill="#1a5276"/><path d="M 81.55 125.75 L 81.00 124.15 L 82.10 124.15 z" fill="#1a5276"/><text x="80.65" y="123.00" font-size="3.2" fill="#1a5276" text-anchor="middle" font-family="sans-serif" transform="rotate(-90 80.65 123.00)">5.5</text><text x="92.5" y="157.4" font-size="3.4" font-family="sans-serif" fill="#000" text-anchor="middle">FRONT</text><g transform="translate(92.50 47.00) scale(1.0000 -1.0000)"><g fill="none" stroke="#000000" stroke-opacity="1" stroke-width="0.7" stroke-linecap="butt" stroke-linejoin="miter" stroke-miterlimit="4">
<path id= "1" d=" M 1.6 -3 L 1.6 5 " />
<path d="M1.6, 5 L1.55988, 5  L1.44155, 5  L1.25093, 5  L0.997584, 5  L0.694214, 5  L0.356033, 5  L1.11022e-16, 5  L-0.356033, 5  L-0.694214, 5  L-0.997584, 5  L-1.25093, 5  L-1.44155, 5  L-1.55988, 5  L-1.6, 5 " /><path d="M2.75, -3 L2.68105, -3  L2.47766, -3  L2.15004, -3  L1.7146, -3  L1.19318, -3  L0.611933, -3  L2.22045e-16, -3  L-0.611933, -3  L-1.19318, -3  L-1.7146, -3  L-2.15004, -3  L-2.47766, -3  L-2.68105, -3  L-2.75, -3 " /><path id= "4" d=" M 2.75 -5 L 2.75 -3 " />
<path d="M2.75, -5 L2.68105, -5  L2.47766, -5  L2.15004, -5  L1.7146, -5  L1.19318, -5  L0.611933, -5  L2.22045e-16, -5  L-0.611933, -5  L-1.19318, -5  L-1.7146, -5  L-2.15004, -5  L-2.47766, -5  L-2.68105, -5  L-2.75, -5 " /><path id= "1" d=" M -1.6 5 L -1.6 -3 " />
<path id= "2" d=" M -2.75 -3 L -2.75 -5 " />
</g>
<g fill="none" stroke="#000000" stroke-opacity="1" stroke-width="0.35" stroke-dasharray="2.4 1.2" stroke-linecap="butt" stroke-linejoin="miter" stroke-miterlimit="4">
<path d="M1.6, -3 L1.55988, -3  L1.44155, -3  L1.25093, -3  L0.997584, -3  L0.694214, -3  L0.356033, -3  L1.11022e-16, -3  L-0.356033, -3  L-0.694214, -3  L-0.997584, -3  L-1.25093, -3  L-1.44155, -3  L-1.55988, -3  L-1.6, -3 " /><path d="M-1.6, -3 L-1.55988, -3  L-1.44155, -3  L-1.25093, -3  L-0.997584, -3  L-0.694214, -3  L-0.356033, -3  L-2.77556e-16, -3  L0.356033, -3  L0.694214, -3  L0.997584, -3  L1.25093, -3  L1.44155, -3  L1.55988, -3  L1.6, -3 " /><path d="M-1.6, 5 L-1.55988, 5  L-1.44155, 5  L-1.25093, 5  L-0.997584, 5  L-0.694214, 5  L-0.356033, 5  L-2.77556e-16, 5  L0.356033, 5  L0.694214, 5  L0.997584, 5  L1.25093, 5  L1.44155, 5  L1.55988, 5  L1.6, 5 " /><path d="M-2.75, -3 L-2.68105, -3  L-2.47766, -3  L-2.15004, -3  L-1.7146, -3  L-1.19318, -3  L-0.611933, -3  L-5.55112e-16, -3  L0.611933, -3  L1.19318, -3  L1.7146, -3  L2.15004, -3  L2.47766, -3  L2.68105, -3  L2.75, -3 " /><path d="M-2.75, -5 L-2.68105, -5  L-2.47766, -5  L-2.15004, -5  L-1.7146, -5  L-1.19318, -5  L-0.611933, -5  L-5.55112e-16, -5  L0.611933, -5  L1.19318, -5  L1.7146, -5  L2.15004, -5  L2.47766, -5  L2.68105, -5  L2.75, -5 " /></g>
</g><line x1="89.75" y1="59.20" x2="95.25" y2="59.20" stroke="#1a5276" stroke-width="0.25"/><path d="M 89.75 59.20 L 91.35 58.65 L 91.35 59.75 z" fill="#1a5276"/><path d="M 95.25 59.20 L 93.65 58.65 L 93.65 59.75 z" fill="#1a5276"/><text x="92.50" y="58.30" font-size="3.2" fill="#1a5276" text-anchor="middle" font-family="sans-serif">5.5</text><line x1="81.55" y1="42.00" x2="81.55" y2="52.00" stroke="#1a5276" stroke-width="0.25"/><path d="M 81.55 42.00 L 81.00 43.60 L 82.10 43.60 z" fill="#1a5276"/><path d="M 81.55 52.00 L 81.00 50.40 L 82.10 50.40 z" fill="#1a5276"/><text x="80.65" y="47.00" font-size="3.2" fill="#1a5276" text-anchor="middle" font-family="sans-serif" transform="rotate(-90 80.65 47.00)">10</text><text x="92.5" y="79.4" font-size="3.4" font-family="sans-serif" fill="#000" text-anchor="middle">TOP</text><g transform="translate(233.50 123.00) scale(1.0000 -1.0000)"><g fill="none" stroke="#000000" stroke-opacity="1" stroke-width="0.7" stroke-linecap="butt" stroke-linejoin="miter" stroke-miterlimit="4">
<path d="M-5, 0 C-5, -0.179757 -5, -0.357829 -5, -0.528446  C-5, -0.583702 -5, -0.638958 -5, -0.694214  C-5, -0.74656 -5, -0.798906 -5, -0.851251  C-5, -0.900029 -5, -0.948806 -5, -0.997584  C-5, -1.04218 -5, -1.08678 -5, -1.13137  C-5, -1.17122 -5, -1.21108 -5, -1.25093  C-5, -1.28554 -5, -1.32015 -5, -1.35476  C-5, -1.38369 -5, -1.41262 -5, -1.44155  C-5, -1.46444 -5, -1.48733 -5, -1.51021  C-5, -1.52677 -5, -1.54333 -5, -1.55988  C-5, -1.5699 -5, -1.57992 -5, -1.58994  C-5, -1.59329 -5, -1.59665 -5, -1.6 " /><path d="M-5, 1.6 Q-5, 1.59497 -5, 1.58994  Q-5, 1.57491 -5, 1.55988  Q-5, 1.53505 -5, 1.51021  Q-5, 1.47588 -5, 1.44155  Q-5, 1.39815 -5, 1.35476  Q-5, 1.30284 -5, 1.25093  Q-5, 1.19115 -5, 1.13137  Q-5, 1.06448 -5, 0.997584  Q-5, 0.924418 -5, 0.851251  Q-5, 0.772733 -5, 0.694214  Q-5, 0.53031 -5, 0.356033  Q-5, 0.179775 -5, 3.88578e-16 " /><path d="M3, 0 Q3, -0.153951 3, -0.307902  Q3, -0.614091 3, -0.908267  Q3, -1.05072 3, -1.19318  Q3, -1.32813 3, -1.46309  Q3, -1.58884 3, -1.7146  Q3, -1.82957 3, -1.94454  Q3, -2.04729 3, -2.15004  Q3, -2.23926 3, -2.32849  Q3, -2.40308 3, -2.47766  Q3, -2.53667 3, -2.59568  Q3, -2.63837 3, -2.68105  Q3, -2.70688 3, -2.73271  Q3, -2.74135 3, -2.75 " /><path d="M3, 2.75 Q3, 2.74135 3, 2.73271  Q3, 2.70688 3, 2.68105  Q3, 2.63837 3, 2.59568  Q3, 2.53667 3, 2.47766  Q3, 2.40308 3, 2.32849  Q3, 2.23926 3, 2.15004  Q3, 2.04729 3, 1.94454  Q3, 1.82957 3, 1.7146  Q3, 1.58884 3, 1.46309  Q3, 1.32813 3, 1.19318  Q3, 1.05072 3, 0.908267  Q3, 0.7601 3, 0.611933  Q3, 0.308988 3, 6.66134e-16 " /><path d="M5, 0 Q5, -0.153951 5, -0.307902  Q5, -0.614091 5, -0.908267  Q5, -1.05072 5, -1.19318  Q5, -1.32813 5, -1.46309  Q5, -1.58884 5, -1.7146  Q5, -1.82957 5, -1.94454  Q5, -2.04729 5, -2.15004  Q5, -2.23926 5, -2.32849  Q5, -2.40308 5, -2.47766  Q5, -2.53667 5, -2.59568  Q5, -2.63837 5, -2.68105  Q5, -2.70688 5, -2.73271  Q5, -2.74135 5, -2.75 " /><path d="M5, 2.75 Q5, 2.74135 5, 2.73271  Q5, 2.70688 5, 2.68105  Q5, 2.63837 5, 2.59568  Q5, 2.53667 5, 2.47766  Q5, 2.40308 5, 2.32849  Q5, 2.23926 5, 2.15004  Q5, 2.04729 5, 1.94454  Q5, 1.82957 5, 1.7146  Q5, 1.58884 5, 1.46309  Q5, 1.32813 5, 1.19318  Q5, 1.05072 5, 0.908267  Q5, 0.7601 5, 0.611933  Q5, 0.308988 5, 6.66134e-16 " /><path id= "1" d=" M -5 1.6 L 3 1.6 " />
<path id= "2" d=" M -5 -1.6 L 3 -1.6 " />
<path id= "3" d=" M 3 2.75 L 5 2.75 " />
<path id= "4" d=" M 3 -2.75 L 5 -2.75 " />
</g>
<g fill="none" stroke="#000000" stroke-opacity="1" stroke-width="0.35" stroke-dasharray="2.4 1.2" stroke-linecap="butt" stroke-linejoin="miter" stroke-miterlimit="4">
<path d="M3, 0 C3, -0.179757 3, -0.357829 3, -0.528446  C3, -0.583702 3, -0.638958 3, -0.694214  C3, -0.74656 3, -0.798906 3, -0.851251  C3, -0.900029 3, -0.948806 3, -0.997584  C3, -1.04218 3, -1.08678 3, -1.13137  C3, -1.17122 3, -1.21108 3, -1.25093  C3, -1.28554 3, -1.32015 3, -1.35476  C3, -1.38369 3, -1.41262 3, -1.44155  C3, -1.46444 3, -1.48733 3, -1.51021  C3, -1.52677 3, -1.54333 3, -1.55988  C3, -1.5699 3, -1.57992 3, -1.58994  C3, -1.59329 3, -1.59665 3, -1.6 " /><path d="M3, -1.6 L3, -1.55988  L3, -1.44155  L3, -1.25093  L3, -0.997584  L3, -0.694214  L3, -0.356033  L3, -2.22045e-16  L3, 0.356033  L3, 0.694214  L3, 0.997584  L3, 1.25093  L3, 1.44155  L3, 1.55988  L3, 1.6 " /><path d="M3, 1.6 Q3, 1.59497 3, 1.58994  Q3, 1.57491 3, 1.55988  Q3, 1.53505 3, 1.51021  Q3, 1.47588 3, 1.44155  Q3, 1.39815 3, 1.35476  Q3, 1.30284 3, 1.25093  Q3, 1.19115 3, 1.13137  Q3, 1.06448 3, 0.997584  Q3, 0.924418 3, 0.851251  Q3, 0.772733 3, 0.694214  Q3, 0.53031 3, 0.356033  Q3, 0.179775 3, 3.88578e-16 " /><path d="M-5, -1.6 L-5, -1.55988  L-5, -1.44155  L-5, -1.25093  L-5, -0.997584  L-5, -0.694214  L-5, -0.356033  L-5, -2.22045e-16  L-5, 0.356033  L-5, 0.694214  L-5, 0.997584  L-5, 1.25093  L-5, 1.44155  L-5, 1.55988  L-5, 1.6 " /><path d="M3, -2.75 L3, -2.68105  L3, -2.47766  L3, -2.15004  L3, -1.7146  L3, -1.19318  L3, -0.611933  L3, -3.33067e-16  L3, 0.611933  L3, 1.19318  L3, 1.7146  L3, 2.15004  L3, 2.47766  L3, 2.68105  L3, 2.75 " /><path d="M5, -2.75 L5, -2.68105  L5, -2.47766  L5, -2.15004  L5, -1.7146  L5, -1.19318  L5, -0.611933  L5, -3.33067e-16  L5, 0.611933  L5, 1.19318  L5, 1.7146  L5, 2.15004  L5, 2.47766  L5, 2.68105  L5, 2.75 " /></g>
</g><line x1="228.50" y1="132.95" x2="238.50" y2="132.95" stroke="#1a5276" stroke-width="0.25"/><path d="M 228.50 132.95 L 230.10 132.40 L 230.10 133.50 z" fill="#1a5276"/><path d="M 238.50 132.95 L 236.90 132.40 L 236.90 133.50 z" fill="#1a5276"/><text x="233.50" y="132.05" font-size="3.2" fill="#1a5276" text-anchor="middle" font-family="sans-serif">10</text><line x1="220.30" y1="120.25" x2="220.30" y2="125.75" stroke="#1a5276" stroke-width="0.25"/><path d="M 220.30 120.25 L 219.75 121.85 L 220.85 121.85 z" fill="#1a5276"/><path d="M 220.30 125.75 L 219.75 124.15 L 220.85 124.15 z" fill="#1a5276"/><text x="219.40" y="123.00" font-size="3.2" fill="#1a5276" text-anchor="middle" font-family="sans-serif" transform="rotate(-90 219.40 123.00)">5.5</text><text x="233.5" y="157.4" font-size="3.4" font-family="sans-serif" fill="#000" text-anchor="middle">RIGHT SIDE</text><text x="10" y="196.0" font-size="2.8" font-family="sans-serif" fill="#333">ALL DIMENSIONS IN MILLIMETERS  |  THIRD-ANGLE PROJECTION  |  views carry overall extent callouts</text><text x="10" y="200.2" font-size="2.8" font-family="sans-serif" fill="#8a2b2b">PROTOTYPE / VERIFY BEFORE MANUFACTURING</text><rect x="195.0" y="160.0" width="96.0" height="44.0" fill="none" stroke="#000" stroke-width="0.5"/><line x1="195.0" y1="174.0" x2="291.0" y2="174.0" stroke="#000" stroke-width="0.3"/><line x1="195.0" y1="182.0" x2="291.0" y2="182.0" stroke="#000" stroke-width="0.3"/><line x1="195.0" y1="190.0" x2="291.0" y2="190.0" stroke="#000" stroke-width="0.3"/><text x="197.0" y="164.0" font-size="2.0" fill="#555" font-family="sans-serif" text-anchor="start">PART</text><text x="197.0" y="171.0" font-size="4.0" fill="#000" font-family="sans-serif" text-anchor="start" font-weight="bold">SCRW_S1T_*  x8</text><text x="197.0" y="179.5" font-size="2.8" fill="#000" font-family="sans-serif" text-anchor="start">MATERIAL: steel   SPEC: -</text><text x="197.0" y="187.5" font-size="2.8" fill="#000" font-family="sans-serif" text-anchor="start">QTY 8</text><text x="219.0" y="187.5" font-size="2.8" fill="#000" font-family="sans-serif" text-anchor="start">REV A</text><text x="237.0" y="187.5" font-size="2.8" fill="#000" font-family="sans-serif" text-anchor="start">SCALE 1:1</text><text x="197.0" y="195.0" font-size="2.6" fill="#000" font-family="sans-serif" text-anchor="start">BIOBUZZ FTC  |  lift  |  SHEET 41/68  |  UNVERIFIED - M3 selftap</text></svg>