<?xml version="1.0" encoding="UTF-8"?><svg xmlns="http://www.w3.org/2000/svg" width="297mm" height="210mm" viewBox="0 0 297 210"><rect x="0" y="0" width="297" height="210" fill="#ffffff"/><rect x="6" y="6" width="285" height="198" fill="none" stroke="#000" stroke-width="0.5"/><g transform="translate(92.50 123.00) scale(0.2500 -0.2500)"><g fill="none" stroke="#000000" stroke-opacity="1" stroke-width="0.7" stroke-linecap="butt" stroke-linejoin="miter" stroke-miterlimit="4">
<path id= "1" d=" M -5 19.5 L -5 -24.5 " />
<path id= "2" d=" M -7 19.5 L 7 19.5 " />
<path id= "3" d=" M -2 19.5 L -2 -24.5 " />
<path id= "4" d=" M -5 -24.5 L -2 -24.5 " />
<path id= "5" d=" M -7 24.5 L -7 19.5 " />
<path id= "6" d=" M 7 24.5 L 7 19.5 " />
<path id= "7" d=" M -7 24.5 L 7 24.5 " />
</g>
<g fill="none" stroke="#000000" stroke-opacity="1" stroke-width="0.35" stroke-dasharray="2.4 1.2" stroke-linecap="butt" stroke-linejoin="miter" stroke-miterlimit="4">
<path id= "1" d=" M -5 19.5 L -5 -24.5 " />
<path id= "2" d=" M -5 24.5 L -5 19.5 " />
<path id= "3" d=" M -5 24.5 L -5 19.5 " />
<path id= "4" d=" M -5 19.5 L -2 19.5 " />
<path id= "5" d=" M -2 19.5 L -2 -24.5 " />
<path id= "6" d=" M -5 -24.5 L -2 -24.5 " />
<path id= "7" d=" M -7 19.5 L 7 19.5 " />
<path id= "8" d=" M -2 19.5 L 7 19.5 " />
<path id= "9" d=" M -7 19.5 L -5 19.5 " />
<path id= "10" d=" M -7 24.5 L -5 24.5 " />
<path id= "11" d=" M -7 24.5 L -7 19.5 " />
<path id= "12" d=" M -7 24.5 L -5 24.5 " />
<path id= "13" d=" M -7 19.5 L -5 19.5 " />
<path id= "14" d=" M -7 24.5 L -7 19.5 " />
<path id= "15" d=" M -5 19.5 L -2 19.5 " />
<path id= "16" d=" M -2 19.5 L 7 19.5 " />
<path id= "17" d=" M -2 24.5 L -2 19.5 " />
<path id= "18" d=" M -2 24.5 L -2 19.5 " />
<path id= "19" d=" M -7 24.5 L 7 24.5 " />
<path id= "20" d=" M 7 24.5 L 7 19.5 " />
<path id= "21" d=" M -7 24.5 L -7 19.5 " />
<path id= "22" d=" M 7 24.5 L 7 19.5 " />
<path id= "23" d=" M -2 24.5 L 7 24.5 " />
<path id= "24" d=" M -2 24.5 L 7 24.5 " />
<path id= "25" d=" M 7 24.5 L 7 19.5 " />
</g>
</g><line x1="90.75" y1="136.32" x2="94.25" y2="136.32" stroke="#1a5276" stroke-width="0.25"/><path d="M 90.75 136.32 L 92.35 135.77 L 92.35 136.88 z" fill="#1a5276"/><path d="M 94.25 136.32 L 92.65 135.77 L 92.65 136.88 z" fill="#1a5276"/><text x="92.50" y="135.42" font-size="3.2" fill="#1a5276" text-anchor="middle" font-family="sans-serif">14</text><line x1="82.55" y1="116.88" x2="82.55" y2="129.12" stroke="#1a5276" stroke-width="0.25"/><path d="M 82.55 116.88 L 82.00 118.47 L 83.10 118.47 z" fill="#1a5276"/><path d="M 82.55 129.12 L 82.00 127.53 L 83.10 127.53 z" fill="#1a5276"/><text x="81.65" y="123.00" font-size="3.2" fill="#1a5276" text-anchor="middle" font-family="sans-serif" transform="rotate(-90 81.65 123.00)">49</text><text x="92.5" y="157.4" font-size="3.4" font-family="sans-serif" fill="#000" text-anchor="middle">FRONT</text><g transform="translate(92.50 47.00) scale(0.2500 -0.2500)"><g fill="none" stroke="#000000" stroke-opacity="1" stroke-width="0.7" stroke-linecap="butt" stroke-linejoin="miter" stroke-miterlimit="4">
<path id= "1" d=" M -5 38 L -5 -38 " />
<path id= "2" d=" M -5 -38 L -2 -38 " />
<path id= "3" d=" M -7 -54 L 7 -54 " />
<path id= "4" d=" M 7 -36 L 7 -54 " />
<path id= "5" d=" M -2 -36 L 7 -36 " />
<path id= "6" d=" M -7 -36 L -5 -36 " />
<path id= "7" d=" M -7 -36 L -7 -54 " />
<path id= "8" d=" M -7 36 L -5 36 " />
<path id= "9" d=" M -2 36 L 7 36 " />
<path id= "10" d=" M 7 54 L 7 36 " />
<path id= "11" d=" M -7 54 L 7 54 " />
<path id= "12" d=" M -7 54 L -7 36 " />
<path id= "13" d=" M -5 38 L -2 38 " />
<path id= "14" d=" M -2 38 L -2 -38 " />
</g>
<g fill="none" stroke="#000000" stroke-opacity="1" stroke-width="0.35" stroke-dasharray="2.4 1.2" stroke-linecap="butt" stroke-linejoin="miter" stroke-miterlimit="4">
<path id= "1" d=" M -5 -38 L -5 -36 " />
<path id= "2" d=" M -5 36 L -5 -36 " />
<path id= "3" d=" M -5 36 L -5 38 " />
<path id= "4" d=" M -5 -38 L -2 -38 " />
<path id= "5" d=" M -2 -38 L -2 -36 " />
<path id= "6" d=" M -7 -36 L -5 -36 " />
<path id= "7" d=" M -7 36 L -5 36 " />
<path id= "8" d=" M -5 38 L -2 38 " />
<path id= "9" d=" M -2 36 L -2 38 " />
<path id= "10" d=" M -2 36 L -2 -36 " />
<path id= "11" d=" M -7 -54 L 7 -54 " />
<path id= "12" d=" M 7 -36 L 7 -54 " />
<path id= "13" d=" M -2 -36 L 7 -36 " />
<path id= "14" d=" M -7 -36 L -7 -54 " />
<path id= "15" d=" M -7 54 L -7 36 " />
<path id= "16" d=" M -2 36 L 7 36 " />
<path id= "17" d=" M 7 54 L 7 36 " />
<path id= "18" d=" M -7 54 L 7 54 " />
</g>
</g><line x1="90.75" y1="67.70" x2="94.25" y2="67.70" stroke="#1a5276" stroke-width="0.25"/><path d="M 90.75 67.70 L 92.35 67.15 L 92.35 68.25 z" fill="#1a5276"/><path d="M 94.25 67.70 L 92.65 67.15 L 92.65 68.25 z" fill="#1a5276"/><text x="92.50" y="66.80" font-size="3.2" fill="#1a5276" text-anchor="middle" font-family="sans-serif">14</text><line x1="82.55" y1="33.50" x2="82.55" y2="60.50" stroke="#1a5276" stroke-width="0.25"/><path d="M 82.55 33.50 L 82.00 35.10 L 83.10 35.10 z" fill="#1a5276"/><path d="M 82.55 60.50 L 82.00 58.90 L 83.10 58.90 z" fill="#1a5276"/><text x="81.65" y="47.00" font-size="3.2" fill="#1a5276" text-anchor="middle" font-family="sans-serif" transform="rotate(-90 81.65 47.00)">108</text><text x="92.5" y="79.4" font-size="3.4" font-family="sans-serif" fill="#000" text-anchor="middle">TOP</text><g transform="translate(233.50 123.00) scale(0.2500 -0.2500)"><g fill="none" stroke="#000000" stroke-opacity="1" stroke-width="0.7" stroke-linecap="butt" stroke-linejoin="miter" stroke-miterlimit="4">
<path id= "1" d=" M 38 19.5 L 38 -24.5 " />
<path id= "2" d=" M 36 19.5 L 54 19.5 " />
<path id= "3" d=" M -54 19.5 L -36 19.5 " />
<path id= "4" d=" M -38 19.5 L -38 -24.5 " />
<path id= "5" d=" M -38 -24.5 L 38 -24.5 " />
<path id= "6" d=" M -36 24.5 L 36 24.5 " />
<path id= "7" d=" M 54 24.5 L 54 19.5 " />
<path id= "8" d=" M 36 24.5 L 36 19.5 " />
<path id= "9" d=" M 36 24.5 L 54 24.5 " />
<path id= "10" d=" M -36 24.5 L -36 19.5 " />
<path id= "11" d=" M -54 24.5 L -54 19.5 " />
<path id= "12" d=" M -54 24.5 L -36 24.5 " />
</g>
<g fill="none" stroke="#000000" stroke-opacity="1" stroke-width="0.35" stroke-dasharray="2.4 1.2" stroke-linecap="butt" stroke-linejoin="miter" stroke-miterlimit="4">
<path id= "1" d=" M 38 19.5 L 38 -24.5 " />
<path id= "2" d=" M 38 19.5 L 36 19.5 " />
<path id= "3" d=" M 36 24.5 L 36 19.5 " />
<path id= "4" d=" M -36 24.5 L 36 24.5 " />
<path id= "5" d=" M -36 24.5 L -36 19.5 " />
<path id= "6" d=" M -36 19.5 L -38 19.5 " />
<path id= "7" d=" M -38 19.5 L -38 -24.5 " />
<path id= "8" d=" M -38 -24.5 L 38 -24.5 " />
<path id= "9" d=" M 38 19.5 L 36 19.5 " />
<path id= "10" d=" M 36 19.5 L 54 19.5 " />
<path id= "11" d=" M 36 24.5 L 36 19.5 " />
<path id= "12" d=" M -36 24.5 L -36 19.5 " />
<path id= "13" d=" M -36 19.5 L -38 19.5 " />
<path id= "14" d=" M -54 19.5 L -36 19.5 " />
<path id= "15" d=" M 36 24.5 L 36 19.5 " />
<path id= "16" d=" M -36 24.5 L -36 19.5 " />
<path id= "17" d=" M 54 24.5 L 54 19.5 " />
<path id= "18" d=" M 36 24.5 L 54 24.5 " />
<path id= "19" d=" M -54 24.5 L -54 19.5 " />
<path id= "20" d=" M -54 24.5 L -36 24.5 " />
</g>
</g><line x1="220.00" y1="136.32" x2="247.00" y2="136.32" stroke="#1a5276" stroke-width="0.25"/><path d="M 220.00 136.32 L 221.60 135.77 L 221.60 136.88 z" fill="#1a5276"/><path d="M 247.00 136.32 L 245.40 135.77 L 245.40 136.88 z" fill="#1a5276"/><text x="233.50" y="135.42" font-size="3.2" fill="#1a5276" text-anchor="middle" font-family="sans-serif">108</text><line x1="211.80" y1="116.88" x2="211.80" y2="129.12" stroke="#1a5276" stroke-width="0.25"/><path d="M 211.80 116.88 L 211.25 118.47 L 212.35 118.47 z" fill="#1a5276"/><path d="M 211.80 129.12 L 211.25 127.53 L 212.35 127.53 z" fill="#1a5276"/><text x="210.90" y="123.00" font-size="3.2" fill="#1a5276" text-anchor="middle" font-family="sans-serif" transform="rotate(-90 210.90 123.00)">49</text><text x="233.5" y="157.4" font-size="3.4" font-family="sans-serif" fill="#000" text-anchor="middle">RIGHT SIDE</text><text x="10" y="196.0" font-size="2.8" font-family="sans-serif" fill="#333">ALL DIMENSIONS IN MILLIMETERS  |  THIRD-ANGLE PROJECTION  |  views carry overall extent callouts</text><text x="10" y="200.2" font-size="2.8" font-family="sans-serif" fill="#8a2b2b">PROTOTYPE / VERIFY BEFORE MANUFACTURING</text><rect x="195.0" y="160.0" width="96.0" height="44.0" fill="none" stroke="#000" stroke-width="0.5"/><line x1="195.0" y1="174.0" x2="291.0" y2="174.0" stroke="#000" stroke-width="0.3"/><line x1="195.0" y1="182.0" x2="291.0" y2="182.0" stroke="#000" stroke-width="0.3"/><line x1="195.0" y1="190.0" x2="291.0" y2="190.0" stroke="#000" stroke-width="0.3"/><text x="197.0" y="164.0" font-size="2.0" fill="#555" font-family="sans-serif" text-anchor="start">PART</text><text x="197.0" y="171.0" font-size="4.2" fill="#000" font-family="sans-serif" text-anchor="start" font-weight="bold">NIP_BACKPLATE</text><text x="197.0" y="179.5" font-size="2.8" fill="#000" font-family="sans-serif" text-anchor="start">MATERIAL: aluminum   SPEC: guide</text><text x="197.0" y="187.5" font-size="2.8" fill="#000" font-family="sans-serif" text-anchor="start">QTY 1</text><text x="219.0" y="187.5" font-size="2.8" fill="#000" font-family="sans-serif" text-anchor="start">REV A</text><text x="237.0" y="187.5" font-size="2.8" fill="#000" font-family="sans-serif" text-anchor="start">SCALE 1:4</text><text x="197.0" y="195.0" font-size="2.6" fill="#000" font-family="sans-serif" text-anchor="start">BIOBUZZ FTC  |  turret  |  SHEET 64/75  |  UNVERIFIED - rotating ni</text></svg>