<?xml version="1.0" encoding="UTF-8"?><svg xmlns="http://www.w3.org/2000/svg" width="297mm" height="210mm" viewBox="0 0 297 210"><rect x="0" y="0" width="297" height="210" fill="#ffffff"/><rect x="6" y="6" width="285" height="198" fill="none" stroke="#000" stroke-width="0.5"/><g transform="translate(92.50 123.00) scale(0.2500 -0.2500)"><g fill="none" stroke="#000000" stroke-opacity="1" stroke-width="0.7" stroke-linecap="butt" stroke-linejoin="miter" stroke-miterlimit="4">
<path id= "1" d=" M -4 2.25 L -4 -2.25 " />
<path id= "2" d=" M 4 2.25 L 4 -2.25 " />
<path id= "3" d=" M -4 2.25 L 4 2.25 " />
<path id= "4" d=" M -4 -2.25 L 4 -2.25 " />
</g>
<g fill="none" stroke="#000000" stroke-opacity="1" stroke-width="0.35" stroke-dasharray="2.4 1.2" stroke-linecap="butt" stroke-linejoin="miter" stroke-miterlimit="4">
<path id= "1" d=" M -4 2.25 L -4 -2.25 " />
<path id= "2" d=" M 4 2.25 L 4 -2.25 " />
<path id= "3" d=" M -4 2.25 L 4 2.25 " />
<path id= "4" d=" M -4 -2.25 L 4 -2.25 " />
</g>
</g><line x1="91.50" y1="130.76" x2="93.50" y2="130.76" stroke="#1a5276" stroke-width="0.25"/><path d="M 91.50 130.76 L 93.10 130.21 L 93.10 131.31 z" fill="#1a5276"/><path d="M 93.50 130.76 L 91.90 130.21 L 91.90 131.31 z" fill="#1a5276"/><text x="92.50" y="129.86" font-size="3.2" fill="#1a5276" text-anchor="middle" font-family="sans-serif">8</text><line x1="83.30" y1="122.44" x2="83.30" y2="123.56" stroke="#1a5276" stroke-width="0.25"/><path d="M 83.30 122.44 L 82.75 124.04 L 83.85 124.04 z" fill="#1a5276"/><path d="M 83.30 123.56 L 82.75 121.96 L 83.85 121.96 z" fill="#1a5276"/><text x="82.40" y="123.00" font-size="3.2" fill="#1a5276" text-anchor="middle" font-family="sans-serif" transform="rotate(-90 82.40 123.00)">4.5</text><text x="92.5" y="157.4" font-size="3.4" font-family="sans-serif" fill="#000" text-anchor="middle">FRONT</text><g transform="translate(92.50 47.00) scale(0.2500 -0.2500)"><g fill="none" stroke="#000000" stroke-opacity="1" stroke-width="0.7" stroke-linecap="butt" stroke-linejoin="miter" stroke-miterlimit="4">
<path id= "1" d=" M -4 64 L -4 -64 " />
<path id= "2" d=" M 4 64 L 4 -64 " />
<path id= "3" d=" M -4 64 L 4 64 " />
<path id= "4" d=" M -4 -64 L 4 -64 " />
</g>
<g fill="none" stroke="#000000" stroke-opacity="1" stroke-width="0.35" stroke-dasharray="2.4 1.2" stroke-linecap="butt" stroke-linejoin="miter" stroke-miterlimit="4">
<path id= "1" d=" M -4 64 L -4 -64 " />
<path id= "2" d=" M 4 64 L 4 -64 " />
<path id= "3" d=" M -4 64 L 4 64 " />
<path id= "4" d=" M -4 -64 L 4 -64 " />
</g>
</g><line x1="91.50" y1="70.20" x2="93.50" y2="70.20" stroke="#1a5276" stroke-width="0.25"/><path d="M 91.50 70.20 L 93.10 69.65 L 93.10 70.75 z" fill="#1a5276"/><path d="M 93.50 70.20 L 91.90 69.65 L 91.90 70.75 z" fill="#1a5276"/><text x="92.50" y="69.30" font-size="3.2" fill="#1a5276" text-anchor="middle" font-family="sans-serif">8</text><line x1="83.30" y1="31.00" x2="83.30" y2="63.00" stroke="#1a5276" stroke-width="0.25"/><path d="M 83.30 31.00 L 82.75 32.60 L 83.85 32.60 z" fill="#1a5276"/><path d="M 83.30 63.00 L 82.75 61.40 L 83.85 61.40 z" fill="#1a5276"/><text x="82.40" y="47.00" font-size="3.2" fill="#1a5276" text-anchor="middle" font-family="sans-serif" transform="rotate(-90 82.40 47.00)">128</text><text x="92.5" y="79.4" font-size="3.4" font-family="sans-serif" fill="#000" text-anchor="middle">TOP</text><g transform="translate(233.50 123.00) scale(0.2500 -0.2500)"><g fill="none" stroke="#000000" stroke-opacity="1" stroke-width="0.7" stroke-linecap="butt" stroke-linejoin="miter" stroke-miterlimit="4">
<path id= "1" d=" M -64 2.25 L -64 -2.25 " />
<path id= "2" d=" M -64 -2.25 L 64 -2.25 " />
<path id= "3" d=" M 64 2.25 L 64 -2.25 " />
<path id= "4" d=" M -64 2.25 L 64 2.25 " />
</g>
<g fill="none" stroke="#000000" stroke-opacity="1" stroke-width="0.35" stroke-dasharray="2.4 1.2" stroke-linecap="butt" stroke-linejoin="miter" stroke-miterlimit="4">
<path id= "1" d=" M -64 2.25 L -64 -2.25 " />
<path id= "2" d=" M -64 -2.25 L 64 -2.25 " />
<path id= "3" d=" M 64 2.25 L 64 -2.25 " />
<path id= "4" d=" M -64 2.25 L 64 2.25 " />
</g>
</g><line x1="217.50" y1="130.76" x2="249.50" y2="130.76" stroke="#1a5276" stroke-width="0.25"/><path d="M 217.50 130.76 L 219.10 130.21 L 219.10 131.31 z" fill="#1a5276"/><path d="M 249.50 130.76 L 247.90 130.21 L 247.90 131.31 z" fill="#1a5276"/><text x="233.50" y="129.86" font-size="3.2" fill="#1a5276" text-anchor="middle" font-family="sans-serif">128</text><line x1="209.30" y1="122.44" x2="209.30" y2="123.56" stroke="#1a5276" stroke-width="0.25"/><path d="M 209.30 122.44 L 208.75 124.04 L 209.85 124.04 z" fill="#1a5276"/><path d="M 209.30 123.56 L 208.75 121.96 L 209.85 121.96 z" fill="#1a5276"/><text x="208.40" y="123.00" font-size="3.2" fill="#1a5276" text-anchor="middle" font-family="sans-serif" transform="rotate(-90 208.40 123.00)">4.5</text><text x="233.5" y="157.4" font-size="3.4" font-family="sans-serif" fill="#000" text-anchor="middle">RIGHT SIDE</text><text x="10" y="196.0" font-size="2.8" font-family="sans-serif" fill="#333">ALL DIMENSIONS IN MILLIMETERS  |  THIRD-ANGLE PROJECTION  |  views carry overall extent callouts</text><text x="10" y="200.2" font-size="2.8" font-family="sans-serif" fill="#8a2b2b">PROTOTYPE / VERIFY BEFORE MANUFACTURING</text><rect x="195.0" y="160.0" width="96.0" height="44.0" fill="none" stroke="#000" stroke-width="0.5"/><line x1="195.0" y1="174.0" x2="291.0" y2="174.0" stroke="#000" stroke-width="0.3"/><line x1="195.0" y1="182.0" x2="291.0" y2="182.0" stroke="#000" stroke-width="0.3"/><line x1="195.0" y1="190.0" x2="291.0" y2="190.0" stroke="#000" stroke-width="0.3"/><text x="197.0" y="164.0" font-size="2.0" fill="#555" font-family="sans-serif" text-anchor="start">PART</text><text x="197.0" y="171.0" font-size="3.5" fill="#000" font-family="sans-serif" text-anchor="start" font-weight="bold">TURRET_TOP_BRACE</text><text x="197.0" y="179.5" font-size="2.8" fill="#000" font-family="sans-serif" text-anchor="start">MATERIAL: petg   SPEC: 8x128x4.5</text><text x="197.0" y="187.5" font-size="2.8" fill="#000" font-family="sans-serif" text-anchor="start">QTY 1</text><text x="219.0" y="187.5" font-size="2.8" fill="#000" font-family="sans-serif" text-anchor="start">REV A</text><text x="237.0" y="187.5" font-size="2.8" fill="#000" font-family="sans-serif" text-anchor="start">SCALE 1:4</text><text x="197.0" y="195.0" font-size="2.6" fill="#000" font-family="sans-serif" text-anchor="start">BIOBUZZ FTC  |  turret  |  SHEET 65/75  |  UNVERIFIED - cheek top b</text></svg>