0
SECTION
2
HEADER
9
$ACADVER
1
AC1009
9
$INSUNITS
70
4
0
ENDSEC
0
SECTION
2
ENTITIES
0
LINE
8
sheet_layer
100
AcDbEntity
100
AcDbLine
10
4.83169e-13
20
0
30
0
11
4.83169e-13
21
8.95941
31
0
0
LINE
8
sheet_layer
100
AcDbEntity
100
AcDbLine
10
304.8
20
0
30
0
11
304.8
21
8.95941
31
0
0
ARC
8
sheet_layer
100
AcDbEntity
100
AcDbCircle
10
306.65
20
10.15
30
0
40
2.2
100
AcDbArc
50
147.236
51
-147.236
0
LINE
8
sheet_layer
100
AcDbEntity
100
AcDbLine
10
304.8
20
11.3406
30
0
11
304.8
21
36.9594
31
0
0
ARC
8
sheet_layer
100
AcDbEntity
100
AcDbCircle
10
306.65
20
38.15
30
0
40
2.2
100
AcDbArc
50
147.236
51
-147.236
0
LINE
8
sheet_layer
100
AcDbEntity
100
AcDbLine
10
304.8
20
39.3406
30
0
11
304.8
21
48.3
31
0
0
LINE
8
sheet_layer
100
AcDbEntity
100
AcDbLine
10
4.83169e-13
20
48.3
30
0
11
304.8
21
48.3
31
0
0
LINE
8
sheet_layer
100
AcDbEntity
100
AcDbLine
10
4.83169e-13
20
39.3406
30
0
11
4.83169e-13
21
48.3
31
0
0
ARC
8
sheet_layer
100
AcDbEntity
100
AcDbCircle
10
-1.85
20
38.15
30
0
40
2.2
100
AcDbArc
50
0
51
32.7638
0
ARC
8
sheet_layer
100
AcDbEntity
100
AcDbCircle
10
-1.85
20
38.15
30
0
40
2.2
100
AcDbArc
50
-32.7638
51
0
0
LINE
8
sheet_layer
100
AcDbEntity
100
AcDbLine
10
4.83169e-13
20
11.3406
30
0
11
4.83169e-13
21
36.9594
31
0
0
ARC
8
sheet_layer
100
AcDbEntity
100
AcDbCircle
10
-1.85
20
10.15
30
0
40
2.2
100
AcDbArc
50
0
51
32.7638
0
ARC
8
sheet_layer
100
AcDbEntity
100
AcDbCircle
10
-1.85
20
10.15
30
0
40
2.2
100
AcDbArc
50
-32.7638
51
0
0
LINE
8
sheet_layer
100
AcDbEntity
100
AcDbLine
10
4.83169e-13
20
0
30
0
11
304.8
21
0
31
0
0
CIRCLE
8
sheet_layer
100
AcDbEntity
100
AcDbCircle
10
62.4
20
4.15
30
0
40
2.2
0
CIRCLE
8
sheet_layer
100
AcDbEntity
100
AcDbCircle
10
52.65
20
10.15
30
0
40
2.2
0
CIRCLE
8
sheet_layer
100
AcDbEntity
100
AcDbCircle
10
80.4
20
4.15
30
0
40
2.2
0
CIRCLE
8
sheet_layer
100
AcDbEntity
100
AcDbCircle
10
112.4
20
4.15
30
0
40
2.2
0
CIRCLE
8
sheet_layer
100
AcDbEntity
100
AcDbCircle
10
120.4
20
4.15
30
0
40
2.2
0
ARC
8
sheet_layer
100
AcDbEntity
100
AcDbCircle
10
34.4
20
15.15
30
0
40
5
100
AcDbArc
50
0
51
22.4536
0
ARC
8
sheet_layer
100
AcDbEntity
100
AcDbCircle
10
34.4
20
15.15
30
0
40
5
100
AcDbArc
50
160.636
51
-2.03555e-14
0
ARC
8
sheet_layer
100
AcDbEntity
100
AcDbCircle
10
25.4
20
24.15
30
0
40
8.5
100
AcDbArc
50
-120.256
51
-59.744
0
ARC
8
sheet_layer
100
AcDbEntity
100
AcDbCircle
10
16.4
20
15.15
30
0
40
5
100
AcDbArc
50
0
51
19.364
0
ARC
8
sheet_layer
100
AcDbEntity
100
AcDbCircle
10
16.4
20
15.15
30
0
40
5
100
AcDbArc
50
157.546
51
-2.03555e-14
0
ARC
8
sheet_layer
100
AcDbEntity
100
AcDbCircle
10
9.4
20
20.15
30
0
40
3.9
100
AcDbArc
50
0
51
-52.4095
0
ARC
8
sheet_layer
100
AcDbEntity
100
AcDbCircle
10
9.4
20
20.15
30
0
40
3.9
100
AcDbArc
50
-18.6659
51
0
0
ARC
8
sheet_layer
100
AcDbEntity
100
AcDbCircle
10
16.4
20
15.15
30
0
40
5
100
AcDbArc
50
70.636
51
131.378
0
ARC
8
sheet_layer
100
AcDbEntity
100
AcDbCircle
10
25.4
20
24.15
30
0
40
8.5
100
AcDbArc
50
149.744
51
-149.744
0
ARC
8
sheet_layer
100
AcDbEntity
100
AcDbCircle
10
16.4
20
33.15
30
0
40
5
100
AcDbArc
50
-131.378
51
-70.636
0
ARC
8
sheet_layer
100
AcDbEntity
100
AcDbCircle
10
9.4
20
28.15
30
0
40
3.9
100
AcDbArc
50
0
51
18.6659
0
ARC
8
sheet_layer
100
AcDbEntity
100
AcDbCircle
10
9.4
20
28.15
30
0
40
3.9
100
AcDbArc
50
52.4095
51
0
0
ARC
8
sheet_layer
100
AcDbEntity
100
AcDbCircle
10
16.4
20
33.15
30
0
40
5
100
AcDbArc
50
0
51
-157.546
0
ARC
8
sheet_layer
100
AcDbEntity
100
AcDbCircle
10
16.4
20
33.15
30
0
40
5
100
AcDbArc
50
-19.364
51
0
0
ARC
8
sheet_layer
100
AcDbEntity
100
AcDbCircle
10
25.4
20
24.15
30
0
40
8.5
100
AcDbArc
50
59.744
51
120.256
0
ARC
8
sheet_layer
100
AcDbEntity
100
AcDbCircle
10
34.4
20
33.15
30
0
40
5
100
AcDbArc
50
0
51
-160.636
0
ARC
8
sheet_layer
100
AcDbEntity
100
AcDbCircle
10
34.4
20
33.15
30
0
40
5
100
AcDbArc
50
-22.4536
51
0
0
ARC
8
sheet_layer
100
AcDbEntity
100
AcDbCircle
10
41.4
20
28.15
30
0
40
3.9
100
AcDbArc
50
0
51
127.591
0
ARC
8
sheet_layer
100
AcDbEntity
100
AcDbCircle
10
41.4
20
28.15
30
0
40
3.9
100
AcDbArc
50
161.334
51
0
0
ARC
8
sheet_layer
100
AcDbEntity
100
AcDbCircle
10
34.4
20
33.15
30
0
40
5
100
AcDbArc
50
-109.364
51
-48.6217
0
ARC
8
sheet_layer
100
AcDbEntity
100
AcDbCircle
10
25.4
20
24.15
30
0
40
8.5
100
AcDbArc
50
0
51
30.256
0
ARC
8
sheet_layer
100
AcDbEntity
100
AcDbCircle
10
25.4
20
24.15
30
0
40
8.5
100
AcDbArc
50
-30.256
51
-2.39477e-14
0
ARC
8
sheet_layer
100
AcDbEntity
100
AcDbCircle
10
34.4
20
15.15
30
0
40
5
100
AcDbArc
50
48.6217
51
109.364
0
ARC
8
sheet_layer
100
AcDbEntity
100
AcDbCircle
10
41.4
20
20.15
30
0
40
3.9
100
AcDbArc
50
0
51
-161.334
0
ARC
8
sheet_layer
100
AcDbEntity
100
AcDbCircle
10
41.4
20
20.15
30
0
40
3.9
100
AcDbArc
50
-127.591
51
0
0
CIRCLE
8
sheet_layer
100
AcDbEntity
100
AcDbCircle
10
52.65
20
38.15
30
0
40
2.2
0
CIRCLE
8
sheet_layer
100
AcDbEntity
100
AcDbCircle
10
92.4
20
38.15
30
0
40
2.2
0
CIRCLE
8
sheet_layer
100
AcDbEntity
100
AcDbCircle
10
132.4
20
38.15
30
0
40
2.2
0
CIRCLE
8
sheet_layer
100
AcDbEntity
100
AcDbCircle
10
184.4
20
4.15
30
0
40
2.2
0
CIRCLE
8
sheet_layer
100
AcDbEntity
100
AcDbCircle
10
192.4
20
4.15
30
0
40
2.2
0
CIRCLE
8
sheet_layer
100
AcDbEntity
100
AcDbCircle
10
202.4
20
10.15
30
0
40
2.2
0
CIRCLE
8
sheet_layer
100
AcDbEntity
100
AcDbCircle
10
210.4
20
10.15
30
0
40
2.2
0
CIRCLE
8
sheet_layer
100
AcDbEntity
100
AcDbCircle
10
192.4
20
14.15
30
0
40
2.2
0
CIRCLE
8
sheet_layer
100
AcDbEntity
100
AcDbCircle
10
220.4
20
15.15
30
0
40
2.2
0
CIRCLE
8
sheet_layer
100
AcDbEntity
100
AcDbCircle
10
234.4
20
4.15
30
0
40
2.2
0
CIRCLE
8
sheet_layer
100
AcDbEntity
100
AcDbCircle
10
252.15
20
10.15
30
0
40
2.2
0
CIRCLE
8
sheet_layer
100
AcDbEntity
100
AcDbCircle
10
263.4
20
4.15
30
0
40
2.2
0
CIRCLE
8
sheet_layer
100
AcDbEntity
100
AcDbCircle
10
236.4
20
15.15
30
0
40
2.2
0
CIRCLE
8
sheet_layer
100
AcDbEntity
100
AcDbCircle
10
198.4
20
22.15
30
0
40
2.2
0
CIRCLE
8
sheet_layer
100
AcDbEntity
100
AcDbCircle
10
220.4
20
23.15
30
0
40
2.2
0
CIRCLE
8
sheet_layer
100
AcDbEntity
100
AcDbCircle
10
210.4
20
28.15
30
0
40
2.2
0
CIRCLE
8
sheet_layer
100
AcDbEntity
100
AcDbCircle
10
172.4
20
38.15
30
0
40
2.2
0
CIRCLE
8
sheet_layer
100
AcDbEntity
100
AcDbCircle
10
192.4
20
32.15
30
0
40
2.2
0
CIRCLE
8
sheet_layer
100
AcDbEntity
100
AcDbCircle
10
202.4
20
32.15
30
0
40
2.2
0
CIRCLE
8
sheet_layer
100
AcDbEntity
100
AcDbCircle
10
214.4
20
36.15
30
0
40
2.2
0
CIRCLE
8
sheet_layer
100
AcDbEntity
100
AcDbCircle
10
236.4
20
23.15
30
0
40
2.2
0
ARC
8
sheet_layer
100
AcDbEntity
100
AcDbCircle
10
288.4
20
15.15
30
0
40
5
100
AcDbArc
50
0
51
22.4536
0
ARC
8
sheet_layer
100
AcDbEntity
100
AcDbCircle
10
288.4
20
15.15
30
0
40
5
100
AcDbArc
50
160.636
51
-2.03555e-14
0
ARC
8
sheet_layer
100
AcDbEntity
100
AcDbCircle
10
279.4
20
24.15
30
0
40
8.5
100
AcDbArc
50
-120.256
51
-59.744
0
ARC
8
sheet_layer
100
AcDbEntity
100
AcDbCircle
10
270.4
20
15.15
30
0
40
5
100
AcDbArc
50
0
51
19.364
0
ARC
8
sheet_layer
100
AcDbEntity
100
AcDbCircle
10
270.4
20
15.15
30
0
40
5
100
AcDbArc
50
157.546
51
-2.03555e-14
0
ARC
8
sheet_layer
100
AcDbEntity
100
AcDbCircle
10
263.4
20
20.15
30
0
40
3.9
100
AcDbArc
50
0
51
-52.4095
0
ARC
8
sheet_layer
100
AcDbEntity
100
AcDbCircle
10
263.4
20
20.15
30
0
40
3.9
100
AcDbArc
50
-18.6659
51
0
0
ARC
8
sheet_layer
100
AcDbEntity
100
AcDbCircle
10
270.4
20
15.15
30
0
40
5
100
AcDbArc
50
70.636
51
131.378
0
ARC
8
sheet_layer
100
AcDbEntity
100
AcDbCircle
10
279.4
20
24.15
30
0
40
8.5
100
AcDbArc
50
149.744
51
-149.744
0
ARC
8
sheet_layer
100
AcDbEntity
100
AcDbCircle
10
270.4
20
33.15
30
0
40
5
100
AcDbArc
50
-131.378
51
-70.636
0
ARC
8
sheet_layer
100
AcDbEntity
100
AcDbCircle
10
263.4
20
28.15
30
0
40
3.9
100
AcDbArc
50
0
51
18.6659
0
ARC
8
sheet_layer
100
AcDbEntity
100
AcDbCircle
10
263.4
20
28.15
30
0
40
3.9
100
AcDbArc
50
52.4095
51
0
0
ARC
8
sheet_layer
100
AcDbEntity
100
AcDbCircle
10
270.4
20
33.15
30
0
40
5
100
AcDbArc
50
0
51
-157.546
0
ARC
8
sheet_layer
100
AcDbEntity
100
AcDbCircle
10
270.4
20
33.15
30
0
40
5
100
AcDbArc
50
-19.364
51
0
0
ARC
8
sheet_layer
100
AcDbEntity
100
AcDbCircle
10
279.4
20
24.15
30
0
40
8.5
100
AcDbArc
50
59.744
51
120.256
0
ARC
8
sheet_layer
100
AcDbEntity
100
AcDbCircle
10
288.4
20
33.15
30
0
40
5
100
AcDbArc
50
0
51
-160.636
0
ARC
8
sheet_layer
100
AcDbEntity
100
AcDbCircle
10
288.4
20
33.15
30
0
40
5
100
AcDbArc
50
-22.4536
51
0
0
ARC
8
sheet_layer
100
AcDbEntity
100
AcDbCircle
10
295.4
20
28.15
30
0
40
3.9
100
AcDbArc
50
0
51
127.591
0
ARC
8
sheet_layer
100
AcDbEntity
100
AcDbCircle
10
295.4
20
28.15
30
0
40
3.9
100
AcDbArc
50
161.334
51
0
0
ARC
8
sheet_layer
100
AcDbEntity
100
AcDbCircle
10
288.4
20
33.15
30
0
40
5
100
AcDbArc
50
-109.364
51
-48.6217
0
ARC
8
sheet_layer
100
AcDbEntity
100
AcDbCircle
10
279.4
20
24.15
30
0
40
8.5
100
AcDbArc
50
0
51
30.256
0
ARC
8
sheet_layer
100
AcDbEntity
100
AcDbCircle
10
279.4
20
24.15
30
0
40
8.5
100
AcDbArc
50
-30.256
51
-2.39477e-14
0
ARC
8
sheet_layer
100
AcDbEntity
100
AcDbCircle
10
288.4
20
15.15
30
0
40
5
100
AcDbArc
50
48.6217
51
109.364
0
ARC
8
sheet_layer
100
AcDbEntity
100
AcDbCircle
10
295.4
20
20.15
30
0
40
3.9
100
AcDbArc
50
0
51
-161.334
0
ARC
8
sheet_layer
100
AcDbEntity
100
AcDbCircle
10
295.4
20
20.15
30
0
40
3.9
100
AcDbArc
50
-127.591
51
0
0
CIRCLE
8
sheet_layer
100
AcDbEntity
100
AcDbCircle
10
234.4
20
38.15
30
0
40
2.2
0
CIRCLE
8
sheet_layer
100
AcDbEntity
100
AcDbCircle
10
252.15
20
38.15
30
0
40
2.2
0
SPLINE
8
sheet_layer
100
AcDbEntity
100
AcDbSpline
70
0
71
3
72
17
73
13
74
0
40
0
40
0
40
0
40
0
40
0.280358
40
0.280358
40
0.280358
40
0.499327
40
0.499327
40
0.499327
40
0.718095
40
0.718095
40
0.718095
40
1
40
1
40
1
40
1
10
11.7791
20
17.0597
30
0
10
11.8428
20
17.2174
30
0
10
11.9269
20
17.3915
30
0
10
12.0313
20
17.582
30
0
10
12.1141
20
17.7309
30
0
10
12.2158
20
17.8946
30
0
10
12.3303
20
18.0547
30
0
10
12.4444
20
18.2148
30
0
10
12.5661
20
18.3643
30
0
10
12.6801
20
18.4911
30
0
10
12.8274
20
18.6529
30
0
10
12.9656
20
18.7898
30
0
10
13.0949
20
18.9018
30
0
0
CIRCLE
8
sheet_layer
100
AcDbEntity
100
AcDbCircle
10
9.4
20
20.15
30
0
40
2.2
0
SPLINE
8
sheet_layer
100
AcDbEntity
100
AcDbSpline
70
0
71
3
72
17
73
13
74
0
40
0
40
0
40
0
40
0
40
0.280845
40
0.280845
40
0.280845
40
0.500427
40
0.500427
40
0.500427
40
0.72013
40
0.72013
40
0.72013
40
1
40
1
40
1
40
1
10
13.0949
20
29.3982
30
0
10
12.9661
20
29.5098
30
0
10
12.8285
20
29.6461
30
0
10
12.6818
20
29.807
30
0
10
12.5675
20
29.9341
30
0
10
12.4452
20
30.084
30
0
10
12.3307
20
30.2447
30
0
10
12.2158
20
30.4053
30
0
10
12.1137
20
30.5696
30
0
10
12.0308
20
30.719
30
0
10
11.9266
20
30.9091
30
0
10
11.8427
20
31.0829
30
0
10
11.7791
20
31.2403
30
0
0
CIRCLE
8
sheet_layer
100
AcDbEntity
100
AcDbCircle
10
9.4
20
28.15
30
0
40
2.2
0
SPLINE
8
sheet_layer
100
AcDbEntity
100
AcDbSpline
70
0
71
3
72
17
73
13
74
0
40
0
40
0
40
0
40
0
40
0.278865
40
0.278865
40
0.278865
40
0.49893
40
0.49893
40
0.49893
40
0.63389
40
0.63389
40
0.63389
40
1
40
1
40
1
40
1
10
39.0209
20
31.2403
30
0
10
38.9575
20
31.0833
30
0
10
38.8739
20
30.9101
30
0
10
38.7702
20
30.7207
30
0
10
38.6871
20
30.571
30
0
10
38.5849
20
30.4065
30
0
10
38.4698
20
30.2455
30
0
10
38.3988
20
30.1462
30
0
10
38.3267
20
30.0523
30
0
10
38.2534
20
29.9639
30
0
10
38.0556
20
29.7254
30
0
10
37.8729
20
29.5464
30
0
10
37.7051
20
29.3982
30
0
0
CIRCLE
8
sheet_layer
100
AcDbEntity
100
AcDbCircle
10
41.4
20
28.15
30
0
40
2.2
0
SPLINE
8
sheet_layer
100
AcDbEntity
100
AcDbSpline
70
0
71
3
72
17
73
13
74
0
40
0
40
0
40
0
40
0
40
0.280163
40
0.280163
40
0.280163
40
0.500373
40
0.500373
40
0.500373
40
0.719792
40
0.719792
40
0.719792
40
1
40
1
40
1
40
1
10
37.7051
20
18.9018
30
0
10
37.8336
20
18.7904
30
0
10
37.9709
20
18.6545
30
0
10
38.1171
20
18.4941
30
0
10
38.2318
20
18.3668
30
0
10
38.3544
20
18.2165
30
0
10
38.4693
20
18.0553
30
0
10
38.584
20
17.8949
30
0
10
38.686
20
17.7309
30
0
10
38.7689
20
17.5817
30
0
10
38.8732
20
17.3913
30
0
10
38.9573
20
17.2173
30
0
10
39.0209
20
17.0597
30
0
0
CIRCLE
8
sheet_layer
100
AcDbEntity
100
AcDbCircle
10
41.4
20
20.15
30
0
40
2.2
0
SPLINE
8
sheet_layer
100
AcDbEntity
100
AcDbSpline
70
0
71
3
72
17
73
13
74
0
40
0
40
0
40
0
40
0
40
0.280358
40
0.280358
40
0.280358
40
0.499327
40
0.499327
40
0.499327
40
0.718095
40
0.718095
40
0.718095
40
1
40
1
40
1
40
1
10
265.779
20
17.0597
30
0
10
265.843
20
17.2174
30
0
10
265.927
20
17.3915
30
0
10
266.031
20
17.582
30
0
10
266.114
20
17.7309
30
0
10
266.216
20
17.8946
30
0
10
266.33
20
18.0547
30
0
10
266.444
20
18.2148
30
0
10
266.566
20
18.3643
30
0
10
266.68
20
18.4911
30
0
10
266.827
20
18.6529
30
0
10
266.966
20
18.7898
30
0
10
267.095
20
18.9018
30
0
0
CIRCLE
8
sheet_layer
100
AcDbEntity
100
AcDbCircle
10
263.4
20
20.15
30
0
40
2.2
0
SPLINE
8
sheet_layer
100
AcDbEntity
100
AcDbSpline
70
0
71
3
72
17
73
13
74
0
40
0
40
0
40
0
40
0
40
0.280845
40
0.280845
40
0.280845
40
0.500427
40
0.500427
40
0.500427
40
0.72013
40
0.72013
40
0.72013
40
1
40
1
40
1
40
1
10
267.095
20
29.3982
30
0
10
266.966
20
29.5098
30
0
10
266.828
20
29.6461
30
0
10
266.682
20
29.807
30
0
10
266.567
20
29.9341
30
0
10
266.445
20
30.084
30
0
10
266.331
20
30.2447
30
0
10
266.216
20
30.4053
30
0
10
266.114
20
30.5696
30
0
10
266.031
20
30.719
30
0
10
265.927
20
30.9091
30
0
10
265.843
20
31.0829
30
0
10
265.779
20
31.2403
30
0
0
CIRCLE
8
sheet_layer
100
AcDbEntity
100
AcDbCircle
10
263.4
20
28.15
30
0
40
2.2
0
SPLINE
8
sheet_layer
100
AcDbEntity
100
AcDbSpline
70
0
71
3
72
17
73
13
74
0
40
0
40
0
40
0
40
0
40
0.278865
40
0.278865
40
0.278865
40
0.49893
40
0.49893
40
0.49893
40
0.63389
40
0.63389
40
0.63389
40
1
40
1
40
1
40
1
10
293.021
20
31.2403
30
0
10
292.957
20
31.0833
30
0
10
292.874
20
30.9101
30
0
10
292.77
20
30.7207
30
0
10
292.687
20
30.571
30
0
10
292.585
20
30.4065
30
0
10
292.47
20
30.2455
30
0
10
292.399
20
30.1462
30
0
10
292.327
20
30.0523
30
0
10
292.253
20
29.9639
30
0
10
292.056
20
29.7254
30
0
10
291.873
20
29.5464
30
0
10
291.705
20
29.3982
30
0
0
CIRCLE
8
sheet_layer
100
AcDbEntity
100
AcDbCircle
10
295.4
20
28.15
30
0
40
2.2
0
SPLINE
8
sheet_layer
100
AcDbEntity
100
AcDbSpline
70
0
71
3
72
17
73
13
74
0
40
0
40
0
40
0
40
0
40
0.280163
40
0.280163
40
0.280163
40
0.500373
40
0.500373
40
0.500373
40
0.719792
40
0.719792
40
0.719792
40
1
40
1
40
1
40
1
10
291.705
20
18.9018
30
0
10
291.834
20
18.7904
30
0
10
291.971
20
18.6545
30
0
10
292.117
20
18.4941
30
0
10
292.232
20
18.3668
30
0
10
292.354
20
18.2165
30
0
10
292.469
20
18.0553
30
0
10
292.584
20
17.8949
30
0
10
292.686
20
17.7309
30
0
10
292.769
20
17.5817
30
0
10
292.873
20
17.3913
30
0
10
292.957
20
17.2173
30
0
10
293.021
20
17.0597
30
0
0
CIRCLE
8
sheet_layer
100
AcDbEntity
100
AcDbCircle
10
295.4
20
20.15
30
0
40
2.2
0
ENDSEC
0
EOF
