0
SECTION
2
HEADER
9
$ACADVER
1
AC1009
9
$INSUNITS
70
4
0
ENDSEC
0
SECTION
2
ENTITIES
0
LINE
8
sheet_layer
100
AcDbEntity
100
AcDbLine
10
0
20
0
30
0
11
0
21
50.5
31
0
0
LINE
8
sheet_layer
100
AcDbEntity
100
AcDbLine
10
0
20
0
30
0
11
68.5
21
0
31
0
0
LINE
8
sheet_layer
100
AcDbEntity
100
AcDbLine
10
68.5
20
0
30
0
11
68.5
21
50.5
31
0
0
LINE
8
sheet_layer
100
AcDbEntity
100
AcDbLine
10
0
20
50.5
30
0
11
68.5
21
50.5
31
0
0
CIRCLE
8
sheet_layer
100
AcDbEntity
100
AcDbCircle
10
7
20
11.25
30
0
40
2.2
0
CIRCLE
8
sheet_layer
100
AcDbEntity
100
AcDbCircle
10
7
20
39.25
30
0
40
2.2
0
CIRCLE
8
sheet_layer
100
AcDbEntity
100
AcDbCircle
10
34.25
20
25.25
30
0
40
20.25
0
CIRCLE
8
sheet_layer
100
AcDbEntity
100
AcDbCircle
10
61.5
20
11.25
30
0
40
2.2
0
CIRCLE
8
sheet_layer
100
AcDbEntity
100
AcDbCircle
10
61.5
20
39.25
30
0
40
2.2
0
ENDSEC
0
EOF
