0
SECTION
2
HEADER
9
$ACADVER
1
AC1009
9
$INSUNITS
70
4
0
ENDSEC
0
SECTION
2
ENTITIES
0
LINE
8
sheet_layer
100
AcDbEntity
100
AcDbLine
10
0
20
21
30
0
11
0
21
0
31
0
0
LINE
8
sheet_layer
100
AcDbEntity
100
AcDbLine
10
0
20
24
30
0
11
0
21
21
31
0
0
LINE
8
sheet_layer
100
AcDbEntity
100
AcDbLine
10
30
20
24
30
0
11
30
21
21
31
0
0
LINE
8
sheet_layer
100
AcDbEntity
100
AcDbLine
10
30
20
21
30
0
11
30
21
0
31
0
0
LINE
8
sheet_layer
100
AcDbEntity
100
AcDbLine
10
0
20
0
30
0
11
22.0835
21
0
31
0
0
LINE
8
sheet_layer
100
AcDbEntity
100
AcDbLine
10
23.9165
20
0
30
0
11
30
21
0
31
0
0
ARC
8
sheet_layer
100
AcDbEntity
100
AcDbCircle
10
23
20
2
30
0
40
2.2
100
AcDbArc
50
-65.38
51
0
0
ARC
8
sheet_layer
100
AcDbEntity
100
AcDbCircle
10
23
20
2
30
0
40
2.2
100
AcDbArc
50
1.15657e-14
51
-114.62
0
CIRCLE
8
sheet_layer
100
AcDbEntity
100
AcDbCircle
10
7
20
10
30
0
40
2.2
0
LINE
8
sheet_layer
100
AcDbEntity
100
AcDbLine
10
0
20
21
30
0
11
30
21
21
31
0
0
LINE
8
sheet_layer
100
AcDbEntity
100
AcDbLine
10
0
20
24
30
0
11
30
21
24
31
0
0
ENDSEC
0
EOF
