0
SECTION
2
HEADER
9
$ACADVER
1
AC1009
9
$INSUNITS
70
4
0
ENDSEC
0
SECTION
2
ENTITIES
0
LINE
8
sheet_layer
100
AcDbEntity
100
AcDbLine
10
30.6701
20
63.7173
30
0
11
32.9706
21
78.9087
31
0
0
LINE
8
sheet_layer
100
AcDbEntity
100
AcDbLine
10
27.6786
20
63.9995
30
0
11
30.0044
21
79.3579
31
0
0
LINE
8
sheet_layer
100
AcDbEntity
100
AcDbLine
10
33.0692
20
31.3164
30
0
11
30.6701
21
63.7177
31
0
0
LINE
8
sheet_layer
100
AcDbEntity
100
AcDbLine
10
30.0774
20
31.0949
30
0
11
27.6658
21
63.6641
31
0
0
LINE
8
sheet_layer
100
AcDbEntity
100
AcDbLine
10
26.5154
20
26.4607
30
0
11
32.3386
21
29.9156
31
0
0
LINE
8
sheet_layer
100
AcDbEntity
100
AcDbLine
10
24.9846
20
29.0408
30
0
11
30.0087
21
32.0216
31
0
0
LINE
8
sheet_layer
100
AcDbEntity
100
AcDbLine
10
17.1713
20
19.5148
30
0
11
26.5819
21
26.5002
31
0
0
LINE
8
sheet_layer
100
AcDbEntity
100
AcDbLine
10
15.3832
20
21.9237
30
0
11
24.8559
21
28.9552
31
0
0
LINE
8
sheet_layer
100
AcDbEntity
100
AcDbLine
10
15.9849
20
7.77995
30
0
11
17.6759
21
19.8894
31
0
0
LINE
8
sheet_layer
100
AcDbEntity
100
AcDbLine
10
13.0138
20
8.19486
30
0
11
14.7917
21
20.9267
31
0
0
LINE
8
sheet_layer
100
AcDbEntity
100
AcDbLine
10
1.34426
20
7.57041
30
0
11
14.3757
21
6.49251
31
0
0
LINE
8
sheet_layer
100
AcDbEntity
100
AcDbLine
10
1.59156
20
10.5602
30
0
11
13.2099
21
9.59919
31
0
0
LINE
8
sheet_layer
100
AcDbEntity
100
AcDbLine
10
8.58716
20
3.08634
30
0
11
4.99091
21
7.26878
31
0
0
LINE
8
sheet_layer
100
AcDbEntity
100
AcDbLine
10
6.83638
20
0.521073
30
0
11
0.330548
21
8.08735
31
0
0
LINE
8
sheet_layer
100
AcDbEntity
100
AcDbLine
10
19.3747
20
4.42077
30
0
11
7.7896
21
2.98769
31
0
0
LINE
8
sheet_layer
100
AcDbEntity
100
AcDbLine
10
19.8469
20
1.45631
30
0
11
8.1579
21
0.010378
31
0
0
LINE
8
sheet_layer
100
AcDbEntity
100
AcDbLine
10
30.8304
20
7.49741
30
0
11
19.2737
21
4.39363
31
0
0
LINE
8
sheet_layer
100
AcDbEntity
100
AcDbLine
10
31.6085
20
4.60008
30
0
11
20.0518
21
1.4963
31
0
0
ELLIPSE
8
sheet_layer
100
AcDbEntity
100
AcDbEllipse
10
31.4875
20
79.1333
30
0
11
-1.48309
21
0.224593
31
0
40
0.0909603
41
3.14159
42
1.15028
0
ELLIPSE
8
sheet_layer
100
AcDbEntity
100
AcDbEllipse
10
31.4875
20
79.1333
30
0
11
-1.48309
21
0.224593
31
0
40
0.0909603
41
6.28319
42
3.14159
0
ELLIPSE
8
sheet_layer
100
AcDbEntity
100
AcDbEllipse
10
31.4875
20
79.1333
30
0
11
-1.48309
21
0.224593
31
0
40
0.0909603
41
1.15028
42
0
0
ELLIPSE
8
sheet_layer
100
AcDbEntity
100
AcDbEllipse
10
29.1617
20
63.7749
30
0
11
-1.48309
21
0.224593
31
0
40
0.0909603
41
6.28319
42
5.61406
0
SPLINE
8
sheet_layer
100
AcDbEntity
100
AcDbSpline
70
0
71
3
72
35
73
31
74
0
40
4.71239
40
4.71239
40
4.71239
40
4.71239
40
4.82459
40
4.82459
40
4.82459
40
4.93679
40
4.93679
40
4.93679
40
5.04899
40
5.04899
40
5.04899
40
5.16119
40
5.16119
40
5.16119
40
5.27339
40
5.27339
40
5.27339
40
5.49779
40
5.49779
40
5.49779
40
5.94659
40
5.94659
40
5.94659
40
6.05879
40
6.05879
40
6.05879
40
6.17099
40
6.17099
40
6.17099
40
6.28319
40
6.28319
40
6.28319
40
6.28319
10
27.9858
20
63.8674
30
0
10
28.0235
20
63.8681
30
0
10
28.0612
20
63.8687
30
0
10
28.0989
20
63.8694
30
0
10
28.1411
20
63.8697
30
0
10
28.1833
20
63.87
30
0
10
28.2254
20
63.8703
30
0
10
28.2715
20
63.8701
30
0
10
28.3176
20
63.87
30
0
10
28.3637
20
63.8699
30
0
10
28.4132
20
63.8694
30
0
10
28.4626
20
63.8689
30
0
10
28.5121
20
63.8683
30
0
10
28.5642
20
63.8674
30
0
10
28.6164
20
63.8665
30
0
10
28.6686
20
63.8656
30
0
10
28.7762
20
63.8632
30
0
10
28.8861
20
63.8603
30
0
10
28.9981
20
63.8568
30
0
10
29.223
20
63.8493
30
0
10
29.451
20
63.8393
30
0
10
29.6649
20
63.8275
30
0
10
29.7169
20
63.8244
30
0
10
29.7689
20
63.8213
30
0
10
29.8209
20
63.8182
30
0
10
29.8702
20
63.815
30
0
10
29.9194
20
63.8117
30
0
10
29.9687
20
63.8084
30
0
10
30.0146
20
63.805
30
0
10
30.0604
20
63.8016
30
0
10
30.1063
20
63.7982
30
0
0
SPLINE
8
sheet_layer
100
AcDbEntity
100
AcDbSpline
70
0
71
3
72
11
73
7
74
0
40
0
40
0
40
0
40
0
40
0.445164
40
0.445164
40
0.445164
40
0.890327
40
0.890327
40
0.890327
40
0.890327
10
30.1063
20
63.7982
30
0
10
30.2805
20
63.7845
30
0
10
30.4228
20
63.77
30
0
10
30.5206
20
63.7561
30
0
10
30.6172
20
63.7423
30
0
10
30.6685
20
63.729
30
0
10
30.6701
20
63.7177
30
0
0
SPLINE
8
sheet_layer
100
AcDbEntity
100
AcDbSpline
70
0
71
1
72
4
73
2
74
0
40
0.890327
40
0.890327
40
0.901671
40
0.901671
10
30.6701
20
63.7177
30
0
10
30.67
20
63.7168
30
0
0
ELLIPSE
8
sheet_layer
100
AcDbEntity
100
AcDbEllipse
10
29.1617
20
63.7749
30
0
11
-1.4959
21
-0.110763
31
0
40
0.189741
41
5.60272
42
6.28319
0
ELLIPSE
8
sheet_layer
100
AcDbEntity
100
AcDbEllipse
10
31.5733
20
31.2057
30
0
11
-1.4959
21
-0.110763
31
0
40
0.189741
41
2.76296
42
3.14159
0
ELLIPSE
8
sheet_layer
100
AcDbEntity
100
AcDbEllipse
10
31.5733
20
31.2057
30
0
11
-1.4959
21
-0.110763
31
0
40
0.189741
41
3.14159
42
6.28319
0
ELLIPSE
8
sheet_layer
100
AcDbEntity
100
AcDbEllipse
10
31.5733
20
31.2057
30
0
11
-0.765368
21
1.29004
31
0
40
0.910805
41
3.14159
42
2.06758
0
ELLIPSE
8
sheet_layer
100
AcDbEntity
100
AcDbEllipse
10
31.5733
20
31.2057
30
0
11
-0.765368
21
1.29004
31
0
40
0.910805
41
5.30438
42
3.14159
0
ELLIPSE
8
sheet_layer
100
AcDbEntity
100
AcDbEllipse
10
25.75
20
27.7508
30
0
11
-0.765368
21
1.29004
31
0
40
0.910805
41
6.28319
42
5.30438
0
ELLIPSE
8
sheet_layer
100
AcDbEntity
100
AcDbEllipse
10
25.75
20
27.7508
30
0
11
-0.765368
21
1.29004
31
0
40
0.910805
41
5.30438
42
3.14159
0
ELLIPSE
8
sheet_layer
100
AcDbEntity
100
AcDbEllipse
10
25.75
20
27.7508
30
0
11
-0.894047
21
1.20444
31
0
40
0.945857
41
6.28319
42
5.38477
0
ELLIPSE
8
sheet_layer
100
AcDbEntity
100
AcDbEllipse
10
25.75
20
27.7508
30
0
11
-0.894047
21
1.20444
31
0
40
0.945857
41
0.062021
42
0
0
ELLIPSE
8
sheet_layer
100
AcDbEntity
100
AcDbEllipse
10
25.75
20
27.7508
30
0
11
-0.894047
21
1.20444
31
0
40
0.945857
41
5.38477
42
3.14159
0
ELLIPSE
8
sheet_layer
100
AcDbEntity
100
AcDbEllipse
10
16.2773
20
20.7193
30
0
11
-0.894047
21
1.20444
31
0
40
0.945857
41
6.28319
42
5.38477
0
ELLIPSE
8
sheet_layer
100
AcDbEntity
100
AcDbEllipse
10
16.2773
20
20.7193
30
0
11
-0.894047
21
1.20444
31
0
40
0.945857
41
5.38477
42
3.14159
0
ELLIPSE
8
sheet_layer
100
AcDbEntity
100
AcDbEllipse
10
16.2773
20
20.7193
30
0
11
-1.48559
21
0.207452
31
0
40
0.529477
41
6.28319
42
3.14159
0
ELLIPSE
8
sheet_layer
100
AcDbEntity
100
AcDbEllipse
10
16.2773
20
20.7193
30
0
11
-1.48559
21
0.207452
31
0
40
0.529477
41
0.245628
42
0
0
ELLIPSE
8
sheet_layer
100
AcDbEntity
100
AcDbEllipse
10
14.4994
20
7.98741
30
0
11
-1.48559
21
0.207452
31
0
40
0.529477
41
6.28319
42
3.14159
0
ELLIPSE
8
sheet_layer
100
AcDbEntity
100
AcDbEllipse
10
14.4994
20
7.98741
30
0
11
0.123651
21
1.49489
31
0
40
0.976834
41
6.28319
42
4.46781
0
ELLIPSE
8
sheet_layer
100
AcDbEntity
100
AcDbEllipse
10
14.4994
20
7.98741
30
0
11
0.123651
21
1.49489
31
0
40
0.976834
41
3.14159
42
1.75735
0
ELLIPSE
8
sheet_layer
100
AcDbEntity
100
AcDbEllipse
10
14.4994
20
7.98741
30
0
11
0.123651
21
1.49489
31
0
40
0.976834
41
4.46781
42
3.14159
0
ELLIPSE
8
sheet_layer
100
AcDbEntity
100
AcDbEllipse
10
1.46791
20
9.06531
30
0
11
0.123651
21
1.49489
31
0
40
0.976834
41
6.28319
42
4.46781
0
ELLIPSE
8
sheet_layer
100
AcDbEntity
100
AcDbEllipse
10
1.46791
20
9.06531
30
0
11
-1.13736
21
-0.977958
31
0
40
0.948908
41
3.14159
42
6.28319
0
ELLIPSE
8
sheet_layer
100
AcDbEntity
100
AcDbEllipse
10
7.97375
20
1.49903
30
0
11
-1.13736
21
-0.977958
31
0
40
0.948908
41
3.14159
42
6.28319
0
ELLIPSE
8
sheet_layer
100
AcDbEntity
100
AcDbEllipse
10
7.97375
20
1.49903
30
0
11
-1.13736
21
-0.977958
31
0
40
0.948908
41
0
42
0.491086
0
ELLIPSE
8
sheet_layer
100
AcDbEntity
100
AcDbEllipse
10
7.97375
20
1.49903
30
0
11
0.184147
21
-1.48865
31
0
40
0.956226
41
3.14159
42
6.28319
0
ELLIPSE
8
sheet_layer
100
AcDbEntity
100
AcDbEllipse
10
19.6627
20
2.94496
30
0
11
0.184147
21
-1.48865
31
0
40
0.956226
41
3.14159
42
6.28319
0
ELLIPSE
8
sheet_layer
100
AcDbEntity
100
AcDbEllipse
10
19.6627
20
2.94496
30
0
11
0.184147
21
-1.48865
31
0
40
0.956226
41
0
42
0.0649323
0
ELLIPSE
8
sheet_layer
100
AcDbEntity
100
AcDbEllipse
10
19.6627
20
2.94496
30
0
11
0.389067
21
-1.44866
31
0
40
0.970998
41
3.14159
42
6.28319
0
ELLIPSE
8
sheet_layer
100
AcDbEntity
100
AcDbEllipse
10
31.2195
20
6.04875
30
0
11
0.389067
21
-1.44866
31
0
40
0.970998
41
3.14159
42
3.14159
0
ELLIPSE
8
sheet_layer
100
AcDbEntity
100
AcDbEllipse
10
31.2195
20
6.04875
30
0
11
0.389067
21
-1.44866
31
0
40
0.970998
41
3.14159
42
6.28319
0
CIRCLE
8
sheet_layer
100
AcDbEntity
100
AcDbCircle
10
31.2195
20
6.04875
30
0
40
1.5
0
ENDSEC
0
EOF
