0
SECTION
2
HEADER
9
$ACADVER
1
AC1009
9
$INSUNITS
70
4
0
ENDSEC
0
SECTION
2
ENTITIES
0
LINE
8
sheet_layer
100
AcDbEntity
100
AcDbLine
10
24.2689
20
110
30
0
11
37.3928
21
110
31
0
0
LINE
8
sheet_layer
100
AcDbEntity
100
AcDbLine
10
41.312
20
110
30
0
11
98.4359
21
110
31
0
0
LINE
8
sheet_layer
100
AcDbEntity
100
AcDbLine
10
100.269
20
110
30
0
11
111.352
21
110
31
0
0
LINE
8
sheet_layer
100
AcDbEntity
100
AcDbLine
10
111.352
20
110
30
0
11
111.352
21
1.42109e-14
31
0
0
LINE
8
sheet_layer
100
AcDbEntity
100
AcDbLine
10
4.26326e-14
20
1.42109e-14
30
0
11
111.352
21
1.42109e-14
31
0
0
LINE
8
sheet_layer
100
AcDbEntity
100
AcDbLine
10
4.26326e-14
20
1.42109e-14
30
0
11
4.26326e-14
21
86
31
0
0
LINE
8
sheet_layer
100
AcDbEntity
100
AcDbLine
10
0
20
86
30
0
11
38.3524
21
86
31
0
0
LINE
8
sheet_layer
100
AcDbEntity
100
AcDbLine
10
38.3524
20
86
30
0
11
38.3524
21
93
31
0
0
LINE
8
sheet_layer
100
AcDbEntity
100
AcDbLine
10
0
20
93
30
0
11
38.3524
21
93
31
0
0
LINE
8
sheet_layer
100
AcDbEntity
100
AcDbLine
10
4.26326e-14
20
93
30
0
11
4.26326e-14
21
110
31
0
0
LINE
8
sheet_layer
100
AcDbEntity
100
AcDbLine
10
4.26326e-14
20
110
30
0
11
22.4359
21
110
31
0
0
CIRCLE
8
sheet_layer
100
AcDbEntity
100
AcDbCircle
10
23.3524
20
100
30
0
40
2.2
0
CIRCLE
8
sheet_layer
100
AcDbEntity
100
AcDbCircle
10
99.3524
20
100
30
0
40
2.2
0
CIRCLE
8
sheet_layer
100
AcDbEntity
100
AcDbCircle
10
79.3524
20
93
30
0
40
2.2
0
ARC
8
sheet_layer
100
AcDbEntity
100
AcDbCircle
10
23.3524
20
108
30
0
40
2.2
100
AcDbArc
50
114.62
51
0
0
ARC
8
sheet_layer
100
AcDbEntity
100
AcDbCircle
10
23.3524
20
108
30
0
40
2.2
100
AcDbArc
50
0
51
65.38
0
ARC
8
sheet_layer
100
AcDbEntity
100
AcDbCircle
10
39.3524
20
109
30
0
40
2.2
100
AcDbArc
50
152.964
51
0
0
ARC
8
sheet_layer
100
AcDbEntity
100
AcDbCircle
10
39.3524
20
109
30
0
40
2.2
100
AcDbArc
50
0
51
27.0357
0
ARC
8
sheet_layer
100
AcDbEntity
100
AcDbCircle
10
99.3524
20
108
30
0
40
2.2
100
AcDbArc
50
114.62
51
0
0
ARC
8
sheet_layer
100
AcDbEntity
100
AcDbCircle
10
99.3524
20
108
30
0
40
2.2
100
AcDbArc
50
0
51
65.38
0
ENDSEC
0
EOF
