0
SECTION
2
HEADER
9
$ACADVER
1
AC1009
9
$INSUNITS
70
4
0
ENDSEC
0
SECTION
2
ENTITIES
0
LINE
8
sheet_layer
100
AcDbEntity
100
AcDbLine
10
0
20
0
30
0
11
0
21
72.567
31
0
0
ARC
8
sheet_layer
100
AcDbEntity
100
AcDbCircle
10
55
20
80
30
0
40
55.5
100
AcDbArc
50
-172.303
51
-100.38
0
LINE
8
sheet_layer
100
AcDbEntity
100
AcDbLine
10
45
20
24
30
0
11
45
21
25.4083
31
0
0
LINE
8
sheet_layer
100
AcDbEntity
100
AcDbLine
10
47
20
24
30
0
11
45
21
24
31
0
0
LINE
8
sheet_layer
100
AcDbEntity
100
AcDbLine
10
47
20
0
30
0
11
47
21
24
31
0
0
LINE
8
sheet_layer
100
AcDbEntity
100
AcDbLine
10
0
20
0
30
0
11
47
21
0
31
0
0
ARC
8
sheet_layer
100
AcDbEntity
100
AcDbCircle
10
55
20
80
30
0
40
55.5
100
AcDbArc
50
-64.2767
51
-23.2315
0
LINE
8
sheet_layer
100
AcDbEntity
100
AcDbLine
10
106
20
30
30
0
11
106
21
58.1082
31
0
0
LINE
8
sheet_layer
100
AcDbEntity
100
AcDbLine
10
106
20
30
30
0
11
79.0884
21
30
31
0
0
LINE
8
sheet_layer
100
AcDbEntity
100
AcDbLine
10
0
20
87.433
30
0
11
0
21
160
31
0
0
LINE
8
sheet_layer
100
AcDbEntity
100
AcDbLine
10
0
20
160
30
0
11
47
21
160
31
0
0
LINE
8
sheet_layer
100
AcDbEntity
100
AcDbLine
10
47
20
136
30
0
11
47
21
160
31
0
0
LINE
8
sheet_layer
100
AcDbEntity
100
AcDbLine
10
47
20
136
30
0
11
45
21
136
31
0
0
LINE
8
sheet_layer
100
AcDbEntity
100
AcDbLine
10
45
20
134.592
30
0
11
45
21
136
31
0
0
ARC
8
sheet_layer
100
AcDbEntity
100
AcDbCircle
10
55
20
80
30
0
40
55.5
100
AcDbArc
50
100.38
51
172.303
0
LINE
8
sheet_layer
100
AcDbEntity
100
AcDbLine
10
106
20
130
30
0
11
79.0884
21
130
31
0
0
LINE
8
sheet_layer
100
AcDbEntity
100
AcDbLine
10
106
20
101.892
30
0
11
106
21
130
31
0
0
ARC
8
sheet_layer
100
AcDbEntity
100
AcDbCircle
10
55
20
80
30
0
40
55.5
100
AcDbArc
50
23.2315
51
64.2767
0
ENDSEC
0
EOF
