0
SECTION
2
HEADER
9
$ACADVER
1
AC1009
9
$INSUNITS
70
4
0
ENDSEC
0
SECTION
2
ENTITIES
0
LINE
8
sheet_layer
100
AcDbEntity
100
AcDbLine
10
0
20
26
30
0
11
0
21
-1.42109e-14
31
0
0
LINE
8
sheet_layer
100
AcDbEntity
100
AcDbLine
10
0
20
-1.42109e-14
30
0
11
26
21
-1.42109e-14
31
0
0
LINE
8
sheet_layer
100
AcDbEntity
100
AcDbLine
10
0
20
26
30
0
11
26
21
26
31
0
0
LINE
8
sheet_layer
100
AcDbEntity
100
AcDbLine
10
26
20
26
30
0
11
26
21
-1.42109e-14
31
0
0
CIRCLE
8
sheet_layer
100
AcDbEntity
100
AcDbCircle
10
4
20
22
30
0
40
2.2
0
CIRCLE
8
sheet_layer
100
AcDbEntity
100
AcDbCircle
10
4
20
4
30
0
40
2.2
0
CIRCLE
8
sheet_layer
100
AcDbEntity
100
AcDbCircle
10
22
20
22
30
0
40
2.2
0
CIRCLE
8
sheet_layer
100
AcDbEntity
100
AcDbCircle
10
13
20
13
30
0
40
4.8
0
CIRCLE
8
sheet_layer
100
AcDbEntity
100
AcDbCircle
10
22
20
4
30
0
40
2.2
0
ENDSEC
0
EOF
