0
SECTION
2
HEADER
9
$ACADVER
1
AC1009
9
$INSUNITS
70
4
0
ENDSEC
0
SECTION
2
ENTITIES
0
LINE
8
sheet_layer
100
AcDbEntity
100
AcDbLine
10
0
20
110
30
0
11
0
21
93
31
0
0
LINE
8
sheet_layer
100
AcDbEntity
100
AcDbLine
10
0
20
93
30
0
11
92
21
93
31
0
0
LINE
8
sheet_layer
100
AcDbEntity
100
AcDbLine
10
0
20
110
30
0
11
31.3225
21
110
31
0
0
ARC
8
sheet_layer
100
AcDbEntity
100
AcDbCircle
10
36.2
20
108.9
30
0
40
5
100
AcDbArc
50
167.291
51
0
0
ARC
8
sheet_layer
100
AcDbEntity
100
AcDbCircle
10
36.2
20
108.9
30
0
40
5
100
AcDbArc
50
0
51
12.709
0
LINE
8
sheet_layer
100
AcDbEntity
100
AcDbLine
10
41.0775
20
110
30
0
11
76.0835
21
110
31
0
0
ARC
8
sheet_layer
100
AcDbEntity
100
AcDbCircle
10
77
20
108
30
0
40
2.2
100
AcDbArc
50
114.62
51
0
0
ARC
8
sheet_layer
100
AcDbEntity
100
AcDbCircle
10
77
20
108
30
0
40
2.2
100
AcDbArc
50
0
51
65.38
0
LINE
8
sheet_layer
100
AcDbEntity
100
AcDbLine
10
77.9165
20
110
30
0
11
91.0404
21
110
31
0
0
ARC
8
sheet_layer
100
AcDbEntity
100
AcDbCircle
10
93
20
109
30
0
40
2.2
100
AcDbArc
50
152.964
51
0
0
ARC
8
sheet_layer
100
AcDbEntity
100
AcDbCircle
10
93
20
109
30
0
40
2.2
100
AcDbArc
50
0
51
27.0357
0
LINE
8
sheet_layer
100
AcDbEntity
100
AcDbLine
10
94.9596
20
110
30
0
11
152.083
21
110
31
0
0
ARC
8
sheet_layer
100
AcDbEntity
100
AcDbCircle
10
153
20
108
30
0
40
2.2
100
AcDbArc
50
114.62
51
0
0
ARC
8
sheet_layer
100
AcDbEntity
100
AcDbCircle
10
153
20
108
30
0
40
2.2
100
AcDbArc
50
0
51
65.38
0
LINE
8
sheet_layer
100
AcDbEntity
100
AcDbLine
10
153.917
20
110
30
0
11
165
21
110
31
0
0
LINE
8
sheet_layer
100
AcDbEntity
100
AcDbLine
10
165
20
110
30
0
11
165
21
1.42109e-14
31
0
0
LINE
8
sheet_layer
100
AcDbEntity
100
AcDbLine
10
63.2
20
1.42109e-14
30
0
11
165
21
1.42109e-14
31
0
0
ARC
8
sheet_layer
100
AcDbEntity
100
AcDbCircle
10
61
20
1.77636e-15
30
0
40
2.2
100
AcDbArc
50
0
51
180
0
LINE
8
sheet_layer
100
AcDbEntity
100
AcDbLine
10
29.2
20
1.42109e-14
30
0
11
58.8
21
1.42109e-14
31
0
0
ARC
8
sheet_layer
100
AcDbEntity
100
AcDbCircle
10
27
20
1.77636e-15
30
0
40
2.2
100
AcDbArc
50
0
51
180
0
LINE
8
sheet_layer
100
AcDbEntity
100
AcDbLine
10
0
20
1.42109e-14
30
0
11
24.8
21
1.42109e-14
31
0
0
LINE
8
sheet_layer
100
AcDbEntity
100
AcDbLine
10
0
20
86
30
0
11
0
21
1.42109e-14
31
0
0
LINE
8
sheet_layer
100
AcDbEntity
100
AcDbLine
10
0
20
86
30
0
11
92
21
86
31
0
0
LINE
8
sheet_layer
100
AcDbEntity
100
AcDbLine
10
92
20
86
30
0
11
92
21
93
31
0
0
CIRCLE
8
sheet_layer
100
AcDbEntity
100
AcDbCircle
10
31
20
58.2
30
0
40
1.7
0
CIRCLE
8
sheet_layer
100
AcDbEntity
100
AcDbCircle
10
47
20
58.2
30
0
40
1.7
0
CIRCLE
8
sheet_layer
100
AcDbEntity
100
AcDbCircle
10
77
20
100
30
0
40
2.2
0
CIRCLE
8
sheet_layer
100
AcDbEntity
100
AcDbCircle
10
31
20
40.2
30
0
40
1.7
0
CIRCLE
8
sheet_layer
100
AcDbEntity
100
AcDbCircle
10
36.2
20
49.2
30
0
40
8.5
0
CIRCLE
8
sheet_layer
100
AcDbEntity
100
AcDbCircle
10
47
20
40.2
30
0
40
1.7
0
CIRCLE
8
sheet_layer
100
AcDbEntity
100
AcDbCircle
10
27
20
12
30
0
40
2.2
0
CIRCLE
8
sheet_layer
100
AcDbEntity
100
AcDbCircle
10
43
20
6
30
0
40
4.5
0
CIRCLE
8
sheet_layer
100
AcDbEntity
100
AcDbCircle
10
61
20
12
30
0
40
2.2
0
CIRCLE
8
sheet_layer
100
AcDbEntity
100
AcDbCircle
10
133
20
93
30
0
40
2.2
0
CIRCLE
8
sheet_layer
100
AcDbEntity
100
AcDbCircle
10
153
20
100
30
0
40
2.2
0
CIRCLE
8
sheet_layer
100
AcDbEntity
100
AcDbCircle
10
130
20
74.4
30
0
40
2.2
0
CIRCLE
8
sheet_layer
100
AcDbEntity
100
AcDbCircle
10
130
20
54.4
30
0
40
2.2
0
CIRCLE
8
sheet_layer
100
AcDbEntity
100
AcDbCircle
10
148
20
74.4
30
0
40
2.2
0
CIRCLE
8
sheet_layer
100
AcDbEntity
100
AcDbCircle
10
139
20
64.4
30
0
40
8
0
CIRCLE
8
sheet_layer
100
AcDbEntity
100
AcDbCircle
10
148
20
54.4
30
0
40
2.2
0
ENDSEC
0
EOF
