0
SECTION
2
HEADER
9
$ACADVER
1
AC1009
9
$INSUNITS
70
4
0
ENDSEC
0
SECTION
2
ENTITIES
0
LINE
8
sheet_layer
100
AcDbEntity
100
AcDbLine
10
4.26326e-13
20
0
30
0
11
4.26326e-13
21
51.0835
31
0
0
ARC
8
sheet_layer
100
AcDbEntity
100
AcDbCircle
10
2
20
52
30
0
40
2.2
100
AcDbArc
50
-155.38
51
0
0
ARC
8
sheet_layer
100
AcDbEntity
100
AcDbCircle
10
2
20
52
30
0
40
2.2
100
AcDbArc
50
0
51
155.38
0
LINE
8
sheet_layer
100
AcDbEntity
100
AcDbLine
10
4.26326e-13
20
52.9165
30
0
11
4.26326e-13
21
118.02
31
0
0
LINE
8
sheet_layer
100
AcDbEntity
100
AcDbLine
10
4.26326e-13
20
118.02
30
0
11
294
21
118.02
31
0
0
LINE
8
sheet_layer
100
AcDbEntity
100
AcDbLine
10
294
20
74
30
0
11
294
21
118.02
31
0
0
LINE
8
sheet_layer
100
AcDbEntity
100
AcDbLine
10
294
20
74
30
0
11
282
21
74
31
0
0
LINE
8
sheet_layer
100
AcDbEntity
100
AcDbLine
10
282
20
60
30
0
11
282
21
74
31
0
0
LINE
8
sheet_layer
100
AcDbEntity
100
AcDbLine
10
294
20
60
30
0
11
282
21
60
31
0
0
LINE
8
sheet_layer
100
AcDbEntity
100
AcDbLine
10
294
20
0
30
0
11
294
21
60
31
0
0
LINE
8
sheet_layer
100
AcDbEntity
100
AcDbLine
10
104
20
0
30
0
11
294
21
0
31
0
0
LINE
8
sheet_layer
100
AcDbEntity
100
AcDbLine
10
104
20
0
30
0
11
104
21
18
31
0
0
LINE
8
sheet_layer
100
AcDbEntity
100
AcDbLine
10
104
20
18
30
0
11
46
21
18
31
0
0
LINE
8
sheet_layer
100
AcDbEntity
100
AcDbLine
10
46
20
0
30
0
11
46
21
18
31
0
0
LINE
8
sheet_layer
100
AcDbEntity
100
AcDbLine
10
4.26326e-13
20
0
30
0
11
46
21
0
31
0
0
CIRCLE
8
sheet_layer
100
AcDbEntity
100
AcDbCircle
10
19
20
7
30
0
40
2.2
0
CIRCLE
8
sheet_layer
100
AcDbEntity
100
AcDbCircle
10
134
20
7
30
0
40
2.2
0
CIRCLE
8
sheet_layer
100
AcDbEntity
100
AcDbCircle
10
6
20
42
30
0
40
2.2
0
CIRCLE
8
sheet_layer
100
AcDbEntity
100
AcDbCircle
10
18
20
42
30
0
40
2.2
0
CIRCLE
8
sheet_layer
100
AcDbEntity
100
AcDbCircle
10
156
20
42
30
0
40
2.2
0
CIRCLE
8
sheet_layer
100
AcDbEntity
100
AcDbCircle
10
164
20
42
30
0
40
2.2
0
CIRCLE
8
sheet_layer
100
AcDbEntity
100
AcDbCircle
10
16
20
52
30
0
40
2.2
0
CIRCLE
8
sheet_layer
100
AcDbEntity
100
AcDbCircle
10
14
20
59
30
0
40
2.2
0
CIRCLE
8
sheet_layer
100
AcDbEntity
100
AcDbCircle
10
50
20
59
30
0
40
2.2
0
CIRCLE
8
sheet_layer
100
AcDbEntity
100
AcDbCircle
10
86
20
59
30
0
40
2.2
0
CIRCLE
8
sheet_layer
100
AcDbEntity
100
AcDbCircle
10
122
20
59
30
0
40
2.2
0
CIRCLE
8
sheet_layer
100
AcDbEntity
100
AcDbCircle
10
19
20
91
30
0
40
2.2
0
CIRCLE
8
sheet_layer
100
AcDbEntity
100
AcDbCircle
10
24
20
94.02
30
0
40
2.2
0
CIRCLE
8
sheet_layer
100
AcDbEntity
100
AcDbCircle
10
114
20
94.02
30
0
40
2.2
0
CIRCLE
8
sheet_layer
100
AcDbEntity
100
AcDbCircle
10
134
20
91
30
0
40
2.2
0
CIRCLE
8
sheet_layer
100
AcDbEntity
100
AcDbCircle
10
152
20
52
30
0
40
2.2
0
CIRCLE
8
sheet_layer
100
AcDbEntity
100
AcDbCircle
10
166
20
52
30
0
40
2.2
0
CIRCLE
8
sheet_layer
100
AcDbEntity
100
AcDbCircle
10
204
20
94.02
30
0
40
2.2
0
CIRCLE
8
sheet_layer
100
AcDbEntity
100
AcDbCircle
10
284
20
94.02
30
0
40
2.2
0
ENDSEC
0
EOF
