0
SECTION
2
HEADER
9
$ACADVER
1
AC1009
9
$INSUNITS
70
4
0
ENDSEC
0
SECTION
2
ENTITIES
0
LINE
8
sheet_layer
100
AcDbEntity
100
AcDbLine
10
4.64376
20
4.8
30
0
11
3.27961
21
4.8
31
0
0
LINE
8
sheet_layer
100
AcDbEntity
100
AcDbLine
10
4.64376
20
5.77316e-15
30
0
11
3.27961
21
5.77316e-15
31
0
0
LINE
8
sheet_layer
100
AcDbEntity
100
AcDbLine
10
3.27961
20
4.8
30
0
11
2.52116
21
4.8
31
0
0
LINE
8
sheet_layer
100
AcDbEntity
100
AcDbLine
10
3.27961
20
5.77316e-15
30
0
11
2.52116
21
5.77316e-15
31
0
0
LINE
8
sheet_layer
100
AcDbEntity
100
AcDbLine
10
105.238
20
5.77316e-15
30
0
11
105.139
21
5.77316e-15
31
0
0
LINE
8
sheet_layer
100
AcDbEntity
100
AcDbLine
10
105.34
20
4.8
30
0
11
105.238
21
4.8
31
0
0
LINE
8
sheet_layer
100
AcDbEntity
100
AcDbLine
10
105.34
20
5.77316e-15
30
0
11
105.238
21
5.77316e-15
31
0
0
LINE
8
sheet_layer
100
AcDbEntity
100
AcDbLine
10
105.78
20
4.8
30
0
11
105.78
21
4.8
31
0
0
LINE
8
sheet_layer
100
AcDbEntity
100
AcDbLine
10
105.78
20
4.8
30
0
11
34.8872
21
4.8
31
0
0
LINE
8
sheet_layer
100
AcDbEntity
100
AcDbLine
10
105.78
20
5.77316e-15
30
0
11
34.8872
21
5.77316e-15
31
0
0
LINE
8
sheet_layer
100
AcDbEntity
100
AcDbLine
10
105.553
20
4.8
30
0
11
105.445
21
4.8
31
0
0
LINE
8
sheet_layer
100
AcDbEntity
100
AcDbLine
10
105.553
20
5.77316e-15
30
0
11
105.445
21
5.77316e-15
31
0
0
LINE
8
sheet_layer
100
AcDbEntity
100
AcDbLine
10
32.5857
20
4.8
30
0
11
32.997
21
4.8
31
0
0
LINE
8
sheet_layer
100
AcDbEntity
100
AcDbLine
10
32.5857
20
4.8
30
0
11
19.976
21
4.8
31
0
0
LINE
8
sheet_layer
100
AcDbEntity
100
AcDbLine
10
16.7427
20
4.8
30
0
11
7.98665
21
4.8
31
0
0
LINE
8
sheet_layer
100
AcDbEntity
100
AcDbLine
10
32.5857
20
5.77316e-15
30
0
11
7.98665
21
5.77316e-15
31
0
0
LINE
8
sheet_layer
100
AcDbEntity
100
AcDbLine
10
7.98665
20
4.8
30
0
11
5.76605
21
4.8
31
0
0
LINE
8
sheet_layer
100
AcDbEntity
100
AcDbLine
10
7.98665
20
5.77316e-15
30
0
11
5.76605
21
5.77316e-15
31
0
0
LINE
8
sheet_layer
100
AcDbEntity
100
AcDbLine
10
10.6277
20
4.8
30
0
11
7.98665
21
4.8
31
0
0
LINE
8
sheet_layer
100
AcDbEntity
100
AcDbLine
10
10.6277
20
5.77316e-15
30
0
11
7.98665
21
5.77316e-15
31
0
0
LINE
8
sheet_layer
100
AcDbEntity
100
AcDbLine
10
34.8872
20
4.8
30
0
11
34.2488
21
4.8
31
0
0
LINE
8
sheet_layer
100
AcDbEntity
100
AcDbLine
10
34.8872
20
5.77316e-15
30
0
11
34.2488
21
5.77316e-15
31
0
0
LINE
8
sheet_layer
100
AcDbEntity
100
AcDbLine
10
13.5852
20
4.8
30
0
11
10.6277
21
4.8
31
0
0
LINE
8
sheet_layer
100
AcDbEntity
100
AcDbLine
10
13.5852
20
5.77316e-15
30
0
11
10.6277
21
5.77316e-15
31
0
0
LINE
8
sheet_layer
100
AcDbEntity
100
AcDbLine
10
34.2488
20
4.8
30
0
11
32.997
21
4.8
31
0
0
LINE
8
sheet_layer
100
AcDbEntity
100
AcDbLine
10
34.2488
20
5.77316e-15
30
0
11
32.997
21
5.77316e-15
31
0
0
LINE
8
sheet_layer
100
AcDbEntity
100
AcDbLine
10
2.52116
20
4.8
30
0
11
2.39827
21
4.8
31
0
0
LINE
8
sheet_layer
100
AcDbEntity
100
AcDbLine
10
2.52116
20
5.77316e-15
30
0
11
2.39827
21
5.77316e-15
31
0
0
LINE
8
sheet_layer
100
AcDbEntity
100
AcDbLine
10
16.7427
20
4.8
30
0
11
13.5852
21
4.8
31
0
0
LINE
8
sheet_layer
100
AcDbEntity
100
AcDbLine
10
16.7427
20
5.77316e-15
30
0
11
13.5852
21
5.77316e-15
31
0
0
LINE
8
sheet_layer
100
AcDbEntity
100
AcDbLine
10
32.997
20
4.8
30
0
11
31.1813
21
4.8
31
0
0
LINE
8
sheet_layer
100
AcDbEntity
100
AcDbLine
10
32.997
20
5.77316e-15
30
0
11
31.1813
21
5.77316e-15
31
0
0
LINE
8
sheet_layer
100
AcDbEntity
100
AcDbLine
10
19.976
20
4.8
30
0
11
16.7427
21
4.8
31
0
0
LINE
8
sheet_layer
100
AcDbEntity
100
AcDbLine
10
19.976
20
5.77316e-15
30
0
11
16.7427
21
5.77316e-15
31
0
0
LINE
8
sheet_layer
100
AcDbEntity
100
AcDbLine
10
31.1813
20
4.8
30
0
11
28.8729
21
4.8
31
0
0
LINE
8
sheet_layer
100
AcDbEntity
100
AcDbLine
10
31.1813
20
5.77316e-15
30
0
11
28.8729
21
5.77316e-15
31
0
0
LINE
8
sheet_layer
100
AcDbEntity
100
AcDbLine
10
23.1578
20
4.8
30
0
11
19.976
21
4.8
31
0
0
LINE
8
sheet_layer
100
AcDbEntity
100
AcDbLine
10
23.1578
20
5.77316e-15
30
0
11
19.976
21
5.77316e-15
31
0
0
LINE
8
sheet_layer
100
AcDbEntity
100
AcDbLine
10
28.8729
20
4.8
30
0
11
26.1629
21
4.8
31
0
0
LINE
8
sheet_layer
100
AcDbEntity
100
AcDbLine
10
28.8729
20
5.77316e-15
30
0
11
26.1629
21
5.77316e-15
31
0
0
LINE
8
sheet_layer
100
AcDbEntity
100
AcDbLine
10
26.1629
20
4.8
30
0
11
23.1578
21
4.8
31
0
0
LINE
8
sheet_layer
100
AcDbEntity
100
AcDbLine
10
26.1629
20
5.77316e-15
30
0
11
23.1578
21
5.77316e-15
31
0
0
LINE
8
sheet_layer
100
AcDbEntity
100
AcDbLine
10
105.139
20
4.8
30
0
11
34.8872
21
4.8
31
0
0
LINE
8
sheet_layer
100
AcDbEntity
100
AcDbLine
10
34.2488
20
4.8
30
0
11
32.997
21
4.8
31
0
0
LINE
8
sheet_layer
100
AcDbEntity
100
AcDbLine
10
5.76605
20
4.8
30
0
11
4.64376
21
4.8
31
0
0
LINE
8
sheet_layer
100
AcDbEntity
100
AcDbLine
10
4.64376
20
4.8
30
0
11
4.64376
21
4.8
31
0
0
LINE
8
sheet_layer
100
AcDbEntity
100
AcDbLine
10
5.76605
20
5.77316e-15
30
0
11
4.64376
21
5.77316e-15
31
0
0
LINE
8
sheet_layer
100
AcDbEntity
100
AcDbLine
10
4.64376
20
5.77316e-15
30
0
11
4.64376
21
0.562409
31
0
0
ELLIPSE
8
sheet_layer
100
AcDbEntity
100
AcDbEllipse
10
4.64376
20
2.4
30
0
11
1.46958e-16
21
2.4
31
0
40
0.558547
41
3.14159
42
3.51389
0
LINE
8
sheet_layer
100
AcDbEntity
100
AcDbLine
10
4.64376
20
4.23759
30
0
11
4.64376
21
4.8
31
0
0
ELLIPSE
8
sheet_layer
100
AcDbEntity
100
AcDbEllipse
10
4.64376
20
2.4
30
0
11
1.46958e-16
21
2.4
31
0
40
0.906675
41
6.28319
42
4.71239
0
ELLIPSE
8
sheet_layer
100
AcDbEntity
100
AcDbEllipse
10
4.64376
20
2.4
30
0
11
1.46958e-16
21
2.4
31
0
40
0.906675
41
4.71239
42
3.14159
0
ELLIPSE
8
sheet_layer
100
AcDbEntity
100
AcDbEllipse
10
4.64376
20
2.4
30
0
11
1.46958e-16
21
2.4
31
0
40
0.558547
41
5.91088
42
6.28319
0
ELLIPSE
8
sheet_layer
100
AcDbEntity
100
AcDbEllipse
10
3.27961
20
2.4
30
0
11
1.46958e-16
21
2.4
31
0
40
0.906675
41
6.28319
42
4.71239
0
ELLIPSE
8
sheet_layer
100
AcDbEntity
100
AcDbEllipse
10
3.27961
20
2.4
30
0
11
1.46958e-16
21
2.4
31
0
40
0.906675
41
4.71239
42
3.14159
0
ELLIPSE
8
sheet_layer
100
AcDbEntity
100
AcDbEllipse
10
2.52116
20
2.4
30
0
11
1.46958e-16
21
2.4
31
0
40
0.972109
41
6.28319
42
4.71239
0
ELLIPSE
8
sheet_layer
100
AcDbEntity
100
AcDbEllipse
10
2.52116
20
2.4
30
0
11
1.46958e-16
21
2.4
31
0
40
0.972109
41
4.71239
42
3.14159
0
ELLIPSE
8
sheet_layer
100
AcDbEntity
100
AcDbEllipse
10
3.27961
20
2.4
30
0
11
1.46958e-16
21
2.4
31
0
40
0.972109
41
4.71239
42
3.14159
0
ELLIPSE
8
sheet_layer
100
AcDbEntity
100
AcDbEllipse
10
3.27961
20
2.4
30
0
11
1.46958e-16
21
2.4
31
0
40
0.972109
41
6.28319
42
4.71239
0
ELLIPSE
8
sheet_layer
100
AcDbEntity
100
AcDbEllipse
10
105.78
20
2.4
30
0
11
1.46958e-16
21
2.4
31
0
40
0.797714
41
3.14159
42
4.44089e-16
0
ELLIPSE
8
sheet_layer
100
AcDbEntity
100
AcDbEllipse
10
105.78
20
2.4
30
0
11
1.46958e-16
21
2.4
31
0
40
0.56441
41
3.14159
42
6.28319
0
ELLIPSE
8
sheet_layer
100
AcDbEntity
100
AcDbEllipse
10
7.98665
20
2.4
30
0
11
1.46958e-16
21
2.4
31
0
40
0.726975
41
4.71239
42
3.14159
0
ELLIPSE
8
sheet_layer
100
AcDbEntity
100
AcDbEllipse
10
7.98665
20
2.4
30
0
11
1.46958e-16
21
2.4
31
0
40
0.726975
41
6.28319
42
4.71239
0
ELLIPSE
8
sheet_layer
100
AcDbEntity
100
AcDbEllipse
10
5.76605
20
2.4
30
0
11
1.46958e-16
21
2.4
31
0
40
0.726975
41
6.28319
42
4.71239
0
ELLIPSE
8
sheet_layer
100
AcDbEntity
100
AcDbEllipse
10
5.76605
20
2.4
30
0
11
1.46958e-16
21
2.4
31
0
40
0.726975
41
4.71239
42
3.14159
0
ARC
8
sheet_layer
100
AcDbEntity
100
AcDbCircle
10
34.8872
20
2.4
30
0
40
2.4
100
AcDbArc
50
0
51
90
0
ARC
8
sheet_layer
100
AcDbEntity
100
AcDbCircle
10
34.8872
20
2.4
30
0
40
2.4
100
AcDbArc
50
-90
51
-1.06018e-14
0
ELLIPSE
8
sheet_layer
100
AcDbEntity
100
AcDbEllipse
10
7.98665
20
2.4
30
0
11
1.46958e-16
21
2.4
31
0
40
0.577107
41
6.28319
42
4.71239
0
ELLIPSE
8
sheet_layer
100
AcDbEntity
100
AcDbEllipse
10
7.98665
20
2.4
30
0
11
1.46958e-16
21
2.4
31
0
40
0.577107
41
4.71239
42
3.14159
0
ELLIPSE
8
sheet_layer
100
AcDbEntity
100
AcDbEllipse
10
10.6277
20
2.4
30
0
11
1.46958e-16
21
2.4
31
0
40
0.577107
41
4.71239
42
3.14159
0
ELLIPSE
8
sheet_layer
100
AcDbEntity
100
AcDbEllipse
10
10.6277
20
2.4
30
0
11
1.46958e-16
21
2.4
31
0
40
0.577107
41
6.28319
42
4.71239
0
ELLIPSE
8
sheet_layer
100
AcDbEntity
100
AcDbEllipse
10
34.2488
20
2.4
30
0
11
1.46958e-16
21
2.4
31
0
40
0.980319
41
4.71239
42
6.28319
0
ELLIPSE
8
sheet_layer
100
AcDbEntity
100
AcDbEllipse
10
34.2488
20
2.4
30
0
11
1.46958e-16
21
2.4
31
0
40
0.980319
41
3.14159
42
4.71239
0
ELLIPSE
8
sheet_layer
100
AcDbEntity
100
AcDbEllipse
10
34.8872
20
2.4
30
0
11
1.46958e-16
21
2.4
31
0
40
0.980319
41
3.14159
42
4.71239
0
ELLIPSE
8
sheet_layer
100
AcDbEntity
100
AcDbEllipse
10
34.8872
20
2.4
30
0
11
1.46958e-16
21
2.4
31
0
40
0.980319
41
4.71239
42
6.28319
0
ELLIPSE
8
sheet_layer
100
AcDbEntity
100
AcDbEllipse
10
10.6277
20
2.4
30
0
11
1.46958e-16
21
2.4
31
0
40
0.404522
41
6.28319
42
4.71239
0
ELLIPSE
8
sheet_layer
100
AcDbEntity
100
AcDbEllipse
10
10.6277
20
2.4
30
0
11
1.46958e-16
21
2.4
31
0
40
0.404522
41
4.71239
42
3.14159
0
ELLIPSE
8
sheet_layer
100
AcDbEntity
100
AcDbEllipse
10
13.5852
20
2.4
30
0
11
1.46958e-16
21
2.4
31
0
40
0.404522
41
4.71239
42
3.14159
0
ELLIPSE
8
sheet_layer
100
AcDbEntity
100
AcDbEllipse
10
13.5852
20
2.4
30
0
11
1.46958e-16
21
2.4
31
0
40
0.404522
41
6.28319
42
4.71239
0
ELLIPSE
8
sheet_layer
100
AcDbEntity
100
AcDbEllipse
10
34.2488
20
2.4
30
0
11
1.46958e-16
21
2.4
31
0
40
0.922051
41
3.14159
42
6.28319
0
ELLIPSE
8
sheet_layer
100
AcDbEntity
100
AcDbEllipse
10
32.997
20
2.4
30
0
11
1.46958e-16
21
2.4
31
0
40
0.922051
41
3.14159
42
6.28319
0
ELLIPSE
8
sheet_layer
100
AcDbEntity
100
AcDbEllipse
10
2.39827
20
2.4
30
0
11
1.46958e-16
21
2.4
31
0
40
0.999278
41
6.28319
42
4.71239
0
ELLIPSE
8
sheet_layer
100
AcDbEntity
100
AcDbEllipse
10
2.39827
20
2.4
30
0
11
1.46958e-16
21
2.4
31
0
40
0.999278
41
4.71239
42
3.14159
0
ELLIPSE
8
sheet_layer
100
AcDbEntity
100
AcDbEllipse
10
2.52116
20
2.4
30
0
11
1.46958e-16
21
2.4
31
0
40
0.999278
41
4.71239
42
3.14159
0
ELLIPSE
8
sheet_layer
100
AcDbEntity
100
AcDbEllipse
10
2.52116
20
2.4
30
0
11
1.46958e-16
21
2.4
31
0
40
0.999278
41
6.28319
42
4.71239
0
ELLIPSE
8
sheet_layer
100
AcDbEntity
100
AcDbEllipse
10
16.7427
20
2.4
30
0
11
1.46958e-16
21
2.4
31
0
40
0.216015
41
6.28319
42
3.14159
0
ELLIPSE
8
sheet_layer
100
AcDbEntity
100
AcDbEllipse
10
13.5852
20
2.4
30
0
11
1.46958e-16
21
2.4
31
0
40
0.216015
41
6.28319
42
3.14159
0
ELLIPSE
8
sheet_layer
100
AcDbEntity
100
AcDbEllipse
10
32.997
20
2.4
30
0
11
1.46958e-16
21
2.4
31
0
40
0.827489
41
3.14159
42
6.28319
0
ELLIPSE
8
sheet_layer
100
AcDbEntity
100
AcDbEllipse
10
31.1813
20
2.4
30
0
11
1.46958e-16
21
2.4
31
0
40
0.827489
41
3.14159
42
6.28319
0
ELLIPSE
8
sheet_layer
100
AcDbEntity
100
AcDbEllipse
10
19.976
20
2.4
30
0
11
1.46958e-16
21
2.4
31
0
40
0.0190045
41
6.28319
42
3.14159
0
ELLIPSE
8
sheet_layer
100
AcDbEntity
100
AcDbEllipse
10
16.7427
20
2.4
30
0
11
1.46958e-16
21
2.4
31
0
40
0.0190045
41
6.28319
42
3.14159
0
ELLIPSE
8
sheet_layer
100
AcDbEntity
100
AcDbEllipse
10
31.1813
20
2.4
30
0
11
1.46958e-16
21
2.4
31
0
40
0.700355
41
3.14159
42
6.28319
0
ELLIPSE
8
sheet_layer
100
AcDbEntity
100
AcDbEllipse
10
28.8729
20
2.4
30
0
11
1.46958e-16
21
2.4
31
0
40
0.700355
41
3.14159
42
6.28319
0
ELLIPSE
8
sheet_layer
100
AcDbEntity
100
AcDbEllipse
10
23.1578
20
2.4
30
0
11
1.46958e-16
21
2.4
31
0
40
0.178754
41
3.14159
42
6.28319
0
ELLIPSE
8
sheet_layer
100
AcDbEntity
100
AcDbEllipse
10
19.976
20
2.4
30
0
11
1.46958e-16
21
2.4
31
0
40
0.178754
41
3.14159
42
6.28319
0
LINE
8
sheet_layer
100
AcDbEntity
100
AcDbLine
10
19.976
20
4.8
30
0
11
19.976
21
5.77316e-15
31
0
0
ELLIPSE
8
sheet_layer
100
AcDbEntity
100
AcDbEllipse
10
28.8729
20
2.4
30
0
11
1.46958e-16
21
2.4
31
0
40
0.545655
41
3.14159
42
6.28319
0
ELLIPSE
8
sheet_layer
100
AcDbEntity
100
AcDbEllipse
10
26.1629
20
2.4
30
0
11
1.46958e-16
21
2.4
31
0
40
0.545655
41
3.14159
42
6.28319
0
ELLIPSE
8
sheet_layer
100
AcDbEntity
100
AcDbEllipse
10
26.1629
20
2.4
30
0
11
1.46958e-16
21
2.4
31
0
40
0.369476
41
3.14159
42
6.28319
0
ELLIPSE
8
sheet_layer
100
AcDbEntity
100
AcDbEllipse
10
23.1578
20
2.4
30
0
11
1.46958e-16
21
2.4
31
0
40
0.369476
41
3.14159
42
6.28319
0
ENDSEC
0
EOF
