0
SECTION
2
HEADER
9
$ACADVER
1
AC1009
9
$INSUNITS
70
4
0
ENDSEC
0
SECTION
2
ENTITIES
0
LINE
8
sheet_layer
100
AcDbEntity
100
AcDbLine
10
0
20
0
30
0
11
0
21
42
31
0
0
LINE
8
sheet_layer
100
AcDbEntity
100
AcDbLine
10
145
20
0
30
0
11
145
21
42
31
0
0
LINE
8
sheet_layer
100
AcDbEntity
100
AcDbLine
10
73.1245
20
42
30
0
11
145
21
42
31
0
0
ARC
8
sheet_layer
100
AcDbEntity
100
AcDbCircle
10
57
20
34
30
0
40
18
100
AcDbArc
50
0
51
26.3878
0
ARC
8
sheet_layer
100
AcDbEntity
100
AcDbCircle
10
57
20
34
30
0
40
18
100
AcDbArc
50
153.612
51
-2.26173e-14
0
LINE
8
sheet_layer
100
AcDbEntity
100
AcDbLine
10
0
20
42
30
0
11
40.8755
21
42
31
0
0
LINE
8
sheet_layer
100
AcDbEntity
100
AcDbLine
10
0
20
0
30
0
11
145
21
0
31
0
0
CIRCLE
8
sheet_layer
100
AcDbEntity
100
AcDbCircle
10
6
20
16
30
0
40
2.2
0
CIRCLE
8
sheet_layer
100
AcDbEntity
100
AcDbCircle
10
135
20
24
30
0
40
2.2
0
ENDSEC
0
EOF
