0
SECTION
2
HEADER
9
$ACADVER
1
AC1009
9
$INSUNITS
70
4
0
ENDSEC
0
SECTION
2
ENTITIES
0
LINE
8
sheet_layer
100
AcDbEntity
100
AcDbLine
10
0
20
0
30
0
11
0
21
65.1035
31
0
0
ARC
8
sheet_layer
100
AcDbEntity
100
AcDbCircle
10
2
20
66.02
30
0
40
2.2
100
AcDbArc
50
-155.38
51
0
0
ARC
8
sheet_layer
100
AcDbEntity
100
AcDbCircle
10
2
20
66.02
30
0
40
2.2
100
AcDbArc
50
0
51
155.38
0
LINE
8
sheet_layer
100
AcDbEntity
100
AcDbLine
10
0
20
66.9365
30
0
11
0
21
118.02
31
0
0
LINE
8
sheet_layer
100
AcDbEntity
100
AcDbLine
10
0
20
118.02
30
0
11
46
21
118.02
31
0
0
LINE
8
sheet_layer
100
AcDbEntity
100
AcDbLine
10
46
20
100.02
30
0
11
46
21
118.02
31
0
0
LINE
8
sheet_layer
100
AcDbEntity
100
AcDbLine
10
104
20
100.02
30
0
11
46
21
100.02
31
0
0
LINE
8
sheet_layer
100
AcDbEntity
100
AcDbLine
10
104
20
50.02
30
0
11
104
21
100.02
31
0
0
LINE
8
sheet_layer
100
AcDbEntity
100
AcDbLine
10
170
20
50.02
30
0
11
104
21
50.02
31
0
0
LINE
8
sheet_layer
100
AcDbEntity
100
AcDbLine
10
170
20
50.02
30
0
11
170
21
118.02
31
0
0
LINE
8
sheet_layer
100
AcDbEntity
100
AcDbLine
10
170
20
118.02
30
0
11
294
21
118.02
31
0
0
LINE
8
sheet_layer
100
AcDbEntity
100
AcDbLine
10
294
20
58.02
30
0
11
294
21
118.02
31
0
0
LINE
8
sheet_layer
100
AcDbEntity
100
AcDbLine
10
294
20
58.02
30
0
11
282
21
58.02
31
0
0
LINE
8
sheet_layer
100
AcDbEntity
100
AcDbLine
10
282
20
44.02
30
0
11
282
21
58.02
31
0
0
LINE
8
sheet_layer
100
AcDbEntity
100
AcDbLine
10
294
20
44.02
30
0
11
282
21
44.02
31
0
0
LINE
8
sheet_layer
100
AcDbEntity
100
AcDbLine
10
294
20
0
30
0
11
294
21
44.02
31
0
0
LINE
8
sheet_layer
100
AcDbEntity
100
AcDbLine
10
0
20
0
30
0
11
294
21
0
31
0
0
CIRCLE
8
sheet_layer
100
AcDbEntity
100
AcDbCircle
10
24
20
24
30
0
40
2.2
0
CIRCLE
8
sheet_layer
100
AcDbEntity
100
AcDbCircle
10
114
20
24
30
0
40
2.2
0
CIRCLE
8
sheet_layer
100
AcDbEntity
100
AcDbCircle
10
204
20
24
30
0
40
2.2
0
CIRCLE
8
sheet_layer
100
AcDbEntity
100
AcDbCircle
10
284
20
24
30
0
40
2.2
0
CIRCLE
8
sheet_layer
100
AcDbEntity
100
AcDbCircle
10
14
20
59.02
30
0
40
2.2
0
CIRCLE
8
sheet_layer
100
AcDbEntity
100
AcDbCircle
10
34
20
59.02
30
0
40
2.2
0
CIRCLE
8
sheet_layer
100
AcDbEntity
100
AcDbCircle
10
50
20
59.02
30
0
40
2.2
0
CIRCLE
8
sheet_layer
100
AcDbEntity
100
AcDbCircle
10
86
20
59.02
30
0
40
2.2
0
CIRCLE
8
sheet_layer
100
AcDbEntity
100
AcDbCircle
10
16
20
66.02
30
0
40
2.2
0
CIRCLE
8
sheet_layer
100
AcDbEntity
100
AcDbCircle
10
14
20
76.02
30
0
40
2.2
0
CIRCLE
8
sheet_layer
100
AcDbEntity
100
AcDbCircle
10
34
20
76.02
30
0
40
2.2
0
CIRCLE
8
sheet_layer
100
AcDbEntity
100
AcDbCircle
10
50
20
76.02
30
0
40
2.2
0
CIRCLE
8
sheet_layer
100
AcDbEntity
100
AcDbCircle
10
86
20
76.02
30
0
40
2.2
0
ENDSEC
0
EOF
