0
SECTION
2
HEADER
9
$ACADVER
1
AC1009
9
$INSUNITS
70
4
0
ENDSEC
0
SECTION
2
ENTITIES
0
LINE
8
sheet_layer
100
AcDbEntity
100
AcDbLine
10
0
20
40
30
0
11
0
21
43.5
31
0
0
LINE
8
sheet_layer
100
AcDbEntity
100
AcDbLine
10
0
20
43.5
30
0
11
28
21
43.5
31
0
0
LINE
8
sheet_layer
100
AcDbEntity
100
AcDbLine
10
28
20
40
30
0
11
28
21
43.5
31
0
0
LINE
8
sheet_layer
100
AcDbEntity
100
AcDbLine
10
0
20
0
30
0
11
0
21
40
31
0
0
LINE
8
sheet_layer
100
AcDbEntity
100
AcDbLine
10
28
20
0
30
0
11
28
21
40
31
0
0
LINE
8
sheet_layer
100
AcDbEntity
100
AcDbLine
10
0
20
40
30
0
11
28
21
40
31
0
0
LINE
8
sheet_layer
100
AcDbEntity
100
AcDbLine
10
0
20
0
30
0
11
28
21
0
31
0
0
CIRCLE
8
sheet_layer
100
AcDbEntity
100
AcDbCircle
10
14
20
25.5
30
0
40
2.2
0
ENDSEC
0
EOF
