0
SECTION
2
HEADER
9
$ACADVER
1
AC1009
9
$INSUNITS
70
4
0
ENDSEC
0
SECTION
2
ENTITIES
0
LINE
8
sheet_layer
100
AcDbEntity
100
AcDbLine
10
30.8672
20
2.49954
30
0
11
0.696923
21
1.49956
31
0
0
LINE
8
sheet_layer
100
AcDbEntity
100
AcDbLine
10
30.9174
20
1.00038
30
0
11
0.746613
21
0.000381192
31
0
0
LINE
8
sheet_layer
100
AcDbEntity
100
AcDbLine
10
49.1383
20
3.49885
30
0
11
30.8597
21
2.49929
31
0
0
LINE
8
sheet_layer
100
AcDbEntity
100
AcDbLine
10
49.2202
20
2.00109
30
0
11
30.9335
21
1.00109
31
0
0
LINE
8
sheet_layer
100
AcDbEntity
100
AcDbLine
10
49.4423
20
3.49997
30
0
11
49.1792
21
3.49997
31
0
0
LINE
8
sheet_layer
100
AcDbEntity
100
AcDbLine
10
49.4423
20
1.99997
30
0
11
49.1997
21
1.99997
31
0
0
LINE
8
sheet_layer
100
AcDbEntity
100
AcDbLine
10
54.5819
20
3.49997
30
0
11
49.4423
21
3.49997
31
0
0
LINE
8
sheet_layer
100
AcDbEntity
100
AcDbLine
10
54.5819
20
1.99997
30
0
11
49.4423
21
1.99997
31
0
0
LINE
8
sheet_layer
100
AcDbEntity
100
AcDbLine
10
62.949
20
3.49997
30
0
11
54.5819
21
3.49997
31
0
0
LINE
8
sheet_layer
100
AcDbEntity
100
AcDbLine
10
62.949
20
1.99997
30
0
11
54.5819
21
1.99997
31
0
0
LINE
8
sheet_layer
100
AcDbEntity
100
AcDbLine
10
71.1495
20
3.49997
30
0
11
69.6322
21
3.49997
31
0
0
LINE
8
sheet_layer
100
AcDbEntity
100
AcDbLine
10
65.5276
20
1.99997
30
0
11
71.1495
21
1.99997
31
0
0
LINE
8
sheet_layer
100
AcDbEntity
100
AcDbLine
10
66.4746
20
3.49997
30
0
11
71.1495
21
3.49997
31
0
0
LINE
8
sheet_layer
100
AcDbEntity
100
AcDbLine
10
66.2096
20
8.92178
30
0
11
64.7975
21
2.92178
31
0
0
LINE
8
sheet_layer
100
AcDbEntity
100
AcDbLine
10
67.5336
20
7.99997
30
0
11
66.2576
21
2.57816
31
0
0
LINE
8
sheet_layer
100
AcDbEntity
100
AcDbLine
10
83.4283
20
9.49997
30
0
11
66.9396
21
9.49997
31
0
0
LINE
8
sheet_layer
100
AcDbEntity
100
AcDbLine
10
83.4283
20
7.99997
30
0
11
66.9396
21
7.99997
31
0
0
LINE
8
sheet_layer
100
AcDbEntity
100
AcDbLine
10
97.6152
20
2.55418
30
0
11
99.2377
21
8.55418
31
0
0
LINE
8
sheet_layer
100
AcDbEntity
100
AcDbLine
10
96.3171
20
3.49997
30
0
11
97.7897
21
8.94576
31
0
0
LINE
8
sheet_layer
100
AcDbEntity
100
AcDbLine
10
91.6201
20
1.99997
30
0
11
96.8912
21
1.99997
31
0
0
LINE
8
sheet_layer
100
AcDbEntity
100
AcDbLine
10
91.6201
20
3.49997
30
0
11
96.8912
21
3.49997
31
0
0
LINE
8
sheet_layer
100
AcDbEntity
100
AcDbLine
10
83.3845
20
1.99997
30
0
11
91.6201
21
1.99997
31
0
0
LINE
8
sheet_layer
100
AcDbEntity
100
AcDbLine
10
83.3845
20
3.49997
30
0
11
91.6201
21
3.49997
31
0
0
LINE
8
sheet_layer
100
AcDbEntity
100
AcDbLine
10
76.5697
20
1.99997
30
0
11
83.3845
21
1.99997
31
0
0
LINE
8
sheet_layer
100
AcDbEntity
100
AcDbLine
10
76.5697
20
3.49997
30
0
11
83.3845
21
3.49997
31
0
0
LINE
8
sheet_layer
100
AcDbEntity
100
AcDbLine
10
75.6664
20
1.99997
30
0
11
76.5697
21
1.99997
31
0
0
LINE
8
sheet_layer
100
AcDbEntity
100
AcDbLine
10
75.6664
20
3.49997
30
0
11
76.5697
21
3.49997
31
0
0
LINE
8
sheet_layer
100
AcDbEntity
100
AcDbLine
10
70.4051
20
6.17479
30
0
11
75.1851
21
2.17479
31
0
0
LINE
8
sheet_layer
100
AcDbEntity
100
AcDbLine
10
71.3677
20
7.32515
30
0
11
75.9388
21
3.49997
31
0
0
ELLIPSE
8
sheet_layer
100
AcDbEntity
100
AcDbEllipse
10
0.721768
20
0.74997
30
0
11
0.0248448
21
-0.749588
31
0
40
0.962315
41
3.14159
42
1.60272
0
ELLIPSE
8
sheet_layer
100
AcDbEntity
100
AcDbEllipse
10
0.721768
20
0.74997
30
0
11
0.0248448
21
-0.749588
31
0
40
0.962315
41
6.28319
42
3.14159
0
ELLIPSE
8
sheet_layer
100
AcDbEntity
100
AcDbEllipse
10
0.721768
20
0.74997
30
0
11
0.0248448
21
-0.749588
31
0
40
0.962315
41
1.60272
42
0
0
ELLIPSE
8
sheet_layer
100
AcDbEntity
100
AcDbEllipse
10
30.8926
20
1.74997
30
0
11
0.0248448
21
-0.749588
31
0
40
0.962315
41
6.28319
42
3.32154
0
SPLINE
8
sheet_layer
100
AcDbEntity
100
AcDbSpline
70
0
71
2
72
6
73
3
74
0
40
4.71239
40
4.71239
40
4.71239
40
4.89233
40
4.89233
40
4.89233
10
30.9972
20
2.49173
30
0
10
30.9325
20
2.50167
30
0
10
30.8672
20
2.49954
30
0
0
SPLINE
8
sheet_layer
100
AcDbEntity
100
AcDbSpline
70
0
71
1
72
4
73
2
74
0
40
4.89233
40
4.89233
40
4.9131
40
4.9131
10
30.8672
20
2.49954
30
0
10
30.8521
20
2.49888
30
0
0
ELLIPSE
8
sheet_layer
100
AcDbEntity
100
AcDbEllipse
10
30.8926
20
1.74997
30
0
11
0.0409523
21
-0.748881
31
0
40
0.969746
41
6.28319
42
3.34231
0
ELLIPSE
8
sheet_layer
100
AcDbEntity
100
AcDbEllipse
10
30.8926
20
1.74997
30
0
11
0.0409523
21
-0.748881
31
0
40
0.969746
41
0.0117243
42
0
0
ELLIPSE
8
sheet_layer
100
AcDbEntity
100
AcDbEllipse
10
49.1792
20
2.74997
30
0
11
0.0409523
21
-0.748881
31
0
40
0.969746
41
6.28319
42
3.14159
0
ELLIPSE
8
sheet_layer
100
AcDbEntity
100
AcDbEllipse
10
49.1792
20
2.74997
30
0
11
4.59243e-17
21
-0.75
31
0
40
0.999222
41
3.14159
42
3.09433
0
ELLIPSE
8
sheet_layer
100
AcDbEntity
100
AcDbEllipse
10
49.1792
20
2.74997
30
0
11
4.59243e-17
21
-0.75
31
0
40
0.999222
41
6.28319
42
3.14159
0
ELLIPSE
8
sheet_layer
100
AcDbEntity
100
AcDbEllipse
10
49.4423
20
2.74997
30
0
11
4.59243e-17
21
-0.75
31
0
40
0.999222
41
6.28319
42
3.14159
0
ELLIPSE
8
sheet_layer
100
AcDbEntity
100
AcDbEllipse
10
49.4423
20
2.74997
30
0
11
4.59243e-17
21
-0.75
31
0
40
0.792701
41
6.28319
42
3.14159
0
ELLIPSE
8
sheet_layer
100
AcDbEntity
100
AcDbEllipse
10
54.5819
20
2.74997
30
0
11
4.59243e-17
21
-0.75
31
0
40
0.792701
41
6.28319
42
3.14159
0
ELLIPSE
8
sheet_layer
100
AcDbEntity
100
AcDbEllipse
10
54.5819
20
2.74997
30
0
11
4.59243e-17
21
-0.75
31
0
40
0.122754
41
3.14159
42
1.5708
0
ELLIPSE
8
sheet_layer
100
AcDbEntity
100
AcDbEllipse
10
54.5819
20
2.74997
30
0
11
4.59243e-17
21
-0.75
31
0
40
0.122754
41
6.28319
42
3.14159
0
ELLIPSE
8
sheet_layer
100
AcDbEntity
100
AcDbEllipse
10
54.5819
20
2.74997
30
0
11
4.59243e-17
21
-0.75
31
0
40
0.122754
41
1.5708
42
0
0
ELLIPSE
8
sheet_layer
100
AcDbEntity
100
AcDbEllipse
10
62.949
20
2.74997
30
0
11
4.59243e-17
21
-0.75
31
0
40
0.122754
41
6.28319
42
3.14159
0
ELLIPSE
8
sheet_layer
100
AcDbEntity
100
AcDbEllipse
10
62.949
20
2.74997
30
0
11
4.59243e-17
21
-0.75
31
0
40
0.60961
41
3.14159
42
6.28319
0
ELLIPSE
8
sheet_layer
100
AcDbEntity
100
AcDbEllipse
10
71.1495
20
2.74997
30
0
11
4.59243e-17
21
-0.75
31
0
40
0.984434
41
1.5708
42
3.14159
0
ELLIPSE
8
sheet_layer
100
AcDbEntity
100
AcDbEllipse
10
71.1495
20
2.74997
30
0
11
4.59243e-17
21
-0.75
31
0
40
0.984434
41
3.14159
42
6.28319
0
ELLIPSE
8
sheet_layer
100
AcDbEntity
100
AcDbEllipse
10
71.1495
20
2.74997
30
0
11
4.59243e-17
21
-0.75
31
0
40
0.984434
41
0
42
1.5708
0
ELLIPSE
8
sheet_layer
100
AcDbEntity
100
AcDbEllipse
10
71.1495
20
2.74997
30
0
11
4.59243e-17
21
0.75
31
0
40
0.758898
41
4.71239
42
6.28319
0
ELLIPSE
8
sheet_layer
100
AcDbEntity
100
AcDbEllipse
10
71.1495
20
2.74997
30
0
11
4.59243e-17
21
0.75
31
0
40
0.758898
41
3.14159
42
4.71239
0
ELLIPSE
8
sheet_layer
100
AcDbEntity
100
AcDbEllipse
10
65.5276
20
2.74997
30
0
11
4.59243e-17
21
0.75
31
0
40
0.758898
41
1.73621
42
3.14159
0
ELLIPSE
8
sheet_layer
100
AcDbEntity
100
AcDbEllipse
10
65.5276
20
2.74997
30
0
11
4.59243e-17
21
0.75
31
0
40
0.758898
41
3.14159
42
4.71239
0
ELLIPSE
8
sheet_layer
100
AcDbEntity
100
AcDbEllipse
10
65.5276
20
2.74997
30
0
11
0.730055
21
-0.171814
31
0
40
0.458909
41
3.14159
42
6.28319
0
ELLIPSE
8
sheet_layer
100
AcDbEntity
100
AcDbEllipse
10
66.9396
20
8.74997
30
0
11
0.730055
21
-0.171814
31
0
40
0.458909
41
2.50839
42
3.14159
0
ELLIPSE
8
sheet_layer
100
AcDbEntity
100
AcDbEllipse
10
66.9396
20
8.74997
30
0
11
0.730055
21
-0.171814
31
0
40
0.458909
41
3.14159
42
6.28319
0
ELLIPSE
8
sheet_layer
100
AcDbEntity
100
AcDbEllipse
10
66.9396
20
8.74997
30
0
11
0.730055
21
-0.171814
31
0
40
0.458909
41
1.69754
42
2.50839
0
ELLIPSE
8
sheet_layer
100
AcDbEntity
100
AcDbEllipse
10
66.9396
20
8.74997
30
0
11
4.59243e-17
21
-0.75
31
0
40
0.0212718
41
3.14159
42
6.28319
0
ELLIPSE
8
sheet_layer
100
AcDbEntity
100
AcDbEllipse
10
83.4283
20
8.74997
30
0
11
4.59243e-17
21
-0.75
31
0
40
0.0212718
41
1.5708
42
3.14159
0
ELLIPSE
8
sheet_layer
100
AcDbEntity
100
AcDbEllipse
10
83.4283
20
8.74997
30
0
11
4.59243e-17
21
-0.75
31
0
40
0.0212718
41
3.14159
42
6.28319
0
ELLIPSE
8
sheet_layer
100
AcDbEntity
100
AcDbEllipse
10
83.4283
20
8.74997
30
0
11
4.59243e-17
21
-0.75
31
0
40
0.0212718
41
0
42
1.5708
0
ELLIPSE
8
sheet_layer
100
AcDbEntity
100
AcDbEllipse
10
98.5137
20
8.74997
30
0
11
-0.723994
21
0.195787
31
0
40
0.970349
41
3.14159
42
6.28319
0
CIRCLE
8
sheet_layer
100
AcDbEntity
100
AcDbCircle
10
96.8912
20
2.74997
30
0
40
0.75
0
ELLIPSE
8
sheet_layer
100
AcDbEntity
100
AcDbEllipse
10
96.8912
20
2.74997
30
0
11
4.59243e-17
21
0.75
31
0
40
0.805526
41
4.71239
42
6.28319
0
ELLIPSE
8
sheet_layer
100
AcDbEntity
100
AcDbEllipse
10
96.8912
20
2.74997
30
0
11
4.59243e-17
21
0.75
31
0
40
0.805526
41
3.14159
42
4.71239
0
ELLIPSE
8
sheet_layer
100
AcDbEntity
100
AcDbEllipse
10
91.6201
20
2.74997
30
0
11
4.59243e-17
21
0.75
31
0
40
0.805526
41
4.71239
42
6.28319
0
ELLIPSE
8
sheet_layer
100
AcDbEntity
100
AcDbEllipse
10
91.6201
20
2.74997
30
0
11
4.59243e-17
21
0.75
31
0
40
0.805526
41
0
42
3.14159
0
ELLIPSE
8
sheet_layer
100
AcDbEntity
100
AcDbEllipse
10
91.6201
20
2.74997
30
0
11
4.59243e-17
21
0.75
31
0
40
0.805526
41
3.14159
42
4.71239
0
ELLIPSE
8
sheet_layer
100
AcDbEntity
100
AcDbEllipse
10
91.6201
20
2.74997
30
0
11
4.59243e-17
21
0.75
31
0
40
0.0669422
41
4.71239
42
6.28319
0
ELLIPSE
8
sheet_layer
100
AcDbEntity
100
AcDbEllipse
10
91.6201
20
2.74997
30
0
11
4.59243e-17
21
0.75
31
0
40
0.0669422
41
3.14159
42
4.71239
0
ELLIPSE
8
sheet_layer
100
AcDbEntity
100
AcDbEllipse
10
83.3845
20
2.74997
30
0
11
4.59243e-17
21
0.75
31
0
40
0.0669422
41
4.71239
42
6.28319
0
ELLIPSE
8
sheet_layer
100
AcDbEntity
100
AcDbEllipse
10
83.3845
20
2.74997
30
0
11
4.59243e-17
21
0.75
31
0
40
0.0669422
41
3.14159
42
4.71239
0
ELLIPSE
8
sheet_layer
100
AcDbEntity
100
AcDbEllipse
10
83.3845
20
2.74997
30
0
11
4.59243e-17
21
0.75
31
0
40
0.564227
41
6.28319
42
4.71239
0
ELLIPSE
8
sheet_layer
100
AcDbEntity
100
AcDbEllipse
10
83.3845
20
2.74997
30
0
11
4.59243e-17
21
0.75
31
0
40
0.564227
41
3.14159
42
0
0
ELLIPSE
8
sheet_layer
100
AcDbEntity
100
AcDbEllipse
10
83.3845
20
2.74997
30
0
11
4.59243e-17
21
0.75
31
0
40
0.564227
41
4.71239
42
3.14159
0
ELLIPSE
8
sheet_layer
100
AcDbEntity
100
AcDbEllipse
10
76.5697
20
2.74997
30
0
11
4.59243e-17
21
0.75
31
0
40
0.564227
41
6.28319
42
4.71239
0
ELLIPSE
8
sheet_layer
100
AcDbEntity
100
AcDbEllipse
10
76.5697
20
2.74997
30
0
11
4.59243e-17
21
0.75
31
0
40
0.564227
41
4.71239
42
3.14159
0
ELLIPSE
8
sheet_layer
100
AcDbEntity
100
AcDbEllipse
10
76.5697
20
2.74997
30
0
11
4.59243e-17
21
0.75
31
0
40
0.99483
41
6.28319
42
4.71239
0
ELLIPSE
8
sheet_layer
100
AcDbEntity
100
AcDbEllipse
10
76.5697
20
2.74997
30
0
11
4.59243e-17
21
0.75
31
0
40
0.99483
41
3.14159
42
0
0
ELLIPSE
8
sheet_layer
100
AcDbEntity
100
AcDbEllipse
10
76.5697
20
2.74997
30
0
11
4.59243e-17
21
0.75
31
0
40
0.99483
41
4.71239
42
3.14159
0
ELLIPSE
8
sheet_layer
100
AcDbEntity
100
AcDbEllipse
10
75.6664
20
2.74997
30
0
11
4.59243e-17
21
0.75
31
0
40
0.99483
41
4.71239
42
3.14159
0
ELLIPSE
8
sheet_layer
100
AcDbEntity
100
AcDbEllipse
10
75.6664
20
2.74997
30
0
11
0.481323
21
0.575177
31
0
40
0.476344
41
3.14159
42
3.07024
0
ELLIPSE
8
sheet_layer
100
AcDbEntity
100
AcDbEllipse
10
75.6664
20
2.74997
30
0
11
0.481323
21
0.575177
31
0
40
0.476344
41
3.90666
42
3.14159
0
ELLIPSE
8
sheet_layer
100
AcDbEntity
100
AcDbEllipse
10
70.8864
20
6.74997
30
0
11
0.481323
21
0.575177
31
0
40
0.476344
41
6.28319
42
3.90666
0
ELLIPSE
8
sheet_layer
100
AcDbEntity
100
AcDbEllipse
10
70.8864
20
6.74997
30
0
11
0.481323
21
0.575177
31
0
40
0.476344
41
3.90666
42
3.14159
0
ENDSEC
0
EOF
