0
SECTION
2
HEADER
9
$ACADVER
1
AC1009
9
$INSUNITS
70
4
0
ENDSEC
0
SECTION
2
ENTITIES
0
LINE
8
sheet_layer
100
AcDbEntity
100
AcDbLine
10
0
20
29
30
0
11
0
21
48
31
0
0
LINE
8
sheet_layer
100
AcDbEntity
100
AcDbLine
10
0
20
48
30
0
11
51
21
48
31
0
0
LINE
8
sheet_layer
100
AcDbEntity
100
AcDbLine
10
51
20
0
30
0
11
51
21
48
31
0
0
LINE
8
sheet_layer
100
AcDbEntity
100
AcDbLine
10
2
20
0
30
0
11
51
21
0
31
0
0
LINE
8
sheet_layer
100
AcDbEntity
100
AcDbLine
10
2
20
0
30
0
11
2
21
29
31
0
0
LINE
8
sheet_layer
100
AcDbEntity
100
AcDbLine
10
2
20
29
30
0
11
0
21
29
31
0
0
ENDSEC
0
EOF
