0
SECTION
2
HEADER
9
$ACADVER
1
AC1009
9
$INSUNITS
70
4
0
ENDSEC
0
SECTION
2
ENTITIES
0
CIRCLE
8
sheet_layer
100
AcDbEntity
100
AcDbCircle
10
55
20
55
30
0
40
55
0
LINE
8
sheet_layer
100
AcDbEntity
100
AcDbLine
10
45
20
1
30
0
11
65
21
1
31
0
0
LINE
8
sheet_layer
100
AcDbEntity
100
AcDbLine
10
65
20
1
30
0
11
65
21
31
31
0
0
LINE
8
sheet_layer
100
AcDbEntity
100
AcDbLine
10
45
20
31
30
0
11
65
21
31
31
0
0
LINE
8
sheet_layer
100
AcDbEntity
100
AcDbLine
10
45
20
1
30
0
11
45
21
31
31
0
0
ENDSEC
0
EOF
