0
SECTION
2
HEADER
9
$ACADVER
1
AC1009
9
$INSUNITS
70
4
0
ENDSEC
0
SECTION
2
ENTITIES
0
LINE
8
sheet_layer
100
AcDbEntity
100
AcDbLine
10
23.4185
20
5.6
30
0
11
18.6021
21
5.6
31
0
0
LINE
8
sheet_layer
100
AcDbEntity
100
AcDbLine
10
23.4185
20
1.15463e-14
30
0
11
23.4185
21
1.15463e-14
31
0
0
LINE
8
sheet_layer
100
AcDbEntity
100
AcDbLine
10
23.4185
20
1.15463e-14
30
0
11
18.6021
21
1.15463e-14
31
0
0
LINE
8
sheet_layer
100
AcDbEntity
100
AcDbLine
10
23.4185
20
1.15463e-14
30
0
11
27.3422
21
1.15463e-14
31
0
0
LINE
8
sheet_layer
100
AcDbEntity
100
AcDbLine
10
23.4185
20
5.6
30
0
11
27.3422
21
5.6
31
0
0
LINE
8
sheet_layer
100
AcDbEntity
100
AcDbLine
10
18.6021
20
5.6
30
0
11
14.1556
21
5.6
31
0
0
LINE
8
sheet_layer
100
AcDbEntity
100
AcDbLine
10
18.6021
20
1.15463e-14
30
0
11
14.1556
21
1.15463e-14
31
0
0
LINE
8
sheet_layer
100
AcDbEntity
100
AcDbLine
10
14.1556
20
1.15463e-14
30
0
11
14.1556
21
1.15463e-14
31
0
0
LINE
8
sheet_layer
100
AcDbEntity
100
AcDbLine
10
14.1556
20
5.6
30
0
11
10.2562
21
5.6
31
0
0
LINE
8
sheet_layer
100
AcDbEntity
100
AcDbLine
10
14.1556
20
1.15463e-14
30
0
11
14.1556
21
1.15463e-14
31
0
0
LINE
8
sheet_layer
100
AcDbEntity
100
AcDbLine
10
14.1556
20
1.15463e-14
30
0
11
10.2562
21
1.15463e-14
31
0
0
LINE
8
sheet_layer
100
AcDbEntity
100
AcDbLine
10
10.2562
20
5.6
30
0
11
7.05935
21
5.6
31
0
0
LINE
8
sheet_layer
100
AcDbEntity
100
AcDbLine
10
10.2562
20
1.15463e-14
30
0
11
7.05935
21
1.15463e-14
31
0
0
LINE
8
sheet_layer
100
AcDbEntity
100
AcDbLine
10
7.05935
20
5.6
30
0
11
4.6923
21
5.6
31
0
0
LINE
8
sheet_layer
100
AcDbEntity
100
AcDbLine
10
7.05935
20
1.15463e-14
30
0
11
4.6923
21
1.15463e-14
31
0
0
LINE
8
sheet_layer
100
AcDbEntity
100
AcDbLine
10
4.6923
20
5.6
30
0
11
3.24938
21
5.6
31
0
0
LINE
8
sheet_layer
100
AcDbEntity
100
AcDbLine
10
4.6923
20
1.15463e-14
30
0
11
3.24938
21
1.15463e-14
31
0
0
LINE
8
sheet_layer
100
AcDbEntity
100
AcDbLine
10
3.24938
20
5.6
30
0
11
2.78811
21
5.6
31
0
0
LINE
8
sheet_layer
100
AcDbEntity
100
AcDbLine
10
3.24938
20
1.15463e-14
30
0
11
2.78811
21
1.15463e-14
31
0
0
LINE
8
sheet_layer
100
AcDbEntity
100
AcDbLine
10
27.1679
20
1.15463e-14
30
0
11
27.3422
21
1.15463e-14
31
0
0
LINE
8
sheet_layer
100
AcDbEntity
100
AcDbLine
10
27.1679
20
5.6
30
0
11
27.3422
21
5.6
31
0
0
LINE
8
sheet_layer
100
AcDbEntity
100
AcDbLine
10
27.3422
20
5.6
30
0
11
27.1679
21
5.6
31
0
0
LINE
8
sheet_layer
100
AcDbEntity
100
AcDbLine
10
27.3422
20
1.15463e-14
30
0
11
27.1679
21
1.15463e-14
31
0
0
LINE
8
sheet_layer
100
AcDbEntity
100
AcDbLine
10
76.7751
20
5.6
30
0
11
76.8526
21
5.6
31
0
0
LINE
8
sheet_layer
100
AcDbEntity
100
AcDbLine
10
28.5073
20
5.6
30
0
11
27.3422
21
5.6
31
0
0
LINE
8
sheet_layer
100
AcDbEntity
100
AcDbLine
10
28.5073
20
1.15463e-14
30
0
11
27.3422
21
1.15463e-14
31
0
0
LINE
8
sheet_layer
100
AcDbEntity
100
AcDbLine
10
30.6171
20
5.6
30
0
11
28.5073
21
5.6
31
0
0
LINE
8
sheet_layer
100
AcDbEntity
100
AcDbLine
10
30.6171
20
1.15463e-14
30
0
11
28.5073
21
1.15463e-14
31
0
0
LINE
8
sheet_layer
100
AcDbEntity
100
AcDbLine
10
77.3139
20
5.6
30
0
11
76.7751
21
5.6
31
0
0
LINE
8
sheet_layer
100
AcDbEntity
100
AcDbLine
10
77.3139
20
1.15463e-14
30
0
11
76.7751
21
1.15463e-14
31
0
0
LINE
8
sheet_layer
100
AcDbEntity
100
AcDbLine
10
33.5873
20
5.6
30
0
11
30.6171
21
5.6
31
0
0
LINE
8
sheet_layer
100
AcDbEntity
100
AcDbLine
10
33.5873
20
1.15463e-14
30
0
11
30.6171
21
1.15463e-14
31
0
0
LINE
8
sheet_layer
100
AcDbEntity
100
AcDbLine
10
76.7751
20
5.6
30
0
11
75.2579
21
5.6
31
0
0
LINE
8
sheet_layer
100
AcDbEntity
100
AcDbLine
10
76.7751
20
1.15463e-14
30
0
11
75.2579
21
1.15463e-14
31
0
0
LINE
8
sheet_layer
100
AcDbEntity
100
AcDbLine
10
37.2997
20
5.6
30
0
11
33.5873
21
5.6
31
0
0
LINE
8
sheet_layer
100
AcDbEntity
100
AcDbLine
10
37.2997
20
1.15463e-14
30
0
11
33.5873
21
1.15463e-14
31
0
0
LINE
8
sheet_layer
100
AcDbEntity
100
AcDbLine
10
75.2579
20
5.6
30
0
11
72.8225
21
5.6
31
0
0
LINE
8
sheet_layer
100
AcDbEntity
100
AcDbLine
10
75.2579
20
1.15463e-14
30
0
11
72.8225
21
1.15463e-14
31
0
0
LINE
8
sheet_layer
100
AcDbEntity
100
AcDbLine
10
41.6064
20
5.6
30
0
11
37.2997
21
5.6
31
0
0
LINE
8
sheet_layer
100
AcDbEntity
100
AcDbLine
10
41.6064
20
1.15463e-14
30
0
11
37.2997
21
1.15463e-14
31
0
0
LINE
8
sheet_layer
100
AcDbEntity
100
AcDbLine
10
18.9655
20
1.15463e-14
30
0
11
23.8028
21
1.15463e-14
31
0
0
LINE
8
sheet_layer
100
AcDbEntity
100
AcDbLine
10
18.9655
20
5.6
30
0
11
23.8028
21
5.6
31
0
0
LINE
8
sheet_layer
100
AcDbEntity
100
AcDbLine
10
72.8225
20
5.6
30
0
11
69.566
21
5.6
31
0
0
LINE
8
sheet_layer
100
AcDbEntity
100
AcDbLine
10
72.8225
20
1.15463e-14
30
0
11
69.566
21
1.15463e-14
31
0
0
LINE
8
sheet_layer
100
AcDbEntity
100
AcDbLine
10
46.3357
20
5.6
30
0
11
41.6064
21
5.6
31
0
0
LINE
8
sheet_layer
100
AcDbEntity
100
AcDbLine
10
46.3357
20
1.15463e-14
30
0
11
41.6064
21
1.15463e-14
31
0
0
LINE
8
sheet_layer
100
AcDbEntity
100
AcDbLine
10
69.566
20
5.6
30
0
11
65.6183
21
5.6
31
0
0
LINE
8
sheet_layer
100
AcDbEntity
100
AcDbLine
10
69.566
20
1.15463e-14
30
0
11
65.6183
21
1.15463e-14
31
0
0
LINE
8
sheet_layer
100
AcDbEntity
100
AcDbLine
10
51.2992
20
5.6
30
0
11
46.3357
21
5.6
31
0
0
LINE
8
sheet_layer
100
AcDbEntity
100
AcDbLine
10
51.2992
20
1.15463e-14
30
0
11
46.3357
21
1.15463e-14
31
0
0
LINE
8
sheet_layer
100
AcDbEntity
100
AcDbLine
10
65.6183
20
5.6
30
0
11
61.1365
21
5.6
31
0
0
LINE
8
sheet_layer
100
AcDbEntity
100
AcDbLine
10
65.6183
20
1.15463e-14
30
0
11
61.1365
21
1.15463e-14
31
0
0
LINE
8
sheet_layer
100
AcDbEntity
100
AcDbLine
10
56.2992
20
5.6
30
0
11
51.2992
21
5.6
31
0
0
LINE
8
sheet_layer
100
AcDbEntity
100
AcDbLine
10
56.2992
20
1.15463e-14
30
0
11
51.2992
21
1.15463e-14
31
0
0
LINE
8
sheet_layer
100
AcDbEntity
100
AcDbLine
10
61.1365
20
5.6
30
0
11
56.2992
21
5.6
31
0
0
LINE
8
sheet_layer
100
AcDbEntity
100
AcDbLine
10
61.1365
20
1.15463e-14
30
0
11
56.2992
21
1.15463e-14
31
0
0
SPLINE
8
sheet_layer
100
AcDbEntity
100
AcDbSpline
70
0
71
1
72
17
73
15
74
0
40
4.71239
40
4.71239
40
4.82459
40
4.93679
40
5.04899
40
5.16119
40
5.27339
40
5.38559
40
5.49779
40
5.60999
40
5.72219
40
5.83439
40
5.94659
40
6.05879
40
6.17099
40
6.28319
40
6.28319
10
23.4185
20
5.68434e-14
30
0
10
23.1743
20
0.0176058
30
0
10
22.9332
20
0.0702017
30
0
10
22.6982
20
0.157127
30
0
10
22.4723
20
0.277287
30
0
10
22.2582
20
0.429172
30
0
10
22.0588
20
0.610872
30
0
10
21.8764
20
0.820101
30
0
10
21.7135
20
1.05423
30
0
10
21.572
20
1.31031
30
0
10
21.4537
20
1.58513
30
0
10
21.3601
20
1.87522
30
0
10
21.2924
20
2.17694
30
0
10
21.2514
20
2.4865
30
0
10
21.2377
20
2.8
30
0
0
SPLINE
8
sheet_layer
100
AcDbEntity
100
AcDbSpline
70
0
71
1
72
17
73
15
74
0
40
0
40
0
40
0.1122
40
0.2244
40
0.336599
40
0.448799
40
0.560999
40
0.673199
40
0.785398
40
0.897598
40
1.0098
40
1.122
40
1.2342
40
1.3464
40
1.4586
40
1.5708
40
1.5708
10
21.2377
20
2.8
30
0
10
21.2514
20
3.1135
30
0
10
21.2924
20
3.42306
30
0
10
21.3601
20
3.72478
30
0
10
21.4537
20
4.01487
30
0
10
21.572
20
4.28969
30
0
10
21.7135
20
4.54577
30
0
10
21.8764
20
4.7799
30
0
10
22.0588
20
4.98913
30
0
10
22.2582
20
5.17083
30
0
10
22.4723
20
5.32271
30
0
10
22.6982
20
5.44287
30
0
10
22.9332
20
5.5298
30
0
10
23.1743
20
5.58239
30
0
10
23.4185
20
5.6
30
0
0
ELLIPSE
8
sheet_layer
100
AcDbEntity
100
AcDbEllipse
10
18.6021
20
2.8
30
0
11
1.71451e-16
21
2.8
31
0
40
0.275362
41
6.28319
42
4.71239
0
ELLIPSE
8
sheet_layer
100
AcDbEntity
100
AcDbEllipse
10
18.6021
20
2.8
30
0
11
1.71451e-16
21
2.8
31
0
40
0.275362
41
4.71239
42
3.14159
0
ELLIPSE
8
sheet_layer
100
AcDbEntity
100
AcDbEllipse
10
14.1556
20
2.8
30
0
11
1.71451e-16
21
2.8
31
0
40
0.460807
41
6.28319
42
4.71239
0
ELLIPSE
8
sheet_layer
100
AcDbEntity
100
AcDbEllipse
10
14.1556
20
2.8
30
0
11
1.71451e-16
21
2.8
31
0
40
0.460807
41
4.71239
42
3.14159
0
ELLIPSE
8
sheet_layer
100
AcDbEntity
100
AcDbEllipse
10
18.6021
20
2.8
30
0
11
1.71451e-16
21
2.8
31
0
40
0.460807
41
4.71239
42
3.14159
0
ELLIPSE
8
sheet_layer
100
AcDbEntity
100
AcDbEllipse
10
18.6021
20
2.8
30
0
11
1.71451e-16
21
2.8
31
0
40
0.460807
41
6.28319
42
4.71239
0
ELLIPSE
8
sheet_layer
100
AcDbEntity
100
AcDbEllipse
10
10.2562
20
2.8
30
0
11
1.71451e-16
21
2.8
31
0
40
0.627893
41
6.28319
42
4.71239
0
ELLIPSE
8
sheet_layer
100
AcDbEntity
100
AcDbEllipse
10
10.2562
20
2.8
30
0
11
1.71451e-16
21
2.8
31
0
40
0.627893
41
4.71239
42
3.14159
0
ELLIPSE
8
sheet_layer
100
AcDbEntity
100
AcDbEllipse
10
14.1556
20
2.8
30
0
11
1.71451e-16
21
2.8
31
0
40
0.627893
41
4.71239
42
3.14159
0
ELLIPSE
8
sheet_layer
100
AcDbEntity
100
AcDbEllipse
10
14.1556
20
2.8
30
0
11
1.71451e-16
21
2.8
31
0
40
0.627893
41
6.28319
42
4.71239
0
ELLIPSE
8
sheet_layer
100
AcDbEntity
100
AcDbEllipse
10
7.05935
20
2.8
30
0
11
1.71451e-16
21
2.8
31
0
40
0.769962
41
6.28319
42
4.71239
0
ELLIPSE
8
sheet_layer
100
AcDbEntity
100
AcDbEllipse
10
7.05935
20
2.8
30
0
11
1.71451e-16
21
2.8
31
0
40
0.769962
41
4.71239
42
3.14159
0
ELLIPSE
8
sheet_layer
100
AcDbEntity
100
AcDbEllipse
10
10.2562
20
2.8
30
0
11
1.71451e-16
21
2.8
31
0
40
0.769962
41
4.71239
42
3.14159
0
ELLIPSE
8
sheet_layer
100
AcDbEntity
100
AcDbEllipse
10
10.2562
20
2.8
30
0
11
1.71451e-16
21
2.8
31
0
40
0.769962
41
6.28319
42
4.71239
0
ELLIPSE
8
sheet_layer
100
AcDbEntity
100
AcDbEllipse
10
4.6923
20
2.8
30
0
11
1.71451e-16
21
2.8
31
0
40
0.881354
41
6.28319
42
4.71239
0
ELLIPSE
8
sheet_layer
100
AcDbEntity
100
AcDbEllipse
10
4.6923
20
2.8
30
0
11
1.71451e-16
21
2.8
31
0
40
0.881354
41
4.71239
42
3.14159
0
ELLIPSE
8
sheet_layer
100
AcDbEntity
100
AcDbEllipse
10
7.05935
20
2.8
30
0
11
1.71451e-16
21
2.8
31
0
40
0.881354
41
4.71239
42
3.14159
0
ELLIPSE
8
sheet_layer
100
AcDbEntity
100
AcDbEllipse
10
7.05935
20
2.8
30
0
11
1.71451e-16
21
2.8
31
0
40
0.881354
41
6.28319
42
4.71239
0
ELLIPSE
8
sheet_layer
100
AcDbEntity
100
AcDbEllipse
10
3.24938
20
2.8
30
0
11
1.71451e-16
21
2.8
31
0
40
0.95763
41
6.28319
42
4.71239
0
ELLIPSE
8
sheet_layer
100
AcDbEntity
100
AcDbEllipse
10
3.24938
20
2.8
30
0
11
1.71451e-16
21
2.8
31
0
40
0.95763
41
4.71239
42
3.14159
0
ELLIPSE
8
sheet_layer
100
AcDbEntity
100
AcDbEllipse
10
4.6923
20
2.8
30
0
11
1.71451e-16
21
2.8
31
0
40
0.95763
41
4.71239
42
3.14159
0
ELLIPSE
8
sheet_layer
100
AcDbEntity
100
AcDbEllipse
10
4.6923
20
2.8
30
0
11
1.71451e-16
21
2.8
31
0
40
0.95763
41
6.28319
42
4.71239
0
ELLIPSE
8
sheet_layer
100
AcDbEntity
100
AcDbEllipse
10
2.78811
20
2.8
30
0
11
1.71451e-16
21
2.8
31
0
40
0.995753
41
6.28319
42
4.71239
0
ELLIPSE
8
sheet_layer
100
AcDbEntity
100
AcDbEllipse
10
2.78811
20
2.8
30
0
11
1.71451e-16
21
2.8
31
0
40
0.995753
41
4.71239
42
3.14159
0
ELLIPSE
8
sheet_layer
100
AcDbEntity
100
AcDbEllipse
10
3.24938
20
2.8
30
0
11
1.71451e-16
21
2.8
31
0
40
0.995753
41
4.71239
42
3.14159
0
ELLIPSE
8
sheet_layer
100
AcDbEntity
100
AcDbEllipse
10
3.24938
20
2.8
30
0
11
1.71451e-16
21
2.8
31
0
40
0.995753
41
6.28319
42
4.71239
0
ELLIPSE
8
sheet_layer
100
AcDbEntity
100
AcDbEllipse
10
27.1679
20
2.8
30
0
11
1.71451e-16
21
2.8
31
0
40
0.999395
41
6.28319
42
4.71239
0
ELLIPSE
8
sheet_layer
100
AcDbEntity
100
AcDbEllipse
10
27.1679
20
2.8
30
0
11
1.71451e-16
21
2.8
31
0
40
0.999395
41
4.71239
42
3.14159
0
ELLIPSE
8
sheet_layer
100
AcDbEntity
100
AcDbEllipse
10
27.3422
20
2.8
30
0
11
1.71451e-16
21
2.8
31
0
40
0.999395
41
4.71239
42
3.14159
0
ELLIPSE
8
sheet_layer
100
AcDbEntity
100
AcDbEllipse
10
27.3422
20
2.8
30
0
11
1.71451e-16
21
2.8
31
0
40
0.999395
41
6.28319
42
4.71239
0
ELLIPSE
8
sheet_layer
100
AcDbEntity
100
AcDbEllipse
10
27.3422
20
2.8
30
0
11
1.71451e-16
21
2.8
31
0
40
0.97258
41
6.28319
42
4.71239
0
ELLIPSE
8
sheet_layer
100
AcDbEntity
100
AcDbEllipse
10
27.3422
20
2.8
30
0
11
1.71451e-16
21
2.8
31
0
40
0.97258
41
4.71239
42
3.14159
0
ELLIPSE
8
sheet_layer
100
AcDbEntity
100
AcDbEllipse
10
28.5073
20
2.8
30
0
11
1.71451e-16
21
2.8
31
0
40
0.97258
41
4.71239
42
3.14159
0
ELLIPSE
8
sheet_layer
100
AcDbEntity
100
AcDbEllipse
10
28.5073
20
2.8
30
0
11
1.71451e-16
21
2.8
31
0
40
0.97258
41
6.28319
42
4.71239
0
ELLIPSE
8
sheet_layer
100
AcDbEntity
100
AcDbEllipse
10
77.3139
20
2.8
30
0
11
1.71451e-16
21
-2.8
31
0
40
0.995753
41
1.5708
42
3.14159
0
ELLIPSE
8
sheet_layer
100
AcDbEntity
100
AcDbEllipse
10
77.3139
20
2.8
30
0
11
1.71451e-16
21
-2.8
31
0
40
0.995753
41
0
42
1.5708
0
ELLIPSE
8
sheet_layer
100
AcDbEntity
100
AcDbEllipse
10
28.5073
20
2.8
30
0
11
1.71451e-16
21
2.8
31
0
40
0.907015
41
6.28319
42
4.71239
0
ELLIPSE
8
sheet_layer
100
AcDbEntity
100
AcDbEllipse
10
28.5073
20
2.8
30
0
11
1.71451e-16
21
2.8
31
0
40
0.907015
41
4.71239
42
3.14159
0
ELLIPSE
8
sheet_layer
100
AcDbEntity
100
AcDbEllipse
10
30.6171
20
2.8
30
0
11
1.71451e-16
21
2.8
31
0
40
0.907015
41
4.71239
42
3.14159
0
ELLIPSE
8
sheet_layer
100
AcDbEntity
100
AcDbEllipse
10
30.6171
20
2.8
30
0
11
1.71451e-16
21
2.8
31
0
40
0.907015
41
6.28319
42
4.71239
0
ELLIPSE
8
sheet_layer
100
AcDbEntity
100
AcDbEllipse
10
76.7751
20
2.8
30
0
11
1.71451e-16
21
2.8
31
0
40
0.994202
41
4.71239
42
6.28319
0
ELLIPSE
8
sheet_layer
100
AcDbEntity
100
AcDbEllipse
10
76.7751
20
2.8
30
0
11
1.71451e-16
21
2.8
31
0
40
0.994202
41
3.14159
42
4.71239
0
ELLIPSE
8
sheet_layer
100
AcDbEntity
100
AcDbEllipse
10
77.3139
20
2.8
30
0
11
1.71451e-16
21
2.8
31
0
40
0.994202
41
3.14159
42
4.71239
0
ELLIPSE
8
sheet_layer
100
AcDbEntity
100
AcDbEllipse
10
77.3139
20
2.8
30
0
11
1.71451e-16
21
2.8
31
0
40
0.994202
41
4.71239
42
6.28319
0
ELLIPSE
8
sheet_layer
100
AcDbEntity
100
AcDbEllipse
10
30.6171
20
2.8
30
0
11
1.71451e-16
21
2.8
31
0
40
0.805313
41
6.28319
42
4.71239
0
ELLIPSE
8
sheet_layer
100
AcDbEntity
100
AcDbEllipse
10
30.6171
20
2.8
30
0
11
1.71451e-16
21
2.8
31
0
40
0.805313
41
4.71239
42
3.14159
0
ELLIPSE
8
sheet_layer
100
AcDbEntity
100
AcDbEllipse
10
33.5873
20
2.8
30
0
11
1.71451e-16
21
2.8
31
0
40
0.805313
41
4.71239
42
3.14159
0
ELLIPSE
8
sheet_layer
100
AcDbEntity
100
AcDbEllipse
10
33.5873
20
2.8
30
0
11
1.71451e-16
21
2.8
31
0
40
0.805313
41
6.28319
42
4.71239
0
ELLIPSE
8
sheet_layer
100
AcDbEntity
100
AcDbEllipse
10
76.7751
20
2.8
30
0
11
1.71451e-16
21
2.8
31
0
40
0.95304
41
3.14159
42
6.28319
0
ELLIPSE
8
sheet_layer
100
AcDbEntity
100
AcDbEllipse
10
75.2579
20
2.8
30
0
11
1.71451e-16
21
2.8
31
0
40
0.95304
41
3.14159
42
6.28319
0
ELLIPSE
8
sheet_layer
100
AcDbEntity
100
AcDbEllipse
10
33.5873
20
2.8
30
0
11
1.71451e-16
21
2.8
31
0
40
0.671524
41
6.28319
42
4.71239
0
ELLIPSE
8
sheet_layer
100
AcDbEntity
100
AcDbEllipse
10
33.5873
20
2.8
30
0
11
1.71451e-16
21
2.8
31
0
40
0.671524
41
4.71239
42
3.14159
0
ELLIPSE
8
sheet_layer
100
AcDbEntity
100
AcDbEllipse
10
37.2997
20
2.8
30
0
11
1.71451e-16
21
2.8
31
0
40
0.671524
41
4.71239
42
3.14159
0
ELLIPSE
8
sheet_layer
100
AcDbEntity
100
AcDbEllipse
10
37.2997
20
2.8
30
0
11
1.71451e-16
21
2.8
31
0
40
0.671524
41
6.28319
42
4.71239
0
ELLIPSE
8
sheet_layer
100
AcDbEntity
100
AcDbEllipse
10
75.2579
20
2.8
30
0
11
1.71451e-16
21
2.8
31
0
40
0.873906
41
3.14159
42
6.28319
0
ELLIPSE
8
sheet_layer
100
AcDbEntity
100
AcDbEllipse
10
72.8225
20
2.8
30
0
11
1.71451e-16
21
2.8
31
0
40
0.873906
41
3.14159
42
6.28319
0
ELLIPSE
8
sheet_layer
100
AcDbEntity
100
AcDbEllipse
10
37.2997
20
2.8
30
0
11
1.71451e-16
21
2.8
31
0
40
0.510981
41
6.28319
42
4.71239
0
ELLIPSE
8
sheet_layer
100
AcDbEntity
100
AcDbEllipse
10
37.2997
20
2.8
30
0
11
1.71451e-16
21
2.8
31
0
40
0.510981
41
4.71239
42
3.14159
0
ELLIPSE
8
sheet_layer
100
AcDbEntity
100
AcDbEllipse
10
41.6064
20
2.8
30
0
11
1.71451e-16
21
2.8
31
0
40
0.510981
41
4.71239
42
3.14159
0
ELLIPSE
8
sheet_layer
100
AcDbEntity
100
AcDbEllipse
10
41.6064
20
2.8
30
0
11
1.71451e-16
21
2.8
31
0
40
0.510981
41
6.28319
42
4.71239
0
ELLIPSE
8
sheet_layer
100
AcDbEntity
100
AcDbEllipse
10
72.8225
20
2.8
30
0
11
1.71451e-16
21
2.8
31
0
40
0.759954
41
3.14159
42
6.28319
0
ELLIPSE
8
sheet_layer
100
AcDbEntity
100
AcDbEllipse
10
69.566
20
2.8
30
0
11
1.71451e-16
21
2.8
31
0
40
0.759954
41
3.14159
42
6.28319
0
ELLIPSE
8
sheet_layer
100
AcDbEntity
100
AcDbEllipse
10
41.6064
20
2.8
30
0
11
1.71451e-16
21
2.8
31
0
40
0.330079
41
6.28319
42
4.71239
0
ELLIPSE
8
sheet_layer
100
AcDbEntity
100
AcDbEllipse
10
41.6064
20
2.8
30
0
11
1.71451e-16
21
2.8
31
0
40
0.330079
41
4.71239
42
3.14159
0
ELLIPSE
8
sheet_layer
100
AcDbEntity
100
AcDbEllipse
10
46.3357
20
2.8
30
0
11
1.71451e-16
21
2.8
31
0
40
0.330079
41
4.71239
42
3.14159
0
ELLIPSE
8
sheet_layer
100
AcDbEntity
100
AcDbEllipse
10
46.3357
20
2.8
30
0
11
1.71451e-16
21
2.8
31
0
40
0.330079
41
6.28319
42
4.71239
0
ELLIPSE
8
sheet_layer
100
AcDbEntity
100
AcDbEllipse
10
69.566
20
2.8
30
0
11
1.71451e-16
21
2.8
31
0
40
0.615724
41
3.14159
42
6.28319
0
ELLIPSE
8
sheet_layer
100
AcDbEntity
100
AcDbEllipse
10
65.6183
20
2.8
30
0
11
1.71451e-16
21
2.8
31
0
40
0.615724
41
3.14159
42
6.28319
0
ELLIPSE
8
sheet_layer
100
AcDbEntity
100
AcDbEllipse
10
51.2992
20
2.8
30
0
11
1.71451e-16
21
2.8
31
0
40
0.136026
41
6.28319
42
3.14159
0
ELLIPSE
8
sheet_layer
100
AcDbEntity
100
AcDbEllipse
10
46.3357
20
2.8
30
0
11
1.71451e-16
21
2.8
31
0
40
0.136026
41
6.28319
42
3.14159
0
ELLIPSE
8
sheet_layer
100
AcDbEntity
100
AcDbEllipse
10
65.6183
20
2.8
30
0
11
1.71451e-16
21
2.8
31
0
40
0.446962
41
3.14159
42
6.28319
0
ELLIPSE
8
sheet_layer
100
AcDbEntity
100
AcDbEllipse
10
61.1365
20
2.8
30
0
11
1.71451e-16
21
2.8
31
0
40
0.446962
41
3.14159
42
6.28319
0
ELLIPSE
8
sheet_layer
100
AcDbEntity
100
AcDbEllipse
10
56.2992
20
2.8
30
0
11
1.71451e-16
21
2.8
31
0
40
0.0634467
41
3.14159
42
6.28319
0
ELLIPSE
8
sheet_layer
100
AcDbEntity
100
AcDbEllipse
10
51.2992
20
2.8
30
0
11
1.71451e-16
21
2.8
31
0
40
0.0634467
41
3.14159
42
6.28319
0
LINE
8
sheet_layer
100
AcDbEntity
100
AcDbLine
10
51.2992
20
5.6
30
0
11
51.2992
21
1.15463e-14
31
0
0
ELLIPSE
8
sheet_layer
100
AcDbEntity
100
AcDbEllipse
10
61.1365
20
2.8
30
0
11
1.71451e-16
21
2.8
31
0
40
0.260392
41
3.14159
42
6.28319
0
ELLIPSE
8
sheet_layer
100
AcDbEntity
100
AcDbEllipse
10
56.2992
20
2.8
30
0
11
1.71451e-16
21
2.8
31
0
40
0.260392
41
3.14159
42
6.28319
0
ENDSEC
0
EOF
