0
SECTION
2
HEADER
9
$ACADVER
1
AC1009
9
$INSUNITS
70
4
0
ENDSEC
0
SECTION
2
ENTITIES
0
LINE
8
sheet_layer
100
AcDbEntity
100
AcDbLine
10
7.10543e-15
20
0
30
0
11
7.10543e-15
21
23.2889
31
0
0
LINE
8
sheet_layer
100
AcDbEntity
100
AcDbLine
10
7.10543e-15
20
28.7111
30
0
11
7.10543e-15
21
52
31
0
0
LINE
8
sheet_layer
100
AcDbEntity
100
AcDbLine
10
19.7
20
52
30
0
11
7.10543e-15
21
52
31
0
0
LINE
8
sheet_layer
100
AcDbEntity
100
AcDbLine
10
19.7
20
0
30
0
11
19.7
21
52
31
0
0
LINE
8
sheet_layer
100
AcDbEntity
100
AcDbLine
10
19.7
20
0
30
0
11
7.10543e-15
21
0
31
0
0
CIRCLE
8
sheet_layer
100
AcDbEntity
100
AcDbCircle
10
6.7
20
8
30
0
40
3.2
0
ARC
8
sheet_layer
100
AcDbEntity
100
AcDbCircle
10
1.7
20
26
30
0
40
3.2
100
AcDbArc
50
-122.09
51
0
0
ARC
8
sheet_layer
100
AcDbEntity
100
AcDbCircle
10
1.7
20
26
30
0
40
3.2
100
AcDbArc
50
0
51
122.09
0
ENDSEC
0
EOF
