0
SECTION
2
HEADER
9
$ACADVER
1
AC1009
9
$INSUNITS
70
4
0
ENDSEC
0
SECTION
2
ENTITIES
0
ARC
8
sheet_layer
100
AcDbEntity
100
AcDbCircle
10
11
20
55.857
30
0
40
59
100
AcDbArc
50
90
51
100.745
0
SPLINE
8
sheet_layer
100
AcDbEntity
100
AcDbSpline
70
0
71
1
72
4
73
2
74
0
40
0.385424
40
0.385424
40
0.396758
40
0.396758
10
10.6723
20
114.856
30
0
10
11
20
114.857
30
0
0
LINE
8
sheet_layer
100
AcDbEntity
100
AcDbLine
10
2.13163e-14
20
109.542
30
0
11
2.13163e-14
21
113.822
31
0
0
ARC
8
sheet_layer
100
AcDbEntity
100
AcDbCircle
10
11
20
55.857
30
0
40
54.8
100
AcDbArc
50
90
51
101.58
0
LINE
8
sheet_layer
100
AcDbEntity
100
AcDbLine
10
11
20
114.857
30
0
11
11
21
110.657
31
0
0
SPLINE
8
sheet_layer
100
AcDbEntity
100
AcDbSpline
70
0
71
3
72
14
73
10
74
0
40
0
40
0
40
0
40
0
40
0.206396
40
0.206396
40
0.206396
40
0.347512
40
0.347512
40
0.347512
40
0.385427
40
0.385427
40
0.385427
40
0.385427
10
5
20
110.328
30
0
10
5.00385
20
110.326
30
0
10
5.48028
20
110.387
30
0
10
6.54113
20
110.475
30
0
10
7.26552
20
110.534
30
0
10
8.30483
20
110.606
30
0
10
9.59933
20
110.639
30
0
10
9.94806
20
110.648
30
0
10
10.3057
20
110.654
30
0
10
10.6723
20
110.656
30
0
0
SPLINE
8
sheet_layer
100
AcDbEntity
100
AcDbSpline
70
0
71
1
72
4
73
2
74
0
40
0.000108845
40
0.000108845
40
0.000475498
40
0.000475498
10
6.52786
20
110.474
30
0
10
6.5267
20
110.474
30
0
0
SPLINE
8
sheet_layer
100
AcDbEntity
100
AcDbSpline
70
0
71
2
72
6
73
3
74
0
40
0.598283
40
0.598283
40
0.598283
40
1
40
1
40
1
10
5.23905
20
110.353
30
0
10
4.99946
20
110.328
30
0
10
5
20
110.328
30
0
0
ARC
8
sheet_layer
100
AcDbEntity
100
AcDbCircle
10
11
20
55.857
30
0
40
59
100
AcDbArc
50
-71.214
51
90
0
ARC
8
sheet_layer
100
AcDbEntity
100
AcDbCircle
10
11
20
55.857
30
0
40
54.8
100
AcDbArc
50
-69.7135
51
90
0
LINE
8
sheet_layer
100
AcDbEntity
100
AcDbLine
10
30
20
0
30
0
11
30
21
4.45618
31
0
0
SPLINE
8
sheet_layer
100
AcDbEntity
100
AcDbSpline
70
0
71
3
72
14
73
10
74
0
40
0.408091
40
0.408091
40
0.408091
40
0.408091
40
0.474292
40
0.474292
40
0.474292
40
0.643392
40
0.643392
40
0.643392
40
0.794057
40
0.794057
40
0.794057
40
0.794057
10
11.3277
20
114.856
30
0
10
11.9647
20
114.853
30
0
10
12.5907
20
114.838
30
0
10
13.1502
20
114.818
30
0
10
14.5834
20
114.764
30
0
10
15.5852
20
114.681
30
0
10
16.1962
20
114.628
30
0
10
16.7417
20
114.579
30
0
10
16.9989
20
114.551
30
0
10
17
20
114.551
30
0
0
SPLINE
8
sheet_layer
100
AcDbEntity
100
AcDbSpline
70
0
71
3
72
8
73
4
74
0
40
0.884581
40
0.884581
40
0.884581
40
0.884581
40
0.999978
40
0.999978
40
0.999978
40
0.999978
10
16.7134
20
114.58
30
0
10
16.4678
20
114.603
30
0
10
16.0632
20
114.642
30
0
10
15.4721
20
114.687
30
0
0
SPLINE
8
sheet_layer
100
AcDbEntity
100
AcDbSpline
70
0
71
1
72
4
73
2
74
0
40
0.39676
40
0.39676
40
0.408092
40
0.408092
10
11
20
110.657
30
0
10
11.3277
20
110.656
30
0
0
ENDSEC
0
EOF
