0
SECTION
2
HEADER
9
$ACADVER
1
AC1009
9
$INSUNITS
70
4
0
ENDSEC
0
SECTION
2
ENTITIES
0
LINE
8
sheet_layer
100
AcDbEntity
100
AcDbLine
10
3.13873
20
48.1154
30
0
11
4.2989
21
62.9365
31
0
0
LINE
8
sheet_layer
100
AcDbEntity
100
AcDbLine
10
0.143719
20
48.2964
30
0
11
1.30804
21
63.1706
31
0
0
LINE
8
sheet_layer
100
AcDbEntity
100
AcDbLine
10
3.00108
20
28.7449
30
0
11
3.13877
21
48.1214
31
0
0
LINE
8
sheet_layer
100
AcDbEntity
100
AcDbLine
10
5.53684e-06
20
28.604
30
0
11
0.139183
21
48.19
31
0
0
LINE
8
sheet_layer
100
AcDbEntity
100
AcDbLine
10
6.60733
20
11.691
30
0
11
2.96752
21
28.9037
31
0
0
LINE
8
sheet_layer
100
AcDbEntity
100
AcDbLine
10
3.69419
20
10.9665
30
0
11
0.03242
21
28.283
31
0
0
LINE
8
sheet_layer
100
AcDbEntity
100
AcDbLine
10
9.15548
20
4.70292
30
0
11
6.57097
21
11.7907
31
0
0
LINE
8
sheet_layer
100
AcDbEntity
100
AcDbLine
10
7.33116
20
0.948839
30
0
11
3.7525
21
10.7629
31
0
0
LINE
8
sheet_layer
100
AcDbEntity
100
AcDbLine
10
13.8202
20
11.4561
30
0
11
7.5062
21
2.31521
31
0
0
LINE
8
sheet_layer
100
AcDbEntity
100
AcDbLine
10
15.1841
20
8.15211
30
0
11
9.97459
21
0.610205
31
0
0
LINE
8
sheet_layer
100
AcDbEntity
100
AcDbLine
10
22.1736
20
4.62468
30
0
11
16.1917
21
11.5816
31
0
0
LINE
8
sheet_layer
100
AcDbEntity
100
AcDbLine
10
20.4228
20
2.0594
30
0
11
13.917
21
9.62568
31
0
0
LINE
8
sheet_layer
100
AcDbEntity
100
AcDbLine
10
32.9612
20
5.9591
30
0
11
21.3761
21
4.52602
31
0
0
LINE
8
sheet_layer
100
AcDbEntity
100
AcDbLine
10
33.4334
20
2.99464
30
0
11
21.7444
21
1.54871
31
0
0
LINE
8
sheet_layer
100
AcDbEntity
100
AcDbLine
10
44.4169
20
9.03574
30
0
11
32.8601
21
5.93196
31
0
0
LINE
8
sheet_layer
100
AcDbEntity
100
AcDbLine
10
45.195
20
6.13841
30
0
11
33.6383
21
3.03463
31
0
0
ELLIPSE
8
sheet_layer
100
AcDbEntity
100
AcDbEllipse
10
2.80347
20
63.0536
30
0
11
-1.49543
21
0.117058
31
0
40
0.2917
41
3.14159
42
6.28319
0
ELLIPSE
8
sheet_layer
100
AcDbEntity
100
AcDbEllipse
10
1.63914
20
48.1793
30
0
11
-1.49543
21
0.117058
31
0
40
0.2917
41
5.68828
42
6.28319
0
ELLIPSE
8
sheet_layer
100
AcDbEntity
100
AcDbEllipse
10
1.63914
20
48.1793
30
0
11
-1.49543
21
0.117058
31
0
40
0.2917
41
8.88178e-16
42
0.102947
0
SPLINE
8
sheet_layer
100
AcDbEntity
100
AcDbSpline
70
0
71
2
72
28
73
25
74
0
40
4.71239
40
4.71239
40
4.71239
40
4.82459
40
4.82459
40
4.93679
40
4.93679
40
5.04899
40
5.04899
40
5.16119
40
5.16119
40
5.27339
40
5.27339
40
5.38559
40
5.38559
40
5.49779
40
5.49779
40
5.72219
40
5.72219
40
5.94659
40
5.94659
40
6.05879
40
6.05879
40
6.17099
40
6.17099
40
6.28319
40
6.28319
40
6.28319
10
0.419769
20
48.5207
30
0
10
0.472471
20
48.5409
30
0
10
0.525174
20
48.5611
30
0
10
0.58488
20
48.5788
30
0
10
0.644587
20
48.5966
30
0
10
0.710548
20
48.6118
30
0
10
0.776508
20
48.6269
30
0
10
0.847893
20
48.6393
30
0
10
0.919277
20
48.6516
30
0
10
0.995188
20
48.661
30
0
10
1.0711
20
48.6704
30
0
10
1.15058
20
48.6766
30
0
10
1.23006
20
48.6829
30
0
10
1.31212
20
48.686
30
0
10
1.39417
20
48.6891
30
0
10
1.56109
20
48.6908
30
0
10
1.72953
20
48.6824
30
0
10
1.89747
20
48.6712
30
0
10
2.06036
20
48.6504
30
0
10
2.13961
20
48.6379
30
0
10
2.21886
20
48.6254
30
0
10
2.29446
20
48.6101
30
0
10
2.37006
20
48.5948
30
0
10
2.44107
20
48.5768
30
0
10
2.51208
20
48.5589
30
0
0
SPLINE
8
sheet_layer
100
AcDbEntity
100
AcDbSpline
70
0
71
3
72
11
73
7
74
0
40
0
40
0
40
0
40
0
40
0.475946
40
0.475946
40
0.475946
40
0.951891
40
0.951891
40
0.951891
40
0.951891
10
2.51208
20
48.5589
30
0
10
2.7052
20
48.5045
30
0
10
2.86451
20
48.436
30
0
10
2.97375
20
48.3603
30
0
10
3.08164
20
48.2844
30
0
10
3.13858
20
48.202
30
0
10
3.13877
20
48.1214
30
0
0
SPLINE
8
sheet_layer
100
AcDbEntity
100
AcDbSpline
70
0
71
1
72
4
73
2
74
0
40
0.951891
40
0.951891
40
0.97589
40
0.97589
10
3.13877
20
48.1214
30
0
10
3.13825
20
48.1093
30
0
0
ELLIPSE
8
sheet_layer
100
AcDbEntity
100
AcDbEllipse
10
1.63914
20
48.1793
30
0
11
-1.49996
21
0.0106587
31
0
40
0.38237
41
5.66428
42
6.28319
0
ELLIPSE
8
sheet_layer
100
AcDbEntity
100
AcDbEllipse
10
1.49997
20
28.5933
30
0
11
-1.49996
21
0.0106587
31
0
40
0.38237
41
3.14159
42
6.28319
0
ELLIPSE
8
sheet_layer
100
AcDbEntity
100
AcDbEllipse
10
1.49997
20
28.5933
30
0
11
-1.49996
21
0.0106587
31
0
40
0.38237
41
0
42
0.136091
0
ELLIPSE
8
sheet_layer
100
AcDbEntity
100
AcDbEllipse
10
1.49997
20
28.5933
30
0
11
-1.46755
21
-0.310329
31
0
40
0.789352
41
3.14159
42
6.28319
0
ELLIPSE
8
sheet_layer
100
AcDbEntity
100
AcDbEllipse
10
5.16174
20
11.2768
30
0
11
-1.46755
21
-0.310329
31
0
40
0.789352
41
3.14159
42
6.28319
0
ELLIPSE
8
sheet_layer
100
AcDbEntity
100
AcDbEllipse
10
5.16174
20
11.2768
30
0
11
-1.46755
21
-0.310329
31
0
40
0.789352
41
0
42
0.0553379
0
ELLIPSE
8
sheet_layer
100
AcDbEntity
100
AcDbEllipse
10
5.16174
20
11.2768
30
0
11
-1.40923
21
-0.51387
31
0
40
0.94422
41
3.14159
42
6.28319
0
ELLIPSE
8
sheet_layer
100
AcDbEntity
100
AcDbEllipse
10
8.7404
20
1.46271
30
0
11
-1.40923
21
-0.51387
31
0
40
0.94422
41
2.42126
42
3.14159
0
ELLIPSE
8
sheet_layer
100
AcDbEntity
100
AcDbEllipse
10
8.7404
20
1.46271
30
0
11
-1.40923
21
-0.51387
31
0
40
0.94422
41
3.14159
42
6.28319
0
ELLIPSE
8
sheet_layer
100
AcDbEntity
100
AcDbEllipse
10
8.7404
20
1.46271
30
0
11
-1.40923
21
-0.51387
31
0
40
0.94422
41
0
42
0.912032
0
ELLIPSE
8
sheet_layer
100
AcDbEntity
100
AcDbEllipse
10
8.7404
20
1.46271
30
0
11
1.23419
21
-0.852504
31
0
40
0.963052
41
3.14159
42
6.28319
0
ELLIPSE
8
sheet_layer
100
AcDbEntity
100
AcDbEllipse
10
15.0544
20
10.6036
30
0
11
1.23419
21
-0.852504
31
0
40
0.963052
41
2.10009
42
3.14159
0
ELLIPSE
8
sheet_layer
100
AcDbEntity
100
AcDbEllipse
10
15.0544
20
10.6036
30
0
11
1.23419
21
-0.852504
31
0
40
0.963052
41
3.14159
42
6.28319
0
ELLIPSE
8
sheet_layer
100
AcDbEntity
100
AcDbEllipse
10
15.0544
20
10.6036
30
0
11
1.23419
21
-0.852504
31
0
40
0.963052
41
0
42
0.840703
0
ELLIPSE
8
sheet_layer
100
AcDbEntity
100
AcDbEllipse
10
15.0544
20
10.6036
30
0
11
-1.13736
21
-0.977958
31
0
40
0.948908
41
3.14159
42
6.28319
0
ELLIPSE
8
sheet_layer
100
AcDbEntity
100
AcDbEllipse
10
21.5602
20
3.03736
30
0
11
-1.13736
21
-0.977958
31
0
40
0.948908
41
3.14159
42
6.28319
0
ELLIPSE
8
sheet_layer
100
AcDbEntity
100
AcDbEllipse
10
21.5602
20
3.03736
30
0
11
-1.13736
21
-0.977958
31
0
40
0.948908
41
0
42
0.491086
0
ELLIPSE
8
sheet_layer
100
AcDbEntity
100
AcDbEllipse
10
21.5602
20
3.03736
30
0
11
0.184147
21
-1.48865
31
0
40
0.956226
41
3.14159
42
6.28319
0
ELLIPSE
8
sheet_layer
100
AcDbEntity
100
AcDbEllipse
10
33.2492
20
4.4833
30
0
11
0.184147
21
-1.48865
31
0
40
0.956226
41
3.14159
42
6.28319
0
ELLIPSE
8
sheet_layer
100
AcDbEntity
100
AcDbEllipse
10
33.2492
20
4.4833
30
0
11
0.184147
21
-1.48865
31
0
40
0.956226
41
0
42
0.0649323
0
ELLIPSE
8
sheet_layer
100
AcDbEntity
100
AcDbEllipse
10
33.2492
20
4.4833
30
0
11
0.389067
21
-1.44866
31
0
40
0.970998
41
3.14159
42
6.28319
0
ELLIPSE
8
sheet_layer
100
AcDbEntity
100
AcDbEllipse
10
44.8059
20
7.58708
30
0
11
0.389067
21
-1.44866
31
0
40
0.970998
41
3.14159
42
3.14159
0
ELLIPSE
8
sheet_layer
100
AcDbEntity
100
AcDbEllipse
10
44.8059
20
7.58708
30
0
11
0.389067
21
-1.44866
31
0
40
0.970998
41
3.14159
42
6.28319
0
CIRCLE
8
sheet_layer
100
AcDbEntity
100
AcDbCircle
10
44.8059
20
7.58708
30
0
40
1.5
0
ENDSEC
0
EOF
