0
SECTION
2
HEADER
9
$ACADVER
1
AC1009
9
$INSUNITS
70
4
0
ENDSEC
0
SECTION
2
ENTITIES
0
LINE
8
sheet_layer
100
AcDbEntity
100
AcDbLine
10
84.1
20
164.754
30
0
11
84.1
21
74
31
0
0
LINE
8
sheet_layer
100
AcDbEntity
100
AcDbLine
10
53
20
194
30
0
11
84.1
21
194
31
0
0
LINE
8
sheet_layer
100
AcDbEntity
100
AcDbLine
10
53
20
131
30
0
11
53
21
194
31
0
0
LINE
8
sheet_layer
100
AcDbEntity
100
AcDbLine
10
0
20
131
30
0
11
53
21
131
31
0
0
LINE
8
sheet_layer
100
AcDbEntity
100
AcDbLine
10
0
20
131
30
0
11
0
21
74
31
0
0
LINE
8
sheet_layer
100
AcDbEntity
100
AcDbLine
10
0
20
74
30
0
11
2
21
74
31
0
0
LINE
8
sheet_layer
100
AcDbEntity
100
AcDbLine
10
2
20
74
30
0
11
2
21
0
31
0
0
LINE
8
sheet_layer
100
AcDbEntity
100
AcDbLine
10
2
20
0
30
0
11
50
21
0
31
0
0
LINE
8
sheet_layer
100
AcDbEntity
100
AcDbLine
10
50
20
74
30
0
11
50
21
0
31
0
0
LINE
8
sheet_layer
100
AcDbEntity
100
AcDbLine
10
50
20
74
30
0
11
84.1
21
74
31
0
0
ARC
8
sheet_layer
100
AcDbEntity
100
AcDbCircle
10
80
20
172.2
30
0
40
8.5
100
AcDbArc
50
61.1608
51
-61.1608
0
LINE
8
sheet_layer
100
AcDbEntity
100
AcDbLine
10
84.1
20
194
30
0
11
84.1
21
179.646
31
0
0
LINE
8
sheet_layer
100
AcDbEntity
100
AcDbLine
10
15
20
49
30
0
11
20
21
49
31
0
0
LINE
8
sheet_layer
100
AcDbEntity
100
AcDbLine
10
20
20
49
30
0
11
20
21
52
31
0
0
LINE
8
sheet_layer
100
AcDbEntity
100
AcDbLine
10
20
20
52
30
0
11
26
21
52
31
0
0
LINE
8
sheet_layer
100
AcDbEntity
100
AcDbLine
10
26
20
49
30
0
11
26
21
52
31
0
0
LINE
8
sheet_layer
100
AcDbEntity
100
AcDbLine
10
26
20
49
30
0
11
31
21
49
31
0
0
LINE
8
sheet_layer
100
AcDbEntity
100
AcDbLine
10
31
20
1
30
0
11
31
21
49
31
0
0
LINE
8
sheet_layer
100
AcDbEntity
100
AcDbLine
10
15
20
1
30
0
11
31
21
1
31
0
0
LINE
8
sheet_layer
100
AcDbEntity
100
AcDbLine
10
15
20
1
30
0
11
15
21
49
31
0
0
CIRCLE
8
sheet_layer
100
AcDbEntity
100
AcDbCircle
10
60
20
103
30
0
40
4.5
0
CIRCLE
8
sheet_layer
100
AcDbEntity
100
AcDbCircle
10
60
20
179
30
0
40
4.2
0
ENDSEC
0
EOF
