0
SECTION
2
HEADER
9
$ACADVER
1
AC1009
9
$INSUNITS
70
4
0
ENDSEC
0
SECTION
2
ENTITIES
0
LINE
8
sheet_layer
100
AcDbEntity
100
AcDbLine
10
0
20
0
30
0
11
0
21
272
31
0
0
LINE
8
sheet_layer
100
AcDbEntity
100
AcDbLine
10
0
20
0
30
0
11
188
21
0
31
0
0
LINE
8
sheet_layer
100
AcDbEntity
100
AcDbLine
10
0
20
272
30
0
11
32
21
272
31
0
0
LINE
8
sheet_layer
100
AcDbEntity
100
AcDbLine
10
32
20
166
30
0
11
32
21
272
31
0
0
LINE
8
sheet_layer
100
AcDbEntity
100
AcDbLine
10
65.5335
20
166
30
0
11
32
21
166
31
0
0
ARC
8
sheet_layer
100
AcDbEntity
100
AcDbCircle
10
114
20
136
30
0
40
57
100
AcDbArc
50
148.243
51
0
0
ARC
8
sheet_layer
100
AcDbEntity
100
AcDbCircle
10
114
20
136
30
0
40
57
100
AcDbArc
50
0
51
39.4725
0
LINE
8
sheet_layer
100
AcDbEntity
100
AcDbLine
10
158
20
172.235
30
0
11
158
21
272
31
0
0
LINE
8
sheet_layer
100
AcDbEntity
100
AcDbLine
10
158
20
272
30
0
11
188
21
272
31
0
0
LINE
8
sheet_layer
100
AcDbEntity
100
AcDbLine
10
188
20
0
30
0
11
188
21
272
31
0
0
CIRCLE
8
sheet_layer
100
AcDbEntity
100
AcDbCircle
10
20
20
28
30
0
40
2.2
0
CIRCLE
8
sheet_layer
100
AcDbEntity
100
AcDbCircle
10
40
20
28
30
0
40
2.2
0
CIRCLE
8
sheet_layer
100
AcDbEntity
100
AcDbCircle
10
56
20
28
30
0
40
2.2
0
CIRCLE
8
sheet_layer
100
AcDbEntity
100
AcDbCircle
10
92
20
28
30
0
40
2.2
0
CIRCLE
8
sheet_layer
100
AcDbEntity
100
AcDbCircle
10
55.27
20
114.61
30
0
40
2.2
0
CIRCLE
8
sheet_layer
100
AcDbEntity
100
AcDbCircle
10
114
20
63.2
30
0
40
4.5
0
CIRCLE
8
sheet_layer
100
AcDbEntity
100
AcDbCircle
10
172.73
20
114.61
30
0
40
2.2
0
CIRCLE
8
sheet_layer
100
AcDbEntity
100
AcDbCircle
10
55.27
20
157.39
30
0
40
2.2
0
CIRCLE
8
sheet_layer
100
AcDbEntity
100
AcDbCircle
10
12
20
244
30
0
40
2.2
0
CIRCLE
8
sheet_layer
100
AcDbEntity
100
AcDbCircle
10
24
20
244
30
0
40
2.2
0
CIRCLE
8
sheet_layer
100
AcDbEntity
100
AcDbCircle
10
172.73
20
157.39
30
0
40
2.2
0
CIRCLE
8
sheet_layer
100
AcDbEntity
100
AcDbCircle
10
162
20
244
30
0
40
2.2
0
CIRCLE
8
sheet_layer
100
AcDbEntity
100
AcDbCircle
10
170
20
244
30
0
40
2.2
0
ENDSEC
0
EOF
