0
SECTION
2
HEADER
9
$ACADVER
1
AC1009
9
$INSUNITS
70
4
0
ENDSEC
0
SECTION
2
ENTITIES
0
LINE
8
sheet_layer
100
AcDbEntity
100
AcDbLine
10
21.6939
20
7.5
30
0
11
4.33013
21
17.525
31
0
0
LINE
8
sheet_layer
100
AcDbEntity
100
AcDbLine
10
23.1373
20
10
30
0
11
5.7735
21
20.025
31
0
0
LINE
8
sheet_layer
100
AcDbEntity
100
AcDbLine
10
21.6939
20
7.5
30
0
11
23.1373
21
10
31
0
0
LINE
8
sheet_layer
100
AcDbEntity
100
AcDbLine
10
4.33013
20
17.525
30
0
11
5.7735
21
20.025
31
0
0
LINE
8
sheet_layer
100
AcDbEntity
100
AcDbLine
10
18.8072
20
2.5
30
0
11
1.44338
21
12.525
31
0
0
LINE
8
sheet_layer
100
AcDbEntity
100
AcDbLine
10
18.8072
20
2.5
30
0
11
21.6939
21
7.5
31
0
0
LINE
8
sheet_layer
100
AcDbEntity
100
AcDbLine
10
1.44338
20
12.525
30
0
11
4.33013
21
17.525
31
0
0
LINE
8
sheet_layer
100
AcDbEntity
100
AcDbLine
10
17.3638
20
1.77636e-15
30
0
11
18.8072
21
2.5
31
0
0
LINE
8
sheet_layer
100
AcDbEntity
100
AcDbLine
10
-2.66454e-15
20
10.025
30
0
11
1.44338
21
12.525
31
0
0
LINE
8
sheet_layer
100
AcDbEntity
100
AcDbLine
10
17.3638
20
1.77636e-15
30
0
11
-3.55271e-15
21
10.025
31
0
0
ENDSEC
0
EOF
