0
SECTION
2
HEADER
9
$ACADVER
1
AC1009
9
$INSUNITS
70
4
0
ENDSEC
0
SECTION
2
ENTITIES
0
LINE
8
sheet_layer
100
AcDbEntity
100
AcDbLine
10
0
20
0
30
0
11
0
21
112
31
0
0
LINE
8
sheet_layer
100
AcDbEntity
100
AcDbLine
10
0
20
0
30
0
11
76
21
0
31
0
0
LINE
8
sheet_layer
100
AcDbEntity
100
AcDbLine
10
76
20
0
30
0
11
76
21
112
31
0
0
LINE
8
sheet_layer
100
AcDbEntity
100
AcDbLine
10
0
20
112
30
0
11
76
21
112
31
0
0
CIRCLE
8
sheet_layer
100
AcDbEntity
100
AcDbCircle
10
15
20
26.5
30
0
40
1.7
0
CIRCLE
8
sheet_layer
100
AcDbEntity
100
AcDbCircle
10
15
20
56.5
30
0
40
1.7
0
CIRCLE
8
sheet_layer
100
AcDbEntity
100
AcDbCircle
10
6
20
103
30
0
40
2.4
0
CIRCLE
8
sheet_layer
100
AcDbEntity
100
AcDbCircle
10
9.7
20
92
30
0
40
4.2
0
CIRCLE
8
sheet_layer
100
AcDbEntity
100
AcDbCircle
10
30
20
41.5
30
0
40
8.2
0
CIRCLE
8
sheet_layer
100
AcDbEntity
100
AcDbCircle
10
45
20
26.5
30
0
40
1.7
0
CIRCLE
8
sheet_layer
100
AcDbEntity
100
AcDbCircle
10
45
20
56.5
30
0
40
1.7
0
ENDSEC
0
EOF
