0
SECTION
2
HEADER
9
$ACADVER
1
AC1009
9
$INSUNITS
70
4
0
ENDSEC
0
SECTION
2
ENTITIES
0
LINE
8
sheet_layer
100
AcDbEntity
100
AcDbLine
10
97
20
0
30
0
11
97
21
27.8513
31
0
0
ARC
8
sheet_layer
100
AcDbEntity
100
AcDbCircle
10
85
20
112
30
0
40
85
100
AcDbArc
50
-81.8841
51
-9.57908e-15
0
ARC
8
sheet_layer
100
AcDbEntity
100
AcDbCircle
10
85
20
112
30
0
40
85
100
AcDbArc
50
0
51
81.8841
0
LINE
8
sheet_layer
100
AcDbEntity
100
AcDbLine
10
49
20
0
30
0
11
97
21
0
31
0
0
LINE
8
sheet_layer
100
AcDbEntity
100
AcDbLine
10
97
20
196.149
30
0
11
97
21
224
31
0
0
LINE
8
sheet_layer
100
AcDbEntity
100
AcDbLine
10
49
20
0
30
0
11
49
21
35
31
0
0
LINE
8
sheet_layer
100
AcDbEntity
100
AcDbLine
10
49
20
224
30
0
11
97
21
224
31
0
0
ARC
8
sheet_layer
100
AcDbEntity
100
AcDbCircle
10
85
20
112
30
0
40
85
100
AcDbArc
50
115.058
51
-115.058
0
LINE
8
sheet_layer
100
AcDbEntity
100
AcDbLine
10
49
20
189
30
0
11
49
21
224
31
0
0
CIRCLE
8
sheet_layer
100
AcDbEntity
100
AcDbCircle
10
36
20
62
30
0
40
5
0
CIRCLE
8
sheet_layer
100
AcDbEntity
100
AcDbCircle
10
64
20
17
30
0
40
2.4
0
CIRCLE
8
sheet_layer
100
AcDbEntity
100
AcDbCircle
10
63
20
34.5
30
0
40
2.4
0
CIRCLE
8
sheet_layer
100
AcDbEntity
100
AcDbCircle
10
78
20
17
30
0
40
2.4
0
CIRCLE
8
sheet_layer
100
AcDbEntity
100
AcDbCircle
10
85
20
33.3
30
0
40
3.1
0
CIRCLE
8
sheet_layer
100
AcDbEntity
100
AcDbCircle
10
63
20
40.5
30
0
40
2.4
0
CIRCLE
8
sheet_layer
100
AcDbEntity
100
AcDbCircle
10
28.71
20
79.5
30
0
40
2.4
0
CIRCLE
8
sheet_layer
100
AcDbEntity
100
AcDbCircle
10
41.8
20
68.9
30
0
40
2.4
0
CIRCLE
8
sheet_layer
100
AcDbEntity
100
AcDbCircle
10
92
20
34.5
30
0
40
2.4
0
CIRCLE
8
sheet_layer
100
AcDbEntity
100
AcDbCircle
10
92
20
40.5
30
0
40
2.4
0
CIRCLE
8
sheet_layer
100
AcDbEntity
100
AcDbCircle
10
128.2
20
68.9
30
0
40
2.4
0
CIRCLE
8
sheet_layer
100
AcDbEntity
100
AcDbCircle
10
141.29
20
79.5
30
0
40
2.4
0
CIRCLE
8
sheet_layer
100
AcDbEntity
100
AcDbCircle
10
146
20
104
30
0
40
2.4
0
CIRCLE
8
sheet_layer
100
AcDbEntity
100
AcDbCircle
10
28.71
20
144.5
30
0
40
2.4
0
CIRCLE
8
sheet_layer
100
AcDbEntity
100
AcDbCircle
10
41.8
20
155.1
30
0
40
2.4
0
ARC
8
sheet_layer
100
AcDbEntity
100
AcDbCircle
10
85
20
112
30
0
40
57
100
AcDbArc
50
1.42846e-14
51
86.983
0
LINE
8
sheet_layer
100
AcDbEntity
100
AcDbLine
10
88
20
168.921
30
0
11
88
21
174
31
0
0
LINE
8
sheet_layer
100
AcDbEntity
100
AcDbLine
10
88
20
174
30
0
11
54
21
174
31
0
0
LINE
8
sheet_layer
100
AcDbEntity
100
AcDbLine
10
54
20
159.833
30
0
11
54
21
174
31
0
0
ARC
8
sheet_layer
100
AcDbEntity
100
AcDbCircle
10
85
20
112
30
0
40
57
100
AcDbArc
50
122.947
51
-122.947
0
LINE
8
sheet_layer
100
AcDbEntity
100
AcDbLine
10
54
20
50
30
0
11
54
21
64.167
31
0
0
LINE
8
sheet_layer
100
AcDbEntity
100
AcDbLine
10
88
20
50
30
0
11
54
21
50
31
0
0
LINE
8
sheet_layer
100
AcDbEntity
100
AcDbLine
10
88
20
50
30
0
11
88
21
55.079
31
0
0
ARC
8
sheet_layer
100
AcDbEntity
100
AcDbCircle
10
85
20
112
30
0
40
57
100
AcDbArc
50
-86.983
51
0
0
CIRCLE
8
sheet_layer
100
AcDbEntity
100
AcDbCircle
10
63
20
183.5
30
0
40
2.4
0
CIRCLE
8
sheet_layer
100
AcDbEntity
100
AcDbCircle
10
63
20
189.5
30
0
40
2.4
0
CIRCLE
8
sheet_layer
100
AcDbEntity
100
AcDbCircle
10
64
20
207
30
0
40
2.4
0
CIRCLE
8
sheet_layer
100
AcDbEntity
100
AcDbCircle
10
78
20
207
30
0
40
2.4
0
CIRCLE
8
sheet_layer
100
AcDbEntity
100
AcDbCircle
10
146
20
120
30
0
40
2.4
0
CIRCLE
8
sheet_layer
100
AcDbEntity
100
AcDbCircle
10
128.2
20
155.1
30
0
40
2.4
0
CIRCLE
8
sheet_layer
100
AcDbEntity
100
AcDbCircle
10
141.29
20
144.5
30
0
40
2.4
0
CIRCLE
8
sheet_layer
100
AcDbEntity
100
AcDbCircle
10
92
20
183.5
30
0
40
2.4
0
CIRCLE
8
sheet_layer
100
AcDbEntity
100
AcDbCircle
10
92
20
189.5
30
0
40
2.4
0
ENDSEC
0
EOF
