0
SECTION
2
HEADER
9
$ACADVER
1
AC1009
9
$INSUNITS
70
4
0
ENDSEC
0
SECTION
2
ENTITIES
0
LINE
8
sheet_layer
100
AcDbEntity
100
AcDbLine
10
5
20
92
30
0
11
49
21
92
31
0
0
LINE
8
sheet_layer
100
AcDbEntity
100
AcDbLine
10
0
20
18
30
0
11
0
21
90
31
0
0
LINE
8
sheet_layer
100
AcDbEntity
100
AcDbLine
10
5
20
16
30
0
11
49
21
16
31
0
0
LINE
8
sheet_layer
100
AcDbEntity
100
AcDbLine
10
49
20
16
30
0
11
49
21
92
31
0
0
LINE
8
sheet_layer
100
AcDbEntity
100
AcDbLine
10
5
20
90
30
0
11
5
21
108
31
0
0
LINE
8
sheet_layer
100
AcDbEntity
100
AcDbLine
10
0
20
90
30
0
11
5
21
90
31
0
0
LINE
8
sheet_layer
100
AcDbEntity
100
AcDbLine
10
0
20
18
30
0
11
5
21
18
31
0
0
LINE
8
sheet_layer
100
AcDbEntity
100
AcDbLine
10
5
20
0
30
0
11
5
21
18
31
0
0
LINE
8
sheet_layer
100
AcDbEntity
100
AcDbLine
10
0
20
108
30
0
11
5
21
108
31
0
0
LINE
8
sheet_layer
100
AcDbEntity
100
AcDbLine
10
0
20
90
30
0
11
0
21
108
31
0
0
LINE
8
sheet_layer
100
AcDbEntity
100
AcDbLine
10
0
20
0
30
0
11
5
21
0
31
0
0
LINE
8
sheet_layer
100
AcDbEntity
100
AcDbLine
10
0
20
0
30
0
11
0
21
18
31
0
0
ENDSEC
0
EOF
