0
SECTION
2
HEADER
9
$ACADVER
1
AC1009
9
$INSUNITS
70
4
0
ENDSEC
0
SECTION
2
ENTITIES
0
LINE
8
sheet_layer
100
AcDbEntity
100
AcDbLine
10
0
20
0
30
0
11
0
21
104
31
0
0
LINE
8
sheet_layer
100
AcDbEntity
100
AcDbLine
10
29.8
20
104
30
0
11
-2.22045e-16
21
104
31
0
0
LINE
8
sheet_layer
100
AcDbEntity
100
AcDbLine
10
29.8
20
104
30
0
11
29.8
21
160
31
0
0
LINE
8
sheet_layer
100
AcDbEntity
100
AcDbLine
10
29.8
20
160
30
0
11
-2.22045e-16
21
160
31
0
0
LINE
8
sheet_layer
100
AcDbEntity
100
AcDbLine
10
0
20
160
30
0
11
0
21
264
31
0
0
LINE
8
sheet_layer
100
AcDbEntity
100
AcDbLine
10
0
20
264
30
0
11
8.8
21
264
31
0
0
LINE
8
sheet_layer
100
AcDbEntity
100
AcDbLine
10
8.8
20
234
30
0
11
8.8
21
264
31
0
0
LINE
8
sheet_layer
100
AcDbEntity
100
AcDbLine
10
84.8
20
234
30
0
11
8.8
21
234
31
0
0
LINE
8
sheet_layer
100
AcDbEntity
100
AcDbLine
10
84.8
20
234
30
0
11
84.8
21
264
31
0
0
LINE
8
sheet_layer
100
AcDbEntity
100
AcDbLine
10
84.8
20
264
30
0
11
262.8
21
264
31
0
0
LINE
8
sheet_layer
100
AcDbEntity
100
AcDbLine
10
262.8
20
234
30
0
11
262.8
21
264
31
0
0
LINE
8
sheet_layer
100
AcDbEntity
100
AcDbLine
10
328.8
20
234
30
0
11
262.8
21
234
31
0
0
LINE
8
sheet_layer
100
AcDbEntity
100
AcDbLine
10
328.8
20
30
30
0
11
328.8
21
234
31
0
0
LINE
8
sheet_layer
100
AcDbEntity
100
AcDbLine
10
328.8
20
30
30
0
11
262.8
21
30
31
0
0
LINE
8
sheet_layer
100
AcDbEntity
100
AcDbLine
10
262.8
20
0
30
0
11
262.8
21
30
31
0
0
LINE
8
sheet_layer
100
AcDbEntity
100
AcDbLine
10
84.8
20
0
30
0
11
262.8
21
0
31
0
0
LINE
8
sheet_layer
100
AcDbEntity
100
AcDbLine
10
84.8
20
0
30
0
11
84.8
21
30
31
0
0
LINE
8
sheet_layer
100
AcDbEntity
100
AcDbLine
10
84.8
20
30
30
0
11
8.8
21
30
31
0
0
LINE
8
sheet_layer
100
AcDbEntity
100
AcDbLine
10
8.8
20
0
30
0
11
8.8
21
30
31
0
0
LINE
8
sheet_layer
100
AcDbEntity
100
AcDbLine
10
0
20
0
30
0
11
8.8
21
0
31
0
0
CIRCLE
8
sheet_layer
100
AcDbEntity
100
AcDbCircle
10
103.8
20
13.98
30
0
40
2.2
0
CIRCLE
8
sheet_layer
100
AcDbEntity
100
AcDbCircle
10
133.8
20
13.98
30
0
40
2.2
0
CIRCLE
8
sheet_layer
100
AcDbEntity
100
AcDbCircle
10
162.8
20
13.98
30
0
40
2.2
0
CIRCLE
8
sheet_layer
100
AcDbEntity
100
AcDbCircle
10
113.8
20
37
30
0
40
1.75
0
CIRCLE
8
sheet_layer
100
AcDbEntity
100
AcDbCircle
10
13.8
20
92
30
0
40
1.75
0
CIRCLE
8
sheet_layer
100
AcDbEntity
100
AcDbCircle
10
23.8
20
97
30
0
40
2.2
0
CIRCLE
8
sheet_layer
100
AcDbEntity
100
AcDbCircle
10
34.8
20
106
30
0
40
2.2
0
CIRCLE
8
sheet_layer
100
AcDbEntity
100
AcDbCircle
10
34.8
20
122
30
0
40
2.2
0
CIRCLE
8
sheet_layer
100
AcDbEntity
100
AcDbCircle
10
104.8
20
98.5
30
0
40
2.2
0
CIRCLE
8
sheet_layer
100
AcDbEntity
100
AcDbCircle
10
143.8
20
97
30
0
40
2.2
0
LINE
8
sheet_layer
100
AcDbEntity
100
AcDbLine
10
232.28
20
1.16
30
0
11
176.28
21
1.16
31
0
0
LINE
8
sheet_layer
100
AcDbEntity
100
AcDbLine
10
232.28
20
1.16
30
0
11
232.28
21
31.16
31
0
0
LINE
8
sheet_layer
100
AcDbEntity
100
AcDbLine
10
232.28
20
31.16
30
0
11
215.335
21
31.16
31
0
0
ARC
8
sheet_layer
100
AcDbEntity
100
AcDbCircle
10
213.8
20
32
30
0
40
1.75
100
AcDbArc
50
-28.6854
51
0
0
ARC
8
sheet_layer
100
AcDbEntity
100
AcDbCircle
10
213.8
20
32
30
0
40
1.75
100
AcDbArc
50
0
51
-151.315
0
LINE
8
sheet_layer
100
AcDbEntity
100
AcDbLine
10
212.265
20
31.16
30
0
11
176.28
21
31.16
31
0
0
LINE
8
sheet_layer
100
AcDbEntity
100
AcDbLine
10
176.28
20
1.16
30
0
11
176.28
21
31.16
31
0
0
CIRCLE
8
sheet_layer
100
AcDbEntity
100
AcDbCircle
10
182.28
20
36.16
30
0
40
2.2
0
CIRCLE
8
sheet_layer
100
AcDbEntity
100
AcDbCircle
10
190.28
20
36.16
30
0
40
2.2
0
CIRCLE
8
sheet_layer
100
AcDbEntity
100
AcDbCircle
10
184.8
20
98.5
30
0
40
2.2
0
CIRCLE
8
sheet_layer
100
AcDbEntity
100
AcDbCircle
10
216.3
20
70
30
0
40
2.2
0
CIRCLE
8
sheet_layer
100
AcDbEntity
100
AcDbCircle
10
236.3
20
70
30
0
40
2.2
0
CIRCLE
8
sheet_layer
100
AcDbEntity
100
AcDbCircle
10
216.3
20
92
30
0
40
2.2
0
CIRCLE
8
sheet_layer
100
AcDbEntity
100
AcDbCircle
10
261.3
20
92
30
0
40
2.2
0
CIRCLE
8
sheet_layer
100
AcDbEntity
100
AcDbCircle
10
323.8
20
132
30
0
40
1.75
0
CIRCLE
8
sheet_layer
100
AcDbEntity
100
AcDbCircle
10
23.8
20
167
30
0
40
2.2
0
CIRCLE
8
sheet_layer
100
AcDbEntity
100
AcDbCircle
10
104.8
20
187.5
30
0
40
2.2
0
CIRCLE
8
sheet_layer
100
AcDbEntity
100
AcDbCircle
10
143.8
20
167
30
0
40
2.2
0
CIRCLE
8
sheet_layer
100
AcDbEntity
100
AcDbCircle
10
103.8
20
250.02
30
0
40
2.2
0
CIRCLE
8
sheet_layer
100
AcDbEntity
100
AcDbCircle
10
133.8
20
250.02
30
0
40
2.2
0
CIRCLE
8
sheet_layer
100
AcDbEntity
100
AcDbCircle
10
162.8
20
250.02
30
0
40
2.2
0
CIRCLE
8
sheet_layer
100
AcDbEntity
100
AcDbCircle
10
184.8
20
187.5
30
0
40
2.2
0
CIRCLE
8
sheet_layer
100
AcDbEntity
100
AcDbCircle
10
216.3
20
172
30
0
40
2.2
0
CIRCLE
8
sheet_layer
100
AcDbEntity
100
AcDbCircle
10
261.3
20
172
30
0
40
2.2
0
CIRCLE
8
sheet_layer
100
AcDbEntity
100
AcDbCircle
10
182.28
20
227.84
30
0
40
2.2
0
CIRCLE
8
sheet_layer
100
AcDbEntity
100
AcDbCircle
10
190.28
20
227.84
30
0
40
2.2
0
LINE
8
sheet_layer
100
AcDbEntity
100
AcDbLine
10
232.28
20
232.84
30
0
11
176.28
21
232.84
31
0
0
LINE
8
sheet_layer
100
AcDbEntity
100
AcDbLine
10
232.28
20
232.84
30
0
11
232.28
21
262.84
31
0
0
LINE
8
sheet_layer
100
AcDbEntity
100
AcDbLine
10
232.28
20
262.84
30
0
11
176.28
21
262.84
31
0
0
LINE
8
sheet_layer
100
AcDbEntity
100
AcDbLine
10
176.28
20
232.84
30
0
11
176.28
21
262.84
31
0
0
ENDSEC
0
EOF
